<?xml version="1.0" encoding="UTF-8" standalone="no"?>
<svg
   xmlns:dc="http://purl.org/dc/elements/1.1/"
   xmlns:cc="http://creativecommons.org/ns#"
   xmlns:rdf="http://www.w3.org/1999/02/22-rdf-syntax-ns#"
   xmlns:svg="http://www.w3.org/2000/svg"
   xmlns="http://www.w3.org/2000/svg"
   xmlns:sodipodi="http://sodipodi.sourceforge.net/DTD/sodipodi-0.dtd"
   xmlns:inkscape="http://www.inkscape.org/namespaces/inkscape"
   width="512"
   height="512"
   viewBox="0 0 135.46666 135.46667"
   version="1.1"
   id="svg8"
   inkscape:version="1.0.2-2 (e86c870879, 2021-01-15)"
   sodipodi:docname="Icon.svg"
   inkscape:export-filename="C:\Users\Rodrigo\Documents\GitHub\liberationvalues.github.io\Icon.png"
   inkscape:export-xdpi="96"
   inkscape:export-ydpi="96">
  <defs
     id="defs2" />
  <sodipodi:namedview
     id="base"
     pagecolor="#ffffff"
     bordercolor="#666666"
     borderopacity="1.0"
     inkscape:pageopacity="0.0"
     inkscape:pageshadow="2"
     inkscape:zoom="5.6568544"
     inkscape:cx="315.08076"
     inkscape:cy="227.35451"
     inkscape:document-units="mm"
     inkscape:current-layer="layer1"
     inkscape:document-rotation="0"
     showgrid="false"
     units="px"
     inkscape:window-width="1920"
     inkscape:window-height="1017"
     inkscape:window-x="-8"
     inkscape:window-y="-8"
     inkscape:window-maximized="1"
     showguides="false" />
  <metadata
     id="metadata5">
    <rdf:RDF>
      <cc:Work
         rdf:about="">
        <dc:format>image/svg+xml</dc:format>
        <dc:type
           rdf:resource="http://purl.org/dc/dcmitype/StillImage" />
        <dc:title />
      </cc:Work>
    </rdf:RDF>
  </metadata>
  <g
     inkscape:label="Layer 1"
     inkscape:groupmode="layer"
     id="layer1">
    <path
       id="rect833"
       style="fill:#e6e6e6;stroke-width:0.264581;opacity:0.992"
       d="m 24.946432,3.5603841e-6 h 85.573798 c 13.82033,0 24.94643,11.0991344396159 24.94643,24.8859524396159 v 85.694754 c 0,13.78682 -11.1261,24.88595 -24.94643,24.88595 H 24.946432 C 11.126111,135.46666 3.5603841e-6,124.36753 3.5603841e-6,110.58071 V 24.885956 C 3.5603841e-6,11.099138 11.126111,3.5603841e-6 24.946432,3.5603841e-6 Z"
       inkscape:export-xdpi="96"
       inkscape:export-ydpi="96" />
    <g
       id="g2657">
      <g
         id="g841"
         transform="matrix(0.34922978,0,0,0.34922978,-16.142579,-11.784889)"
         style="fill:#006aa7;fill-opacity:1;stroke:#000000;stroke-width:1.43172;stroke-miterlimit:4;stroke-dasharray:none;stroke-opacity:1">
        <path
           style="fill:#006aa7;fill-opacity:1;stroke:#000000;stroke-width:1.43172;stroke-miterlimit:4;stroke-dasharray:none;stroke-opacity:1"
           d="m 153.13962,88.47793 c 2.51117,-9.435237 8.02897,-17.777153 16.08288,-25.19685 10.2966,8.773008 13.61062,17.546017 17.58331,26.319025 -4.70925,3.317915 -9.40961,6.582548 -14.36391,11.370775 -6.78233,-4.689533 -10.34207,-9.038783 -19.30228,-12.49295 z"
           id="path836" />
        <path
           style="fill:#006aa7;fill-opacity:1;stroke:#000000;stroke-width:1.43172;stroke-miterlimit:4;stroke-dasharray:none;stroke-opacity:1"
           d="m 176.94458,104.41637 c 8.77155,-6.658242 17.9158,-14.667758 34.78184,-16.029354 6.48073,11.151095 10.08146,49.134144 -1.03058,58.016344 -11.14913,-16.75434 -20.02487,-29.2015 -33.75126,-41.98699 z"
           id="path834" />
        <path
           style="fill:#006aa7;fill-opacity:1;stroke:#000000;stroke-width:1.43172;stroke-miterlimit:4;stroke-dasharray:none;stroke-opacity:1"
           d="m 155.67014,161.42095 c -37.3598,-6.10523 -41.27679,-52.14109 -28.51964,-76.450696 34.2005,3.32732 66.15339,40.959376 79.15167,66.186786 -13.95053,10.52116 -36.10202,12.46252 -50.63203,10.26391 z"
           id="path844" />
      </g>
      <path
         d="m 93.598329,11.686053 c -8.74836,0 -15.90621,7.157848 -15.90621,15.906208 0,8.74837 7.15785,15.90621 15.90621,15.90621 8.748371,0 15.906221,-7.15784 15.906221,-15.90621 0,-8.74836 -7.15785,-15.906208 -15.906221,-15.906208 z m 2.11896,3.570208 c 5.925021,0.99757 10.393991,6.11299 10.393991,12.336 0,2.31074 -0.61675,4.46837 -1.6948,6.3196 z m -4.24212,7.5e-4 -8.69707,18.65099 c -1.07669,-1.85047 -1.69252,-4.00685 -1.69252,-6.31579 0,-6.2212 4.46676,-11.33584 10.38959,-12.3352 z m 2.12116,3.48023 4.03011,8.64276 h -8.06042 z m -5.61261,12.03601 h 11.22502 l 2.833961,6.07733 c -2.220561,2.02457 -5.180171,3.25418 -8.444561,3.25418 -3.26561,0 -6.22643,-1.23081 -8.44718,-3.25679 z"
         stroke-width="0.26458"
         id="path2"
         style="fill:#ff0000;fill-opacity:1;stroke:#000000;stroke-width:0.5;stroke-miterlimit:4;stroke-dasharray:none;stroke-opacity:1" />
    </g>
    <path
       id="path19657-0"
       style="fill:#cd0000;fill-opacity:1;stroke:#000000;stroke-width:0.499999;stroke-linecap:butt;stroke-linejoin:miter;stroke-miterlimit:4;stroke-dasharray:none;stroke-opacity:1"
       d="m 29.292695,48.603235 c 1.757059,1.036051 3.159836,2.661227 3.928442,4.550625 0.430896,1.059241 0.666733,2.210109 0.577743,3.350183 -0.05776,0.739992 -0.260671,1.473044 -0.605131,2.128554 l -5.105632,-5.105633 1.847433,-1.847431 -1.104842,-1.104326 c -0.392402,0.206584 -0.814976,0.355576 -1.250054,0.441317 -0.445659,0.08783 -0.904142,0.109008 -1.355989,0.06253 l -3.635954,3.635954 2.155424,2.155939 1.458826,-1.458825 5.130953,5.130953 c -0.480742,0.271669 -1.005728,0.468702 -1.546159,0.582909 -1.032122,0.218128 -2.113447,0.151127 -3.134176,-0.115237 -1.573431,-0.410588 -3.018757,-1.299527 -4.095357,-2.518193 l -3.670577,3.671094 1.580782,1.580782 2.453597,-2.453081 c 1.390563,1.574897 3.453819,2.535187 5.554183,2.584857 1.674483,0.0396 3.351341,-0.501962 4.704622,-1.486215 l 1.334286,1.334286 1.875854,-1.894459 -1.368909,-1.368909 c 0.536895,-0.809247 0.925259,-1.717326 1.123963,-2.668053 0.294561,-1.40929 0.180663,-2.901664 -0.324527,-4.24987 -0.505174,-1.348208 -1.400019,-2.547625 -2.548166,-3.416329 -1.148131,-0.868704 -2.545864,-1.403824 -3.980635,-1.523422 z" />
    <g
       id="g1037">
      <path
         id="path856"
         style="fill:#ffe000;fill-opacity:1;stroke:#000000;stroke-width:0.499999;stroke-miterlimit:4;stroke-dasharray:none;stroke-opacity:1"
         inkscape:transform-center-x="-0.016032813"
         inkscape:transform-center-y="-0.92651062"
         d="m 81.223785,59.605874 -2.01758,3.538376 h 1.300397 v 3.75749 h 1.494846 v -3.75749 h 1.300401 z"
         sodipodi:nodetypes="cccccccc" />
      <path
         id="path863"
         style="fill:#ffe000;fill-opacity:1;stroke:#000000;stroke-width:0.499999;stroke-miterlimit:4;stroke-dasharray:none;stroke-opacity:1"
         inkscape:transform-center-x="-0.016032813"
         inkscape:transform-center-y="0.92651062"
         d="m 81.223785,56.903101 -2.01758,-3.538371 h 1.300397 v -3.757494 h 1.494846 v 3.757494 h 1.300401 z"
         sodipodi:nodetypes="cccccccc" />
    </g>
    <g
       id="g950"
       transform="matrix(0.57784223,0,0,0.57784223,236.22667,-6.127906)"
       style="fill:#000000;fill-opacity:1;stroke-width:1.73058">
      <path
         id="path856-8"
         style="fill:#000000;fill-opacity:1;stroke-width:0.457882"
         inkscape:transform-center-x="-0.016032813"
         inkscape:transform-center-y="0.92651062"
         d="m -222.53526,125.0751 -3.27123,-5.73698 h 2.10842 v -6.09226 h 2.42369 v 6.09226 h 2.10841 z"
         sodipodi:nodetypes="cccccccc" />
      <path
         id="path863-7"
         style="fill:#000000;fill-opacity:1;stroke-width:0.457882"
         inkscape:transform-center-x="-0.016032813"
         inkscape:transform-center-y="-0.92651062"
         d="m -222.53526,97.034437 -3.27123,5.736993 h 2.10842 v 6.09225 h 2.42369 v -6.09225 h 2.10841 z"
         sodipodi:nodetypes="cccccccc" />
      <path
         id="path869-3"
         style="fill:#000000;fill-opacity:1;stroke-width:0.457882"
         inkscape:transform-center-x="0.016032813"
         inkscape:transform-center-y="-0.92651062"
         d="m -236.50656,111.00573 5.73699,-3.27123 v 2.10841 h 6.09226 v 2.42369 h -6.09226 v 2.10842 z"
         sodipodi:nodetypes="cccccccc" />
      <path
         id="path871-3"
         style="fill:#000000;fill-opacity:1;stroke-width:0.457882"
         inkscape:transform-center-x="0.016032813"
         inkscape:transform-center-y="0.92651062"
         d="m -208.46589,111.00573 -5.73698,-3.27123 v 2.10841 h -6.09226 v 2.42369 h 6.09226 v 2.10842 z"
         sodipodi:nodetypes="cccccccc" />
    </g>
    <g
       id="g2636"
       transform="translate(8.4211008,-0.42575728)">
      <path
         style="fill:#ff9800;fill-opacity:1;stroke:#000000;stroke-width:0.5;stroke-miterlimit:4;stroke-dasharray:none;stroke-opacity:1"
         d="m 19.960324,76.130442 c 1.056886,0.0013 1.623319,0.290336 2.251951,1.148845 1.303345,1.779942 1.663659,2.023576 2.992559,2.023576 1.131115,0 1.999982,-0.247254 4.531902,-1.290205 0.291434,-0.12005 0.742533,2.337771 0.988432,5.384934 l 0.144684,1.791448 -0.744102,0.326299 c -2.031642,0.890572 -3.801581,1.22419 -4.827627,0.909917 -0.599742,-0.183695 -1.070225,-0.659153 -1.905682,-1.925403 -0.715928,-1.085086 -1.607119,-1.420765 -3.097009,-1.166441 -0.960621,0.16398 -2.792774,0.776937 -2.822034,0.944107 -0.0108,0.06167 0.431804,2.123117 0.983397,4.580982 l 0.912851,4.067945 a 9.4470422,11.251685 47.500875 0 1 -1.241485,-0.122965 c -0.12226,-0.832977 -0.591083,-3.044573 -1.573564,-7.460891 -0.983726,-4.421913 -1.710909,-7.93802 -1.670309,-8.076699 0.11606,-0.39647 0.416449,-0.503718 0.708468,-0.252921 l 0.247344,0.212334 0.727852,-0.288311 c 1.286225,-0.509392 2.540625,-0.807633 3.392372,-0.806551 z m -3.820951,1.942601 c -0.0109,1.2e-4 -0.0201,0.003 -0.02725,0.0096 -0.0267,0.0237 0.218789,1.238805 0.545652,2.700164 0.397584,1.777598 0.627388,2.59786 0.693993,2.478631 0.05476,-0.09802 0.147774,-0.579623 0.206729,-1.070271 0.131924,-1.097441 -0.01075,-2.063167 -0.429583,-2.907504 -0.267119,-0.538483 -0.826012,-1.21253 -0.989522,-1.210625 z"
         id="path4773-5"
         inkscape:connector-curvature="0" />
      <path
         inkscape:connector-curvature="0"
         style="fill:#03a9f4;fill-opacity:1;stroke:#000000;stroke-width:0.5;stroke-miterlimit:4;stroke-dasharray:none;stroke-opacity:1"
         d="m 48.284489,75.343434 c -0.29122,0 -0.58247,0.0076 -0.74905,0.023 -1.911,0.176485 -3.58043,0.854999 -5.05087,2.054664 -0.31641,0.258141 -0.93951,0.880573 -1.20691,1.205099 -1.18537,1.438599 -1.87098,3.096519 -2.06061,4.97852 -0.0385,0.381526 -0.044,1.215444 -0.01,1.585955 0.17913,1.940606 0.88004,3.638166 2.11332,5.11908 0.10199,0.122475 0.3357,0.371101 0.53124,0.566636 0.48882,0.488822 0.86668,0.800153 1.42575,1.171769 1.26359,0.839913 2.78197,1.361559 4.28709,1.470715 0.14827,0.01075 0.31005,0.0217 0.3594,0.0253 0.21089,0.0154 0.89577,-0.0072 1.19942,-0.03515 1.13751,-0.104611 2.19767,-0.406437 3.22462,-0.918033 2.66845,-1.329349 4.5291,-3.902786 4.94519,-6.837845 0.07,-0.493457 0.0924,-0.810188 0.0917,-1.328089 -0.001,-1.020314 -0.14885,-1.927316 -0.47052,-2.888724 -0.35926,-1.073784 -0.91393,-2.057662 -1.66605,-2.960809 -0.23553,-0.282826 -0.81996,-0.867473 -1.09761,-1.097869 -1.49169,-1.237835 -3.17478,-1.931855 -5.11728,-2.111249 -0.16658,-0.01538 -0.45783,-0.02299 -0.74905,-0.02299 z m -2.12598,1.431183 c -0.45504,0.497636 -0.95313,1.151088 -1.33403,1.781295 -0.18468,0.305555 -0.46268,0.837182 -0.62684,1.199153 -0.0271,0.05988 -0.0516,0.113086 -0.0723,0.156321 -0.0105,-0.004 -0.0151,-0.005 -0.0274,-0.0098 -0.0769,-0.03115 -0.18643,-0.08062 -0.3067,-0.136686 -0.24053,-0.11214 -0.53121,-0.257286 -0.74208,-0.374911 -0.15027,-0.08383 -0.32882,-0.18851 -0.47077,-0.275441 -0.0594,-0.0364 -0.10683,-0.06698 -0.14831,-0.09379 0.0196,-0.0224 0.0355,-0.0425 0.0605,-0.06847 0.64884,-0.675307 1.33555,-1.189414 2.15233,-1.613085 0.44769,-0.232221 1.01347,-0.424031 1.51567,-0.564568 z m 4.24601,0.002 c 1.22177,0.337435 2.42489,0.976597 3.32435,1.831935 0.15149,0.14406 0.27865,0.270061 0.36509,0.361216 0.02,0.021 0.0297,0.03195 0.045,0.04885 -0.0431,0.0279 -0.0921,0.06056 -0.15218,0.09767 -0.14165,0.08756 -0.31274,0.190051 -0.43383,0.257866 -0.10362,0.05803 -0.33962,0.179261 -0.51547,0.265621 -0.17575,0.0863 -0.41131,0.19445 -0.51186,0.236416 l -0.0819,0.03515 -0.0235,-0.05477 c -0.12539,-0.281136 -0.49858,-1.008184 -0.63071,-1.228354 -0.39768,-0.662687 -0.89894,-1.317129 -1.38493,-1.85157 z m -2.68357,0.0096 c 0.001,0.102546 0.003,0.211889 0.004,0.36742 0.003,0.392151 0.004,0.933743 0.004,1.52911 v 2.039156 h -0.0312 c -0.42564,-0.0067 -1.25543,-0.121185 -1.83788,-0.255796 -0.20902,-0.0483 -0.40679,-0.10031 -0.55061,-0.14263 -0.051,-0.015 -0.0845,-0.02725 -0.11911,-0.039 0.0226,-0.05195 0.0526,-0.11698 0.0879,-0.191461 0.0754,-0.159485 0.17141,-0.350351 0.24598,-0.488346 0.47056,-0.870883 0.95851,-1.55014 1.62703,-2.263692 0.0987,-0.105376 0.28845,-0.291357 0.45321,-0.447259 0.0447,-0.04229 0.0779,-0.07139 0.11704,-0.107487 z m 1.12707,0 c 0.0252,0.02307 0.0446,0.03902 0.0721,0.0646 0.13667,0.127085 0.29484,0.277783 0.38499,0.371033 0.71015,0.734573 1.24271,1.46221 1.73427,2.369118 0.0701,0.129305 0.16571,0.324676 0.24416,0.490411 0.0375,0.07919 0.0715,0.149721 0.0956,0.204896 -0.0395,0.01335 -0.0814,0.02645 -0.14056,0.04315 -0.65109,0.183976 -1.38701,0.318881 -2.0743,0.376981 -0.1141,0.0097 -0.26598,0.0173 -0.32427,0.01755 V 78.68092 c 0,-0.670002 0.003,-1.211499 0.006,-1.584145 10e-4,-0.13589 5e-4,-0.221572 0.002,-0.310575 z m -7.1231,3.119199 c 0.0278,0.0172 0.0538,0.0327 0.0879,0.05477 0.55896,0.362566 1.25302,0.727562 1.85545,0.976428 0.0345,0.01425 0.043,0.0202 0.0625,0.02945 -0.0138,0.04545 -0.0248,0.08189 -0.0489,0.160195 -0.26293,0.855563 -0.44594,1.886001 -0.48706,2.751779 l -1.44254,0.004 -1.4299,0.004 0.004,-0.06072 c 0.0136,-0.231676 0.0533,-0.537827 0.11111,-0.851373 0.13691,-0.742772 0.4052,-1.519555 0.75215,-2.187727 0.15483,-0.29819 0.39799,-0.688352 0.53511,-0.880827 z m 13.1132,0.0059 c 0.5596,0.827922 0.95729,1.66606 1.18571,2.579953 0.11558,0.462436 0.2154,1.132198 0.2186,1.394749 h -1.42188 c -0.42645,0 -0.81467,1.35e-4 -1.09762,-0.002 -0.14147,-10e-4 -0.25646,-0.0025 -0.33589,-0.004 -0.008,-1.3e-4 -0.0106,1.35e-4 -0.0175,0 -1e-5,-0.001 0,-0.0015 0,-0.002 -2.7e-4,-0.404756 -0.11229,-1.236344 -0.24624,-1.851576 -0.0634,-0.291356 -0.21729,-0.867897 -0.285,-1.060403 0.0209,-0.0095 0.0389,-0.01895 0.0643,-0.02945 0.5974,-0.246711 1.29747,-0.615672 1.85365,-0.976428 0.0316,-0.02045 0.0557,-0.0336 0.0819,-0.04885 z m -3.01585,1.288554 c 0.0339,-0.01075 0.0433,0.0078 0.10955,0.218335 0.22734,0.722098 0.41361,1.759556 0.43641,2.431643 l 0.005,0.15296 -1.8203,0.0045 c -1.44675,0.0035 -1.82204,1e-4 -1.82884,-0.01785 -0.005,-0.0124 -0.007,-0.524001 -0.004,-1.136883 l 0.005,-1.114409 0.17984,-0.0129 c 0.89975,-0.06524 1.54404,-0.162495 2.23346,-0.336931 0.2424,-0.06133 0.55557,-0.14754 0.6842,-0.18836 z m -7.02518,0.135395 c 0.85978,0.265126 1.79889,0.440311 2.84971,0.513662 l 0.0723,0.0057 v 1.015703 1.007693 l -1.69344,0.004 c -0.56717,0.0015 -1.02397,0.002 -1.3379,0 -0.15697,-0.001 -0.27757,-0.004 -0.35941,-0.0059 -0.004,-8e-5 -0.004,8e-5 -0.008,0 0.002,-0.0426 0.005,-0.08772 0.01,-0.148571 0.012,-0.152085 0.0324,-0.348191 0.0545,-0.527361 0.0687,-0.556267 0.21803,-1.257959 0.37129,-1.744081 0.023,-0.07308 0.0307,-0.0934 0.0408,-0.120925 z m -4.47467,3.663866 h 1.42395 1.44151 c 0.005,0.06047 0.0185,0.231901 0.0292,0.379052 0.059,0.813457 0.21805,1.66005 0.46095,2.459027 l 0.0292,0.09353 c -0.0379,0.01605 -0.0799,0.0349 -0.12687,0.05478 -0.56704,0.23977 -1.33138,0.648202 -1.79498,0.959118 -0.0228,0.0153 -0.0422,0.02775 -0.0625,0.0408 -0.005,-0.0071 -0.008,-0.0094 -0.0137,-0.0176 -0.0457,-0.06337 -0.10811,-0.157156 -0.17571,-0.265616 -0.13518,-0.216916 -0.29223,-0.491437 -0.39842,-0.703057 -0.43794,-0.872703 -0.75597,-2.030082 -0.80848,-2.939369 z m 3.99227,0 1.69732,0.004 1.70713,0.0059 v 1.005884 1.015703 l -0.0723,0.0059 c -1.03394,0.07217 -1.81897,0.20668 -2.7187,0.466641 l -0.0879,0.0256 c -0.0245,0.0069 -0.0519,0.01375 -0.0724,0.01935 -0.01,-0.0292 -0.0188,-0.05613 -0.0312,-0.09767 -0.0376,-0.12461 -0.0862,-0.295986 -0.13099,-0.476457 -0.14845,-0.598606 -0.25046,-1.274443 -0.28707,-1.89653 z m 7.93959,0 -0.004,0.07829 c -0.0462,0.784427 -0.18923,1.597325 -0.41418,2.363172 -0.0152,0.05171 -0.0242,0.08434 -0.0331,0.111365 -0.006,-0.002 -0.005,-0.0015 -0.0119,-0.004 -0.823,-0.261386 -1.82453,-0.440836 -2.85927,-0.511856 l -0.0822,-0.0057 v -1.015703 -1.007954 l 1.70713,-0.004 z m 1.125,0 h 1.43946 1.42575 c -0.001,0.05076 -0.0101,0.184086 -0.0235,0.300761 -0.15169,1.313459 -0.5741,2.481293 -1.28907,3.562586 -0.032,0.0484 -0.0592,0.0872 -0.084,0.122991 -0.0118,-0.0077 -0.0204,-0.01295 -0.0331,-0.02145 -0.47707,-0.320226 -1.25723,-0.737918 -1.82625,-0.978493 -0.047,-0.0198 -0.089,-0.03875 -0.12687,-0.05478 l 0.0292,-0.09353 c 0.24899,-0.818982 0.4281,-1.795045 0.47078,-2.578143 0.005,-0.09573 0.0127,-0.20782 0.0175,-0.259936 z m -5.65057,3.16416 v 2.082051 0.109295 c -1.4e-4,0.558322 -0.002,1.080278 -0.004,1.453144 -5e-4,0.162521 -10e-4,0.278826 -0.002,0.384732 -0.001,-0.0015 -0.002,-0.0025 -0.004,-0.004 -0.11277,-0.104096 -0.25642,-0.240501 -0.38861,-0.373107 -0.76962,-0.772032 -1.3917,-1.6309 -1.89446,-2.613282 -0.0649,-0.126905 -0.14574,-0.297431 -0.21084,-0.439251 -0.0277,-0.06033 -0.0516,-0.11074 -0.0705,-0.154515 0.0159,-0.0052 0.023,-0.0094 0.0431,-0.0155 0.10566,-0.03205 0.26794,-0.07526 0.48421,-0.128935 0.62003,-0.153865 1.38841,-0.270366 1.92598,-0.294811 z m 1.1113,0 0.11731,0.0059 c 0.32978,0.0154 0.80592,0.07041 1.22473,0.144436 0.25735,0.0455 0.59869,0.123725 0.87282,0.19353 0.13706,0.0349 0.25818,0.06734 0.34184,0.09353 0.009,0.003 0.0117,0.0035 0.0197,0.006 -0.0254,0.05869 -0.0629,0.142255 -0.11912,0.26381 -0.54432,1.177243 -1.38608,2.333792 -2.33397,3.212734 -0.0429,0.03975 -0.0772,0.07121 -0.11524,0.105676 -5e-4,-0.0237 -10e-4,-0.02205 -0.002,-0.0509 -0.004,-0.28618 -0.006,-0.841047 -0.006,-1.892655 z m -4.74804,0.826053 c 0.0135,0.0272 0.0228,0.04525 0.0509,0.109555 0.4759,1.089162 1.17116,2.134891 1.96086,3.023338 -0.14111,-0.04165 -0.29938,-0.09137 -0.41987,-0.13281 -0.97182,-0.334246 -1.87318,-0.855098 -2.65618,-1.53712 -0.0602,-0.05241 -0.23752,-0.226276 -0.39454,-0.382666 -0.077,-0.07673 -0.14945,-0.14968 -0.20309,-0.205156 0.0584,-0.0385 0.13464,-0.08667 0.22841,-0.14263 0.20035,-0.11958 0.45778,-0.264676 0.67774,-0.378786 0.12456,-0.06462 0.31242,-0.15564 0.47852,-0.232545 0.13244,-0.06132 0.21898,-0.09749 0.27725,-0.12118 z m 8.38478,0 c 0.10154,0.0388 0.28509,0.120515 0.51574,0.23461 0.26197,0.129595 0.54883,0.28124 0.7462,0.396361 0.19743,0.115135 0.32916,0.193575 0.40231,0.24417 -0.0403,0.0426 -0.0928,0.09826 -0.15245,0.158131 -0.12081,0.121255 -0.2656,0.260451 -0.36122,0.347781 -0.86862,0.793317 -1.9993,1.383659 -3.13496,1.708945 0.78126,-0.887973 1.46048,-1.898661 1.93374,-2.980443 0.0282,-0.0643 0.0371,-0.08233 0.0506,-0.109555 z"
         id="path4806-0" />
      <path
         sodipodi:nodetypes="sssszssssscssscsscsssscssscsssssssssssssssssssscsssssssssscsssscssssssssssscsssssssssscsssscssssssssss"
         id="path895"
         d="m 70.310374,92.218613 c -0.494776,-0.260226 -0.900339,-0.560991 -1.312084,-0.97305 -0.73652,-0.737051 -1.17897,-1.562623 -1.40731,-2.62588 -0.0689,-0.320813 -0.07607,-0.595945 -0.07607,-2.91712 0,-2.429683 -0.02232,-2.683435 0.08788,-3.597242 0.110176,-0.913813 0.210289,-1.239518 0.286875,-1.315899 0.05517,-0.05502 0.07471,-0.05049 0.171503,0.0397 0.06006,0.05598 0.261475,0.317495 0.447537,0.58108 0.40857,0.578782 0.732435,0.927074 0.967634,1.040623 0.343089,0.165643 0.315772,0.33 0.316716,-1.905341 4.05e-4,-1.094447 0.01785,-2.106945 0.03853,-2.250001 0.151051,-1.041575 1.194727,-1.68495 2.143972,-1.321673 0.06587,0.02522 0.07316,-0.0063 0.07439,-0.320312 0.0042,-1.03126 0.282472,-1.591876 0.954423,-1.921791 0.25216,-0.1238 0.308325,-0.135034 0.672963,-0.134641 0.34304,3.86e-4 0.430745,0.01575 0.636769,0.111691 0.329975,0.153649 0.645481,0.45804 0.790887,0.763022 0.06556,0.137511 0.119214,0.272363 0.119238,0.299661 3.7e-5,0.09146 0.07868,0.09953 0.291951,0.02998 0.311755,-0.1017 0.82648,-0.06602 1.128775,0.07825 0.313733,0.149723 0.611334,0.451677 0.768577,0.779807 0.123063,0.256804 0.130552,0.301447 0.144059,0.859173 l 0.01421,0.588295 0.257356,-0.08149 c 0.350475,-0.110979 0.734722,-0.08077 1.0917,0.08582 0.370938,0.173118 0.580399,0.378512 0.764169,0.749318 l 0.156482,0.315739 0.01186,4.398705 c 0.01294,4.781939 0.01409,4.752239 -0.221268,5.565551 -0.370153,1.279137 -1.346328,2.439057 -2.590215,3.077787 l -0.292501,0.150193 c -2.248518,1.154596 -5.168133,0.518503 -6.150732,0.0018 z m 4.000663,-0.183934 c 0.817575,-0.0829 1.600835,-0.296922 2.215297,-0.605302 1.042447,-0.523165 1.83002,-1.394121 2.16467,-2.393859 0.232955,-0.695866 0.224184,-0.506713 0.240455,-5.18741 0.01355,-3.908745 0.0085,-4.351269 -0.05226,-4.509933 -0.125542,-0.327925 -0.466151,-0.510392 -0.790252,-0.423357 -0.204421,0.05489 -0.422272,0.274976 -0.48102,0.485941 -0.02692,0.09675 -0.04325,0.911528 -0.04343,2.167817 -1.45e-4,1.713456 -0.0097,2.030902 -0.06334,2.134509 -0.0813,0.156799 -0.180993,0.207759 -0.404222,0.206606 -0.190767,-0.0012 -0.32479,-0.07902 -0.405266,-0.23595 -0.03315,-0.0647 -0.0467,-1.010374 -0.0467,-3.268609 0,-3.140943 -0.0012,-3.179662 -0.08759,-3.358022 -0.219884,-0.452997 -0.803047,-0.513001 -1.108239,-0.11402 l -0.120424,0.157426 -0.02087,3.25378 c -0.02214,3.444901 -0.01688,3.360804 -0.218546,3.501683 -0.120932,0.08448 -0.405588,0.0827 -0.528711,-0.003 -0.218593,-0.152702 -0.213808,-0.06141 -0.213808,-4.079926 0,-2.673944 -0.01331,-3.759667 -0.04682,-3.824853 -0.162133,-0.315359 -0.489101,-0.484084 -0.784404,-0.404789 -0.202147,0.0543 -0.451209,0.31811 -0.480722,0.509224 -0.01174,0.07586 -0.03309,1.646714 -0.04742,3.490798 -0.02523,3.233287 -0.02904,3.356936 -0.107503,3.466829 -0.137252,0.192237 -0.498272,0.238127 -0.698815,0.08883 l -0.111616,-0.0831 -0.02087,-2.370893 c -0.02074,-2.350688 -0.02166,-2.372135 -0.112536,-2.516748 -0.153838,-0.24484 -0.42414,-0.360798 -0.680546,-0.291933 -0.169204,0.04542 -0.391397,0.254126 -0.457913,0.430085 -0.02934,0.07758 -0.0444,0.903467 -0.04458,2.437881 -1.2e-4,1.394368 -0.01663,2.379519 -0.04138,2.468273 -0.05166,0.185431 -0.264046,0.389219 -0.476016,0.456738 -0.377872,0.120366 -0.822451,-0.0397 -1.363096,-0.490733 -0.339182,-0.282962 -0.356554,-0.291976 -0.394863,-0.204849 -0.06013,0.136757 -0.08179,4.62409 -0.02468,5.11276 0.125862,1.076879 0.506063,1.874133 1.225989,2.570837 0.544958,0.52737 1.058187,0.83476 1.850479,1.108293 0.879342,0.303577 1.844218,0.414333 2.781559,0.31928 z M 72.821643,90.925903 C 71.93111,90.736058 70.929456,90.17894 70.04836,89.383418 69.686488,89.056681 69.583649,88.904594 69.583431,88.69581 c -1.39e-4,-0.17118 0.07556,-0.276869 0.461154,-0.643688 1.082481,-1.029739 2.436147,-1.641115 3.633656,-1.641115 1.184025,0 2.508161,0.593555 3.61096,1.618625 0.41575,0.386449 0.48399,0.486395 0.48399,0.708848 0,0.177806 -0.01506,0.200749 -0.344724,0.52398 -0.856954,0.840298 -1.960177,1.469278 -2.923208,1.666604 -0.408419,0.08369 -1.283963,0.08205 -1.683616,-0.003 z m 1.546055,-0.928431 c 0.676863,-0.162372 1.318394,-0.500263 2.017372,-1.062533 l 0.262389,-0.21107 -0.19971,-0.184005 c -0.109838,-0.101207 -0.382105,-0.303583 -0.605031,-0.449735 -1.264375,-0.828937 -2.346941,-0.96216 -3.542575,-0.43596 -0.415012,0.182648 -1.076165,0.605289 -1.391574,0.889562 l -0.199879,0.180138 0.262559,0.212584 c 1.182109,0.957129 2.332042,1.316364 3.396449,1.061019 z m -1.213364,-0.1845 c -0.25732,-0.119497 -0.533186,-0.422002 -0.622047,-0.682106 -0.201185,-0.588855 0.02904,-1.194736 0.566862,-1.491827 0.198995,-0.10993 0.263453,-0.123692 0.579092,-0.123692 0.315639,0 0.380097,0.01376 0.579092,0.123692 0.452498,0.249957 0.65822,0.633697 0.623547,1.163135 -0.03079,0.469746 -0.279787,0.832981 -0.701217,1.022839 -0.274675,0.123745 -0.744842,0.118219 -1.025329,-0.01206 z"
         style="fill:#6c9569;fill-opacity:1;stroke:#000000;stroke-width:0.5;stroke-miterlimit:4;stroke-dasharray:none;stroke-opacity:1" />
      <path
         id="path4"
         d="m 92.076245,76.145367 v 3.123613 h 1.246085 v -0.937177 l 0.934796,0.937177 -0.934796,0.937172 0.935707,0.93626 0.933883,-0.93626 0.312206,0.308427 c -0.619184,0.782978 -0.988129,1.76637 -0.988655,2.83715 -0.0011,2.287967 1.676394,4.193618 3.872459,4.531206 l -0.0018,1.61718 h -1.791994 v 1.405762 h 1.791994 v 1.640056 h 1.402192 v -1.640056 h 1.791988 v -1.405762 h -1.791988 v -1.619007 -9.85e-4 c 2.187528,-0.339666 3.871548,-2.242894 3.871548,-4.528458 0,-1.068086 -0.36774,-2.05334 -0.9841,-2.835263 l 2.17632,-2.184668 v 2.030853 h 1.24609 V 76.14527 h -4.20657 v 1.249263 h 2.02569 l -2.20279,2.209317 c -0.74395,-0.526198 -1.65051,-0.836502 -2.627284,-0.836502 -0.976479,0 -1.882997,0.310156 -2.625456,0.836502 l -0.335031,-0.335028 0.934796,-0.937171 -0.934796,-0.937177 -0.934793,0.937177 -0.934793,-0.937177 h 0.934793 V 76.14527 Z m 7.521029,3.948098 c 1.053866,0.166777 1.960436,0.83824 2.429096,1.79916 0.46866,0.960919 0.44055,2.090576 -0.0753,3.026862 z m -1.09763,0.0132 -2.269408,4.823923 c 0.0086,0.03708 -0.01047,-0.03531 0,0 -0.557058,-0.92281 -0.568082,-1.960042 -0.126427,-2.943621 0.441657,-0.983574 1.337425,-1.686591 2.395835,-1.880302 z m 0.552752,0.889927 1.040454,2.237058 h -2.081028 z m -1.449091,3.115318 h 2.898065 l 0.73168,1.573077 c -1.327291,1.082836 -3.173087,1.056113 -4.361081,-4.93e-4 z"
         sodipodi:nodetypes="cccccccccccccccccccccccscccccccccsccccccccccsccccsccccccccccc"
         style="fill:#ff42ff;fill-opacity:1;stroke:#000000;stroke-width:0.500001;stroke-miterlimit:4;stroke-dasharray:none;stroke-opacity:1" />
    </g>
    <g
       id="g2630"
       transform="translate(8.4211008)">
      <g
         id="g3982"
         style="visibility:visible;fill:#890000;fill-opacity:1;stroke:#000000;stroke-width:639.922;stroke-miterlimit:4;stroke-dasharray:none;stroke-opacity:1"
         transform="matrix(7.8248773e-4,0,0,7.8020315e-4,39.354205,99.205257)">
        <desc
           id="desc3704">Group</desc>
        <g
           id="g3734"
           style="fill:#890000;fill-opacity:1;stroke:#000000;stroke-width:639.922;stroke-miterlimit:4;stroke-dasharray:none;stroke-opacity:1">
          <desc
             id="desc3706">Drawing</desc>
          <g
             id="g3732"
             style="fill:#890000;fill-opacity:1;stroke:#000000;stroke-width:639.922;stroke-miterlimit:4;stroke-dasharray:none;stroke-opacity:1">
            <g
               style="fill:#890000;fill-opacity:1;stroke:#000000;stroke-width:639.922;stroke-miterlimit:4;stroke-dasharray:none;stroke-opacity:1"
               id="g3710">
              <path
                 d="M 8639,426 6546,3840 9419,5161 11318,2109 Z"
                 id="path3708"
                 style="fill:#890000;fill-opacity:1;stroke:#000000;stroke-width:639.922;stroke-miterlimit:4;stroke-dasharray:none;stroke-opacity:1" />
            </g>
            <g
               style="fill:#890000;fill-opacity:1;stroke:#000000;stroke-width:639.922;stroke-miterlimit:4;stroke-dasharray:none;stroke-opacity:1"
               id="g3728">
              <path
                 d="m 8682,453 -2093,3414 -43,-27 -43,-27 2093,-3414 43,27 z"
                 id="path3712"
                 style="fill:#890000;fill-opacity:1;stroke:#000000;stroke-width:639.922;stroke-miterlimit:4;stroke-dasharray:none;stroke-opacity:1" />
              <path
                 d="m 6546,3840 -21,46 -8,-4 -7,-6 -6,-7 -4,-7 -3,-9 -2,-8 v -9 l 2,-9 3,-8 3,-6 z"
                 id="path3714"
                 style="fill:#890000;fill-opacity:1;stroke:#000000;stroke-width:639.922;stroke-miterlimit:4;stroke-dasharray:none;stroke-opacity:1" />
              <path
                 d="m 6567,3794 2873,1321 -21,46 -21,46 -2873,-1321 21,-46 z"
                 id="path3716"
                 style="fill:#890000;fill-opacity:1;stroke:#000000;stroke-width:639.922;stroke-miterlimit:4;stroke-dasharray:none;stroke-opacity:1" />
              <path
                 d="m 9419,5161 43,27 -5,7 -7,6 -7,5 -8,3 -9,2 -9,1 -9,-1 -8,-3 -2,-1 z"
                 id="path3718"
                 style="fill:#890000;fill-opacity:1;stroke:#000000;stroke-width:639.922;stroke-miterlimit:4;stroke-dasharray:none;stroke-opacity:1" />
              <path
                 d="m 9376,5134 1899,-3052 43,27 43,27 -1899,3052 -43,-27 z"
                 id="path3720"
                 style="fill:#890000;fill-opacity:1;stroke:#000000;stroke-width:639.922;stroke-miterlimit:4;stroke-dasharray:none;stroke-opacity:1" />
              <path
                 d="m 11318,2109 27,-43 7,5 6,7 5,7 4,8 2,9 v 9 l -1,9 -3,8 -4,8 z"
                 id="path3722"
                 style="fill:#890000;fill-opacity:1;stroke:#000000;stroke-width:639.922;stroke-miterlimit:4;stroke-dasharray:none;stroke-opacity:1" />
              <path
                 d="M 11291,2152 8612,469 l 27,-43 27,-43 2679,1683 -27,43 z"
                 id="path3724"
                 style="fill:#890000;fill-opacity:1;stroke:#000000;stroke-width:639.922;stroke-miterlimit:4;stroke-dasharray:none;stroke-opacity:1" />
              <path
                 d="m 8639,426 -43,-27 5,-7 6,-6 8,-5 8,-3 8,-2 9,-1 9,1 9,3 8,4 v 0 z"
                 id="path3726"
                 style="fill:#890000;fill-opacity:1;stroke:#000000;stroke-width:639.922;stroke-miterlimit:4;stroke-dasharray:none;stroke-opacity:1" />
            </g>
            <g
               id="g3730"
               style="fill:#890000;fill-opacity:1;stroke:#000000;stroke-width:639.922;stroke-miterlimit:4;stroke-dasharray:none;stroke-opacity:1" />
          </g>
        </g>
        <g
           id="g3768"
           style="fill:#890000;fill-opacity:1;stroke:#000000;stroke-width:639.922;stroke-miterlimit:4;stroke-dasharray:none;stroke-opacity:1">
          <desc
             id="desc3736">Drawing</desc>
          <g
             id="g3766"
             style="fill:#890000;fill-opacity:1;stroke:#000000;stroke-width:639.922;stroke-miterlimit:4;stroke-dasharray:none;stroke-opacity:1">
            <g
               style="fill:#890000;fill-opacity:1;stroke:#000000;stroke-width:639.922;stroke-miterlimit:4;stroke-dasharray:none;stroke-opacity:1"
               id="g3740">
              <path
                 d="m 12291,2748 -1800,2958 2191,1093 -148,1184 2484,-3779 z"
                 id="path3738"
                 style="fill:#890000;fill-opacity:1;stroke:#000000;stroke-width:639.922;stroke-miterlimit:4;stroke-dasharray:none;stroke-opacity:1" />
            </g>
            <g
               style="fill:#890000;fill-opacity:1;stroke:#000000;stroke-width:639.922;stroke-miterlimit:4;stroke-dasharray:none;stroke-opacity:1"
               id="g3762">
              <path
                 d="m 12335,2775 -1800,2958 -44,-27 -44,-27 1800,-2958 44,27 z"
                 id="path3742"
                 style="fill:#890000;fill-opacity:1;stroke:#000000;stroke-width:639.922;stroke-miterlimit:4;stroke-dasharray:none;stroke-opacity:1" />
              <path
                 d="m 10491,5706 -23,46 -7,-5 -7,-6 -6,-7 -4,-8 -3,-8 -1,-9 v -9 l 2,-8 3,-9 2,-4 z"
                 id="path3744"
                 style="fill:#890000;fill-opacity:1;stroke:#000000;stroke-width:639.922;stroke-miterlimit:4;stroke-dasharray:none;stroke-opacity:1" />
              <path
                 d="m 10514,5660 2191,1093 -23,46 -23,46 -2191,-1093 23,-46 z"
                 id="path3746"
                 style="fill:#890000;fill-opacity:1;stroke:#000000;stroke-width:639.922;stroke-miterlimit:4;stroke-dasharray:none;stroke-opacity:1" />
              <path
                 d="m 12682,6799 23,-46 7,5 7,6 6,7 4,8 3,8 1,9 v 9 0 z"
                 id="path3748"
                 style="fill:#890000;fill-opacity:1;stroke:#000000;stroke-width:639.922;stroke-miterlimit:4;stroke-dasharray:none;stroke-opacity:1" />
              <path
                 d="m 12733,6805 -148,1184 -51,-6 -51,-6 148,-1184 51,6 z"
                 id="path3750"
                 style="fill:#890000;fill-opacity:1;stroke:#000000;stroke-width:639.922;stroke-miterlimit:4;stroke-dasharray:none;stroke-opacity:1" />
              <path
                 d="m 12534,7983 43,28 -6,7 -7,6 -7,5 -8,3 -9,2 h -9 l -9,-1 -8,-3 -8,-4 -7,-6 -6,-7 -5,-7 -3,-8 -2,-9 v -9 -3 z"
                 id="path3752"
                 style="fill:#890000;fill-opacity:1;stroke:#000000;stroke-width:639.922;stroke-miterlimit:4;stroke-dasharray:none;stroke-opacity:1" />
              <path
                 d="m 12491,7955 2484,-3779 43,28 43,28 -2484,3779 -43,-28 z"
                 id="path3754"
                 style="fill:#890000;fill-opacity:1;stroke:#000000;stroke-width:639.922;stroke-miterlimit:4;stroke-dasharray:none;stroke-opacity:1" />
              <path
                 d="m 15018,4204 24,-45 7,5 7,6 5,7 4,8 3,8 1,9 -1,9 -2,9 -3,8 -2,4 z"
                 id="path3756"
                 style="fill:#890000;fill-opacity:1;stroke:#000000;stroke-width:639.922;stroke-miterlimit:4;stroke-dasharray:none;stroke-opacity:1" />
              <path
                 d="m 14994,4249 -2727,-1456 24,-45 24,-45 2727,1456 -24,45 z"
                 id="path3758"
                 style="fill:#890000;fill-opacity:1;stroke:#000000;stroke-width:639.922;stroke-miterlimit:4;stroke-dasharray:none;stroke-opacity:1" />
              <path
                 d="m 12291,2748 -44,-27 6,-7 6,-6 8,-5 8,-3 8,-2 9,-1 9,1 9,2 5,3 z"
                 id="path3760"
                 style="fill:#890000;fill-opacity:1;stroke:#000000;stroke-width:639.922;stroke-miterlimit:4;stroke-dasharray:none;stroke-opacity:1" />
            </g>
            <g
               id="g3764"
               style="fill:#890000;fill-opacity:1;stroke:#000000;stroke-width:639.922;stroke-miterlimit:4;stroke-dasharray:none;stroke-opacity:1" />
          </g>
        </g>
        <g
           id="g3802"
           style="fill:#890000;fill-opacity:1;stroke:#000000;stroke-width:639.922;stroke-miterlimit:4;stroke-dasharray:none;stroke-opacity:1">
          <desc
             id="desc3770">Drawing</desc>
          <g
             id="g3800"
             style="fill:#890000;fill-opacity:1;stroke:#000000;stroke-width:639.922;stroke-miterlimit:4;stroke-dasharray:none;stroke-opacity:1">
            <g
               style="fill:#890000;fill-opacity:1;stroke:#000000;stroke-width:639.922;stroke-miterlimit:4;stroke-dasharray:none;stroke-opacity:1"
               id="g3774">
              <path
                 d="m 15701,5479 -3896,5462 2337,864 3847,-4552 h -49 z"
                 id="path3772"
                 style="fill:#890000;fill-opacity:1;stroke:#000000;stroke-width:639.922;stroke-miterlimit:4;stroke-dasharray:none;stroke-opacity:1" />
            </g>
            <g
               style="fill:#890000;fill-opacity:1;stroke:#000000;stroke-width:639.922;stroke-miterlimit:4;stroke-dasharray:none;stroke-opacity:1"
               id="g3796">
              <path
                 d="m 15743,5509 -3896,5462 -42,-30 -42,-30 3896,-5462 42,30 z"
                 id="path3776"
                 style="fill:#890000;fill-opacity:1;stroke:#000000;stroke-width:639.922;stroke-miterlimit:4;stroke-dasharray:none;stroke-opacity:1" />
              <path
                 d="m 11805,10941 -18,48 -8,-4 -7,-5 -6,-6 -5,-8 -4,-8 -2,-8 -1,-9 1,-9 2,-9 4,-8 2,-4 z"
                 id="path3778"
                 style="fill:#890000;fill-opacity:1;stroke:#000000;stroke-width:639.922;stroke-miterlimit:4;stroke-dasharray:none;stroke-opacity:1" />
              <path
                 d="m 11823,10893 2337,864 -18,48 -18,48 -2337,-864 18,-48 z"
                 id="path3780"
                 style="fill:#890000;fill-opacity:1;stroke:#000000;stroke-width:639.922;stroke-miterlimit:4;stroke-dasharray:none;stroke-opacity:1" />
              <path
                 d="m 14142,11805 39,33 -6,6 -8,5 -8,4 -8,2 -9,1 -9,-1 -9,-2 v 0 z"
                 id="path3782"
                 style="fill:#890000;fill-opacity:1;stroke:#000000;stroke-width:639.922;stroke-miterlimit:4;stroke-dasharray:none;stroke-opacity:1" />
              <path
                 d="m 14103,11772 3847,-4552 39,33 39,33 -3847,4552 -39,-33 z"
                 id="path3784"
                 style="fill:#890000;fill-opacity:1;stroke:#000000;stroke-width:639.922;stroke-miterlimit:4;stroke-dasharray:none;stroke-opacity:1" />
              <path
                 d="m 17989,7253 v -51 l 9,1 8,2 8,4 8,5 6,6 5,7 4,9 2,8 1,9 -1,9 -2,8 -4,8 -5,8 v 0 z"
                 id="path3786"
                 style="fill:#890000;fill-opacity:1;stroke:#000000;stroke-width:639.922;stroke-miterlimit:4;stroke-dasharray:none;stroke-opacity:1" />
              <path
                 d="m 17989,7304 h -49 v -51 -51 h 49 v 51 z"
                 id="path3788"
                 style="fill:#890000;fill-opacity:1;stroke:#000000;stroke-width:639.922;stroke-miterlimit:4;stroke-dasharray:none;stroke-opacity:1" />
              <path
                 d="m 17940,7253 v 51 l -9,-1 -8,-2 -8,-4 -7,-4 z"
                 id="path3790"
                 style="fill:#890000;fill-opacity:1;stroke:#000000;stroke-width:639.922;stroke-miterlimit:4;stroke-dasharray:none;stroke-opacity:1" />
              <path
                 d="m 17908,7293 -2239,-1774 32,-40 32,-40 2239,1774 -32,40 z"
                 id="path3792"
                 style="fill:#890000;fill-opacity:1;stroke:#000000;stroke-width:639.922;stroke-miterlimit:4;stroke-dasharray:none;stroke-opacity:1" />
              <path
                 d="m 15701,5479 -42,-30 6,-6 7,-6 8,-4 8,-3 9,-2 h 9 l 9,2 8,3 8,4 2,2 z"
                 id="path3794"
                 style="fill:#890000;fill-opacity:1;stroke:#000000;stroke-width:639.922;stroke-miterlimit:4;stroke-dasharray:none;stroke-opacity:1" />
            </g>
            <g
               id="g3798"
               style="fill:#890000;fill-opacity:1;stroke:#000000;stroke-width:639.922;stroke-miterlimit:4;stroke-dasharray:none;stroke-opacity:1" />
          </g>
        </g>
        <g
           id="g3832"
           style="fill:#890000;fill-opacity:1;stroke:#000000;stroke-width:639.922;stroke-miterlimit:4;stroke-dasharray:none;stroke-opacity:1">
          <desc
             id="desc3804">Drawing</desc>
          <g
             id="g3830"
             style="fill:#890000;fill-opacity:1;stroke:#000000;stroke-width:639.922;stroke-miterlimit:4;stroke-dasharray:none;stroke-opacity:1">
            <g
               style="fill:#890000;fill-opacity:1;stroke:#000000;stroke-width:639.922;stroke-miterlimit:4;stroke-dasharray:none;stroke-opacity:1"
               id="g3808">
              <path
                 d="m 18573,8255 -3603,4189 1119,1138 4139,-3689 z"
                 id="path3806"
                 style="fill:#890000;fill-opacity:1;stroke:#000000;stroke-width:639.922;stroke-miterlimit:4;stroke-dasharray:none;stroke-opacity:1" />
            </g>
            <g
               style="fill:#890000;fill-opacity:1;stroke:#000000;stroke-width:639.922;stroke-miterlimit:4;stroke-dasharray:none;stroke-opacity:1"
               id="g3826">
              <path
                 d="m 18612,8288 -3603,4189 -39,-33 -39,-33 3603,-4189 39,33 z"
                 id="path3810"
                 style="fill:#890000;fill-opacity:1;stroke:#000000;stroke-width:639.922;stroke-miterlimit:4;stroke-dasharray:none;stroke-opacity:1" />
              <path
                 d="m 14970,12444 -36,36 -6,-7 -4,-8 -3,-8 -2,-9 v -9 l 2,-9 3,-8 4,-8 3,-3 z"
                 id="path3812"
                 style="fill:#890000;fill-opacity:1;stroke:#000000;stroke-width:639.922;stroke-miterlimit:4;stroke-dasharray:none;stroke-opacity:1" />
              <path
                 d="m 15006,12408 1119,1138 -36,36 -36,36 -1119,-1138 36,-36 z"
                 id="path3814"
                 style="fill:#890000;fill-opacity:1;stroke:#000000;stroke-width:639.922;stroke-miterlimit:4;stroke-dasharray:none;stroke-opacity:1" />
              <path
                 d="m 16089,13582 34,38 -7,5 -8,4 -9,3 -8,1 -9,-1 -9,-2 -8,-3 -8,-5 -4,-4 z"
                 id="path3816"
                 style="fill:#890000;fill-opacity:1;stroke:#000000;stroke-width:639.922;stroke-miterlimit:4;stroke-dasharray:none;stroke-opacity:1" />
              <path
                 d="m 16055,13544 4139,-3689 34,38 34,38 -4139,3689 -34,-38 z"
                 id="path3818"
                 style="fill:#890000;fill-opacity:1;stroke:#000000;stroke-width:639.922;stroke-miterlimit:4;stroke-dasharray:none;stroke-opacity:1" />
              <path
                 d="m 20228,9893 36,-36 6,7 4,7 3,9 2,8 v 9 l -2,9 -3,8 -4,8 -6,7 -2,2 z"
                 id="path3820"
                 style="fill:#890000;fill-opacity:1;stroke:#000000;stroke-width:639.922;stroke-miterlimit:4;stroke-dasharray:none;stroke-opacity:1" />
              <path
                 d="m 20192,9929 -1655,-1638 36,-36 36,-36 1655,1638 -36,36 z"
                 id="path3822"
                 style="fill:#890000;fill-opacity:1;stroke:#000000;stroke-width:639.922;stroke-miterlimit:4;stroke-dasharray:none;stroke-opacity:1" />
              <path
                 d="m 18573,8255 -39,-33 7,-6 7,-5 8,-4 9,-2 9,-1 8,1 9,2 8,4 7,5 3,3 z"
                 id="path3824"
                 style="fill:#890000;fill-opacity:1;stroke:#000000;stroke-width:639.922;stroke-miterlimit:4;stroke-dasharray:none;stroke-opacity:1" />
            </g>
            <g
               id="g3828"
               style="fill:#890000;fill-opacity:1;stroke:#000000;stroke-width:639.922;stroke-miterlimit:4;stroke-dasharray:none;stroke-opacity:1" />
          </g>
        </g>
        <g
           id="g3954"
           style="fill:#890000;fill-opacity:1;stroke:#000000;stroke-width:639.922;stroke-miterlimit:4;stroke-dasharray:none;stroke-opacity:1">
          <desc
             id="desc3834">Drawing</desc>
          <g
             id="g3952"
             style="fill:#890000;fill-opacity:1;stroke:#000000;stroke-width:639.922;stroke-miterlimit:4;stroke-dasharray:none;stroke-opacity:1">
            <g
               style="fill:#890000;fill-opacity:1;stroke:#000000;stroke-width:639.922;stroke-miterlimit:4;stroke-dasharray:none;stroke-opacity:1"
               id="g3838">
              <path
                 d="m 5377,4568 -4382,6509 6720,7693 -1267,7375 9884,-91 -438,-6692 2290,-2913 584,-3916 -2629,2186 -2192,-1957 -3992,-957 3896,6101 876,637 -1412,45 -438,1594 -586,-1594 -1460,229 1606,-1411 L 8639,11533 5669,10532 6741,9575 6448,7983 h 633 l 974,1365 2191,-91 1169,-637 146,-1458 z"
                 id="path3836"
                 style="fill:#890000;fill-opacity:1;stroke:#000000;stroke-width:639.922;stroke-miterlimit:4;stroke-dasharray:none;stroke-opacity:1" />
            </g>
            <g
               style="fill:#890000;fill-opacity:1;stroke:#000000;stroke-width:639.922;stroke-miterlimit:4;stroke-dasharray:none;stroke-opacity:1"
               id="g3948">
              <path
                 d="m 5419,4596 -4382,6509 -42,-28 -42,-28 4382,-6509 42,28 z"
                 id="path3840"
                 style="fill:#890000;fill-opacity:1;stroke:#000000;stroke-width:639.922;stroke-miterlimit:4;stroke-dasharray:none;stroke-opacity:1" />
              <path
                 d="m 995,11077 -38,34 -6,-8 -4,-8 -2,-8 -1,-9 1,-9 2,-8 3,-9 3,-3 z"
                 id="path3842"
                 style="fill:#890000;fill-opacity:1;stroke:#000000;stroke-width:639.922;stroke-miterlimit:4;stroke-dasharray:none;stroke-opacity:1" />
              <path
                 d="m 1033,11043 6720,7693 -38,34 -38,34 -6720,-7693 38,-34 z"
                 id="path3844"
                 style="fill:#890000;fill-opacity:1;stroke:#000000;stroke-width:639.922;stroke-miterlimit:4;stroke-dasharray:none;stroke-opacity:1" />
              <path
                 d="m 7715,18770 38,-34 6,8 4,8 2,8 1,9 -1,9 v 1 z"
                 id="path3846"
                 style="fill:#890000;fill-opacity:1;stroke:#000000;stroke-width:639.922;stroke-miterlimit:4;stroke-dasharray:none;stroke-opacity:1" />
              <path
                 d="m 7765,18779 -1267,7375 -50,-9 -50,-9 1267,-7375 50,9 z"
                 id="path3848"
                 style="fill:#890000;fill-opacity:1;stroke:#000000;stroke-width:639.922;stroke-miterlimit:4;stroke-dasharray:none;stroke-opacity:1" />
              <path
                 d="m 6448,26145 v 51 l -8,-1 -9,-2 -8,-4 -7,-5 -7,-6 -5,-7 -4,-8 -2,-9 -1,-9 1,-8 v -1 z"
                 id="path3850"
                 style="fill:#890000;fill-opacity:1;stroke:#000000;stroke-width:639.922;stroke-miterlimit:4;stroke-dasharray:none;stroke-opacity:1" />
              <path
                 d="m 6448,26094 9884,-91 v 51 51 l -9884,91 v -51 z"
                 id="path3852"
                 style="fill:#890000;fill-opacity:1;stroke:#000000;stroke-width:639.922;stroke-miterlimit:4;stroke-dasharray:none;stroke-opacity:1" />
              <path
                 d="m 16332,26054 51,-3 v 9 l -2,8 -3,9 -5,7 -6,7 -7,5 -7,5 -9,3 -9,1 h -3 z"
                 id="path3854"
                 style="fill:#890000;fill-opacity:1;stroke:#000000;stroke-width:639.922;stroke-miterlimit:4;stroke-dasharray:none;stroke-opacity:1" />
              <path
                 d="m 16281,26057 -438,-6692 51,-3 51,-3 438,6692 -51,3 z"
                 id="path3856"
                 style="fill:#890000;fill-opacity:1;stroke:#000000;stroke-width:639.922;stroke-miterlimit:4;stroke-dasharray:none;stroke-opacity:1" />
              <path
                 d="m 15894,19362 -51,3 v -9 l 2,-8 3,-9 5,-7 1,-2 z"
                 id="path3858"
                 style="fill:#890000;fill-opacity:1;stroke:#000000;stroke-width:639.922;stroke-miterlimit:4;stroke-dasharray:none;stroke-opacity:1" />
              <path
                 d="m 15854,19330 2290,-2913 40,32 40,32 -2290,2913 -40,-32 z"
                 id="path3860"
                 style="fill:#890000;fill-opacity:1;stroke:#000000;stroke-width:639.922;stroke-miterlimit:4;stroke-dasharray:none;stroke-opacity:1" />
              <path
                 d="m 18184,16449 50,8 -2,8 -3,8 -5,8 z"
                 id="path3862"
                 style="fill:#890000;fill-opacity:1;stroke:#000000;stroke-width:639.922;stroke-miterlimit:4;stroke-dasharray:none;stroke-opacity:1" />
              <path
                 d="m 18134,16441 584,-3916 50,8 50,8 -584,3916 -50,-8 z"
                 id="path3864"
                 style="fill:#890000;fill-opacity:1;stroke:#000000;stroke-width:639.922;stroke-miterlimit:4;stroke-dasharray:none;stroke-opacity:1" />
              <path
                 d="m 18768,12533 -33,-39 8,-5 8,-4 8,-2 9,-1 9,1 9,2 8,4 7,5 6,6 5,8 4,8 2,8 1,9 -1,8 z"
                 id="path3866"
                 style="fill:#890000;fill-opacity:1;stroke:#000000;stroke-width:639.922;stroke-miterlimit:4;stroke-dasharray:none;stroke-opacity:1" />
              <path
                 d="m 18801,12572 -2629,2186 -33,-39 -33,-39 2629,-2186 33,39 z"
                 id="path3868"
                 style="fill:#890000;fill-opacity:1;stroke:#000000;stroke-width:639.922;stroke-miterlimit:4;stroke-dasharray:none;stroke-opacity:1" />
              <path
                 d="m 16139,14719 33,39 -8,5 -8,4 -8,2 -9,1 -9,-1 -9,-2 -8,-4 -7,-5 -1,-1 z"
                 id="path3870"
                 style="fill:#890000;fill-opacity:1;stroke:#000000;stroke-width:639.922;stroke-miterlimit:4;stroke-dasharray:none;stroke-opacity:1" />
              <path
                 d="m 16105,14757 -2192,-1957 34,-38 34,-38 2192,1957 -34,38 z"
                 id="path3872"
                 style="fill:#890000;fill-opacity:1;stroke:#000000;stroke-width:639.922;stroke-miterlimit:4;stroke-dasharray:none;stroke-opacity:1" />
              <path
                 d="m 13947,12762 12,-50 8,3 8,4 6,5 z"
                 id="path3874"
                 style="fill:#890000;fill-opacity:1;stroke:#000000;stroke-width:639.922;stroke-miterlimit:4;stroke-dasharray:none;stroke-opacity:1" />
              <path
                 d="m 13935,12812 -3992,-957 12,-50 12,-50 3992,957 -12,50 z"
                 id="path3876"
                 style="fill:#890000;fill-opacity:1;stroke:#000000;stroke-width:639.922;stroke-miterlimit:4;stroke-dasharray:none;stroke-opacity:1" />
              <path
                 d="m 9955,11805 -43,27 -4,-7 -3,-9 -1,-9 v -9 l 2,-8 4,-9 5,-7 6,-7 7,-5 7,-4 9,-3 9,-1 h 9 l 5,1 z"
                 id="path3878"
                 style="fill:#890000;fill-opacity:1;stroke:#000000;stroke-width:639.922;stroke-miterlimit:4;stroke-dasharray:none;stroke-opacity:1" />
              <path
                 d="m 9998,11778 3896,6101 -43,27 -43,27 -3896,-6101 43,-27 z"
                 id="path3880"
                 style="fill:#890000;fill-opacity:1;stroke:#000000;stroke-width:639.922;stroke-miterlimit:4;stroke-dasharray:none;stroke-opacity:1" />
              <path
                 d="m 13851,17906 -30,41 -7,-6 -5,-6 -1,-2 z"
                 id="path3882"
                 style="fill:#890000;fill-opacity:1;stroke:#000000;stroke-width:639.922;stroke-miterlimit:4;stroke-dasharray:none;stroke-opacity:1" />
              <path
                 d="m 13881,17865 876,637 -30,41 -30,41 -876,-637 30,-41 z"
                 id="path3884"
                 style="fill:#890000;fill-opacity:1;stroke:#000000;stroke-width:639.922;stroke-miterlimit:4;stroke-dasharray:none;stroke-opacity:1" />
              <path
                 d="m 14727,18543 30,-41 7,6 5,6 5,8 2,9 2,8 v 9 l -2,9 -3,8 -5,8 -6,7 -6,5 -8,5 -9,2 -8,2 h -2 z"
                 id="path3886"
                 style="fill:#890000;fill-opacity:1;stroke:#000000;stroke-width:639.922;stroke-miterlimit:4;stroke-dasharray:none;stroke-opacity:1" />
              <path
                 d="m 14729,18594 -1412,45 -2,-51 -2,-51 1412,-45 2,51 z"
                 id="path3888"
                 style="fill:#890000;fill-opacity:1;stroke:#000000;stroke-width:639.922;stroke-miterlimit:4;stroke-dasharray:none;stroke-opacity:1" />
              <path
                 d="m 13315,18588 -49,-14 3,-8 4,-8 6,-6 7,-6 8,-4 8,-3 9,-2 h 2 z"
                 id="path3890"
                 style="fill:#890000;fill-opacity:1;stroke:#000000;stroke-width:639.922;stroke-miterlimit:4;stroke-dasharray:none;stroke-opacity:1" />
              <path
                 d="m 13364,18602 -438,1594 -49,-14 -49,-14 438,-1594 49,14 z"
                 id="path3892"
                 style="fill:#890000;fill-opacity:1;stroke:#000000;stroke-width:639.922;stroke-miterlimit:4;stroke-dasharray:none;stroke-opacity:1" />
              <path
                 d="m 12877,20182 49,14 -3,8 -4,8 -6,6 -7,6 -8,4 -8,3 -9,2 h -9 l -9,-2 -8,-3 -8,-4 -6,-6 -6,-7 -4,-8 -2,-3 z"
                 id="path3894"
                 style="fill:#890000;fill-opacity:1;stroke:#000000;stroke-width:639.922;stroke-miterlimit:4;stroke-dasharray:none;stroke-opacity:1" />
              <path
                 d="m 12829,20200 -586,-1594 48,-18 48,-18 586,1594 -48,18 z"
                 id="path3896"
                 style="fill:#890000;fill-opacity:1;stroke:#000000;stroke-width:639.922;stroke-miterlimit:4;stroke-dasharray:none;stroke-opacity:1" />
              <path
                 d="m 12291,18588 -8,-50 9,-1 9,1 8,2 8,4 8,6 6,6 5,7 3,7 z"
                 id="path3898"
                 style="fill:#890000;fill-opacity:1;stroke:#000000;stroke-width:639.922;stroke-miterlimit:4;stroke-dasharray:none;stroke-opacity:1" />
              <path
                 d="m 12299,18638 -1460,229 -8,-50 -8,-50 1460,-229 8,50 z"
                 id="path3900"
                 style="fill:#890000;fill-opacity:1;stroke:#000000;stroke-width:639.922;stroke-miterlimit:4;stroke-dasharray:none;stroke-opacity:1" />
              <path
                 d="m 10831,18817 8,50 -9,1 -9,-1 -8,-2 -8,-4 -8,-6 -6,-6 -5,-7 -3,-8 -2,-9 -1,-9 1,-9 2,-8 4,-8 6,-8 4,-4 z"
                 id="path3902"
                 style="fill:#890000;fill-opacity:1;stroke:#000000;stroke-width:639.922;stroke-miterlimit:4;stroke-dasharray:none;stroke-opacity:1" />
              <path
                 d="m 10797,18779 1606,-1411 34,38 34,38 -1606,1411 -34,-38 z"
                 id="path3904"
                 style="fill:#890000;fill-opacity:1;stroke:#000000;stroke-width:639.922;stroke-miterlimit:4;stroke-dasharray:none;stroke-opacity:1" />
              <path
                 d="m 12437,17406 43,-28 4,8 3,9 1,8 v 9 l -2,9 -4,8 -4,8 -6,6 -1,1 z"
                 id="path3906"
                 style="fill:#890000;fill-opacity:1;stroke:#000000;stroke-width:639.922;stroke-miterlimit:4;stroke-dasharray:none;stroke-opacity:1" />
              <path
                 d="m 12394,17434 -3798,-5873 43,-28 43,-28 3798,5873 -43,28 z"
                 id="path3908"
                 style="fill:#890000;fill-opacity:1;stroke:#000000;stroke-width:639.922;stroke-miterlimit:4;stroke-dasharray:none;stroke-opacity:1" />
              <path
                 d="m 8639,11533 16,-48 8,3 8,5 6,6 5,6 z"
                 id="path3910"
                 style="fill:#890000;fill-opacity:1;stroke:#000000;stroke-width:639.922;stroke-miterlimit:4;stroke-dasharray:none;stroke-opacity:1" />
              <path
                 d="m 8623,11581 -2970,-1001 16,-48 16,-48 2970,1001 -16,48 z"
                 id="path3912"
                 style="fill:#890000;fill-opacity:1;stroke:#000000;stroke-width:639.922;stroke-miterlimit:4;stroke-dasharray:none;stroke-opacity:1" />
              <path
                 d="m 5669,10532 -16,48 -8,-3 -8,-5 -6,-6 -6,-7 -3,-8 -3,-9 -1,-9 1,-9 2,-8 3,-8 5,-8 6,-6 z"
                 id="path3914"
                 style="fill:#890000;fill-opacity:1;stroke:#000000;stroke-width:639.922;stroke-miterlimit:4;stroke-dasharray:none;stroke-opacity:1" />
              <path
                 d="m 5635,10494 1072,-957 34,38 34,38 -1072,957 -34,-38 z"
                 id="path3916"
                 style="fill:#890000;fill-opacity:1;stroke:#000000;stroke-width:639.922;stroke-miterlimit:4;stroke-dasharray:none;stroke-opacity:1" />
              <path
                 d="m 6741,9575 50,-9 1,9 -1,8 -2,9 -4,8 -5,7 -5,6 z"
                 id="path3918"
                 style="fill:#890000;fill-opacity:1;stroke:#000000;stroke-width:639.922;stroke-miterlimit:4;stroke-dasharray:none;stroke-opacity:1" />
              <path
                 d="m 6691,9584 -293,-1592 50,-9 50,-9 293,1592 -50,9 z"
                 id="path3920"
                 style="fill:#890000;fill-opacity:1;stroke:#000000;stroke-width:639.922;stroke-miterlimit:4;stroke-dasharray:none;stroke-opacity:1" />
              <path
                 d="m 6448,7983 -50,9 -1,-9 1,-8 2,-9 4,-8 5,-7 6,-7 7,-5 8,-4 9,-2 9,-1 v 0 z"
                 id="path3922"
                 style="fill:#890000;fill-opacity:1;stroke:#000000;stroke-width:639.922;stroke-miterlimit:4;stroke-dasharray:none;stroke-opacity:1" />
              <path
                 d="m 6448,7932 h 633 v 51 51 h -633 v -51 z"
                 id="path3924"
                 style="fill:#890000;fill-opacity:1;stroke:#000000;stroke-width:639.922;stroke-miterlimit:4;stroke-dasharray:none;stroke-opacity:1" />
              <path
                 d="m 7081,7983 v -51 l 9,1 8,2 8,4 8,5 6,6 3,3 z"
                 id="path3926"
                 style="fill:#890000;fill-opacity:1;stroke:#000000;stroke-width:639.922;stroke-miterlimit:4;stroke-dasharray:none;stroke-opacity:1" />
              <path
                 d="m 7123,7953 974,1365 -42,30 -42,30 -974,-1365 42,-30 z"
                 id="path3928"
                 style="fill:#890000;fill-opacity:1;stroke:#000000;stroke-width:639.922;stroke-miterlimit:4;stroke-dasharray:none;stroke-opacity:1" />
              <path
                 d="m 8055,9348 2,51 h -9 l -8,-2 -9,-4 -7,-5 -7,-6 -4,-4 z"
                 id="path3930"
                 style="fill:#890000;fill-opacity:1;stroke:#000000;stroke-width:639.922;stroke-miterlimit:4;stroke-dasharray:none;stroke-opacity:1" />
              <path
                 d="m 8053,9297 2191,-91 2,51 2,51 -2191,91 -2,-51 z"
                 id="path3932"
                 style="fill:#890000;fill-opacity:1;stroke:#000000;stroke-width:639.922;stroke-miterlimit:4;stroke-dasharray:none;stroke-opacity:1" />
              <path
                 d="m 10246,9257 24,45 -8,3 -8,2 -6,1 z"
                 id="path3934"
                 style="fill:#890000;fill-opacity:1;stroke:#000000;stroke-width:639.922;stroke-miterlimit:4;stroke-dasharray:none;stroke-opacity:1" />
              <path
                 d="m 10222,9212 1169,-637 24,45 24,45 -1169,637 -24,-45 z"
                 id="path3936"
                 style="fill:#890000;fill-opacity:1;stroke:#000000;stroke-width:639.922;stroke-miterlimit:4;stroke-dasharray:none;stroke-opacity:1" />
              <path
                 d="m 11415,8620 51,5 -2,9 -3,8 -5,8 -5,7 -7,5 -5,3 z"
                 id="path3938"
                 style="fill:#890000;fill-opacity:1;stroke:#000000;stroke-width:639.922;stroke-miterlimit:4;stroke-dasharray:none;stroke-opacity:1" />
              <path
                 d="m 11364,8615 146,-1458 51,5 51,5 -146,1458 -51,-5 z"
                 id="path3940"
                 style="fill:#890000;fill-opacity:1;stroke:#000000;stroke-width:639.922;stroke-miterlimit:4;stroke-dasharray:none;stroke-opacity:1" />
              <path
                 d="m 11561,7162 20,-47 8,4 7,6 6,6 4,8 4,8 2,9 v 8 3 z"
                 id="path3942"
                 style="fill:#890000;fill-opacity:1;stroke:#000000;stroke-width:639.922;stroke-miterlimit:4;stroke-dasharray:none;stroke-opacity:1" />
              <path
                 d="m 11541,7209 -6184,-2594 20,-47 20,-47 6184,2594 -20,47 z"
                 id="path3944"
                 style="fill:#890000;fill-opacity:1;stroke:#000000;stroke-width:639.922;stroke-miterlimit:4;stroke-dasharray:none;stroke-opacity:1" />
              <path
                 d="m 5377,4568 -42,-28 5,-7 7,-6 8,-5 8,-3 9,-2 h 9 l 8,2 8,2 z"
                 id="path3946"
                 style="fill:#890000;fill-opacity:1;stroke:#000000;stroke-width:639.922;stroke-miterlimit:4;stroke-dasharray:none;stroke-opacity:1" />
            </g>
            <g
               id="g3950"
               style="fill:#890000;fill-opacity:1;stroke:#000000;stroke-width:639.922;stroke-miterlimit:4;stroke-dasharray:none;stroke-opacity:1" />
          </g>
        </g>
        <g
           id="g3980"
           style="fill:#890000;fill-opacity:1;stroke:#000000;stroke-width:639.922;stroke-miterlimit:4;stroke-dasharray:none;stroke-opacity:1">
          <desc
             id="desc3956">Drawing</desc>
          <g
             id="g3978"
             style="fill:#890000;fill-opacity:1;stroke:#000000;stroke-width:639.922;stroke-miterlimit:4;stroke-dasharray:none;stroke-opacity:1">
            <g
               style="fill:#890000;fill-opacity:1;stroke:#000000;stroke-width:639.922;stroke-miterlimit:4;stroke-dasharray:none;stroke-opacity:1"
               id="g3960">
              <path
                 d="m 11513,9849 -1120,1184 -1218,-501 z"
                 id="path3958"
                 style="fill:#890000;fill-opacity:1;stroke:#000000;stroke-width:639.922;stroke-miterlimit:4;stroke-dasharray:none;stroke-opacity:1" />
            </g>
            <g
               style="fill:#890000;fill-opacity:1;stroke:#000000;stroke-width:639.922;stroke-miterlimit:4;stroke-dasharray:none;stroke-opacity:1"
               id="g3974">
              <path
                 d="m 11550,9884 -1120,1184 -37,-35 -37,-35 1120,-1184 37,35 z"
                 id="path3962"
                 style="fill:#890000;fill-opacity:1;stroke:#000000;stroke-width:639.922;stroke-miterlimit:4;stroke-dasharray:none;stroke-opacity:1" />
              <path
                 d="m 10393,11033 37,35 -7,6 -7,5 -8,3 -9,2 h -9 l -9,-1 -7,-3 z"
                 id="path3964"
                 style="fill:#890000;fill-opacity:1;stroke:#000000;stroke-width:639.922;stroke-miterlimit:4;stroke-dasharray:none;stroke-opacity:1" />
              <path
                 d="m 10374,11080 -1218,-501 19,-47 19,-47 1218,501 -19,47 z"
                 id="path3966"
                 style="fill:#890000;fill-opacity:1;stroke:#000000;stroke-width:639.922;stroke-miterlimit:4;stroke-dasharray:none;stroke-opacity:1" />
              <path
                 d="m 9175,10532 -19,47 -8,-4 -7,-5 -6,-7 -5,-7 -4,-9 -2,-8 v -9 l 1,-9 3,-8 4,-8 5,-7 7,-6 7,-5 9,-4 h 1 z"
                 id="path3968"
                 style="fill:#890000;fill-opacity:1;stroke:#000000;stroke-width:639.922;stroke-miterlimit:4;stroke-dasharray:none;stroke-opacity:1" />
              <path
                 d="m 9161,10483 2338,-683 14,49 14,49 -2338,683 -14,-49 z"
                 id="path3970"
                 style="fill:#890000;fill-opacity:1;stroke:#000000;stroke-width:639.922;stroke-miterlimit:4;stroke-dasharray:none;stroke-opacity:1" />
              <path
                 d="m 11513,9849 -14,-49 8,-2 h 9 l 9,1 9,3 7,5 7,5 6,7 5,7 3,9 2,8 v 9 l -1,9 -3,9 -5,7 -5,7 z"
                 id="path3972"
                 style="fill:#890000;fill-opacity:1;stroke:#000000;stroke-width:639.922;stroke-miterlimit:4;stroke-dasharray:none;stroke-opacity:1" />
            </g>
            <g
               id="g3976"
               style="fill:#890000;fill-opacity:1;stroke:#000000;stroke-width:639.922;stroke-miterlimit:4;stroke-dasharray:none;stroke-opacity:1" />
          </g>
        </g>
      </g>
      <g
         id="g1459"
         style="stroke:#000000;stroke-width:0.5;stroke-miterlimit:4;stroke-dasharray:none;stroke-opacity:1">
        <path
           id="path874"
           style="fill:#ffafe4;fill-opacity:1;stroke:#000000;stroke-width:0.5;stroke-miterlimit:4;stroke-dasharray:none;stroke-opacity:1"
           d="m 19.035131,113.29251 -2.001112,0.0626 h -1.735704 l -0.656391,3.17499 4.08253,0.0468 z m -1.084582,0.99932 -0.136115,1.30131 -1.944373,0.0158 0.251147,-1.28581 z" />
        <path
           id="path870"
           style="fill:#ffafe4;fill-opacity:1;stroke:#000000;stroke-width:0.5;stroke-miterlimit:4;stroke-dasharray:none;stroke-opacity:1"
           d="m 16.096094,109.3864 -0.501673,2.85749 h 3.49249 l 0.0924,-1.7819 0.921802,-0.48307 -0.731736,-0.59252 z m 0.64678,0.79375 h 0.270371 l -0.15813,0.41207 0.799949,0.75158 0.64368,-0.32867 -0.03938,0.43502 h -1.712449 z m 0.737938,0 0.825684,0.0158 -0.519657,0.29921 z" />
        <path
           style="fill:#ffafe4;fill-opacity:1;stroke:#000000;stroke-width:0.5;stroke-miterlimit:4;stroke-dasharray:none;stroke-opacity:1"
           d="m 21.638659,109.71794 -1.077217,2.47754 2.64587,-0.68315 z"
           id="path866" />
        <path
           style="fill:#ffafe4;fill-opacity:1;stroke:#000000;stroke-width:0.5;stroke-miterlimit:4;stroke-dasharray:none;stroke-opacity:1"
           d="m 23.908438,106.68264 -9.490248,0.0843 -2.951129,12.62059 h 19.86509 l -2.94927,-11.64019 -0.769563,0.6105 2.383414,9.91844 H 12.737058 l 2.465579,-10.3981 7.881668,-0.0849 1.058536,-0.9463 z"
           id="path862" />
        <path
           style="fill:#ffafe4;fill-opacity:1;stroke:#000000;stroke-width:0.5;stroke-miterlimit:4;stroke-dasharray:none;stroke-opacity:1"
           d="m 28.691389,103.36533 -6.776622,5.92583 1.766398,2.01599 6.835844,-5.88334 z"
           id="path860" />
        <path
           style="fill:#ffafe4;fill-opacity:1;stroke:#000000;stroke-width:0.5;stroke-miterlimit:4;stroke-dasharray:none;stroke-opacity:1"
           d="m 30.671728,102.40105 c -0.522135,-0.0236 -1.20588,0.16953 -1.721526,0.72855 l 1.871237,2.0319 c 1.752068,-1.46633 0.998985,-2.70857 -0.149711,-2.76045 z"
           id="path858"
           sodipodi:nodetypes="sccs" />
      </g>
      <g
         id="g859"
         transform="matrix(0.02068286,0,0,0.02068286,63.344881,99.006698)"
         style="fill:#20b8e7;fill-opacity:1;stroke:#000000;stroke-width:24.1746;stroke-miterlimit:4;stroke-dasharray:none;stroke-opacity:1">
        <path
           d="m 147.8,591.1 v 0 c 4.4,-0.4 8.7,-1.1 13,-1.8 0.9,-0.2 1.9,-0.2 2.8,-0.4 2,-0.4 3.9,-0.9 5.9,-1.4 8.3,-1.9 16.5,-4.2 24.3,-7.3 v 0 256.6 h 612.5 v -256.6 0 c 7.8,3 15.9,5.4 24.3,7.3 2,0.4 3.9,1 5.9,1.4 0.9,0.2 1.9,0.3 2.8,0.4 4.3,0.7 8.6,1.4 13,1.8 v 0 c 5,0.5 10.1,0.8 15.3,0.8 10.5,0 20.7,-1.1 30.6,-2.9 v 309.2 c 0,25.3 -20.6,45.9 -45.9,45.9 H 147.8 c -25.4,0 -45.9,-20.6 -45.9,-45.9 V 588.9 c 9.9,1.8 20.1,2.9 30.6,2.9 5.2,0.1 10.3,-0.2 15.3,-0.7"
           id="path854"
           style="fill:#20b8e7;fill-opacity:1;stroke:#000000;stroke-width:24.1746;stroke-miterlimit:4;stroke-dasharray:none;stroke-opacity:1" />
        <path
           d="M 990,423.4 C 990,491.1 935.2,545.9 867.5,545.9 799.8,545.9 745,491.1 745,423.4 745,491.1 690.2,545.9 622.5,545.9 554.8,545.9 500,491.1 500,423.4 500,491.1 445.2,545.9 377.5,545.9 309.8,545.9 255,491.1 255,423.4 255,491.1 200.2,545.9 132.5,545.9 64.8,545.9 10,491.1 10,423.4 L 96.1,193.7 h 807.7 z"
           id="path4-7"
           style="fill:#20b8e7;fill-opacity:1;stroke:#000000;stroke-width:24.1746;stroke-miterlimit:4;stroke-dasharray:none;stroke-opacity:1" />
        <path
           style="fill:#20b8e7;fill-opacity:1;stroke:#000000;stroke-width:24.1746;stroke-miterlimit:4;stroke-dasharray:none;stroke-opacity:1"
           d="m 477.33545,828.74078 c -17.27984,-3.16429 -33.87644,-10.3491 -49.13919,-19.04706 -9.36088,-5.33461 -17.73831,-12.41176 -25.4118,-19.97492 -7.14611,-7.04334 -16.59544,-19.2039 -18.94283,-23.39338 l -1.55774,-2.78012 24.3053,-14.83544 c 18.91248,-11.54376 25.48381,-15.27861 29.22026,-17.37767 0.99784,2.3302 6.69869,12.46661 11.90834,17.03298 10.29645,9.02508 23.22462,15.40812 36.45802,18.92173 8.44977,2.24351 17.58919,2.53264 26.20629,1.05704 12.4297,-2.12844 24.65279,-7.01196 35.14008,-14.0151 7.84102,-5.23603 14.34653,-12.52319 19.74664,-20.25209 4.6829,-6.70238 10.49662,-18.67762 10.60131,-22.11958 l 0.0826,-2.71705 -11.76171,-2.89815 c -7.28215,-1.79433 -11.76631,-3.24026 -11.77375,-3.79642 20.66312,-12.3899 46.8416,-27.99301 67.67231,-40.31557 14.80927,24.69733 25.33004,43.21356 39.04568,67.72638 -0.6832,0.68317 -15.51961,-3.3319 -23.86483,-6.05601 -2.34151,6.73537 -1.70489,5.49843 -2.78507,8.16272 -3.814,9.40731 -7.61813,18.93419 -13.0139,27.53243 -6.68487,10.65249 -14.44573,20.84091 -23.70311,29.35348 -11.27215,10.36527 -24.30936,18.9732 -38.03185,25.76975 -12.86752,6.37308 -26.67142,11.35197 -40.8336,13.72306 -13.00848,2.17794 -26.59369,2.67475 -39.56749,0.29899 z M 381.15567,720.28933 c -12.50171,-21.77033 -28.21585,-46.56449 -40.19094,-65.39324 0.22687,-0.22689 5.73109,0.58327 12.23159,1.8003 6.50049,1.21702 12.05309,1.96275 12.33912,1.65719 0.286,-0.3056 1.85946,-3.81604 3.49658,-7.801 14.18065,-34.51777 31.90342,-57.22588 57.66598,-73.887 12.34629,-7.9846 20.32653,-11.62038 34.77781,-15.84468 17.13474,-5.00869 30.40125,-6.68785 47.22543,-5.97732 15.25435,0.64423 18.41773,0.36752 35.68583,5.6105 18.087,5.49159 25.45817,10.9661 37.36139,18.85606 10.67777,7.07767 26.92509,24.3296 33.54567,33.31417 2.83422,3.84621 5.48774,7.10663 5.89675,7.24539 0.40898,0.13879 -11.34765,7.37525 -26.12585,16.08111 -14.7782,8.70584 -27.10538,15.55273 -27.39373,15.21529 -0.28834,-0.33744 -2.30355,-3.86611 -3.89106,-5.42605 -11.49057,-11.29128 -24.48593,-22.3561 -39.76161,-27.47264 -11.0424,-3.69863 -23.54714,-4.02877 -34.90557,-1.45956 -15.44041,3.49252 -30.1423,11.69793 -41.97703,22.21193 -6.63728,5.89658 -9.91513,11.4222 -15.14333,21.911 -2.57941,5.17478 -3.74652,8.40409 -3.78705,10.47835 l -0.0586,2.99832 7.60764,2.03951 c 15.49455,4.1539 15.532,4.16774 14.38478,5.31496 -22.82179,13.56106 -40.15481,23.85421 -64.54349,38.447 -3.29508,2.0865 -3.19044,2.08463 -4.44032,0.0803 z"
           id="path825-3"
           inkscape:connector-curvature="0"
           sodipodi:nodetypes="aaascscaaaaacccccccaaaaaaccccssssssccscaaaasccccccc" />
      </g>
      <g
         id="g1001"
         style="display:inline;stroke-width:2"
         transform="matrix(0.50000097,0,0,0.50000097,59.251201,98.9994)">
        <path
           style="clip-rule:evenodd;display:inline;fill:#000000;fill-opacity:1;fill-rule:nonzero;stroke-width:0.14363;stroke-linejoin:round;stroke-miterlimit:2"
           d="m -185.75577,124.13036 h 29.08521 c 0.18686,-7e-5 0.37049,-0.073 0.5078,-0.21034 l 4.668,-4.668 c 0.13731,-0.13738 0.20855,-0.32101 0.20862,-0.50781 h 0.002 v -17.59475 c 0,-0.39656 -0.32152,-0.71815 -0.71816,-0.71815 h -33.7532 c -0.39663,0 -0.71815,0.32159 -0.71815,0.71815 v 22.26275 c 0,0.39656 0.32152,0.71815 0.71815,0.71815 z"
           id="path34"
           transform="translate(249.80447,-91.409467)" />
        <path
           style="clip-rule:evenodd;display:inline;fill:#222222;fill-rule:nonzero;stroke-width:0.14363;stroke-linejoin:round;stroke-miterlimit:2"
           d="m -151.77549,126.68074 -4.30892,-1.43631 c -0.0742,-0.0247 -0.15081,-0.0358 -0.22708,-0.0358 v -0.001 h -29.44428 c -0.39663,0 -0.71815,0.32159 -0.71815,0.71816 v 2.87261 c 0,0.39656 0.32152,0.71815 0.71815,0.71815 h 29.44436 c 0.0762,0 0.15289,-0.0121 0.227,-0.0368 l 4.30892,-1.4363 c 0.29323,-0.0978 0.49108,-0.37222 0.49108,-0.68132 0,-0.30909 -0.19778,-0.58357 -0.49108,-0.68131 z"
           id="path62"
           transform="translate(249.80447,-91.409467)" />
        <path
           style="clip-rule:evenodd;display:inline;fill:#ff4900;fill-opacity:1;fill-rule:nonzero;stroke-width:0.14363;stroke-linejoin:round;stroke-miterlimit:2"
           d="m -155.59333,127.80199 v -0.87988 l 1.31975,0.43994 z"
           id="path957"
           transform="translate(249.80447,-91.409467)" />
        <path
           style="clip-rule:evenodd;display:inline;fill:#ff4900;fill-opacity:1;fill-rule:nonzero;stroke-width:0.14363;stroke-linejoin:round;stroke-miterlimit:2"
           d="m -157.02964,128.08021 h -23.69905 v -1.43631 h 23.69905 z"
           id="path955"
           transform="translate(249.80447,-91.409467)" />
        <path
           style="clip-rule:evenodd;display:inline;fill:#ff4900;fill-opacity:1;fill-rule:nonzero;stroke-width:0.14363;stroke-linejoin:round;stroke-miterlimit:2"
           d="m -182.165,128.08021 h -2.87261 v -1.43631 h 2.87261 z"
           id="path953"
           transform="translate(249.80447,-91.409467)" />
        <path
           style="clip-rule:evenodd;display:inline;fill:#ff4900;fill-opacity:1;fill-rule:nonzero;stroke-width:0.14363;stroke-linejoin:round;stroke-miterlimit:2"
           d="m -185.03761,101.86761 h 32.31689 v 16.15845 h -3.94984 c -0.39664,0 -0.71816,0.32159 -0.71816,0.71815 v 3.94985 h -27.64889 z"
           id="path944"
           transform="translate(249.80447,-91.409467)" />
        <path
           style="clip-rule:evenodd;display:inline;fill:#ff4900;fill-opacity:1;fill-rule:nonzero;stroke-width:0.14363;stroke-linejoin:round;stroke-miterlimit:2"
           d="m -155.95241,121.67837 v -2.216 h 2.21608 z"
           id="path942"
           transform="translate(249.80447,-91.409467)" />
        <path
           d="m -161.33856,104.02207 h -7.18153 c -0.39664,0 -0.71815,0.32159 -0.71815,0.71816 v 1.07723 h -1.79539 c -0.39663,0 -0.71815,0.32159 -0.71815,0.71815 v 5.38615 h -5.74522 v -2.51354 h 3.94984 c 0.39663,0 0.71815,-0.32159 0.71815,-0.71815 v -4.30892 c 0,-0.39656 -0.32152,-0.71815 -0.71815,-0.71815 h -8.61784 c -0.39664,0 -0.71815,0.32159 -0.71815,0.71815 v 4.30892 c 0,0.39656 0.32151,0.71815 0.71815,0.71815 h 3.23169 v 3.23169 c 0,0.39657 0.32152,0.71816 0.71815,0.71816 h 6.46338 v 5.02707 c 0,0.39656 0.32152,0.71815 0.71815,0.71815 h 1.79539 v 0.71815 c 0,0.39657 0.32151,0.71816 0.71815,0.71816 h 7.18153 c 0.39664,0 0.71816,-0.32159 0.71816,-0.71816 v -3.59076 c 0,-0.39657 -0.32152,-0.71815 -0.71816,-0.71815 h -7.18153 c -0.39664,0 -0.71815,0.32158 -0.71815,0.71815 v 1.4363 h -1.07723 v -4.30891 h 1.07723 v 0.71815 c 0,0.39656 0.32151,0.71815 0.71815,0.71815 h 7.18153 c 0.39664,0 0.71816,-0.32159 0.71816,-0.71815 v -3.59077 c 0,-0.39656 -0.32152,-0.71815 -0.71816,-0.71815 h -7.18153 c -0.39664,0 -0.71815,0.32159 -0.71815,0.71815 v 1.43631 h -1.07723 v -4.668 h 1.07723 v 1.07723 c 0,0.39657 0.32151,0.71816 0.71815,0.71816 h 7.18153 c 0.39664,0 0.71816,-0.32159 0.71816,-0.71816 v -3.59076 c 0,-0.39657 -0.32152,-0.71816 -0.71816,-0.71816 z m -20.10829,3.94985 v -2.87262 h 7.18153 v 2.87262 z m 13.64491,8.97691 h 5.74523 v 2.15446 h -5.74523 z m 0,-5.74522 h 5.74523 v 2.15446 h -5.74523 z m 5.74523,-3.59077 h -5.74523 v -2.15446 h 5.74523 z"
           style="clip-rule:evenodd;display:inline;fill:#222222;fill-rule:nonzero;stroke-width:0.14363;stroke-linejoin:round;stroke-miterlimit:2"
           id="path36"
           transform="translate(249.80447,-91.409467)" />
        <rect
           x="-182.88315"
           y="115.15345"
           width="5.3861489"
           height="1.4363064"
           style="clip-rule:evenodd;display:inline;fill:#222222;fill-rule:evenodd;stroke-width:0.14363;stroke-linejoin:round;stroke-miterlimit:2"
           id="rect38"
           transform="translate(249.80447,-91.409467)" />
        <rect
           x="-182.88315"
           y="117.30791"
           width="5.3861489"
           height="1.4363064"
           style="clip-rule:evenodd;display:inline;fill:#222222;fill-rule:evenodd;stroke-width:0.14363;stroke-linejoin:round;stroke-miterlimit:2"
           id="rect40"
           transform="translate(249.80447,-91.409467)" />
        <rect
           x="-182.88315"
           y="119.46236"
           width="9.3359919"
           height="1.4363064"
           style="clip-rule:evenodd;display:inline;fill:#222222;fill-rule:evenodd;stroke-width:0.14363;stroke-linejoin:round;stroke-miterlimit:2"
           id="rect42"
           transform="translate(249.80447,-91.409467)" />
        <rect
           x="-176.77885"
           y="115.15345"
           width="1.4363064"
           height="1.4363064"
           style="clip-rule:evenodd;display:inline;fill:#222222;fill-rule:evenodd;stroke-width:0.14363;stroke-linejoin:round;stroke-miterlimit:2"
           id="rect44"
           transform="translate(249.80447,-91.409467)" />
        <rect
           x="-159.1841"
           y="104.02207"
           width="1.795383"
           height="1.4363064"
           style="clip-rule:evenodd;display:inline;fill:#222222;fill-rule:evenodd;stroke-width:0.14363;stroke-linejoin:round;stroke-miterlimit:2"
           id="rect46"
           transform="translate(249.80447,-91.409467)" />
        <rect
           x="-156.31149"
           y="104.02207"
           width="1.795383"
           height="1.4363064"
           style="clip-rule:evenodd;display:inline;fill:#222222;fill-rule:evenodd;stroke-width:0.14363;stroke-linejoin:round;stroke-miterlimit:2"
           id="rect48"
           transform="translate(249.80447,-91.409467)" />
        <rect
           x="-159.1841"
           y="106.17654"
           width="1.795383"
           height="1.4363064"
           style="clip-rule:evenodd;display:inline;fill:#222222;fill-rule:evenodd;stroke-width:0.14363;stroke-linejoin:round;stroke-miterlimit:2"
           id="rect50"
           transform="translate(249.80447,-91.409467)" />
        <rect
           x="-156.31149"
           y="106.17654"
           width="1.795383"
           height="1.4363064"
           style="clip-rule:evenodd;display:inline;fill:#222222;fill-rule:evenodd;stroke-width:0.14363;stroke-linejoin:round;stroke-miterlimit:2"
           id="rect52"
           transform="translate(249.80447,-91.409467)" />
        <rect
           x="-159.1841"
           y="108.33099"
           width="1.795383"
           height="1.4363064"
           style="clip-rule:evenodd;display:inline;fill:#222222;fill-rule:evenodd;stroke-width:0.14363;stroke-linejoin:round;stroke-miterlimit:2"
           id="rect54"
           transform="translate(249.80447,-91.409467)" />
        <rect
           x="-156.31149"
           y="108.33099"
           width="1.795383"
           height="1.4363064"
           style="clip-rule:evenodd;display:inline;fill:#222222;fill-rule:evenodd;stroke-width:0.14363;stroke-linejoin:round;stroke-miterlimit:2"
           id="rect56"
           transform="translate(249.80447,-91.409467)" />
        <rect
           x="-159.1841"
           y="110.48545"
           width="1.795383"
           height="1.4363064"
           style="clip-rule:evenodd;display:inline;fill:#222222;fill-rule:evenodd;stroke-width:0.14363;stroke-linejoin:round;stroke-miterlimit:2"
           id="rect58"
           transform="translate(249.80447,-91.409467)" />
        <rect
           x="-156.31149"
           y="110.48545"
           width="1.795383"
           height="1.4363064"
           style="clip-rule:evenodd;display:inline;fill:#222222;fill-rule:evenodd;stroke-width:0.14363;stroke-linejoin:round;stroke-miterlimit:2"
           id="rect60"
           transform="translate(249.80447,-91.409467)" />
      </g>
    </g>
    <g
       id="g851"
       style="fill:#ff6600;fill-opacity:1;stroke:#000000;stroke-width:0.900108;stroke-miterlimit:4;stroke-dasharray:none;stroke-opacity:1"
       transform="matrix(0.55362175,0,0,0.5573624,177.97422,-7.0598299)">
      <polygon
         class="st0"
         points="25.2,216.1 44.7,216.1 44.7,226.4 61.9,226.4 73.3,390.1 88.1,390.1 99.4,226.4 116.7,226.4 116.7,216.1 136.3,216.1 136.3,197.4 25.2,197.4 "
         id="polygon4"
         style="fill:#ff6600;fill-opacity:1;stroke:#000000;stroke-width:8.77113;stroke-miterlimit:4;stroke-dasharray:none;stroke-opacity:1"
         transform="matrix(0.10262166,0,0,0.10262166,-232.4692,92.444174)" />
      <path
         style="fill:#ff6600;fill-opacity:1;stroke:#000000;stroke-width:0.900108;stroke-miterlimit:4;stroke-dasharray:none;stroke-opacity:1"
         d="m -231.51482,106.96201 c 0.0205,-0.19498 0.0308,-0.38996 0.0616,-0.58494 0.0718,-0.50285 0.22577,-0.97491 0.44128,-1.4367 0.28734,-0.61573 0.6773,-1.15963 1.14936,-1.64195 0.56442,-0.58494 1.2212,-1.057 1.94981,-1.42644 0.62599,-0.30787 1.27251,-0.53364 1.96008,-0.63626 0.18471,-0.0308 0.3797,-0.0513 0.56441,-0.0103 0.25656,0.0513 0.43102,0.19498 0.47206,0.4618 0,0 0,0.0103 0,0.0103 0.10263,-0.0205 0.20525,-0.041 0.30787,-0.0616 0.35917,-0.0513 0.70809,-0.041 1.057,0.0718 0.14367,0.0513 0.27708,0.12315 0.3797,0.23603 0.1642,0.17446 0.20525,0.3797 0.18472,0.60547 -0.0103,0.0718 -0.0205,0.14367 -0.0308,0.22577 -0.0308,-0.0205 -0.0616,-0.0308 -0.0821,-0.041 -0.34892,-0.17446 -0.69783,-0.17446 -1.05701,-0.041 -0.34891,0.13341 -0.62599,0.35918 -0.86202,0.63626 -0.30786,0.36943 -0.50284,0.80045 -0.63625,1.26224 -0.10262,0.34892 -0.1642,0.70809 -0.20525,1.06727 0,0.0205 0,0.0411 0,0.0616 0.10263,-0.0205 0.20525,-0.041 0.30787,-0.0616 0.99543,-0.22577 1.94981,-0.56442 2.86314,-1.02622 0.94412,-0.47206 1.80615,-1.06726 2.58607,-1.78562 1.16989,-1.01595 2.08322,-2.24741 2.80157,-3.622546 0.51311,-0.99543 0.91333,-2.031909 1.18015,-3.119698 0.11288,-0.461798 0.20524,-0.933858 0.25655,-1.405917 0,-0.01026 0,-0.02053 0,-0.03079 0,0 0.0103,0 0.0103,0 0.15393,0.123146 0.26681,0.287341 0.35917,0.461798 0.14367,0.297603 0.22577,0.61573 0.26682,0.944119 0.0205,0.184719 0.0308,0.369438 0.0513,0.564419 0,0.14367 0,0.277079 0,0.420749 -0.0103,0.123146 -0.0103,0.23603 -0.0205,0.359176 -0.0513,0.595205 -0.15394,1.180149 -0.29761,1.765092 -0.23603,0.933858 -0.58494,1.816408 -1.03648,2.668168 -0.73887,1.39566 -1.71378,2.61686 -2.92471,3.64307 -1.25199,1.04674 -2.66817,1.80614 -4.21775,2.28847 -0.14367,0.041 -0.28734,0.0821 -0.43101,0.1334 0,0.0205 0,0.0308 0,0.0513 0,0.0205 0,0.0308 0,0.0513 0.0205,0 0.041,0 0.0616,0 0.41048,-0.0103 0.82097,-0.0718 1.2212,-0.18472 0.71835,-0.18472 1.40591,-0.48232 2.06269,-0.83124 0.82097,-0.44127 1.58037,-0.96464 2.28846,-1.57011 0.66705,-0.56442 1.27251,-1.19041 1.78562,-1.90876 0.35918,-0.50285 0.66704,-1.04674 0.87229,-1.63169 0.0513,-0.15393 0.0924,-0.2976 0.14367,-0.4618 0.0103,0.0205 0.0205,0.0308 0.0308,0.0513 0.0718,0.14368 0.12315,0.29761 0.15393,0.45154 0.0924,0.44127 0.0718,0.88255 -0.0103,1.32382 -0.10262,0.58494 -0.2976,1.12884 -0.56442,1.66247 -0.3797,0.76966 -0.88254,1.44697 -1.47775,2.0627 -0.54389,0.55415 -1.1391,1.03648 -1.78562,1.44696 -1.04674,0.66704 -2.16531,1.15963 -3.35572,1.5188 -0.7594,0.22577 -1.5188,0.40023 -2.29873,0.52337 -0.0924,0.0103 -0.0924,0.0205 -0.0821,0.11289 0.0103,0 0.0308,0.0103 0.0411,0.0103 0.25656,0 0.50285,0.0205 0.7594,0.0103 0.69783,-0.0205 1.3854,-0.13341 2.0627,-0.32839 0.9749,-0.27708 1.87797,-0.69782 2.74,-1.22119 0.70809,-0.43102 1.36486,-0.9236 1.97033,-1.48802 0.0103,-0.0103 0.0103,-0.0103 0.0205,-0.0103 -0.041,0.42075 -0.20525,0.94412 -0.40023,1.32382 -0.30786,0.60547 -0.73887,1.10831 -1.26224,1.52906 -0.60547,0.50285 -1.28277,0.87229 -2.00113,1.15963 -0.83123,0.33865 -1.69325,0.55415 -2.58606,0.6773 -0.63626,0.0924 -1.27251,0.12314 -1.90877,0.11288 -0.55415,-0.0103 -1.09805,-0.0718 -1.63168,-0.17445 -0.58494,-0.11289 -1.14936,-0.27708 -1.69326,-0.53364 -0.45153,-0.20524 -0.86202,-0.47206 -1.22119,-0.82097 -0.30787,-0.2976 -0.5439,-0.64652 -0.71836,-1.03648 -0.23603,-0.54389 -0.43101,-1.10831 -0.5131,-1.69326 -0.0308,-0.2155 -0.0513,-0.44127 -0.0718,-0.66704 -0.041,-0.16419 -0.041,-0.31812 -0.041,-0.47206 z"
         id="path6" />
    </g>
    <g
       id="g1043"
       transform="rotate(90,81.254027,58.254488)">
      <path
         id="path1039"
         style="fill:#ffe000;fill-opacity:1;stroke:#000000;stroke-width:0.499999;stroke-miterlimit:4;stroke-dasharray:none;stroke-opacity:1"
         inkscape:transform-center-x="-0.016032813"
         inkscape:transform-center-y="-0.92651062"
         d="m 81.223785,59.605874 -2.01758,3.538376 h 1.300397 v 3.75749 h 1.494846 v -3.75749 h 1.300401 z"
         sodipodi:nodetypes="cccccccc" />
      <path
         id="path1041"
         style="fill:#ffe000;fill-opacity:1;stroke:#000000;stroke-width:0.499999;stroke-miterlimit:4;stroke-dasharray:none;stroke-opacity:1"
         inkscape:transform-center-x="-0.016032813"
         inkscape:transform-center-y="0.92651062"
         d="m 81.223785,56.903101 -2.01758,-3.538371 h 1.300397 v -3.757494 h 1.494846 v 3.757494 h 1.300401 z"
         sodipodi:nodetypes="cccccccc" />
    </g>
  </g>
</svg>
