<svg width="200" height="200" viewBox="0 0 52.917 52.917" xmlns="http://www.w3.org/2000/svg"><defs><path id="a" d="M-183.5 214H112v130.5h-295.5z"/></defs><g transform="translate(249.804 -91.41)"><rect y="91.409" x="-249.804" height="52.917" width="52.917" style="display:inline;fill:#000;fill-opacity:1;fill-rule:nonzero;stroke:none;stroke-width:.5;stroke-linecap:butt;stroke-linejoin:round;stroke-miterlimit:4;stroke-dasharray:none;stroke-dashoffset:0;stroke-opacity:.909449;paint-order:normal" rx="14.552" ry="14.552"/><path style="display:inline;fill:#333;fill-opacity:1;stroke-width:.450003;stroke-linejoin:round;stroke-opacity:.909449" d="M-203.361 97.883a13.056 13.056 0 0 1 3.828 9.27v21.43h-47.626z"/><path style="display:inline;fill:red;fill-opacity:1;stroke-width:.450003;stroke-linejoin:round;stroke-opacity:.909449" d="M-234.062 94.055h21.432c3.627 0 6.902 1.46 9.269 3.828l-43.798 30.7v-21.43a13.068 13.068 0 0 1 13.097-13.098z"/><path style="display:inline;fill:#000;fill-opacity:1;stroke-width:1" d="M-223.202 97.624c2.218-.523 4.587-.775 6.752.11 1.864.465 3.492 1.472 4.462 3.16 1.425 1.809 2.398 3.956 2.705 6.243.566 3.149.674 6.36 1.103 9.527.224 3.94-.697 7.869-.486 11.8-.58 1.874-2.637.635-3.238-.556-1.398-1.435-1.698 1.712-3.073 1.848-1.662.741-1.593-2.74-3.091-1.798-.747 1.198-2.41 2.838-3.884 1.867-.853-.636-2.149-3.217-3.049-1.568-.622 1.53-2.703 2.075-3.77.662-.86-.911-2.148-3.18-3.447-1.531-.887.924-2.232 2.52-3.598 1.495-.223-1.68-1.537-.261-2.398-.69-.529-1.897-.257-3.944-.309-5.896.439-4.549-.547-9.36 1.375-13.68 1.39-3.505 3.714-6.719 6.978-8.689 2.043-1.493 4.58-1.73 6.968-2.306m-2.447 21.026c2.046-.629 1.752-3.16 1.508-4.823-.055-1.923-1.934-3.3-3.798-2.855-2.394.24-4.406 2.774-3.665 5.165.504 2.178 3.178 3.072 5.186 2.676.26-.034.517-.092.769-.164m12.28.59c1.886-.264 2.552-2.409 2.376-4.058.156-2.044-1.627-3.784-3.667-3.45-1.424.12-3.201.16-3.92 1.641-1.061 1.947-.759 5.018 1.445 6.037 1.198.46 2.537-.055 3.766-.17"/><path style="display:inline;fill:#000;stroke-width:.5;stroke-linejoin:round;stroke-opacity:.909449" d="M-196.888 128.583v1.191a14.52 14.52 0 0 1-14.552 14.552h-23.812a14.52 14.52 0 0 1-14.552-14.552v-1.19z"/><g aria-label="ACTIVE" transform="matrix(.29007 0 0 .29007 -188.067 67.564)" style="font-size:40px;line-height:1.25;white-space:pre;shape-inside:url(#a);fill:red"><path d="m-173.9 237.853-.44 1.8h4.8l-.44-1.8q-.48-1.88-.96-4.08t-.96-4.16h-.16q-.44 2-.92 4.2-.44 2.16-.92 4.04zm-10 12.64 7.92-26h8.32l7.92 26h-7.28l-1.28-5.52h-7.28l-1.28 5.52zM-146.38 250.973q-2.48 0-4.76-.8-2.24-.84-3.96-2.48-1.68-1.68-2.68-4.16-1-2.52-1-5.84 0-3.28 1.04-5.8 1.04-2.56 2.76-4.28 1.76-1.76 4-2.68 2.28-.92 4.76-.92 2.6 0 4.64 1.04 2.04 1 3.44 2.4l-3.6 4.4q-.96-.84-2-1.36-1-.56-2.32-.56-1.16 0-2.2.52-1 .52-1.8 1.48-.76.96-1.24 2.36-.44 1.4-.44 3.16 0 3.68 1.52 5.64 1.56 1.96 4.08 1.96 1.52 0 2.68-.64 1.2-.68 2.04-1.6l3.6 4.32q-1.68 1.92-3.88 2.88-2.16.96-4.68.96zM-129.66 250.493v-20.24h-6.88v-5.76h20.64v5.76h-6.88v20.24z" style="font-weight:900;font-family:'Source Sans Pro';-inkscape-font-specification:'Source Sans Pro Heavy'"/><path d="M-112.06 250.493v-26h6.88v26zM-95.02 250.493l-7.68-26h7.28l2.72 11.36q.56 2.08.96 4.12.4 2 .96 4.12h.16q.56-2.12.96-4.12.44-2.04.96-4.12l2.64-11.36h7.04l-7.68 26zM-76.54 250.493v-26h16.8v5.76h-9.92v4.08h8.48v5.76h-8.48v4.64h10.32v5.76z" style="font-weight:900;font-family:'Source Sans Pro';-inkscape-font-specification:'Source Sans Pro Heavy';fill:#fff;fill-opacity:1"/></g></g></svg>