<?xml version="1.0" encoding="UTF-8" standalone="no"?>
<svg
   width="200"
   height="200"
   viewBox="0 0 52.916668 52.916666"
   version="1.1"
   id="svg8"
   inkscape:version="1.1 (c68e22c387, 2021-05-23)"
   sodipodi:docname="active.svg"
   xmlns:inkscape="http://www.inkscape.org/namespaces/inkscape"
   xmlns:sodipodi="http://sodipodi.sourceforge.net/DTD/sodipodi-0.dtd"
   xmlns="http://www.w3.org/2000/svg"
   xmlns:svg="http://www.w3.org/2000/svg"
   xmlns:rdf="http://www.w3.org/1999/02/22-rdf-syntax-ns#"
   xmlns:cc="http://creativecommons.org/ns#"
   xmlns:dc="http://purl.org/dc/elements/1.1/">
  <defs
     id="defs2">
    <rect
       x="-183.5"
       y="214"
       width="295.5"
       height="130.5"
       id="rect1608" />
    <rect
       x="-194.5"
       y="219.5"
       width="272.5"
       height="84.5"
       id="rect1577" />
    <rect
       x="-26.5"
       y="237.5"
       width="296"
       height="67"
       id="rect5485" />
    <rect
       x="-247"
       y="42"
       width="137"
       height="81.5"
       id="rect1185" />
    <rect
       x="-48.175333"
       y="18.9895"
       width="46.117357"
       height="15.996081"
       id="rect880" />
    <rect
       x="-255.23004"
       y="125.83378"
       width="102.52459"
       height="46.959256"
       id="rect873" />
    <inkscape:path-effect
       effect="envelope"
       id="path-effect4658"
       is_visible="true"
       yy="true"
       xx="true"
       bendpath1="m -199.08406,108.42369 h 7.0057"
       bendpath2="m -192.07836,108.42369 v 6.75242"
       bendpath3="m -199.08406,115.17611 h 7.0057"
       bendpath4="m -199.08406,108.42369 v 6.75242" />
    <inkscape:path-effect
       effect="bend_path"
       id="path-effect4656"
       is_visible="true"
       bendpath="m -192.00142,114.60623 c 2.12577,-0.53066 4.48261,0.85111 7.0057,0"
       prop_scale="1"
       scale_y_rel="false"
       vertical="false"
       bendpath-nodetypes="cc" />
    <inkscape:path-effect
       effect="bounding_box"
       id="path-effect4654"
       is_visible="true"
       linkedpath=""
       visualbounds="false" />
    <linearGradient
       id="linearGradient3288"
       inkscape:swatch="solid">
      <stop
         style="stop-color:#000000;stop-opacity:1;"
         offset="0"
         id="stop3286" />
    </linearGradient>
    <linearGradient
       id="linearGradient1364"
       inkscape:swatch="solid">
      <stop
         style="stop-color:#ffffff;stop-opacity:1;"
         offset="0"
         id="stop1362" />
    </linearGradient>
    <rect
       x="293.80286"
       y="272.58966"
       width="25.455845"
       height="37.830212"
       id="rect1056" />
    <rect
       x="222.73865"
       y="266.22571"
       width="47.376156"
       height="54.09367"
       id="rect1050" />
    <rect
       x="139.30003"
       y="246.42671"
       width="58.336308"
       height="48.790367"
       id="rect1044" />
    <rect
       x="131.1683"
       y="203.64674"
       width="61.871841"
       height="73.892654"
       id="rect1038" />
    <rect
       x="81.67083"
       y="193.04015"
       width="63.63961"
       height="55.507881"
       id="rect1032" />
    <rect
       x="83.085045"
       y="274.35742"
       width="44.194176"
       height="38.890873"
       id="rect1026" />
    <rect
       x="3.5355339"
       y="269.05414"
       width="65.760933"
       height="53.386562"
       id="rect1020" />
    <rect
       x="14.142136"
       y="226.27417"
       width="79.195961"
       height="62.932503"
       id="rect1014" />
    <rect
       x="11.313708"
       y="171.82695"
       width="36.416"
       height="51.618793"
       id="rect1008" />
    <rect
       x="3.1819806"
       y="132.22897"
       width="102.88404"
       height="102.53048"
       id="rect1002" />
  </defs>
  <sodipodi:namedview
     id="base"
     pagecolor="#ffffff"
     bordercolor="#666666"
     borderopacity="1.0"
     inkscape:pageopacity="0.0"
     inkscape:pageshadow="2"
     inkscape:zoom="2"
     inkscape:cx="58"
     inkscape:cy="142.25"
     inkscape:document-units="mm"
     inkscape:current-layer="layer1"
     showgrid="false"
     fit-margin-top="0"
     fit-margin-left="0"
     fit-margin-right="0"
     fit-margin-bottom="0"
     inkscape:window-width="1920"
     inkscape:window-height="1017"
     inkscape:window-x="-8"
     inkscape:window-y="-8"
     inkscape:window-maximized="1"
     showguides="false"
     inkscape:object-nodes="true"
     units="px"
     inkscape:snap-page="true"
     inkscape:document-rotation="0"
     inkscape:pagecheckerboard="1" />
  <metadata
     id="metadata5">
    <rdf:RDF>
      <cc:Work
         rdf:about="">
        <dc:format>image/svg+xml</dc:format>
        <dc:type
           rdf:resource="http://purl.org/dc/dcmitype/StillImage" />
      </cc:Work>
    </rdf:RDF>
  </metadata>
  <g
     inkscape:label="Base"
     inkscape:groupmode="layer"
     id="layer1"
     transform="translate(249.80447,-91.409467)">
    <rect
       y="91.40947"
       x="-249.80447"
       height="52.916668"
       width="52.916668"
       id="rect5238-5"
       style="display:inline;fill:#000000;fill-opacity:1;fill-rule:nonzero;stroke:none;stroke-width:0.5;stroke-linecap:butt;stroke-linejoin:round;stroke-miterlimit:4;stroke-dasharray:none;stroke-dashoffset:0;stroke-opacity:0.909449;paint-order:normal"
       rx="14.552089"
       ry="14.552081"
       inkscape:label="Bottom-rectangle" />
    <path
       id="rect18865"
       style="display:inline;fill:#333333;fill-opacity:1;stroke-width:0.450003;stroke-linejoin:round;stroke-opacity:0.909449"
       d="m -203.36108,97.882738 c 2.36727,2.367272 3.82758,5.641512 3.82758,9.269372 v 21.43139 h -47.6253 z"
       sodipodi:nodetypes="csccc"
       inkscape:label="Inner-rectangle" />
    <path
       id="path197"
       style="display:inline;fill:#ff0000;fill-opacity:1;stroke-width:0.450003;stroke-linejoin:round;stroke-opacity:0.909449"
       d="m -234.06184,94.055153 h 21.43138 c 3.62786,0 6.9021,1.460311 9.26938,3.827585 L -247.1588,128.5835 v -21.43139 c 0,-7.255715 5.84125,-13.096957 13.09696,-13.096957 z"
       sodipodi:nodetypes="ssccss"
       inkscape:label="Inner-rectangle-2" />
    <path
       id="path89614"
       style="display:inline;fill:#000000;fill-opacity:1;stroke-width:1"
       d="m -223.20155,97.62356 c 2.21794,-0.52257 4.58607,-0.77493 6.75179,0.11135 1.8633,0.46389 3.49181,1.47152 4.46182,3.15886 1.42489,1.80926 2.39818,3.95615 2.7054,6.24332 0.56527,3.14862 0.67339,6.35908 1.10208,9.52736 0.2248,3.93916 -0.69687,7.8682 -0.48584,11.80019 -0.58014,1.87294 -2.63628,0.63475 -3.23786,-0.55664 -1.39791,-1.43455 -1.69749,1.71196 -3.07254,1.84831 -1.66268,0.74101 -1.59341,-2.74121 -3.09125,-1.79847 -0.7473,1.19817 -2.41037,2.83796 -3.88397,1.86674 -0.85268,-0.63527 -2.14874,-3.21666 -3.04906,-1.56754 -0.62166,1.53063 -2.70326,2.07537 -3.76937,0.66178 -0.86072,-0.91125 -2.14914,-3.18015 -3.44715,-1.53126 -0.88714,0.92419 -2.23258,2.52121 -3.59884,1.49573 -0.22234,-1.68095 -1.53684,-0.26155 -2.3973,-0.69098 -0.52888,-1.89635 -0.25741,-3.94319 -0.30904,-5.89544 0.43871,-4.54848 -0.54768,-9.35998 1.37504,-13.67914 1.39056,-3.50565 3.7133,-6.71947 6.97781,-8.68927 2.04244,-1.49388 4.58029,-1.73112 6.9681,-2.30646 m -2.44739,21.02609 c 2.04614,-0.62903 1.75207,-3.16011 1.50804,-4.82322 -0.0554,-1.92271 -1.93431,-3.29999 -3.79783,-2.85502 -2.39394,0.24035 -4.40637,2.77436 -3.66498,5.1654 0.50439,2.178 3.17786,3.07145 5.18592,2.67566 0.26005,-0.0344 0.51656,-0.0921 0.76876,-0.16355 m 12.28026,0.58962 c 1.88629,-0.26361 2.55211,-2.40892 2.37557,-4.05837 0.15637,-2.04367 -1.62677,-3.78356 -3.66616,-3.44995 -1.42464,0.11942 -3.20155,0.15957 -3.9201,1.64151 -1.06162,1.94635 -0.75909,5.01799 1.44418,6.03654 1.1985,0.4601 2.53751,-0.0543 3.76657,-0.16884"
       inkscape:label="Drawing" />
    <path
       id="rect19240"
       style="display:inline;fill:#000000;stroke-width:0.5;stroke-linejoin:round;stroke-opacity:0.909449"
       d="m -196.88781,128.58347 v 1.19059 c 0,8.06185 -6.49023,14.55208 -14.55208,14.55208 h -23.8125 c -8.06185,0 -14.55208,-6.49023 -14.55208,-14.55208 v -1.19059 z"
       sodipodi:nodetypes="csssscc"
       inkscape:label="Bottom-label" />
    <g
       aria-label="ACTIVE"
       transform="matrix(0.29007309,0,0,0.29007309,-188.06742,67.564415)"
       id="text1606"
       style="font-size:40px;line-height:1.25;white-space:pre;shape-inside:url(#rect1608);fill:#ff0000"
       inkscape:label="text1606">
      <path
         d="m -173.9,237.85321 -0.44,1.8 h 4.8 l -0.44,-1.8 q -0.48,-1.88 -0.96,-4.08 -0.48,-2.2 -0.96,-4.16 h -0.16 q -0.44,2 -0.92,4.2 -0.44,2.16 -0.92,4.04 z m -10,12.64 7.92,-26 h 8.32 l 7.92,26 h -7.28 l -1.28,-5.52 h -7.28 l -1.28,5.52 z"
         style="font-weight:900;font-family:'Source Sans Pro';-inkscape-font-specification:'Source Sans Pro Heavy'"
         id="path15807" />
      <path
         d="m -146.38002,250.97321 q -2.48,0 -4.76,-0.8 -2.24,-0.84 -3.96,-2.48 -1.68,-1.68 -2.68,-4.16 -1,-2.52 -1,-5.84 0,-3.28 1.04,-5.8 1.04,-2.56 2.76,-4.28 1.76,-1.76 4,-2.68 2.28,-0.92 4.76,-0.92 2.6,0 4.64,1.04 2.04,1 3.44,2.4 l -3.6,4.4 q -0.96,-0.84 -2,-1.36 -1,-0.56 -2.32,-0.56 -1.16,0 -2.2,0.52 -1,0.52 -1.8,1.48 -0.76,0.96 -1.24,2.36 -0.44,1.4 -0.44,3.16 0,3.68 1.52,5.64 1.56,1.96 4.08,1.96 1.52,0 2.68,-0.64 1.2,-0.68 2.04,-1.6 l 3.6,4.32 q -1.68,1.92 -3.88,2.88 -2.16,0.96 -4.68,0.96 z"
         style="font-weight:900;font-family:'Source Sans Pro';-inkscape-font-specification:'Source Sans Pro Heavy'"
         id="path15809" />
      <path
         d="m -129.66009,250.49321 v -20.24 h -6.88 v -5.76 h 20.64 v 5.76 h -6.88 v 20.24 z"
         style="font-weight:900;font-family:'Source Sans Pro';-inkscape-font-specification:'Source Sans Pro Heavy'"
         id="path15811" />
      <path
         d="m -112.06012,250.49321 v -26 h 6.88 v 26 z"
         style="font-weight:900;font-family:'Source Sans Pro';-inkscape-font-specification:'Source Sans Pro Heavy';fill:#ffffff;fill-opacity:1"
         id="path15813" />
      <path
         d="m -95.020125,250.49321 -7.680005,-26 h 7.280005 l 2.72,11.36 q 0.56,2.08 0.96,4.12 0.4,2 0.96,4.12 h 0.16 q 0.56,-2.12 0.96,-4.12 0.44,-2.04 0.96,-4.12 l 2.64,-11.36 h 7.04 l -7.68,26 z"
         style="font-weight:900;font-family:'Source Sans Pro';-inkscape-font-specification:'Source Sans Pro Heavy';fill:#ffffff;fill-opacity:1"
         id="path15815" />
      <path
         d="m -76.540181,250.49321 v -26 h 16.8 v 5.76 h -9.92 v 4.08 h 8.48 v 5.76 h -8.48 v 4.64 h 10.32 v 5.76 z"
         style="font-weight:900;font-family:'Source Sans Pro';-inkscape-font-specification:'Source Sans Pro Heavy';fill:#ffffff;fill-opacity:1"
         id="path15817" />
    </g>
  </g>
</svg>
