<?xml version="1.0" encoding="UTF-8" standalone="no"?>
<svg
   width="200"
   height="200"
   viewBox="0 0 52.916668 52.916666"
   version="1.1"
   id="svg8"
   inkscape:version="1.1 (c68e22c387, 2021-05-23)"
   sodipodi:docname="annoying.svg"
   xmlns:inkscape="http://www.inkscape.org/namespaces/inkscape"
   xmlns:sodipodi="http://sodipodi.sourceforge.net/DTD/sodipodi-0.dtd"
   xmlns="http://www.w3.org/2000/svg"
   xmlns:svg="http://www.w3.org/2000/svg"
   xmlns:rdf="http://www.w3.org/1999/02/22-rdf-syntax-ns#"
   xmlns:cc="http://creativecommons.org/ns#"
   xmlns:dc="http://purl.org/dc/elements/1.1/">
  <defs
     id="defs2">
    <rect
       x="-97"
       y="230"
       width="305"
       height="114"
       id="rect11945" />
    <rect
       x="-247"
       y="42"
       width="137"
       height="81.5"
       id="rect1185" />
    <rect
       x="-48.175333"
       y="18.9895"
       width="46.117357"
       height="15.996081"
       id="rect880" />
    <rect
       x="-255.23004"
       y="125.83378"
       width="102.52459"
       height="46.959256"
       id="rect873" />
    <inkscape:path-effect
       effect="envelope"
       id="path-effect4658"
       is_visible="true"
       yy="true"
       xx="true"
       bendpath1="m -199.08406,108.42369 h 7.0057"
       bendpath2="m -192.07836,108.42369 v 6.75242"
       bendpath3="m -199.08406,115.17611 h 7.0057"
       bendpath4="m -199.08406,108.42369 v 6.75242" />
    <inkscape:path-effect
       effect="bend_path"
       id="path-effect4656"
       is_visible="true"
       bendpath="m -192.00142,114.60623 c 2.12577,-0.53066 4.48261,0.85111 7.0057,0"
       prop_scale="1"
       scale_y_rel="false"
       vertical="false"
       bendpath-nodetypes="cc" />
    <inkscape:path-effect
       effect="bounding_box"
       id="path-effect4654"
       is_visible="true"
       linkedpath=""
       visualbounds="false" />
    <linearGradient
       id="linearGradient3288"
       inkscape:swatch="solid">
      <stop
         style="stop-color:#000000;stop-opacity:1;"
         offset="0"
         id="stop3286" />
    </linearGradient>
    <linearGradient
       id="linearGradient1364"
       inkscape:swatch="solid">
      <stop
         style="stop-color:#ffffff;stop-opacity:1;"
         offset="0"
         id="stop1362" />
    </linearGradient>
    <rect
       x="293.80286"
       y="272.58966"
       width="25.455845"
       height="37.830212"
       id="rect1056" />
    <rect
       x="222.73865"
       y="266.22571"
       width="47.376156"
       height="54.09367"
       id="rect1050" />
    <rect
       x="139.30003"
       y="246.42671"
       width="58.336308"
       height="48.790367"
       id="rect1044" />
    <rect
       x="131.1683"
       y="203.64674"
       width="61.871841"
       height="73.892654"
       id="rect1038" />
    <rect
       x="81.67083"
       y="193.04015"
       width="63.63961"
       height="55.507881"
       id="rect1032" />
    <rect
       x="83.085045"
       y="274.35742"
       width="44.194176"
       height="38.890873"
       id="rect1026" />
    <rect
       x="3.5355339"
       y="269.05414"
       width="65.760933"
       height="53.386562"
       id="rect1020" />
    <rect
       x="14.142136"
       y="226.27417"
       width="79.195961"
       height="62.932503"
       id="rect1014" />
    <rect
       x="11.313708"
       y="171.82695"
       width="36.416"
       height="51.618793"
       id="rect1008" />
    <rect
       x="3.1819806"
       y="132.22897"
       width="102.88404"
       height="102.53048"
       id="rect1002" />
  </defs>
  <sodipodi:namedview
     id="base"
     pagecolor="#ffffff"
     bordercolor="#666666"
     borderopacity="1.0"
     inkscape:pageopacity="0.0"
     inkscape:pageshadow="2"
     inkscape:zoom="2.8284271"
     inkscape:cx="30.052038"
     inkscape:cy="111.89965"
     inkscape:document-units="mm"
     inkscape:current-layer="layer1"
     showgrid="false"
     fit-margin-top="0"
     fit-margin-left="0"
     fit-margin-right="0"
     fit-margin-bottom="0"
     inkscape:window-width="1920"
     inkscape:window-height="1017"
     inkscape:window-x="-8"
     inkscape:window-y="-8"
     inkscape:window-maximized="1"
     showguides="false"
     inkscape:object-nodes="true"
     units="px"
     inkscape:snap-page="true"
     inkscape:document-rotation="0"
     inkscape:pagecheckerboard="1" />
  <metadata
     id="metadata5">
    <rdf:RDF>
      <cc:Work
         rdf:about="">
        <dc:format>image/svg+xml</dc:format>
        <dc:type
           rdf:resource="http://purl.org/dc/dcmitype/StillImage" />
      </cc:Work>
    </rdf:RDF>
  </metadata>
  <g
     inkscape:label="Base"
     inkscape:groupmode="layer"
     id="layer1"
     transform="translate(249.80447,-91.409467)">
    <rect
       y="91.40947"
       x="-249.80447"
       height="52.916668"
       width="52.916668"
       id="rect5238-5"
       style="display:inline;fill:#000000;fill-opacity:1;fill-rule:nonzero;stroke:none;stroke-width:0.5;stroke-linecap:butt;stroke-linejoin:round;stroke-miterlimit:4;stroke-dasharray:none;stroke-dashoffset:0;stroke-opacity:0.909449;paint-order:normal"
       rx="14.552089"
       ry="14.552081"
       inkscape:label="Bottom-rectangle" />
    <path
       id="rect18865"
       style="display:inline;fill:#1a193a;fill-opacity:1;stroke-width:0.450003;stroke-linejoin:round;stroke-opacity:0.909449"
       d="m -234.06184,94.055153 h 10.71569 c 25.18916,-1.835409 23.81265,14.244737 23.81265,34.528347 h -23.81265 -23.81265 v -21.43139 c 0,-7.255715 5.84125,-13.096957 13.09696,-13.096957 z"
       sodipodi:nodetypes="sccccss"
       inkscape:label="Inner-rectangle" />
    <path
       id="path277"
       style="display:inline;fill:#ffe64d;fill-opacity:1;stroke-width:0.450003;stroke-linejoin:round;stroke-opacity:0.909449"
       d="m -223.34615,94.055153 h 10.71569 c 7.25572,0 13.09696,5.841242 13.09696,13.096957 v 21.43139 h -23.81265 z"
       sodipodi:nodetypes="cssccc"
       inkscape:label="Inner-rectangle-2" />
    <path
       id="rect19240"
       style="display:inline;fill:#000000;stroke-width:0.5;stroke-linejoin:round;stroke-opacity:0.909449"
       d="m -196.88781,128.58347 v 1.19059 c 0,8.06185 -6.49023,14.55208 -14.55208,14.55208 h -23.8125 c -8.06185,0 -14.55208,-6.49023 -14.55208,-14.55208 v -1.19059 z"
       sodipodi:nodetypes="csssscc"
       inkscape:label="Bottom-label" />
    <path
       style="fill:#000000;stroke-width:0.305147"
       d="m -226.75182,129.23951 c 0.6101,-1.48311 -3.25036,-1.12528 -1.60851,-2.52141 2.24831,0.68972 1.50082,-3.30912 -0.23834,-2.03675 -1.5596,-0.59027 -3.30631,-0.62321 -4.74268,-1.22613 -1.08936,-0.80495 -3.05382,-0.85272 -4.0906,-2.01068 -1.12903,-0.4338 -2.06389,-1.22309 -3.10542,-1.89302 -1.45853,-1.10836 -2.25391,-2.9561 -2.6545,-4.70553 -0.0611,-1.7678 1.63457,-0.52914 1.38214,0.63773 0.65058,1.89959 2.27868,3.15554 3.69656,4.30542 1.13383,0.67792 2.35484,1.16462 3.29638,1.86336 1.67383,0.53221 3.39671,1.24222 5.13935,1.57212 1.44515,0.18694 2.96551,0.58897 4.52642,0.30814 0.81578,-0.29277 3.77092,-0.0597 2.09461,1.07881 -1.13725,0.28605 -3.47536,-0.34094 -2.44504,1.60515 0.53241,0.60785 3.24415,0.36224 1.83461,1.72404 -1.57946,-0.12099 -1.47562,1.22806 -2.06447,2.19554 -0.88194,0.42599 -1.08381,-0.13542 -1.02051,-0.89679 z m -5.6452,0.54777 c -3.43387,-0.64958 -7.51234,-1.14741 -9.61888,-4.31628 -1.39399,-1.95217 -1.7733,-4.36397 -1.72155,-6.71023 -0.0522,-0.8644 -0.16437,-3.57811 0.49947,-1.36333 0.69864,1.67019 2.13679,2.82534 3.50785,3.73446 1.12017,0.55711 2.11166,1.33538 3.37281,1.93531 1.86795,0.9406 3.83726,1.65805 5.92145,1.91428 0.84266,0.0932 4.27975,0.88324 1.70169,1.12388 -1.60617,0.69073 -0.38226,3.13029 1.2051,2.79566 0.48606,1.86788 -2.63932,0.78225 -3.78706,0.98357 -0.36103,-0.0225 -0.72306,-0.0404 -1.08088,-0.0973 z m 7.78124,-0.35789 c 0.54516,-0.98773 3.03239,-1.13625 1.87842,-3.01959 -0.42795,-0.57082 -3.37552,-0.47173 -1.3546,-0.98176 1.85533,0.0883 3.41441,-1.049 5.29602,-1.02155 1.51625,-0.0368 2.69922,-0.90692 3.51732,-1.92305 1.08311,0.34314 1.95977,-2.60332 1.63273,-0.39945 -0.60053,2.08119 -1.27867,4.21698 -2.48678,6.02743 -2.21238,1.65174 -5.14035,1.83031 -7.80982,1.86647 -0.34405,0.0337 -0.76053,-0.13061 -0.67329,-0.5485 z m 15.15,-1.20593 c -0.0104,-2.87876 0.72871,-5.71435 0.7177,-8.5967 -1.02515,0.56896 -2.00933,1.21683 -2.87811,1.99594 -2.40013,0.38116 -0.10741,-2.15317 0.8737,-2.57013 1.42752,-0.50325 1.93689,-1.55887 0.3832,-2.29636 -0.73027,-0.71855 -3.9375,-2.49303 -1.71194,-2.96764 1.57839,0.52582 2.74803,1.7775 3.94345,2.88024 -0.055,-2.57302 0.51869,-5.10377 0.54378,-7.66978 -0.32975,-0.79943 -1.31716,-2.2079 0.35177,-2.14693 2.2452,-0.26952 5.06501,0.0299 6.22289,2.27918 1.2993,2.04763 -0.12965,4.64621 -2.35388,5.18629 -1.23366,0.66488 -3.67142,-0.2189 -3.351,1.93895 -0.31923,0.94527 0.84234,0.0845 1.32191,0.0556 0.8949,-0.3407 4.29358,-1.38755 2.96865,0.50489 -1.11198,0.58625 -2.34901,0.87485 -3.52726,1.29951 1.4345,1.50426 3.15516,2.80036 4.19385,4.62665 -0.25441,1.9228 -2.33496,-0.71129 -3.07324,-1.35568 -0.8583,-0.89781 -2.46897,-2.72912 -2.3775,-0.36189 -0.37846,2.28946 -0.39985,4.64134 -0.97175,6.89573 -0.202,0.4379 -0.94424,0.78526 -1.27622,0.30213 z m 5.99656,-15.52566 c 2.09537,-0.55371 1.66602,-3.45601 -0.19937,-3.99758 -1.9428,-1.17074 -2.98895,0.79614 -2.59242,2.52956 -0.027,0.65611 -0.054,1.3122 -0.081,1.96832 0.98469,0.0374 1.98027,-0.032 2.8728,-0.5003 z m -18.70539,10.9423 c 1.02952,-1.32521 3.39029,-1.0007 4.69964,-2.22175 0.99684,0.17088 2.37532,-1.85305 2.72228,-0.10103 -1.09229,0.2399 -1.23652,1.57193 -2.40727,1.2601 -0.12044,1.83736 -2.5816,0.39968 -3.64845,1.46653 -0.42849,0.0184 -1.4475,0.38828 -1.3662,-0.40385 z m -5.64522,-0.87521 c -1.74066,-0.42689 -3.58046,-0.63537 -5.21739,-1.37621 -1.10872,-0.48005 -2.13527,-0.75552 -3.10322,-1.52711 -1.61948,-0.74347 -2.92182,-1.78719 -4.01055,-3.21183 -1.17634,-1.1614 -0.89026,-3.53976 -2.90727,-3.61604 -0.0313,-1.65402 0.99992,-3.15922 1.70104,-4.61602 1.2002,-2.45566 3.29234,-4.38841 5.82014,-5.42004 3.92004,-1.964 8.55816,-1.56536 12.61488,-0.25814 2.84764,0.98414 5.30458,3.04415 6.95531,5.54256 1.19713,2.46752 2.25262,5.13483 2.33134,7.90596 -0.14335,1.36437 -2.40209,1.64773 -2.16709,3.47197 -1.03288,0.91203 -2.59633,0.97684 -3.67909,1.96185 -2.57943,0.94121 -5.39671,1.33771 -8.13679,1.17818 z m -2.09814,-4.00255 c 1.91859,-1.75225 2.31195,-5.28245 0.39532,-7.17896 -1.45954,-1.11143 -3.94861,-1.26015 -5.1593,0.31865 -1.85798,1.71997 -2.00172,5.36834 0.41622,6.65673 1.36313,0.43076 2.96763,0.65644 4.34776,0.20358 z m 11.62321,-0.974 c 1.95389,-0.6003 1.76094,-2.9656 1.39264,-4.54603 -0.51236,-2.83019 -4.67652,-4.23029 -6.51629,-1.81102 -1.56456,1.84059 -1.59463,5.20383 0.75564,6.42103 1.34811,0.73992 3.01429,0.56338 4.36801,-0.064 z m 3.48162,2.32127 c -0.90385,-1.19183 1.93596,-3.65408 1.57241,-1.25021 -0.20658,0.57923 -0.7914,2.383 -1.57241,1.25021 z"
       id="path60"
       inkscape:label="drawing" />
    <g
       aria-label="ANNOYING"
       transform="matrix(0.26458333,0,0,0.26458333,-215.97447,71.042309)"
       id="text11943"
       style="font-size:29.3333px;line-height:1.25;white-space:pre;shape-inside:url(#rect11945);fill:#ffe64d">
      <path
         d="m -89.960008,247.49234 -0.322666,1.31999 h 3.519996 l -0.322667,-1.31999 q -0.351999,-1.37867 -0.703999,-2.992 -0.352,-1.61333 -0.703999,-3.05066 h -0.117333 q -0.322667,1.46666 -0.674666,3.07999 -0.322666,1.584 -0.674666,2.96267 z m -7.333325,9.26932 5.807993,-19.06665 h 6.101327 l 5.807993,19.06665 h -5.338661 l -0.938665,-4.048 h -5.338661 l -0.938665,4.048 z"
         style="font-weight:900;font-family:'Source Sans Pro';-inkscape-font-specification:'Source Sans Pro Heavy';fill:#1a193a;fill-opacity:1"
         id="path23886" />
      <path
         d="m -77.757366,256.76166 v -19.06665 h 5.162661 l 4.223995,8.50666 1.818664,4.28266 h 0.117333 q -0.088,-0.76266 -0.205333,-1.672 -0.117333,-0.90933 -0.205333,-1.84799 -0.088,-0.968 -0.176,-1.90667 -0.05867,-0.968 -0.05867,-1.848 v -5.51466 h 4.810661 v 19.06665 h -5.162661 l -4.223995,-8.53599 -1.818664,-4.25333 h -0.117334 q 0.176,1.64266 0.410667,3.57866 0.234666,1.936 0.234666,3.696 v 5.51466 z"
         style="font-weight:900;font-family:'Source Sans Pro';-inkscape-font-specification:'Source Sans Pro Heavy';fill:#1a193a;fill-opacity:1"
         id="path23888" />
      <path
         d="m -58.04542,256.76166 v -19.06665 h 5.162661 l 4.223995,8.50666 1.818665,4.28266 h 0.117333 q -0.088,-0.76266 -0.205333,-1.672 -0.117333,-0.90933 -0.205333,-1.84799 -0.088,-0.968 -0.176,-1.90667 -0.05867,-0.968 -0.05867,-1.848 v -5.51466 h 4.810661 v 19.06665 h -5.16266 l -4.223995,-8.53599 -1.818665,-4.25333 h -0.117333 q 0.176,1.64266 0.410666,3.57866 0.234666,1.936 0.234666,3.696 v 5.51466 z"
         style="font-weight:900;font-family:'Source Sans Pro';-inkscape-font-specification:'Source Sans Pro Heavy';fill:#1a193a;fill-opacity:1"
         id="path23890" />
      <path
         d="m -30.296151,257.11366 q -1.994664,0 -3.637329,-0.67467 -1.613332,-0.67466 -2.786664,-1.936 -1.143998,-1.29066 -1.789331,-3.13866 -0.645333,-1.87733 -0.645333,-4.22399 0,-2.34667 0.645333,-4.16533 0.645333,-1.848 1.789331,-3.08 1.173332,-1.26133 2.786664,-1.90666 1.642665,-0.64534 3.637329,-0.64534 1.965331,0 3.607996,0.64534 1.642665,0.64533 2.786663,1.90666 1.173332,1.26133 1.818665,3.08 0.645332,1.81866 0.645332,4.16533 0,2.34666 -0.645332,4.22399 -0.645333,1.848 -1.818665,3.13866 -1.143998,1.26134 -2.786663,1.936 -1.642665,0.67467 -3.607996,0.67467 z m 0,-4.34133 q 1.730665,0 2.698664,-1.496 0.997332,-1.52533 0.997332,-4.13599 0,-2.61067 -0.997332,-4.01867 -0.967999,-1.43733 -2.698664,-1.43733 -1.730665,0 -2.727997,1.43733 -0.967999,1.408 -0.967999,4.01867 0,2.61066 0.967999,4.13599 0.997332,1.496 2.727997,1.496 z"
         style="font-weight:900;font-family:'Source Sans Pro';-inkscape-font-specification:'Source Sans Pro Heavy';fill:#1a193a;fill-opacity:1"
         id="path23892" />
      <path
         d="M -15.277527,256.76166 V 250.191 l -5.749327,-12.49599 h 5.397328 l 1.407998,3.98933 q 0.352,1.08533 0.703999,2.112 0.352,1.02667 0.733333,2.14133 h 0.117333 q 0.381333,-1.11466 0.733332,-2.14133 0.381333,-1.02667 0.762666,-2.112 l 1.4079986,-3.98933 h 5.2799939 L -10.232199,250.191 v 6.57066 z"
         style="font-weight:900;font-family:'Source Sans Pro';-inkscape-font-specification:'Source Sans Pro Heavy'"
         id="path23894" />
      <path
         d="M -2.6642475,256.76166 V 237.69501 H 2.38108 v 19.06665 z"
         style="font-weight:900;font-family:'Source Sans Pro';-inkscape-font-specification:'Source Sans Pro Heavy'"
         id="path23896" />
      <path
         d="m 6.6050701,256.76166 v -19.06665 h 5.1626609 l 4.223995,8.50666 1.818665,4.28266 h 0.117333 q -0.088,-0.76266 -0.205333,-1.672 -0.117334,-0.90933 -0.205333,-1.84799 -0.088,-0.968 -0.176,-1.90667 -0.05867,-0.968 -0.05867,-1.848 v -5.51466 h 4.810661 v 19.06665 h -5.16266 l -4.223996,-8.53599 -1.818664,-4.25333 h -0.117333 q 0.175999,1.64266 0.410666,3.57866 0.234666,1.936 0.234666,3.696 v 5.51466 z"
         style="font-weight:900;font-family:'Source Sans Pro';-inkscape-font-specification:'Source Sans Pro Heavy'"
         id="path23898" />
      <path
         d="m 35.117012,257.11366 q -1.994664,0 -3.754662,-0.58667 -1.759998,-0.616 -3.079997,-1.81866 -1.290665,-1.232 -2.053331,-3.05067 -0.733332,-1.84799 -0.733332,-4.28266 0,-2.40533 0.762666,-4.25333 0.762665,-1.87733 2.053331,-3.13866 1.319998,-1.29066 3.050663,-1.96533 1.730665,-0.67467 3.637329,-0.67467 2.111998,0 3.637329,0.76267 1.554665,0.73333 2.581331,1.76 l -2.639997,3.22666 q -0.704,-0.616 -1.495999,-0.99733 -0.762666,-0.41067 -1.906664,-0.41067 -0.967999,0 -1.789331,0.38134 -0.821333,0.38133 -1.437332,1.08533 -0.615999,0.704 -0.967999,1.73066 -0.322666,1.02667 -0.322666,2.31733 0,2.69867 1.202665,4.136 1.202665,1.43733 3.783996,1.43733 0.410666,0 0.791999,-0.088 0.410666,-0.088 0.674666,-0.264 v -2.64 H 34.29568 v -4.10666 h 7.274658 v 9.09332 q -1.026665,0.968 -2.727997,1.672 -1.701331,0.67467 -3.725329,0.67467 z"
         style="font-weight:900;font-family:'Source Sans Pro';-inkscape-font-specification:'Source Sans Pro Heavy'"
         id="path23900" />
    </g>
  </g>
</svg>
