<svg width="200" height="200" viewBox="0 0 52.917 52.917" xmlns="http://www.w3.org/2000/svg"><defs><path id="a" d="M-97 230h305v114H-97z"/></defs><g transform="translate(249.804 -91.41)"><rect y="91.409" x="-249.804" height="52.917" width="52.917" style="display:inline;fill:#000;fill-opacity:1;fill-rule:nonzero;stroke:none;stroke-width:.5;stroke-linecap:butt;stroke-linejoin:round;stroke-miterlimit:4;stroke-dasharray:none;stroke-dashoffset:0;stroke-opacity:.909449;paint-order:normal" rx="14.552" ry="14.552"/><path style="display:inline;fill:#1a193a;fill-opacity:1;stroke-width:.450003;stroke-linejoin:round;stroke-opacity:.909449" d="M-234.062 94.055h10.716c25.189-1.835 23.813 14.245 23.813 34.528h-47.626v-21.43a13.068 13.068 0 0 1 13.097-13.098z"/><path style="display:inline;fill:#ffe64d;fill-opacity:1;stroke-width:.450003;stroke-linejoin:round;stroke-opacity:.909449" d="M-223.346 94.055h10.716a13.068 13.068 0 0 1 13.096 13.097v21.432h-23.812z"/><path style="display:inline;fill:#000;stroke-width:.5;stroke-linejoin:round;stroke-opacity:.909449" d="M-196.888 128.583v1.191a14.52 14.52 0 0 1-14.552 14.552h-23.812a14.52 14.52 0 0 1-14.552-14.552v-1.19z"/><path style="fill:#000;stroke-width:.305147" d="M-226.752 129.24c.61-1.484-3.25-1.126-1.608-2.522 2.248.69 1.5-3.309-.239-2.037-1.56-.59-3.306-.623-4.742-1.226-1.09-.805-3.054-.853-4.09-2.01-1.13-.434-2.065-1.224-3.106-1.893-1.459-1.109-2.254-2.957-2.655-4.706-.061-1.768 1.635-.53 1.382.638.65 1.9 2.279 3.155 3.697 4.305 1.134.678 2.355 1.165 3.296 1.864 1.674.532 3.397 1.242 5.14 1.572 1.445.187 2.965.589 4.526.308.816-.293 3.77-.06 2.095 1.079-1.138.286-3.476-.341-2.445 1.605.532.608 3.244.362 1.834 1.724-1.58-.121-1.475 1.228-2.064 2.195-.882.426-1.084-.135-1.02-.896zm-5.645.547c-3.434-.65-7.512-1.147-9.619-4.316-1.394-1.952-1.773-4.364-1.721-6.71-.053-.865-.165-3.578.499-1.364.699 1.67 2.137 2.826 3.508 3.735 1.12.557 2.112 1.335 3.373 1.935 1.868.94 3.837 1.658 5.921 1.914.843.094 4.28.884 1.702 1.124-1.606.691-.382 3.13 1.205 2.796.486 1.868-2.64.782-3.787.984-.361-.023-.723-.04-1.081-.098zm7.781-.358c.545-.987 3.033-1.136 1.879-3.02-.428-.57-3.376-.47-1.355-.981 1.855.088 3.414-1.049 5.296-1.022 1.516-.036 2.7-.906 3.517-1.923 1.083.344 1.96-2.603 1.633-.399-.6 2.081-1.279 4.217-2.487 6.027-2.212 1.652-5.14 1.83-7.81 1.867-.344.034-.76-.13-.673-.549zm15.15-1.206c-.01-2.878.729-5.714.718-8.596-1.025.569-2.01 1.217-2.878 1.996-2.4.38-.108-2.153.874-2.57 1.427-.504 1.936-1.56.383-2.297-.73-.718-3.938-2.493-1.712-2.967 1.578.525 2.748 1.777 3.943 2.88-.055-2.573.519-5.104.544-7.67-.33-.8-1.317-2.208.352-2.147 2.245-.27 5.065.03 6.223 2.28 1.299 2.047-.13 4.645-2.354 5.186-1.234.664-3.672-.22-3.351 1.939-.32.945.842.084 1.322.055.895-.34 4.293-1.387 2.968.505-1.112.586-2.349.875-3.527 1.3 1.435 1.504 3.155 2.8 4.194 4.626-.254 1.923-2.335-.711-3.073-1.356-.859-.897-2.47-2.729-2.378-.361-.378 2.29-.4 4.64-.972 6.895-.202.438-.944.786-1.276.302zm5.997-15.525c2.095-.554 1.666-3.456-.2-3.998-1.942-1.17-2.989.796-2.592 2.53l-.081 1.968c.985.038 1.98-.032 2.873-.5zm-18.706 10.942c1.03-1.325 3.39-1 4.7-2.222.997.171 2.375-1.853 2.722-.1-1.092.24-1.236 1.571-2.407 1.26-.12 1.837-2.582.4-3.648 1.466-.429.018-1.448.388-1.367-.404zm-5.645-.875c-1.74-.427-3.58-.635-5.217-1.376-1.109-.48-2.135-.756-3.103-1.527a10.354 10.354 0 0 1-4.011-3.212c-1.176-1.162-.89-3.54-2.907-3.616-.032-1.654 1-3.16 1.7-4.616a11.194 11.194 0 0 1 5.82-5.42c3.921-1.964 8.56-1.566 12.616-.258 2.847.984 5.304 3.044 6.955 5.542 1.197 2.468 2.253 5.135 2.331 7.906-.143 1.364-2.402 1.648-2.167 3.472-1.033.912-2.596.977-3.679 1.962a20.464 20.464 0 0 1-8.137 1.178zm-2.098-4.003c1.919-1.752 2.312-5.282.395-7.179-1.46-1.111-3.948-1.26-5.159.319-1.858 1.72-2.002 5.368.416 6.657 1.363.43 2.968.656 4.348.203zm11.623-.974c1.954-.6 1.761-2.965 1.393-4.546-.512-2.83-4.677-4.23-6.516-1.81-1.565 1.84-1.595 5.203.755 6.42 1.348.74 3.015.564 4.368-.064zm3.482 2.322c-.904-1.192 1.936-3.654 1.572-1.25-.206.579-.791 2.382-1.572 1.25z"/><g aria-label="ANNOYING" transform="matrix(.26458 0 0 .26458 -215.974 71.042)" style="font-size:29.3333px;line-height:1.25;white-space:pre;shape-inside:url(#a);fill:#ffe64d"><path d="m-89.96 247.492-.323 1.32h3.52l-.322-1.32q-.352-1.378-.704-2.992-.352-1.613-.704-3.05h-.118q-.322 1.466-.674 3.08-.323 1.584-.675 2.962zm-7.333 9.27 5.808-19.067h6.101l5.808 19.067h-5.339l-.938-4.048h-5.339l-.939 4.048zM-77.757 256.762v-19.067h5.162l4.224 8.507 1.819 4.282h.117q-.088-.762-.205-1.672-.117-.909-.205-1.848-.088-.968-.176-1.906-.059-.968-.059-1.848v-5.515h4.81v19.067h-5.162l-4.224-8.536-1.819-4.254h-.117q.176 1.643.41 3.579.235 1.936.235 3.696v5.515zM-58.045 256.762v-19.067h5.162l4.224 8.507 1.819 4.282h.117q-.088-.762-.205-1.672-.117-.909-.205-1.848-.088-.968-.176-1.906-.06-.968-.06-1.848v-5.515h4.812v19.067h-5.163l-4.224-8.536-1.819-4.254h-.117q.176 1.643.41 3.579.235 1.936.235 3.696v5.515zM-30.296 257.114q-1.995 0-3.637-.675-1.614-.675-2.787-1.936-1.144-1.29-1.79-3.139-.645-1.877-.645-4.224 0-2.346.646-4.165.645-1.848 1.789-3.08 1.173-1.261 2.787-1.907 1.642-.645 3.637-.645 1.965 0 3.608.645 1.643.646 2.787 1.907 1.173 1.261 1.818 3.08.646 1.819.646 4.165 0 2.347-.646 4.224-.645 1.848-1.818 3.139-1.144 1.261-2.787 1.936t-3.608.675zm0-4.342q1.73 0 2.699-1.496.997-1.525.997-4.136 0-2.61-.997-4.018-.968-1.438-2.7-1.438-1.73 0-2.727 1.438-.968 1.408-.968 4.018 0 2.611.968 4.136.997 1.496 2.728 1.496z" style="font-weight:900;font-family:'Source Sans Pro';-inkscape-font-specification:'Source Sans Pro Heavy';fill:#1a193a;fill-opacity:1"/><path d="M-15.278 256.762v-6.571l-5.749-12.496h5.397l1.408 3.99q.352 1.085.704 2.111l.734 2.142h.117l.733-2.142q.382-1.026.763-2.112l1.408-3.989h5.28l-5.75 12.496v6.57zM-2.664 256.762v-19.067H2.38v19.067zM6.605 256.762v-19.067h5.163l4.224 8.507 1.818 4.282h.118q-.088-.762-.206-1.672-.117-.909-.205-1.848-.088-.968-.176-1.906-.059-.968-.059-1.848v-5.515h4.811v19.067H16.93l-4.224-8.536-1.818-4.254h-.118q.176 1.643.411 3.579.235 1.936.235 3.696v5.515zM35.117 257.114q-1.995 0-3.755-.587-1.76-.616-3.08-1.819-1.29-1.232-2.053-3.05-.733-1.848-.733-4.283 0-2.405.762-4.253.763-1.878 2.054-3.139 1.32-1.29 3.05-1.965 1.731-.675 3.638-.675 2.112 0 3.637.763 1.555.733 2.581 1.76l-2.64 3.226q-.704-.616-1.496-.997-.762-.41-1.906-.41-.968 0-1.79.38-.821.382-1.437 1.086-.616.704-.968 1.73-.323 1.027-.323 2.318 0 2.699 1.203 4.136 1.203 1.437 3.784 1.437.41 0 .792-.088.41-.088.675-.264v-2.64h-2.816v-4.106h7.274v9.093q-1.026.968-2.728 1.672-1.701.675-3.725.675z" style="font-weight:900;font-family:'Source Sans Pro';-inkscape-font-specification:'Source Sans Pro Heavy'"/></g></g></svg>