<svg width="200" height="200" viewBox="0 0 52.917 52.917" xmlns="http://www.w3.org/2000/svg"><defs><path id="a" d="M-159.5 296h433v128.5h-433z"/></defs><g transform="translate(249.804 -91.41)"><rect y="91.409" x="-249.804" height="52.917" width="52.917" style="display:inline;fill:#000;fill-opacity:1;fill-rule:nonzero;stroke:none;stroke-width:.5;stroke-linecap:butt;stroke-linejoin:round;stroke-miterlimit:4;stroke-dasharray:none;stroke-dashoffset:0;stroke-opacity:.909449;paint-order:normal" rx="14.552" ry="14.552"/><path style="display:inline;fill:#fec62b;fill-opacity:1;stroke-width:.450003;stroke-linejoin:round;stroke-opacity:.909449" d="M-234.061 94.055h21.43a13.068 13.068 0 0 1 13.097 13.097v21.431h-34.527z"/><path style="display:inline;fill:#fc8922;fill-opacity:1;stroke-width:.450003;stroke-linejoin:round;stroke-opacity:.909449" d="M-234.062 94.055v34.528h-13.097v-21.43a13.068 13.068 0 0 1 13.097-13.098z"/><path style="fill:#000;stroke-width:.308781" d="M-227.559 132.236c-3.7-.61-7.469-1.917-10.264-4.498-1.286-1.368-1.212-3.41-1.56-5.154-.456-3.445-.353-6.995.729-10.319 3.072.417 6.103 1.202 9.225 1.237 5.578.175 11.212.593 16.744-.383 1.54-.017 4.021-1.462 4.49.867.935 2.99.896 6.194.817 9.3-.222 1.527-.029 3.73-1.436 4.654-1.626-.198-.622 1.31-.556 1.927-1.71 1.253-3.941 1.49-5.961 1.959-4.037.535-8.166.736-12.228.41zm17.998-4.942c-.596-2.207-2.46 1.35-.225.382l.146-.18zm-1.564-.922c1.038-1.636-2.08-1.291-.85.206.272.289.648 0 .85-.206zm-1.351-1.748c2.302-2.244 1.752-6.791-1.356-8.058-2.231-1.145-5.653-.564-6.518 2.053-1.223 3.368 2 7.441 5.593 6.725.782-.118 1.62-.26 2.281-.72zm-17.154-1.8c1.057-.253 4.071-1.945 1.904-2.743-1.241.707-2.554 1.533-4.068 1.325-1.77.057-2.969-1.258-3.91-2.54-1.659.675.104 3.227 1.506 3.497 1.428.61 3.048.758 4.568.462zm-.553-10.313c-3.003-.386-6.062-.782-8.905-1.86-1.475-.647-3.55-2.21-2.577-4.037 1.172-.918 2.8-.694 4.205-.953.422-.447.358-1.404.725-1.982 1.243-2.311 3.428-4.557 6.229-4.57a9.544 9.544 0 0 1 4.768.881c2.208.322 4.406-.475 6.615-.566 2.96-.428 6.273.513 8.006 3.09 1.332 1.126.688 3.94 3.003 3.55 1.91-.31 4.015 1.025 3.128 3.144-1.214 1.179-2.974 1.666-4.536 2.256-2.188.526-4.447.756-6.675 1.071-4.648.335-9.34.342-13.986-.024z"/><path style="display:inline;fill:#000;stroke-width:.5;stroke-linejoin:round;stroke-opacity:.909449" d="M-196.888 128.583v1.191a14.52 14.52 0 0 1-14.552 14.552h-23.812a14.52 14.52 0 0 1-14.552-14.552v-1.19z"/><g aria-label="ANTI-HORNY" transform="matrix(.26458 0 0 .26458 -201.24 53.994)" style="font-size:26.6667px;line-height:1.25;white-space:pre;shape-inside:url(#a);fill:#fec62b"><path d="m-153.1 311.902-.293 1.2h3.2l-.294-1.2q-.32-1.253-.64-2.72-.32-1.467-.64-2.773h-.106q-.294 1.333-.614 2.8-.293 1.44-.613 2.693zm-6.667 8.427 5.28-17.334h5.547l5.28 17.334h-4.853l-.854-3.68h-4.853l-.853 3.68zM-142.007 320.329v-17.334h4.694l3.84 7.734 1.653 3.893h.107q-.08-.693-.187-1.52-.107-.826-.187-1.68-.08-.88-.16-1.733-.053-.88-.053-1.68v-5.014h4.373v17.334h-4.693l-3.84-7.76-1.653-3.867h-.107q.16 1.493.373 3.253.214 1.76.214 3.36v5.014z" style="font-weight:900;font-family:'Source Sans Pro';-inkscape-font-specification:'Source Sans Pro Heavy';fill:#fc8922;fill-opacity:1"/><path d="M-120.78 320.329v-13.494h-4.587v-3.84h13.76v3.84h-4.586v13.494zM-109.047 320.329v-17.334h4.587v17.334zM-101.367 315.156v-3.2h6.72v3.2zM-91.553 320.329v-17.334h4.586v6.454h5.174v-6.454h4.586v17.334h-4.586v-6.88h-5.174v6.88zM-66.06 320.649q-1.813 0-3.307-.613-1.466-.614-2.533-1.76-1.04-1.174-1.627-2.854-.586-1.707-.586-3.84t.586-3.787q.587-1.68 1.627-2.8 1.067-1.146 2.533-1.733 1.494-.587 3.307-.587 1.787 0 3.28.587 1.493.587 2.533 1.733 1.067 1.147 1.654 2.8.586 1.654.586 3.787t-.586 3.84q-.587 1.68-1.654 2.853-1.04 1.147-2.533 1.76-1.493.614-3.28.614zm0-3.947q1.573 0 2.453-1.36.907-1.386.907-3.76 0-2.373-.907-3.653-.88-1.307-2.453-1.307t-2.48 1.307q-.88 1.28-.88 3.653t.88 3.76q.907 1.36 2.48 1.36zM-54.913 320.329v-17.334h6.56q1.386 0 2.64.267 1.28.267 2.213.907.96.64 1.52 1.733.56 1.067.56 2.693 0 1.867-.773 3.094-.747 1.227-2.027 1.92l3.76 6.72h-5.12l-2.987-5.813h-1.76v5.813zm4.586-9.44h1.654q2.773 0 2.773-2.294 0-1.12-.72-1.546-.693-.427-2.053-.427h-1.654zM-38.113 320.329v-17.334h4.693l3.84 7.734 1.653 3.893h.107q-.08-.693-.187-1.52-.106-.826-.186-1.68-.08-.88-.16-1.733-.054-.88-.054-1.68v-5.014h4.374v17.334h-4.694l-3.84-7.76-1.653-3.867h-.107q.16 1.493.374 3.253.213 1.76.213 3.36v5.014zM-17.153 320.329v-5.973l-5.227-11.36h4.907l1.28 3.626q.32.987.64 1.92l.666 1.947h.107l.667-1.947q.346-.933.693-1.92l1.28-3.627h4.8l-5.227 11.36v5.974z" style="font-weight:900;font-family:'Source Sans Pro';-inkscape-font-specification:'Source Sans Pro Heavy'"/></g></g></svg>