<?xml version="1.0" encoding="UTF-8" standalone="no"?>
<svg
   width="200"
   height="200"
   viewBox="0 0 52.916668 52.916666"
   version="1.1"
   id="svg8"
   inkscape:version="1.1 (c68e22c387, 2021-05-23)"
   sodipodi:docname="antihorny.svg"
   xmlns:inkscape="http://www.inkscape.org/namespaces/inkscape"
   xmlns:sodipodi="http://sodipodi.sourceforge.net/DTD/sodipodi-0.dtd"
   xmlns="http://www.w3.org/2000/svg"
   xmlns:svg="http://www.w3.org/2000/svg"
   xmlns:rdf="http://www.w3.org/1999/02/22-rdf-syntax-ns#"
   xmlns:cc="http://creativecommons.org/ns#"
   xmlns:dc="http://purl.org/dc/elements/1.1/">
  <defs
     id="defs2">
    <rect
       x="-159.5"
       y="296"
       width="433"
       height="128.5"
       id="rect14466" />
    <rect
       x="-247"
       y="42"
       width="137"
       height="81.5"
       id="rect1185" />
    <rect
       x="-48.175333"
       y="18.9895"
       width="46.117357"
       height="15.996081"
       id="rect880" />
    <rect
       x="-255.23004"
       y="125.83378"
       width="102.52459"
       height="46.959256"
       id="rect873" />
    <inkscape:path-effect
       effect="envelope"
       id="path-effect4658"
       is_visible="true"
       yy="true"
       xx="true"
       bendpath1="m -199.08406,108.42369 h 7.0057"
       bendpath2="m -192.07836,108.42369 v 6.75242"
       bendpath3="m -199.08406,115.17611 h 7.0057"
       bendpath4="m -199.08406,108.42369 v 6.75242" />
    <inkscape:path-effect
       effect="bend_path"
       id="path-effect4656"
       is_visible="true"
       bendpath="m -192.00142,114.60623 c 2.12577,-0.53066 4.48261,0.85111 7.0057,0"
       prop_scale="1"
       scale_y_rel="false"
       vertical="false"
       bendpath-nodetypes="cc" />
    <inkscape:path-effect
       effect="bounding_box"
       id="path-effect4654"
       is_visible="true"
       linkedpath=""
       visualbounds="false" />
    <linearGradient
       id="linearGradient3288"
       inkscape:swatch="solid">
      <stop
         style="stop-color:#000000;stop-opacity:1;"
         offset="0"
         id="stop3286" />
    </linearGradient>
    <linearGradient
       id="linearGradient1364"
       inkscape:swatch="solid">
      <stop
         style="stop-color:#ffffff;stop-opacity:1;"
         offset="0"
         id="stop1362" />
    </linearGradient>
    <rect
       x="293.80286"
       y="272.58966"
       width="25.455845"
       height="37.830212"
       id="rect1056" />
    <rect
       x="222.73865"
       y="266.22571"
       width="47.376156"
       height="54.09367"
       id="rect1050" />
    <rect
       x="139.30003"
       y="246.42671"
       width="58.336308"
       height="48.790367"
       id="rect1044" />
    <rect
       x="131.1683"
       y="203.64674"
       width="61.871841"
       height="73.892654"
       id="rect1038" />
    <rect
       x="81.67083"
       y="193.04015"
       width="63.63961"
       height="55.507881"
       id="rect1032" />
    <rect
       x="83.085045"
       y="274.35742"
       width="44.194176"
       height="38.890873"
       id="rect1026" />
    <rect
       x="3.5355339"
       y="269.05414"
       width="65.760933"
       height="53.386562"
       id="rect1020" />
    <rect
       x="14.142136"
       y="226.27417"
       width="79.195961"
       height="62.932503"
       id="rect1014" />
    <rect
       x="11.313708"
       y="171.82695"
       width="36.416"
       height="51.618793"
       id="rect1008" />
    <rect
       x="3.1819806"
       y="132.22897"
       width="102.88404"
       height="102.53048"
       id="rect1002" />
  </defs>
  <sodipodi:namedview
     id="base"
     pagecolor="#ffffff"
     bordercolor="#666666"
     borderopacity="1.0"
     inkscape:pageopacity="0.0"
     inkscape:pageshadow="2"
     inkscape:zoom="2"
     inkscape:cx="58"
     inkscape:cy="181.75"
     inkscape:document-units="mm"
     inkscape:current-layer="layer1"
     showgrid="false"
     fit-margin-top="0"
     fit-margin-left="0"
     fit-margin-right="0"
     fit-margin-bottom="0"
     inkscape:window-width="1920"
     inkscape:window-height="1017"
     inkscape:window-x="-8"
     inkscape:window-y="-8"
     inkscape:window-maximized="1"
     showguides="false"
     inkscape:object-nodes="true"
     units="px"
     inkscape:snap-page="true"
     inkscape:document-rotation="0"
     inkscape:pagecheckerboard="1" />
  <metadata
     id="metadata5">
    <rdf:RDF>
      <cc:Work
         rdf:about="">
        <dc:format>image/svg+xml</dc:format>
        <dc:type
           rdf:resource="http://purl.org/dc/dcmitype/StillImage" />
      </cc:Work>
    </rdf:RDF>
  </metadata>
  <g
     inkscape:label="Base"
     inkscape:groupmode="layer"
     id="layer1"
     transform="translate(249.80447,-91.409467)">
    <rect
       y="91.40947"
       x="-249.80447"
       height="52.916668"
       width="52.916668"
       id="rect5238-5"
       style="display:inline;fill:#000000;fill-opacity:1;fill-rule:nonzero;stroke:none;stroke-width:0.5;stroke-linecap:butt;stroke-linejoin:round;stroke-miterlimit:4;stroke-dasharray:none;stroke-dashoffset:0;stroke-opacity:0.909449;paint-order:normal"
       rx="14.552089"
       ry="14.552081"
       inkscape:label="Bottom-rectangle" />
    <path
       id="rect18865"
       style="display:inline;fill:#fec62b;fill-opacity:1;stroke-width:0.450003;stroke-linejoin:round;stroke-opacity:0.909449"
       d="m -234.06147,94.055467 21.43101,-3.14e-4 c 7.25572,-1.06e-4 13.09696,5.841242 13.09696,13.096957 v 21.43139 l -34.52797,-3e-5 z"
       sodipodi:nodetypes="cssccc"
       inkscape:label="Inner-rectangle" />
    <path
       id="path273"
       style="display:inline;fill:#fc8922;fill-opacity:1;stroke-width:0.450003;stroke-linejoin:round;stroke-opacity:0.909449"
       d="m -234.06184,94.055153 3.7e-4,34.528347 h -13.09733 v -21.43139 c 0,-7.255715 5.84125,-13.096957 13.09696,-13.096957 z"
       sodipodi:nodetypes="cccsc"
       inkscape:label="Inner-rectangle" />
    <path
       style="fill:#000000;stroke-width:0.308781"
       d="m -227.55863,132.23555 c -3.70111,-0.61006 -7.46893,-1.91623 -10.26428,-4.49747 -1.28648,-1.36806 -1.21258,-3.41011 -1.55967,-5.15358 -0.45608,-3.44554 -0.35353,-6.99503 0.72821,-10.31954 3.07211,0.41723 6.10364,1.20187 9.22488,1.23712 5.57863,0.17448 11.21239,0.59296 16.7442,-0.3829 1.54004,-0.0173 4.02155,-1.46181 4.49042,0.86682 0.93532,2.99024 0.89546,6.19398 0.81689,9.29926 -0.22251,1.52728 -0.029,3.73013 -1.43598,4.65508 -1.62606,-0.19847 -0.6223,1.30919 -0.55556,1.92647 -1.71031,1.2532 -3.94175,1.49068 -5.96194,1.95874 -4.037,0.53499 -8.16528,0.73639 -12.22717,0.41 z m 17.99806,-4.94178 c -0.59691,-2.20708 -2.46114,1.34943 -0.22569,0.38211 l 0.14602,-0.18058 z m -1.5642,-0.92208 c 1.03781,-1.6352 -2.07971,-1.2908 -0.84984,0.20676 0.27126,0.28851 0.6479,1.1e-4 0.84984,-0.20676 z m -1.3512,-1.74809 c 2.3017,-2.24343 1.75212,-6.79078 -1.35556,-8.05769 -2.23169,-1.14487 -5.65307,-0.56378 -6.51876,2.05359 -1.22285,3.36723 1.99946,7.44076 5.59304,6.7242 0.78196,-0.11734 1.61981,-0.25884 2.28128,-0.7201 z m -17.15372,-1.79877 c 1.05626,-0.25344 4.07086,-1.94623 1.90385,-2.74382 -1.24118,0.70686 -2.55383,1.53339 -4.06827,1.32469 -1.77056,0.0577 -2.96881,-1.25782 -3.91028,-2.53968 -1.65829,0.67481 0.10396,3.22654 1.5068,3.49732 1.42759,0.61029 3.04714,0.758 4.5679,0.46149 z m -0.55358,-10.31415 c -3.00239,-0.38594 -6.06171,-0.78147 -8.90519,-1.85908 -1.47438,-0.64768 -3.54894,-2.2113 -2.57615,-4.03731 1.17171,-0.91841 2.79893,-0.69461 4.20487,-0.95327 0.42203,-0.44663 0.35754,-1.40437 0.72481,-1.9821 1.24341,-2.31125 3.42751,-4.556482 6.22881,-4.570782 1.63795,-0.12425 3.28356,0.18567 4.76799,0.88209 2.20831,0.322122 4.40609,-0.47529 6.61475,-0.56646 2.96041,-0.42795 6.27352,0.51318 8.00637,3.090492 1.33181,1.12589 0.68832,3.93991 3.00263,3.55002 1.90995,-0.30985 4.01509,1.02494 3.128,3.14372 -1.21386,1.1788 -2.9733,1.66645 -4.53604,2.2556 -2.18805,0.52597 -4.44676,0.75679 -6.67481,1.0718 -4.64822,0.33478 -9.33981,0.3421 -13.98604,-0.0247 z"
       id="path60"
       inkscape:label="Drawing" />
    <path
       id="rect19240"
       style="display:inline;fill:#000000;stroke-width:0.5;stroke-linejoin:round;stroke-opacity:0.909449"
       d="m -196.88781,128.58347 v 1.19059 c 0,8.06185 -6.49023,14.55208 -14.55208,14.55208 h -23.8125 c -8.06185,0 -14.55208,-6.49023 -14.55208,-14.55208 v -1.19059 z"
       sodipodi:nodetypes="csssscc"
       inkscape:label="Bottom-label" />
    <g
       aria-label="ANTI-HORNY"
       transform="matrix(0.26458333,0,0,0.26458333,-201.23932,53.994192)"
       id="text14464"
       style="font-size:26.6667px;line-height:1.25;white-space:pre;shape-inside:url(#rect14466);fill:#fec62b">
      <path
         d="m -153.09999,311.90216 -0.29334,1.2 h 3.20001 l -0.29334,-1.2 q -0.32,-1.25333 -0.64,-2.72 -0.32,-1.46667 -0.64,-2.77334 h -0.10666 q -0.29334,1.33334 -0.61334,2.80001 -0.29333,1.44 -0.61333,2.69333 z m -6.66668,8.42668 5.28001,-17.33336 h 5.54667 l 5.28001,17.33336 h -4.85334 l -0.85333,-3.68001 h -4.85334 l -0.85334,3.68001 z"
         style="font-weight:900;font-family:'Source Sans Pro';-inkscape-font-specification:'Source Sans Pro Heavy';fill:#fc8922;fill-opacity:1"
         id="path24872" />
      <path
         d="m -142.00665,320.32884 v -17.33336 h 4.69333 l 3.84001,7.73335 1.65334,3.89334 h 0.10666 q -0.08,-0.69334 -0.18666,-1.52001 -0.10667,-0.82666 -0.18667,-1.68 -0.08,-0.88 -0.16,-1.73333 -0.0533,-0.88001 -0.0533,-1.68001 v -5.01334 h 4.37334 v 17.33336 h -4.69334 l -3.84,-7.76001 -1.65334,-3.86667 h -0.10666 q 0.16,1.49333 0.37333,3.25334 0.21333,1.76 0.21333,3.36 v 5.01334 z"
         style="font-weight:900;font-family:'Source Sans Pro';-inkscape-font-specification:'Source Sans Pro Heavy';fill:#fc8922;fill-opacity:1"
         id="path24874" />
      <path
         d="m -120.77999,320.32884 v -13.49335 h -4.58667 v -3.84001 h 13.76002 v 3.84001 h -4.58667 v 13.49335 z"
         style="font-weight:900;font-family:'Source Sans Pro';-inkscape-font-specification:'Source Sans Pro Heavy'"
         id="path24876" />
      <path
         d="m -109.04666,320.32884 v -17.33336 h 4.58667 v 17.33336 z"
         style="font-weight:900;font-family:'Source Sans Pro';-inkscape-font-specification:'Source Sans Pro Heavy'"
         id="path24878" />
      <path
         d="m -101.36665,315.1555 v -3.2 h 6.720008 v 3.2 z"
         style="font-weight:900;font-family:'Source Sans Pro';-inkscape-font-specification:'Source Sans Pro Heavy'"
         id="path24880" />
      <path
         d="m -91.553356,320.32884 v -17.33336 h 4.586673 v 6.45335 h 5.17334 v -6.45335 h 4.586672 v 17.33336 h -4.586672 v -6.88001 h -5.17334 v 6.88001 z"
         style="font-weight:900;font-family:'Source Sans Pro';-inkscape-font-specification:'Source Sans Pro Heavy'"
         id="path24882" />
      <path
         d="m -66.060011,320.64884 q -1.813336,0 -3.306671,-0.61333 -1.466669,-0.61334 -2.533337,-1.76001 -1.040001,-1.17333 -1.626669,-2.85333 -0.586667,-1.70667 -0.586667,-3.84001 0,-2.13333 0.586667,-3.78667 0.586668,-1.68 1.626669,-2.8 1.066668,-1.14667 2.533337,-1.73334 1.493335,-0.58667 3.306671,-0.58667 1.786668,0 3.280004,0.58667 1.493335,0.58667 2.533336,1.73334 1.066668,1.14666 1.653336,2.8 0.586667,1.65334 0.586667,3.78667 0,2.13334 -0.586667,3.84001 -0.586668,1.68 -1.653336,2.85333 -1.040001,1.14667 -2.533336,1.76001 -1.493336,0.61333 -3.280004,0.61333 z m 0,-3.94667 q 1.573335,0 2.453336,-1.36 0.906668,-1.38667 0.906668,-3.76001 0,-2.37333 -0.906668,-3.65334 -0.880001,-1.30666 -2.453336,-1.30666 -1.573336,0 -2.480004,1.30666 -0.880001,1.28001 -0.880001,3.65334 0,2.37334 0.880001,3.76001 0.906668,1.36 2.480004,1.36 z"
         style="font-weight:900;font-family:'Source Sans Pro';-inkscape-font-specification:'Source Sans Pro Heavy'"
         id="path24884" />
      <path
         d="m -54.913341,320.32884 v -17.33336 h 6.560008 q 1.386669,0 2.640004,0.26667 1.280001,0.26667 2.213336,0.90667 0.960001,0.64 1.520002,1.73333 0.56,1.06667 0.56,2.69334 0,1.86667 -0.773334,3.09334 -0.746668,1.22667 -2.026669,1.92 l 3.760005,6.72001 h -5.120007 l -2.98667,-5.81334 h -1.760003 v 5.81334 z m 4.586672,-9.44001 h 1.653336 q 2.773337,0 2.773337,-2.29334 0,-1.12 -0.720001,-1.54667 -0.693334,-0.42666 -2.053336,-0.42666 h -1.653336 z"
         style="font-weight:900;font-family:'Source Sans Pro';-inkscape-font-specification:'Source Sans Pro Heavy'"
         id="path24886" />
      <path
         d="m -38.113346,320.32884 v -17.33336 h 4.69334 l 3.840004,7.73335 1.653336,3.89334 h 0.106667 q -0.08,-0.69334 -0.186667,-1.52001 -0.106667,-0.82666 -0.186667,-1.68 -0.08,-0.88 -0.16,-1.73333 -0.05333,-0.88001 -0.05333,-1.68001 v -5.01334 h 4.373339 v 17.33336 h -4.693339 l -3.840005,-7.76001 -1.653335,-3.86667 h -0.106667 q 0.16,1.49333 0.373334,3.25334 0.213333,1.76 0.213333,3.36 v 5.01334 z"
         style="font-weight:900;font-family:'Source Sans Pro';-inkscape-font-specification:'Source Sans Pro Heavy'"
         id="path24888" />
      <path
         d="m -17.153336,320.32884 v -5.97334 l -5.226673,-11.36002 h 4.906673 l 1.280001,3.62668 q 0.320001,0.98666 0.640001,1.92 0.32,0.93333 0.666668,1.94667 H -14.78 q 0.346667,-1.01334 0.666668,-1.94667 0.346667,-0.93334 0.693334,-1.92 l 1.280002,-3.62668 h 4.8000057 l -5.2266737,11.36002 v 5.97334 z"
         style="font-weight:900;font-family:'Source Sans Pro';-inkscape-font-specification:'Source Sans Pro Heavy'"
         id="path24890" />
    </g>
  </g>
</svg>
