<?xml version="1.0" encoding="UTF-8" standalone="no"?>
<svg
   width="200"
   height="200"
   viewBox="0 0 52.916668 52.916666"
   version="1.1"
   id="svg8"
   inkscape:version="1.1 (c68e22c387, 2021-05-23)"
   sodipodi:docname="artist.svg"
   inkscape:export-filename="C:\Users\Rodri\Documents\GitHub\polcompballvalues.github.io\new\assets\values\Base.png"
   inkscape:export-xdpi="96"
   inkscape:export-ydpi="96"
   xmlns:inkscape="http://www.inkscape.org/namespaces/inkscape"
   xmlns:sodipodi="http://sodipodi.sourceforge.net/DTD/sodipodi-0.dtd"
   xmlns="http://www.w3.org/2000/svg"
   xmlns:svg="http://www.w3.org/2000/svg"
   xmlns:rdf="http://www.w3.org/1999/02/22-rdf-syntax-ns#"
   xmlns:cc="http://creativecommons.org/ns#"
   xmlns:dc="http://purl.org/dc/elements/1.1/">
  <defs
     id="defs2">
    <rect
       x="-136.47161"
       y="77.428193"
       width="180.66579"
       height="70.710679"
       id="rect2258" />
    <rect
       x="-132.22897"
       y="59.750524"
       width="229.45615"
       height="90.156115"
       id="rect7765" />
    <rect
       x="-39.59798"
       y="123.03658"
       width="96.166523"
       height="53.386562"
       id="rect3691" />
    <rect
       x="-123.39013"
       y="77.781747"
       width="81.670834"
       height="44.901281"
       id="rect1529" />
    <rect
       x="-100.76272"
       y="97.227182"
       width="155.56349"
       height="102.77282"
       id="rect29605" />
    <rect
       x="-247"
       y="42"
       width="137"
       height="81.5"
       id="rect1185" />
    <rect
       x="-48.175333"
       y="18.9895"
       width="46.117357"
       height="15.996081"
       id="rect880" />
    <rect
       x="-255.23004"
       y="125.83378"
       width="102.52459"
       height="46.959256"
       id="rect873" />
    <inkscape:path-effect
       effect="envelope"
       id="path-effect4658"
       is_visible="true"
       yy="true"
       xx="true"
       bendpath1="m -199.08406,108.42369 h 7.0057"
       bendpath2="m -192.07836,108.42369 v 6.75242"
       bendpath3="m -199.08406,115.17611 h 7.0057"
       bendpath4="m -199.08406,108.42369 v 6.75242" />
    <inkscape:path-effect
       effect="bend_path"
       id="path-effect4656"
       is_visible="true"
       bendpath="m -192.00142,114.60623 c 2.12577,-0.53066 4.48261,0.85111 7.0057,0"
       prop_scale="1"
       scale_y_rel="false"
       vertical="false"
       bendpath-nodetypes="cc" />
    <inkscape:path-effect
       effect="bounding_box"
       id="path-effect4654"
       is_visible="true"
       linkedpath=""
       visualbounds="false" />
    <linearGradient
       id="linearGradient3288"
       inkscape:swatch="solid">
      <stop
         style="stop-color:#000000;stop-opacity:1;"
         offset="0"
         id="stop3286" />
    </linearGradient>
    <linearGradient
       id="linearGradient1364"
       inkscape:swatch="solid">
      <stop
         style="stop-color:#ffffff;stop-opacity:1;"
         offset="0"
         id="stop1362" />
    </linearGradient>
    <rect
       x="293.80286"
       y="272.58966"
       width="25.455845"
       height="37.830212"
       id="rect1056" />
    <rect
       x="222.73865"
       y="266.22571"
       width="47.376156"
       height="54.09367"
       id="rect1050" />
    <rect
       x="139.30003"
       y="246.42671"
       width="58.336308"
       height="48.790367"
       id="rect1044" />
    <rect
       x="131.1683"
       y="203.64674"
       width="61.871841"
       height="73.892654"
       id="rect1038" />
    <rect
       x="81.67083"
       y="193.04015"
       width="63.63961"
       height="55.507881"
       id="rect1032" />
    <rect
       x="83.085045"
       y="274.35742"
       width="44.194176"
       height="38.890873"
       id="rect1026" />
    <rect
       x="3.5355339"
       y="269.05414"
       width="65.760933"
       height="53.386562"
       id="rect1020" />
    <rect
       x="14.142136"
       y="226.27417"
       width="79.195961"
       height="62.932503"
       id="rect1014" />
    <rect
       x="11.313708"
       y="171.82695"
       width="36.416"
       height="51.618793"
       id="rect1008" />
    <rect
       x="3.1819806"
       y="132.22897"
       width="102.88404"
       height="102.53048"
       id="rect1002" />
  </defs>
  <sodipodi:namedview
     id="base"
     pagecolor="#ffffff"
     bordercolor="#666666"
     borderopacity="1.0"
     inkscape:pageopacity="0.0"
     inkscape:pageshadow="2"
     inkscape:zoom="2.8284271"
     inkscape:cx="66.821591"
     inkscape:cy="118.26361"
     inkscape:document-units="mm"
     inkscape:current-layer="layer1"
     showgrid="false"
     fit-margin-top="0"
     fit-margin-left="0"
     fit-margin-right="0"
     fit-margin-bottom="0"
     inkscape:window-width="1920"
     inkscape:window-height="1017"
     inkscape:window-x="-8"
     inkscape:window-y="-8"
     inkscape:window-maximized="1"
     showguides="false"
     inkscape:object-nodes="true"
     units="px"
     inkscape:snap-page="true"
     inkscape:document-rotation="0"
     inkscape:pagecheckerboard="1" />
  <metadata
     id="metadata5">
    <rdf:RDF>
      <cc:Work
         rdf:about="">
        <dc:format>image/svg+xml</dc:format>
        <dc:type
           rdf:resource="http://purl.org/dc/dcmitype/StillImage" />
      </cc:Work>
    </rdf:RDF>
  </metadata>
  <g
     inkscape:label="Base"
     inkscape:groupmode="layer"
     id="layer1"
     transform="translate(249.80447,-91.409467)">
    <rect
       y="91.40947"
       x="-249.80447"
       height="52.916668"
       width="52.916668"
       id="rect5238-5"
       style="display:inline;fill:#000000;fill-opacity:1;fill-rule:nonzero;stroke:none;stroke-width:0.5;stroke-linecap:butt;stroke-linejoin:round;stroke-miterlimit:4;stroke-dasharray:none;stroke-dashoffset:0;stroke-opacity:0.909449;paint-order:normal"
       rx="14.552089"
       ry="14.552081"
       inkscape:label="Bottom-rectangle" />
    <path
       id="rect18865"
       style="display:inline;fill:#003aad;fill-opacity:1;stroke-width:0.450003;stroke-linejoin:round;stroke-opacity:0.909449"
       d="m -234.06184,94.055153 h 21.43138 c 7.25572,0 13.09696,5.841242 13.09696,13.096957 v 21.43139 h -47.6253 v -21.43139 c 0,-7.255715 5.84125,-13.096957 13.09696,-13.096957 z"
       sodipodi:nodetypes="sssccss"
       inkscape:label="Inner-rectangle" />
    <path
       style="fill:#000000;stroke-width:0.232297"
       d="m -240.69134,124.68843 c -1.87633,-0.59903 0.64073,-2.70536 0.84696,-3.84907 3.47496,-6.74616 6.88655,-13.57707 11.32089,-19.75881 0.91266,-0.81731 2.09572,-3.564014 3.31285,-2.042374 1.86542,1.746904 3.47268,3.730104 4.94375,5.813444 1.62878,2.00696 3.12478,4.12014 4.27531,6.44256 1.82945,3.83322 3.78045,7.61271 5.48129,11.50611 1.17029,1.78114 -1.1521,1.95878 -2.39329,1.89306 -8.68202,0.14423 -17.36713,0.0525 -26.05011,0.0275 -0.57917,-0.009 -1.15893,-0.006 -1.73765,-0.0324 z m 20.10214,-9.31586 c 1.5203,-0.37078 2.99648,-2.06727 1.85054,-3.57763 -1.09773,-1.65801 -2.8383,-3.08374 -4.92327,-3.0564 -2.26592,-0.1083 -4.72547,-0.41716 -6.74784,0.86124 -1.17185,0.7208 -2.89124,1.98661 -2.37261,3.50706 0.82529,1.26928 1.98806,2.25749 3.50046,2.54749 2.71104,0.60467 5.58743,0.47003 8.28537,-0.14603 l 0.21215,-0.066 z m -5.56838,0.20826 c -1.58864,-1.02005 -1.98553,-3.38598 -1.40031,-5.08614 0.40523,-1.49476 2.1477,-2.09422 3.4513,-1.362 1.34645,1.3385 1.42374,3.63115 0.65274,5.29838 -0.4365,0.93358 -1.71252,1.69377 -2.70373,1.14976 z m 14.80108,4.29647 c -0.41974,-1.5082 0.16347,-3.13858 0.25337,-4.68049 0.0111,-1.50491 1.11116,-3.16621 -0.0635,-4.45423 -0.57597,-1.34382 0.22836,-2.82081 1.49573,-3.40612 1.13341,-0.20577 2.56066,-2.9292 3.26264,-0.91518 0.74226,1.44084 1.70594,3.29589 0.59062,4.8188 -1.14217,0.74487 -2.45323,1.20119 -2.53009,2.84707 -0.64,1.85755 -0.89554,3.86411 -1.80203,5.61678 -0.24122,0.4631 -0.86874,0.71017 -1.20679,0.17337 z m 5.17012,-10.35511 c -0.2051,-1.04711 -0.67727,-2.01247 -1.06936,-2.99785 -0.75545,0.81867 -1.7411,1.34861 -2.64101,1.97215 0.23674,1.47514 2.55804,0.85623 3.53833,1.63362 0.21779,-0.11062 0.18529,-0.40924 0.17204,-0.60792 z"
       id="path19823"
       inkscape:label="Object" />
    <path
       id="rect19240"
       style="display:inline;fill:#000000;stroke-width:0.5;stroke-linejoin:round;stroke-opacity:0.909449"
       d="m -196.88781,128.58347 v 1.19059 c 0,8.06185 -6.49023,14.55208 -14.55208,14.55208 h -23.8125 c -8.06185,0 -14.55208,-6.49023 -14.55208,-14.55208 v -1.19059 z"
       sodipodi:nodetypes="csssscc"
       inkscape:label="Bottom-label" />
    <g
       aria-label="ARTIST"
       transform="matrix(0.26458333,0,0,0.26458333,-203.89641,109.7528)"
       id="text2256"
       style="font-size:40px;line-height:1.25;white-space:pre;shape-inside:url(#rect2258);fill:#003aad">
      <path
         d="m -126.8707,101.28095 -0.44,1.8 h 4.8 l -0.44,-1.8 q -0.48,-1.880003 -0.96,-4.080003 -0.48,-2.2 -0.96,-4.16 h -0.16 q -0.44,2 -0.92,4.2 -0.44,2.16 -0.92,4.040003 z m -10,12.64 7.92,-26.000003 h 8.32 l 7.92,26.000003 h -7.28 l -1.28,-5.52 h -7.28 l -1.28,5.52 z"
         style="font-weight:900;font-family:'Source Sans Pro';-inkscape-font-specification:'Source Sans Pro Heavy'"
         id="path9095" />
      <path
         d="M -110.23072,113.92095 V 87.920947 h 9.84 q 2.080002,0 3.960002,0.4 1.92,0.4 3.32,1.36 1.44,0.96 2.28,2.6 0.84,1.6 0.84,4.04 0,2.8 -1.16,4.640003 -1.12,1.84 -3.04,2.88 l 5.64,10.08 h -7.68 l -4.480002,-8.72 h -2.64 v 8.72 z m 6.88,-14.160003 h 2.48 q 4.160002,0 4.160002,-3.44 0,-1.68 -1.08,-2.32 -1.04,-0.64 -3.080002,-0.64 h -2.48 z"
         style="font-weight:900;font-family:'Source Sans Pro';-inkscape-font-specification:'Source Sans Pro Heavy'"
         id="path9097" />
      <path
         d="M -80.87077,113.92095 V 93.680947 h -6.88 v -5.76 h 20.64 v 5.76 h -6.88 v 20.240003 z"
         style="font-weight:900;font-family:'Source Sans Pro';-inkscape-font-specification:'Source Sans Pro Heavy'"
         id="path9099" />
      <path
         d="M -63.270803,113.92095 V 87.920947 h 6.88 v 26.000003 z"
         style="font-weight:900;font-family:'Source Sans Pro';-inkscape-font-specification:'Source Sans Pro Heavy'"
         id="path9101" />
      <path
         d="m -42.390803,114.40095 q -2.48,0 -5.12,-0.88 -2.6,-0.92 -4.72,-2.84 l 3.92,-4.72 q 1.4,1.12 3,1.84 1.64,0.68 3.08,0.68 1.56,0 2.24,-0.48 0.72,-0.48 0.72,-1.36 0,-0.48 -0.24,-0.8 -0.24,-0.32 -0.72,-0.6 -0.44,-0.28 -1.08,-0.52 -0.64,-0.28 -1.48,-0.6 l -3.24,-1.36 q -1.04,-0.4 -2,-1.04 -0.96,-0.68 -1.68,-1.56 -0.72,-0.920003 -1.16,-2.080003 -0.4,-1.16 -0.4,-2.56 0,-1.68 0.72,-3.12 0.72,-1.48 2,-2.56 1.28,-1.12 3.04,-1.76 1.8,-0.64 3.92,-0.64 2.24,0 4.52,0.84 2.32,0.84 4.12,2.64 l -3.44,4.32 q -1.32,-0.92 -2.56,-1.4 -1.2,-0.48 -2.64,-0.48 -1.28,0 -2,0.44 -0.72,0.44 -0.72,1.32 0,0.92 1,1.44 1.04,0.48 2.84,1.16 l 3.16,1.24 q 2.44,0.96 3.76,2.680003 1.32,1.72 1.32,4.44 0,1.64 -0.68,3.16 -0.68,1.52 -2,2.68 -1.28,1.12 -3.16,1.8 -1.88,0.68 -4.32,0.68 z"
         style="font-weight:900;font-family:'Source Sans Pro';-inkscape-font-specification:'Source Sans Pro Heavy'"
         id="path9103" />
      <path
         d="M -23.910854,113.92095 V 93.680947 h -6.88 v -5.76 h 20.64 v 5.76 h -6.88 v 20.240003 z"
         style="font-weight:900;font-family:'Source Sans Pro';-inkscape-font-specification:'Source Sans Pro Heavy'"
         id="path9105" />
    </g>
  </g>
</svg>
