<svg width="200" height="200" viewBox="0 0 52.917 52.917" xmlns="http://www.w3.org/2000/svg"><defs><path id="a" d="M-136.472 77.428H44.194v70.711h-180.666z"/></defs><g transform="translate(249.804 -91.41)"><rect y="91.409" x="-249.804" height="52.917" width="52.917" style="display:inline;fill:#000;fill-opacity:1;fill-rule:nonzero;stroke:none;stroke-width:.5;stroke-linecap:butt;stroke-linejoin:round;stroke-miterlimit:4;stroke-dasharray:none;stroke-dashoffset:0;stroke-opacity:.909449;paint-order:normal" rx="14.552" ry="14.552"/><path style="display:inline;fill:#003aad;fill-opacity:1;stroke-width:.450003;stroke-linejoin:round;stroke-opacity:.909449" d="M-234.062 94.055h21.432a13.068 13.068 0 0 1 13.096 13.097v21.432h-47.625v-21.432a13.068 13.068 0 0 1 13.097-13.097z"/><path style="fill:#000;stroke-width:.232297" d="M-240.691 124.688c-1.877-.599.64-2.705.847-3.849 3.475-6.746 6.886-13.577 11.32-19.758.913-.818 2.096-3.564 3.313-2.043 1.866 1.747 3.473 3.73 4.944 5.814 1.629 2.007 3.125 4.12 4.275 6.442 1.83 3.833 3.78 7.613 5.482 11.506 1.17 1.781-1.152 1.96-2.394 1.893-8.682.145-17.367.053-26.05.028-.579-.01-1.159-.006-1.737-.033zm20.102-9.315c1.52-.371 2.996-2.068 1.85-3.578-1.097-1.658-2.838-3.084-4.923-3.056-2.266-.109-4.725-.418-6.748.86-1.172.722-2.891 1.987-2.372 3.508.825 1.27 1.988 2.257 3.5 2.547 2.711.605 5.588.47 8.285-.146l.213-.066zm-5.569.208c-1.588-1.02-1.985-3.386-1.4-5.086.405-1.495 2.148-2.095 3.451-1.362 1.347 1.338 1.424 3.63.653 5.298-.436.934-1.712 1.694-2.704 1.15zm14.801 4.296c-.42-1.508.164-3.138.254-4.68.011-1.505 1.111-3.166-.064-4.454-.576-1.344.229-2.821 1.496-3.407 1.134-.205 2.56-2.929 3.263-.915.742 1.441 1.706 3.296.59 4.82-1.142.744-2.453 1.2-2.53 2.846-.64 1.858-.895 3.864-1.802 5.617-.241.463-.868.71-1.207.173zm5.17-10.355c-.204-1.047-.677-2.012-1.069-2.998-.755.819-1.74 1.349-2.64 1.972.236 1.476 2.557.857 3.538 1.634.217-.11.185-.41.172-.608z"/><path style="display:inline;fill:#000;stroke-width:.5;stroke-linejoin:round;stroke-opacity:.909449" d="M-196.888 128.583v1.191a14.52 14.52 0 0 1-14.552 14.552h-23.812a14.52 14.52 0 0 1-14.552-14.552v-1.19z"/><g aria-label="ARTIST" transform="matrix(.26458 0 0 .26458 -203.896 109.753)" style="font-size:40px;line-height:1.25;white-space:pre;shape-inside:url(#a);fill:#003aad"><path d="m-126.87 101.281-.44 1.8h4.8l-.44-1.8q-.48-1.88-.96-4.08t-.96-4.16h-.16q-.44 2-.92 4.2-.44 2.16-.92 4.04zm-10 12.64 7.92-26h8.32l7.92 26h-7.28l-1.28-5.52h-7.28l-1.28 5.52zM-110.23 113.921v-26h9.84q2.08 0 3.96.4 1.92.4 3.32 1.36 1.44.96 2.28 2.6.84 1.6.84 4.04 0 2.8-1.16 4.64-1.12 1.84-3.04 2.88l5.64 10.08h-7.68l-4.48-8.72h-2.64v8.72zm6.88-14.16h2.48q4.16 0 4.16-3.44 0-1.68-1.08-2.32-1.04-.64-3.08-.64h-2.48zM-80.87 113.921v-20.24h-6.88v-5.76h20.64v5.76h-6.88v20.24zM-63.27 113.921v-26h6.88v26zM-42.39 114.4q-2.48 0-5.12-.88-2.6-.919-4.72-2.839l3.92-4.72q1.4 1.12 3 1.84 1.64.68 3.08.68 1.56 0 2.24-.48.72-.48.72-1.36 0-.48-.24-.8-.24-.32-.72-.6-.44-.28-1.08-.52-.64-.28-1.48-.6l-3.24-1.36q-1.04-.4-2-1.04-.96-.68-1.68-1.56-.72-.92-1.16-2.08-.4-1.16-.4-2.56 0-1.68.72-3.12.72-1.48 2-2.56 1.28-1.12 3.04-1.76 1.8-.64 3.92-.64 2.24 0 4.52.84 2.32.84 4.12 2.64l-3.44 4.32q-1.32-.92-2.56-1.4-1.2-.48-2.64-.48-1.28 0-2 .44t-.72 1.32q0 .92 1 1.44 1.04.48 2.84 1.16l3.16 1.24q2.44.96 3.76 2.68 1.32 1.72 1.32 4.44 0 1.64-.68 3.16-.68 1.52-2 2.68-1.28 1.12-3.16 1.8-1.88.68-4.32.68zM-23.91 113.921v-20.24h-6.88v-5.76h20.64v5.76h-6.88v20.24z" style="font-weight:900;font-family:'Source Sans Pro';-inkscape-font-specification:'Source Sans Pro Heavy'"/></g></g></svg>