<svg width="200" height="200" viewBox="0 0 52.917 52.917" xmlns="http://www.w3.org/2000/svg"><defs><path id="a" d="M-263 202H-4.5v50.5H-263z"/></defs><g transform="translate(249.804 -91.41)"><rect y="91.409" x="-249.804" height="52.917" width="52.917" style="display:inline;fill:#000;fill-opacity:1;fill-rule:nonzero;stroke:none;stroke-width:.5;stroke-linecap:butt;stroke-linejoin:round;stroke-miterlimit:4;stroke-dasharray:none;stroke-dashoffset:0;stroke-opacity:.909449;paint-order:normal" rx="14.552" ry="14.552"/><path style="display:inline;fill:#7f00ff;fill-opacity:1;stroke-width:.450003;stroke-linejoin:round;stroke-opacity:.909449" d="M-234.062 94.055h21.432a13.068 13.068 0 0 1 13.096 13.097v21.432h-47.625v-21.432a13.068 13.068 0 0 1 13.097-13.097z"/><path style="fill:#000;stroke-width:.274269" d="M-222.278 133.173c-3.04-.466-6.177-.816-9.021-2.041-1.492-.953-2.596-2.405-3.335-3.996 1.61.037 3.66.107 4.448-1.617 1.076-1.73.82-3.864-.892-5.063-.868-1.438-2.132 1.656-1.836-.68.226-2.58 1.297-5.189 3.394-6.795 1.7.463.264 4.71 2.83 4.556 3.649-.364 7.226-1.273 10.857-1.795 2.581-.46 5.194-.852 7.707-1.594 1.298 4.68 2.306 9.665 1.62 14.557-.762 2.635-3.652 3.814-6.082 4.435-3.205.381-6.481.332-9.69.033zm1.904-9.726c1.413-1.038-.184-2.209-1.135-.992-1.79.979-3.356-.32-4.643-1.319-1.348 1.94 2.182 3.377 3.822 2.928.676-.071 1.412-.173 1.956-.617zm10.538-.445c1.549-.719.082-2.897-.813-1.15-1.574 1.39-3.63-.4-5.152.027.149 1.969 2.796 1.726 4.263 1.667.6-.029 1.23-.142 1.702-.544zm-26.576 2.42c-.87-1.794-.385-3.888-.499-5.812-.024-3.932.736-8.19 3.632-11.074 1.4-1.508 2.918-3.21 5.097-3.432 4.139-.799 8.613-1.243 12.65.241.804.298 1.413.57.19.602-4.604.76-9.31 1.19-13.73 2.746-1.816.796.72 3.327-1.681 3.573-2.541 2.072-3.63 5.498-3.55 8.688.011 2.318 4.506-.016 3.212 3.07-.273 2.521-3.203 1.164-4.541 2.267-.392-.103-.559-.58-.78-.87zm31.542-.432c-.414-1.664-1.55-4.004.489-5.06 1.221.222 2.937 3.236 1.39 4.288-.478.229-1.427 1.484-1.879.772zm-22.577-11.362c-.29-1.585-1.808-4.27.933-4.28 4.445-1.112 9.013-1.567 13.51-2.397 2.034-.814 3.56 1.626 4.626 3.024 1.602 1.746-.406 3.306-2.192 3.38-4.993 1.04-10.052 1.739-15.057 2.72-1.543.63-1.42-1.581-1.82-2.447zm3.966.407c1.194-1.128.008-4.443-1.875-3.745-1.913.21.068 4.886 1.875 3.745zm3.964-.896c1.703-1.318-.808-4.874-2.36-3.008-.308 1.35.416 4.27 2.36 3.008zm5.171-1.189c-.469-1.461-1.85-3.753-3.604-2.6-.047 1.585.761 4.648 2.865 3.136.236-.16.63-.225.74-.536zm4.544-.492c-.086-1.86-1.597-4.28-3.742-3.2-.79 1.258.214 4.635 2.325 3.59.476-.093.989-.145 1.417-.39zm-32.372 1.723c-1.626-.567-2.315-2.387-1.999-3.985-.17-1.162 1.305-4.22 2.352-2.458-.249.778-.891 3.653.536 1.953 1.93-1.82 1.013-4.645 1.317-6.973-.116-3.488 4.103-6.19 7.175-4.427 1.9.779 2.733 2.84 2.567 4.787.548 2.295-1.555 3.038-2.89 4.312-1.631 1.237-2.78 2.94-3.185 4.955-.837 2.192-3.909 2.86-5.873 1.836z"/><path style="display:inline;fill:#000;stroke-width:.5;stroke-linejoin:round;stroke-opacity:.909449" d="M-196.888 128.583v1.191a14.52 14.52 0 0 1-14.552 14.552h-23.812a14.52 14.52 0 0 1-14.552-14.552v-1.19z"/><g aria-label="BEHAVING" transform="matrix(.21528 0 0 .21528 -186.698 87.912)" style="font-size:40px;line-height:1.25;white-space:pre;shape-inside:url(#a);fill:#7f00ff"><path d="M-260.12 238.493v-26h9.36q2.04 0 3.84.32 1.8.28 3.12 1t2.08 2q.8 1.24.8 3.16 0 .84-.24 1.72-.24.84-.68 1.64-.4.76-1 1.36-.6.6-1.36.88v.16q1.88.56 3.16 2.04 1.32 1.44 1.32 4.04 0 2-.84 3.48-.8 1.44-2.2 2.4-1.36.92-3.24 1.36-1.88.44-3.96.44zm6.88-15.84h2.32q1.68 0 2.48-.72t.8-1.92q0-1.2-.8-1.72t-2.48-.52h-2.32zm0 10.56h2.8q4 0 4-2.88 0-1.44-1-2.04-.96-.6-3-.6h-2.8zM-235.64 238.493v-26h16.8v5.76h-9.92v4.08h8.48v5.76h-8.48v4.64h10.32v5.76zM-213.4 238.493v-26h6.88v9.68h7.76v-9.68h6.88v26h-6.88v-10.32h-7.76v10.32zM-179.4 225.853l-.44 1.8h4.8l-.44-1.8q-.48-1.88-.96-4.08t-.96-4.16h-.16q-.44 2-.92 4.2-.44 2.16-.92 4.04zm-10 12.64 7.92-26h8.32l7.92 26h-7.28l-1.28-5.52h-7.28l-1.28 5.52zM-159.16 238.493l-7.68-26h7.28l2.72 11.36q.56 2.08.96 4.12.4 2 .96 4.12h.16q.56-2.12.96-4.12.44-2.04.96-4.12l2.64-11.36h7.04l-7.68 26zM-140.68 238.493v-26h6.88v26zM-128.04 238.493v-26h7.04l5.76 11.6 2.48 5.84h.16q-.12-1.04-.28-2.28-.16-1.24-.28-2.52-.12-1.32-.24-2.6-.08-1.32-.08-2.52v-7.52h6.56v26h-7.04l-5.76-11.64-2.48-5.8h-.16q.24 2.24.56 4.88.32 2.64.32 5.04v7.52zM-89.16 238.973q-2.72 0-5.12-.8-2.4-.84-4.2-2.48-1.76-1.68-2.8-4.16-1-2.52-1-5.84 0-3.28 1.04-5.8 1.04-2.56 2.8-4.28 1.8-1.76 4.16-2.68 2.36-.92 4.96-.92 2.88 0 4.96 1.04 2.12 1 3.52 2.4l-3.6 4.4q-.96-.84-2.04-1.36-1.04-.56-2.6-.56-1.32 0-2.44.52-1.12.52-1.96 1.48-.84.96-1.32 2.36-.44 1.4-.44 3.16 0 3.68 1.64 5.64 1.64 1.96 5.16 1.96.56 0 1.08-.12.56-.12.92-.36v-3.6h-3.84v-5.6h9.92v12.4q-1.4 1.32-3.72 2.28-2.32.92-5.08.92z" style="font-weight:900;font-family:'Source Sans Pro';-inkscape-font-specification:'Source Sans Pro Heavy'"/></g></g></svg>