<?xml version="1.0" encoding="UTF-8" standalone="no"?>
<svg
   width="200"
   height="200"
   viewBox="0 0 52.916668 52.916666"
   version="1.1"
   id="svg8"
   inkscape:version="1.1 (c68e22c387, 2021-05-23)"
   sodipodi:docname="behaving.svg"
   xmlns:inkscape="http://www.inkscape.org/namespaces/inkscape"
   xmlns:sodipodi="http://sodipodi.sourceforge.net/DTD/sodipodi-0.dtd"
   xmlns="http://www.w3.org/2000/svg"
   xmlns:svg="http://www.w3.org/2000/svg"
   xmlns:rdf="http://www.w3.org/1999/02/22-rdf-syntax-ns#"
   xmlns:cc="http://creativecommons.org/ns#"
   xmlns:dc="http://purl.org/dc/elements/1.1/">
  <defs
     id="defs2">
    <rect
       x="-263"
       y="202"
       width="258.5"
       height="50.5"
       id="rect4650" />
    <rect
       x="-247"
       y="42"
       width="137"
       height="81.5"
       id="rect1185" />
    <rect
       x="-48.175333"
       y="18.9895"
       width="46.117357"
       height="15.996081"
       id="rect880" />
    <rect
       x="-255.23004"
       y="125.83378"
       width="102.52459"
       height="46.959256"
       id="rect873" />
    <inkscape:path-effect
       effect="envelope"
       id="path-effect4658"
       is_visible="true"
       yy="true"
       xx="true"
       bendpath1="m -199.08406,108.42369 h 7.0057"
       bendpath2="m -192.07836,108.42369 v 6.75242"
       bendpath3="m -199.08406,115.17611 h 7.0057"
       bendpath4="m -199.08406,108.42369 v 6.75242" />
    <inkscape:path-effect
       effect="bend_path"
       id="path-effect4656"
       is_visible="true"
       bendpath="m -192.00142,114.60623 c 2.12577,-0.53066 4.48261,0.85111 7.0057,0"
       prop_scale="1"
       scale_y_rel="false"
       vertical="false"
       bendpath-nodetypes="cc" />
    <inkscape:path-effect
       effect="bounding_box"
       id="path-effect4654"
       is_visible="true"
       linkedpath=""
       visualbounds="false" />
    <linearGradient
       id="linearGradient3288"
       inkscape:swatch="solid">
      <stop
         style="stop-color:#000000;stop-opacity:1;"
         offset="0"
         id="stop3286" />
    </linearGradient>
    <linearGradient
       id="linearGradient1364"
       inkscape:swatch="solid">
      <stop
         style="stop-color:#ffffff;stop-opacity:1;"
         offset="0"
         id="stop1362" />
    </linearGradient>
    <rect
       x="293.80286"
       y="272.58966"
       width="25.455845"
       height="37.830212"
       id="rect1056" />
    <rect
       x="222.73865"
       y="266.22571"
       width="47.376156"
       height="54.09367"
       id="rect1050" />
    <rect
       x="139.30003"
       y="246.42671"
       width="58.336308"
       height="48.790367"
       id="rect1044" />
    <rect
       x="131.1683"
       y="203.64674"
       width="61.871841"
       height="73.892654"
       id="rect1038" />
    <rect
       x="81.67083"
       y="193.04015"
       width="63.63961"
       height="55.507881"
       id="rect1032" />
    <rect
       x="83.085045"
       y="274.35742"
       width="44.194176"
       height="38.890873"
       id="rect1026" />
    <rect
       x="3.5355339"
       y="269.05414"
       width="65.760933"
       height="53.386562"
       id="rect1020" />
    <rect
       x="14.142136"
       y="226.27417"
       width="79.195961"
       height="62.932503"
       id="rect1014" />
    <rect
       x="11.313708"
       y="171.82695"
       width="36.416"
       height="51.618793"
       id="rect1008" />
    <rect
       x="3.1819806"
       y="132.22897"
       width="102.88404"
       height="102.53048"
       id="rect1002" />
  </defs>
  <sodipodi:namedview
     id="base"
     pagecolor="#ffffff"
     bordercolor="#666666"
     borderopacity="1.0"
     inkscape:pageopacity="0.0"
     inkscape:pageshadow="2"
     inkscape:zoom="2"
     inkscape:cx="-10.5"
     inkscape:cy="92.75"
     inkscape:document-units="mm"
     inkscape:current-layer="layer1"
     showgrid="false"
     fit-margin-top="0"
     fit-margin-left="0"
     fit-margin-right="0"
     fit-margin-bottom="0"
     inkscape:window-width="1920"
     inkscape:window-height="1017"
     inkscape:window-x="-8"
     inkscape:window-y="-8"
     inkscape:window-maximized="1"
     showguides="false"
     inkscape:object-nodes="true"
     units="px"
     inkscape:snap-page="true"
     inkscape:document-rotation="0"
     inkscape:pagecheckerboard="1" />
  <metadata
     id="metadata5">
    <rdf:RDF>
      <cc:Work
         rdf:about="">
        <dc:format>image/svg+xml</dc:format>
        <dc:type
           rdf:resource="http://purl.org/dc/dcmitype/StillImage" />
      </cc:Work>
    </rdf:RDF>
  </metadata>
  <g
     inkscape:label="Base"
     inkscape:groupmode="layer"
     id="layer1"
     transform="translate(249.80447,-91.409467)">
    <rect
       y="91.40947"
       x="-249.80447"
       height="52.916668"
       width="52.916668"
       id="rect5238-5"
       style="display:inline;fill:#000000;fill-opacity:1;fill-rule:nonzero;stroke:none;stroke-width:0.5;stroke-linecap:butt;stroke-linejoin:round;stroke-miterlimit:4;stroke-dasharray:none;stroke-dashoffset:0;stroke-opacity:0.909449;paint-order:normal"
       rx="14.552089"
       ry="14.552081"
       inkscape:label="Bottom-rectangle" />
    <path
       id="rect18865"
       style="display:inline;fill:#7f00ff;fill-opacity:1;stroke-width:0.450003;stroke-linejoin:round;stroke-opacity:0.909449"
       d="m -234.06184,94.055153 h 21.43138 c 7.25572,0 13.09696,5.841242 13.09696,13.096957 v 21.43139 h -47.6253 v -21.43139 c 0,-7.255715 5.84125,-13.096957 13.09696,-13.096957 z"
       sodipodi:nodetypes="sssccss"
       inkscape:label="Inner-rectangle" />
    <path
       style="fill:#000000;stroke-width:0.274269"
       d="m -222.27814,133.17321 c -3.0391,-0.4666 -6.17693,-0.81664 -9.02089,-2.04145 -1.49236,-0.95321 -2.59551,-2.40434 -3.3353,-3.99584 1.60982,0.0375 3.6604,0.10708 4.44862,-1.61656 1.07587,-1.73083 0.82005,-3.86486 -0.89241,-5.06318 -0.86825,-1.43771 -2.13233,1.6556 -1.8362,-0.68007 0.22629,-2.57979 1.29747,-5.18894 3.39427,-6.79545 1.70055,0.46289 0.26448,4.71026 2.8298,4.55617 3.64922,-0.36333 7.22604,-1.27295 10.85744,-1.79442 2.58092,-0.45998 5.194,-0.85199 7.70633,-1.59403 1.29849,4.67991 2.30647,9.66494 1.62091,14.55685 -0.76291,2.63439 -3.65253,3.81406 -6.08284,4.43463 -3.20451,0.3814 -6.4806,0.33231 -9.68973,0.0334 z m 1.90436,-9.72588 c 1.41249,-1.038 -0.18402,-2.20934 -1.13472,-0.99279 -1.79116,0.9794 -3.35688,-0.32045 -4.64394,-1.31849 -1.34779,1.93957 2.18251,3.37657 3.82272,2.92829 0.67586,-0.0715 1.41168,-0.17313 1.95594,-0.61701 z m 10.5379,-0.44536 c 1.54882,-0.71899 0.0823,-2.8965 -0.81324,-1.15035 -1.57389,1.38977 -3.62943,-0.40044 -5.15206,0.0275 0.14915,1.96849 2.79591,1.72569 4.26272,1.66677 0.60067,-0.0288 1.23064,-0.14183 1.70258,-0.54395 z m -26.57655,2.41976 c -0.86896,-1.79328 -0.38481,-3.88785 -0.49817,-5.81187 -0.0242,-3.93232 0.73578,-8.18907 3.63134,-11.07425 1.40091,-1.50751 2.91854,-3.20898 5.09677,-3.43175 4.13953,-0.79842 8.61312,-1.24261 12.65057,0.24134 0.80393,0.29766 1.41255,0.56975 0.18911,0.60198 -4.60276,0.76019 -9.30846,1.19041 -13.72914,2.74611 -1.81636,0.79561 0.71935,3.32705 -1.68126,3.57283 -2.54075,2.07146 -3.6289,5.49782 -3.54992,8.68785 0.0113,2.3183 4.50595,-0.016 3.212,3.0693 -0.27253,2.52214 -3.20246,1.16428 -4.54102,2.26774 -0.39149,-0.10268 -0.55845,-0.58002 -0.78028,-0.86928 z m 31.54243,-0.43212 c -0.41405,-1.66396 -1.54993,-4.00338 0.48863,-5.06025 1.22164,0.22261 2.93765,3.23683 1.39071,4.28847 -0.47815,0.22869 -1.4275,1.48464 -1.87934,0.77178 z m -22.57652,-11.36143 c -0.28961,-1.58511 -1.80842,-4.27112 0.9325,-4.28091 4.44502,-1.11095 9.01326,-1.56653 13.50921,-2.39664 2.03437,-0.8135 3.56074,1.62607 4.62706,3.02422 1.60159,1.7461 -0.40591,3.30597 -2.19207,3.38041 -4.99297,1.03994 -10.05175,1.7387 -15.05718,2.71928 -1.54261,0.62967 -1.41999,-1.58085 -1.81952,-2.44636 z m 3.96578,0.40718 c 1.19394,-1.12791 0.008,-4.44318 -1.87529,-3.74525 -1.91278,0.21032 0.0684,4.88601 1.87526,3.74525 z m 3.96332,-0.8968 c 1.70348,-1.31708 -0.80718,-4.87357 -2.35956,-3.0075 -0.30798,1.34917 0.41622,4.27031 2.35956,3.0075 z m 5.17153,-1.18851 c -0.46888,-1.46101 -1.84962,-3.75295 -3.6037,-2.60004 -0.0471,1.58538 0.7606,4.64759 2.86498,3.1356 0.23597,-0.15867 0.63047,-0.22493 0.73872,-0.53556 z m 4.54356,-0.49182 c -0.0857,-1.85985 -1.59709,-4.28106 -3.74176,-3.20067 -0.78905,1.25831 0.21381,4.63509 2.32459,3.59053 0.4762,-0.0927 0.98939,-0.14475 1.41717,-0.38986 z m -32.3718,1.72291 c -1.62571,-0.56729 -2.31464,-2.38688 -1.99858,-3.98506 -0.17061,-1.16258 1.30438,-4.22044 2.352,-2.45825 -0.2492,0.77813 -0.89128,3.65287 0.53593,1.95349 1.9304,-1.81958 1.01259,-4.64553 1.31649,-6.97336 -0.1154,-3.487696 4.10367,-6.189166 7.17526,-4.427091 1.89997,0.778857 2.7333,2.840311 2.5674,4.787471 0.54761,2.29451 -1.55505,3.03798 -2.89128,4.31127 -1.63059,1.23716 -2.77931,2.94028 -3.18361,4.95502 -0.83738,2.19279 -3.90934,2.86016 -5.87361,1.83651 z"
       id="path60"
       inkscape:label="drawing" />
    <path
       id="rect19240"
       style="display:inline;fill:#000000;stroke-width:0.5;stroke-linejoin:round;stroke-opacity:0.909449"
       d="m -196.88781,128.58347 v 1.19059 c 0,8.06185 -6.49023,14.55208 -14.55208,14.55208 h -23.8125 c -8.06185,0 -14.55208,-6.49023 -14.55208,-14.55208 v -1.19059 z"
       sodipodi:nodetypes="csssscc"
       inkscape:label="Bottom-label" />
    <g
       aria-label="BEHAVING"
       transform="matrix(0.21527564,0,0,0.21527564,-186.69759,87.911609)"
       id="text4648"
       style="font-size:40px;line-height:1.25;white-space:pre;shape-inside:url(#rect4650);fill:#7f00ff">
      <path
         d="m -260.12,238.49321 v -26 h 9.36 q 2.04,0 3.84,0.32 1.8,0.28 3.12,1 1.32,0.72 2.08,2 0.8,1.24 0.8,3.16 0,0.84 -0.24,1.72 -0.24,0.84 -0.68,1.64 -0.4,0.76 -1,1.36 -0.6,0.6 -1.36,0.88 v 0.16 q 1.88,0.56 3.16,2.04 1.32,1.44 1.32,4.04 0,2 -0.84,3.48 -0.8,1.44 -2.2,2.4 -1.36,0.92 -3.24,1.36 -1.88,0.44 -3.96,0.44 z m 6.88,-15.84 h 2.32 q 1.68,0 2.48,-0.72 0.8,-0.72 0.8,-1.92 0,-1.2 -0.8,-1.72 -0.8,-0.52 -2.48,-0.52 h -2.32 z m 0,10.56 h 2.8 q 4,0 4,-2.88 0,-1.44 -1,-2.04 -0.96,-0.6 -3,-0.6 h -2.8 z"
         style="font-weight:900;font-family:'Source Sans Pro';-inkscape-font-specification:'Source Sans Pro Heavy'"
         id="path8058" />
      <path
         d="m -235.64002,238.49321 v -26 h 16.8 v 5.76 h -9.92 v 4.08 h 8.48 v 5.76 h -8.48 v 4.64 h 10.32 v 5.76 z"
         style="font-weight:900;font-family:'Source Sans Pro';-inkscape-font-specification:'Source Sans Pro Heavy'"
         id="path8060" />
      <path
         d="m -213.40003,238.49321 v -26 h 6.88 v 9.68 h 7.76 v -9.68 h 6.88 v 26 h -6.88 v -10.32 h -7.76 v 10.32 z"
         style="font-weight:900;font-family:'Source Sans Pro';-inkscape-font-specification:'Source Sans Pro Heavy'"
         id="path8062" />
      <path
         d="m -179.40006,225.85321 -0.44,1.8 h 4.8 l -0.44,-1.8 q -0.48,-1.88 -0.96,-4.08 -0.48,-2.2 -0.96,-4.16 h -0.16 q -0.44,2 -0.92,4.2 -0.44,2.16 -0.92,4.04 z m -10,12.64 7.92,-26 h 8.32 l 7.92,26 h -7.28 l -1.28,-5.52 h -7.28 l -1.28,5.52 z"
         style="font-weight:900;font-family:'Source Sans Pro';-inkscape-font-specification:'Source Sans Pro Heavy'"
         id="path8064" />
      <path
         d="m -159.16009,238.49321 -7.68,-26 h 7.28 l 2.72,11.36 q 0.56,2.08 0.96,4.12 0.4,2 0.96,4.12 h 0.16 q 0.56,-2.12 0.96,-4.12 0.44,-2.04 0.96,-4.12 l 2.64,-11.36 h 7.04 l -7.68,26 z"
         style="font-weight:900;font-family:'Source Sans Pro';-inkscape-font-specification:'Source Sans Pro Heavy'"
         id="path8066" />
      <path
         d="m -140.68015,238.49321 v -26 h 6.88 v 26 z"
         style="font-weight:900;font-family:'Source Sans Pro';-inkscape-font-specification:'Source Sans Pro Heavy'"
         id="path8068" />
      <path
         d="m -128.04015,238.49321 v -26 h 7.04 l 5.76,11.6 2.48,5.84 h 0.16 q -0.12,-1.04 -0.28,-2.28 -0.16,-1.24 -0.28,-2.52 -0.12,-1.32 -0.24,-2.6 -0.08,-1.32 -0.08,-2.52 v -7.52 h 6.56 v 26 h -7.04 l -5.76,-11.64 -2.48,-5.8 h -0.16 q 0.24,2.24 0.56,4.88 0.32,2.64 0.32,5.04 v 7.52 z"
         style="font-weight:900;font-family:'Source Sans Pro';-inkscape-font-specification:'Source Sans Pro Heavy'"
         id="path8070" />
      <path
         d="m -89.160192,238.97321 q -2.72,0 -5.12,-0.8 -2.4,-0.84 -4.2,-2.48 -1.759998,-1.68 -2.799998,-4.16 -1,-2.52 -1,-5.84 0,-3.28 1.04,-5.8 1.04,-2.56 2.799998,-4.28 1.8,-1.76 4.16,-2.68 2.36,-0.92 4.96,-0.92 2.88,0 4.96,1.04 2.12,1 3.52,2.4 l -3.6,4.4 q -0.96,-0.84 -2.04,-1.36 -1.04,-0.56 -2.6,-0.56 -1.32,0 -2.44,0.52 -1.12,0.52 -1.96,1.48 -0.84,0.96 -1.32,2.36 -0.44,1.4 -0.44,3.16 0,3.68 1.64,5.64 1.64,1.96 5.16,1.96 0.56,0 1.08,-0.12 0.56,-0.12 0.92,-0.36 v -3.6 h -3.84 v -5.6 h 9.92 v 12.4 q -1.4,1.32 -3.72,2.28 -2.32,0.92 -5.08,0.92 z"
         style="font-weight:900;font-family:'Source Sans Pro';-inkscape-font-specification:'Source Sans Pro Heavy'"
         id="path8072" />
    </g>
  </g>
</svg>
