<?xml version="1.0" encoding="UTF-8" standalone="no"?>
<svg
   width="200"
   height="200"
   viewBox="0 0 52.916668 52.916666"
   version="1.1"
   id="svg8"
   inkscape:version="1.1 (c68e22c387, 2021-05-23)"
   sodipodi:docname="boring.svg"
   xmlns:inkscape="http://www.inkscape.org/namespaces/inkscape"
   xmlns:sodipodi="http://sodipodi.sourceforge.net/DTD/sodipodi-0.dtd"
   xmlns="http://www.w3.org/2000/svg"
   xmlns:svg="http://www.w3.org/2000/svg"
   xmlns:rdf="http://www.w3.org/1999/02/22-rdf-syntax-ns#"
   xmlns:cc="http://creativecommons.org/ns#"
   xmlns:dc="http://purl.org/dc/elements/1.1/">
  <defs
     id="defs2">
    <rect
       x="-140"
       y="219"
       width="292.5"
       height="90"
       id="rect3890" />
    <rect
       x="-247"
       y="42"
       width="137"
       height="81.5"
       id="rect1185" />
    <rect
       x="-48.175333"
       y="18.9895"
       width="46.117357"
       height="15.996081"
       id="rect880" />
    <rect
       x="-255.23004"
       y="125.83378"
       width="102.52459"
       height="46.959256"
       id="rect873" />
    <inkscape:path-effect
       effect="envelope"
       id="path-effect4658"
       is_visible="true"
       yy="true"
       xx="true"
       bendpath1="m -199.08406,108.42369 h 7.0057"
       bendpath2="m -192.07836,108.42369 v 6.75242"
       bendpath3="m -199.08406,115.17611 h 7.0057"
       bendpath4="m -199.08406,108.42369 v 6.75242" />
    <inkscape:path-effect
       effect="bend_path"
       id="path-effect4656"
       is_visible="true"
       bendpath="m -192.00142,114.60623 c 2.12577,-0.53066 4.48261,0.85111 7.0057,0"
       prop_scale="1"
       scale_y_rel="false"
       vertical="false"
       bendpath-nodetypes="cc" />
    <inkscape:path-effect
       effect="bounding_box"
       id="path-effect4654"
       is_visible="true"
       linkedpath=""
       visualbounds="false" />
    <linearGradient
       id="linearGradient3288"
       inkscape:swatch="solid">
      <stop
         style="stop-color:#000000;stop-opacity:1;"
         offset="0"
         id="stop3286" />
    </linearGradient>
    <linearGradient
       id="linearGradient1364"
       inkscape:swatch="solid">
      <stop
         style="stop-color:#ffffff;stop-opacity:1;"
         offset="0"
         id="stop1362" />
    </linearGradient>
    <rect
       x="293.80286"
       y="272.58966"
       width="25.455845"
       height="37.830212"
       id="rect1056" />
    <rect
       x="222.73865"
       y="266.22571"
       width="47.376156"
       height="54.09367"
       id="rect1050" />
    <rect
       x="139.30003"
       y="246.42671"
       width="58.336308"
       height="48.790367"
       id="rect1044" />
    <rect
       x="131.1683"
       y="203.64674"
       width="61.871841"
       height="73.892654"
       id="rect1038" />
    <rect
       x="81.67083"
       y="193.04015"
       width="63.63961"
       height="55.507881"
       id="rect1032" />
    <rect
       x="83.085045"
       y="274.35742"
       width="44.194176"
       height="38.890873"
       id="rect1026" />
    <rect
       x="3.5355339"
       y="269.05414"
       width="65.760933"
       height="53.386562"
       id="rect1020" />
    <rect
       x="14.142136"
       y="226.27417"
       width="79.195961"
       height="62.932503"
       id="rect1014" />
    <rect
       x="11.313708"
       y="171.82695"
       width="36.416"
       height="51.618793"
       id="rect1008" />
    <rect
       x="3.1819806"
       y="132.22897"
       width="102.88404"
       height="102.53048"
       id="rect1002" />
  </defs>
  <sodipodi:namedview
     id="base"
     pagecolor="#ffffff"
     bordercolor="#666666"
     borderopacity="1.0"
     inkscape:pageopacity="0.0"
     inkscape:pageshadow="2"
     inkscape:zoom="2"
     inkscape:cx="58"
     inkscape:cy="141.75"
     inkscape:document-units="mm"
     inkscape:current-layer="layer1"
     showgrid="false"
     fit-margin-top="0"
     fit-margin-left="0"
     fit-margin-right="0"
     fit-margin-bottom="0"
     inkscape:window-width="1920"
     inkscape:window-height="1017"
     inkscape:window-x="-8"
     inkscape:window-y="-8"
     inkscape:window-maximized="1"
     showguides="false"
     inkscape:object-nodes="true"
     units="px"
     inkscape:snap-page="true"
     inkscape:document-rotation="0"
     inkscape:pagecheckerboard="1" />
  <metadata
     id="metadata5">
    <rdf:RDF>
      <cc:Work
         rdf:about="">
        <dc:format>image/svg+xml</dc:format>
        <dc:type
           rdf:resource="http://purl.org/dc/dcmitype/StillImage" />
      </cc:Work>
    </rdf:RDF>
  </metadata>
  <g
     inkscape:label="Base"
     inkscape:groupmode="layer"
     id="layer1"
     transform="translate(249.80447,-91.409467)">
    <rect
       y="91.40947"
       x="-249.80447"
       height="52.916668"
       width="52.916668"
       id="rect5238-5"
       style="display:inline;fill:#000000;fill-opacity:1;fill-rule:nonzero;stroke:none;stroke-width:0.5;stroke-linecap:butt;stroke-linejoin:round;stroke-miterlimit:4;stroke-dasharray:none;stroke-dashoffset:0;stroke-opacity:0.909449;paint-order:normal"
       rx="14.552089"
       ry="14.552081"
       inkscape:label="Bottom-rectangle" />
    <path
       id="rect18865"
       style="display:inline;fill:#f5dd00;fill-opacity:1;stroke-width:0.450003;stroke-linejoin:round;stroke-opacity:0.909449"
       d="m -234.06184,94.055153 h 21.43138 c 7.25572,0 13.09696,5.841242 13.09696,13.096957 v 21.43139 h -47.6253 v -21.43139 c 0,-7.255715 5.84125,-13.096957 13.09696,-13.096957 z"
       sodipodi:nodetypes="sssccss"
       inkscape:label="Inner-rectangle" />
    <g
       id="g73484"
       transform="matrix(0.75978305,0,0,0.75978305,-339.04985,65.560639)"
       style="fill:#000000;fill-opacity:1;stroke-width:1.41569"
       inkscape:label="Drawing">
      <path
         id="path73473"
         style="fill:#000000;fill-opacity:1;stroke-width:1.41569"
         d="m 152.56988,69.685582 c 1.43066,-0.424603 2.86981,0.435678 4.30195,0.57173 1.11508,0.508743 3.47487,-0.147996 3.573,1.482165 -0.0127,1.259087 0.23669,2.653605 -0.4499,3.781055 -2.06611,-0.262403 -4.13166,-0.707133 -6.19373,-1.06594 -1.77528,-0.311553 -3.61375,-0.3522 -5.34884,-0.83685 0.97943,-1.498002 2.67253,-2.342872 3.82233,-3.713006 l 0.12833,-0.10572 0.1666,-0.113461" />
      <path
         id="path73471"
         style="fill:#000000;fill-opacity:1;stroke-width:1.41569"
         d="m 148.32386,68.860013 c 0.72631,-0.123081 3.50045,-0.0095 2.215,1.178045 -1.47044,0.951511 -2.42614,2.554566 -4.02238,3.319702 -0.86413,-0.0082 -3.59377,-0.188251 -1.79462,-1.198973 1.20772,-1.083382 2.18937,-2.472396 3.60221,-3.298776" />
      <path
         id="path73469"
         style="fill:#000000;fill-opacity:1;stroke-width:1.41569"
         d="m 135.50654,67.377923 c 1.35121,-0.692431 2.98656,0.215045 4.45805,0.01521 1.57149,0.03219 3.14219,0.276251 4.66733,0.63525 0.87499,0.873191 -1.37865,1.45454 -1.75244,2.258967 -1.10467,0.484039 -1.68397,1.800286 -2.63559,2.308011 -1.73517,-0.467757 -3.59812,-0.333922 -5.30218,-0.86453 -0.0697,-1.3761 -0.042,-3.073267 0.56483,-4.352879" />
      <path
         id="path73467"
         style="fill:#000000;fill-opacity:1;stroke-width:1.41569"
         d="m 152.02522,39.292602 c 1.77809,-0.46627 3.66125,-0.114636 5.4261,0.238943 1.8733,0.579787 3.73043,1.185831 5.5055,2.028528 2.51377,1.164685 5.16486,2.143583 7.36729,3.870312 0.33742,1.343387 -0.41724,2.704262 -0.652,4.030392 -0.86485,2.884371 -2.38873,5.512318 -3.24261,8.397347 -0.22421,1.221715 -0.98311,2.660012 -0.61636,3.814509 1.03543,0.72767 2.40085,0.991602 3.25309,1.960122 0.26198,1.277089 -0.12026,3.043709 -0.76187,3.949837 -1.92198,-0.587743 -0.63115,1.690258 -0.42442,2.597504 0.56746,2.015753 0.89451,4.095684 0.7916,6.194367 0.0378,1.95523 -0.3489,3.914556 -0.9215,5.771726 -0.78251,1.473763 -1.73188,3.150714 -3.42656,3.664722 -3.34822,0.210473 -6.71475,0.05538 -10.07102,0.10302 -1.86463,-0.01901 -3.74052,0.102099 -5.57797,-0.24672 -2.53941,0.03822 -4.91918,-1.018255 -7.4164,-1.26918 -2.23183,-0.308937 -4.37708,-1.666505 -5.15567,-3.853865 -0.92686,-1.927611 -0.81157,-4.10191 -0.7214,-6.181426 0.1527,-1.789599 2.35691,-1.041115 3.53305,-0.916877 2.64225,0.416959 5.29276,0.67678 7.93191,1.08164 2.09176,0.317135 4.1853,0.716705 6.29791,0.90268 2.29372,0.419327 4.59072,0.867121 6.89504,1.2089 1.79433,0.34806 1.33631,-2.156285 1.4909,-3.263628 -0.0782,-1.09038 0.19423,-2.264275 -0.22532,-3.282641 -1.56629,-0.604789 -3.30085,-0.67033 -4.93614,-1.06213 -3.8553,-0.921665 -7.81716,-1.219524 -11.67687,-2.13479 -1.90367,-0.344342 -3.82407,-0.632596 -5.76763,-0.56937 -1.94388,0.183375 -1.47097,-1.881303 -0.74246,-2.917447 1.00332,-1.648104 2.31795,-3.099394 3.86794,-4.245716 0.66278,-0.991681 -1.907,-1.019607 -1.83507,-2.17394 0.66814,-0.929366 1.00505,-2.387082 2.18008,-2.765317 1.19168,-0.242299 2.70584,1.242614 3.6717,0.245133 0.53759,-1.543365 0.77591,-3.179253 1.3572,-4.716564 0.631,-2.354299 1.54737,-4.615322 2.42919,-6.88176 0.67531,-1.229764 0.85664,-2.799299 2.17526,-3.578222" />
    </g>
    <path
       id="rect19240"
       style="display:inline;fill:#000000;stroke-width:0.5;stroke-linejoin:round;stroke-opacity:0.909449"
       d="m -196.88781,128.58347 v 1.19059 c 0,8.06185 -6.49023,14.55208 -14.55208,14.55208 h -23.8125 c -8.06185,0 -14.55208,-6.49023 -14.55208,-14.55208 v -1.19059 z"
       sodipodi:nodetypes="csssscc"
       inkscape:label="Bottom-label" />
    <g
       aria-label="BORING"
       transform="matrix(0.27676665,0,0,0.27676665,-204.4485,69.340771)"
       id="text3888"
       style="font-size:40px;line-height:1.25;white-space:pre;shape-inside:url(#rect3890);fill:#f5dd00">
      <path
         d="m -137.12,255.49321 v -26 h 9.36 q 2.04,0 3.84,0.32 1.8,0.28 3.12,1 1.32,0.72 2.08,2 0.8,1.24 0.8,3.16 0,0.84 -0.24,1.72 -0.24,0.84 -0.68,1.64 -0.4,0.76 -1,1.36 -0.6,0.6 -1.36,0.88 v 0.16 q 1.88,0.56 3.16,2.04 1.32,1.44 1.32,4.04 0,2 -0.84,3.48 -0.8,1.44 -2.2,2.4 -1.36,0.92 -3.24,1.36 -1.88,0.44 -3.96,0.44 z m 6.88,-15.84 h 2.32 q 1.68,0 2.48,-0.72 0.8,-0.72 0.8,-1.92 0,-1.2 -0.8,-1.72 -0.8,-0.52 -2.48,-0.52 h -2.32 z m 0,10.56 h 2.8 q 4,0 4,-2.88 0,-1.44 -1,-2.04 -0.96,-0.6 -3,-0.6 h -2.8 z"
         style="font-weight:900;font-family:'Source Sans Pro';-inkscape-font-specification:'Source Sans Pro Heavy'"
         id="path7790" />
      <path
         d="m -101.68002,255.97321 q -2.72,0 -4.96,-0.92 -2.2,-0.92 -3.8,-2.64 -1.56,-1.76 -2.44,-4.28 -0.88,-2.56 -0.88,-5.76 0,-3.2 0.88,-5.68 0.88,-2.52 2.44,-4.2 1.6,-1.72 3.8,-2.6 2.24,-0.88 4.96,-0.88 2.68,0 4.92,0.88 2.24,0.88 3.8,2.6 1.6,1.72 2.48,4.2 0.88,2.48 0.88,5.68 0,3.2 -0.88,5.76 -0.88,2.52 -2.48,4.28 -1.56,1.72 -3.8,2.64 -2.24,0.92 -4.92,0.92 z m 0,-5.92 q 2.36,0 3.68,-2.04 1.36,-2.08 1.36,-5.64 0,-3.56 -1.36,-5.48 -1.32,-1.96 -3.68,-1.96 -2.36,0 -3.72,1.96 -1.32,1.92 -1.32,5.48 0,3.56 1.32,5.64 1.36,2.04 3.72,2.04 z"
         style="font-weight:900;font-family:'Source Sans Pro';-inkscape-font-specification:'Source Sans Pro Heavy'"
         id="path7792" />
      <path
         d="m -84.960042,255.49321 v -26 h 9.84 q 2.08,0 3.96,0.4 1.92,0.4 3.32,1.36 1.44,0.96 2.28,2.6 0.84,1.6 0.84,4.04 0,2.8 -1.16,4.64 -1.12,1.84 -3.04,2.88 l 5.64,10.08 h -7.68 l -4.48,-8.72 h -2.64 v 8.72 z m 6.88,-14.16 h 2.48 q 4.16,0 4.16,-3.44 0,-1.68 -1.08,-2.32 -1.04,-0.64 -3.08,-0.64 h -2.48 z"
         style="font-weight:900;font-family:'Source Sans Pro';-inkscape-font-specification:'Source Sans Pro Heavy'"
         id="path7794" />
      <path
         d="m -59.760076,255.49321 v -26 h 6.88 v 26 z"
         style="font-weight:900;font-family:'Source Sans Pro';-inkscape-font-specification:'Source Sans Pro Heavy'"
         id="path7796" />
      <path
         d="m -47.120076,255.49321 v -26 h 7.04 l 5.76,11.6 2.48,5.84 h 0.16 q -0.12,-1.04 -0.28,-2.28 -0.16,-1.24 -0.28,-2.52 -0.12,-1.32 -0.24,-2.6 -0.08,-1.32 -0.08,-2.52 v -7.52 h 6.56 v 26 h -7.04 l -5.76,-11.64 -2.48,-5.8 h -0.16 q 0.24,2.24 0.56,4.88 0.32,2.64 0.32,5.04 v 7.52 z"
         style="font-weight:900;font-family:'Source Sans Pro';-inkscape-font-specification:'Source Sans Pro Heavy'"
         id="path7798" />
      <path
         d="m -8.2401172,255.97321 q -2.7199998,0 -5.1199998,-0.8 -2.4,-0.84 -4.2,-2.48 -1.76,-1.68 -2.8,-4.16 -1,-2.52 -1,-5.84 0,-3.28 1.04,-5.8 1.04,-2.56 2.8,-4.28 1.8,-1.76 4.16,-2.68 2.36,-0.92 4.9599998,-0.92 2.88,0 4.96,1.04 2.12,1 3.52000001,2.4 l -3.60000001,4.4 q -0.96,-0.84 -2.04,-1.36 -1.04,-0.56 -2.6,-0.56 -1.32,0 -2.4399998,0.52 -1.12,0.52 -1.96,1.48 -0.84,0.96 -1.32,2.36 -0.44,1.4 -0.44,3.16 0,3.68 1.64,5.64 1.64,1.96 5.1599998,1.96 0.56,0 1.08,-0.12 0.56,-0.12 0.92,-0.36 v -3.6 h -3.84 v -5.6 h 9.92000001 v 12.4 q -1.4,1.32 -3.72000001,2.28 -2.32,0.92 -5.08,0.92 z"
         style="font-weight:900;font-family:'Source Sans Pro';-inkscape-font-specification:'Source Sans Pro Heavy'"
         id="path7800" />
    </g>
  </g>
</svg>
