<svg width="200" height="200" viewBox="0 0 52.917 52.917" xmlns="http://www.w3.org/2000/svg"><defs><path id="a" d="M-140 219h292.5v90H-140z"/></defs><g transform="translate(249.804 -91.41)"><rect y="91.409" x="-249.804" height="52.917" width="52.917" style="display:inline;fill:#000;fill-opacity:1;fill-rule:nonzero;stroke:none;stroke-width:.5;stroke-linecap:butt;stroke-linejoin:round;stroke-miterlimit:4;stroke-dasharray:none;stroke-dashoffset:0;stroke-opacity:.909449;paint-order:normal" rx="14.552" ry="14.552"/><path style="display:inline;fill:#f5dd00;fill-opacity:1;stroke-width:.450003;stroke-linejoin:round;stroke-opacity:.909449" d="M-234.062 94.055h21.432a13.068 13.068 0 0 1 13.096 13.097v21.432h-47.625v-21.432a13.068 13.068 0 0 1 13.097-13.097z"/><g style="fill:#000;fill-opacity:1;stroke-width:1.41569"><path style="fill:#000;fill-opacity:1;stroke-width:1.41569" d="M152.57 69.686c1.43-.425 2.87.435 4.302.571 1.115.51 3.475-.148 3.573 1.482-.013 1.26.237 2.654-.45 3.782-2.066-.263-4.132-.708-6.194-1.066-1.775-.312-3.614-.353-5.349-.837.98-1.498 2.673-2.343 3.823-3.713l.128-.106.167-.113M148.324 68.86c.726-.123 3.5-.01 2.215 1.178-1.47.952-2.426 2.555-4.023 3.32-.864-.008-3.593-.188-1.794-1.2 1.208-1.083 2.19-2.472 3.602-3.298M135.507 67.378c1.35-.693 2.986.215 4.458.015 1.571.032 3.142.276 4.667.635.875.874-1.379 1.455-1.753 2.26-1.104.483-1.683 1.8-2.635 2.307-1.735-.467-3.598-.334-5.302-.864-.07-1.376-.042-3.073.565-4.353" transform="matrix(.75978 0 0 .75978 -339.05 65.56)"/><path style="fill:#000;fill-opacity:1;stroke-width:1.41569" d="M152.025 39.293c1.778-.467 3.661-.115 5.426.239 1.874.58 3.73 1.185 5.506 2.028 2.514 1.165 5.165 2.144 7.367 3.87.338 1.344-.417 2.705-.652 4.03-.865 2.885-2.389 5.513-3.242 8.398-.225 1.222-.984 2.66-.617 3.815 1.036.727 2.401.991 3.253 1.96.262 1.277-.12 3.043-.762 3.95-1.922-.588-.63 1.69-.424 2.597.567 2.016.894 4.096.792 6.194.037 1.956-.35 3.915-.922 5.772-.782 1.474-1.732 3.15-3.427 3.665-3.348.21-6.714.055-10.07.103-1.865-.02-3.741.102-5.579-.247-2.539.038-4.919-1.018-7.416-1.269-2.232-.309-4.377-1.666-5.156-3.854-.926-1.927-.811-4.102-.721-6.181.153-1.79 2.357-1.041 3.533-.917 2.642.417 5.293.677 7.932 1.082 2.092.317 4.185.716 6.298.902 2.294.42 4.59.867 6.895 1.21 1.794.347 1.336-2.157 1.49-3.265-.077-1.09.195-2.264-.224-3.282-1.567-.605-3.301-.67-4.937-1.062-3.855-.922-7.817-1.22-11.676-2.135-1.904-.344-3.825-.633-5.768-.57-1.944.184-1.471-1.88-.743-2.917a14.957 14.957 0 0 1 3.868-4.246c.663-.991-1.907-1.02-1.835-2.174.668-.929 1.005-2.387 2.18-2.765 1.192-.242 2.706 1.243 3.672.245.538-1.543.776-3.179 1.357-4.716.631-2.355 1.548-4.616 2.43-6.882.675-1.23.856-2.8 2.175-3.578" transform="matrix(.75978 0 0 .75978 -339.05 65.56)"/></g><path style="display:inline;fill:#000;stroke-width:.5;stroke-linejoin:round;stroke-opacity:.909449" d="M-196.888 128.583v1.191a14.52 14.52 0 0 1-14.552 14.552h-23.812a14.52 14.52 0 0 1-14.552-14.552v-1.19z"/><g aria-label="BORING" transform="matrix(.27677 0 0 .27677 -204.448 69.34)" style="font-size:40px;line-height:1.25;white-space:pre;shape-inside:url(#a);fill:#f5dd00"><path d="M-137.12 255.493v-26h9.36q2.04 0 3.84.32 1.8.28 3.12 1t2.08 2q.8 1.24.8 3.16 0 .84-.24 1.72-.24.84-.68 1.64-.4.76-1 1.36-.6.6-1.36.88v.16q1.88.56 3.16 2.04 1.32 1.44 1.32 4.04 0 2-.84 3.48-.8 1.44-2.2 2.4-1.36.92-3.24 1.36-1.88.44-3.96.44zm6.88-15.84h2.32q1.68 0 2.48-.72t.8-1.92q0-1.2-.8-1.72t-2.48-.52h-2.32zm0 10.56h2.8q4 0 4-2.88 0-1.44-1-2.04-.96-.6-3-.6h-2.8zM-101.68 255.973q-2.72 0-4.96-.92-2.2-.92-3.8-2.64-1.56-1.76-2.44-4.28-.88-2.56-.88-5.76 0-3.2.88-5.68.88-2.52 2.44-4.2 1.6-1.72 3.8-2.6 2.24-.88 4.96-.88 2.68 0 4.92.88 2.24.88 3.8 2.6 1.6 1.72 2.48 4.2.88 2.48.88 5.68 0 3.2-.88 5.76-.88 2.52-2.48 4.28-1.56 1.72-3.8 2.64-2.24.92-4.92.92zm0-5.92q2.36 0 3.68-2.04 1.36-2.08 1.36-5.64 0-3.56-1.36-5.48-1.32-1.96-3.68-1.96-2.36 0-3.72 1.96-1.32 1.92-1.32 5.48 0 3.56 1.32 5.64 1.36 2.04 3.72 2.04zM-84.96 255.493v-26h9.84q2.08 0 3.96.4 1.92.4 3.32 1.36 1.44.96 2.28 2.6.84 1.6.84 4.04 0 2.8-1.16 4.64-1.12 1.84-3.04 2.88l5.64 10.08h-7.68l-4.48-8.72h-2.64v8.72zm6.88-14.16h2.48q4.16 0 4.16-3.44 0-1.68-1.08-2.32-1.04-.64-3.08-.64h-2.48zM-59.76 255.493v-26h6.88v26zM-47.12 255.493v-26h7.04l5.76 11.6 2.48 5.84h.16q-.12-1.04-.28-2.28-.16-1.24-.28-2.52-.12-1.32-.24-2.6-.08-1.32-.08-2.52v-7.52H-26v26h-7.04l-5.76-11.64-2.48-5.8h-.16q.24 2.24.56 4.88.32 2.64.32 5.04v7.52zM-8.24 255.973q-2.72 0-5.12-.8-2.4-.84-4.2-2.48-1.76-1.68-2.8-4.16-1-2.52-1-5.84 0-3.28 1.04-5.8 1.04-2.56 2.8-4.28 1.8-1.76 4.16-2.68 2.36-.92 4.96-.92 2.88 0 4.96 1.04 2.12 1 3.52 2.4l-3.6 4.4q-.96-.84-2.04-1.36-1.04-.56-2.6-.56-1.32 0-2.44.52-1.12.52-1.96 1.48-.84.96-1.32 2.36-.44 1.4-.44 3.16 0 3.68 1.64 5.64 1.64 1.96 5.16 1.96.56 0 1.08-.12.56-.12.92-.36v-3.6h-3.84v-5.6H.56v12.4q-1.4 1.32-3.72 2.28-2.32.92-5.08.92z" style="font-weight:900;font-family:'Source Sans Pro';-inkscape-font-specification:'Source Sans Pro Heavy'"/></g></g></svg>