<svg width="200" height="200" viewBox="0 0 52.917 52.917" xmlns="http://www.w3.org/2000/svg"><defs><path id="a" d="M-188 130.5h290v130h-290z"/></defs><g transform="translate(249.804 -91.41)"><rect y="91.409" x="-249.804" height="52.917" width="52.917" style="display:inline;fill:#000;fill-opacity:1;fill-rule:nonzero;stroke:none;stroke-width:.5;stroke-linecap:butt;stroke-linejoin:round;stroke-miterlimit:4;stroke-dasharray:none;stroke-dashoffset:0;stroke-opacity:.909449;paint-order:normal" rx="14.552" ry="14.552"/><path style="display:inline;fill:#fff;stroke-width:.450003;stroke-linejoin:round;stroke-opacity:.909449" d="M-212.63 94.055a13.068 13.068 0 0 1 13.096 13.097v21.432h-13.096z"/><path style="display:inline;fill:#01411c;fill-opacity:1;stroke-width:.450003;stroke-linejoin:round;stroke-opacity:.909449" d="M-234.062 94.055h21.432v34.528h-34.529v-21.43a13.068 13.068 0 0 1 13.097-13.098z"/><path style="fill:#000;stroke-width:.281129" d="M-226.984 132.306c-3.181-.54-6.492-1.637-8.826-3.956-1.226-1.724-2.484-3.65-2.34-5.864.022-2.91-.269-5.864.218-8.746.885-1.645 3.288-.472 4.847-.64 6.727.715 13.5.276 20.23-.141 1.984-.701 4.018.485 3.869 2.705.391 3.095.584 6.305-.124 9.366-.732 2.497-1.985 5.125-4.495 6.246-.979.384-1.851 1.224-2.96 1.07-3.472.008-6.949.112-10.42-.04zm12.25-10.441c1.08-1.379 1.452-3.539.767-5.107-1.827-.17-3.645.428-5.46.657l-1.935.325c-.125 1.483-.28 3.268 1.112 4.239 1.39 1.268 3.821 1.216 5.277.14zm-11.496.234c1.034-1.036 1.768-2.91 1.02-4.263-1.787-.572-3.697-.804-5.523-1.291-1.268-.508-2.668-.331-2.29 1.37-.306 1.813.687 3.635 2.404 4.315 1.353.47 3.135.7 4.389-.131zm-8.204-10.027c-2.026-.278-4.155-.183-6.082-.924-1.8-1.58-1.858-4.68-.446-6.54 1.992-.484 1.14 2.937 2.43 3.872 2.3 1.425 5.162 1.416 7.78 1.67 1.658.079 3.319.133 4.979.2 1.34-1.344 2.437-3.053 4.299-3.718 2.676-1.847 5.921-2.6 9.037-3.36 1.986-.796 3.932.64 4.86 2.33.746 1.585 1.282 4.246-.572 5.27-2.824 1.697-6.26 1.207-9.402 1.444-5.626.093-11.267.155-16.883-.244zm-.55-3.636c-1.597-.315-3.891-.895-3.284-3.038.328-2.806.878-5.853 2.816-8.03 2.737-2.95 7.231-3.442 10.91-2.223 2.469.436 4.932-.408 7.402-.5 2.198-.327 4.011 1.43 5.244 3.038.847 1.082 1.181 2.45 1.077 3.804-3.68.87-7.508 1.573-10.788 3.537-1.624 1.302-3.14 2.731-4.686 4.123-2.91-.036-5.85.05-8.69-.711zm9.449-1.89c.266-.372 1.387-1.044 1.07-1.21-4.142-.29-8.278-.745-12.429-.824-1.427 1.998 1.615 2.38 2.982 2.7 2.318.62 4.727.495 7.101.529l1.276-1.195z"/><path style="display:inline;fill:#000;stroke-width:.5;stroke-linejoin:round;stroke-opacity:.909449" d="M-196.888 128.583v1.191a14.52 14.52 0 0 1-14.552 14.552h-23.812a14.52 14.52 0 0 1-14.552-14.552v-1.19z"/><g aria-label="COMMUNITY" transform="matrix(.24093 0 0 .24093 -197.812 100.863)" style="font-size:29.3333px;line-height:1.25;white-space:pre;shape-inside:url(#a);fill:#01411c"><path d="M-177.616 157.614q-1.819 0-3.49-.587-1.643-.616-2.905-1.819-1.232-1.232-1.965-3.05-.733-1.848-.733-4.283 0-2.405.762-4.253.763-1.878 2.024-3.139 1.291-1.29 2.934-1.965 1.672-.675 3.49-.675 1.907 0 3.403.763 1.496.733 2.523 1.76l-2.64 3.226q-.704-.616-1.467-.997-.733-.41-1.701-.41-.851 0-1.614.38-.733.382-1.32 1.086-.557.704-.909 1.73-.323 1.027-.323 2.318 0 2.699 1.115 4.136 1.144 1.437 2.992 1.437 1.115 0 1.965-.469.88-.499 1.496-1.173l2.64 3.168q-1.232 1.408-2.845 2.112-1.584.704-3.432.704zM-161.835 157.614q-1.994 0-3.637-.675-1.613-.675-2.787-1.936-1.144-1.29-1.79-3.139-.644-1.877-.644-4.224 0-2.346.645-4.165.645-1.848 1.79-3.08 1.173-1.261 2.786-1.907 1.643-.645 3.637-.645 1.966 0 3.608.645 1.643.646 2.787 1.907 1.173 1.261 1.819 3.08.645 1.819.645 4.165 0 2.347-.645 4.224-.646 1.848-1.82 3.139-1.143 1.261-2.786 1.936-1.642.675-3.608.675zm0-4.342q1.73 0 2.699-1.496.997-1.525.997-4.136 0-2.61-.997-4.018-.968-1.438-2.699-1.438-1.73 0-2.728 1.438-.968 1.408-.968 4.018 0 2.611.968 4.136.998 1.496 2.728 1.496zM-149.573 157.262v-19.067h5.397l2.875 7.803q.264.792.498 1.642.235.851.499 1.702h.117q.264-.851.499-1.702.235-.85.499-1.642l2.757-7.803h5.397v19.067h-4.576v-5.632q0-.734.059-1.614.088-.88.176-1.789.088-.939.205-1.819.118-.88.206-1.584h-.118l-1.584 4.576-2.346 6.307h-2.7l-2.346-6.307-1.525-4.576h-.117q.088.704.205 1.584.117.88.205 1.819.088.91.147 1.79.088.88.088 1.613v5.632zM-126.81 157.262v-19.067h5.396l2.875 7.803q.264.792.499 1.642.234.851.498 1.702h.118q.264-.851.498-1.702.235-.85.5-1.642l2.756-7.803h5.398v19.067h-4.576v-5.632q0-.734.058-1.614.088-.88.176-1.789.088-.939.206-1.819.117-.88.205-1.584h-.117l-1.584 4.576-2.347 6.307h-2.698l-2.347-6.307-1.525-4.576h-.118q.088.704.206 1.584.117.88.205 1.819.088.91.147 1.79.088.88.088 1.613v5.632zM-96.246 157.614q-4.018 0-5.984-2.318-1.936-2.346-1.936-7.245v-9.856h5.046v10.443q0 2.552.674 3.608.704 1.026 2.2 1.026 1.496 0 2.2-1.026.734-1.056.734-3.608v-10.443h4.87v9.856q0 4.899-1.908 7.245-1.906 2.318-5.896 2.318zM-84.336 157.262v-19.067h5.162l4.224 8.507 1.819 4.282h.117q-.088-.762-.205-1.672-.117-.909-.205-1.848-.088-.968-.176-1.906-.059-.968-.059-1.848v-5.515h4.81v19.067h-5.162l-4.224-8.536-1.819-4.254h-.117q.176 1.643.41 3.579.235 1.936.235 3.696v5.515z" style="font-weight:900;font-family:'Source Sans Pro';-inkscape-font-specification:'Source Sans Pro Heavy'"/><path d="M-64.624 157.262v-19.067h5.045v19.067zM-51.718 157.262v-14.843h-5.045v-4.224h15.136v4.224h-5.045v14.843z" style="font-weight:900;font-family:'Source Sans Pro';-inkscape-font-specification:'Source Sans Pro Heavy';fill:#fff;fill-opacity:1"/><path d="M-36.054 157.262v-6.571l-5.75-12.496h5.398l1.408 3.99q.352 1.085.704 2.111l.734 2.142h.117l.733-2.142q.382-1.026.763-2.112l1.408-3.989h5.28l-5.75 12.496v6.57z" style="font-weight:900;font-family:'Source Sans Pro';-inkscape-font-specification:'Source Sans Pro Heavy';fill:#fff;fill-opacity:1"/></g></g></svg>