<?xml version="1.0" encoding="UTF-8" standalone="no"?>
<svg
   width="200"
   height="200"
   viewBox="0 0 52.916668 52.916666"
   version="1.1"
   id="svg8"
   inkscape:version="1.1 (c68e22c387, 2021-05-23)"
   sodipodi:docname="community.svg"
   xmlns:inkscape="http://www.inkscape.org/namespaces/inkscape"
   xmlns:sodipodi="http://sodipodi.sourceforge.net/DTD/sodipodi-0.dtd"
   xmlns="http://www.w3.org/2000/svg"
   xmlns:svg="http://www.w3.org/2000/svg"
   xmlns:rdf="http://www.w3.org/1999/02/22-rdf-syntax-ns#"
   xmlns:cc="http://creativecommons.org/ns#"
   xmlns:dc="http://purl.org/dc/elements/1.1/">
  <defs
     id="defs2">
    <rect
       x="-188"
       y="130.5"
       width="290"
       height="130"
       id="rect7090" />
    <rect
       x="-247"
       y="42"
       width="137"
       height="81.5"
       id="rect1185" />
    <rect
       x="-48.175333"
       y="18.9895"
       width="46.117357"
       height="15.996081"
       id="rect880" />
    <rect
       x="-255.23004"
       y="125.83378"
       width="102.52459"
       height="46.959256"
       id="rect873" />
    <inkscape:path-effect
       effect="envelope"
       id="path-effect4658"
       is_visible="true"
       yy="true"
       xx="true"
       bendpath1="m -199.08406,108.42369 h 7.0057"
       bendpath2="m -192.07836,108.42369 v 6.75242"
       bendpath3="m -199.08406,115.17611 h 7.0057"
       bendpath4="m -199.08406,108.42369 v 6.75242" />
    <inkscape:path-effect
       effect="bend_path"
       id="path-effect4656"
       is_visible="true"
       bendpath="m -192.00142,114.60623 c 2.12577,-0.53066 4.48261,0.85111 7.0057,0"
       prop_scale="1"
       scale_y_rel="false"
       vertical="false"
       bendpath-nodetypes="cc" />
    <inkscape:path-effect
       effect="bounding_box"
       id="path-effect4654"
       is_visible="true"
       linkedpath=""
       visualbounds="false" />
    <linearGradient
       id="linearGradient3288"
       inkscape:swatch="solid">
      <stop
         style="stop-color:#000000;stop-opacity:1;"
         offset="0"
         id="stop3286" />
    </linearGradient>
    <linearGradient
       id="linearGradient1364"
       inkscape:swatch="solid">
      <stop
         style="stop-color:#ffffff;stop-opacity:1;"
         offset="0"
         id="stop1362" />
    </linearGradient>
    <rect
       x="293.80286"
       y="272.58966"
       width="25.455845"
       height="37.830212"
       id="rect1056" />
    <rect
       x="222.73865"
       y="266.22571"
       width="47.376156"
       height="54.09367"
       id="rect1050" />
    <rect
       x="139.30003"
       y="246.42671"
       width="58.336308"
       height="48.790367"
       id="rect1044" />
    <rect
       x="131.1683"
       y="203.64674"
       width="61.871841"
       height="73.892654"
       id="rect1038" />
    <rect
       x="81.67083"
       y="193.04015"
       width="63.63961"
       height="55.507881"
       id="rect1032" />
    <rect
       x="83.085045"
       y="274.35742"
       width="44.194176"
       height="38.890873"
       id="rect1026" />
    <rect
       x="3.5355339"
       y="269.05414"
       width="65.760933"
       height="53.386562"
       id="rect1020" />
    <rect
       x="14.142136"
       y="226.27417"
       width="79.195961"
       height="62.932503"
       id="rect1014" />
    <rect
       x="11.313708"
       y="171.82695"
       width="36.416"
       height="51.618793"
       id="rect1008" />
    <rect
       x="3.1819806"
       y="132.22897"
       width="102.88404"
       height="102.53048"
       id="rect1002" />
  </defs>
  <sodipodi:namedview
     id="base"
     pagecolor="#ffffff"
     bordercolor="#666666"
     borderopacity="1.0"
     inkscape:pageopacity="0.0"
     inkscape:pageshadow="2"
     inkscape:zoom="2.8284272"
     inkscape:cx="31.466251"
     inkscape:cy="104.82858"
     inkscape:document-units="mm"
     inkscape:current-layer="layer1"
     showgrid="false"
     fit-margin-top="0"
     fit-margin-left="0"
     fit-margin-right="0"
     fit-margin-bottom="0"
     inkscape:window-width="1920"
     inkscape:window-height="1017"
     inkscape:window-x="-8"
     inkscape:window-y="-8"
     inkscape:window-maximized="1"
     showguides="false"
     inkscape:object-nodes="true"
     units="px"
     inkscape:snap-page="true"
     inkscape:document-rotation="0"
     inkscape:pagecheckerboard="1" />
  <metadata
     id="metadata5">
    <rdf:RDF>
      <cc:Work
         rdf:about="">
        <dc:format>image/svg+xml</dc:format>
        <dc:type
           rdf:resource="http://purl.org/dc/dcmitype/StillImage" />
      </cc:Work>
    </rdf:RDF>
  </metadata>
  <g
     inkscape:label="Base"
     inkscape:groupmode="layer"
     id="layer1"
     transform="translate(249.80447,-91.409467)">
    <rect
       y="91.40947"
       x="-249.80447"
       height="52.916668"
       width="52.916668"
       id="rect5238-5"
       style="display:inline;fill:#000000;fill-opacity:1;fill-rule:nonzero;stroke:none;stroke-width:0.5;stroke-linecap:butt;stroke-linejoin:round;stroke-miterlimit:4;stroke-dasharray:none;stroke-dashoffset:0;stroke-opacity:0.909449;paint-order:normal"
       rx="14.552089"
       ry="14.552081"
       inkscape:label="Bottom-rectangle" />
    <path
       id="rect18865"
       style="display:inline;fill:#ffffff;stroke-width:0.450003;stroke-linejoin:round;stroke-opacity:0.909449"
       d="m -212.63047,94.055153 c 7.25572,0 13.09697,5.841242 13.09697,13.096957 v 21.43139 h -13.09697 z"
       sodipodi:nodetypes="csccc"
       inkscape:label="Inner-rectangle" />
    <path
       id="path289"
       style="display:inline;fill:#01411c;fill-opacity:1;stroke-width:0.450003;stroke-linejoin:round;stroke-opacity:0.909449"
       d="m -234.06184,94.055153 21.43137,3.14e-4 V 128.5835 h -34.52833 v -21.43139 c 0,-7.255715 5.84125,-13.097063 13.09696,-13.096957 z"
       sodipodi:nodetypes="scccss"
       inkscape:label="Inner-rectangle-green" />
    <path
       style="fill:#000000;stroke-width:0.281129"
       d="m -226.98417,132.306 c -3.18087,-0.54005 -6.4922,-1.63699 -8.82554,-3.95642 -1.22622,-1.72323 -2.48458,-3.65035 -2.34105,-5.86389 0.0231,-2.91041 -0.26777,-5.86376 0.21908,-8.74574 0.88509,-1.64508 3.28763,-0.47149 4.8467,-0.6408 6.72695,0.71575 13.49968,0.27697 20.23023,-0.1404 1.98399,-0.70121 4.01804,0.48495 3.86855,2.70567 0.39135,3.09471 0.58442,6.30448 -0.1239,9.36592 -0.73147,2.49685 -1.98518,5.12439 -4.49455,6.24614 -0.97893,0.38377 -1.85131,1.2235 -2.95955,1.06937 -3.47297,0.008 -6.9495,0.11171 -10.41997,-0.0399 z m 12.25102,-10.44149 c 1.07931,-1.37848 1.451,-3.53831 0.76623,-5.1069 -1.82681,-0.16973 -3.64494,0.42796 -5.46007,0.65774 -0.64487,0.10834 -1.28973,0.2167 -1.9346,0.32505 -0.12516,1.48305 -0.27978,3.26715 1.11128,4.23818 1.39053,1.268 3.82128,1.2162 5.27772,0.14057 z m -11.49722,0.23422 c 1.03454,-1.03574 1.76837,-2.91058 1.02099,-4.26291 -1.78736,-0.57227 -3.69809,-0.80352 -5.52336,-1.29094 -1.26875,-0.5082 -2.66796,-0.33089 -2.28971,1.37028 -0.30664,1.81282 0.68683,3.63476 2.40349,4.31513 1.35295,0.46887 3.13449,0.6993 4.38859,-0.13156 z m -8.20372,-10.02626 c -2.02555,-0.27846 -4.15537,-0.18384 -6.08217,-0.92437 -1.80015,-1.57921 -1.85731,-4.68032 -0.44616,-6.5403 1.99205,-0.48395 1.14068,2.93761 2.43055,3.87224 2.30074,1.42533 5.16214,1.41584 7.779,1.67023 1.65934,0.0786 3.31976,0.13278 4.97958,0.20054 1.34036,-1.345 2.43758,-3.05414 4.29901,-3.71911 2.67595,-1.84718 5.92164,-2.59955 9.03699,-3.3588 1.98642,-0.79696 3.93236,0.64003 4.86122,2.32961 0.74544,1.58466 1.28156,4.2453 -0.57244,5.26999 -2.82426,1.69666 -6.26058,1.20697 -9.40275,1.44346 -5.62613,0.0935 -11.26693,0.15534 -16.88283,-0.24349 z m -0.5493,-3.63662 c -1.59731,-0.31452 -3.89167,-0.89479 -3.28511,-3.03746 0.32852,-2.80618 0.87804,-5.85312 2.81678,-8.02959 2.7365,-2.95027 7.23097,-3.44303 10.90925,-2.2241 2.46925,0.43621 4.93205,-0.40763 7.40262,-0.49942 2.19795,-0.32683 4.01112,1.4291 5.24355,3.03771 0.84693,1.08198 1.18177,2.44996 1.07707,3.80375 -3.68041,0.86966 -7.50799,1.57279 -10.78771,3.53768 -1.62408,1.30163 -3.13949,2.73053 -4.68561,4.12212 -2.91047,-0.0355 -5.85122,0.0509 -8.69084,-0.71069 z m 9.44815,-1.88976 c 0.26576,-0.37175 1.38739,-1.04382 1.06967,-1.21084 -4.14124,-0.28932 -8.27759,-0.74434 -12.42841,-0.82346 -1.42716,1.99777 1.61525,2.38009 2.98152,2.70007 2.3186,0.61932 4.72721,0.49487 7.10188,0.52902 0.42512,-0.39826 0.85022,-0.79653 1.27534,-1.19479 z"
       id="path60"
       inkscape:label="drawing" />
    <path
       id="rect19240"
       style="display:inline;fill:#000000;stroke-width:0.5;stroke-linejoin:round;stroke-opacity:0.909449"
       d="m -196.88781,128.58347 v 1.19059 c 0,8.06185 -6.49023,14.55208 -14.55208,14.55208 h -23.8125 c -8.06185,0 -14.55208,-6.49023 -14.55208,-14.55208 v -1.19059 z"
       sodipodi:nodetypes="csssscc"
       inkscape:label="Bottom-label" />
    <g
       aria-label="COMMUNITY"
       transform="matrix(0.24092596,0,0,0.24092596,-197.81179,100.86321)"
       id="text7088"
       style="font-size:29.3333px;line-height:1.25;white-space:pre;shape-inside:url(#rect7090);fill:#01411c">
      <path
         d="m -177.61601,157.61366 q -1.81867,0 -3.49066,-0.58667 -1.64267,-0.616 -2.904,-1.81866 -1.232,-1.232 -1.96533,-3.05067 -0.73333,-1.84799 -0.73333,-4.28266 0,-2.40533 0.76266,-4.25333 0.76267,-1.87733 2.024,-3.13866 1.29066,-1.29066 2.93333,-1.96533 1.672,-0.67467 3.49066,-0.67467 1.90667,0 3.40266,0.76267 1.496,0.73333 2.52267,1.76 l -2.64,3.22666 q -0.704,-0.616 -1.46666,-0.99733 -0.73334,-0.41067 -1.70134,-0.41067 -0.85066,0 -1.61333,0.38134 -0.73333,0.38133 -1.32,1.08533 -0.55733,0.704 -0.90933,1.73066 -0.32266,1.02667 -0.32266,2.31733 0,2.69867 1.11466,4.136 1.144,1.43733 2.992,1.43733 1.11466,0 1.96533,-0.46933 0.88,-0.49867 1.496,-1.17333 l 2.63999,3.16799 q -1.23199,1.408 -2.84533,2.112 -1.58399,0.704 -3.43199,0.704 z"
         style="font-weight:900;font-family:'Source Sans Pro';-inkscape-font-specification:'Source Sans Pro Heavy'"
         id="path17238" />
      <path
         d="m -161.83477,157.61366 q -1.99466,0 -3.63733,-0.67467 -1.61333,-0.67466 -2.78666,-1.936 -1.144,-1.29066 -1.78933,-3.13866 -0.64533,-1.87733 -0.64533,-4.22399 0,-2.34667 0.64533,-4.16533 0.64533,-1.848 1.78933,-3.08 1.17333,-1.26133 2.78666,-1.90666 1.64267,-0.64534 3.63733,-0.64534 1.96533,0 3.608,0.64534 1.64266,0.64533 2.78666,1.90666 1.17333,1.26133 1.81867,3.08 0.64533,1.81866 0.64533,4.16533 0,2.34666 -0.64533,4.22399 -0.64534,1.848 -1.81867,3.13866 -1.144,1.26134 -2.78666,1.936 -1.64267,0.67467 -3.608,0.67467 z m 0,-4.34133 q 1.73067,0 2.69867,-1.496 0.99733,-1.52533 0.99733,-4.13599 0,-2.61067 -0.99733,-4.01867 -0.968,-1.43733 -2.69867,-1.43733 -1.73066,0 -2.72799,1.43733 -0.968,1.408 -0.968,4.01867 0,2.61066 0.968,4.13599 0.99733,1.496 2.72799,1.496 z"
         style="font-weight:900;font-family:'Source Sans Pro';-inkscape-font-specification:'Source Sans Pro Heavy'"
         id="path17240" />
      <path
         d="m -149.57347,157.26166 v -19.06665 h 5.39733 l 2.87467,7.80266 q 0.26399,0.792 0.49866,1.64267 0.23467,0.85066 0.49867,1.70133 h 0.11733 q 0.264,-0.85067 0.49867,-1.70133 0.23466,-0.85067 0.49866,-1.64267 l 2.75733,-7.80266 h 5.39733 v 19.06665 h -4.57599 v -5.63199 q 0,-0.73334 0.0587,-1.61334 0.088,-0.88 0.176,-1.78933 0.088,-0.93866 0.20533,-1.81866 0.11734,-0.88 0.20534,-1.584 h -0.11734 l -1.58399,4.57599 -2.34667,6.30666 h -2.69866 l -2.34667,-6.30666 -1.52533,-4.57599 h -0.11733 q 0.088,0.704 0.20533,1.584 0.11734,0.88 0.20534,1.81866 0.088,0.90933 0.14666,1.78933 0.088,0.88 0.088,1.61334 v 5.63199 z"
         style="font-weight:900;font-family:'Source Sans Pro';-inkscape-font-specification:'Source Sans Pro Heavy'"
         id="path17242" />
      <path
         d="m -126.81085,157.26166 v -19.06665 h 5.39732 l 2.87467,7.80266 q 0.264,0.792 0.49866,1.64267 0.23467,0.85066 0.49867,1.70133 h 0.11733 q 0.264,-0.85067 0.49867,-1.70133 0.23466,-0.85067 0.49866,-1.64267 l 2.75733,-7.80266 h 5.39733 v 19.06665 h -4.57599 v -5.63199 q 0,-0.73334 0.0587,-1.61334 0.088,-0.88 0.176,-1.78933 0.088,-0.93866 0.20534,-1.81866 0.11733,-0.88 0.20533,-1.584 h -0.11733 l -1.584,4.57599 -2.34667,6.30666 h -2.69866 l -2.34666,-6.30666 -1.52534,-4.57599 h -0.11733 q 0.088,0.704 0.20533,1.584 0.11734,0.88 0.20534,1.81866 0.088,0.90933 0.14666,1.78933 0.088,0.88 0.088,1.61334 v 5.63199 z"
         style="font-weight:900;font-family:'Source Sans Pro';-inkscape-font-specification:'Source Sans Pro Heavy'"
         id="path17244" />
      <path
         d="m -96.245577,157.61366 q -4.018663,0 -5.983993,-2.31733 -1.936,-2.34667 -1.936,-7.24533 v -9.85599 h 5.045329 v 10.44266 q 0,2.552 0.674666,3.60799 0.703999,1.02667 2.199998,1.02667 1.495998,0 2.199997,-1.02667 0.733333,-1.05599 0.733333,-3.60799 v -10.44266 h 4.869327 v 9.85599 q 0,4.89866 -1.906664,7.24533 -1.906665,2.31733 -5.895993,2.31733 z"
         style="font-weight:900;font-family:'Source Sans Pro';-inkscape-font-specification:'Source Sans Pro Heavy'"
         id="path17246" />
      <path
         d="m -84.33629,157.26166 v -19.06665 h 5.16266 l 4.223995,8.50666 1.818665,4.28266 h 0.117333 q -0.088,-0.76266 -0.205333,-1.672 -0.117333,-0.90933 -0.205333,-1.84799 -0.088,-0.968 -0.176,-1.90667 -0.05867,-0.968 -0.05867,-1.848 v -5.51466 h 4.810661 v 19.06665 h -5.162661 l -4.223995,-8.53599 -1.818665,-4.25333 h -0.117333 q 0.176,1.64266 0.410666,3.57866 0.234667,1.936 0.234667,3.696 v 5.51466 z"
         style="font-weight:900;font-family:'Source Sans Pro';-inkscape-font-specification:'Source Sans Pro Heavy'"
         id="path17248" />
      <path
         d="m -64.624346,157.26166 v -19.06665 h 5.045328 v 19.06665 z"
         style="font-weight:900;font-family:'Source Sans Pro';-inkscape-font-specification:'Source Sans Pro Heavy';fill:#ffffff;fill-opacity:1"
         id="path17250" />
      <path
         d="m -51.717699,157.26166 v -14.84265 h -5.045328 v -4.224 h 15.135983 v 4.224 h -5.045327 v 14.84265 z"
         style="font-weight:900;font-family:'Source Sans Pro';-inkscape-font-specification:'Source Sans Pro Heavy';fill:#ffffff;fill-opacity:1"
         id="path17252" />
      <path
         d="M -36.053757,157.26166 V 150.691 l -5.749326,-12.49599 h 5.397327 l 1.407998,3.98933 q 0.352,1.08533 0.703999,2.112 0.352,1.02667 0.733333,2.14133 h 0.117333 q 0.381333,-1.11466 0.733333,-2.14133 0.381332,-1.02667 0.762665,-2.112 l 1.407999,-3.98933 h 5.279994 l -5.749327,12.49599 v 6.57066 z"
         style="font-weight:900;font-family:'Source Sans Pro';-inkscape-font-specification:'Source Sans Pro Heavy';fill:#ffffff;fill-opacity:1"
         id="path17254" />
    </g>
  </g>
</svg>
