<svg width="200" height="200" viewBox="0 0 52.917 52.917" xmlns="http://www.w3.org/2000/svg"><defs><path id="a" d="M-118.087 207.536h374.413v77.428h-374.413z"/></defs><g transform="translate(249.804 -91.41)"><rect y="91.409" x="-249.804" height="52.917" width="52.917" style="display:inline;fill:#000;fill-opacity:1;fill-rule:nonzero;stroke:none;stroke-width:.5;stroke-linecap:butt;stroke-linejoin:round;stroke-miterlimit:4;stroke-dasharray:none;stroke-dashoffset:0;stroke-opacity:.909449;paint-order:normal" rx="14.552" ry="14.552"/><path style="display:inline;fill:#333;stroke-width:.450003;stroke-linejoin:round;stroke-opacity:.909449" d="M-199.534 121.886v6.698h-47.625v-6.698z"/><path style="display:inline;fill:#fff;stroke-width:.450003;stroke-linejoin:round;stroke-opacity:.909449" d="M-199.534 115.188v6.698h-47.625v-6.698z"/><path style="display:inline;fill:#333;fill-opacity:1;stroke-width:.450003;stroke-linejoin:round;stroke-opacity:.909449" d="M-199.534 107.152v8.036h-47.625v-8.036z"/><path style="display:inline;fill:#fff;fill-opacity:1;stroke-width:.450003;stroke-linejoin:round;stroke-opacity:.909449" d="M-201.764 99.82a13.033 13.033 0 0 1 2.23 7.332h-47.625a13.034 13.034 0 0 1 2.23-7.333z"/><path style="display:inline;fill:#333;fill-opacity:1;stroke-width:.450003;stroke-linejoin:round;stroke-opacity:.909449" d="M-234.062 94.055h21.432a13.056 13.056 0 0 1 10.866 5.765h-43.164a13.056 13.056 0 0 1 10.866-5.764z"/><path style="display:inline;fill:#32b5d4;fill-opacity:1;stroke-width:.450003;stroke-linejoin:round;stroke-opacity:.909449" d="m-225.913 113.513-21.246 15.07v-21.43c0-3.629 1.46-6.903 3.828-9.27z"/><path style="display:inline;fill:#000;stroke-width:.5;stroke-linejoin:round;stroke-opacity:.909449" d="M-196.888 128.583v1.191a14.52 14.52 0 0 1-14.552 14.552h-23.812a14.52 14.52 0 0 1-14.552-14.552v-1.19z"/><g style="display:inline;fill:#000;fill-opacity:1;stroke-width:.728058"><path style="fill:#000;fill-opacity:1;stroke-width:.728057" d="M153.31 196.947c.89.083.04 1.727.654 2.374.27 1.49.113 3.025.149 4.536-.262 1.008-.31 2.634-.732 3.306h-25.532c.006-1.294-.063-2.596.21-3.867.104-1.063-.02-2.147.242-3.19-.366-1.67 1.98-.263 2.874-.639 1.61.05 3.241-.142 4.827.212 1.499.24 2.952-.221 4.443-.23 1.418-.396 2.877-.486 4.326-.711 1.263-.025 2.5-.237 3.734-.48 1.578-.523 3.192-.906 4.803-1.311m-16.841 6.692c1.363-.188 1.035-2.394-.123-2.686-1.153-.76-2.652-.808-3.829-.07-.947.521-1.684 2.496-.028 2.536 1.29.363 2.656.348 3.98.22m11.159-.007c.923-.58.1-2.386-.678-2.967-.914-.74-2.552-1.345-3.445-.27-.69.758-1.745 1.424-1.746 2.551.42 1.054 1.764.702 2.674.766 1.065-.025 2.139.067 3.195-.08" transform="matrix(1.37352 0 0 1.37352 -416.978 -154.821)"/><path style="fill:#000;fill-opacity:1;stroke-width:.728057" d="M139.492 195.363c2.06-.247 4.148-.1 6.221-.14 1.535.01 3.11-.124 4.56.5.598.053 1.622.544.437.685-1.374.283-2.664.876-4.065 1.036-1.521.178-3.05.322-4.576.48-1.39.484-2.844.443-4.274.69-1.384.212-2.732-.342-4.122-.207-1.634-.033-3.283.117-4.893-.219-.534.091-1.604-.298-.513-.529 1.429-.803 3.156-.752 4.613-1.504 1.455-.314 2.937-.378 4.4-.638.74-.063 1.485.036 2.212-.155" transform="matrix(1.37352 0 0 1.37352 -416.978 -154.821)"/><path style="fill:#000;fill-opacity:1;stroke-width:.728057" d="M135.855 185.835c1.378-.29 2.81-.116 4.213-.164.929.007 1.873-.061 2.77.226 1.498-.103 2.87.486 4.256.943 1.417.69 2.918 1.296 4.107 2.357 1.177.779 2.27 1.666 3.377 2.536.894.72 1.947 2.085.99 3.166-1.04.913-2.532.967-3.678.225-1.238-.418-2.483-1-3.816-.963-2.807.021-5.617-.044-8.42.035-1.489.271-3.005.29-4.503.493-1.383-.048-2.685.436-3.983.818-1.159.574-2.675.715-3.35-.64-.386-.947-2.254-1.909-1.052-2.93.62-.804 1.253-1.598 2.012-2.285.904-.981 1.914-1.863 3.122-2.454 1.07-.472 2.199-1.046 3.37-1.144.191-.082.386-.156.585-.219" transform="matrix(1.37352 0 0 1.37352 -416.978 -154.821)"/></g><g aria-label="DISCRIMINATORY" transform="matrix(.14466 0 0 .14466 -228.785 103.033)" style="font-size:40px;line-height:1.25;white-space:pre;shape-inside:url(#a);fill:#32b5d4"><path d="M-115.206 244.028v-26h7.68q2.96 0 5.4.72 2.48.72 4.24 2.28 1.76 1.56 2.72 4 1 2.44 1 5.88t-.96 5.92q-.96 2.48-2.72 4.08-1.72 1.6-4.12 2.36-2.36.76-5.16.76zm6.88-5.52h.4q1.4 0 2.64-.32 1.24-.36 2.12-1.2.92-.84 1.44-2.32.52-1.48.52-3.76t-.52-3.72q-.52-1.44-1.44-2.24-.88-.8-2.12-1.08-1.24-.32-2.64-.32h-.4zM-89.526 244.028v-26h6.88v26zM-68.646 244.508q-2.48 0-5.12-.88-2.6-.92-4.72-2.84l3.92-4.72q1.4 1.12 3 1.84 1.64.68 3.08.68 1.56 0 2.24-.48.72-.48.72-1.36 0-.48-.24-.8-.24-.32-.72-.6-.44-.28-1.08-.52-.64-.28-1.48-.6l-3.24-1.36q-1.04-.4-2-1.04-.96-.68-1.68-1.56-.72-.92-1.16-2.08-.4-1.16-.4-2.56 0-1.68.72-3.12.72-1.48 2-2.56 1.28-1.12 3.04-1.76 1.8-.64 3.92-.64 2.24 0 4.52.84 2.32.84 4.12 2.64l-3.44 4.32q-1.32-.92-2.56-1.4-1.2-.48-2.64-.48-1.28 0-2 .44t-.72 1.32q0 .92 1 1.44 1.04.48 2.84 1.16l3.16 1.24q2.44.96 3.76 2.68 1.32 1.72 1.32 4.44 0 1.64-.68 3.16-.68 1.52-2 2.68-1.28 1.12-3.16 1.8-1.88.68-4.32.68zM-43.046 244.508q-2.48 0-4.76-.8-2.24-.84-3.96-2.48-1.68-1.68-2.68-4.16-1-2.52-1-5.84 0-3.28 1.04-5.8 1.04-2.56 2.76-4.28 1.76-1.76 4-2.68 2.28-.92 4.76-.92 2.6 0 4.64 1.04 2.04 1 3.44 2.4l-3.6 4.4q-.96-.84-2-1.36-1-.56-2.32-.56-1.16 0-2.2.52-1 .52-1.8 1.48-.76.96-1.24 2.36-.44 1.4-.44 3.16 0 3.68 1.52 5.64 1.56 1.96 4.08 1.96 1.52 0 2.68-.64 1.2-.68 2.04-1.6l3.6 4.32q-1.68 1.92-3.88 2.88-2.16.96-4.68.96zM-30.886 244.028v-26h9.84q2.08 0 3.96.4 1.92.4 3.32 1.36 1.44.96 2.28 2.6.84 1.6.84 4.04 0 2.8-1.16 4.64-1.12 1.84-3.04 2.88l5.64 10.08h-7.68l-4.48-8.72h-2.64v8.72zm6.88-14.16h2.48q4.16 0 4.16-3.44 0-1.68-1.08-2.32-1.04-.64-3.08-.64h-2.48z" style="font-weight:900;font-family:'Source Sans Pro';-inkscape-font-specification:'Source Sans Pro Heavy'"/><path d="M-5.686 244.028v-26h6.88v26z" style="font-weight:900;font-family:'Source Sans Pro';-inkscape-font-specification:'Source Sans Pro Heavy';fill:#fff;fill-opacity:1"/><path d="M6.954 244.028v-26h7.36l3.92 10.64q.36 1.08.68 2.24.32 1.16.68 2.32h.16q.36-1.16.68-2.32.32-1.16.68-2.24l3.76-10.64h7.36v26h-6.24v-7.68q0-1 .08-2.2.12-1.2.24-2.44.12-1.28.28-2.48.16-1.2.28-2.16h-.16l-2.16 6.24-3.2 8.6h-3.68l-3.2-8.6-2.08-6.24h-.16q.12.96.28 2.16.16 1.2.28 2.48.12 1.24.2 2.44.12 1.2.12 2.2v7.68z" style="font-weight:900;font-family:'Source Sans Pro';-inkscape-font-specification:'Source Sans Pro Heavy'"/><path d="M37.994 244.028v-26h6.88v26z" style="font-weight:900;font-family:'Source Sans Pro';-inkscape-font-specification:'Source Sans Pro Heavy';fill:#fff;fill-opacity:1"/><path d="M50.634 244.028v-26h7.04l5.76 11.6 2.48 5.84h.16q-.12-1.04-.28-2.28-.16-1.24-.28-2.52-.12-1.32-.24-2.6-.08-1.32-.08-2.52v-7.52h6.56v26h-7.04l-5.76-11.64-2.48-5.8h-.16q.24 2.24.56 4.88.32 2.64.32 5.04v7.52z" style="font-weight:900;font-family:'Source Sans Pro';-inkscape-font-specification:'Source Sans Pro Heavy'"/><path d="m84.234 231.388-.44 1.8h4.8l-.44-1.8q-.48-1.88-.96-4.08t-.96-4.16h-.16q-.44 2-.92 4.2-.44 2.16-.92 4.04zm-10 12.64 7.92-26h8.32l7.92 26h-7.28l-1.28-5.52h-7.28l-1.28 5.52z" style="font-weight:900;font-family:'Source Sans Pro';-inkscape-font-specification:'Source Sans Pro Heavy';fill:#fff;fill-opacity:1"/><path d="M102.634 244.028v-20.24h-6.88v-5.76h20.64v5.76h-6.88v20.24z" style="font-weight:900;font-family:'Source Sans Pro';-inkscape-font-specification:'Source Sans Pro Heavy'"/><path d="M129.994 244.508q-2.72 0-4.96-.92-2.2-.92-3.8-2.64-1.56-1.76-2.44-4.28-.88-2.56-.88-5.76 0-3.2.88-5.68.88-2.52 2.44-4.2 1.6-1.72 3.8-2.6 2.24-.88 4.96-.88 2.68 0 4.92.88 2.24.88 3.8 2.6 1.6 1.72 2.48 4.2.88 2.48.88 5.68 0 3.2-.88 5.76-.88 2.52-2.48 4.28-1.56 1.72-3.8 2.64-2.24.92-4.92.92zm0-5.92q2.36 0 3.68-2.04 1.36-2.08 1.36-5.64 0-3.56-1.36-5.48-1.32-1.96-3.68-1.96-2.36 0-3.72 1.96-1.32 1.92-1.32 5.48 0 3.56 1.32 5.64 1.36 2.04 3.72 2.04z" style="font-weight:900;font-family:'Source Sans Pro';-inkscape-font-specification:'Source Sans Pro Heavy';fill:#fff;fill-opacity:1"/><path d="M146.714 244.028v-26h9.84q2.08 0 3.96.4 1.92.4 3.32 1.36 1.44.96 2.28 2.6.84 1.6.84 4.04 0 2.8-1.16 4.64-1.12 1.84-3.04 2.88l5.64 10.08h-7.68l-4.48-8.72h-2.64v8.72zm6.88-14.16h2.48q4.16 0 4.16-3.44 0-1.68-1.08-2.32-1.04-.64-3.08-.64h-2.48z" style="font-weight:900;font-family:'Source Sans Pro';-inkscape-font-specification:'Source Sans Pro Heavy'"/><path d="M175.674 244.028v-8.96l-7.84-17.04h7.36l1.92 5.44q.48 1.48.96 2.88l1 2.92h.16l1-2.92q.52-1.4 1.04-2.88l1.92-5.44h7.2l-7.84 17.04v8.96z" style="font-weight:900;font-family:'Source Sans Pro';-inkscape-font-specification:'Source Sans Pro Heavy';fill:#fff;fill-opacity:1"/></g></g></svg>