<?xml version="1.0" encoding="UTF-8" standalone="no"?>
<svg
   width="200"
   height="200"
   viewBox="0 0 52.916668 52.916666"
   version="1.1"
   id="svg8"
   inkscape:version="1.1 (c68e22c387, 2021-05-23)"
   sodipodi:docname="discriminatory.svg"
   xmlns:inkscape="http://www.inkscape.org/namespaces/inkscape"
   xmlns:sodipodi="http://sodipodi.sourceforge.net/DTD/sodipodi-0.dtd"
   xmlns="http://www.w3.org/2000/svg"
   xmlns:svg="http://www.w3.org/2000/svg"
   xmlns:rdf="http://www.w3.org/1999/02/22-rdf-syntax-ns#"
   xmlns:cc="http://creativecommons.org/ns#"
   xmlns:dc="http://purl.org/dc/elements/1.1/">
  <defs
     id="defs2">
    <rect
       x="-118.08683"
       y="207.53584"
       width="374.41304"
       height="77.428196"
       id="rect18185" />
    <rect
       x="-247"
       y="42"
       width="137"
       height="81.5"
       id="rect1185" />
    <rect
       x="-48.175333"
       y="18.9895"
       width="46.117357"
       height="15.996081"
       id="rect880" />
    <rect
       x="-255.23004"
       y="125.83378"
       width="102.52459"
       height="46.959256"
       id="rect873" />
    <inkscape:path-effect
       effect="envelope"
       id="path-effect4658"
       is_visible="true"
       yy="true"
       xx="true"
       bendpath1="m -199.08406,108.42369 h 7.0057"
       bendpath2="m -192.07836,108.42369 v 6.75242"
       bendpath3="m -199.08406,115.17611 h 7.0057"
       bendpath4="m -199.08406,108.42369 v 6.75242" />
    <inkscape:path-effect
       effect="bend_path"
       id="path-effect4656"
       is_visible="true"
       bendpath="m -192.00142,114.60623 c 2.12577,-0.53066 4.48261,0.85111 7.0057,0"
       prop_scale="1"
       scale_y_rel="false"
       vertical="false"
       bendpath-nodetypes="cc" />
    <inkscape:path-effect
       effect="bounding_box"
       id="path-effect4654"
       is_visible="true"
       linkedpath=""
       visualbounds="false" />
    <linearGradient
       id="linearGradient3288"
       inkscape:swatch="solid">
      <stop
         style="stop-color:#000000;stop-opacity:1;"
         offset="0"
         id="stop3286" />
    </linearGradient>
    <linearGradient
       id="linearGradient1364"
       inkscape:swatch="solid">
      <stop
         style="stop-color:#ffffff;stop-opacity:1;"
         offset="0"
         id="stop1362" />
    </linearGradient>
    <rect
       x="293.80286"
       y="272.58966"
       width="25.455845"
       height="37.830212"
       id="rect1056" />
    <rect
       x="222.73865"
       y="266.22571"
       width="47.376156"
       height="54.09367"
       id="rect1050" />
    <rect
       x="139.30003"
       y="246.42671"
       width="58.336308"
       height="48.790367"
       id="rect1044" />
    <rect
       x="131.1683"
       y="203.64674"
       width="61.871841"
       height="73.892654"
       id="rect1038" />
    <rect
       x="81.67083"
       y="193.04015"
       width="63.63961"
       height="55.507881"
       id="rect1032" />
    <rect
       x="83.085045"
       y="274.35742"
       width="44.194176"
       height="38.890873"
       id="rect1026" />
    <rect
       x="3.5355339"
       y="269.05414"
       width="65.760933"
       height="53.386562"
       id="rect1020" />
    <rect
       x="14.142136"
       y="226.27417"
       width="79.195961"
       height="62.932503"
       id="rect1014" />
    <rect
       x="11.313708"
       y="171.82695"
       width="36.416"
       height="51.618793"
       id="rect1008" />
    <rect
       x="3.1819806"
       y="132.22897"
       width="102.88404"
       height="102.53048"
       id="rect1002" />
  </defs>
  <sodipodi:namedview
     id="base"
     pagecolor="#ffffff"
     bordercolor="#666666"
     borderopacity="1.0"
     inkscape:pageopacity="0.0"
     inkscape:pageshadow="2"
     inkscape:zoom="2.8284271"
     inkscape:cx="63.993164"
     inkscape:cy="126.39534"
     inkscape:document-units="mm"
     inkscape:current-layer="layer1"
     showgrid="false"
     fit-margin-top="0"
     fit-margin-left="0"
     fit-margin-right="0"
     fit-margin-bottom="0"
     inkscape:window-width="1920"
     inkscape:window-height="1017"
     inkscape:window-x="-8"
     inkscape:window-y="-8"
     inkscape:window-maximized="1"
     showguides="false"
     inkscape:object-nodes="true"
     units="px"
     inkscape:snap-page="true"
     inkscape:document-rotation="0"
     inkscape:pagecheckerboard="1" />
  <metadata
     id="metadata5">
    <rdf:RDF>
      <cc:Work
         rdf:about="">
        <dc:format>image/svg+xml</dc:format>
        <dc:type
           rdf:resource="http://purl.org/dc/dcmitype/StillImage" />
      </cc:Work>
    </rdf:RDF>
  </metadata>
  <g
     inkscape:label="Base"
     inkscape:groupmode="layer"
     id="layer1"
     transform="translate(249.80447,-91.409467)">
    <rect
       y="91.40947"
       x="-249.80447"
       height="52.916668"
       width="52.916668"
       id="rect5238-5"
       style="display:inline;fill:#000000;fill-opacity:1;fill-rule:nonzero;stroke:none;stroke-width:0.5;stroke-linecap:butt;stroke-linejoin:round;stroke-miterlimit:4;stroke-dasharray:none;stroke-dashoffset:0;stroke-opacity:0.909449;paint-order:normal"
       rx="14.552089"
       ry="14.552081"
       inkscape:label="Bottom-rectangle" />
    <g
       id="g16144"
       inkscape:label="Background">
      <path
         id="path239"
         style="display:inline;fill:#333333;stroke-width:0.450003;stroke-linejoin:round;stroke-opacity:0.909449"
         d="m -199.5335,121.88647 v 6.69703 h -47.6253 v -6.69703 z"
         sodipodi:nodetypes="ccccc"
         inkscape:label="Inner-rectangle" />
      <path
         id="path3863"
         style="display:inline;fill:#ffffff;stroke-width:0.450003;stroke-linejoin:round;stroke-opacity:0.909449"
         d="m -199.5335,115.18847 v 6.698 l -47.6253,-2.8e-4 v -6.69772 z"
         sodipodi:nodetypes="ccccc"
         inkscape:label="Inner-rectangle-2" />
      <path
         id="path4074"
         style="display:inline;fill:#333333;fill-opacity:1;stroke-width:0.450003;stroke-linejoin:round;stroke-opacity:0.909449"
         d="m -199.5335,107.15211 v 8.03636 h -47.6253 v -8.03636 z"
         sodipodi:nodetypes="ccccc"
         inkscape:label="Inner-rectangle-3" />
      <path
         id="path4076"
         style="display:inline;fill:#ffffff;fill-opacity:1;stroke-width:0.450003;stroke-linejoin:round;stroke-opacity:0.909449"
         d="m -201.76433,99.819603 c 0.4698,0.696547 0.87428,1.441127 1.20477,2.225107 0.66098,1.56795 1.02606,3.29347 1.02606,5.1074 h -47.6253 c 0,-1.81393 0.36507,-3.53946 1.02606,-5.10741 0.3305,-0.78397 0.73497,-1.52856 1.20477,-2.225099 z"
         sodipodi:nodetypes="csccscc"
         inkscape:label="Inner-rectangle-4" />
      <path
         id="path4078"
         style="display:inline;fill:#333333;fill-opacity:1;stroke-width:0.450003;stroke-linejoin:round;stroke-opacity:0.909449"
         d="m -234.06184,94.055153 h 21.43138 c 3.62786,0 6.90211,1.460299 9.26938,3.827585 0.59182,0.591819 1.12695,1.240322 1.59675,1.936865 l -43.16364,-2e-6 c 0.46981,-0.696542 1.00494,-1.345045 1.59676,-1.936863 2.36728,-2.36727 5.64152,-3.827585 9.26937,-3.827585 z"
         sodipodi:nodetypes="sssccss"
         inkscape:label="Inner-rectangle-5" />
      <path
         id="rect18865"
         style="display:inline;fill:#32b5d4;fill-opacity:1;stroke-width:0.450003;stroke-linejoin:round;stroke-opacity:0.909449"
         d="m -225.913,113.51312 -21.2458,15.07038 v -21.43139 c 0,-3.62786 1.46031,-6.9021 3.82759,-9.269372 z"
         sodipodi:nodetypes="ccscc"
         inkscape:label="Inner-triangle" />
    </g>
    <path
       id="rect19240"
       style="display:inline;fill:#000000;stroke-width:0.5;stroke-linejoin:round;stroke-opacity:0.909449"
       d="m -196.88781,128.58347 v 1.19059 c 0,8.06185 -6.49023,14.55208 -14.55208,14.55208 h -23.8125 c -8.06185,0 -14.55208,-6.49023 -14.55208,-14.55208 v -1.19059 z"
       sodipodi:nodetypes="csssscc"
       inkscape:label="Bottom-label" />
    <g
       id="g1185"
       transform="matrix(1.3735175,0,0,1.3735175,-416.97838,-154.82095)"
       style="display:inline;fill:#000000;fill-opacity:1;stroke-width:0.728058"
       inkscape:label="Drawing">
      <path
         id="path1170"
         style="fill:#000000;fill-opacity:1;stroke-width:0.728057"
         d="m 153.30909,196.94725 c 0.89091,0.0828 0.0415,1.72692 0.65522,2.3742 0.26883,1.49036 0.1124,3.02472 0.14855,4.53571 -0.26203,1.00816 -0.31027,2.63354 -0.73216,3.30562 -8.51051,0 -17.02101,0 -25.53152,0 0.006,-1.29417 -0.0628,-2.59533 0.2091,-3.86658 0.10474,-1.06331 -0.0202,-2.14738 0.2432,-3.19097 -0.3662,-1.66844 1.97937,-0.26239 2.87319,-0.63822 1.61065,0.0503 3.24156,-0.14203 4.82704,0.2123 1.49917,0.24045 2.95233,-0.22133 4.44367,-0.2311 1.41751,-0.39495 2.87697,-0.4857 4.32541,-0.7106 1.26351,-0.0247 2.50057,-0.23614 3.73421,-0.479 1.57756,-0.52375 3.19222,-0.90614 4.80272,-1.3117 m -16.84121,6.69237 c 1.36387,-0.18816 1.03573,-2.39404 -0.12205,-2.68639 -1.15395,-0.76048 -2.65274,-0.80828 -3.82925,-0.0699 -0.94691,0.52145 -1.68463,2.49604 -0.0286,2.53586 1.29071,0.363 2.65651,0.34772 3.98005,0.2193 m 11.15931,-0.006 c 0.92271,-0.58102 0.10043,-2.38624 -0.67824,-2.96673 -0.91351,-0.74058 -2.55191,-1.34546 -3.44508,-0.26999 -0.68891,0.75718 -1.74442,1.42399 -1.74546,2.55097 0.4205,1.05347 1.76342,0.70113 2.6741,0.76605 1.06433,-0.0259 2.13841,0.0663 3.19462,-0.08" />
      <path
         id="path1168"
         style="fill:#000000;fill-opacity:1;stroke-width:0.728057"
         d="m 139.49189,195.36269 c 2.06062,-0.24673 4.14779,-0.0992 6.22146,-0.1397 1.53509,0.01 3.10991,-0.12362 4.56028,0.5007 0.597,0.0519 1.62131,0.54321 0.43641,0.6847 -1.3741,0.28253 -2.66436,0.87607 -4.06536,1.0355 -1.52093,0.17792 -3.04922,0.32211 -4.57568,0.4801 -1.38946,0.48445 -2.84444,0.44253 -4.2745,0.69032 -1.38309,0.21197 -2.7316,-0.342 -4.12161,-0.20723 -1.63352,-0.033 -3.28313,0.11721 -4.89259,-0.2188 -0.53479,0.091 -1.60456,-0.298 -0.51345,-0.52894 1.42874,-0.80328 3.15603,-0.7521 4.61268,-1.5047 1.45553,-0.31339 2.93783,-0.37795 4.40086,-0.6375 0.73958,-0.0636 1.48454,0.0355 2.21146,-0.1547" />
      <path
         id="path1166"
         style="fill:#000000;fill-opacity:1;stroke-width:0.728057"
         d="m 135.8548,185.8348 c 1.37817,-0.28998 2.80946,-0.11578 4.2134,-0.1638 0.92852,0.007 1.87232,-0.0613 2.76919,0.2263 1.49903,-0.10299 2.87089,0.48618 4.25685,0.9431 1.41664,0.69048 2.9173,1.29593 4.10671,2.35703 1.17729,0.77812 2.26952,1.66573 3.37698,2.53587 0.89433,0.71953 1.94728,2.08437 0.99037,3.16608 -1.04001,0.9125 -2.53181,0.96712 -3.67784,0.22496 -1.23822,-0.41876 -2.48299,-1.00075 -3.81645,-0.9632 -2.80652,0.0212 -5.61689,-0.0438 -8.42085,0.035 -1.48788,0.27115 -3.00373,0.28892 -4.50189,0.4927 -1.38364,-0.0476 -2.68569,0.43567 -3.98317,0.8182 -1.15867,0.57424 -2.67472,0.71462 -3.3503,-0.64061 -0.38622,-0.94673 -2.25364,-1.9082 -1.05207,-2.92876 0.62047,-0.80496 1.2537,-1.59886 2.0119,-2.28606 0.90469,-0.98086 1.91464,-1.86276 3.12214,-2.45339 1.06988,-0.47198 2.19877,-1.04632 3.37003,-1.14466 0.19147,-0.0816 0.38645,-0.15521 0.58473,-0.2186" />
    </g>
    <g
       aria-label="DISCRIMINATORY"
       transform="matrix(0.14466374,0,0,0.14466374,-228.7846,103.03338)"
       id="text18183"
       style="font-size:40px;line-height:1.25;white-space:pre;shape-inside:url(#rect18185);fill:#32b5d4">
      <path
         d="m -115.20594,244.02837 v -26 h 7.68 q 2.96,0 5.4,0.72 2.480002,0.72 4.240003,2.28 1.76,1.56 2.72,4 1,2.44 1,5.88 0,3.44 -0.96,5.92 -0.96,2.48 -2.72,4.08 -1.720001,1.6 -4.120003,2.36 -2.36,0.76 -5.16,0.76 z m 6.88,-5.52 h 0.4 q 1.4,0 2.64,-0.32 1.24,-0.36 2.12,-1.2 0.92,-0.84 1.44,-2.32 0.52,-1.48 0.52,-3.76 0,-2.28 -0.52,-3.72 -0.52,-1.44 -1.44,-2.24 -0.88,-0.8 -2.12,-1.08 -1.24,-0.32 -2.64,-0.32 h -0.4 z"
         style="font-weight:900;font-family:'Source Sans Pro';-inkscape-font-specification:'Source Sans Pro Heavy'"
         id="path28000" />
      <path
         d="m -89.526006,244.02837 v -26 h 6.88 v 26 z"
         style="font-weight:900;font-family:'Source Sans Pro';-inkscape-font-specification:'Source Sans Pro Heavy'"
         id="path28002" />
      <path
         d="m -68.646006,244.50837 q -2.48,0 -5.12,-0.88 -2.6,-0.92 -4.72,-2.84 l 3.92,-4.72 q 1.4,1.12 3,1.84 1.64,0.68 3.08,0.68 1.56,0 2.24,-0.48 0.72,-0.48 0.72,-1.36 0,-0.48 -0.24,-0.8 -0.24,-0.32 -0.72,-0.6 -0.44,-0.28 -1.08,-0.52 -0.64,-0.28 -1.48,-0.6 l -3.24,-1.36 q -1.04,-0.4 -2,-1.04 -0.96,-0.68 -1.68,-1.56 -0.72,-0.92 -1.16,-2.08 -0.4,-1.16 -0.4,-2.56 0,-1.68 0.72,-3.12 0.72,-1.48 2,-2.56 1.28,-1.12 3.04,-1.76 1.8,-0.64 3.92,-0.64 2.24,0 4.52,0.84 2.32,0.84 4.12,2.64 l -3.44,4.32 q -1.32,-0.92 -2.56,-1.4 -1.2,-0.48 -2.64,-0.48 -1.28,0 -2,0.44 -0.72,0.44 -0.72,1.32 0,0.92 1,1.44 1.04,0.48 2.84,1.16 l 3.16,1.24 q 2.44,0.96 3.76,2.68 1.32,1.72 1.32,4.44 0,1.64 -0.68,3.16 -0.68,1.52 -2,2.68 -1.28,1.12 -3.16,1.8 -1.88,0.68 -4.32,0.68 z"
         style="font-weight:900;font-family:'Source Sans Pro';-inkscape-font-specification:'Source Sans Pro Heavy'"
         id="path28004" />
      <path
         d="m -43.046039,244.50837 q -2.48,0 -4.76,-0.8 -2.24,-0.84 -3.96,-2.48 -1.68,-1.68 -2.68,-4.16 -1,-2.52 -1,-5.84 0,-3.28 1.04,-5.8 1.04,-2.56 2.76,-4.28 1.76,-1.76 4,-2.68 2.28,-0.92 4.76,-0.92 2.6,0 4.64,1.04 2.04,1 3.44,2.4 l -3.6,4.4 q -0.96,-0.84 -2,-1.36 -1,-0.56 -2.32,-0.56 -1.16,0 -2.2,0.52 -1,0.52 -1.8,1.48 -0.76,0.96 -1.24,2.36 -0.44,1.4 -0.44,3.16 0,3.68 1.52,5.64 1.56,1.96 4.08,1.96 1.52,0 2.68,-0.64 1.2,-0.68 2.04,-1.6 l 3.6,4.32 q -1.68,1.92 -3.88,2.88 -2.16,0.96 -4.68,0.96 z"
         style="font-weight:900;font-family:'Source Sans Pro';-inkscape-font-specification:'Source Sans Pro Heavy'"
         id="path28006" />
      <path
         d="m -30.886098,244.02837 v -26 h 9.84 q 2.08,0 3.96,0.4 1.92,0.4 3.32,1.36 1.44,0.96 2.28,2.6 0.84,1.6 0.84,4.04 0,2.8 -1.16,4.64 -1.12,1.84 -3.04,2.88 l 5.64,10.08 h -7.68 l -4.48,-8.72 h -2.64 v 8.72 z m 6.88,-14.16 h 2.48 q 4.16,0 4.16,-3.44 0,-1.68 -1.08,-2.32 -1.04,-0.64 -3.08,-0.64 h -2.48 z"
         style="font-weight:900;font-family:'Source Sans Pro';-inkscape-font-specification:'Source Sans Pro Heavy'"
         id="path28008" />
      <path
         d="m -5.6861316,244.02837 v -26 h 6.88 v 26 z"
         style="font-weight:900;font-family:'Source Sans Pro';-inkscape-font-specification:'Source Sans Pro Heavy';fill:#ffffff;fill-opacity:1"
         id="path28010" />
      <path
         d="m 6.9538678,244.02837 v -26 h 7.3600002 l 3.92,10.64 q 0.36,1.08 0.68,2.24 0.32,1.16 0.68,2.32 h 0.16 q 0.36,-1.16 0.68,-2.32 0.32,-1.16 0.68,-2.24 l 3.76,-10.64 h 7.36 v 26 h -6.24 v -7.68 q 0,-1 0.08,-2.2 0.12,-1.2 0.24,-2.44 0.12,-1.28 0.28,-2.48 0.16,-1.2 0.28,-2.16 h -0.16 l -2.16,6.24 -3.2,8.6 h -3.68 l -3.2,-8.6 -2.08,-6.24 h -0.16 q 0.12,0.96 0.28,2.16 0.16,1.2 0.28,2.48 0.12,1.24 0.2,2.44 0.12,1.2 0.12,2.2 v 7.68 z"
         style="font-weight:900;font-family:'Source Sans Pro';-inkscape-font-specification:'Source Sans Pro Heavy'"
         id="path28012" />
      <path
         d="m 37.993831,244.02837 v -26 h 6.88 v 26 z"
         style="font-weight:900;font-family:'Source Sans Pro';-inkscape-font-specification:'Source Sans Pro Heavy';fill:#ffffff;fill-opacity:1"
         id="path28014" />
      <path
         d="m 50.63383,244.02837 v -26 h 7.04 l 5.76,11.6 2.48,5.84 h 0.16 q -0.12,-1.04 -0.28,-2.28 -0.16,-1.24 -0.28,-2.52 -0.12,-1.32 -0.24,-2.6 -0.08,-1.32 -0.08,-2.52 v -7.52 h 6.56 v 26 h -7.04 l -5.76,-11.64 -2.48,-5.8 h -0.16 q 0.24,2.24 0.56,4.88 0.32,2.64 0.32,5.04 v 7.52 z"
         style="font-weight:900;font-family:'Source Sans Pro';-inkscape-font-specification:'Source Sans Pro Heavy'"
         id="path28016" />
      <path
         d="m 84.233789,231.38837 -0.44,1.8 h 4.8 l -0.44,-1.8 q -0.48,-1.88 -0.96,-4.08 -0.48,-2.2 -0.96,-4.16 h -0.16 q -0.44,2 -0.92,4.2 -0.44,2.16 -0.92,4.04 z m -10,12.64 7.92,-26 h 8.32 l 7.92,26 h -7.28 l -1.28,-5.52 h -7.28 l -1.28,5.52 z"
         style="font-weight:900;font-family:'Source Sans Pro';-inkscape-font-specification:'Source Sans Pro Heavy';fill:#ffffff;fill-opacity:1"
         id="path28018" />
      <path
         d="m 102.6337,244.02837 v -20.24 h -6.879999 v -5.76 H 116.3937 v 5.76 h -6.88 v 20.24 z"
         style="font-weight:900;font-family:'Source Sans Pro';-inkscape-font-specification:'Source Sans Pro Heavy'"
         id="path28020" />
      <path
         d="m 129.99364,244.50837 q -2.72,0 -4.96,-0.92 -2.2,-0.92 -3.8,-2.64 -1.56,-1.76 -2.44,-4.28 -0.88,-2.56 -0.88,-5.76 0,-3.2 0.88,-5.68 0.88,-2.52 2.44,-4.2 1.6,-1.72 3.8,-2.6 2.24,-0.88 4.96,-0.88 2.68,0 4.92,0.88 2.24,0.88 3.8,2.6 1.6,1.72 2.48,4.2 0.88,2.48 0.88,5.68 0,3.2 -0.88,5.76 -0.88,2.52 -2.48,4.28 -1.56,1.72 -3.8,2.64 -2.24,0.92 -4.92,0.92 z m 0,-5.92 q 2.36,0 3.68,-2.04 1.36,-2.08 1.36,-5.64 0,-3.56 -1.36,-5.48 -1.32,-1.96 -3.68,-1.96 -2.36,0 -3.72,1.96 -1.32,1.92 -1.32,5.48 0,3.56 1.32,5.64 1.36,2.04 3.72,2.04 z"
         style="font-weight:900;font-family:'Source Sans Pro';-inkscape-font-specification:'Source Sans Pro Heavy';fill:#ffffff;fill-opacity:1"
         id="path28022" />
      <path
         d="m 146.71362,244.02837 v -26 h 9.84 q 2.08,0 3.96,0.4 1.92,0.4 3.32,1.36 1.44,0.96 2.28,2.6 0.84,1.6 0.84,4.04 0,2.8 -1.16,4.64 -1.12,1.84 -3.04,2.88 l 5.64,10.08 h -7.68 l -4.48,-8.72 h -2.64 v 8.72 z m 6.88,-14.16 h 2.48 q 4.16,0 4.16,-3.44 0,-1.68 -1.08,-2.32 -1.04,-0.64 -3.08,-0.64 h -2.48 z"
         style="font-weight:900;font-family:'Source Sans Pro';-inkscape-font-specification:'Source Sans Pro Heavy'"
         id="path28024" />
      <path
         d="m 175.67358,244.02837 v -8.96 l -7.84,-17.04 h 7.36 l 1.92,5.44 q 0.48,1.48 0.96,2.88 0.48,1.4 1,2.92 h 0.16 q 0.52,-1.52 1,-2.92 0.52,-1.4 1.04,-2.88 l 1.92,-5.44 h 7.2 l -7.84,17.04 v 8.96 z"
         style="font-weight:900;font-family:'Source Sans Pro';-inkscape-font-specification:'Source Sans Pro Heavy';fill:#ffffff;fill-opacity:1"
         id="path28026" />
    </g>
  </g>
</svg>
