<svg width="200" height="200" viewBox="0 0 52.917 52.917" xmlns="http://www.w3.org/2000/svg"><defs><path id="a" d="M-187 208H99v105.5h-286z"/></defs><g transform="translate(249.804 -91.41)"><rect y="91.409" x="-249.804" height="52.917" width="52.917" style="display:inline;fill:#000;fill-opacity:1;fill-rule:nonzero;stroke:none;stroke-width:.5;stroke-linecap:butt;stroke-linejoin:round;stroke-miterlimit:4;stroke-dasharray:none;stroke-dashoffset:0;stroke-opacity:.909449;paint-order:normal" rx="14.552" ry="14.552"/><path style="display:inline;fill:#fff;stroke-width:.450003;stroke-linejoin:round;stroke-opacity:.909449" d="M-199.534 107.152v10.716h-47.625v-10.716z"/><path style="display:inline;fill:#f5abb9;fill-opacity:1;stroke-width:.450003;stroke-linejoin:round;stroke-opacity:.909449" d="M-199.534 117.868v5.358h-47.625v-5.358"/><path style="display:inline;fill:#5bcffa;fill-opacity:1;stroke-width:.450003;stroke-linejoin:round;stroke-opacity:.909449" d="M-199.534 123.226v5.358h-47.625v-5.358zM-234.062 94.055h21.432a13.056 13.056 0 0 1 10.866 5.765h-43.164a13.056 13.056 0 0 1 10.866-5.764z"/><path style="display:inline;fill:#f5abb9;fill-opacity:1;stroke-width:.450003;stroke-linejoin:round;stroke-opacity:.909449" d="M-201.764 99.82a13.034 13.034 0 0 1 2.23 7.332h-47.625a13.034 13.034 0 0 1 2.23-7.333z"/><path style="fill:#000;stroke-width:.244019" d="M-227.382 130.36c-2.772-.638-5.51-1.795-7.668-3.618-1.901-2-1.373-4.945-1.343-7.425.16-2.715.769-5.501 2.29-7.819 2.075-2.123 4.953-3.377 7.806-4.214 3.44-.732 7.295.296 9.848 2.645 1.794 2.132 3.535 4.451 4.337 7.12.567 2.53.908 5.326-.121 7.786-1.351 2.082-3.155 3.99-5.36 5.236-3.157.965-6.556.696-9.79.29zm-2.338-9.852c1.361-1.195 3.149-.197 4.416.586 2.18-.243.295-3.907-1.285-4.33-2.085-1.062-5.109.163-5.282 2.572-.467 1.76.756 2.567 2.15 1.172zm15.008-.14c.116-1.994-1.52-4.373-3.818-3.963-1.872.002-3.407 1.517-3.5 3.302-.71 1.954 1.491 1.459 2.249.467 1.872-1.514 3.33 1.656 4.89.863l.115-.285zm-24.167 6.118c-1.388-1.255-1.928-3.536-3.62-4.313-.702.165-1.548 1.258-1.958.176-1.66-1.3-.907-3.072.22-4.29.186-2.076 2.358.103 3.557-.822 1.609-.243 3.622 1.473 1.476 2.485-.306.442-1.347.804-1.18 1.299 1.02 1.525 2.338 2.86 3.29 4.416.379.797-1.258 1.765-1.785 1.05zm31.898-.385c-.908-.256-.574-2.291-1.55-.99-2.12.208-1.37-2.445.076-2.95.785-.324.403-1.189.49-1.836.05-1.165-.15-2.402.258-3.503-1.166-.963-1.397-4.355.932-3.893 1.204 1.48.574 3.588.768 5.343-.052.84-.018 2.221.84.903 1.103-1.182 3.455-3.421.687-4.233-1.837.037-.876-2.015.496-1.04 1.699.457 4.032 2.273 2.013 3.834-1.24 1.635-2.919 3.04-3.696 4.95-.37.942.647 4.13-1.314 3.415zm-31.877-8.9c-1.66-1.254-3.325-2.62-4.447-4.364-.36-1.72 2.653-1.254 3.792-1.828l2.768-.587c.836.84 1.36 1.907.601 3.001-.723 1.301-.342 3.899-1.562 4.475-.406-.196-.774-.456-1.152-.698zm3.494-7.013c-.057-1.265 3.305-3.406 3.446-1.519-1.113.125-2.579 2.524-3.446 1.519zm4.019-3.068c-.823-.385-.607-.895-.074-1.444 1.15-1.548 2.355-3.223 4.067-4.212 1.923.59 2.717 2.69 3.598 4.272-.204 1.02-2.842.397-3.972 1.022-1.148.127-2.612 1.47-3.62.362z"/><path style="display:inline;fill:#000;stroke-width:.5;stroke-linejoin:round;stroke-opacity:.909449" d="M-196.888 128.583v1.191a14.52 14.52 0 0 1-14.552 14.552h-23.812a14.52 14.52 0 0 1-14.552-14.552v-1.19z"/><g aria-label="DISLIKED" transform="matrix(.26458 0 0 .26458 -193.232 76.034)" style="font-size:34.6667px;line-height:1.25;white-space:pre;shape-inside:url(#a);fill:#5bcffa"><path d="M-184.504 239.627v-22.533h6.656q2.565 0 4.68.624 2.15.624 3.675 1.976 1.525 1.352 2.357 3.467.867 2.114.867 5.096 0 2.981-.832 5.13-.832 2.15-2.358 3.536-1.49 1.387-3.57 2.046-2.046.658-4.472.658zm5.963-4.784h.346q1.214 0 2.288-.277 1.075-.312 1.838-1.04.797-.728 1.248-2.01.45-1.283.45-3.26 0-1.975-.45-3.223-.451-1.248-1.248-1.942-.763-.693-1.838-.936-1.074-.277-2.288-.277h-.346zM-162.248 239.627v-22.533h5.963v22.533zM-144.152 240.043q-2.15 0-4.437-.762-2.254-.798-4.091-2.462l3.397-4.09q1.214.97 2.6 1.594 1.422.59 2.67.59 1.352 0 1.941-.416.624-.416.624-1.179 0-.416-.208-.693-.208-.278-.624-.52-.381-.243-.936-.45-.555-.244-1.283-.52l-2.808-1.18q-.901-.346-1.733-.9-.832-.59-1.456-1.353-.624-.797-1.005-1.803-.347-1.005-.347-2.218 0-1.456.624-2.704.624-1.283 1.733-2.219 1.11-.97 2.635-1.525 1.56-.555 3.397-.555 1.942 0 3.918.728 2.01.728 3.57 2.288l-2.981 3.744q-1.144-.797-2.219-1.213-1.04-.416-2.288-.416-1.109 0-1.733.381-.624.381-.624 1.144 0 .797.867 1.248.901.416 2.461 1.005l2.739 1.075q2.114.832 3.258 2.323 1.144 1.49 1.144 3.848 0 1.421-.589 2.738-.59 1.318-1.733 2.323-1.11.97-2.739 1.56-1.63.59-3.744.59zM-131.741 239.627v-22.533h5.962v17.541h8.528v4.992zM-113.368 239.627v-22.533h5.963v22.533zM-102.413 239.627v-22.533h5.962v8.39h.139l5.685-8.39h6.518l-6.726 9.152 8.043 13.381h-6.517l-4.992-8.666-2.15 3.05v5.616zM-80.643 239.627v-22.533h14.56v4.992h-8.597v3.536h7.35v4.992h-7.35v4.021h8.944v4.992zM-61.368 239.627v-22.533h6.656q2.565 0 4.68.624 2.15.624 3.675 1.976 1.525 1.352 2.357 3.467.867 2.114.867 5.096 0 2.981-.832 5.13-.832 2.15-2.358 3.536-1.49 1.387-3.57 2.046-2.046.658-4.472.658zm5.963-4.784h.346q1.214 0 2.288-.277 1.075-.312 1.838-1.04.797-.728 1.248-2.01.45-1.283.45-3.26 0-1.975-.45-3.223-.451-1.248-1.248-1.942-.763-.693-1.838-.936-1.074-.277-2.288-.277h-.346z" style="font-weight:900;font-family:'Source Sans Pro';-inkscape-font-specification:'Source Sans Pro Heavy'"/></g></g></svg>