<?xml version="1.0" encoding="UTF-8" standalone="no"?>
<svg
   width="200"
   height="200"
   viewBox="0 0 52.916668 52.916666"
   version="1.1"
   id="svg8"
   inkscape:version="1.1 (c68e22c387, 2021-05-23)"
   sodipodi:docname="disliked.svg"
   xmlns:inkscape="http://www.inkscape.org/namespaces/inkscape"
   xmlns:sodipodi="http://sodipodi.sourceforge.net/DTD/sodipodi-0.dtd"
   xmlns="http://www.w3.org/2000/svg"
   xmlns:svg="http://www.w3.org/2000/svg"
   xmlns:rdf="http://www.w3.org/1999/02/22-rdf-syntax-ns#"
   xmlns:cc="http://creativecommons.org/ns#"
   xmlns:dc="http://purl.org/dc/elements/1.1/">
  <defs
     id="defs2">
    <rect
       x="-187"
       y="208"
       width="286"
       height="105.5"
       id="rect29315" />
    <rect
       x="-134"
       y="226"
       width="203.5"
       height="70.5"
       id="rect25303" />
    <rect
       x="-247"
       y="42"
       width="137"
       height="81.5"
       id="rect1185" />
    <rect
       x="-48.175333"
       y="18.9895"
       width="46.117357"
       height="15.996081"
       id="rect880" />
    <rect
       x="-255.23004"
       y="125.83378"
       width="102.52459"
       height="46.959256"
       id="rect873" />
    <inkscape:path-effect
       effect="envelope"
       id="path-effect4658"
       is_visible="true"
       yy="true"
       xx="true"
       bendpath1="m -199.08406,108.42369 h 7.0057"
       bendpath2="m -192.07836,108.42369 v 6.75242"
       bendpath3="m -199.08406,115.17611 h 7.0057"
       bendpath4="m -199.08406,108.42369 v 6.75242" />
    <inkscape:path-effect
       effect="bend_path"
       id="path-effect4656"
       is_visible="true"
       bendpath="m -192.00142,114.60623 c 2.12577,-0.53066 4.48261,0.85111 7.0057,0"
       prop_scale="1"
       scale_y_rel="false"
       vertical="false"
       bendpath-nodetypes="cc" />
    <inkscape:path-effect
       effect="bounding_box"
       id="path-effect4654"
       is_visible="true"
       linkedpath=""
       visualbounds="false" />
    <linearGradient
       id="linearGradient3288"
       inkscape:swatch="solid">
      <stop
         style="stop-color:#000000;stop-opacity:1;"
         offset="0"
         id="stop3286" />
    </linearGradient>
    <linearGradient
       id="linearGradient1364"
       inkscape:swatch="solid">
      <stop
         style="stop-color:#ffffff;stop-opacity:1;"
         offset="0"
         id="stop1362" />
    </linearGradient>
    <rect
       x="293.80286"
       y="272.58966"
       width="25.455845"
       height="37.830212"
       id="rect1056" />
    <rect
       x="222.73865"
       y="266.22571"
       width="47.376156"
       height="54.09367"
       id="rect1050" />
    <rect
       x="139.30003"
       y="246.42671"
       width="58.336308"
       height="48.790367"
       id="rect1044" />
    <rect
       x="131.1683"
       y="203.64674"
       width="61.871841"
       height="73.892654"
       id="rect1038" />
    <rect
       x="81.67083"
       y="193.04015"
       width="63.63961"
       height="55.507881"
       id="rect1032" />
    <rect
       x="83.085045"
       y="274.35742"
       width="44.194176"
       height="38.890873"
       id="rect1026" />
    <rect
       x="3.5355339"
       y="269.05414"
       width="65.760933"
       height="53.386562"
       id="rect1020" />
    <rect
       x="14.142136"
       y="226.27417"
       width="79.195961"
       height="62.932503"
       id="rect1014" />
    <rect
       x="11.313708"
       y="171.82695"
       width="36.416"
       height="51.618793"
       id="rect1008" />
    <rect
       x="3.1819806"
       y="132.22897"
       width="102.88404"
       height="102.53048"
       id="rect1002" />
  </defs>
  <sodipodi:namedview
     id="base"
     pagecolor="#ffffff"
     bordercolor="#666666"
     borderopacity="1.0"
     inkscape:pageopacity="0.0"
     inkscape:pageshadow="2"
     inkscape:zoom="2"
     inkscape:cx="16.5"
     inkscape:cy="-7.75"
     inkscape:document-units="mm"
     inkscape:current-layer="layer1"
     showgrid="false"
     fit-margin-top="0"
     fit-margin-left="0"
     fit-margin-right="0"
     fit-margin-bottom="0"
     inkscape:window-width="1920"
     inkscape:window-height="1017"
     inkscape:window-x="-8"
     inkscape:window-y="-8"
     inkscape:window-maximized="1"
     showguides="false"
     inkscape:object-nodes="true"
     units="px"
     inkscape:snap-page="true"
     inkscape:document-rotation="0"
     inkscape:pagecheckerboard="1" />
  <metadata
     id="metadata5">
    <rdf:RDF>
      <cc:Work
         rdf:about="">
        <dc:format>image/svg+xml</dc:format>
        <dc:type
           rdf:resource="http://purl.org/dc/dcmitype/StillImage" />
      </cc:Work>
    </rdf:RDF>
  </metadata>
  <g
     inkscape:label="Base"
     inkscape:groupmode="layer"
     id="layer1"
     transform="translate(249.80447,-91.409467)">
    <rect
       y="91.40947"
       x="-249.80447"
       height="52.916668"
       width="52.916668"
       id="rect5238-5"
       style="display:inline;fill:#000000;fill-opacity:1;fill-rule:nonzero;stroke:none;stroke-width:0.5;stroke-linecap:butt;stroke-linejoin:round;stroke-miterlimit:4;stroke-dasharray:none;stroke-dashoffset:0;stroke-opacity:0.909449;paint-order:normal"
       rx="14.552089"
       ry="14.552081"
       inkscape:label="Bottom-rectangle" />
    <g
       id="g412"
       inkscape:label="Background">
      <path
         id="rect18865"
         style="display:inline;fill:#ffffff;stroke-width:0.450003;stroke-linejoin:round;stroke-opacity:0.909449"
         d="m -199.5335,107.15211 v 10.7157 h -47.6253 v -10.7157 z"
         sodipodi:nodetypes="ccccc"
         inkscape:label="Inner-rectangle" />
      <path
         id="path779"
         style="display:inline;fill:#f5abb9;fill-opacity:1;stroke-width:0.450003;stroke-linejoin:round;stroke-opacity:0.909449"
         d="m -199.5335,117.86781 v 5.35784 h -47.6253 v -5.35784"
         sodipodi:nodetypes="cccc"
         inkscape:label="Inner-rectangle-2" />
      <path
         id="path800"
         style="display:inline;fill:#5bcffa;fill-opacity:1;stroke-width:0.450003;stroke-linejoin:round;stroke-opacity:0.909449"
         d="m -199.5335,123.22565 v 5.35785 h -47.6253 v -5.35785 z"
         sodipodi:nodetypes="ccccc"
         inkscape:label="Inner-rectangle-3" />
      <path
         id="path12981"
         style="display:inline;fill:#5bcffa;fill-opacity:1;stroke-width:0.450003;stroke-linejoin:round;stroke-opacity:0.909449"
         d="m -234.06184,94.055153 h 21.43138 c 3.62786,0 6.9021,1.460307 9.26938,3.827585 0.59182,0.591818 1.12695,1.240321 1.59675,1.936864 h -43.16364 c 0.46981,-0.696542 1.00494,-1.345046 1.59676,-1.936864 2.36728,-2.367268 5.64152,-3.827585 9.26937,-3.827585 z"
         sodipodi:nodetypes="sssccss"
         inkscape:label="Inner-rectangle-4" />
      <path
         id="path12983"
         style="display:inline;fill:#f5abb9;fill-opacity:1;stroke-width:0.450003;stroke-linejoin:round;stroke-opacity:0.909449"
         d="m -201.76433,99.819602 c 0.4698,0.696548 0.87427,1.441128 1.20477,2.225098 0.66098,1.56796 1.02606,3.29348 1.02606,5.10741 h -47.6253 c 0,-1.81393 0.36508,-3.53945 1.02607,-5.10741 0.33049,-0.78397 0.73496,-1.52855 1.20476,-2.225098 z"
         sodipodi:nodetypes="csccscc"
         inkscape:label="Inner-rectangle-5" />
    </g>
    <path
       style="fill:#000000;stroke-width:0.244019"
       d="m -227.3821,130.36028 c -2.77221,-0.63877 -5.50903,-1.79502 -7.66798,-3.61837 -1.90125,-2.00072 -1.37245,-4.94509 -1.34262,-7.42478 0.15884,-2.71508 0.76845,-5.50152 2.28925,-7.81899 2.07576,-2.1229 4.95375,-3.3767 7.80644,-4.21449 3.4404,-0.73165 7.29471,0.29668 9.84796,2.64559 1.79355,2.13221 3.53472,4.45075 4.33736,7.11921 0.56632,2.53045 0.90741,5.32681 -0.12158,7.78676 -1.35068,2.0822 -3.15487,3.98936 -5.35996,5.23616 -3.15706,0.96416 -6.55533,0.69574 -9.78887,0.28891 z m -2.33814,-9.85208 c 1.3616,-1.19545 3.14904,-0.19699 4.416,0.58574 2.18055,-0.24263 0.29569,-3.90648 -1.2852,-4.32916 -2.08473,-1.06288 -5.10856,0.16199 -5.28188,2.57149 -0.46688,1.75967 0.75677,2.56718 2.15108,1.17193 z m 15.00792,-0.14065 c 0.11607,-1.9938 -1.52001,-4.37229 -3.81808,-3.96299 -1.87172,0.002 -3.40659,1.5179 -3.49978,3.30272 -0.71058,1.95376 1.49158,1.45857 2.2491,0.46637 1.87239,-1.51343 3.33002,1.65586 4.89062,0.86377 l 0.11487,-0.28581 z m -24.16634,6.11877 c -1.38825,-1.25538 -1.92863,-3.53651 -3.61981,-4.31346 -0.70278,0.16564 -1.5484,1.25833 -1.95821,0.17585 -1.66017,-1.29989 -0.9073,-3.07172 0.2193,-4.28895 0.18645,-2.0768 2.35817,0.10257 3.55715,-0.82254 1.60897,-0.24371 3.62234,1.47322 1.47573,2.48482 -0.30525,0.44242 -1.34633,0.80433 -1.17896,1.29847 1.01994,1.52573 2.33773,2.86017 3.28879,4.41666 0.37959,0.79635 -1.25757,1.76449 -1.78399,1.04915 z m 31.89767,-0.38514 c -0.90841,-0.25646 -0.57372,-2.29163 -1.55074,-0.99036 -2.11884,0.20804 -1.36923,-2.44479 0.0768,-2.9497 0.78533,-0.32372 0.4026,-1.18882 0.48976,-1.83613 0.0501,-1.1648 -0.15037,-2.40227 0.25781,-3.50348 -1.1653,-0.96265 -1.39648,-4.35437 0.93228,-3.89245 1.2037,1.48008 0.57443,3.5881 0.76844,5.34308 -0.0524,0.83976 -0.0185,2.22125 0.8395,0.90274 1.10282,-1.18169 3.4549,-3.42119 0.68745,-4.23259 -1.83751,0.0365 -0.87649,-2.01506 0.49557,-1.03986 1.69901,0.4564 4.03175,2.27261 2.01302,3.83314 -1.23987,1.63572 -2.91861,3.03989 -3.69547,4.94998 -0.37069,0.94274 0.64616,4.12971 -1.31447,3.41563 z m -31.87738,-8.90089 c -1.65993,-1.2537 -3.32462,-2.61963 -4.44695,-4.36325 -0.36018,-1.72072 2.65322,-1.25392 3.7919,-1.82797 0.92276,-0.19561 1.84552,-0.39122 2.76826,-0.58683 0.83576,0.84055 1.36024,1.90675 0.60161,3.00076 -0.72341,1.30102 -0.34294,3.89891 -1.56234,4.47483 -0.40641,-0.19631 -0.77459,-0.45603 -1.15248,-0.69754 z m 3.4945,-7.01255 c -0.057,-1.26442 3.3045,-3.4062 3.44614,-1.51834 -1.1129,0.12452 -2.57883,2.52402 -3.44614,1.51834 z m 4.01858,-3.06792 c -0.82267,-0.38484 -0.60704,-0.89522 -0.0739,-1.44401 1.1495,-1.54827 2.35557,-3.22314 4.06735,-4.21217 1.92321,0.59087 2.71733,2.69099 3.59823,4.27273 -0.20483,1.01944 -2.84287,0.3967 -3.97271,1.02154 -1.14773,0.12666 -2.61152,1.46989 -3.61898,0.36191 z"
       id="path60"
       inkscape:label="drawing" />
    <path
       id="rect19240"
       style="display:inline;fill:#000000;stroke-width:0.5;stroke-linejoin:round;stroke-opacity:0.909449"
       d="m -196.88781,128.58347 v 1.19059 c 0,8.06185 -6.49023,14.55208 -14.55208,14.55208 h -23.8125 c -8.06185,0 -14.55208,-6.49023 -14.55208,-14.55208 v -1.19059 z"
       sodipodi:nodetypes="csssscc"
       inkscape:label="Bottom-label" />
    <g
       aria-label="DISLIKED"
       transform="matrix(0.26458333,0,0,0.26458333,-193.23159,76.034343)"
       id="text29313"
       style="font-size:34.6667px;line-height:1.25;white-space:pre;shape-inside:url(#rect29315);fill:#5bcffa"
       inkscape:export-filename="C:\Users\Rodri\Downloads\disliked.png"
       inkscape:export-xdpi="96"
       inkscape:export-ydpi="96">
      <path
         d="m -184.504,239.62748 v -22.53335 h 6.65601 q 2.56533,0 4.68,0.624 2.14934,0.624 3.67467,1.976 1.52534,1.352 2.35734,3.46667 0.86667,2.11467 0.86667,5.096 0,2.98134 -0.83201,5.13067 -0.832,2.14934 -2.35733,3.53601 -1.49067,1.38667 -3.57067,2.04533 -2.04534,0.65867 -4.472,0.65867 z m 5.96267,-4.784 h 0.34667 q 1.21334,0 2.288,-0.27734 1.07467,-0.312 1.83734,-1.04 0.79733,-0.728 1.248,-2.01067 0.45067,-1.28267 0.45067,-3.25867 0,-1.976 -0.45067,-3.224 -0.45067,-1.248 -1.248,-1.94134 -0.76267,-0.69333 -1.83734,-0.936 -1.07466,-0.27733 -2.288,-0.27733 h -0.34667 z"
         style="font-weight:900;font-family:'Source Sans Pro';-inkscape-font-specification:'Source Sans Pro Heavy'"
         id="path35437" />
      <path
         d="m -162.24804,239.62748 v -22.53335 h 5.96267 v 22.53335 z"
         style="font-weight:900;font-family:'Source Sans Pro';-inkscape-font-specification:'Source Sans Pro Heavy'"
         id="path35439" />
      <path
         d="m -144.15202,240.04348 q -2.14934,0 -4.43734,-0.76267 -2.25333,-0.79733 -4.09067,-2.46133 l 3.39734,-4.09067 q 1.21333,0.97066 2.6,1.59467 1.42133,0.58933 2.66934,0.58933 1.352,0 1.94133,-0.416 0.624,-0.416 0.624,-1.17867 0,-0.416 -0.208,-0.69333 -0.208,-0.27734 -0.624,-0.52 -0.38133,-0.24267 -0.936,-0.45067 -0.55467,-0.24267 -1.28267,-0.52 l -2.808,-1.17867 q -0.90134,-0.34667 -1.73334,-0.90133 -0.832,-0.58934 -1.456,-1.352 -0.624,-0.79734 -1.00533,-1.80267 -0.34667,-1.00534 -0.34667,-2.21867 0,-1.456 0.624,-2.704 0.624,-1.28267 1.73334,-2.21867 1.10933,-0.97067 2.63467,-1.52534 1.56,-0.55466 3.39733,-0.55466 1.94134,0 3.91734,0.728 2.01067,0.728 3.57067,2.288 l -2.98134,3.744 q -1.144,-0.79733 -2.21867,-1.21333 -1.04,-0.416 -2.288,-0.416 -1.10933,0 -1.73333,0.38133 -0.624,0.38133 -0.624,1.144 0,0.79734 0.86666,1.248 0.90134,0.416 2.46134,1.00534 l 2.73867,1.07466 q 2.11467,0.83201 3.25867,2.32267 1.144,1.49067 1.144,3.84801 0,1.42133 -0.58933,2.73867 -0.58934,1.31733 -1.73334,2.32267 -1.10933,0.97066 -2.73867,1.56 -1.62933,0.58933 -3.744,0.58933 z"
         style="font-weight:900;font-family:'Source Sans Pro';-inkscape-font-specification:'Source Sans Pro Heavy'"
         id="path35441" />
      <path
         d="m -131.74137,239.62748 v -22.53335 h 5.96267 v 17.54135 h 8.52801 v 4.992 z"
         style="font-weight:900;font-family:'Source Sans Pro';-inkscape-font-specification:'Source Sans Pro Heavy'"
         id="path35443" />
      <path
         d="m -113.36806,239.62748 v -22.53335 h 5.96267 v 22.53335 z"
         style="font-weight:900;font-family:'Source Sans Pro';-inkscape-font-specification:'Source Sans Pro Heavy'"
         id="path35445" />
      <path
         d="m -102.41339,239.62748 v -22.53335 h 5.962671 v 8.38934 h 0.138667 l 5.685338,-8.38934 h 6.51734 l -6.72534,9.152 8.042674,13.38135 h -6.517339 l -4.992005,-8.66667 -2.149335,3.05066 v 5.61601 z"
         style="font-weight:900;font-family:'Source Sans Pro';-inkscape-font-specification:'Source Sans Pro Heavy'"
         id="path35447" />
      <path
         d="m -80.642761,239.62748 v -22.53335 h 14.560013 v 4.992 h -8.597341 v 3.536 h 7.34934 v 4.99201 h -7.34934 v 4.02134 h 8.944008 v 4.992 z"
         style="font-weight:900;font-family:'Source Sans Pro';-inkscape-font-specification:'Source Sans Pro Heavy'"
         id="path35449" />
      <path
         d="m -61.36808,239.62748 v -22.53335 h 6.656006 q 2.565336,0 4.680004,0.624 2.149336,0.624 3.67467,1.976 1.525335,1.352 2.357336,3.46667 0.866667,2.11467 0.866667,5.096 0,2.98134 -0.832,5.13067 -0.832001,2.14934 -2.357336,3.53601 -1.490668,1.38667 -3.57067,2.04533 -2.045335,0.65867 -4.472004,0.65867 z m 5.962672,-4.784 h 0.346667 q 1.213335,0 2.288002,-0.27734 1.074668,-0.312 1.837335,-1.04 0.797334,-0.728 1.248001,-2.01067 0.450667,-1.28267 0.450667,-3.25867 0,-1.976 -0.450667,-3.224 -0.450667,-1.248 -1.248001,-1.94134 -0.762667,-0.69333 -1.837335,-0.936 -1.074667,-0.27733 -2.288002,-0.27733 h -0.346667 z"
         style="font-weight:900;font-family:'Source Sans Pro';-inkscape-font-specification:'Source Sans Pro Heavy'"
         id="path35451" />
    </g>
  </g>
</svg>
