<svg width="200" height="200" viewBox="0 0 52.917 52.917" xmlns="http://www.w3.org/2000/svg"><defs><path id="a" d="M-198.5 189H-32v112h-166.5z"/></defs><g transform="translate(249.804 -91.41)"><rect y="91.409" x="-249.804" height="52.917" width="52.917" style="display:inline;fill:#000;fill-opacity:1;fill-rule:nonzero;stroke:none;stroke-width:.5;stroke-linecap:butt;stroke-linejoin:round;stroke-miterlimit:4;stroke-dasharray:none;stroke-dashoffset:0;stroke-opacity:.909449;paint-order:normal" rx="14.552" ry="14.552"/><path style="display:inline;fill:#ee2436;fill-opacity:1;stroke-width:.450003;stroke-linejoin:round;stroke-opacity:.909449" d="M-199.534 116.528v12.055h-47.625v-12.055z"/><path style="display:inline;fill:#fff;fill-opacity:1;stroke-width:.450003;stroke-linejoin:round;stroke-opacity:.909449" d="M-199.799 104.506c.174.854.265 1.74.265 2.646v9.376h-47.625v-9.376c0-.907.091-1.792.265-2.646z"/><path style="display:inline;fill:#ee2436;fill-opacity:1;stroke-width:.450003;stroke-linejoin:round;stroke-opacity:.909449" d="M-234.062 94.055h21.432c3.627 0 6.902 1.46 9.269 3.828a13.066 13.066 0 0 1 3.562 6.623h-47.095a13.021 13.021 0 0 1 3.563-6.623 13.056 13.056 0 0 1 9.27-3.828z"/><g style="display:inline;fill:#000;fill-opacity:1;stroke-width:1.23716"><path style="fill:#000;fill-opacity:1;stroke-width:1.23716" d="M140.363 106.75c1.02.417 1.05 2.584-.02 3.072-1.124.694-3.19.497-1.34-.756.648-.653.987-1.502 1.36-2.317M136.758 105.456c.925-.204 3.165.37 2.138 1.731-.541 1.184-1.624 2.025-2.566 2.883-1.363.672-3.063-.25-1.378-1.434.775-.957 1.254-2.095 1.806-3.18M132.668 104.382c.89-.058 3.444-.038 2.591 1.436-.633 1.368-1.506 2.656-2.572 3.717-.93.024-3.397.334-3.448-.7 1.194-1.326 2.701-2.468 3.273-4.234l.085-.136.07-.083M129.571 104.172c1.348-.848 2.5.11 1.143 1.29-.375.89-2.207 2.732-1.608.523.147-.61.018-1.307.465-1.813M120.783 91.932c1.17.19 2.192 1.102 3.024 1.938 1.379 1.17 2.43 2.861 2.247 4.734.196 1.33-.684 2.514-.67 3.796.32 1.409 1.001 2.755 2.108 3.698 1.101 1.452-.038 2.984-1.764 2.227-1.72-.662-3.135-1.993-4.218-3.45-.646-.851-.841-1.849-.742-2.898-.107-1.746 1.063-3.296.792-5.068-.082-1.506-.365-3.068-1.264-4.319.017-.277.299-.48.487-.658m5.645 15.365c.477-.586-1.35-1.506-1.362-2.489-.873-1.396-1.083-3.198-.336-4.696.481-1.416.287-2.998-.597-4.212-.428-.708-2.175-2.517-1.615-.547.167 1.849.247 3.768-.505 5.511-.51 1.506-.016 3.15 1.122 4.226.937.908 1.908 2.091 3.292 2.207" transform="matrix(.89998 0 0 .89998 -350.73 26.141)"/><path style="fill:#000;fill-opacity:1;stroke-width:1.23716" d="M144.535 85.017c2.22-.261 4.476-.079 6.713-.133 1.546.045 3.119.359 4.438 1.215 1.02.632 2.297.916 3.162 1.745.728.978 1.843 1.537 2.466 2.61 1.437 2.032 2.663 4.283 2.959 6.795.61 2.52.287 5.13.368 7.698.048 2.502-.21 5.075-1.243 7.377-.919 1.523-2.292 2.938-4.078 3.353-1.366.562-2.824 1.037-4.326.923-1.335.07-2.644-.116-3.963-.254-1.673-.037-3.357.085-5-.26-2.935-.149-5.746-1.133-8.498-2.092-1.306-.9-3.065-1.382-3.91-2.796 1.29.135 2.613.468 3.948.144 1.567-.012 3.694.065 4.454-1.621.282-1.384.419-3.419-1.163-4.072a20.641 20.641 0 0 0-5.01-1.907c-.739-.911-2.163-1.48-2.186-2.86-1.517-1.164-.524 1.925-.875 2.145-2.032.313-1.59-1.56-1.342-2.887.175-1.688.444-3.373 1.11-4.955.637-2.171 1.98-4.059 3.67-5.542 1.307-1.39 2.727-2.781 4.614-3.323 1.173-.587 2.419-1 3.693-1.302m-4.664 17.238c1.73-.237 2.175-2.3 2.04-3.761.074-1.342-.723-2.735-2.143-2.911-2.61-.773-5.406 1.887-4.95 4.526.092 1.76 2.154 2.378 3.634 2.216.475.002.95.012 1.42-.07m17.55 6.07c.873-.039 2.694-1.69 1.249-2.145-.853.866-2.007 1.412-3.224 1.066-1.47 1.118 1.427 1.29 1.975 1.079m-.873-2.63c1.854-.299 3.088-2.217 2.805-4.035.315-1.489-.826-2.441-2.046-2.953-1.267-.473-2.97-.627-4.146.185-1.505.768-2.165 2.718-1.901 4.313.621 1.328 1.883 2.588 3.458 2.532.61.03 1.224.051 1.83-.042" transform="matrix(.89998 0 0 .89998 -350.73 26.141)"/></g><path style="display:inline;fill:#000;stroke-width:.5;stroke-linejoin:round;stroke-opacity:.909449" d="M-196.888 128.583v1.191a14.52 14.52 0 0 1-14.552 14.552h-23.812a14.52 14.52 0 0 1-14.552-14.552v-1.19z"/><g aria-label="EDGY" transform="translate(-173.933 66.032) scale(.33141)" style="font-size:40px;line-height:1.25;white-space:pre;shape-inside:url(#a);fill:#ee2436"><path d="M-195.62 225.493v-26h16.8v5.76h-9.92v4.08h8.48v5.76h-8.48v4.64h10.32v5.76z" style="font-weight:900;font-family:'Source Sans Pro';-inkscape-font-specification:'Source Sans Pro Heavy'"/><path d="M-173.38 225.493v-26h7.68q2.96 0 5.4.72 2.48.72 4.24 2.28 1.76 1.56 2.72 4 1 2.44 1 5.88t-.96 5.92q-.96 2.48-2.72 4.08-1.72 1.6-4.12 2.36-2.36.76-5.16.76zm6.88-5.52h.4q1.4 0 2.64-.32 1.24-.36 2.12-1.2.92-.84 1.44-2.32.52-1.48.52-3.76t-.52-3.72q-.52-1.44-1.44-2.24-.88-.8-2.12-1.08-1.24-.32-2.64-.32h-.4zM-135.7 225.973q-2.72 0-5.12-.8-2.4-.84-4.2-2.48-1.76-1.68-2.8-4.16-1-2.52-1-5.84 0-3.28 1.04-5.8 1.04-2.56 2.8-4.28 1.8-1.76 4.16-2.68 2.36-.92 4.96-.92 2.88 0 4.96 1.04 2.12 1 3.52 2.4l-3.6 4.4q-.96-.84-2.04-1.36-1.04-.56-2.6-.56-1.32 0-2.44.52-1.12.52-1.96 1.48-.84.96-1.32 2.36-.44 1.4-.44 3.16 0 3.68 1.64 5.64 1.64 1.96 5.16 1.96.56 0 1.08-.12.56-.12.92-.36v-3.6h-3.84v-5.6h9.92v12.4q-1.4 1.32-3.72 2.28-2.32.92-5.08.92z" style="font-weight:900;font-family:'Source Sans Pro';-inkscape-font-specification:'Source Sans Pro Heavy';fill:#fff"/><path d="M-117.3 225.493v-8.96l-7.84-17.04h7.36l1.92 5.44q.48 1.48.96 2.88l1 2.92h.16l1-2.92q.52-1.4 1.04-2.88l1.92-5.44h7.2l-7.84 17.04v8.96z" style="font-weight:900;font-family:'Source Sans Pro';-inkscape-font-specification:'Source Sans Pro Heavy'"/></g></g></svg>