<?xml version="1.0" encoding="UTF-8" standalone="no"?>
<svg
   width="200"
   height="200"
   viewBox="0 0 52.916668 52.916666"
   version="1.1"
   id="svg8"
   inkscape:version="1.1 (c68e22c387, 2021-05-23)"
   sodipodi:docname="edgy.svg"
   xmlns:inkscape="http://www.inkscape.org/namespaces/inkscape"
   xmlns:sodipodi="http://sodipodi.sourceforge.net/DTD/sodipodi-0.dtd"
   xmlns="http://www.w3.org/2000/svg"
   xmlns:svg="http://www.w3.org/2000/svg"
   xmlns:rdf="http://www.w3.org/1999/02/22-rdf-syntax-ns#"
   xmlns:cc="http://creativecommons.org/ns#"
   xmlns:dc="http://purl.org/dc/elements/1.1/">
  <defs
     id="defs2">
    <rect
       x="-198.5"
       y="189"
       width="166.5"
       height="112"
       id="rect3340" />
    <rect
       x="-139"
       y="247.5"
       width="294.5"
       height="68.5"
       id="rect17127" />
    <rect
       x="-210.5"
       y="241.5"
       width="234"
       height="91"
       id="rect1732" />
    <rect
       x="-247"
       y="42"
       width="137"
       height="81.5"
       id="rect1185" />
    <rect
       x="-48.175333"
       y="18.9895"
       width="46.117357"
       height="15.996081"
       id="rect880" />
    <rect
       x="-255.23004"
       y="125.83378"
       width="102.52459"
       height="46.959256"
       id="rect873" />
    <inkscape:path-effect
       effect="envelope"
       id="path-effect4658"
       is_visible="true"
       yy="true"
       xx="true"
       bendpath1="m -199.08406,108.42369 h 7.0057"
       bendpath2="m -192.07836,108.42369 v 6.75242"
       bendpath3="m -199.08406,115.17611 h 7.0057"
       bendpath4="m -199.08406,108.42369 v 6.75242" />
    <inkscape:path-effect
       effect="bend_path"
       id="path-effect4656"
       is_visible="true"
       bendpath="m -192.00142,114.60623 c 2.12577,-0.53066 4.48261,0.85111 7.0057,0"
       prop_scale="1"
       scale_y_rel="false"
       vertical="false"
       bendpath-nodetypes="cc" />
    <inkscape:path-effect
       effect="bounding_box"
       id="path-effect4654"
       is_visible="true"
       linkedpath=""
       visualbounds="false" />
    <linearGradient
       id="linearGradient3288"
       inkscape:swatch="solid">
      <stop
         style="stop-color:#000000;stop-opacity:1;"
         offset="0"
         id="stop3286" />
    </linearGradient>
    <linearGradient
       id="linearGradient1364"
       inkscape:swatch="solid">
      <stop
         style="stop-color:#ffffff;stop-opacity:1;"
         offset="0"
         id="stop1362" />
    </linearGradient>
    <rect
       x="293.80286"
       y="272.58966"
       width="25.455845"
       height="37.830212"
       id="rect1056" />
    <rect
       x="222.73865"
       y="266.22571"
       width="47.376156"
       height="54.09367"
       id="rect1050" />
    <rect
       x="139.30003"
       y="246.42671"
       width="58.336308"
       height="48.790367"
       id="rect1044" />
    <rect
       x="131.1683"
       y="203.64674"
       width="61.871841"
       height="73.892654"
       id="rect1038" />
    <rect
       x="81.67083"
       y="193.04015"
       width="63.63961"
       height="55.507881"
       id="rect1032" />
    <rect
       x="83.085045"
       y="274.35742"
       width="44.194176"
       height="38.890873"
       id="rect1026" />
    <rect
       x="3.5355339"
       y="269.05414"
       width="65.760933"
       height="53.386562"
       id="rect1020" />
    <rect
       x="14.142136"
       y="226.27417"
       width="79.195961"
       height="62.932503"
       id="rect1014" />
    <rect
       x="11.313708"
       y="171.82695"
       width="36.416"
       height="51.618793"
       id="rect1008" />
    <rect
       x="3.1819806"
       y="132.22897"
       width="102.88404"
       height="102.53048"
       id="rect1002" />
  </defs>
  <sodipodi:namedview
     id="base"
     pagecolor="#ffffff"
     bordercolor="#666666"
     borderopacity="1.0"
     inkscape:pageopacity="0.0"
     inkscape:pageshadow="2"
     inkscape:zoom="2"
     inkscape:cx="37.5"
     inkscape:cy="150.75"
     inkscape:document-units="mm"
     inkscape:current-layer="layer1"
     showgrid="false"
     fit-margin-top="0"
     fit-margin-left="0"
     fit-margin-right="0"
     fit-margin-bottom="0"
     inkscape:window-width="1920"
     inkscape:window-height="1017"
     inkscape:window-x="-8"
     inkscape:window-y="-8"
     inkscape:window-maximized="1"
     showguides="false"
     inkscape:object-nodes="true"
     units="px"
     inkscape:snap-page="true"
     inkscape:document-rotation="0"
     inkscape:pagecheckerboard="1" />
  <metadata
     id="metadata5">
    <rdf:RDF>
      <cc:Work
         rdf:about="">
        <dc:format>image/svg+xml</dc:format>
        <dc:type
           rdf:resource="http://purl.org/dc/dcmitype/StillImage" />
      </cc:Work>
    </rdf:RDF>
  </metadata>
  <g
     inkscape:label="Base"
     inkscape:groupmode="layer"
     id="layer1"
     transform="translate(249.80447,-91.409467)">
    <rect
       y="91.40947"
       x="-249.80447"
       height="52.916668"
       width="52.916668"
       id="rect5238-5"
       style="display:inline;fill:#000000;fill-opacity:1;fill-rule:nonzero;stroke:none;stroke-width:0.5;stroke-linecap:butt;stroke-linejoin:round;stroke-miterlimit:4;stroke-dasharray:none;stroke-dashoffset:0;stroke-opacity:0.909449;paint-order:normal"
       rx="14.552089"
       ry="14.552081"
       inkscape:label="Bottom-rectangle" />
    <path
       id="rect18865"
       style="display:inline;fill:#ee2436;fill-opacity:1;stroke-width:0.450003;stroke-linejoin:round;stroke-opacity:0.909449"
       d="m -199.5335,116.52834 v 12.05516 h -47.6253 v -12.05516 z"
       sodipodi:nodetypes="ccccc"
       inkscape:label="Inner-rectangle" />
    <path
       id="path7733"
       style="display:inline;fill:#ffffff;fill-opacity:1;stroke-width:0.450003;stroke-linejoin:round;stroke-opacity:0.909449"
       d="m -199.79866,104.50617 c 0.17389,0.85411 0.26516,1.73898 0.26516,2.64594 v 9.37623 h -47.6253 v -9.37623 c 0,-0.90696 0.0913,-1.79183 0.26516,-2.64594 z"
       sodipodi:nodetypes="ccccccc"
       inkscape:label="Inner-rectangle-2" />
    <path
       id="path7735"
       style="display:inline;fill:#ee2436;fill-opacity:1;stroke-width:0.450003;stroke-linejoin:round;stroke-opacity:0.909449"
       d="m -234.06184,94.055153 h 21.43138 c 3.62786,0 6.9021,1.46031 9.26938,3.827585 1.18363,1.183638 2.14053,2.594012 2.80152,4.161972 0.33049,0.78397 0.58701,1.60734 0.7609,2.46146 h -47.09498 c 0.1739,-0.85412 0.43041,-1.67749 0.76091,-2.46146 0.66098,-1.56796 1.61788,-2.978334 2.80152,-4.161972 2.36727,-2.367274 5.64152,-3.827585 9.26937,-3.827585 z"
       sodipodi:nodetypes="ccssccssc"
       inkscape:label="Inner-rectangle-3" />
    <g
       id="g942"
       transform="matrix(0.89998427,0,0,0.89998427,-350.72941,26.141238)"
       style="display:inline;fill:#000000;fill-opacity:1;stroke-width:1.23716"
       inkscape:label="Drawing">
      <path
         id="path923"
         style="fill:#000000;fill-opacity:1;stroke-width:1.23716"
         d="m 140.3635,106.74964 c 1.01957,0.41774 1.05043,2.58433 -0.0206,3.07196 -1.12378,0.69409 -3.19061,0.49782 -1.33923,-0.75522 0.64772,-0.65342 0.98639,-1.5028 1.35948,-2.31701" />
      <path
         id="path919"
         style="fill:#000000;fill-opacity:1;stroke-width:1.23716"
         d="m 136.75832,105.45587 c 0.92459,-0.204 3.16444,0.37067 2.13817,1.73121 -0.54162,1.18359 -1.6247,2.02449 -2.5668,2.88246 -1.36261,0.67264 -3.06301,-0.25032 -1.37771,-1.43384 0.77457,-0.9564 1.25385,-2.09491 1.806,-3.17952" />
      <path
         id="path917"
         style="fill:#000000;fill-opacity:1;stroke-width:1.23716"
         d="m 132.66809,104.38168 c 0.8897,-0.0572 3.44372,-0.0374 2.59101,1.43659 -0.63337,1.36761 -1.50586,2.65555 -2.5724,3.71673 -0.92972,0.0236 -3.3971,0.33375 -3.44747,-0.69938 1.19337,-1.32667 2.70124,-2.46883 3.27271,-4.23455 l 0.0847,-0.13582 0.0713,-0.0832" />
      <path
         id="path915"
         style="fill:#000000;fill-opacity:1;stroke-width:1.23716"
         d="m 129.57097,104.1723 c 1.34787,-0.84816 2.50066,0.11013 1.14309,1.28921 -0.37523,0.89114 -2.20682,2.73253 -1.6079,0.52365 0.14649,-0.61007 0.0177,-1.30744 0.46501,-1.81299" />
      <path
         id="path907"
         style="fill:#000000;fill-opacity:1;stroke-width:1.23716"
         d="m 120.78333,91.931677 c 1.17052,0.19056 2.19148,1.102281 3.02354,1.937909 1.37908,1.170342 2.4297,2.861475 2.24691,4.734253 0.19633,1.330929 -0.68344,2.514041 -0.6697,3.796661 0.3202,1.40822 1.00089,2.75475 2.1076,3.69706 1.1013,1.45221 -0.0375,2.98456 -1.76375,2.22789 -1.72003,-0.66223 -3.135,-1.99302 -4.21746,-3.45124 -0.64677,-0.85056 -0.84169,-1.8479 -0.7427,-2.8975 -0.10628,-1.7454 1.06349,-3.296194 0.7924,-5.06783 -0.0824,-1.50635 -0.36506,-3.067913 -1.26402,-4.318747 0.0172,-0.276926 0.29849,-0.48083 0.48703,-0.658563 m 5.64443,15.36571 c 0.47749,-0.58629 -1.34873,-1.50608 -1.36147,-2.48893 -0.87332,-1.39661 -1.08336,-3.1982 -0.33615,-4.69653 0.48146,-1.416117 0.28751,-2.99823 -0.59691,-4.211684 -0.42802,-0.708402 -2.17531,-2.516824 -1.61489,-0.547224 0.16723,1.848978 0.24691,3.768565 -0.5054,5.511238 -0.50986,1.50615 -0.0158,3.14936 1.12235,4.22587 0.93729,0.90843 1.90755,2.09143 3.29222,2.20733" />
      <path
         id="path905"
         style="fill:#000000;fill-opacity:1;stroke-width:1.23716"
         d="m 144.53534,85.016693 c 2.21926,-0.260835 4.47586,-0.07874 6.71221,-0.133163 1.54627,0.04587 3.11907,0.359376 4.43867,1.215596 1.02043,0.63231 2.29708,0.915911 3.16215,1.745314 0.72774,0.977392 1.84297,1.536219 2.4657,2.608615 1.43695,2.033325 2.6626,4.284342 2.95859,6.79562 0.61006,2.520613 0.2877,5.129855 0.3685,7.698325 0.0479,2.50216 -0.2101,5.07521 -1.2434,7.37671 -0.9188,1.52328 -2.29151,2.93793 -4.07766,3.35353 -1.36631,0.56206 -2.82453,1.03628 -4.32573,0.9225 -1.33495,0.0712 -2.64467,-0.11537 -3.96355,-0.254 -1.6731,-0.0367 -3.35646,0.0851 -5.00013,-0.2603 -2.93484,-0.14838 -5.74526,-1.13275 -8.49745,-2.0914 -1.30606,-0.89952 -3.06555,-1.38235 -3.91075,-2.79643 1.29114,0.13536 2.61372,0.46808 3.94894,0.1447 1.56703,-0.0125 3.69345,0.0642 4.45355,-1.62166 0.28183,-1.38321 0.4187,-3.41856 -1.16332,-4.07168 -1.57782,-0.85273 -3.27273,-1.49237 -5.00958,-1.90705 -0.73892,-0.91101 -2.16339,-1.47982 -2.18613,-2.85935 -1.51734,-1.16464 -0.52373,1.92461 -0.87513,2.14468 -2.03157,0.31253 -1.59037,-1.56088 -1.34167,-2.88738 0.17508,-1.688208 0.44379,-3.373103 1.1094,-4.954385 0.63741,-2.171722 1.97989,-4.059288 3.67082,-5.542871 1.30691,-1.390104 2.72638,-2.780784 4.61354,-3.322748 1.17337,-0.587191 2.41893,-0.999694 3.69298,-1.301396 m -4.66386,17.23753 c 1.72922,-0.23702 2.17494,-2.299926 2.03966,-3.76114 0.0744,-1.341673 -0.72299,-2.735241 -2.14276,-2.911156 -2.61037,-0.772263 -5.40569,1.887544 -4.95026,4.526326 0.092,1.76016 2.1541,2.37806 3.63411,2.21638 0.47475,0.002 0.94985,0.012 1.41978,-0.0711 m 17.5507,6.07081 c 0.87289,-0.0388 2.69383,-1.69037 1.24878,-2.1447 -0.85325,0.86554 -2.0066,1.41183 -3.22452,1.06586 -1.47002,1.1175 1.42755,1.28953 1.97586,1.07865 m -0.8731,-2.63034 c 1.85421,-0.29844 3.08783,-2.21645 2.80504,-4.03451 0.31431,-1.48906 -0.82634,-2.441141 -2.04642,-2.952912 -1.26736,-0.472756 -2.97065,-0.627039 -4.1457,0.184786 -1.50472,0.768312 -2.16538,2.717676 -1.90137,4.313526 0.62152,1.32717 1.883,2.58734 3.45866,2.53151 0.60953,0.0297 1.22386,0.0515 1.82939,-0.0424" />
    </g>
    <path
       id="rect19240"
       style="display:inline;fill:#000000;stroke-width:0.5;stroke-linejoin:round;stroke-opacity:0.909449"
       d="m -196.88781,128.58347 v 1.19059 c 0,8.06185 -6.49023,14.55208 -14.55208,14.55208 h -23.8125 c -8.06185,0 -14.55208,-6.49023 -14.55208,-14.55208 v -1.19059 z"
       sodipodi:nodetypes="csssscc"
       inkscape:label="Bottom-label" />
    <g
       aria-label="EDGY"
       transform="matrix(0.33141172,0,0,0.33141172,-173.93264,66.032064)"
       id="text3338"
       style="font-size:40px;line-height:1.25;white-space:pre;shape-inside:url(#rect3340);fill:#ee2436">
      <path
         d="m -195.62,225.49321 v -26 h 16.8 v 5.76 h -9.92 v 4.08 h 8.48 v 5.76 h -8.48 v 4.64 h 10.32 v 5.76 z"
         style="font-weight:900;font-family:'Source Sans Pro';-inkscape-font-specification:'Source Sans Pro Heavy'"
         id="path9852" />
      <path
         d="m -173.38001,225.49321 v -26 h 7.68 q 2.96,0 5.4,0.72 2.48,0.72 4.24,2.28 1.76,1.56 2.72,4 1,2.44 1,5.88 0,3.44 -0.96,5.92 -0.96,2.48 -2.72,4.08 -1.72,1.6 -4.12,2.36 -2.36,0.76 -5.16,0.76 z m 6.88,-5.52 h 0.4 q 1.4,0 2.64,-0.32 1.24,-0.36 2.12,-1.2 0.92,-0.84 1.44,-2.32 0.52,-1.48 0.52,-3.76 0,-2.28 -0.52,-3.72 -0.52,-1.44 -1.44,-2.24 -0.88,-0.8 -2.12,-1.08 -1.24,-0.32 -2.64,-0.32 h -0.4 z"
         style="font-weight:900;font-family:'Source Sans Pro';-inkscape-font-specification:'Source Sans Pro Heavy';fill:#ffffff"
         id="path9854" />
      <path
         d="m -135.70008,225.97321 q -2.72,0 -5.12,-0.8 -2.4,-0.84 -4.2,-2.48 -1.76,-1.68 -2.8,-4.16 -1,-2.52 -1,-5.84 0,-3.28 1.04,-5.8 1.04,-2.56 2.8,-4.28 1.8,-1.76 4.16,-2.68 2.36,-0.92 4.96,-0.92 2.88,0 4.96,1.04 2.12,1 3.52,2.4 l -3.6,4.4 q -0.96,-0.84 -2.04,-1.36 -1.04,-0.56 -2.6,-0.56 -1.32,0 -2.44,0.52 -1.12,0.52 -1.96,1.48 -0.84,0.96 -1.32,2.36 -0.44,1.4 -0.44,3.16 0,3.68 1.64,5.64 1.64,1.96 5.16,1.96 0.56,0 1.08,-0.12 0.56,-0.12 0.92,-0.36 v -3.6 h -3.84 v -5.6 h 9.92 v 12.4 q -1.4,1.32 -3.72,2.28 -2.32,0.92 -5.08,0.92 z"
         style="font-weight:900;font-family:'Source Sans Pro';-inkscape-font-specification:'Source Sans Pro Heavy';fill:#ffffff"
         id="path9856" />
      <path
         d="m -117.30008,225.49321 v -8.96 l -7.84,-17.04 h 7.36 l 1.92,5.44 q 0.48,1.48 0.96,2.88 0.48,1.4 1,2.92 h 0.16 q 0.52,-1.52 1,-2.92 0.52,-1.4 1.04,-2.88 l 1.92,-5.44 h 7.2 l -7.84,17.04 v 8.96 z"
         style="font-weight:900;font-family:'Source Sans Pro';-inkscape-font-specification:'Source Sans Pro Heavy'"
         id="path9858" />
    </g>
  </g>
</svg>
