<?xml version="1.0" encoding="UTF-8" standalone="no"?>
<svg
   width="200"
   height="200"
   viewBox="0 0 52.916668 52.916666"
   version="1.1"
   id="svg8"
   inkscape:version="1.1 (c68e22c387, 2021-05-23)"
   sodipodi:docname="funny.svg"
   xmlns:inkscape="http://www.inkscape.org/namespaces/inkscape"
   xmlns:sodipodi="http://sodipodi.sourceforge.net/DTD/sodipodi-0.dtd"
   xmlns="http://www.w3.org/2000/svg"
   xmlns:svg="http://www.w3.org/2000/svg"
   xmlns:rdf="http://www.w3.org/1999/02/22-rdf-syntax-ns#"
   xmlns:cc="http://creativecommons.org/ns#"
   xmlns:dc="http://purl.org/dc/elements/1.1/">
  <defs
     id="defs2">
    <rect
       x="3"
       y="253"
       width="207"
       height="73.5"
       id="rect9468" />
    <rect
       x="-247"
       y="42"
       width="137"
       height="81.5"
       id="rect1185" />
    <rect
       x="-48.175333"
       y="18.9895"
       width="46.117357"
       height="15.996081"
       id="rect880" />
    <rect
       x="-255.23004"
       y="125.83378"
       width="102.52459"
       height="46.959256"
       id="rect873" />
    <inkscape:path-effect
       effect="envelope"
       id="path-effect4658"
       is_visible="true"
       yy="true"
       xx="true"
       bendpath1="m -199.08406,108.42369 h 7.0057"
       bendpath2="m -192.07836,108.42369 v 6.75242"
       bendpath3="m -199.08406,115.17611 h 7.0057"
       bendpath4="m -199.08406,108.42369 v 6.75242" />
    <inkscape:path-effect
       effect="bend_path"
       id="path-effect4656"
       is_visible="true"
       bendpath="m -192.00142,114.60623 c 2.12577,-0.53066 4.48261,0.85111 7.0057,0"
       prop_scale="1"
       scale_y_rel="false"
       vertical="false"
       bendpath-nodetypes="cc" />
    <inkscape:path-effect
       effect="bounding_box"
       id="path-effect4654"
       is_visible="true"
       linkedpath=""
       visualbounds="false" />
    <linearGradient
       id="linearGradient3288"
       inkscape:swatch="solid">
      <stop
         style="stop-color:#000000;stop-opacity:1;"
         offset="0"
         id="stop3286" />
    </linearGradient>
    <linearGradient
       id="linearGradient1364"
       inkscape:swatch="solid">
      <stop
         style="stop-color:#ffffff;stop-opacity:1;"
         offset="0"
         id="stop1362" />
    </linearGradient>
    <rect
       x="293.80286"
       y="272.58966"
       width="25.455845"
       height="37.830212"
       id="rect1056" />
    <rect
       x="222.73865"
       y="266.22571"
       width="47.376156"
       height="54.09367"
       id="rect1050" />
    <rect
       x="139.30003"
       y="246.42671"
       width="58.336308"
       height="48.790367"
       id="rect1044" />
    <rect
       x="131.1683"
       y="203.64674"
       width="61.871841"
       height="73.892654"
       id="rect1038" />
    <rect
       x="81.67083"
       y="193.04015"
       width="63.63961"
       height="55.507881"
       id="rect1032" />
    <rect
       x="83.085045"
       y="274.35742"
       width="44.194176"
       height="38.890873"
       id="rect1026" />
    <rect
       x="3.5355339"
       y="269.05414"
       width="65.760933"
       height="53.386562"
       id="rect1020" />
    <rect
       x="14.142136"
       y="226.27417"
       width="79.195961"
       height="62.932503"
       id="rect1014" />
    <rect
       x="11.313708"
       y="171.82695"
       width="36.416"
       height="51.618793"
       id="rect1008" />
    <rect
       x="3.1819806"
       y="132.22897"
       width="102.88404"
       height="102.53048"
       id="rect1002" />
  </defs>
  <sodipodi:namedview
     id="base"
     pagecolor="#ffffff"
     bordercolor="#666666"
     borderopacity="1.0"
     inkscape:pageopacity="0.0"
     inkscape:pageshadow="2"
     inkscape:zoom="2.8284271"
     inkscape:cx="173.94827"
     inkscape:cy="146.90143"
     inkscape:document-units="mm"
     inkscape:current-layer="layer1"
     showgrid="false"
     fit-margin-top="0"
     fit-margin-left="0"
     fit-margin-right="0"
     fit-margin-bottom="0"
     inkscape:window-width="1920"
     inkscape:window-height="1017"
     inkscape:window-x="-8"
     inkscape:window-y="-8"
     inkscape:window-maximized="1"
     showguides="false"
     inkscape:object-nodes="true"
     units="px"
     inkscape:snap-page="true"
     inkscape:document-rotation="0"
     inkscape:pagecheckerboard="1" />
  <metadata
     id="metadata5">
    <rdf:RDF>
      <cc:Work
         rdf:about="">
        <dc:format>image/svg+xml</dc:format>
        <dc:type
           rdf:resource="http://purl.org/dc/dcmitype/StillImage" />
      </cc:Work>
    </rdf:RDF>
  </metadata>
  <g
     inkscape:label="Base"
     inkscape:groupmode="layer"
     id="layer1"
     transform="translate(249.80447,-91.409467)">
    <rect
       y="91.40947"
       x="-249.80447"
       height="52.916668"
       width="52.916668"
       id="rect5238-5"
       style="display:inline;fill:#000000;fill-opacity:1;fill-rule:nonzero;stroke:none;stroke-width:0.5;stroke-linecap:butt;stroke-linejoin:round;stroke-miterlimit:4;stroke-dasharray:none;stroke-dashoffset:0;stroke-opacity:0.909449;paint-order:normal"
       rx="14.552089"
       ry="14.552081"
       inkscape:label="Bottom-rectangle" />
    <path
       id="rect18865"
       style="display:inline;fill:#ffdb27;fill-opacity:1;stroke-width:0.450003;stroke-linejoin:round;stroke-opacity:0.909449"
       d="m -234.06184,94.055153 h 21.43138 c 3.62786,0 6.9021,1.460311 9.26938,3.827585 L -247.1588,128.5835 v -21.43139 c 0,-7.255715 5.84125,-13.096957 13.09696,-13.096957 z"
       sodipodi:nodetypes="ssccss"
       inkscape:label="Inner-rectangle" />
    <path
       id="path196"
       style="display:inline;fill:#05d243;fill-opacity:1;stroke-width:0.450003;stroke-linejoin:round;stroke-opacity:0.909449"
       d="m -203.36108,97.882738 c 2.36727,2.367272 3.82758,5.641512 3.82758,9.269372 v 21.43139 h -47.6253 z"
       sodipodi:nodetypes="csccc"
       inkscape:label="Inner-rectangle-2" />
    <path
       style="fill:#000000;stroke-width:0.254133"
       d="m -232.00913,130.34758 c -2.39781,-0.48744 -5.20602,-0.55604 -7.01383,-2.42421 -1.43171,-1.94658 -1.70958,-4.47616 -2.04272,-6.80534 -0.31441,-3.51531 0.55443,-7.15112 2.38151,-10.16209 1.67944,-2.47319 4.76682,-3.27102 7.48366,-4.03097 2.27583,-0.53479 4.57996,0.2919 6.82606,0.63305 2.17093,0.27829 4.10142,1.37496 5.72022,2.8084 2.05164,1.54661 3.46539,3.91452 3.57314,6.51079 0.13955,3.24323 0.30399,6.64912 -0.88025,9.73303 -1.10889,2.81774 -4.36218,3.5196 -7.04457,3.84644 -2.98531,0.40997 -6.02808,0.36328 -9.00322,-0.1091 z m 6.3459,-5.3199 c 2.14593,-0.18003 2.89685,-2.84045 1.71889,-4.43212 -1.462,-2.64349 -5.86635,-3.45058 -7.72471,-0.80715 -1.57002,1.57391 -0.60298,4.40989 1.43988,5.02125 1.45027,0.55899 3.06177,0.5 4.56594,0.21802 z m -4.31256,-0.71205 c -2.2303,-0.90295 -1.43358,-3.98931 0.49192,-4.73686 1.64499,-0.45944 3.46868,0.15773 4.37185,1.64752 1.25681,1.53991 0.13605,4.02157 -1.99003,3.53668 -0.9663,0.007 -1.97956,-0.047 -2.87374,-0.44734 z m 4.01703,-1.94506 c 0.58269,-1.93649 -1.83651,-0.9391 -0.99072,0.44409 0.26519,1.72123 1.05739,0.57466 0.99072,-0.44409 z m -2.8966,0.0618 c 0.72144,-1.68963 -1.55205,-1.85389 -1.12071,-0.0938 -0.27736,1.45764 1.09731,1.537 1.12071,0.0938 z m 11.20471,-3.15446 c 0.69898,-0.948 0.93688,-3.63787 -0.1014,-4.07214 -1.73389,0.84636 -3.68503,0.78982 -5.54517,1.08993 -0.82722,1.36857 0.35226,3.68776 2.27364,3.32136 1.11552,0.0442 2.33635,0.15349 3.37293,-0.33915 z m -16.43959,-0.34194 c 1.47757,-0.0497 3.06664,-2.06191 1.78147,-3.23373 -1.69644,-0.18189 -3.51397,0.0708 -5.05175,-0.86825 -2.07302,-1.19309 -1.90514,2.74324 -0.76734,3.59303 1.05294,1.09693 2.71885,0.73314 4.03762,0.50895 z m 19.23766,7.09971 c 0.48284,-2.91883 1.65929,-5.6827 2.43155,-8.53566 0.77147,-2.53238 1.52442,-5.07035 2.28511,-7.60598 -1.8439,-1.6237 -4.27449,-3.30241 -6.83925,-2.34431 -2.52519,0.46406 -5.26173,0.10995 -7.54882,-1.07079 -0.78948,-0.33672 -1.093,-0.89713 -0.70962,-1.6817 0.60414,-2.55336 0.97208,-5.247473 2.28317,-7.549742 1.95996,-0.132906 4.07706,1.245347 6.18749,0.495507 1.74177,-0.367929 3.42612,-1.146562 5.25367,-0.902396 2.0886,0.122805 4.34933,0.110874 6.19844,1.208629 0.70711,1.641279 -0.55336,3.551422 -0.95481,5.211732 -3.07235,7.18358 -4.75959,14.84565 -7.3146,22.21014 -0.0884,0.53283 -0.85405,1.17193 -1.27233,0.56457 z m 6.20471,-20.27129 c 0.79944,-2.01617 1.70243,-4.03979 2.13863,-6.162712 -2.02768,0.968102 -3.81927,2.923492 -3.64104,5.308712 -0.0866,0.79984 0.1356,4.08108 0.99856,1.9532 0.17725,-0.36205 0.34396,-0.72919 0.50385,-1.0992 z m -32.18379,3.7516 c -0.83143,-1.37776 -2.48642,-2.98408 -1.7697,-4.66091 1.27215,-0.39159 3.53951,0.42079 3.0595,-1.77306 0.10512,-1.23981 0.63317,-3.244135 2.15199,-1.87078 0.59097,0.1438 1.28904,1.15324 1.79317,0.70647 0.70076,-0.63028 1.22751,-1.54582 2.11036,-1.9072 1.86167,0.45393 2.25543,2.65941 2.7622,4.23272 -0.0298,0.53223 0.76814,1.56491 0.1374,1.73738 -2.34702,0.61638 -4.79032,1.24483 -6.8102,2.63577 -0.86238,0.70233 -1.61085,1.52964 -2.4102,2.30049 -0.34151,-0.46696 -0.68301,-0.93392 -1.02452,-1.40088 z"
       id="path78"
       inkscape:label="Drawing"
       sodipodi:nodetypes="cccccccccccccccccccccccccccccccccccccccccccccccccccccccccccccccccc" />
    <path
       id="rect19240"
       style="display:inline;fill:#000000;stroke-width:0.5;stroke-linejoin:round;stroke-opacity:0.909449"
       d="m -196.88781,128.58347 v 1.19059 c 0,8.06185 -6.49023,14.55208 -14.55208,14.55208 h -23.8125 c -8.06185,0 -14.55208,-6.49023 -14.55208,-14.55208 v -1.19059 z"
       sodipodi:nodetypes="csssscc"
       inkscape:label="Bottom-label" />
    <g
       aria-label="FUNNY"
       transform="matrix(0.26458333,0,0,0.26458333,-240.95679,63.23581)"
       id="text9466"
       style="font-size:40px;line-height:1.25;white-space:pre;shape-inside:url(#rect9468);fill:#05d243">
      <path
         d="m 5.88,289.49321 v -26 h 16.96 v 5.76 H 12.76 v 4.96 h 8.64 v 5.76 h -8.64 v 9.52 z"
         style="font-weight:900;font-family:'Source Sans Pro';-inkscape-font-specification:'Source Sans Pro Heavy'"
         id="path15513" />
      <path
         d="m 37.959972,289.97321 q -5.48,0 -8.16,-3.16 -2.64,-3.2 -2.64,-9.88 v -13.44 h 6.88 v 14.24 q 0,3.48 0.92,4.92 0.96,1.4 3,1.4 2.04,0 3,-1.4 1,-1.44 1,-4.92 v -14.24 h 6.64 v 13.44 q 0,6.68 -2.6,9.88 -2.6,3.16 -8.04,3.16 z"
         style="font-weight:900;font-family:'Source Sans Pro';-inkscape-font-specification:'Source Sans Pro Heavy'"
         id="path15515" />
      <path
         d="m 54.199931,289.49321 v -26 h 7.04 l 5.76,11.6 2.48,5.84 h 0.16 q -0.12,-1.04 -0.28,-2.28 -0.16,-1.24 -0.28,-2.52 -0.12,-1.32 -0.24,-2.6 -0.08,-1.32 -0.08,-2.52 v -7.52 h 6.56 v 26 h -7.04 l -5.76,-11.64 -2.48,-5.8 h -0.16 q 0.24,2.24 0.56,4.88 0.32,2.64 0.32,5.04 v 7.52 z"
         style="font-weight:900;font-family:'Source Sans Pro';-inkscape-font-specification:'Source Sans Pro Heavy'"
         id="path15517" />
      <path
         d="m 81.07989,289.49321 v -26 h 7.04 l 5.76,11.6 2.48,5.84 h 0.16 q -0.12,-1.04 -0.28,-2.28 -0.16,-1.24 -0.28,-2.52 -0.12,-1.32 -0.24,-2.6 -0.08,-1.32 -0.08,-2.52 v -7.52 h 6.56 v 26 h -7.04 l -5.76,-11.64 -2.48,-5.8 h -0.16 q 0.24,2.24 0.56,4.88 0.32,2.64 0.32,5.04 v 7.52 z"
         style="font-weight:900;font-family:'Source Sans Pro';-inkscape-font-specification:'Source Sans Pro Heavy'"
         id="path15519" />
      <path
         d="m 112.51985,289.49321 v -8.96 l -7.84,-17.04 h 7.36 l 1.92,5.44 q 0.48,1.48 0.96,2.88 0.48,1.4 1,2.92 h 0.16 q 0.52,-1.52 1,-2.92 0.52,-1.4 1.04,-2.88 l 1.92,-5.44 h 7.2 l -7.84,17.04 v 8.96 z"
         style="font-weight:900;font-family:'Source Sans Pro';-inkscape-font-specification:'Source Sans Pro Heavy'"
         id="path15521" />
    </g>
  </g>
</svg>
