<svg width="200" height="200" viewBox="0 0 52.917 52.917" xmlns="http://www.w3.org/2000/svg"><defs><path id="a" d="M3 253h207v73.5H3z"/></defs><g transform="translate(249.804 -91.41)"><rect y="91.409" x="-249.804" height="52.917" width="52.917" style="display:inline;fill:#000;fill-opacity:1;fill-rule:nonzero;stroke:none;stroke-width:.5;stroke-linecap:butt;stroke-linejoin:round;stroke-miterlimit:4;stroke-dasharray:none;stroke-dashoffset:0;stroke-opacity:.909449;paint-order:normal" rx="14.552" ry="14.552"/><path style="display:inline;fill:#ffdb27;fill-opacity:1;stroke-width:.450003;stroke-linejoin:round;stroke-opacity:.909449" d="M-234.062 94.055h21.432c3.627 0 6.902 1.46 9.269 3.828l-43.798 30.7v-21.43a13.068 13.068 0 0 1 13.097-13.098z"/><path style="display:inline;fill:#05d243;fill-opacity:1;stroke-width:.450003;stroke-linejoin:round;stroke-opacity:.909449" d="M-203.361 97.883a13.056 13.056 0 0 1 3.828 9.27v21.43h-47.626z"/><path style="fill:#000;stroke-width:.254133" d="M-232.01 130.348c-2.397-.488-5.205-.556-7.013-2.425-1.432-1.946-1.71-4.476-2.043-6.805-.314-3.515.555-7.151 2.382-10.162 1.68-2.473 4.767-3.271 7.483-4.031 2.276-.535 4.58.292 6.827.633 2.17.278 4.101 1.375 5.72 2.808 2.051 1.547 3.465 3.915 3.573 6.511.14 3.243.304 6.65-.88 9.733-1.11 2.818-4.363 3.52-7.045 3.847a30.79 30.79 0 0 1-9.003-.11zm6.347-5.32c2.146-.18 2.897-2.84 1.719-4.432-1.462-2.644-5.867-3.451-7.725-.808-1.57 1.574-.603 4.41 1.44 5.022 1.45.559 3.062.5 4.566.218zm-4.313-.712c-2.23-.903-1.433-3.99.492-4.737 1.645-.46 3.469.157 4.372 1.647 1.257 1.54.136 4.022-1.99 3.537-.966.007-1.98-.047-2.874-.447zm4.017-1.945c.583-1.937-1.836-.94-.99.444.265 1.72 1.057.574.99-.444zm-2.896.061c.721-1.69-1.552-1.854-1.121-.093-.277 1.457 1.097 1.537 1.12.093zm11.204-3.154c.7-.948.937-3.638-.101-4.072-1.734.846-3.685.79-5.545 1.09-.827 1.368.352 3.687 2.273 3.321 1.116.044 2.337.154 3.373-.34zm-16.44-.342c1.478-.05 3.067-2.062 1.782-3.234-1.696-.182-3.514.071-5.052-.868-2.073-1.193-1.905 2.743-.767 3.593 1.053 1.097 2.719.733 4.038.509zm19.238 7.1c.483-2.92 1.66-5.683 2.432-8.536.771-2.532 1.524-5.07 2.285-7.606-1.844-1.624-4.274-3.302-6.84-2.344-2.524.464-5.26.11-7.548-1.071-.79-.337-1.093-.897-.71-1.682.605-2.553.972-5.247 2.284-7.55 1.96-.132 4.077 1.246 6.187.496 1.742-.368 3.426-1.147 5.254-.902 2.088.122 4.349.11 6.198 1.208.707 1.642-.553 3.552-.955 5.212-3.072 7.184-4.76 14.846-7.314 22.21-.089.533-.854 1.172-1.273.565zm6.205-20.272c.8-2.016 1.703-4.04 2.139-6.162-2.028.968-3.82 2.923-3.641 5.308-.087.8.135 4.081.998 1.954.178-.362.344-.73.504-1.1zm-32.184 3.752c-.831-1.378-2.486-2.984-1.77-4.66 1.273-.393 3.54.42 3.06-1.774.105-1.24.633-3.244 2.152-1.87.591.143 1.29 1.152 1.793.706.701-.63 1.228-1.546 2.11-1.907 1.862.453 2.256 2.659 2.763 4.232-.03.532.768 1.565.137 1.738-2.347.616-4.79 1.244-6.81 2.635-.862.703-1.61 1.53-2.41 2.3l-1.025-1.4z"/><path style="display:inline;fill:#000;stroke-width:.5;stroke-linejoin:round;stroke-opacity:.909449" d="M-196.888 128.583v1.191a14.52 14.52 0 0 1-14.552 14.552h-23.812a14.52 14.52 0 0 1-14.552-14.552v-1.19z"/><g aria-label="FUNNY" transform="matrix(.26458 0 0 .26458 -240.957 63.236)" style="font-size:40px;line-height:1.25;white-space:pre;shape-inside:url(#a);fill:#05d243"><path d="M5.88 289.493v-26h16.96v5.76H12.76v4.96h8.64v5.76h-8.64v9.52zM37.96 289.973q-5.48 0-8.16-3.16-2.64-3.2-2.64-9.88v-13.44h6.88v14.24q0 3.48.92 4.92.96 1.4 3 1.4t3-1.4q1-1.44 1-4.92v-14.24h6.64v13.44q0 6.68-2.6 9.88-2.6 3.16-8.04 3.16zM54.2 289.493v-26h7.04l5.76 11.6 2.48 5.84h.16q-.12-1.04-.28-2.28-.16-1.24-.28-2.52-.12-1.32-.24-2.6-.08-1.32-.08-2.52v-7.52h6.56v26h-7.04l-5.76-11.64-2.48-5.8h-.16q.24 2.24.56 4.88.32 2.64.32 5.04v7.52zM81.08 289.493v-26h7.04l5.76 11.6 2.48 5.84h.16q-.12-1.04-.28-2.28-.16-1.24-.28-2.52-.12-1.32-.24-2.6-.08-1.32-.08-2.52v-7.52h6.56v26h-7.04l-5.76-11.64-2.48-5.8h-.16q.24 2.24.56 4.88.32 2.64.32 5.04v7.52zM112.52 289.493v-8.96l-7.84-17.04h7.36l1.92 5.44q.48 1.48.96 2.88l1 2.92h.16l1-2.92q.52-1.4 1.04-2.88l1.92-5.44h7.2l-7.84 17.04v8.96z" style="font-weight:900;font-family:'Source Sans Pro';-inkscape-font-specification:'Source Sans Pro Heavy'"/></g></g></svg>