<?xml version="1.0" encoding="UTF-8" standalone="no"?>
<svg
   width="200"
   height="200"
   viewBox="0 0 52.916668 52.916666"
   version="1.1"
   id="svg8"
   inkscape:version="1.1 (c68e22c387, 2021-05-23)"
   sodipodi:docname="horny.svg"
   xmlns:inkscape="http://www.inkscape.org/namespaces/inkscape"
   xmlns:sodipodi="http://sodipodi.sourceforge.net/DTD/sodipodi-0.dtd"
   xmlns="http://www.w3.org/2000/svg"
   xmlns:svg="http://www.w3.org/2000/svg"
   xmlns:rdf="http://www.w3.org/1999/02/22-rdf-syntax-ns#"
   xmlns:cc="http://creativecommons.org/ns#"
   xmlns:dc="http://purl.org/dc/elements/1.1/">
  <defs
     id="defs2">
    <rect
       x="-210.5"
       y="241.5"
       width="234"
       height="91"
       id="rect1732" />
    <rect
       x="-247"
       y="42"
       width="137"
       height="81.5"
       id="rect1185" />
    <rect
       x="-48.175333"
       y="18.9895"
       width="46.117357"
       height="15.996081"
       id="rect880" />
    <rect
       x="-255.23004"
       y="125.83378"
       width="102.52459"
       height="46.959256"
       id="rect873" />
    <inkscape:path-effect
       effect="envelope"
       id="path-effect4658"
       is_visible="true"
       yy="true"
       xx="true"
       bendpath1="m -199.08406,108.42369 h 7.0057"
       bendpath2="m -192.07836,108.42369 v 6.75242"
       bendpath3="m -199.08406,115.17611 h 7.0057"
       bendpath4="m -199.08406,108.42369 v 6.75242" />
    <inkscape:path-effect
       effect="bend_path"
       id="path-effect4656"
       is_visible="true"
       bendpath="m -192.00142,114.60623 c 2.12577,-0.53066 4.48261,0.85111 7.0057,0"
       prop_scale="1"
       scale_y_rel="false"
       vertical="false"
       bendpath-nodetypes="cc" />
    <inkscape:path-effect
       effect="bounding_box"
       id="path-effect4654"
       is_visible="true"
       linkedpath=""
       visualbounds="false" />
    <linearGradient
       id="linearGradient3288"
       inkscape:swatch="solid">
      <stop
         style="stop-color:#000000;stop-opacity:1;"
         offset="0"
         id="stop3286" />
    </linearGradient>
    <linearGradient
       id="linearGradient1364"
       inkscape:swatch="solid">
      <stop
         style="stop-color:#ffffff;stop-opacity:1;"
         offset="0"
         id="stop1362" />
    </linearGradient>
    <rect
       x="293.80286"
       y="272.58966"
       width="25.455845"
       height="37.830212"
       id="rect1056" />
    <rect
       x="222.73865"
       y="266.22571"
       width="47.376156"
       height="54.09367"
       id="rect1050" />
    <rect
       x="139.30003"
       y="246.42671"
       width="58.336308"
       height="48.790367"
       id="rect1044" />
    <rect
       x="131.1683"
       y="203.64674"
       width="61.871841"
       height="73.892654"
       id="rect1038" />
    <rect
       x="81.67083"
       y="193.04015"
       width="63.63961"
       height="55.507881"
       id="rect1032" />
    <rect
       x="83.085045"
       y="274.35742"
       width="44.194176"
       height="38.890873"
       id="rect1026" />
    <rect
       x="3.5355339"
       y="269.05414"
       width="65.760933"
       height="53.386562"
       id="rect1020" />
    <rect
       x="14.142136"
       y="226.27417"
       width="79.195961"
       height="62.932503"
       id="rect1014" />
    <rect
       x="11.313708"
       y="171.82695"
       width="36.416"
       height="51.618793"
       id="rect1008" />
    <rect
       x="3.1819806"
       y="132.22897"
       width="102.88404"
       height="102.53048"
       id="rect1002" />
  </defs>
  <sodipodi:namedview
     id="base"
     pagecolor="#ffffff"
     bordercolor="#666666"
     borderopacity="1.0"
     inkscape:pageopacity="0.0"
     inkscape:pageshadow="2"
     inkscape:zoom="2"
     inkscape:cx="37.5"
     inkscape:cy="150.75"
     inkscape:document-units="mm"
     inkscape:current-layer="layer1"
     showgrid="false"
     fit-margin-top="0"
     fit-margin-left="0"
     fit-margin-right="0"
     fit-margin-bottom="0"
     inkscape:window-width="1920"
     inkscape:window-height="1017"
     inkscape:window-x="-8"
     inkscape:window-y="-8"
     inkscape:window-maximized="1"
     showguides="false"
     inkscape:object-nodes="true"
     units="px"
     inkscape:snap-page="true"
     inkscape:document-rotation="0"
     inkscape:pagecheckerboard="1" />
  <metadata
     id="metadata5">
    <rdf:RDF>
      <cc:Work
         rdf:about="">
        <dc:format>image/svg+xml</dc:format>
        <dc:type
           rdf:resource="http://purl.org/dc/dcmitype/StillImage" />
      </cc:Work>
    </rdf:RDF>
  </metadata>
  <g
     inkscape:label="Base"
     inkscape:groupmode="layer"
     id="layer1"
     transform="translate(249.80447,-91.409467)">
    <rect
       y="91.40947"
       x="-249.80447"
       height="52.916668"
       width="52.916668"
       id="rect5238-5"
       style="display:inline;fill:#000000;fill-opacity:1;fill-rule:nonzero;stroke:none;stroke-width:0.5;stroke-linecap:butt;stroke-linejoin:round;stroke-miterlimit:4;stroke-dasharray:none;stroke-dashoffset:0;stroke-opacity:0.909449;paint-order:normal"
       rx="14.552089"
       ry="14.552081"
       inkscape:label="Bottom-rectangle" />
    <path
       id="rect18865"
       style="display:inline;fill:#880015;fill-opacity:1;stroke-width:0.450003;stroke-linejoin:round;stroke-opacity:0.909449"
       d="m -199.5335,116.52834 v 12.05516 h -47.6253 v -12.05516 z"
       sodipodi:nodetypes="ccccc"
       inkscape:label="Inner-rectangle" />
    <path
       id="path7733"
       style="display:inline;fill:#ffffff;stroke-width:0.450003;stroke-linejoin:round;stroke-opacity:0.909449"
       d="m -199.79866,104.50617 c 0.17389,0.85411 0.26516,1.73898 0.26516,2.64594 v 9.37623 h -47.6253 v -9.37623 c 0,-0.90696 0.0913,-1.79183 0.26516,-2.64594 z"
       sodipodi:nodetypes="ccccccc"
       inkscape:label="Inner-rectangle-2" />
    <path
       id="path7735"
       style="display:inline;fill:#0000a0;fill-opacity:1;stroke-width:0.450003;stroke-linejoin:round;stroke-opacity:0.909449"
       d="m -234.06184,94.055153 h 21.43138 c 3.62786,0 6.9021,1.46031 9.26938,3.827585 1.18363,1.183638 2.14053,2.594012 2.80152,4.161972 0.33049,0.78397 0.58701,1.60734 0.7609,2.46146 h -47.09498 c 0.1739,-0.85412 0.43041,-1.67749 0.76091,-2.46146 0.66098,-1.56796 1.61788,-2.978334 2.80152,-4.161972 2.36727,-2.367274 5.64152,-3.827585 9.26937,-3.827585 z"
       sodipodi:nodetypes="ccssccssc"
       inkscape:label="Inner-rectangle-3" />
    <path
       style="display:inline;fill:#000000;stroke-width:0.271912"
       d="m -225.1482,130.90873 c -2.27855,-0.3594 -4.73145,-0.43193 -6.76401,-1.62543 -1.07673,-1.51497 -3.13776,-0.90874 -4.723,-1.13836 -1.6971,-0.17365 -3.76956,-0.13004 -4.95971,-1.55836 -0.98447,-1.68671 0.74008,-3.51682 2.27788,-4.0673 3.11065,-1.45801 6.50246,0.0118 9.42369,1.24329 2.2614,1.04312 4.85127,1.67401 7.32393,1.14355 0.89286,-0.83795 3.653,-0.98058 2.54698,0.84894 -1.39803,1.87865 -4.08464,1.77118 -6.16863,1.50173 -3.10671,-0.36405 -5.59836,-2.43996 -8.51077,-3.36079 -1.54722,-0.27768 -3.40313,-0.0145 -4.54597,1.15072 -0.49038,1.51406 2.37764,0.68809 3.29109,0.70515 1.24981,0.1941 0.8277,-1.97893 2.09923,-0.8345 2.65429,1.30212 5.31462,3.02873 8.39697,2.88523 1.71051,-0.17176 3.68403,0.32771 5.19216,-0.65789 1.44473,-0.74758 1.58783,-3.653 -0.42777,-3.59691 -1.65191,0.20124 -3.18359,1.43028 -4.9415,0.88094 -3.17624,-0.68254 -6.00903,-2.45552 -9.21158,-3.07216 -0.76277,0.0292 -0.88479,-0.46493 -0.80503,-1.12387 -0.28713,-3.90514 0.19246,-8.16055 2.89021,-11.20802 2.25436,-2.83157 5.72391,-4.40461 9.23683,-4.95591 4.06954,-0.53799 8.59637,-0.0895 11.81467,2.70481 2.94435,2.29111 3.97216,6.01971 4.82648,9.47698 0.8382,2.97553 1.01945,6.16453 0.072,9.1398 -0.61916,2.18628 -1.50418,4.9261 -3.94407,5.63494 -3.22377,0.47202 -6.51009,0.24805 -9.75848,0.19562 -1.546,-0.0623 -3.09376,-0.13561 -4.63157,-0.3122 z m 4.16455,-8.01411 c 1.21117,-1.55806 2.49089,0.90117 4.05638,0.27655 1.52301,-0.0421 3.06109,-1.55975 2.51235,-3.1235 -1.60816,-1.88577 -0.8857,2.52446 -2.96104,1.80001 -1.83125,0.62248 -2.10272,-3.89816 -3.41153,-1.66036 -0.12567,2.60121 -3.92208,1.53466 -3.56525,-0.68646 -0.9186,-1.65948 -1.93602,1.29049 -0.78908,2.02231 0.82123,1.32869 2.70335,2.09201 4.15817,1.37145 z m 10.19401,-4.47607 c 2.00087,-0.25896 2.36457,-2.68029 1.58416,-4.20183 -0.63391,-1.87053 -2.57842,-3.52884 -4.64327,-2.86084 -2.59827,0.53047 -4.00233,4.37998 -1.90156,6.20898 1.34835,0.997 3.35175,1.0716 4.96067,0.85369 z m -15.69649,-0.56963 c 0.98565,-0.49719 2.48748,-3.10413 0.75166,-3.2364 -0.73241,1.42944 -1.89491,2.80404 -3.76511,2.33527 -1.71095,0.19128 -2.52412,-1.54526 -3.06319,-2.76858 -1.92723,-0.1831 -0.54515,2.45258 0.30637,3.13262 1.39856,1.40547 3.65433,1.03967 5.41404,0.69043 l 0.19547,-0.073 z m 19.02279,-6.22789 c -0.95524,-2.91561 -3.17759,-5.27488 -5.79727,-6.80018 -0.96363,-0.9475 1.98585,-1.32576 2.72318,-1.86391 1.27867,-0.37876 3.1271,-1.57686 4.05707,-7.8e-4 1.3193,2.17753 1.30776,4.91342 0.99971,7.36639 -0.14482,0.81695 -0.78044,3.22762 -1.46988,2.78805 -0.19431,-0.48798 -0.35651,-0.9881 -0.51281,-1.4893 z m -29.10321,-0.74058 c -1.00819,-2.24248 -1.54086,-4.95014 -0.63171,-7.30954 0.81555,-1.612 2.91546,-0.8088 4.27932,-0.54062 1.43865,0.37505 2.79656,1.01621 4.00121,1.88532 -2.55168,1.33779 -4.68047,3.46682 -6.04941,5.99821 -0.27375,0.48389 -0.47562,1.50014 -0.74027,1.71173 -0.28637,-0.58171 -0.57275,-1.16341 -0.85914,-1.7451 z"
       id="path60"
       inkscape:label="Drawing" />
    <path
       id="rect19240"
       style="display:inline;fill:#000000;stroke-width:0.5;stroke-linejoin:round;stroke-opacity:0.909449"
       d="m -196.88781,128.58347 v 1.19059 c 0,8.06185 -6.49023,14.55208 -14.55208,14.55208 h -23.8125 c -8.06185,0 -14.55208,-6.49023 -14.55208,-14.55208 v -1.19059 z"
       sodipodi:nodetypes="csssscc"
       inkscape:label="Bottom-label" />
    <g
       aria-label="HORNY"
       transform="matrix(0.26458333,0,0,0.26458333,-185.12442,66.342019)"
       id="text1730"
       style="font-size:40px;line-height:1.25;white-space:pre;shape-inside:url(#rect1732);fill:#880015">
      <path
         d="m -207.62,277.99321 v -26 h 6.88 v 9.68 h 7.76 v -9.68 h 6.88 v 26 h -6.88 v -10.32 h -7.76 v 10.32 z"
         style="font-weight:900;font-family:'Source Sans Pro';-inkscape-font-specification:'Source Sans Pro Heavy'"
         id="path6786" />
      <path
         d="m -169.38003,278.47321 q -2.72,0 -4.96,-0.92 -2.2,-0.92 -3.8,-2.64 -1.56,-1.76 -2.44,-4.28 -0.88,-2.56 -0.88,-5.76 0,-3.2 0.88,-5.68 0.88,-2.52 2.44,-4.2 1.6,-1.72 3.8,-2.6 2.24,-0.88 4.96,-0.88 2.68,0 4.92,0.88 2.24,0.88 3.8,2.6 1.6,1.72 2.48,4.2 0.88,2.48 0.88,5.68 0,3.2 -0.88,5.76 -0.88,2.52 -2.48,4.28 -1.56,1.72 -3.8,2.64 -2.24,0.92 -4.92,0.92 z m 0,-5.92 q 2.36,0 3.68,-2.04 1.36,-2.08 1.36,-5.64 0,-3.56 -1.36,-5.48 -1.32,-1.96 -3.68,-1.96 -2.36,0 -3.72,1.96 -1.32,1.92 -1.32,5.48 0,3.56 1.32,5.64 1.36,2.04 3.72,2.04 z"
         style="font-weight:900;font-family:'Source Sans Pro';-inkscape-font-specification:'Source Sans Pro Heavy'"
         id="path6788" />
      <path
         d="m -152.66005,277.99321 v -26 h 9.84 q 2.08,0 3.96,0.4 1.92,0.4 3.32,1.36 1.44,0.96 2.28,2.6 0.84,1.6 0.84,4.04 0,2.8 -1.16,4.64 -1.12,1.84 -3.04,2.88 l 5.64,10.08 h -7.68 l -4.48,-8.72 h -2.64 v 8.72 z m 6.88,-14.16 h 2.48 q 4.16,0 4.16,-3.44 0,-1.68 -1.08,-2.32 -1.04,-0.64 -3.08,-0.64 h -2.48 z"
         style="font-weight:900;font-family:'Source Sans Pro';-inkscape-font-specification:'Source Sans Pro Heavy'"
         id="path6790" />
      <path
         d="m -127.46009,277.99321 v -26 h 7.04 l 5.76,11.6 2.48,5.84 h 0.16 q -0.12,-1.04 -0.28,-2.28 -0.16,-1.24 -0.28,-2.52 -0.12,-1.32 -0.24,-2.6 -0.08,-1.32 -0.08,-2.52 v -7.52 h 6.56 v 26 h -7.04 l -5.76,-11.64 -2.48,-5.8 h -0.16 q 0.24,2.24 0.56,4.88 0.32,2.64 0.32,5.04 v 7.52 z"
         style="font-weight:900;font-family:'Source Sans Pro';-inkscape-font-specification:'Source Sans Pro Heavy'"
         id="path6792" />
      <path
         d="m -96.020129,277.99321 v -8.96 l -7.840001,-17.04 h 7.360001 l 1.92,5.44 q 0.48,1.48 0.96,2.88 0.48,1.4 1,2.92 h 0.16 q 0.52,-1.52 1,-2.92 0.52,-1.4 1.04,-2.88 l 1.92,-5.44 h 7.2 l -7.84,17.04 v 8.96 z"
         style="font-weight:900;font-family:'Source Sans Pro';-inkscape-font-specification:'Source Sans Pro Heavy'"
         id="path6794" />
    </g>
  </g>
</svg>
