<svg width="200" height="200" viewBox="0 0 52.917 52.917" xmlns="http://www.w3.org/2000/svg"><defs><path id="a" d="M-210.5 241.5h234v91h-234z"/></defs><g transform="translate(249.804 -91.41)"><rect y="91.409" x="-249.804" height="52.917" width="52.917" style="display:inline;fill:#000;fill-opacity:1;fill-rule:nonzero;stroke:none;stroke-width:.5;stroke-linecap:butt;stroke-linejoin:round;stroke-miterlimit:4;stroke-dasharray:none;stroke-dashoffset:0;stroke-opacity:.909449;paint-order:normal" rx="14.552" ry="14.552"/><path style="display:inline;fill:#880015;fill-opacity:1;stroke-width:.450003;stroke-linejoin:round;stroke-opacity:.909449" d="M-199.534 116.528v12.055h-47.625v-12.055z"/><path style="display:inline;fill:#fff;stroke-width:.450003;stroke-linejoin:round;stroke-opacity:.909449" d="M-199.799 104.506c.174.854.265 1.74.265 2.646v9.376h-47.625v-9.376c0-.907.091-1.792.265-2.646z"/><path style="display:inline;fill:#0000a0;fill-opacity:1;stroke-width:.450003;stroke-linejoin:round;stroke-opacity:.909449" d="M-234.062 94.055h21.432c3.627 0 6.902 1.46 9.269 3.828a13.066 13.066 0 0 1 3.562 6.623h-47.095a13.021 13.021 0 0 1 3.563-6.623 13.056 13.056 0 0 1 9.27-3.828z"/><path style="display:inline;fill:#000;stroke-width:.271912" d="M-225.148 130.909c-2.279-.36-4.732-.432-6.764-1.626-1.077-1.515-3.138-.908-4.723-1.138-1.697-.174-3.77-.13-4.96-1.558-.984-1.687.74-3.517 2.278-4.068 3.11-1.458 6.502.012 9.424 1.244 2.261 1.043 4.85 1.674 7.324 1.143.892-.838 3.653-.98 2.547.85-1.398 1.878-4.085 1.77-6.17 1.5-3.106-.363-5.597-2.44-8.51-3.36-1.547-.278-3.403-.015-4.546 1.15-.49 1.515 2.378.689 3.291.706 1.25.194.828-1.98 2.1-.835 2.654 1.302 5.314 3.03 8.396 2.886 1.711-.172 3.685.327 5.193-.658 1.444-.748 1.587-3.653-.428-3.597-1.652.201-3.184 1.43-4.942.88-3.176-.682-6.009-2.455-9.211-3.071-.763.029-.885-.465-.805-1.124-.287-3.905.192-8.16 2.89-11.208 2.254-2.832 5.724-4.405 9.237-4.956 4.07-.538 8.596-.09 11.814 2.705 2.945 2.29 3.973 6.02 4.827 9.477.838 2.975 1.02 6.164.072 9.14-.62 2.186-1.504 4.925-3.944 5.634-3.224.472-6.51.248-9.759.196-1.546-.062-3.093-.136-4.631-.312zm4.164-8.014c1.212-1.558 2.491.9 4.057.276 1.523-.042 3.06-1.56 2.512-3.123-1.608-1.886-.886 2.524-2.961 1.8-1.831.622-2.103-3.898-3.411-1.66-.126 2.6-3.923 1.534-3.566-.687-.918-1.66-1.936 1.29-.789 2.022.821 1.329 2.704 2.092 4.158 1.372zm10.194-4.476c2.001-.26 2.365-2.68 1.585-4.202-.634-1.87-2.579-3.53-4.644-2.861-2.598.53-4.002 4.38-1.901 6.209 1.348.997 3.351 1.071 4.96.854zm-15.696-.57c.986-.497 2.487-3.104.752-3.236-.733 1.429-1.895 2.804-3.766 2.335-1.71.191-2.524-1.545-3.063-2.769-1.927-.183-.545 2.453.307 3.133 1.398 1.405 3.654 1.04 5.414.69l.195-.073zm19.023-6.228c-.956-2.916-3.178-5.275-5.798-6.8-.963-.948 1.986-1.326 2.724-1.864 1.278-.379 3.127-1.577 4.057 0 1.319 2.177 1.307 4.913 1 7.366-.145.816-.781 3.227-1.47 2.788a20.558 20.558 0 0 1-.513-1.49zm-29.104-.74c-1.008-2.243-1.54-4.95-.631-7.31.815-1.612 2.915-.809 4.28-.54a12.032 12.032 0 0 1 4 1.885c-2.551 1.337-4.68 3.466-6.05 5.998-.273.484-.475 1.5-.74 1.712l-.859-1.746z"/><path style="display:inline;fill:#000;stroke-width:.5;stroke-linejoin:round;stroke-opacity:.909449" d="M-196.888 128.583v1.191a14.52 14.52 0 0 1-14.552 14.552h-23.812a14.52 14.52 0 0 1-14.552-14.552v-1.19z"/><g aria-label="HORNY" transform="matrix(.26458 0 0 .26458 -185.124 66.342)" style="font-size:40px;line-height:1.25;white-space:pre;shape-inside:url(#a);fill:#880015"><path d="M-207.62 277.993v-26h6.88v9.68h7.76v-9.68h6.88v26h-6.88v-10.32h-7.76v10.32zM-169.38 278.473q-2.72 0-4.96-.92-2.2-.92-3.8-2.64-1.56-1.76-2.44-4.28-.88-2.56-.88-5.76 0-3.2.88-5.68.88-2.52 2.44-4.2 1.6-1.72 3.8-2.6 2.24-.88 4.96-.88 2.68 0 4.92.88 2.24.88 3.8 2.6 1.6 1.72 2.48 4.2.88 2.48.88 5.68 0 3.2-.88 5.76-.88 2.52-2.48 4.28-1.56 1.72-3.8 2.64-2.24.92-4.92.92zm0-5.92q2.36 0 3.68-2.04 1.36-2.08 1.36-5.64 0-3.56-1.36-5.48-1.32-1.96-3.68-1.96-2.36 0-3.72 1.96-1.32 1.92-1.32 5.48 0 3.56 1.32 5.64 1.36 2.04 3.72 2.04zM-152.66 277.993v-26h9.84q2.08 0 3.96.4 1.92.4 3.32 1.36 1.44.96 2.28 2.6.84 1.6.84 4.04 0 2.8-1.16 4.64-1.12 1.84-3.04 2.88l5.64 10.08h-7.68l-4.48-8.72h-2.64v8.72zm6.88-14.16h2.48q4.16 0 4.16-3.44 0-1.68-1.08-2.32-1.04-.64-3.08-.64h-2.48zM-127.46 277.993v-26h7.04l5.76 11.6 2.48 5.84h.16q-.12-1.04-.28-2.28-.16-1.24-.28-2.52-.12-1.32-.24-2.6-.08-1.32-.08-2.52v-7.52h6.56v26h-7.04l-5.76-11.64-2.48-5.8h-.16q.24 2.24.56 4.88.32 2.64.32 5.04v7.52zM-96.02 277.993v-8.96l-7.84-17.04h7.36l1.92 5.44q.48 1.48.96 2.88l1 2.92h.16l1-2.92q.52-1.4 1.04-2.88l1.92-5.44h7.2l-7.84 17.04v8.96z" style="font-weight:900;font-family:'Source Sans Pro';-inkscape-font-specification:'Source Sans Pro Heavy'"/></g></g></svg>