<svg width="200" height="200" viewBox="0 0 52.917 52.917" xmlns="http://www.w3.org/2000/svg"><defs><path id="a" d="M-180 218.5h289.5V315H-180z"/></defs><g transform="translate(249.804 -91.41)"><rect y="91.409" x="-249.804" height="52.917" width="52.917" style="display:inline;fill:#000;fill-opacity:1;fill-rule:nonzero;stroke:none;stroke-width:.5;stroke-linecap:butt;stroke-linejoin:round;stroke-miterlimit:4;stroke-dasharray:none;stroke-dashoffset:0;stroke-opacity:.909449;paint-order:normal" rx="14.552" ry="14.552"/><path style="display:inline;fill:#eb0dea;fill-opacity:1;stroke-width:.450003;stroke-linejoin:round;stroke-opacity:.909449" d="M-234.062 94.055h21.432a13.068 13.068 0 0 1 13.096 13.097v21.432h-47.625v-21.432a13.068 13.068 0 0 1 13.097-13.097z"/><path style="fill:#000;stroke-width:.266184" d="M-231.55 131.378c-2.524-.351-5.105-.882-7.36-2.115-1.505-1.222-3.195-2.53-3.39-4.62-.74-3.155.342-6.3.887-9.393.572-2.554 2.284-4.664 4.087-6.476 1.572-.432 3.347.36 5.005.307 3.478.179 7.049.194 10.438-.696 1.854-.906 2.545 1.764 3.395 2.892 1.839 3.381 4.04 6.875 3.88 10.879-.454 2.11 1.362 2.482 3.023 2.315 1.156-.118 3.961.896 3.913-.628-1.482-1.295-4.164-.328-5.18-2.269-1.04-1.678 1.706-4.209 2.805-2.188.169.675.263 1.43 1.137 1.045 1.276-.061 2.873-.654 3.727.659 1.575 1.578 1.364 4.53-.634 5.669-1.614.877-3.575.338-5.333.5-1.829-.197-3.56.273-5.025 1.378-3.377 1.461-7.029 2.183-10.635 2.826-1.575.222-3.167.083-4.74-.085zm10.334-8.769c1.242-1.19 2-4.551.052-5.236-.797 1.417.484 4.229-1.854 4.558-1.513.068-4.169.045-3.937-2.116-1.435-1.793-1.781 2.595-.067 2.789 1.629.606 3.464.62 5.162.35.235-.071.453-.192.644-.345zm-13.495-.04c1.782-.056 2.277-2.428 1.792-3.677-1.688.062-.986 3.06-3.161 2.6-2.336.584-2.373-2.125-2.9-3.508-1.72.399-.83 3.596.432 4.351 1.147.707 2.59.537 3.837.235zm18.812-8.275c-.536-1.52-1.556-2.85-2.348-4.299-.859-1.433-2.341-2.577-2.355-4.392-.692-1.743 1.714-2.443 2.86-3.167 2.25-1.37 3.34 1.72 3.64 3.422.353 2.231.452 4.61-.234 6.784-.403.4-.874 2.566-1.563 1.652zm-26.012-2.941c-.956-2.75-.884-6.024.697-8.528 1.627-1.14 3.727.198 5.166 1.11.6 1.243-2.573 1.292-1.889 3.01.003 2.127-2.225 3.217-3.043 5.01-.552 1.26-.612-.163-.931-.602zm9.056-3.145c-1.338-.303-3.78-.072-4.172-1.51 1.38-.89 2.54-1.89 2.516-3.692.803-1.53 2.11-3.035 3.826-3.521 1.442.27 2.73.551 4.193-.025 2.02.02 2.984 2.33 3.08 4.067-.839 1.982 3.327 1.74 1.684 3.65-2.257 1.053-4.844 1.006-7.281 1.245-1.286.057-2.568-.093-3.846-.214z"/><path style="display:inline;fill:#000;stroke-width:.5;stroke-linejoin:round;stroke-opacity:.909449" d="M-196.888 128.583v1.191a14.52 14.52 0 0 1-14.552 14.552h-23.812a14.52 14.52 0 0 1-14.552-14.552v-1.19z"/><g aria-label="INCLUSIVE" transform="matrix(.20878 0 0 .20878 -205.262 85.94)" style="font-size:40px;line-height:1.25;white-space:pre;shape-inside:url(#a);fill:#eb0dea"><path d="M-176.92 254.993v-26.08h5.88v26.08zM-164.88 254.993v-26.08h6.04l6.8 12.96 2.56 5.76h.16q-.2-2.08-.48-4.64-.24-2.56-.24-4.88v-9.2h5.6v26.08h-6.04l-6.8-13-2.56-5.68h-.16q.2 2.16.44 4.64.28 2.48.28 4.8v9.24zM-127.4 255.473q-2.48 0-4.68-.84-2.2-.88-3.88-2.56-1.64-1.68-2.6-4.16-.96-2.52-.96-5.8 0-3.24 1-5.76 1-2.56 2.68-4.32 1.68-1.76 3.92-2.68 2.24-.92 4.72-.92 2.52 0 4.52 1.04 2 1 3.32 2.36l-3.12 3.76q-1-.92-2.12-1.48-1.08-.6-2.48-.6-1.32 0-2.52.6-1.16.56-2.04 1.64-.84 1.08-1.36 2.64-.48 1.56-.48 3.52 0 4.04 1.72 6.28 1.72 2.2 4.6 2.2 1.6 0 2.84-.68 1.28-.72 2.24-1.76l3.12 3.68q-3.28 3.84-8.44 3.84zM-115 254.993v-26.08h5.88v21.12h10.32v4.96zM-85.48 255.473q-5.08 0-7.76-3-2.68-3-2.68-9.56v-14H-90v14.6q0 3.84 1.16 5.36 1.16 1.52 3.36 1.52t3.4-1.52q1.2-1.52 1.2-5.36v-14.6h5.68v14q0 6.56-2.64 9.56-2.6 3-7.64 3zM-61.6 255.473q-2.56 0-5.12-.92-2.52-.96-4.52-2.84l3.36-4.04q1.4 1.2 3.08 1.96 1.72.76 3.36.76 1.84 0 2.72-.68.92-.68.92-1.84 0-.6-.28-1.04-.24-.44-.76-.76-.48-.36-1.2-.64-.68-.32-1.52-.68l-3.4-1.44q-1-.4-1.96-1.04-.92-.64-1.68-1.48-.72-.88-1.16-2-.44-1.16-.44-2.6 0-1.6.68-3 .68-1.44 1.92-2.48 1.24-1.08 2.92-1.68 1.72-.6 3.76-.6 2.28 0 4.48.88 2.24.88 3.92 2.56l-3 3.72q-1.28-1-2.56-1.52-1.28-.56-2.84-.56-1.52 0-2.44.64-.88.6-.88 1.72 0 .6.28 1.04.32.4.84.76.56.32 1.28.64.72.28 1.56.64l3.36 1.36q2.4.96 3.76 2.64 1.4 1.68 1.4 4.44 0 1.64-.68 3.12-.64 1.44-1.92 2.56-1.24 1.08-3.08 1.76-1.84.64-4.16.64zM-47.32 254.993v-26.08h5.88v26.08zM-30.76 254.993l-7.88-26.08h6.24l3.12 12.16q.6 2.16 1.04 4.2.48 2 1.08 4.16h.16q.56-2.16 1.04-4.16.48-2.04 1.04-4.2l3.08-12.16h6l-7.84 26.08zM-13.04 254.993v-26.08H3.28v4.96H-7.16v5.24h8.88v4.92h-8.88v6H3.68v4.96z" style="font-weight:700;font-family:'Source Sans Pro';-inkscape-font-specification:'Source Sans Pro Bold'"/></g></g></svg>