<?xml version="1.0" encoding="UTF-8" standalone="no"?>
<svg
   width="200"
   height="200"
   viewBox="0 0 52.916668 52.916666"
   version="1.1"
   id="svg8"
   inkscape:version="1.1 (c68e22c387, 2021-05-23)"
   sodipodi:docname="inclusive.svg"
   xmlns:inkscape="http://www.inkscape.org/namespaces/inkscape"
   xmlns:sodipodi="http://sodipodi.sourceforge.net/DTD/sodipodi-0.dtd"
   xmlns="http://www.w3.org/2000/svg"
   xmlns:svg="http://www.w3.org/2000/svg"
   xmlns:rdf="http://www.w3.org/1999/02/22-rdf-syntax-ns#"
   xmlns:cc="http://creativecommons.org/ns#"
   xmlns:dc="http://purl.org/dc/elements/1.1/">
  <defs
     id="defs2">
    <rect
       x="-180"
       y="218.5"
       width="289.5"
       height="96.5"
       id="rect18059" />
    <rect
       x="-247"
       y="42"
       width="137"
       height="81.5"
       id="rect1185" />
    <rect
       x="-48.175333"
       y="18.9895"
       width="46.117357"
       height="15.996081"
       id="rect880" />
    <rect
       x="-255.23004"
       y="125.83378"
       width="102.52459"
       height="46.959256"
       id="rect873" />
    <inkscape:path-effect
       effect="envelope"
       id="path-effect4658"
       is_visible="true"
       yy="true"
       xx="true"
       bendpath1="m -199.08406,108.42369 h 7.0057"
       bendpath2="m -192.07836,108.42369 v 6.75242"
       bendpath3="m -199.08406,115.17611 h 7.0057"
       bendpath4="m -199.08406,108.42369 v 6.75242" />
    <inkscape:path-effect
       effect="bend_path"
       id="path-effect4656"
       is_visible="true"
       bendpath="m -192.00142,114.60623 c 2.12577,-0.53066 4.48261,0.85111 7.0057,0"
       prop_scale="1"
       scale_y_rel="false"
       vertical="false"
       bendpath-nodetypes="cc" />
    <inkscape:path-effect
       effect="bounding_box"
       id="path-effect4654"
       is_visible="true"
       linkedpath=""
       visualbounds="false" />
    <linearGradient
       id="linearGradient3288"
       inkscape:swatch="solid">
      <stop
         style="stop-color:#000000;stop-opacity:1;"
         offset="0"
         id="stop3286" />
    </linearGradient>
    <linearGradient
       id="linearGradient1364"
       inkscape:swatch="solid">
      <stop
         style="stop-color:#ffffff;stop-opacity:1;"
         offset="0"
         id="stop1362" />
    </linearGradient>
    <rect
       x="293.80286"
       y="272.58966"
       width="25.455845"
       height="37.830212"
       id="rect1056" />
    <rect
       x="222.73865"
       y="266.22571"
       width="47.376156"
       height="54.09367"
       id="rect1050" />
    <rect
       x="139.30003"
       y="246.42671"
       width="58.336308"
       height="48.790367"
       id="rect1044" />
    <rect
       x="131.1683"
       y="203.64674"
       width="61.871841"
       height="73.892654"
       id="rect1038" />
    <rect
       x="81.67083"
       y="193.04015"
       width="63.63961"
       height="55.507881"
       id="rect1032" />
    <rect
       x="83.085045"
       y="274.35742"
       width="44.194176"
       height="38.890873"
       id="rect1026" />
    <rect
       x="3.5355339"
       y="269.05414"
       width="65.760933"
       height="53.386562"
       id="rect1020" />
    <rect
       x="14.142136"
       y="226.27417"
       width="79.195961"
       height="62.932503"
       id="rect1014" />
    <rect
       x="11.313708"
       y="171.82695"
       width="36.416"
       height="51.618793"
       id="rect1008" />
    <rect
       x="3.1819806"
       y="132.22897"
       width="102.88404"
       height="102.53048"
       id="rect1002" />
  </defs>
  <sodipodi:namedview
     id="base"
     pagecolor="#ffffff"
     bordercolor="#666666"
     borderopacity="1.0"
     inkscape:pageopacity="0.0"
     inkscape:pageshadow="2"
     inkscape:zoom="2"
     inkscape:cx="58"
     inkscape:cy="221.75"
     inkscape:document-units="mm"
     inkscape:current-layer="layer1"
     showgrid="false"
     fit-margin-top="0"
     fit-margin-left="0"
     fit-margin-right="0"
     fit-margin-bottom="0"
     inkscape:window-width="1920"
     inkscape:window-height="1017"
     inkscape:window-x="-8"
     inkscape:window-y="-8"
     inkscape:window-maximized="1"
     showguides="false"
     inkscape:object-nodes="true"
     units="px"
     inkscape:snap-page="true"
     inkscape:document-rotation="0"
     inkscape:pagecheckerboard="1" />
  <metadata
     id="metadata5">
    <rdf:RDF>
      <cc:Work
         rdf:about="">
        <dc:format>image/svg+xml</dc:format>
        <dc:type
           rdf:resource="http://purl.org/dc/dcmitype/StillImage" />
      </cc:Work>
    </rdf:RDF>
  </metadata>
  <g
     inkscape:label="Base"
     inkscape:groupmode="layer"
     id="layer1"
     transform="translate(249.80447,-91.409467)">
    <rect
       y="91.40947"
       x="-249.80447"
       height="52.916668"
       width="52.916668"
       id="rect5238-5"
       style="display:inline;fill:#000000;fill-opacity:1;fill-rule:nonzero;stroke:none;stroke-width:0.5;stroke-linecap:butt;stroke-linejoin:round;stroke-miterlimit:4;stroke-dasharray:none;stroke-dashoffset:0;stroke-opacity:0.909449;paint-order:normal"
       rx="14.552089"
       ry="14.552081"
       inkscape:label="Bottom-rectangle" />
    <path
       id="rect18865"
       style="display:inline;fill:#eb0dea;fill-opacity:1;stroke-width:0.450003;stroke-linejoin:round;stroke-opacity:0.909449"
       d="m -234.06184,94.055153 h 21.43138 c 7.25572,0 13.09696,5.841242 13.09696,13.096957 v 21.43139 h -47.6253 v -21.43139 c 0,-7.255715 5.84125,-13.096957 13.09696,-13.096957 z"
       sodipodi:nodetypes="sssccss"
       inkscape:label="Inner-rectangle" />
    <path
       style="fill:#000000;stroke-width:0.266184"
       d="m -231.54928,131.37783 c -2.52517,-0.35115 -5.10578,-0.88174 -7.36028,-2.11479 -1.5052,-1.22196 -3.1959,-2.53017 -3.39117,-4.61979 -0.73985,-3.15557 0.34298,-6.30083 0.88805,-9.39326 0.57135,-2.55391 2.28392,-4.664 4.08626,-6.47607 1.57229,-0.43151 3.34764,0.36101 5.00553,0.3073 3.4777,0.17875 7.04881,0.19383 10.43765,-0.69638 1.8544,-0.90581 2.54508,1.76435 3.39566,2.8923 1.8382,3.381 4.03875,6.87485 3.87877,10.8786 -0.45314,2.11069 1.36272,2.48268 3.02407,2.31574 1.15586,-0.11802 3.96096,0.89597 3.91233,-0.62869 -1.48116,-1.29479 -4.16407,-0.32759 -5.18029,-2.26866 -1.03915,-1.67776 1.70668,-4.2088 2.80593,-2.18853 0.16876,0.67562 0.26279,1.43084 1.13636,1.04576 1.27655,-0.0618 2.87294,-0.65411 3.72697,0.65854 1.57583,1.57814 1.36489,4.53077 -0.63382,5.66879 -1.6141,0.87697 -3.57426,0.33821 -5.33289,0.49962 -1.82846,-0.19617 -3.56017,0.27336 -5.02447,1.37866 -3.3772,1.461 -7.0289,2.18283 -10.63568,2.82574 -1.57456,0.22236 -3.1669,0.0836 -4.73899,-0.0849 z m 10.33341,-8.7686 c 1.24166,-1.18949 2.00038,-4.55172 0.0522,-5.23603 -0.79688,1.41683 0.4837,4.2285 -1.85419,4.55773 -1.51328,0.0679 -4.16892,0.0448 -3.93679,-2.11636 -1.43529,-1.7929 -1.78159,2.59537 -0.0674,2.78923 1.62888,0.60575 3.46363,0.61989 5.16173,0.35028 0.23486,-0.0712 0.45314,-0.19207 0.64452,-0.34485 z m -13.49486,-0.0396 c 1.78222,-0.0568 2.27682,-2.42903 1.79199,-3.67746 -1.68809,0.062 -0.9858,3.06006 -3.16134,2.59958 -2.33585,0.58411 -2.3726,-2.12505 -2.90056,-3.5077 -1.71894,0.39887 -0.82881,3.5957 0.43278,4.351 1.14684,0.7071 2.5906,0.53728 3.83713,0.23458 z m 18.81199,-8.27537 c -0.53602,-1.51995 -1.55578,-2.85 -2.34788,-4.29902 -0.85931,-1.43349 -2.34174,-2.57694 -2.35575,-4.3922 -0.69128,-1.74339 1.71419,-2.44345 2.85969,-3.16692 2.24974,-1.37066 3.34045,1.72081 3.64092,3.42157 0.35324,2.2314 0.45221,4.61112 -0.23403,6.78383 -0.4034,0.40004 -0.87413,2.56625 -1.56295,1.65274 z m -26.01231,-2.94132 c -0.95571,-2.75051 -0.88383,-6.02388 0.69732,-8.52826 1.62696,-1.13987 3.7271,0.19858 5.16615,1.11071 0.59955,1.24236 -2.57313,1.29185 -1.88933,3.01031 0.003,2.12587 -2.22522,3.21638 -3.04302,5.00934 -0.55193,1.25961 -0.61256,-0.16352 -0.93112,-0.6021 z m 9.05643,-3.14481 c -1.3383,-0.30265 -3.78086,-0.0723 -4.17239,-1.51004 1.37952,-0.89081 2.54005,-1.88916 2.51573,-3.69188 0.80316,-1.52929 2.11063,-3.035129 3.82584,-3.52126 1.44201,0.270906 2.73051,0.5513 4.19348,-0.02525 2.01911,0.0206 2.98395,2.33111 3.08065,4.06751 -0.8392,1.98199 3.32615,1.73951 1.68344,3.64988 -2.25712,1.05317 -4.84367,1.00585 -7.28125,1.24523 -1.2858,0.0562 -2.56769,-0.0929 -3.8455,-0.21416 z"
       id="path60"
       inkscape:label="Drawing" />
    <path
       id="rect19240"
       style="display:inline;fill:#000000;stroke-width:0.5;stroke-linejoin:round;stroke-opacity:0.909449"
       d="m -196.88781,128.58347 v 1.19059 c 0,8.06185 -6.49023,14.55208 -14.55208,14.55208 h -23.8125 c -8.06185,0 -14.55208,-6.49023 -14.55208,-14.55208 v -1.19059 z"
       sodipodi:nodetypes="csssscc"
       inkscape:label="Bottom-label" />
    <g
       aria-label="INCLUSIVE"
       transform="matrix(0.208777,0,0,0.208777,-205.26184,85.940539)"
       id="text18057"
       style="font-size:40px;line-height:1.25;white-space:pre;shape-inside:url(#rect18059);fill:#eb0dea">
      <path
         d="m -176.92,254.99321 v -26.08 h 5.88 v 26.08 z"
         style="font-weight:bold;font-family:'Source Sans Pro';-inkscape-font-specification:'Source Sans Pro Bold'"
         id="path22479" />
      <path
         d="m -164.88005,254.99321 v -26.08 h 6.04 l 6.8,12.96 2.56,5.76 h 0.16 q -0.2,-2.08 -0.48,-4.64 -0.24,-2.56 -0.24,-4.88 v -9.2 h 5.6 v 26.08 h -6.04 l -6.8,-13 -2.56,-5.68 h -0.16 q 0.2,2.16 0.44,4.64 0.28,2.48 0.28,4.8 v 9.24 z"
         style="font-weight:bold;font-family:'Source Sans Pro';-inkscape-font-specification:'Source Sans Pro Bold'"
         id="path22481" />
      <path
         d="m -127.40009,255.47321 q -2.48,0 -4.68,-0.84 -2.2,-0.88 -3.88,-2.56 -1.64,-1.68 -2.6,-4.16 -0.96,-2.52 -0.96,-5.8 0,-3.24 1,-5.76 1,-2.56 2.68,-4.32 1.68,-1.76 3.92,-2.68 2.24,-0.92 4.72,-0.92 2.52,0 4.52,1.04 2,1 3.32,2.36 l -3.12,3.76 q -1,-0.92 -2.12,-1.48 -1.08,-0.6 -2.48,-0.6 -1.32,0 -2.52,0.6 -1.16,0.56 -2.04,1.64 -0.84,1.08 -1.36,2.64 -0.48,1.56 -0.48,3.52 0,4.04 1.72,6.28 1.72,2.2 4.6,2.2 1.6,0 2.84,-0.68 1.28,-0.72 2.24,-1.76 l 3.12,3.68 q -3.28,3.84 -8.44,3.84 z"
         style="font-weight:bold;font-family:'Source Sans Pro';-inkscape-font-specification:'Source Sans Pro Bold'"
         id="path22483" />
      <path
         d="m -115.00014,254.99321 v -26.08 h 5.88 v 21.12 h 10.320001 v 4.96 z"
         style="font-weight:bold;font-family:'Source Sans Pro';-inkscape-font-specification:'Source Sans Pro Bold'"
         id="path22485" />
      <path
         d="m -85.480179,255.47321 q -5.08,0 -7.76,-3 -2.68,-3 -2.68,-9.56 v -14 h 5.92 v 14.6 q 0,3.84 1.16,5.36 1.16,1.52 3.36,1.52 2.2,0 3.4,-1.52 1.2,-1.52 1.2,-5.36 v -14.6 h 5.68 v 14 q 0,6.56 -2.64,9.56 -2.6,3 -7.64,3 z"
         style="font-weight:bold;font-family:'Source Sans Pro';-inkscape-font-specification:'Source Sans Pro Bold'"
         id="path22487" />
      <path
         d="m -61.600228,255.47321 q -2.56,0 -5.12,-0.92 -2.52,-0.96 -4.52,-2.84 l 3.36,-4.04 q 1.4,1.2 3.08,1.96 1.72,0.76 3.36,0.76 1.84,0 2.72,-0.68 0.92,-0.68 0.92,-1.84 0,-0.6 -0.28,-1.04 -0.24,-0.44 -0.76,-0.76 -0.48,-0.36 -1.2,-0.64 -0.68,-0.32 -1.52,-0.68 l -3.4,-1.44 q -1,-0.4 -1.96,-1.04 -0.92,-0.64 -1.68,-1.48 -0.72,-0.88 -1.16,-2 -0.44,-1.16 -0.44,-2.6 0,-1.6 0.68,-3 0.68,-1.44 1.92,-2.48 1.24,-1.08 2.92,-1.68 1.72,-0.6 3.76,-0.6 2.28,0 4.48,0.88 2.24,0.88 3.92,2.56 l -3,3.72 q -1.28,-1 -2.56,-1.52 -1.28,-0.56 -2.84,-0.56 -1.52,0 -2.44,0.64 -0.88,0.6 -0.88,1.72 0,0.6 0.28,1.04 0.32,0.4 0.84,0.76 0.56,0.32 1.28,0.64 0.72,0.28 1.56,0.64 l 3.36,1.36 q 2.4,0.96 3.76,2.64 1.4,1.68 1.4,4.44 0,1.64 -0.68,3.12 -0.64,1.44 -1.92,2.56 -1.24,1.08 -3.08,1.76 -1.84,0.64 -4.16,0.64 z"
         style="font-weight:bold;font-family:'Source Sans Pro';-inkscape-font-specification:'Source Sans Pro Bold'"
         id="path22489" />
      <path
         d="m -47.320238,254.99321 v -26.08 h 5.88 v 26.08 z"
         style="font-weight:bold;font-family:'Source Sans Pro';-inkscape-font-specification:'Source Sans Pro Bold'"
         id="path22491" />
      <path
         d="m -30.760291,254.99321 -7.88,-26.08 h 6.24 l 3.12,12.16 q 0.6,2.16 1.04,4.2 0.48,2 1.08,4.16 h 0.16 q 0.56,-2.16 1.04,-4.16 0.48,-2.04 1.04,-4.2 l 3.08,-12.16 h 6 l -7.84,26.08 z"
         style="font-weight:bold;font-family:'Source Sans Pro';-inkscape-font-specification:'Source Sans Pro Bold'"
         id="path22493" />
      <path
         d="m -13.0403,254.99321 v -26.08 H 3.2796997 v 4.96 h -10.44 v 5.24 h 8.88 v 4.92 h -8.88 v 6 h 10.84 v 4.96 z"
         style="font-weight:bold;font-family:'Source Sans Pro';-inkscape-font-specification:'Source Sans Pro Bold'"
         id="path22495" />
    </g>
  </g>
</svg>
