<?xml version="1.0" encoding="UTF-8" standalone="no"?>
<svg
   width="200"
   height="200"
   viewBox="0 0 52.916668 52.916666"
   version="1.1"
   id="svg8"
   inkscape:version="1.1 (c68e22c387, 2021-05-23)"
   sodipodi:docname="irony.svg"
   xmlns:inkscape="http://www.inkscape.org/namespaces/inkscape"
   xmlns:sodipodi="http://sodipodi.sourceforge.net/DTD/sodipodi-0.dtd"
   xmlns="http://www.w3.org/2000/svg"
   xmlns:svg="http://www.w3.org/2000/svg"
   xmlns:rdf="http://www.w3.org/1999/02/22-rdf-syntax-ns#"
   xmlns:cc="http://creativecommons.org/ns#"
   xmlns:dc="http://purl.org/dc/elements/1.1/">
  <defs
     id="defs2">
    <rect
       x="-194.5"
       y="219.5"
       width="272.5"
       height="84.5"
       id="rect1577" />
    <rect
       x="-26.5"
       y="237.5"
       width="296"
       height="67"
       id="rect5485" />
    <rect
       x="-247"
       y="42"
       width="137"
       height="81.5"
       id="rect1185" />
    <rect
       x="-48.175333"
       y="18.9895"
       width="46.117357"
       height="15.996081"
       id="rect880" />
    <rect
       x="-255.23004"
       y="125.83378"
       width="102.52459"
       height="46.959256"
       id="rect873" />
    <inkscape:path-effect
       effect="envelope"
       id="path-effect4658"
       is_visible="true"
       yy="true"
       xx="true"
       bendpath1="m -199.08406,108.42369 h 7.0057"
       bendpath2="m -192.07836,108.42369 v 6.75242"
       bendpath3="m -199.08406,115.17611 h 7.0057"
       bendpath4="m -199.08406,108.42369 v 6.75242" />
    <inkscape:path-effect
       effect="bend_path"
       id="path-effect4656"
       is_visible="true"
       bendpath="m -192.00142,114.60623 c 2.12577,-0.53066 4.48261,0.85111 7.0057,0"
       prop_scale="1"
       scale_y_rel="false"
       vertical="false"
       bendpath-nodetypes="cc" />
    <inkscape:path-effect
       effect="bounding_box"
       id="path-effect4654"
       is_visible="true"
       linkedpath=""
       visualbounds="false" />
    <linearGradient
       id="linearGradient3288"
       inkscape:swatch="solid">
      <stop
         style="stop-color:#000000;stop-opacity:1;"
         offset="0"
         id="stop3286" />
    </linearGradient>
    <linearGradient
       id="linearGradient1364"
       inkscape:swatch="solid">
      <stop
         style="stop-color:#ffffff;stop-opacity:1;"
         offset="0"
         id="stop1362" />
    </linearGradient>
    <rect
       x="293.80286"
       y="272.58966"
       width="25.455845"
       height="37.830212"
       id="rect1056" />
    <rect
       x="222.73865"
       y="266.22571"
       width="47.376156"
       height="54.09367"
       id="rect1050" />
    <rect
       x="139.30003"
       y="246.42671"
       width="58.336308"
       height="48.790367"
       id="rect1044" />
    <rect
       x="131.1683"
       y="203.64674"
       width="61.871841"
       height="73.892654"
       id="rect1038" />
    <rect
       x="81.67083"
       y="193.04015"
       width="63.63961"
       height="55.507881"
       id="rect1032" />
    <rect
       x="83.085045"
       y="274.35742"
       width="44.194176"
       height="38.890873"
       id="rect1026" />
    <rect
       x="3.5355339"
       y="269.05414"
       width="65.760933"
       height="53.386562"
       id="rect1020" />
    <rect
       x="14.142136"
       y="226.27417"
       width="79.195961"
       height="62.932503"
       id="rect1014" />
    <rect
       x="11.313708"
       y="171.82695"
       width="36.416"
       height="51.618793"
       id="rect1008" />
    <rect
       x="3.1819806"
       y="132.22897"
       width="102.88404"
       height="102.53048"
       id="rect1002" />
  </defs>
  <sodipodi:namedview
     id="base"
     pagecolor="#ffffff"
     bordercolor="#666666"
     borderopacity="1.0"
     inkscape:pageopacity="0.0"
     inkscape:pageshadow="2"
     inkscape:zoom="2"
     inkscape:cx="58"
     inkscape:cy="141.75"
     inkscape:document-units="mm"
     inkscape:current-layer="layer1"
     showgrid="false"
     fit-margin-top="0"
     fit-margin-left="0"
     fit-margin-right="0"
     fit-margin-bottom="0"
     inkscape:window-width="1920"
     inkscape:window-height="1017"
     inkscape:window-x="-8"
     inkscape:window-y="-8"
     inkscape:window-maximized="1"
     showguides="false"
     inkscape:object-nodes="true"
     units="px"
     inkscape:snap-page="true"
     inkscape:document-rotation="0"
     inkscape:pagecheckerboard="1" />
  <metadata
     id="metadata5">
    <rdf:RDF>
      <cc:Work
         rdf:about="">
        <dc:format>image/svg+xml</dc:format>
        <dc:type
           rdf:resource="http://purl.org/dc/dcmitype/StillImage" />
      </cc:Work>
    </rdf:RDF>
  </metadata>
  <g
     inkscape:label="Base"
     inkscape:groupmode="layer"
     id="layer1"
     transform="translate(249.80447,-91.409467)">
    <rect
       y="91.40947"
       x="-249.80447"
       height="52.916668"
       width="52.916668"
       id="rect5238-5"
       style="display:inline;fill:#000000;fill-opacity:1;fill-rule:nonzero;stroke:none;stroke-width:0.5;stroke-linecap:butt;stroke-linejoin:round;stroke-miterlimit:4;stroke-dasharray:none;stroke-dashoffset:0;stroke-opacity:0.909449;paint-order:normal"
       rx="14.552089"
       ry="14.552081"
       inkscape:label="Bottom-rectangle" />
    <path
       id="rect18865"
       style="display:inline;fill:#0000ff;fill-opacity:1;stroke-width:0.450003;stroke-linejoin:round;stroke-opacity:0.909449"
       d="m -203.36108,97.882738 c 2.36727,2.367272 3.82758,5.641512 3.82758,9.269372 v 21.43139 h -47.6253 z"
       sodipodi:nodetypes="csccc"
       inkscape:label="Inner-rectangle" />
    <path
       id="path197"
       style="display:inline;fill:#fdfd00;fill-opacity:1;stroke-width:0.450003;stroke-linejoin:round;stroke-opacity:0.909449"
       d="m -234.06184,94.055153 h 21.43138 c 3.62786,0 6.9021,1.460311 9.26938,3.827585 L -247.1588,128.5835 v -21.43139 c 0,-7.255715 5.84125,-13.096957 13.09696,-13.096957 z"
       sodipodi:nodetypes="ssccss"
       inkscape:label="Inner-rectangle-2" />
    <g
       id="g1019"
       transform="matrix(1.1821697,0,0,1.1821697,-251.14992,70.895896)"
       style="display:inline;fill:#000000;fill-opacity:1"
       inkscape:label="Drawing">
      <path
         style="fill:#000000;fill-opacity:1;stroke-width:0.999999"
         d="m 20.090769,33.742482 q 0.03133,-0.0531 0.132352,-0.0745 0.10102,-0.0214 0.219652,-0.0549 0.118633,-0.0335 0.268255,-0.0343 0.149622,-8.2e-4 0.29851,-0.003 0.148888,-0.003 0.27197,0.008 0.123082,0.0101 0.248018,0.037 0.124935,0.0268 0.186849,0.033 0.06191,0.006 0.168984,0.0321 0.107069,0.0259 0.230058,0.0449 0.122989,0.019 0.20201,0.0251 0.07902,0.006 0.237709,0.0155 0.158687,0.009 0.283295,0.0162 0.124607,0.007 0.25151,0.0112 0.126903,0.004 0.263317,0.009 0.136415,0.005 0.251737,0.0154 0.115322,0.0107 0.22738,0.0338 0.112057,0.0231 0.24271,0.0622 0.130654,0.0392 0.210158,0.0559 0.0795,0.0167 0.179797,0.0364 0.100293,0.0197 0.232504,0.0333 0.13221,0.0136 0.259588,0.0234 0.127378,0.01 0.267892,0.0309 0.140515,0.0211 0.270171,0.0447 0.129656,0.0236 0.214707,0.0518 0.08505,0.0282 0.138621,0.0427 0.05357,0.0144 0.163311,0.0403 0.109741,0.0259 0.257065,0.0424 0.147325,0.0165 0.276036,0.0192 0.128712,0.003 0.24767,0.003 0.118958,-3e-5 0.283496,0.0289 0.164539,0.0289 0.233863,0.0436 0.06932,0.0147 0.139703,0.0375 0.07038,0.0228 0.173546,0.0451 0.103167,0.0224 0.222184,0.0467 0.119017,0.0243 0.276717,0.0545 0.1577,0.0301 0.262406,0.0575 0.104705,0.0274 0.212487,0.0543 0.107783,0.0269 0.178655,0.0406 0.07087,0.0137 0.192018,0.0444 0.121147,0.0307 0.219501,0.0324 0.09835,0.002 0.248155,0.0122 0.149801,0.0105 0.289934,0.0368 0.140135,0.0263 0.282085,0.0541 0.14196,0.0278 0.21941,0.0423 0.0774,0.0145 0.19211,0.0417 0.11466,0.0272 0.13875,0.0298 0.0241,0.003 0.16569,0.0148 0.1416,0.0122 0.29839,0.0329 0.15678,0.0207 0.26294,0.0378 0.10615,0.0171 0.24307,0.0466 0.13692,0.0295 0.22698,0.053 0.0901,0.0235 0.18988,0.05 0.0998,0.0265 0.2102,0.0412 0.11037,0.0147 0.26761,0.0308 0.15723,0.0162 0.25408,0.0244 0.0969,0.008 0.22432,0.0258 0.12747,0.0176 0.26864,0.0432 0.14118,0.0257 0.21603,0.0435 0.0749,0.0178 0.15556,0.0379 0.0807,0.0201 0.20048,0.0558 0.11978,0.0357 0.23989,0.0692 0.12011,0.0335 0.25805,0.0609 0.13795,0.0274 0.2082,0.0461 0.0703,0.0186 0.17385,0.0437 0.10359,0.025 0.2294,0.0524 0.12581,0.0274 0.21483,0.0509 0.089,0.0236 0.21117,0.0552 0.12215,0.0316 0.20206,0.054 0.0799,0.0224 0.1832,0.0595 0.10329,0.0371 0.19118,0.06 0.0879,0.0229 0.23401,0.0514 0.14612,0.0284 0.27511,0.0557 0.12899,0.0272 0.19874,0.0553 0.0697,0.0281 0.17469,0.0577 0.10495,0.0297 0.15732,0.0448 0.0524,0.0151 0.18836,0.0626 0.13598,0.0475 0.23335,0.0851 0.0974,0.0376 0.20097,0.0836 0.10361,0.046 0.20183,0.0949 0.0982,0.0489 0.18421,0.0867 0.086,0.0378 0.15056,0.064 0.0646,0.0262 0.16639,0.0721 0.10183,0.0459 0.21218,0.0949 0.11036,0.049 0.16599,0.0837 0.0556,0.0347 0.15896,0.11728 0.10332,0.0826 0.14089,0.1376 0.0376,0.055 0.0601,0.13775 0.0225,0.0827 0.0686,0.20983 0.0461,0.12711 0.0471,0.23055 10e-4,0.10345 -0.0132,0.2161 -0.0142,0.11265 -0.0387,0.27164 -0.0245,0.159 -0.035,0.22332 -0.0105,0.0643 -0.0316,0.1531 -0.0211,0.0888 -0.0431,0.19611 -0.022,0.10734 -0.0515,0.24775 -0.0295,0.14041 -0.0593,0.25905 -0.0297,0.11863 -0.0564,0.21693 -0.0267,0.0983 -0.0447,0.15591 -0.018,0.0576 -0.0432,0.14566 -0.0252,0.0881 -0.0646,0.21758 -0.0394,0.12952 -0.0781,0.24735 -0.0387,0.11782 -0.0872,0.21352 -0.0486,0.0957 -0.0878,0.17906 -0.0392,0.0834 -0.0643,0.1399 -0.0251,0.0565 -0.0756,0.16112 -0.0505,0.1046 -0.079,0.1853 -0.0285,0.0807 -0.0826,0.22792 -0.0541,0.14722 -0.0841,0.21215 -0.03,0.0649 -0.0784,0.15491 -0.0484,0.09 -0.0827,0.14418 -0.0343,0.0542 -0.10138,0.16702 -0.0671,0.11279 -0.12305,0.2071 -0.056,0.0943 -0.10219,0.16142 -0.0462,0.0671 -0.114,0.16308 -0.0678,0.096 -0.11233,0.16971 -0.0446,0.0737 -0.0798,0.13701 -0.0352,0.0633 -0.10349,0.14631 -0.0683,0.083 -0.10415,0.13787 -0.0358,0.0548 -0.11581,0.14346 -0.08,0.0886 -0.13492,0.13214 -0.055,0.0435 -0.11212,0.0845 -0.0572,0.041 -0.16452,0.10403 -0.10737,0.0631 -0.21483,0.11747 -0.10746,0.0544 -0.19263,0.0674 -0.0852,0.013 -0.20624,0.021 -0.12109,0.008 -0.26642,0.0213 -0.14534,0.0134 -0.27457,0.0194 -0.12924,0.006 -0.24869,0.009 -0.11944,0.003 -0.26036,0.004 -0.14093,4.2e-4 -0.27336,4.2e-4 -0.13243,0 -0.26485,0 -0.13243,0 -0.26486,0 -0.13243,0 -0.26486,0 -0.13242,0 -0.26896,-0.001 -0.13654,-10e-4 -0.26715,-0.0155 -0.13061,-0.0144 -0.23002,-0.0323 -0.0994,-0.0178 -0.2306,-0.0468 -0.13119,-0.029 -0.21088,-0.0497 -0.0797,-0.0207 -0.1255,-0.0292 -0.0458,-0.008 -0.20907,-0.041 -0.16325,-0.0325 -0.29334,-0.066 -0.13008,-0.0335 -0.24196,-0.0673 -0.11187,-0.0337 -0.16881,-0.0569 -0.0569,-0.0232 -0.13598,-0.0726 -0.079,-0.0494 -0.18236,-0.10999 -0.10332,-0.0606 -0.18748,-0.11869 -0.0842,-0.0581 -0.16886,-0.12472 -0.0847,-0.0667 -0.1277,-0.10822 -0.043,-0.0415 -0.11845,-0.0961 -0.0754,-0.0545 -0.15035,-0.11161 -0.0749,-0.0571 -0.15706,-0.10782 -0.0821,-0.0507 -0.15721,-0.11247 -0.0751,-0.0617 -0.14021,-0.12297 -0.0651,-0.0612 -0.123536,-0.13048 -0.05841,-0.0693 -0.114648,-0.14185 -0.05623,-0.0726 -0.139365,-0.17973 -0.08313,-0.10715 -0.131445,-0.18009 -0.04832,-0.073 -0.08924,-0.14069 -0.04092,-0.0677 -0.06506,-0.11451 -0.02414,-0.0468 -0.05503,-0.11718 -0.0309,-0.0704 -0.103994,-0.23346 -0.0731,-0.16307 -0.1026,-0.24026 -0.0295,-0.0772 -0.04863,-0.15551 -0.01913,-0.0783 -0.05734,-0.21246 -0.03821,-0.13414 -0.06178,-0.22659 -0.02357,-0.0924 -0.07692,-0.22173 -0.05335,-0.12929 -0.08718,-0.20804 -0.03383,-0.0788 -0.09982,-0.13451 -0.06599,-0.0558 -0.176279,-0.13373 -0.110285,-0.078 -0.158991,-0.0984 -0.0487,-0.0204 -0.114856,-0.009 -0.06615,0.011 -0.125101,0.0542 -0.05895,0.0432 -0.1238,0.10054 -0.06485,0.0574 -0.134307,0.11944 -0.06946,0.0621 -0.132739,0.12532 -0.06328,0.0632 -0.129496,0.12945 -0.06621,0.0662 -0.132428,0.13243 -0.06621,0.0662 -0.132428,0.13243 -0.06621,0.0662 -0.140019,0.13804 -0.0738,0.0718 -0.121886,0.11678 -0.04808,0.045 -0.130011,0.11924 -0.08193,0.0743 -0.147957,0.11757 -0.06603,0.0433 -0.176768,0.10134 -0.110742,0.058 -0.189371,0.10517 -0.07863,0.0471 -0.146972,0.0824 -0.06834,0.0353 -0.164106,0.0849 -0.09576,0.0496 -0.169342,0.0875 -0.07358,0.0379 -0.173367,0.0892 -0.09979,0.0513 -0.198281,0.0985 -0.0985,0.0472 -0.210863,0.1008 -0.112367,0.0536 -0.179032,0.0752 -0.06667,0.0216 -0.148837,0.0377 -0.08217,0.016 -0.197837,0.0502 -0.115666,0.0341 -0.249696,0.0726 -0.13403,0.0385 -0.208546,0.0673 -0.07452,0.0288 -0.219694,0.0689 -0.145178,0.0401 -0.221931,0.0506 -0.07675,0.0105 -0.211235,0.0212 -0.134482,0.0107 -0.275306,0.0179 -0.140824,0.007 -0.233454,0.008 -0.09263,10e-4 -0.240337,0.006 -0.147706,0.004 -0.280134,0.004 -0.132428,0 -0.264509,-0.007 -0.13208,-0.007 -0.282076,-0.0338 -0.149996,-0.027 -0.191469,-0.0388 -0.04147,-0.0118 -0.148045,-0.0357 -0.10657,-0.0239 -0.195644,-0.0473 -0.08907,-0.0234 -0.225914,-0.0557 -0.13684,-0.0323 -0.269059,-0.0766 -0.132219,-0.0443 -0.212324,-0.0829 -0.08011,-0.0386 -0.166287,-0.0887 -0.08618,-0.0501 -0.142973,-0.0912 -0.05679,-0.0411 -0.117773,-0.0991 -0.06098,-0.058 -0.147414,-0.13117 -0.08643,-0.0731 -0.152647,-0.13934 -0.06621,-0.0662 -0.132428,-0.13243 -0.06621,-0.0662 -0.132428,-0.13243 -0.06621,-0.0662 -0.132428,-0.13242 -0.06621,-0.0662 -0.132428,-0.13243 -0.06621,-0.0662 -0.143619,-0.14859 -0.07741,-0.0824 -0.134093,-0.16204 -0.05669,-0.0797 -0.111232,-0.14124 -0.05454,-0.0616 -0.08408,-0.14821 -0.02954,-0.0866 -0.07026,-0.21242 -0.04072,-0.1258 -0.07274,-0.2178 -0.03202,-0.092 -0.04504,-0.14064 -0.01302,-0.0486 -0.03362,-0.17144 -0.0206,-0.12281 -0.03482,-0.24667 -0.01422,-0.12387 -0.02225,-0.25659 -0.008,-0.13272 -0.01746,-0.30245 -0.0094,-0.16972 -0.01585,-0.26884 -0.0064,-0.0991 -0.008,-0.23159 -0.0015,-0.13247 -0.0015,-0.2649 0,-0.13243 0,-0.26486 0,-0.13242 0.008,-0.27686 0.008,-0.14443 0.01731,-0.28555 0.0093,-0.14112 0.0294,-0.24413 0.02014,-0.103 0.04771,-0.19985 0.02758,-0.0969 0.05583,-0.1978 0.02825,-0.10095 0.06538,-0.22221 0.03713,-0.12126 0.064,-0.19796 0.02688,-0.0767 0.05445,-0.16282 0.02757,-0.0861 0.06688,-0.19043 0.0393,-0.1043 0.06523,-0.19523 0.02593,-0.0909 0.06637,-0.21096 0.04044,-0.12002 0.08318,-0.25534 0.04274,-0.13532 0.06249,-0.18145 0.01975,-0.0461 0.05855,-0.13499 0.0388,-0.0889 0.0942,-0.16947 0.05539,-0.0806 0.110047,-0.15468 0.05465,-0.0741 0.117811,-0.16271 0.06316,-0.0886 0.107159,-0.1588 0.044,-0.0702 0.100716,-0.16299 0.05672,-0.0928 0.08805,-0.14594 m 0.382183,5.77432 q 0.122007,-0.007 0.190425,-0.0598 0.06842,-0.053 0.08303,-0.11261 0.01461,-0.0597 0.03266,-0.15519 0.01805,-0.0955 0.032,-0.24049 0.01395,-0.14494 0.02175,-0.24855 0.0078,-0.10361 0.0109,-0.24449 0.0031,-0.14088 0.01438,-0.28477 0.01129,-0.14388 0.02127,-0.25451 0.01,-0.11063 0.03038,-0.28937 0.02039,-0.17873 0.03965,-0.25861 0.01925,-0.0799 0.03524,-0.12926 0.01599,-0.0494 0.05921,-0.1806 0.04322,-0.13123 0.07045,-0.19537 0.02722,-0.0641 0.07692,-0.15064 0.04969,-0.0865 0.135232,-0.19271 0.08554,-0.10619 0.149423,-0.16831 0.06388,-0.0621 0.12757,-0.0752 0.06368,-0.0131 0.173034,-0.0229 0.109349,-0.01 0.227777,-0.0184 0.118428,-0.009 0.274085,-0.01 0.155656,-10e-4 0.287882,-0.004 0.132226,-0.003 0.255142,0.002 0.122917,0.005 0.243994,0.0207 0.121077,0.0156 0.237217,0.0374 0.116139,0.0218 0.237793,0.052 0.121653,0.0302 0.185161,0.0363 0.06351,0.006 0.222745,0.0276 0.159237,0.0215 0.288046,0.0356 0.128809,0.0141 0.235478,0.0203 0.106669,0.006 0.227885,0.0308 0.121216,0.0247 0.238589,0.0446 0.117373,0.0199 0.242179,0.0502 0.124807,0.0302 0.1649,0.0388 0.04009,0.009 0.182135,0.0297 0.142043,0.0211 0.267658,0.0297 0.125616,0.009 0.246746,-10e-4 0.12113,-0.01 0.265822,-0.0355 0.144691,-0.0256 0.184272,-0.0365 0.03958,-0.0109 0.05155,-0.0833 0.01197,-0.0725 0.01081,-0.15255 -0.0012,-0.0801 -0.01112,-0.14286 -0.01,-0.0628 -0.07085,-0.12734 -0.06088,-0.0646 -0.155526,-0.15256 -0.09464,-0.088 -0.19275,-0.14268 -0.09811,-0.0547 -0.14731,-0.0813 -0.0492,-0.0266 -0.172638,-0.0901 -0.123434,-0.0635 -0.214372,-0.0978 -0.09094,-0.0343 -0.182246,-0.0536 -0.09131,-0.0193 -0.21382,-0.0339 -0.122512,-0.0146 -0.268679,-0.0246 -0.146168,-0.01 -0.258194,-0.015 -0.112027,-0.005 -0.230619,-0.009 -0.118592,-0.004 -0.247595,-0.0225 -0.129003,-0.0185 -0.215566,-0.0371 -0.08656,-0.0186 -0.18628,-0.0438 -0.09972,-0.0252 -0.199177,-0.0394 -0.09946,-0.0142 -0.1937,-0.0248 -0.09424,-0.0106 -0.239775,-0.0284 -0.145533,-0.0178 -0.314908,-0.0353 -0.169376,-0.0174 -0.273389,-0.0203 -0.104013,-0.003 -0.249368,-0.006 -0.145356,-0.003 -0.267603,-0.002 -0.122247,10e-4 -0.263134,0.004 -0.140887,0.003 -0.291269,0.0206 -0.150381,0.0177 -0.229163,0.0504 -0.07878,0.0327 -0.229787,0.0809 -0.151005,0.0482 -0.212442,0.0917 -0.06144,0.0434 -0.129867,0.094 -0.06843,0.0505 -0.115062,0.0892 -0.04663,0.0387 -0.136939,0.12854 -0.09031,0.0898 -0.125828,0.13606 -0.03552,0.0462 -0.07602,0.1219 -0.0405,0.0757 -0.07546,0.15429 -0.03496,0.0786 -0.08546,0.2131 -0.0505,0.13447 -0.06658,0.18307 -0.01607,0.0486 -0.05774,0.18203 -0.04166,0.13343 -0.0616,0.25402 -0.01994,0.12059 -0.03879,0.21058 -0.01885,0.09 -0.03463,0.25647 -0.01579,0.16647 -0.01788,0.27454 -0.0021,0.10807 -0.0045,0.2404 -0.0024,0.13233 -0.0028,0.27748 -4.24e-4,0.14515 0.0031,0.25865 0.0036,0.11351 0.01001,0.24419 0.0065,0.13068 0.02415,0.25166 0.01769,0.12099 0.06788,0.21087 0.05018,0.0899 0.11829,0.18873 0.06811,0.0988 0.09125,0.11862 0.02314,0.0198 0.132715,0.035 0.109572,0.0152 0.231579,0.008 m 10.313881,2.12425 q 0.14266,0.007 0.18555,-0.0246 0.0429,-0.0317 0.0688,-0.126 0.0259,-0.0943 0.0506,-0.17693 0.0247,-0.0826 0.0183,-0.22122 -0.006,-0.13861 -0.024,-0.24255 -0.0177,-0.10394 -0.0385,-0.20312 -0.0208,-0.0992 -0.0392,-0.19761 -0.0184,-0.0984 -0.0298,-0.18338 -0.0114,-0.0849 -0.026,-0.20743 -0.0146,-0.1225 -0.0221,-0.27457 -0.007,-0.15207 -0.008,-0.27684 -6.9e-4,-0.12476 -0.006,-0.26108 -0.005,-0.13633 -0.005,-0.26875 0,-0.13243 0.007,-0.28795 0.007,-0.15552 0.0178,-0.25665 0.0105,-0.10114 0.0459,-0.27928 0.0354,-0.17814 0.0526,-0.21945 0.0172,-0.0413 0.0824,-0.056 0.0652,-0.0147 0.18532,-0.0263 0.1201,-0.0116 0.27662,-0.0181 0.15653,-0.007 0.27304,0.0146 0.1165,0.0211 0.20103,0.0423 0.0845,0.0212 0.16571,0.0415 0.0812,0.0203 0.18461,0.0432 0.10341,0.023 0.22409,0.0491 0.12069,0.0261 0.28416,0.0695 0.16347,0.0434 0.26118,0.07 0.0977,0.0266 0.14432,0.0358 0.0466,0.009 0.11575,0.0228 0.0692,0.0135 0.23124,0.0261 0.16209,0.0125 0.28062,0.0225 0.11853,0.01 0.28975,0.0175 0.17122,0.008 0.27995,0.0111 0.10873,0.004 0.23433,0.008 0.1256,0.004 0.2628,0.006 0.13721,0.002 0.26255,-0.003 0.12534,-0.005 0.26124,-0.0168 0.1359,-0.0117 0.27281,-0.0352 0.13692,-0.0235 0.20771,-0.0482 0.0708,-0.0247 0.0829,-0.10398 0.0121,-0.0793 0.0154,-0.15889 0.003,-0.0796 -0.0107,-0.19963 -0.0141,-0.12001 -0.0881,-0.16218 -0.0741,-0.0422 -0.17935,-0.0817 -0.10528,-0.0395 -0.16458,-0.0615 -0.0593,-0.022 -0.19113,-0.0813 -0.13184,-0.0593 -0.21494,-0.0595 -0.0831,-2e-4 -0.24612,-0.0119 -0.16301,-0.0117 -0.29187,-0.0156 -0.12885,-0.004 -0.251,-0.0109 -0.12217,-0.007 -0.24057,-0.0246 -0.1184,-0.0176 -0.27619,-0.0515 -0.15778,-0.0338 -0.25847,-0.0589 -0.10069,-0.025 -0.15302,-0.0348 -0.0523,-0.01 -0.17865,-0.0304 -0.12632,-0.0207 -0.267,-0.048 -0.14068,-0.0273 -0.22638,-0.0447 -0.0857,-0.0173 -0.20077,-0.0577 -0.11506,-0.0404 -0.17026,-0.0632 -0.0552,-0.0228 -0.19071,-0.0574 -0.1355,-0.0346 -0.23968,-0.0501 -0.10417,-0.0155 -0.21755,-0.034 -0.11338,-0.0185 -0.28487,-0.0497 -0.17149,-0.0312 -0.24015,-0.0441 -0.0687,-0.0128 -0.14188,-0.0206 -0.0732,-0.008 -0.15522,-10e-4 -0.082,0.007 -0.20217,0.0286 -0.12017,0.0219 -0.17549,0.0585 -0.0553,0.0367 -0.12685,0.0928 -0.0715,0.0561 -0.14534,0.12062 -0.0738,0.0645 -0.12367,0.10568 -0.0498,0.0412 -0.11658,0.12878 -0.0667,0.0876 -0.0988,0.15538 -0.032,0.0678 -0.0546,0.17673 -0.0226,0.10896 -0.0366,0.21212 -0.014,0.10316 -0.033,0.22879 -0.0189,0.12563 -0.0328,0.29287 -0.0139,0.16724 -0.0213,0.26082 -0.007,0.0936 -0.0108,0.26265 -0.0034,0.16908 -0.0044,0.28118 -9.81e-4,0.1121 -9.81e-4,0.24453 0,0.13243 0,0.26486 0,0.13243 0,0.26485 0,0.13243 0.0067,0.24862 0.007,0.11618 0.0214,0.23705 0.0147,0.12087 0.0367,0.27534 0.022,0.15447 0.0433,0.23944 0.0212,0.085 0.0599,0.19176 0.0387,0.10679 0.0659,0.18417 0.0272,0.0774 0.10052,0.16842 0.0733,0.091 0.12259,0.13626 0.0493,0.0452 0.12549,0.10554 0.0762,0.0603 0.14299,0.0681 0.0668,0.008 0.20946,0.0148"
         id="path156787" />
      <path
         style="fill:#000000;fill-opacity:1;stroke-width:0.999999"
         d="m 20.314338,27.354322 q 0.08412,-0.0228 0.197141,-0.0516 0.113022,-0.0288 0.236323,-0.0413 0.123301,-0.0125 0.232924,-0.0248 0.109622,-0.0124 0.23998,-0.0213 0.130358,-0.009 0.271107,-0.0137 0.14075,-0.005 0.277586,-0.008 0.136837,-0.003 0.269265,-0.003 0.132428,0 0.264856,0 0.132429,0 0.264857,0 0.132428,0 0.264856,0 0.132428,0 0.264856,0 0.132428,0 0.264856,0 0.132428,0 0.264856,0 0.132428,0 0.264856,0 0.132428,0 0.264856,0 0.132428,0 0.264856,0 0.132429,0 0.264857,0 0.132428,0 0.264856,0 0.132428,0 0.264856,0 0.132428,0 0.264856,0 0.132428,0 0.264856,0 0.132428,0 0.264856,0 0.132428,0 0.264856,0 0.132428,0 0.264857,0 0.132428,0 0.264856,0 0.132428,0 0.264856,0 0.132428,0 0.264856,0 0.132428,0 0.264856,0 0.132428,0 0.282656,0.008 0.150227,0.008 0.277507,0.0147 0.12728,0.007 0.209602,0.0243 0.08232,0.0173 0.188526,0.0399 0.106206,0.0226 0.2272,0.0496 0.120995,0.027 0.215461,0.0593 0.09447,0.0323 0.213129,0.0677 0.118664,0.0354 0.185107,0.0684 0.06644,0.033 0.159418,0.0679 0.09297,0.0349 0.219138,0.0967 0.126168,0.0618 0.215868,0.097 0.0897,0.0352 0.12748,0.0506 0.0378,0.0154 0.1602,0.0617 0.12243,0.0463 0.27452,0.10346 0.15209,0.0572 0.22669,0.087 0.0746,0.0299 0.15162,0.0581 0.077,0.0282 0.1694,0.069 0.0924,0.0408 0.16558,0.0754 0.0732,0.0346 0.14894,0.072 0.0757,0.0374 0.17037,0.0849 0.0946,0.0475 0.19214,0.0964 0.0975,0.0489 0.18895,0.1021 0.0914,0.0532 0.18464,0.10549 0.0932,0.0523 0.15888,0.0846 0.0657,0.0323 0.16965,0.0857 0.10398,0.0534 0.17538,0.0875 0.0714,0.0342 0.16798,0.0851 0.0966,0.0509 0.20194,0.1 0.10536,0.0491 0.18132,0.0864 0.076,0.0373 0.15806,0.0926 0.0821,0.0554 0.17049,0.11092 0.0884,0.0555 0.15225,0.10164 0.0639,0.0461 0.15291,0.10272 0.089,0.0566 0.1737,0.11038 0.0847,0.0538 0.15535,0.10209 0.0707,0.0483 0.15816,0.11186 0.0875,0.0635 0.14485,0.11042 0.0574,0.0469 0.10637,0.0895 0.049,0.0427 0.14245,0.13321 0.0935,0.0905 0.15966,0.15676 0.0662,0.0662 0.13243,0.13243 0.0662,0.0662 0.13243,0.13243 0.0662,0.0662 0.13243,0.13243 0.0662,0.0662 0.13242,0.13243 0.0662,0.0662 0.13243,0.13242 0.0662,0.0662 0.13243,0.13243 0.0662,0.0662 0.13243,0.13243 0.0662,0.0662 0.13243,0.13243 0.0662,0.0662 0.13242,0.13243 0.0662,0.0662 0.1048,0.12211 0.0386,0.0559 0.1155,0.15583 0.0769,0.0999 0.11617,0.16494 0.0393,0.065 0.101,0.17723 0.0617,0.11222 0.0864,0.1565 0.0246,0.0443 0.0815,0.16354 0.0568,0.11927 0.10227,0.21259 0.0455,0.0933 0.0824,0.16904 0.0369,0.0757 0.0952,0.18517 0.0583,0.10944 0.10244,0.19083 0.0441,0.0814 0.0959,0.18417 0.0518,0.1028 0.0866,0.17832 0.0348,0.0755 0.0702,0.15787 0.0354,0.0823 0.0684,0.15277 0.033,0.0704 0.0712,0.17245 0.0382,0.102 0.0892,0.24351 0.0511,0.14151 0.0736,0.21379 0.0225,0.0723 0.04,0.14897 0.0174,0.0767 0.0299,0.18445 0.0125,0.10776 0.0275,0.24173 0.015,0.13397 0.0185,0.17895 0.004,0.045 -0.047,0.0518 -0.0504,0.007 -0.13695,-0.0128 -0.0865,-0.0196 -0.17362,-0.0404 -0.0871,-0.0208 -0.2255,-0.0661 -0.1384,-0.0453 -0.2544,-0.0797 -0.116,-0.0345 -0.17144,-0.0509 -0.0554,-0.0164 -0.16917,-0.0537 -0.11373,-0.0373 -0.23772,-0.0732 -0.12399,-0.0359 -0.18636,-0.0549 -0.0624,-0.019 -0.16389,-0.0427 -0.10152,-0.0237 -0.19199,-0.0413 -0.0905,-0.0175 -0.23453,-0.0424 -0.14408,-0.0249 -0.28314,-0.05 -0.13905,-0.0251 -0.24871,-0.0516 -0.10965,-0.0265 -0.20465,-0.0513 -0.095,-0.0248 -0.16429,-0.0441 -0.0693,-0.0194 -0.15982,-0.0372 -0.0905,-0.0179 -0.22834,-0.0427 -0.13781,-0.0248 -0.26972,-0.0693 -0.13191,-0.0444 -0.22476,-0.0789 -0.0929,-0.0345 -0.19629,-0.0572 -0.10342,-0.0227 -0.179,-0.036 -0.0756,-0.0133 -0.22781,-0.0393 -0.15224,-0.026 -0.28648,-0.0446 -0.13425,-0.0186 -0.2333,-0.0373 -0.099,-0.0187 -0.21088,-0.0456 -0.11182,-0.0269 -0.19337,-0.0445 -0.0816,-0.0176 -0.16137,-0.0369 -0.0798,-0.0194 -0.24581,-0.035 -0.16599,-0.0156 -0.28191,-0.0293 -0.11593,-0.0137 -0.2406,-0.0347 -0.12468,-0.0211 -0.25238,-0.0453 -0.1277,-0.0243 -0.21693,-0.0446 -0.0892,-0.0203 -0.15732,-0.0373 -0.0681,-0.0169 -0.19323,-0.0379 -0.12515,-0.0209 -0.27272,-0.0395 -0.14756,-0.0186 -0.26499,-0.031 -0.117422,-0.0123 -0.223905,-0.0223 -0.106483,-0.01 -0.271232,-0.0414 -0.164749,-0.0313 -0.255387,-0.0594 -0.09064,-0.0281 -0.148777,-0.0455 -0.05814,-0.0174 -0.133985,-0.0259 -0.07585,-0.008 -0.200883,-0.0256 -0.125037,-0.0172 -0.309711,-0.0373 -0.184674,-0.0201 -0.274793,-0.0402 -0.09012,-0.0201 -0.272791,-0.0649 -0.182672,-0.0447 -0.242438,-0.0569 -0.05976,-0.0121 -0.13414,-0.0276 -0.07437,-0.0155 -0.157456,-0.0279 -0.08308,-0.0124 -0.251279,-0.0324 -0.168198,-0.0201 -0.305766,-0.0351 -0.137568,-0.0151 -0.268991,-0.0452 -0.131422,-0.0301 -0.18517,-0.0434 -0.05375,-0.0132 -0.139487,-0.0287 -0.08574,-0.0155 -0.167417,-0.0357 -0.08168,-0.0203 -0.210751,-0.0412 -0.129074,-0.021 -0.279994,-0.0442 -0.150919,-0.0233 -0.259782,-0.0447 -0.108863,-0.0214 -0.268789,-0.0527 -0.159927,-0.0313 -0.283116,-0.0617 -0.123189,-0.0304 -0.177556,-0.0407 -0.05437,-0.0104 -0.171206,-0.0297 -0.116839,-0.0194 -0.236755,-0.0283 -0.119915,-0.009 -0.243273,-0.0171 -0.123358,-0.008 -0.260819,-0.0149 -0.137461,-0.007 -0.277557,-0.0102 -0.140096,-0.003 -0.254404,-0.006 -0.114308,-0.003 -0.281393,-0.0239 -0.167084,-0.0209 -0.276595,-0.0418 -0.109512,-0.0208 -0.188608,-0.0392 -0.0791,-0.0183 -0.182181,-0.0413 -0.103085,-0.0229 -0.143926,-0.0321 -0.04084,-0.009 -0.201964,-0.0243 -0.161123,-0.0151 -0.277097,-0.0252 -0.115975,-0.0101 -0.295008,-0.0179 -0.179033,-0.008 -0.281024,-0.0139 -0.101997,-0.006 -0.234425,-0.006 -0.132428,0 -0.263541,9.5e-4 -0.131114,9.6e-4 -0.259968,0.0195 -0.128854,0.0185 -0.27822,0.0348 -0.149365,0.0162 -0.241439,0.0469 -0.09207,0.0306 -0.156706,0.0782 -0.06463,0.0477 -0.119976,0.10056 -0.05534,0.0529 -0.116046,0.11421 -0.0607,0.0613 -0.122441,0.14791 -0.06174,0.0866 -0.120421,0.18596 -0.05868,0.0993 -0.09803,0.16668 -0.03935,0.0673 -0.07652,0.14066 -0.03717,0.0733 -0.117002,0.21509 -0.07983,0.14178 -0.114778,0.20908 -0.03495,0.0673 -0.06837,0.11608 -0.03342,0.0488 -0.07502,0.11726 -0.0416,0.0685 -0.09197,0.18247 -0.05037,0.11396 -0.081,0.1906 -0.03062,0.0766 -0.08771,0.21285 -0.05709,0.13621 -0.09733,0.22018 -0.04024,0.084 -0.06722,0.14495 -0.02697,0.061 -0.05923,0.17068 -0.03226,0.10971 -0.07386,0.25506 -0.0416,0.14535 -0.06467,0.21752 -0.02307,0.0722 -0.06567,0.18571 -0.04259,0.11354 -0.05242,0.16941 -0.0098,0.0559 -0.02534,0.19439 -0.01551,0.13852 -0.02002,0.26663 -0.0045,0.12812 -0.01301,0.25871 -0.0085,0.1306 -0.01052,0.28267 -0.002,0.15206 -0.0037,0.28066 -0.0017,0.12859 -0.0022,0.23332 -5.3e-4,0.10472 -10e-4,0.25353 -4.77e-4,0.14881 -4.77e-4,0.28124 0,0.13243 0,0.26486 0,0.13242 0,0.26485 0,0.13243 0,0.26486 0,0.13242 0,0.26485 0,0.13243 0.01564,0.2452 0.01564,0.11276 0.03679,0.24449 0.02115,0.13172 0.06025,0.24225 0.03909,0.11054 0.07399,0.20291 0.0349,0.0924 0.06276,0.16052 0.02786,0.0681 0.07843,0.17143 0.05057,0.10329 0.07838,0.16529 0.02781,0.062 0.09181,0.19397 0.064,0.13197 0.108337,0.20896 0.04434,0.077 0.105613,0.15377 0.06128,0.0768 0.111918,0.13653 0.05064,0.0598 0.141108,0.15581 0.09047,0.0961 0.125548,0.13243 0.03508,0.0364 0.101294,0.10258 0.06621,0.0662 0.132428,0.13242 0.06621,0.0662 0.146798,0.14172 0.08058,0.0755 0.118389,0.10901 0.03781,0.0335 0.142957,0.11725 0.105154,0.0837 0.192829,0.1457 0.08768,0.062 0.126429,0.0908 0.03875,0.0289 0.16699,0.1247 0.128239,0.0959 0.179463,0.12802 0.05123,0.0322 0.148485,0.0847 0.09726,0.0525 0.140977,0.0648 0.04372,0.0123 0.163496,0.0532 0.11978,0.0409 0.240007,0.0766 0.120228,0.0358 0.224668,0.0666 0.10444,0.0309 0.215806,0.0674 0.111366,0.0365 0.185288,0.0514 0.07392,0.0149 0.160852,0.033 0.08693,0.0181 0.231089,0.0334 0.144159,0.0153 0.29274,0.0261 0.148581,0.0108 0.273856,0.0135 0.125275,0.003 0.227879,0.008 0.102605,0.006 0.248224,0.013 0.14562,0.007 0.278048,0.007 0.132428,0 0.264856,0 0.132428,0 0.281069,-0.004 0.148641,-0.004 0.296969,-0.0113 0.148328,-0.007 0.228606,-0.0293 0.08028,-0.0218 0.211867,-0.0615 0.131588,-0.0398 0.201708,-0.0613 0.07012,-0.0215 0.140208,-0.0448 0.07009,-0.0232 0.209022,-0.0707 0.138936,-0.0475 0.222263,-0.0742 0.08333,-0.0267 0.215721,-0.07 0.132393,-0.0433 0.175086,-0.0552 0.04269,-0.0119 0.179791,-0.0542 0.137098,-0.0422 0.237656,-0.0752 0.100558,-0.033 0.168554,-0.0603 0.068,-0.0273 0.171096,-0.0732 0.1031,-0.0459 0.235528,-0.11063 0.132428,-0.0647 0.170774,-0.0861 0.03835,-0.0213 0.170475,-0.097 0.132128,-0.0757 0.188197,-0.11413 0.05607,-0.0384 0.111906,-0.0818 0.05584,-0.0434 0.129866,-0.11121 0.07403,-0.0678 0.162299,-0.14166 0.08827,-0.0738 0.142353,-0.1184 0.05409,-0.0446 0.103728,-0.0569 0.04964,-0.0123 0.132408,0.004 0.08277,0.0161 0.09074,0.0311 0.008,0.0149 0.06662,0.15108 0.05865,0.13613 0.08499,0.20312 0.02635,0.067 0.07935,0.15859 0.053,0.0916 0.105713,0.17854 0.05271,0.0869 0.08235,0.1364 0.02964,0.0495 0.10911,0.18033 0.07947,0.13086 0.117477,0.1818 0.03801,0.0509 0.09202,0.12484 0.05402,0.0739 0.107811,0.1381 0.05379,0.0642 0.124964,0.12915 0.07117,0.0649 0.140657,0.11702 0.06949,0.0521 0.165395,0.1216 0.09591,0.0695 0.175144,0.12178 0.07923,0.0523 0.161139,0.11846 0.0819,0.0662 0.170361,0.1415 0.08845,0.0753 0.131483,0.11184 0.043,0.0366 0.0996,0.0838 0.0566,0.0473 0.12883,0.099 0.0723,0.0517 0.20722,0.13109 0.13496,0.0794 0.20817,0.12277 0.0732,0.0434 0.15725,0.0842 0.084,0.0408 0.15584,0.0709 0.0718,0.0301 0.17439,0.0814 0.10258,0.0513 0.18587,0.077 0.0833,0.0257 0.17468,0.055 0.0914,0.0293 0.23191,0.0675 0.14053,0.0382 0.23344,0.065 0.0929,0.0268 0.2087,0.0567 0.11577,0.0299 0.20126,0.0502 0.0855,0.0203 0.18917,0.0369 0.10369,0.0165 0.24263,0.0308 0.13894,0.0143 0.24524,0.0303 0.1063,0.016 0.23503,0.0181 0.12873,0.002 0.27699,0.005 0.14826,0.002 0.28069,0.002 0.13243,0 0.26486,0 0.13242,0 0.26485,0 0.13243,0 0.26486,0 0.13243,0 0.26485,0 0.13243,0 0.26486,0 0.13243,0 0.26486,0 0.13242,0 0.26485,0 0.13243,0 0.26439,-0.009 0.13195,-0.009 0.27811,-0.0218 0.14616,-0.0131 0.23249,-0.0269 0.0863,-0.0138 0.21961,-0.0479 0.13327,-0.0341 0.18397,-0.0554 0.0507,-0.0213 0.15023,-0.0737 0.0995,-0.0525 0.19214,-0.0966 0.0926,-0.0441 0.14678,-0.0911 0.0542,-0.0469 0.1332,-0.11068 0.079,-0.0637 0.15483,-0.12827 0.0758,-0.0645 0.13859,-0.12593 0.0628,-0.0614 0.13695,-0.14395 0.0742,-0.0825 0.12334,-0.17095 0.0492,-0.0884 0.10226,-0.16913 0.0531,-0.0807 0.10766,-0.15082 0.0546,-0.0701 0.11704,-0.15758 0.0625,-0.0875 0.0862,-0.12897 0.0238,-0.0415 0.0799,-0.12577 0.0562,-0.0843 0.11217,-0.16364 0.056,-0.0794 0.14014,-0.18438 0.0841,-0.10502 0.15971,-0.18629 0.0756,-0.0813 0.0935,-0.0943 0.018,-0.013 0.0704,-0.027 0.0524,-0.0139 0.0668,0.0836 0.0144,0.0975 0.0221,0.22735 0.008,0.12981 0.0225,0.25118 0.0148,0.12137 0.0266,0.2211 0.0118,0.0997 0.0128,0.24093 0.001,0.14121 0.001,0.27364 0,0.13243 0,0.26486 0,0.13243 0,0.26485 0,0.13243 0,0.26486 0,0.13243 0,0.26486 0,0.13242 0,0.26485 0,0.13243 0,0.26486 0,0.13243 0,0.26485 0,0.13243 0,0.26486 0,0.13243 -0.006,0.25408 -0.006,0.12164 -0.013,0.27824 -0.007,0.15659 -0.0229,0.25179 -0.0156,0.0952 -0.0488,0.21634 -0.0332,0.12113 -0.0663,0.24357 -0.0331,0.12244 -0.0569,0.18972 -0.0238,0.0673 -0.0638,0.18068 -0.0401,0.1134 -0.0716,0.20042 -0.0315,0.087 -0.057,0.1695 -0.0255,0.0825 -0.0573,0.18051 -0.0318,0.098 -0.0748,0.22593 -0.043,0.1279 -0.0711,0.21539 -0.028,0.0875 -0.043,0.16801 -0.0149,0.0805 -0.0332,0.17077 -0.0183,0.0902 -0.0405,0.24046 -0.0223,0.15022 -0.0455,0.27018 l -0.0232,0.11997 h -0.13239 -0.13243 -0.13242 -0.13243 -0.13243 -0.13243 -0.13243 -0.13242 -0.13243 -0.13243 -0.13243 -0.13242 -0.13243 -0.13243 -0.13243 -0.13243 -0.13243 -0.13242 -0.13243 -0.13243 -0.13243 -0.13243 -0.13242 -0.13243 -0.13243 -0.13243 -0.13243 -0.13243 -0.13242 -0.13243 -0.13243 -0.13243 -0.13242 -0.13243 -0.13243 -0.13243 -0.13243 -0.13243 -0.13242 -0.13243 -0.13243 -0.13243 -0.13243 -0.13242 -0.13243 -0.13243 -0.13243 -0.13243 -0.13242 -0.13243 -0.13243 -0.13243 -0.13243 -0.13242 -0.13243 -0.13243 -0.13243 -0.13243 -0.13243 -0.13242 -0.13243 -0.13243 -0.13243 H 29.85192 29.719492 29.587064 29.454636 29.322208 29.18978 29.057352 28.924924 28.792496 28.660068 28.527639 28.395211 28.262783 28.130355 27.997927 27.865499 27.733071 27.600643 27.468215 27.335787 27.203359 27.070931 26.938503 26.806075 26.673647 26.541219 26.40879 26.276362 26.143934 26.011506 25.879078 25.74665 25.614222 25.481794 25.349366 25.216938 25.08451 24.952082 24.819654 24.687226 24.554798 24.422369 24.289941 24.157513 24.025085 23.892657 23.760229 23.627801 23.495373 23.362945 23.230517 23.098089 22.965661 22.833233 22.700805 22.568377 22.435949 22.30352 22.171092 22.038664 21.906236 21.773808 21.64138 21.508952 21.376524 21.244096 21.111668 20.97924 20.846812 20.714384 20.581956 20.449528 20.317099 20.184671 20.052243 19.919815 19.787387 19.654959 19.522531 19.390103 19.257675 19.125247 18.992819 18.860391 18.727963 18.595535 18.463107 18.330679 18.19825 18.065822 17.933394 17.800966 17.668538 17.53611 17.403682 17.271254 17.138826 17.006398 16.87397 16.741542 16.609114 16.476686 16.344258 16.211829 16.079401 15.946973 15.814545 15.682117 15.549689 15.417261 15.284833 15.152405 15.019977 14.887549 14.755121 14.622693 14.490265 14.357837 14.225408 14.09298 13.960552 13.828124 13.695696 13.563268 13.43084 13.298412 13.165984 13.033556 12.901128 12.7687 12.636272 12.503844 12.371416 12.238988 12.106559 11.974131 11.841703 11.709275 11.576847 11.444419 11.311991 11.179563 11.047135 10.914707 10.782279 10.649851 10.517423 10.384995 10.252567 10.120138 9.98771 9.855282 9.722854 l -0.0371,-0.0857 q -0.0371,-0.0857 -0.07681,-0.16907 -0.03972,-0.0834 -0.08217,-0.18123 -0.04246,-0.0978 -0.08872,-0.19511 -0.04626,-0.0973 -0.07283,-0.14934 -0.02657,-0.0521 -0.08355,-0.14881 -0.05698,-0.0967 -0.126017,-0.23731 -0.06904,-0.14057 -0.08949,-0.19267 -0.02045,-0.0521 -0.03937,-0.14601 -0.01893,-0.0939 -0.03626,-0.19759 -0.01734,-0.10369 -0.03979,-0.25986 -0.02245,-0.15618 -0.048,-0.28744 -0.02555,-0.13126 -0.05208,-0.24005 -0.02654,-0.10879 -0.03181,-0.14007 -0.0053,-0.0313 -0.04424,-0.16551 -0.03897,-0.13421 -0.06557,-0.25775 -0.02661,-0.12354 -0.05047,-0.25773 -0.02386,-0.13419 -0.05094,-0.27997 -0.02708,-0.14578 -0.04946,-0.22702 -0.02238,-0.0812 -0.03837,-0.13303 -0.016,-0.0518 -0.03616,-0.16848 -0.02017,-0.11668 -0.03888,-0.27066 -0.01872,-0.15398 -0.02173,-0.2615 -0.003,-0.10752 -0.01009,-0.25779 -0.0071,-0.15028 -0.0076,-0.25947 -5.64e-4,-0.1092 -0.0036,-0.25102 -0.0031,-0.14182 -0.0031,-0.27424 0,-0.13243 0,-0.26486 0,-0.13243 0,-0.26486 0,-0.13242 0,-0.26485 0,-0.13243 0,-0.26486 0,-0.13243 0,-0.26485 0,-0.13243 0,-0.26486 0,-0.13243 0,-0.26486 0,-0.13243 0,-0.26485 0,-0.13243 0,-0.26486 0,-0.13243 0,-0.26486 0,-0.13242 0,-0.26485 0,-0.13243 0,-0.26486 0,-0.13243 0.0025,-0.24361 0.0025,-0.11119 0.01802,-0.28879 0.01553,-0.1776 0.03336,-0.26535 0.01784,-0.0877 0.04087,-0.19997 0.02304,-0.11221 0.04314,-0.18266 0.0201,-0.0705 0.04778,-0.16214 0.02768,-0.0917 0.0773,-0.2183 0.04962,-0.1266 0.09473,-0.25851 0.04511,-0.13192 0.06896,-0.19518 0.02385,-0.0633 0.07957,-0.16545 0.05573,-0.1022 0.08511,-0.17023 0.02938,-0.068 0.07241,-0.18112 0.04303,-0.11308 0.0677,-0.1855 0.02467,-0.0724 0.05797,-0.18282 0.0333,-0.1104 0.07883,-0.24683 0.04553,-0.13643 0.05843,-0.17651 0.0129,-0.0401 0.056,-0.16214 0.0431,-0.12206 0.0821,-0.22005 0.039,-0.098 0.07047,-0.18904 0.03148,-0.0911 0.06419,-0.21297 0.03271,-0.12191 0.05322,-0.19867 0.02051,-0.0768 0.07662,-0.21288 0.05611,-0.13612 0.08528,-0.24056 0.02918,-0.10443 0.05988,-0.17264 0.0307,-0.0682 0.06601,-0.14134 0.03531,-0.0731 0.08027,-0.15323 0.04496,-0.0801 0.09452,-0.17326 0.04956,-0.0932 0.09916,-0.19315 0.0496,-0.1 0.09934,-0.17284 0.04974,-0.0729 0.108288,-0.16092 0.05855,-0.0881 0.100218,-0.15381 0.04167,-0.0657 0.08512,-0.1286 0.04345,-0.0629 0.109471,-0.18006 0.06602,-0.1172 0.105109,-0.18971 0.03909,-0.0725 0.06808,-0.13248 0.029,-0.06 0.08384,-0.16951 0.05485,-0.10955 0.103661,-0.20572 0.04881,-0.0962 0.101013,-0.1874 0.0522,-0.0912 0.09427,-0.16121 0.04207,-0.07 0.08422,-0.14114 0.04214,-0.0711 0.112248,-0.16722 0.07011,-0.0961 0.116022,-0.15456 0.04592,-0.0585 0.12549,-0.15577 0.07957,-0.0973 0.149701,-0.168 0.07013,-0.0707 0.125693,-0.12901 0.05557,-0.0583 0.12178,-0.12453 0.06621,-0.0662 0.122606,-0.13075 0.05639,-0.0645 0.104898,-0.14281 0.04851,-0.0783 0.113969,-0.16981 0.06546,-0.0915 0.12139,-0.165 0.05593,-0.0735 0.09167,-0.12058 0.03574,-0.0471 0.116848,-0.14994 0.08111,-0.10281 0.148273,-0.17873 0.06717,-0.0759 0.132638,-0.14415 0.06547,-0.0682 0.119411,-0.12847 0.05394,-0.0602 0.120151,-0.12647 0.06621,-0.0662 0.132428,-0.13243 0.06621,-0.0662 0.132428,-0.13243 0.06621,-0.0662 0.132428,-0.13243 0.06621,-0.0662 0.132428,-0.13242 0.06621,-0.0662 0.132428,-0.13243 0.06621,-0.0662 0.132428,-0.13243 0.06621,-0.0662 0.132428,-0.13243 0.06621,-0.0662 0.132429,-0.13243 0.06621,-0.0662 0.132428,-0.13242 0.06621,-0.0662 0.132428,-0.13243 0.06621,-0.0662 0.143664,-0.12934 0.07745,-0.0631 0.148161,-0.12174 0.07071,-0.0586 0.130179,-0.098 0.05947,-0.0394 0.121938,-0.0847 0.06247,-0.0453 0.16961,-0.12216 0.10714,-0.0769 0.189599,-0.1438 0.08246,-0.0669 0.129631,-0.0894 0.04717,-0.0225 0.175452,-0.0872 0.12828,-0.0647 0.195455,-0.0992 0.06717,-0.0346 0.177874,-0.0724 0.1107,-0.0379 0.252683,-0.0921 0.141983,-0.0542 0.195666,-0.0762 0.05368,-0.022 0.146439,-0.069 0.09276,-0.0469 0.191334,-0.0931 0.09858,-0.0461 0.161204,-0.0671 0.06263,-0.021 0.150316,-0.0554 0.08769,-0.0344 0.205019,-0.0707 0.117328,-0.0363 0.235354,-0.0816 0.118026,-0.0453 0.172743,-0.0653 0.05472,-0.02 0.139537,-0.039 0.08482,-0.019 0.275939,-0.0683 0.191119,-0.0493 0.309051,-0.0745 0.117933,-0.0252 0.189281,-0.0479 0.07135,-0.0227 0.129409,-0.0343 0.05806,-0.0117 0.16079,-0.0336 0.102728,-0.022 0.262302,-0.0448 0.159575,-0.0228 0.28282,-0.0404 0.123244,-0.0176 0.246522,-0.0334 0.123278,-0.0158 0.221416,-0.0393 0.09814,-0.0235 0.182257,-0.0463"
         id="path156785" />
    </g>
    <path
       id="rect19240"
       style="display:inline;fill:#000000;stroke-width:0.5;stroke-linejoin:round;stroke-opacity:0.909449"
       d="m -196.88781,128.58347 v 1.19059 c 0,8.06185 -6.49023,14.55208 -14.55208,14.55208 h -23.8125 c -8.06185,0 -14.55208,-6.49023 -14.55208,-14.55208 v -1.19059 z"
       sodipodi:nodetypes="csssscc"
       inkscape:label="Bottom-label" />
    <g
       aria-label="IRONY"
       transform="matrix(0.31196577,0,0,0.31196577,-180.98741,60.64924)"
       id="text1575"
       style="font-size:40px;line-height:1.25;white-space:pre;shape-inside:url(#rect1577);fill:#0000ff">
      <path
         d="m -191.62,255.99321 v -26 h 6.88 v 26 z"
         style="font-weight:900;font-family:'Source Sans Pro';-inkscape-font-specification:'Source Sans Pro Heavy';fill:#fdfd00;fill-opacity:1"
         id="path11371" />
      <path
         d="m -178.98,255.99321 v -26 h 9.84 q 2.08,0 3.96,0.4 1.92,0.4 3.32,1.36 1.44,0.96 2.28,2.6 0.84,1.6 0.84,4.04 0,2.8 -1.16,4.64 -1.12,1.84 -3.04,2.88 l 5.64,10.08 h -7.68 l -4.48,-8.72 h -2.64 v 8.72 z m 6.88,-14.16 h 2.48 q 4.16,0 4.16,-3.44 0,-1.68 -1.08,-2.32 -1.04,-0.64 -3.08,-0.64 h -2.48 z"
         style="font-weight:900;font-family:'Source Sans Pro';-inkscape-font-specification:'Source Sans Pro Heavy';fill:#fdfd00;fill-opacity:1"
         id="path11373" />
      <path
         d="m -142.82003,256.47321 q -2.72,0 -4.96,-0.92 -2.2,-0.92 -3.8,-2.64 -1.56,-1.76 -2.44,-4.28 -0.88,-2.56 -0.88,-5.76 0,-3.2 0.88,-5.68 0.88,-2.52 2.44,-4.2 1.6,-1.72 3.8,-2.6 2.24,-0.88 4.96,-0.88 2.68,0 4.92,0.88 2.24,0.88 3.8,2.6 1.6,1.72 2.48,4.2 0.88,2.48 0.88,5.68 0,3.2 -0.88,5.76 -0.88,2.52 -2.48,4.28 -1.56,1.72 -3.8,2.64 -2.24,0.92 -4.92,0.92 z m 0,-5.92 q 2.36,0 3.68,-2.04 1.36,-2.08 1.36,-5.64 0,-3.56 -1.36,-5.48 -1.32,-1.96 -3.68,-1.96 -2.36,0 -3.72,1.96 -1.32,1.92 -1.32,5.48 0,3.56 1.32,5.64 1.36,2.04 3.72,2.04 z"
         style="font-weight:900;font-family:'Source Sans Pro';-inkscape-font-specification:'Source Sans Pro Heavy';fill:#fdfd00;fill-opacity:1"
         id="path11375" />
      <path
         d="m -126.10006,255.99321 v -26 h 7.04 l 5.76,11.6 2.48,5.84 h 0.16 q -0.12,-1.04 -0.28,-2.28 -0.16,-1.24 -0.28,-2.52 -0.12,-1.32 -0.24,-2.6 -0.08,-1.32 -0.08,-2.52 v -7.52 h 6.56 v 26 h -7.04 l -5.76,-11.64 -2.48,-5.8 h -0.16 q 0.24,2.24 0.56,4.88 0.32,2.64 0.32,5.04 v 7.52 z"
         style="font-weight:900;font-family:'Source Sans Pro';-inkscape-font-specification:'Source Sans Pro Heavy'"
         id="path11377" />
      <path
         d="m -94.660098,255.99321 v -8.96 l -7.840002,-17.04 h 7.360002 l 1.92,5.44 q 0.48,1.48 0.96,2.88 0.48,1.4 1,2.92 h 0.16 q 0.52,-1.52 1,-2.92 0.52,-1.4 1.04,-2.88 l 1.92,-5.44 h 7.2 l -7.84,17.04 v 8.96 z"
         style="font-weight:900;font-family:'Source Sans Pro';-inkscape-font-specification:'Source Sans Pro Heavy'"
         id="path11379" />
    </g>
  </g>
</svg>
