<svg width="200" height="200" viewBox="0 0 52.917 52.917" xmlns="http://www.w3.org/2000/svg"><defs><path id="a" d="M-194.5 219.5H78V304h-272.5z"/></defs><g transform="translate(249.804 -91.41)"><rect y="91.409" x="-249.804" height="52.917" width="52.917" style="display:inline;fill:#000;fill-opacity:1;fill-rule:nonzero;stroke:none;stroke-width:.5;stroke-linecap:butt;stroke-linejoin:round;stroke-miterlimit:4;stroke-dasharray:none;stroke-dashoffset:0;stroke-opacity:.909449;paint-order:normal" rx="14.552" ry="14.552"/><path style="display:inline;fill:#00f;fill-opacity:1;stroke-width:.450003;stroke-linejoin:round;stroke-opacity:.909449" d="M-203.361 97.883a13.056 13.056 0 0 1 3.828 9.27v21.43h-47.626z"/><path style="display:inline;fill:#fdfd00;fill-opacity:1;stroke-width:.450003;stroke-linejoin:round;stroke-opacity:.909449" d="M-234.062 94.055h21.432c3.627 0 6.902 1.46 9.269 3.828l-43.798 30.7v-21.43a13.068 13.068 0 0 1 13.097-13.098z"/><g style="display:inline;fill:#000;fill-opacity:1"><path style="fill:#000;fill-opacity:1;stroke-width:1.18217" d="M-227.4 110.785c.994-.48 2.087.04 3.13.047.692.007 1.377.072 2.042.27.893.02 1.732.378 2.621.392 1.217.084 2.374.583 3.597.634.952.214 1.928.278 2.873.523 1.309.076 2.55.512 3.822.793.998.297 2.046.462 2.972.971.628.233 1.393.56 1.384 1.356a11.887 11.887 0 0 1-1.146 4.106c-.354.958-.964 1.81-1.587 2.608-.742.742-1.846.554-2.8.594-.892.024-1.787 0-2.651-.253-1.064-.114-1.815-.917-2.636-1.508-.75-.73-1.129-1.722-1.382-2.713-.18-.767-1.027-.817-1.402-.18-.562.588-1.145 1.169-1.915 1.477-.777.47-1.66.679-2.526.918-1.272.153-2.613.086-3.778-.483-.69-.536-1.355-1.155-1.849-1.88-.445-1.18-.395-2.472-.35-3.713.146-.976.534-1.9.851-2.829.218-.391.516-.734.731-1.129m.452 6.826c.693-.255.314-1.295.48-1.892.074-.711.232-1.791 1.06-1.966.982-.15 1.943.08 2.908.212.9.025 1.817.514 2.706.172.209-.736-.686-1.037-1.213-1.27-.786-.154-1.6-.09-2.376-.31-1.04-.098-2.174-.311-3.152.17-1 .617-1.183 1.926-1.213 3 .03.63-.186 1.96.8 1.884zm12.192 2.51c.593-.113.345-.96.262-1.408-.137-.981-.2-2.004.032-2.974.742-.317 1.567.077 2.322.218 1.025.267 2.11.246 3.158.19 1.155-.095.161-1.346-.602-1.16-.996-.005-1.974-.223-2.938-.455-.824-.183-1.872-.687-2.622-.096-.717.433-.618 1.334-.705 2.052.016 1.083-.17 2.27.382 3.25.172.224.41.422.711.385"/><path style="fill:#000;fill-opacity:1;stroke-width:.999999" d="M20.314 27.354c1.754-.288 3.547-.116 5.32-.163 1.518.016 3.116-.16 4.488.644 1.573.603 3.112 1.361 4.46 2.377.907.901 1.938 1.741 2.38 2.988.548.835 1.443 3.09-.405 1.996-1.572-.377-3.138-.78-4.733-1.056-2.579-.395-5.142-.87-7.711-1.338-1.533.053-3.096-.643-4.598-.133-.907.94-1.39 2.229-1.77 3.463-.065 1.273-.18 2.58.036 3.842.404 1.336 1.493 2.409 2.739 2.977 1.224.448 2.588.49 3.862.29 1.174-.37 2.424-.679 3.336-1.557.675.696 1.18 1.929 2.237 2.433 1.68 1.288 3.864 1.082 5.856 1.075 1.39.09 2.176-1.162 2.835-2.174.712-.843.41 1.083.476 1.596 0 1.243.085 2.52-.464 3.678-.279.666-.063 1.723-1.07 1.41H9.724c-.663-1.103-.875-2.344-1.115-3.59-.36-1.695-.155-3.447-.21-5.17-.078-1.582.92-2.917 1.253-4.418.399-1.244 1.227-2.284 1.817-3.437.942-1.102 1.801-2.275 2.89-3.248 1.244-1.317 3.048-1.871 4.761-2.281.396-.084.806-.092 1.195-.205" transform="translate(-251.15 70.896) scale(1.18217)"/></g><path style="display:inline;fill:#000;stroke-width:.5;stroke-linejoin:round;stroke-opacity:.909449" d="M-196.888 128.583v1.191a14.52 14.52 0 0 1-14.552 14.552h-23.812a14.52 14.52 0 0 1-14.552-14.552v-1.19z"/><g aria-label="IRONY" transform="translate(-180.987 60.65) scale(.31197)" style="font-size:40px;line-height:1.25;white-space:pre;shape-inside:url(#a);fill:#00f"><path d="M-191.62 255.993v-26h6.88v26zm12.64 0v-26h9.84q2.08 0 3.96.4 1.92.4 3.32 1.36 1.44.96 2.28 2.6.84 1.6.84 4.04 0 2.8-1.16 4.64-1.12 1.84-3.04 2.88l5.64 10.08h-7.68l-4.48-8.72h-2.64v8.72zm6.88-14.16h2.48q4.16 0 4.16-3.44 0-1.68-1.08-2.32-1.04-.64-3.08-.64h-2.48zm29.28 14.64q-2.72 0-4.96-.92-2.2-.92-3.8-2.64-1.56-1.76-2.44-4.28-.88-2.56-.88-5.76 0-3.2.88-5.68.88-2.52 2.44-4.2 1.6-1.72 3.8-2.6 2.24-.88 4.96-.88 2.68 0 4.92.88 2.24.88 3.8 2.6 1.6 1.72 2.48 4.2.88 2.48.88 5.68 0 3.2-.88 5.76-.88 2.52-2.48 4.28-1.56 1.72-3.8 2.64-2.24.92-4.92.92zm0-5.92q2.36 0 3.68-2.04 1.36-2.08 1.36-5.64 0-3.56-1.36-5.48-1.32-1.96-3.68-1.96-2.36 0-3.72 1.96-1.32 1.92-1.32 5.48 0 3.56 1.32 5.64 1.36 2.04 3.72 2.04z" style="font-weight:900;font-family:'Source Sans Pro';-inkscape-font-specification:'Source Sans Pro Heavy';fill:#fdfd00;fill-opacity:1"/><path d="M-126.1 255.993v-26h7.04l5.76 11.6 2.48 5.84h.16q-.12-1.04-.28-2.28-.16-1.24-.28-2.52-.12-1.32-.24-2.6-.08-1.32-.08-2.52v-7.52h6.56v26h-7.04l-5.76-11.64-2.48-5.8h-.16q.24 2.24.56 4.88.32 2.64.32 5.04v7.52zm31.44 0v-8.96l-7.84-17.04h7.36l1.92 5.44q.48 1.48.96 2.88l1 2.92h.16l1-2.92q.52-1.4 1.04-2.88l1.92-5.44h7.2l-7.84 17.04v8.96z" style="font-weight:900;font-family:'Source Sans Pro';-inkscape-font-specification:'Source Sans Pro Heavy'"/></g></g></svg>