<svg width="200" height="200" viewBox="0 0 52.917 52.917" xmlns="http://www.w3.org/2000/svg"><defs><path id="a" d="M-202 96h315.5v84.5H-202z"/></defs><g transform="translate(249.804 -91.41)"><rect y="91.409" x="-249.804" height="52.917" width="52.917" style="display:inline;fill:#000;fill-opacity:1;fill-rule:nonzero;stroke:none;stroke-width:.5;stroke-linecap:butt;stroke-linejoin:round;stroke-miterlimit:4;stroke-dasharray:none;stroke-dashoffset:0;stroke-opacity:.909449;paint-order:normal" rx="14.552" ry="14.552"/><path style="display:inline;fill:#579952;fill-opacity:1;stroke-width:.450003;stroke-linejoin:round;stroke-opacity:.909449" d="M-199.534 124.481v4.102h-47.625v-4.102z"/><path style="display:inline;fill:#2a71e5;fill-opacity:1;stroke-width:.450003;stroke-linejoin:round;stroke-opacity:.909449" d="M-199.534 120.38v4.101h-47.625v-4.102z"/><path style="display:inline;fill:#579952;fill-opacity:1;stroke-width:.450003;stroke-linejoin:round;stroke-opacity:.909449" d="M-199.534 119.207v1.172h-47.625v-1.172z"/><path style="display:inline;fill:#edb509;fill-opacity:1;stroke-width:.450003;stroke-linejoin:round;stroke-opacity:.909449" d="M-200.56 102.045a13.116 13.116 0 0 1 1.026 5.107v12.055h-47.625v-12.055c0-1.814.365-3.54 1.026-5.107z"/><path style="display:inline;fill:#a5393f;fill-opacity:1;stroke-width:.450003;stroke-linejoin:round;stroke-opacity:.909449" d="M-234.062 94.055h21.432c3.627 0 6.902 1.46 9.269 3.828a13.066 13.066 0 0 1 2.801 4.162h-45.573a13.065 13.065 0 0 1 2.802-4.162 13.056 13.056 0 0 1 9.27-3.828z"/><path style="display:inline;fill:#000;stroke-width:.5;stroke-linejoin:round;stroke-opacity:.909449" d="M-196.888 128.583v1.191a14.52 14.52 0 0 1-14.552 14.552h-23.812a14.52 14.52 0 0 1-14.552-14.552v-1.19z"/><path style="fill:#000;stroke-width:.255156" d="M-230.467 131.415c-1.655-.45-3.255-1.204-4.608-2.26-1.113-1.72-1.619-3.765-2.182-5.717-.347-2.13-.1-4.319.159-6.449.044-1.027.686-2.895 1.781-1.4.892.792 1.925 1.945 3.244 1.405 4.439-.958 8.898-1.815 13.353-2.7 1.305.015 2.219-.932 1.938-2.249-.12-.712.064-.92.662-.44 1.726 1.09 2.598 3.063 3.533 4.8 1.07 1.582-1.617 2.42-.756 4.122.101 1.52.634 2.979.743 4.487-.385 1.846-1.627 3.433-3.283 4.322-2.047 1.272-4.34 2.332-6.807 2.247-2.589.083-5.203.162-7.777-.168zm-1.058-8.557c.95-1.708-2.27-2.306-2.513-.657-.242 1.485 1.94 1.816 2.513.657zm16.126-.007c1.088-.695-.043-3.003-1.3-2.26-1.442.781.023 2.875 1.3 2.26zm3.614 2.387c-.56-2.135-.794-4.334-.983-6.527a12.08 12.08 0 0 1 5.127-.463c.91 1.007.314 2.775.566 4.068-.19 1.154.798 3.61-1.253 3.223-1.115-.067-2.462.242-3.457-.301zm-22.5-10.254c-.24-.685-1.988-1.064-1.692-1.477 2.128-.338 4.296-.402 6.409-.869 2.93-.598 5.928-1.059 8.717-2.17 1.367-1.543 2.903.178 3.037 1.693-.316 1.397-2.398 1.075-3.53 1.482-3.788.711-7.578 1.438-11.317 2.376-.675-.011-1.148-.626-1.623-1.035zm-2.497-2.976c-.292-1.397-.96-2.913-.466-4.325 1.231-2.057 3.643-2.974 5.82-3.677 2.432-.655 5.038-1.045 7.532-.531 1.455.281 1.865 1.885 2.57 2.973.754 1.11 1.553 2.889-.428 3.156-3.559 1.126-7.25 1.813-10.93 2.405-1.316.122-2.695.476-3.994.116z"/><g aria-label="JANNYPHOBE" transform="matrix(.17426 0 0 .17426 -209.399 115.632)" style="font-size:40px;line-height:1.25;white-space:pre;shape-inside:url(#a);fill:#2a71e5"><path d="M-192.72 132.973q-3.2 0-5.32-1.2t-3.56-3.72l4.64-3.48q.68 1.28 1.56 1.88.88.6 1.72.6.68 0 1.2-.16.56-.2.92-.68.36-.48.56-1.28.2-.8.2-2.04v-16.4h6.88v16.96q0 1.96-.56 3.68-.52 1.72-1.6 3.04-1.08 1.28-2.76 2.04-1.64.76-3.88.76zM-171.6 119.853l-.44 1.8h4.8l-.44-1.8q-.48-1.88-.96-4.08t-.96-4.16h-.16q-.44 2-.92 4.2-.44 2.16-.92 4.04zm-10 12.64 7.92-26h8.32l7.92 26h-7.28l-1.28-5.52h-7.28l-1.28 5.52zM-154.96 132.493v-26h7.04l5.76 11.6 2.48 5.84h.16q-.12-1.04-.28-2.28-.16-1.24-.28-2.52-.12-1.32-.24-2.6-.08-1.32-.08-2.52v-7.52h6.56v26h-7.04l-5.76-11.64-2.48-5.8h-.16q.24 2.24.56 4.88.32 2.64.32 5.04v7.52zM-128.08 132.493v-26h7.04l5.76 11.6 2.48 5.84h.16q-.12-1.04-.28-2.28-.16-1.24-.28-2.52-.12-1.32-.24-2.6-.08-1.32-.08-2.52v-7.52h6.56v26H-114l-5.76-11.64-2.48-5.8h-.16q.24 2.24.56 4.88.32 2.64.32 5.04v7.52zM-96.64 132.493v-8.96l-7.84-17.04h7.36l1.92 5.44q.48 1.48.96 2.88l1 2.92h.16l1-2.92q.52-1.4 1.04-2.88l1.92-5.44h7.2l-7.84 17.04v8.96zM-79.44 132.493v-26h9.52q2.12 0 4.04.44 1.92.4 3.36 1.44 1.44 1 2.28 2.68.88 1.64.88 4.08 0 2.4-.88 4.12-.84 1.72-2.28 2.84-1.44 1.08-3.32 1.64-1.88.52-3.92.52h-2.8v8.24zm6.88-13.68h2.48q2.04 0 3-.96 1-.96 1-2.72 0-1.76-1.08-2.48t-3.08-.72h-2.32zM-55.12 132.493v-26h6.88v9.68h7.76v-9.68h6.88v26h-6.88v-10.32h-7.76v10.32zM-16.88 132.973q-2.72 0-4.96-.92-2.2-.92-3.8-2.64-1.56-1.76-2.44-4.28-.88-2.56-.88-5.76 0-3.2.88-5.68.88-2.52 2.44-4.2 1.6-1.72 3.8-2.6 2.24-.88 4.96-.88 2.68 0 4.92.88 2.24.88 3.8 2.6 1.6 1.72 2.48 4.2.88 2.48.88 5.68 0 3.2-.88 5.76-.88 2.52-2.48 4.28-1.56 1.72-3.8 2.64-2.24.92-4.92.92zm0-5.92q2.36 0 3.68-2.04 1.36-2.08 1.36-5.64 0-3.56-1.36-5.48-1.32-1.96-3.68-1.96-2.36 0-3.72 1.96-1.32 1.92-1.32 5.48 0 3.56 1.32 5.64 1.36 2.04 3.72 2.04zM-.16 132.493v-26H9.2q2.04 0 3.84.32 1.8.28 3.12 1t2.08 2q.8 1.24.8 3.16 0 .84-.24 1.72-.24.84-.68 1.64-.4.76-1 1.36-.6.6-1.36.88v.16q1.88.56 3.16 2.04 1.32 1.44 1.32 4.04 0 2-.84 3.48-.8 1.44-2.2 2.4-1.36.92-3.24 1.36-1.88.44-3.96.44zm6.88-15.84h2.32q1.68 0 2.48-.72t.8-1.92q0-1.2-.8-1.72t-2.48-.52H6.72zm0 10.56h2.8q4 0 4-2.88 0-1.44-1-2.04-.96-.6-3-.6h-2.8zM24.32 132.493v-26h16.8v5.76H31.2v4.08h8.48v5.76H31.2v4.64h10.32v5.76z" style="font-weight:900;font-family:'Source Sans Pro';-inkscape-font-specification:'Source Sans Pro Heavy'"/></g></g></svg>