<svg width="200" height="200" viewBox="0 0 52.917 52.917" xmlns="http://www.w3.org/2000/svg"><defs><path id="a" d="M-131.875 257.033h294.864v92.985h-294.864z"/></defs><g transform="translate(249.804 -91.41)"><rect y="91.409" x="-249.804" height="52.917" width="52.917" style="display:inline;fill:#000;fill-opacity:1;fill-rule:nonzero;stroke:none;stroke-width:.5;stroke-linecap:butt;stroke-linejoin:round;stroke-miterlimit:4;stroke-dasharray:none;stroke-dashoffset:0;stroke-opacity:.909449;paint-order:normal" rx="14.552" ry="14.552"/><path style="display:inline;fill:#fff;stroke-width:.450003;stroke-linejoin:round;stroke-opacity:.909449" d="M-234.061 94.055h5.357v15.776h29.17v4.647l-29.17.71v13.396h-5.357v-13.396h-13.098v-5.357h13.098z"/><path style="display:inline;fill:#333;stroke-width:1.7008;stroke-linejoin:round;stroke-opacity:.909449" d="M59.502 10C32.079 10 10 32.077 10 59.5v10.127h49.502zm20.246 0v59.627H190V59.5c0-27.423-22.077-49.5-49.5-49.5H79.75ZM190 87.188 79.748 89.873V140.5H190V89.875ZM10 89.873V140.5h49.502V89.873Z" transform="matrix(.26458 0 0 .26458 -249.804 91.41)"/><g style="display:inline;fill:#000;fill-opacity:1;stroke-width:1.26015"><path style="fill:#000;fill-opacity:1;stroke-width:1.26015" d="M127.503 162.024c2.223-.349 4.445.038 6.654.228 1.876.249 3.632 1.101 5.188 2.142 1.602 1.528 3.116 3.21 4.116 5.19.79 1.934 1.815 3.804 2.03 5.924.702 2.424.562 4.989.245 7.453-.044 2.95-1.69 5.95-4.422 7.218-1.864.92-4.017 1.076-6.048 1.369-2.989-.052-5.99.112-8.97-.096-1.748-.384-3.699-.362-5.306-1.08.85-.645 2.141-1.536 1.815-2.759-.329-.936-1.449-1.442-1.748-2.3 1.644-.215 3.317-.013 4.949-.364 1.606.409 1.245-1.35 2.42-1.795-.033-1.024-1.166-1.575-1.763-2.327-.53-.844-2.374-1.873-.685-2.607 1.215-.858 2.602-1.556 3.665-2.577.07-1.111.862-2.375-.566-3.013-.006-.846 1.784-1.174 1.965-2.257.038-1.282-1.848-1.426-2.706-2.07-1.3-.67-2.663-1.278-4.128-1.449a32.801 32.801 0 0 0 1.216-3.388c-.305-1.508 1.068-1.007 2.079-1.442m15.184 21.981c1.283-.029 1.177-3.335-.046-2.07.046 2.066-1.883-.186-2.496.869.032.879 1.8 1.384 2.542 1.202m-1.309-2.854c.712-1.046.378-2.77.06-4.004-.522-1.4-2.32-1.542-3.572-1.902-2.097-.157-4.644.968-5.035 3.245-1.006 1.93 1.823.223 2.707.66 2.067.297 4.001 1.026 5.839 2.001" transform="scale(.79356) rotate(3 470.865 -7507.4)"/><path style="fill:#000;fill-opacity:1;stroke-width:1.26015" d="M119.516 156.222c2.038-.262 4.25-.36 6.069.775 1.48.566 2.496 1.962 3.042 3.378-1.439.67-3.148.844-4.659 1.391-.03 1.058-.499 2.24-.141 3.323-.824.745-1.671 2.298-.083 2.727 2.1.303 3.984 1.322 5.822 2.316-.12 1.06-2.45 1.215-1.691 2.753.654.774.855 2.354-.255 2.833-1.149 1.176-1.682-.686-2.572-1.187-1.714-1.087-4.294-1.044-5.664.605-1.158 1.05-2.242 2.43-1.987 4.099-.74 1.754 1.26 1.483 2.383 1.46 1.683-.07 3.345.194 5.002.409 1.04.136 2.434 1.597 1.08 2.349-1.784 1.208-4.091.344-6.044.847-1.104.881.569 1.963 1.114 2.71 1.262.822-.064 2.049-.9 2.57-1.065.787-2.2-.486-3.255-.586.515 1.815 2.776 2.238 3.73 3.773 1.043 1.439 2.534 3.15 2.046 5.014-1.154-1.493-2.312-3.183-4.161-3.897-1.582-.927-3.604-1.093-4.832-2.6-1.135-1.07-.82-2.733-1.023-4.085-1.535 1.133-3.09 2.785-5.2 2.497-1.85.013-3.754-.342-5.277-1.45-1.852-1.109-3.336-2.739-5.211-3.801-.813-.387-3.757-.197-1.91-1.455 1.253-1.07 3.13-1.77 4.624-.743 1.503 1.119 2.9 2.897 4.996 2.676 1.322.046 3.096.137 3.923-1.032-1.633.01-3.451.139-4.716-1.111-2.507-2.429-2.91-6.075-4.003-9.218-.418-1.658-2.002-2.763-3.701-2.657-1.922-.08-1.005-1.67.407-1.682 1.734-.24 3.647.169 5.036 1.283 1.42 1.365 2.51 3.106 2.925 5.04.506 1.186.378 2.743 1.275 3.7 1.696.502 1.714-1.866 1.94-2.958.297-1.822.552-3.652.492-5.507.23-1.675.357-3.365.856-4.995.76-2.06 1.742-4.113 3.24-5.738 1.683-1.408 3.347-3.118 5.618-3.484.547-.15 1.11-.223 1.663-.34" transform="scale(.79356) rotate(3 470.865 -7507.4)"/></g><path style="display:inline;fill:#000;stroke-width:.5;stroke-linejoin:round;stroke-opacity:.909449" d="M-196.888 128.583v1.191a14.52 14.52 0 0 1-14.552 14.552h-23.812a14.52 14.52 0 0 1-14.552-14.552v-1.19z"/><g aria-label="JANNYPHILE" transform="matrix(.18302 0 0 .18302 -219.855 85.068)" style="font-size:40px;line-height:1.25;white-space:pre;shape-inside:url(#a);fill:#fff"><path d="M-122.595 294.006q-3.2 0-5.32-1.2t-3.56-3.72l4.64-3.48q.68 1.28 1.56 1.88.88.6 1.72.6.68 0 1.2-.16.56-.2.92-.68.36-.48.56-1.28.2-.8.2-2.04v-16.4h6.88v16.96q0 1.96-.56 3.68-.52 1.72-1.6 3.04-1.08 1.28-2.76 2.04-1.64.76-3.88.76zM-101.475 280.886l-.44 1.8h4.8l-.44-1.8q-.48-1.88-.96-4.08t-.96-4.16h-.16q-.44 2-.92 4.2-.44 2.16-.92 4.04zm-10 12.64 7.92-26h8.32l7.92 26h-7.28l-1.28-5.52h-7.28l-1.28 5.52zM-84.835 293.526v-26h7.04l5.76 11.6 2.48 5.84h.16q-.12-1.04-.28-2.28-.16-1.24-.28-2.52-.12-1.32-.24-2.6-.08-1.32-.08-2.52v-7.52h6.56v26h-7.04l-5.76-11.64-2.48-5.8h-.16q.24 2.24.56 4.88.32 2.64.32 5.04v7.52zM-57.955 293.526v-26h7.04l5.76 11.6 2.48 5.84h.16q-.12-1.04-.28-2.28-.16-1.24-.28-2.52-.12-1.32-.24-2.6-.08-1.32-.08-2.52v-7.52h6.56v26h-7.04l-5.76-11.64-2.48-5.8h-.16q.24 2.24.56 4.88.32 2.64.32 5.04v7.52zM-26.515 293.526v-8.96l-7.84-17.04h7.36l1.92 5.44q.48 1.48.96 2.88l1 2.92h.16l1-2.92q.52-1.4 1.04-2.88l1.92-5.44h7.2l-7.84 17.04v8.96zM-9.315 293.526v-26h9.52q2.12 0 4.04.44 1.92.4 3.36 1.44 1.44 1 2.28 2.68.88 1.64.88 4.08 0 2.4-.88 4.12-.84 1.72-2.28 2.84-1.44 1.08-3.32 1.64-1.88.52-3.92.52h-2.8v8.24zm6.88-13.68h2.48q2.04 0 3-.96 1-.96 1-2.72 0-1.76-1.08-2.48t-3.08-.72h-2.32ZM15.005 293.526v-26h6.88v9.68h7.76v-9.68h6.88v26h-6.88v-10.32h-7.76v10.32zM42.285 293.526v-26h6.88v26zM54.925 293.526v-26h6.88v20.24h9.84v5.76zM76.125 293.526v-26h16.8v5.76h-9.92v4.08h8.48v5.76h-8.48v4.64h10.32v5.76z" style="font-weight:900;font-family:'Source Sans Pro';-inkscape-font-specification:'Source Sans Pro Heavy'"/></g></g></svg>