<?xml version="1.0" encoding="UTF-8" standalone="no"?>
<svg
   width="200"
   height="200"
   viewBox="0 0 52.916668 52.916666"
   version="1.1"
   id="svg8"
   inkscape:version="1.1 (c68e22c387, 2021-05-23)"
   sodipodi:docname="jannyphile.svg"
   xmlns:inkscape="http://www.inkscape.org/namespaces/inkscape"
   xmlns:sodipodi="http://sodipodi.sourceforge.net/DTD/sodipodi-0.dtd"
   xmlns="http://www.w3.org/2000/svg"
   xmlns:svg="http://www.w3.org/2000/svg"
   xmlns:rdf="http://www.w3.org/1999/02/22-rdf-syntax-ns#"
   xmlns:cc="http://creativecommons.org/ns#"
   xmlns:dc="http://purl.org/dc/elements/1.1/">
  <defs
     id="defs2">
    <rect
       x="-131.87541"
       y="257.03332"
       width="294.86353"
       height="92.984542"
       id="rect5569" />
    <rect
       x="-247"
       y="42"
       width="137"
       height="81.5"
       id="rect1185" />
    <rect
       x="-48.175333"
       y="18.9895"
       width="46.117357"
       height="15.996081"
       id="rect880" />
    <rect
       x="-255.23004"
       y="125.83378"
       width="102.52459"
       height="46.959256"
       id="rect873" />
    <inkscape:path-effect
       effect="envelope"
       id="path-effect4658"
       is_visible="true"
       yy="true"
       xx="true"
       bendpath1="m -199.08406,108.42369 h 7.0057"
       bendpath2="m -192.07836,108.42369 v 6.75242"
       bendpath3="m -199.08406,115.17611 h 7.0057"
       bendpath4="m -199.08406,108.42369 v 6.75242" />
    <inkscape:path-effect
       effect="bend_path"
       id="path-effect4656"
       is_visible="true"
       bendpath="m -192.00142,114.60623 c 2.12577,-0.53066 4.48261,0.85111 7.0057,0"
       prop_scale="1"
       scale_y_rel="false"
       vertical="false"
       bendpath-nodetypes="cc" />
    <inkscape:path-effect
       effect="bounding_box"
       id="path-effect4654"
       is_visible="true"
       linkedpath=""
       visualbounds="false" />
    <linearGradient
       id="linearGradient3288"
       inkscape:swatch="solid">
      <stop
         style="stop-color:#000000;stop-opacity:1;"
         offset="0"
         id="stop3286" />
    </linearGradient>
    <linearGradient
       id="linearGradient1364"
       inkscape:swatch="solid">
      <stop
         style="stop-color:#ffffff;stop-opacity:1;"
         offset="0"
         id="stop1362" />
    </linearGradient>
    <rect
       x="293.80286"
       y="272.58966"
       width="25.455845"
       height="37.830212"
       id="rect1056" />
    <rect
       x="222.73865"
       y="266.22571"
       width="47.376156"
       height="54.09367"
       id="rect1050" />
    <rect
       x="139.30003"
       y="246.42671"
       width="58.336308"
       height="48.790367"
       id="rect1044" />
    <rect
       x="131.1683"
       y="203.64674"
       width="61.871841"
       height="73.892654"
       id="rect1038" />
    <rect
       x="81.67083"
       y="193.04015"
       width="63.63961"
       height="55.507881"
       id="rect1032" />
    <rect
       x="83.085045"
       y="274.35742"
       width="44.194176"
       height="38.890873"
       id="rect1026" />
    <rect
       x="3.5355339"
       y="269.05414"
       width="65.760933"
       height="53.386562"
       id="rect1020" />
    <rect
       x="14.142136"
       y="226.27417"
       width="79.195961"
       height="62.932503"
       id="rect1014" />
    <rect
       x="11.313708"
       y="171.82695"
       width="36.416"
       height="51.618793"
       id="rect1008" />
    <rect
       x="3.1819806"
       y="132.22897"
       width="102.88404"
       height="102.53048"
       id="rect1002" />
  </defs>
  <sodipodi:namedview
     id="base"
     pagecolor="#ffffff"
     bordercolor="#666666"
     borderopacity="1.0"
     inkscape:pageopacity="0.0"
     inkscape:pageshadow="2"
     inkscape:zoom="2.8284271"
     inkscape:cx="54.800776"
     inkscape:cy="127.10244"
     inkscape:document-units="mm"
     inkscape:current-layer="layer1"
     showgrid="false"
     fit-margin-top="0"
     fit-margin-left="0"
     fit-margin-right="0"
     fit-margin-bottom="0"
     inkscape:window-width="1920"
     inkscape:window-height="1017"
     inkscape:window-x="-8"
     inkscape:window-y="-8"
     inkscape:window-maximized="1"
     showguides="false"
     inkscape:object-nodes="true"
     units="px"
     inkscape:snap-page="true"
     inkscape:document-rotation="0"
     inkscape:pagecheckerboard="1" />
  <metadata
     id="metadata5">
    <rdf:RDF>
      <cc:Work
         rdf:about="">
        <dc:format>image/svg+xml</dc:format>
        <dc:type
           rdf:resource="http://purl.org/dc/dcmitype/StillImage" />
      </cc:Work>
    </rdf:RDF>
  </metadata>
  <g
     inkscape:label="Base"
     inkscape:groupmode="layer"
     id="layer1"
     transform="translate(249.80447,-91.409467)">
    <rect
       y="91.40947"
       x="-249.80447"
       height="52.916668"
       width="52.916668"
       id="rect5238-5"
       style="display:inline;fill:#000000;fill-opacity:1;fill-rule:nonzero;stroke:none;stroke-width:0.5;stroke-linecap:butt;stroke-linejoin:round;stroke-miterlimit:4;stroke-dasharray:none;stroke-dashoffset:0;stroke-opacity:0.909449;paint-order:normal"
       rx="14.552089"
       ry="14.552081"
       inkscape:label="Bottom-rectangle" />
    <path
       id="rect18865"
       style="display:inline;fill:#ffffff;stroke-width:0.450003;stroke-linejoin:round;stroke-opacity:0.909449"
       d="m -234.06147,94.055153 h 5.357 v 15.776317 h 29.17097 v 4.64652 l -29.17097,0.71048 v 13.39503 h -5.357 v -13.39503 h -13.09733 v -5.357 h 13.09733 z"
       sodipodi:nodetypes="ccccccccccccc"
       inkscape:label="Inner-rectangle" />
    <path
       id="path1638"
       style="display:inline;fill:#333333;stroke-width:1.7008;stroke-linejoin:round;stroke-opacity:0.909449"
       inkscape:label="Inner-rectangle-2"
       d="M 59.501953,10 C 32.078797,10 10,32.076825 10,59.5 v 10.125 0.002 h 49.501953 z m 20.246094,0 V 69.626953 H 190 V 69.625 59.5 C 190,32.076825 167.92319,10 140.5,10 H 79.75 Z M 190,87.1875 79.748047,89.873047 V 140.5 H 190 V 89.875 Z M 10,89.873047 V 89.875 140.5 H 59.501953 V 89.873047 Z"
       transform="matrix(0.26458333,0,0,0.26458333,-249.80447,91.409467)" />
    <g
       id="g88867"
       transform="matrix(0.79246984,0.04153159,-0.04153159,0.79246984,-311.28215,-27.720377)"
       style="display:inline;fill:#000000;fill-opacity:1;stroke-width:1.26015"
       inkscape:label="Drawing">
      <path
         id="path88854"
         style="fill:#000000;fill-opacity:1;stroke-width:1.26015"
         d="m 127.50304,162.02403 c 2.22285,-0.34891 4.44504,0.0383 6.6536,0.2279 1.87681,0.24904 3.63229,1.10122 5.18879,2.14228 1.60196,1.52806 3.1158,3.20919 4.11514,5.19023 0.79005,1.93348 1.81524,3.80317 2.03025,5.92362 0.70268,2.42377 0.56263,4.98878 0.24523,7.45286 -0.0437,2.94946 -1.69027,5.95025 -4.42211,7.21797 -1.86396,0.91916 -4.0166,1.07605 -6.04752,1.3691 -2.98909,-0.0522 -5.99115,0.11165 -8.97104,-0.0961 -1.74746,-0.38369 -3.69827,-0.36145 -5.30494,-1.08065 0.84939,-0.64446 2.14072,-1.53553 1.81452,-2.75793 -0.32886,-0.93613 -1.44873,-1.4422 -1.74817,-2.29948 1.64424,-0.21599 3.31752,-0.014 4.94907,-0.3653 1.60616,0.40935 1.24511,-1.34904 2.4197,-1.79405 -0.0326,-1.02492 -1.1654,-1.57513 -1.76295,-2.32764 -0.52984,-0.84345 -2.37367,-1.87284 -0.68437,-2.60652 1.2144,-0.85807 2.60135,-1.55627 3.66522,-2.577 0.0693,-1.11137 0.86124,-2.37501 -0.56622,-3.01292 -0.006,-0.84649 1.78403,-1.17424 1.96466,-2.25772 0.0384,-1.28209 -1.84829,-1.42578 -2.70566,-2.07002 -1.29995,-0.66888 -2.66303,-1.27756 -4.1282,-1.4487 0.43142,-1.03624 0.88145,-2.23306 1.21557,-3.38822 -0.30478,-1.50725 1.06832,-1.00719 2.07932,-1.44204 m 15.18426,21.98171 c 1.28242,-0.0292 1.17723,-3.33525 -0.0458,-2.07123 0.0454,2.06692 -1.88329,-0.185 -2.49632,0.86967 0.0317,0.87906 1.79953,1.38404 2.54209,1.20177 m -1.309,-2.85327 c 0.71164,-1.0464 0.37791,-2.77007 0.0593,-4.00401 -0.52102,-1.39975 -2.31938,-1.54244 -3.57119,-1.90212 -2.09749,-0.1568 -4.64384,0.96792 -5.03493,3.24442 -1.00625,1.93055 1.82255,0.22292 2.70712,0.66031 2.06678,0.29677 4.00056,1.02585 5.83836,2.00143" />
      <path
         id="path88852"
         style="fill:#000000;fill-opacity:1;stroke-width:1.26015"
         d="m 119.5161,156.22218 c 2.0381,-0.2624 4.25055,-0.35924 6.06861,0.77528 1.48024,0.56538 2.49641,1.96175 3.04194,3.3772 -1.43817,0.67056 -3.14778,0.84437 -4.65825,1.3917 -0.0297,1.05812 -0.4991,2.23906 -0.14173,3.32214 -0.82336,0.74596 -1.67081,2.29844 -0.0831,2.72735 2.10086,0.30352 3.98492,1.32168 5.82278,2.31662 -0.11945,1.05904 -2.44972,1.21458 -1.69177,2.75212 0.65468,0.77415 0.85579,2.35397 -0.25459,2.83352 -1.14881,1.17593 -1.68196,-0.68623 -2.57185,-1.18687 -1.71397,-1.08754 -4.29432,-1.0443 -5.6645,0.60444 -1.15791,1.04957 -2.24154,2.43007 -1.98675,4.09904 -0.74022,1.75445 1.25918,1.48322 2.3833,1.46069 1.68269,-0.0702 3.34461,0.19331 5.00226,0.4083 1.03901,0.13625 2.4335,1.59732 1.08016,2.34888 -1.7843,1.20827 -4.09184,0.34481 -6.04444,0.8475 -1.10375,0.8814 0.56874,1.96308 1.1139,2.71035 1.2624,0.82111 -0.0643,2.04808 -0.90039,2.57044 -1.06518,0.78583 -2.20061,-0.48685 -3.2542,-0.58719 0.51485,1.81573 2.77576,2.2383 3.7288,3.77357 1.04355,1.43827 2.53451,3.14981 2.04685,5.01384 -1.15385,-1.49261 -2.31215,-3.18324 -4.16132,-3.89685 -1.58146,-0.92713 -3.60384,-1.09303 -4.8318,-2.5994 -1.13541,-1.07122 -0.8193,-2.73363 -1.02296,-4.08563 -1.53467,1.1324 -3.08915,2.78516 -5.20054,2.49635 -1.84993,0.013 -3.75333,-0.34181 -5.27647,-1.44883 -1.85219,-1.10931 -3.335979,-2.7397 -5.211239,-3.802 -0.812902,-0.38653 -3.757003,-0.19677 -1.909431,-1.45448 1.252839,-1.06934 3.130165,-1.77078 4.624117,-0.74335 1.502043,1.11912 2.899953,2.89662 4.995363,2.67606 1.32256,0.0464 3.09635,0.13722 3.92337,-1.03164 -1.63322,0.0106 -3.45166,0.13858 -4.71645,-1.11166 -2.50693,-2.42852 -2.90925,-6.07449 -4.00231,-9.2176 -0.418072,-1.65839 -2.00288,-2.76345 -3.701541,-2.65731 -1.921598,-0.0802 -1.005379,-1.6692 0.406868,-1.68179 1.734538,-0.23933 3.647163,0.16893 5.036453,1.28315 1.41987,1.36442 2.50918,3.10546 2.92489,5.03941 0.50629,1.18647 0.37738,2.74365 1.27491,3.70055 1.69607,0.50226 1.71369,-1.86631 1.94067,-2.95825 0.29585,-1.82179 0.55121,-3.65139 0.49099,-5.50661 0.23036,-1.67526 0.35779,-3.36538 0.856,-4.99548 0.76117,-2.05947 1.74265,-4.11245 3.24101,-5.73784 1.68234,-1.40802 3.34664,-3.11815 5.61744,-3.48372 0.54707,-0.1507 1.10896,-0.22287 1.66308,-0.3401" />
    </g>
    <path
       id="rect19240"
       style="display:inline;fill:#000000;stroke-width:0.5;stroke-linejoin:round;stroke-opacity:0.909449"
       d="m -196.88781,128.58347 v 1.19059 c 0,8.06185 -6.49023,14.55208 -14.55208,14.55208 h -23.8125 c -8.06185,0 -14.55208,-6.49023 -14.55208,-14.55208 v -1.19059 z"
       sodipodi:nodetypes="csssscc"
       inkscape:label="Bottom-label" />
    <g
       aria-label="JANNYPHILE"
       transform="matrix(0.18302322,0,0,0.18302322,-219.85495,85.068032)"
       id="text5567"
       style="font-size:40px;line-height:1.25;white-space:pre;shape-inside:url(#rect5569);fill:#ffffff">
      <path
         d="m -122.595,294.00642 q -3.2,0 -5.32,-1.2 -2.12,-1.2 -3.56,-3.72 l 4.64,-3.48 q 0.68,1.28 1.56,1.88 0.88,0.6 1.72,0.6 0.68,0 1.2,-0.16 0.56,-0.2 0.92,-0.68 0.36,-0.48 0.56,-1.28 0.2,-0.8 0.2,-2.04 v -16.4 h 6.88 v 16.96 q 0,1.96 -0.56,3.68 -0.52,1.72 -1.6,3.04 -1.08,1.28 -2.76,2.04 -1.64,0.76 -3.88,0.76 z"
         style="font-weight:900;font-family:'Source Sans Pro';-inkscape-font-specification:'Source Sans Pro Heavy'"
         id="path10472" />
      <path
         d="m -101.47506,280.88642 -0.44,1.8 h 4.800002 l -0.44,-1.8 q -0.48,-1.88 -0.96,-4.08 -0.48,-2.2 -0.96,-4.16 h -0.16 q -0.440002,2 -0.920002,4.2 -0.44,2.16 -0.92,4.04 z m -10,12.64 7.92,-26 h 8.320002 l 7.92,26 h -7.28 l -1.28,-5.52 h -7.280002 l -1.28,5.52 z"
         style="font-weight:900;font-family:'Source Sans Pro';-inkscape-font-specification:'Source Sans Pro Heavy'"
         id="path10474" />
      <path
         d="m -84.835073,293.52642 v -26 h 7.04 l 5.76,11.6 2.48,5.84 h 0.16 q -0.12,-1.04 -0.28,-2.28 -0.16,-1.24 -0.28,-2.52 -0.12,-1.32 -0.24,-2.6 -0.08,-1.32 -0.08,-2.52 v -7.52 h 6.56 v 26 h -7.04 l -5.76,-11.64 -2.48,-5.8 h -0.16 q 0.24,2.24 0.56,4.88 0.32,2.64 0.32,5.04 v 7.52 z"
         style="font-weight:900;font-family:'Source Sans Pro';-inkscape-font-specification:'Source Sans Pro Heavy'"
         id="path10476" />
      <path
         d="m -57.955114,293.52642 v -26 h 7.04 l 5.76,11.6 2.48,5.84 h 0.16 q -0.12,-1.04 -0.28,-2.28 -0.16,-1.24 -0.28,-2.52 -0.12,-1.32 -0.24,-2.6 -0.08,-1.32 -0.08,-2.52 v -7.52 h 6.56 v 26 h -7.04 l -5.76,-11.64 -2.48,-5.8 h -0.16 q 0.24,2.24 0.56,4.88 0.32,2.64 0.32,5.04 v 7.52 z"
         style="font-weight:900;font-family:'Source Sans Pro';-inkscape-font-specification:'Source Sans Pro Heavy'"
         id="path10478" />
      <path
         d="m -26.515154,293.52642 v -8.96 l -7.84,-17.04 h 7.36 l 1.92,5.44 q 0.48,1.48 0.96,2.88 0.48,1.4 1,2.92 h 0.16 q 0.52,-1.52 1,-2.92 0.52,-1.4 1.04,-2.88 l 1.92,-5.44 h 7.2 l -7.84,17.04 v 8.96 z"
         style="font-weight:900;font-family:'Source Sans Pro';-inkscape-font-specification:'Source Sans Pro Heavy'"
         id="path10480" />
      <path
         d="m -9.3152057,293.52642 v -26 h 9.52000001 q 2.11999999,0 4.03999999,0.44 1.92,0.4 3.36,1.44 1.44,1 2.28,2.68 0.8799997,1.64 0.8799997,4.08 0,2.4 -0.8799997,4.12 -0.84,1.72 -2.28,2.84 -1.44,1.08 -3.32,1.64 -1.88,0.52 -3.91999999,0.52 H -2.4352057 v 8.24 z m 6.88,-13.68 h 2.48000001 q 2.03999999,0 2.99999999,-0.96 1,-0.96 1,-2.72 0,-1.76 -1.08,-2.48 -1.08,-0.72 -3.07999999,-0.72 H -2.4352057 Z"
         style="font-weight:900;font-family:'Source Sans Pro';-inkscape-font-specification:'Source Sans Pro Heavy'"
         id="path10482" />
      <path
         d="m 15.004786,293.52642 v -26 h 6.88 v 9.68 h 7.76 v -9.68 h 6.88 v 26 h -6.88 v -10.32 h -7.76 v 10.32 z"
         style="font-weight:900;font-family:'Source Sans Pro';-inkscape-font-specification:'Source Sans Pro Heavy'"
         id="path10484" />
      <path
         d="m 42.284755,293.52642 v -26 h 6.88 v 26 z"
         style="font-weight:900;font-family:'Source Sans Pro';-inkscape-font-specification:'Source Sans Pro Heavy'"
         id="path10486" />
      <path
         d="m 54.924754,293.52642 v -26 h 6.88 v 20.24 h 9.84 v 5.76 z"
         style="font-weight:900;font-family:'Source Sans Pro';-inkscape-font-specification:'Source Sans Pro Heavy'"
         id="path10488" />
      <path
         d="m 76.124705,293.52642 v -26 h 16.8 v 5.76 h -9.92 v 4.08 h 8.48 v 5.76 h -8.48 v 4.64 h 10.32 v 5.76 z"
         style="font-weight:900;font-family:'Source Sans Pro';-inkscape-font-specification:'Source Sans Pro Heavy'"
         id="path10490" />
    </g>
  </g>
</svg>
