<?xml version="1.0" encoding="UTF-8" standalone="no"?>
<svg
   width="200"
   height="200"
   viewBox="0 0 52.916668 52.916666"
   version="1.1"
   id="svg8"
   inkscape:version="1.1 (c68e22c387, 2021-05-23)"
   sodipodi:docname="jannyphobe.svg"
   xmlns:inkscape="http://www.inkscape.org/namespaces/inkscape"
   xmlns:sodipodi="http://sodipodi.sourceforge.net/DTD/sodipodi-0.dtd"
   xmlns="http://www.w3.org/2000/svg"
   xmlns:svg="http://www.w3.org/2000/svg"
   xmlns:rdf="http://www.w3.org/1999/02/22-rdf-syntax-ns#"
   xmlns:cc="http://creativecommons.org/ns#"
   xmlns:dc="http://purl.org/dc/elements/1.1/">
  <defs
     id="defs2">
    <rect
       x="-202"
       y="96"
       width="315.5"
       height="84.5"
       id="rect28203" />
    <rect
       x="-247"
       y="42"
       width="137"
       height="81.5"
       id="rect1185" />
    <rect
       x="-48.175333"
       y="18.9895"
       width="46.117357"
       height="15.996081"
       id="rect880" />
    <rect
       x="-255.23004"
       y="125.83378"
       width="102.52459"
       height="46.959256"
       id="rect873" />
    <inkscape:path-effect
       effect="envelope"
       id="path-effect4658"
       is_visible="true"
       yy="true"
       xx="true"
       bendpath1="m -199.08406,108.42369 h 7.0057"
       bendpath2="m -192.07836,108.42369 v 6.75242"
       bendpath3="m -199.08406,115.17611 h 7.0057"
       bendpath4="m -199.08406,108.42369 v 6.75242" />
    <inkscape:path-effect
       effect="bend_path"
       id="path-effect4656"
       is_visible="true"
       bendpath="m -192.00142,114.60623 c 2.12577,-0.53066 4.48261,0.85111 7.0057,0"
       prop_scale="1"
       scale_y_rel="false"
       vertical="false"
       bendpath-nodetypes="cc" />
    <inkscape:path-effect
       effect="bounding_box"
       id="path-effect4654"
       is_visible="true"
       linkedpath=""
       visualbounds="false" />
    <linearGradient
       id="linearGradient3288"
       inkscape:swatch="solid">
      <stop
         style="stop-color:#000000;stop-opacity:1;"
         offset="0"
         id="stop3286" />
    </linearGradient>
    <linearGradient
       id="linearGradient1364"
       inkscape:swatch="solid">
      <stop
         style="stop-color:#ffffff;stop-opacity:1;"
         offset="0"
         id="stop1362" />
    </linearGradient>
    <rect
       x="293.80286"
       y="272.58966"
       width="25.455845"
       height="37.830212"
       id="rect1056" />
    <rect
       x="222.73865"
       y="266.22571"
       width="47.376156"
       height="54.09367"
       id="rect1050" />
    <rect
       x="139.30003"
       y="246.42671"
       width="58.336308"
       height="48.790367"
       id="rect1044" />
    <rect
       x="131.1683"
       y="203.64674"
       width="61.871841"
       height="73.892654"
       id="rect1038" />
    <rect
       x="81.67083"
       y="193.04015"
       width="63.63961"
       height="55.507881"
       id="rect1032" />
    <rect
       x="83.085045"
       y="274.35742"
       width="44.194176"
       height="38.890873"
       id="rect1026" />
    <rect
       x="3.5355339"
       y="269.05414"
       width="65.760933"
       height="53.386562"
       id="rect1020" />
    <rect
       x="14.142136"
       y="226.27417"
       width="79.195961"
       height="62.932503"
       id="rect1014" />
    <rect
       x="11.313708"
       y="171.82695"
       width="36.416"
       height="51.618793"
       id="rect1008" />
    <rect
       x="3.1819806"
       y="132.22897"
       width="102.88404"
       height="102.53048"
       id="rect1002" />
  </defs>
  <sodipodi:namedview
     id="base"
     pagecolor="#ffffff"
     bordercolor="#666666"
     borderopacity="1.0"
     inkscape:pageopacity="0.0"
     inkscape:pageshadow="2"
     inkscape:zoom="4"
     inkscape:cx="119.75"
     inkscape:cy="98.875"
     inkscape:document-units="mm"
     inkscape:current-layer="layer1"
     showgrid="false"
     fit-margin-top="0"
     fit-margin-left="0"
     fit-margin-right="0"
     fit-margin-bottom="0"
     inkscape:window-width="1920"
     inkscape:window-height="1017"
     inkscape:window-x="-8"
     inkscape:window-y="-8"
     inkscape:window-maximized="1"
     showguides="false"
     inkscape:object-nodes="true"
     units="px"
     inkscape:snap-page="true"
     inkscape:document-rotation="0"
     inkscape:pagecheckerboard="1" />
  <metadata
     id="metadata5">
    <rdf:RDF>
      <cc:Work
         rdf:about="">
        <dc:format>image/svg+xml</dc:format>
        <dc:type
           rdf:resource="http://purl.org/dc/dcmitype/StillImage" />
      </cc:Work>
    </rdf:RDF>
  </metadata>
  <g
     inkscape:label="Base"
     inkscape:groupmode="layer"
     id="layer1"
     transform="translate(249.80447,-91.409467)">
    <rect
       y="91.40947"
       x="-249.80447"
       height="52.916668"
       width="52.916668"
       id="rect5238-5"
       style="display:inline;fill:#000000;fill-opacity:1;fill-rule:nonzero;stroke:none;stroke-width:0.5;stroke-linecap:butt;stroke-linejoin:round;stroke-miterlimit:4;stroke-dasharray:none;stroke-dashoffset:0;stroke-opacity:0.909449;paint-order:normal"
       rx="14.552089"
       ry="14.552081"
       inkscape:label="Bottom-rectangle" />
    <path
       id="rect18865"
       style="display:inline;fill:#579952;fill-opacity:1;stroke-width:0.450003;stroke-linejoin:round;stroke-opacity:0.909449"
       d="m -199.5335,124.4814 v 4.1021 h -47.6253 v -4.1021 z"
       sodipodi:nodetypes="ccccc"
       inkscape:label="Inner-rectangle" />
    <path
       id="path1197"
       style="display:inline;fill:#2a71e5;fill-opacity:1;stroke-width:0.450003;stroke-linejoin:round;stroke-opacity:0.909449"
       d="m -199.5335,120.3793 v 4.1021 h -47.6253 v -4.1021 z"
       sodipodi:nodetypes="ccccc"
       inkscape:label="Inner-rectangle-2" />
    <path
       id="path1199"
       style="display:inline;fill:#579952;fill-opacity:1;stroke-width:0.450003;stroke-linejoin:round;stroke-opacity:0.909449"
       d="m -199.5335,119.20727 v 1.17203 h -47.6253 v -1.17203 z"
       sodipodi:nodetypes="ccccc"
       inkscape:label="Inner-rectangle-3" />
    <path
       id="path1201"
       style="display:inline;fill:#edb509;fill-opacity:1;stroke-width:0.450003;stroke-linejoin:round;stroke-opacity:0.909449"
       d="m -200.55956,102.04471 c 0.66098,1.56795 1.02606,3.29347 1.02606,5.1074 v 12.05516 h -47.6253 v -12.05516 c 0,-1.81393 0.36508,-3.53945 1.02607,-5.1074 z"
       sodipodi:nodetypes="ccccccc"
       inkscape:label="Inner-rectangle-4" />
    <path
       id="path1203"
       style="display:inline;fill:#a5393f;fill-opacity:1;stroke-width:0.450003;stroke-linejoin:round;stroke-opacity:0.909449"
       d="m -234.06184,94.055153 h 21.43138 c 3.62786,0 6.9021,1.46031 9.26938,3.827585 1.18363,1.183638 2.14053,2.594012 2.80152,4.161972 h -45.57317 c 0.66098,-1.56796 1.61788,-2.978334 2.80152,-4.161972 2.36727,-2.367274 5.64152,-3.827585 9.26937,-3.827585 z"
       sodipodi:nodetypes="sssccss"
       inkscape:label="Inner-rectangle-5" />
    <path
       id="rect19240"
       style="display:inline;fill:#000000;stroke-width:0.5;stroke-linejoin:round;stroke-opacity:0.909449"
       d="m -196.88781,128.58347 v 1.19059 c 0,8.06185 -6.49023,14.55208 -14.55208,14.55208 h -23.8125 c -8.06185,0 -14.55208,-6.49023 -14.55208,-14.55208 v -1.19059 z"
       sodipodi:nodetypes="csssscc"
       inkscape:label="Bottom-label" />
    <path
       style="fill:#000000;stroke-width:0.255156"
       d="m -230.46731,131.41532 c -1.65422,-0.44941 -3.25515,-1.20405 -4.60795,-2.26092 -1.11274,-1.71955 -1.61851,-3.76398 -2.18167,-5.71679 -0.34704,-2.1303 -0.10011,-4.31839 0.15855,-6.44824 0.0447,-1.02713 0.68658,-2.89514 1.78138,-1.3998 0.89245,0.79115 1.925,1.94458 3.24371,1.40472 4.43886,-0.9584 8.89872,-1.81569 13.3529,-2.69996 1.30573,0.0142 2.21914,-0.93194 1.93887,-2.24909 -0.11956,-0.71183 0.0635,-0.92097 0.66193,-0.44008 1.72583,1.08928 2.59728,3.06239 3.5323,4.7996 1.06976,1.58241 -1.61629,2.42007 -0.7561,4.12234 0.10147,1.51978 0.63401,2.97853 0.74301,4.48717 -0.38435,1.8461 -1.62679,3.43244 -3.28272,4.32195 -2.04736,1.27213 -4.34063,2.33216 -6.80719,2.24683 -2.58858,0.0826 -5.20304,0.16162 -7.77702,-0.16773 z m -1.05779,-8.55781 c 0.94971,-1.70722 -2.2695,-2.30512 -2.5129,-0.65609 -0.24186,1.48479 1.93911,1.81523 2.5129,0.65609 z m 16.12608,-0.007 c 1.08815,-0.69461 -0.0428,-3.00202 -1.30007,-2.25876 -1.44229,0.78021 0.0232,2.87413 1.30007,2.25876 z m 3.61421,2.3875 c -0.56008,-2.13452 -0.79448,-4.33375 -0.98348,-6.52716 1.64756,-0.52081 3.41549,-0.67878 5.12684,-0.4627 0.90974,1.00714 0.31444,2.775 0.56635,4.06797 -0.19058,1.15358 0.7985,3.60979 -1.25259,3.22334 -1.11533,-0.067 -2.46258,0.24116 -3.45712,-0.30145 z m -22.49933,-10.25413 c -0.2414,-0.68492 -1.98922,-1.06363 -1.69292,-1.47701 2.12803,-0.33738 4.29642,-0.40167 6.40878,-0.86838 2.93002,-0.59877 5.92876,-1.05922 8.71752,-2.17056 1.36637,-1.54256 2.90242,0.17839 3.03644,1.69335 -0.31577,1.39707 -2.3977,1.07425 -3.53009,1.48163 -3.78791,0.71158 -7.57739,1.43797 -11.31648,2.37646 -0.67539,-0.0117 -1.14837,-0.62653 -1.62325,-1.03549 z m -2.49793,-2.97624 c -0.29194,-1.39699 -0.96052,-2.91295 -0.46587,-4.32451 1.23103,-2.05738 3.64331,-2.97401 5.82077,-3.67674 2.43151,-0.65563 5.03747,-1.04553 7.53113,-0.53187 1.45456,0.28182 1.86492,1.88593 2.57049,2.97313 0.75345,1.10943 1.55266,2.88888 -0.42863,3.1563 -3.55885,1.12646 -7.24921,1.81339 -10.93076,2.405 -1.31523,0.12228 -2.69443,0.47616 -3.99275,0.11613 z"
       id="path60"
       inkscape:label="Drawing" />
    <g
       aria-label="JANNYPHOBE"
       transform="matrix(0.17425574,0,0,0.17425574,-209.39869,115.63243)"
       id="text28201"
       style="font-size:40px;line-height:1.25;white-space:pre;shape-inside:url(#rect28203);fill:#2a71e5">
      <path
         d="m -192.72,132.97321 q -3.2,0 -5.32,-1.2 -2.12,-1.2 -3.56,-3.72 l 4.64,-3.48 q 0.68,1.28 1.56,1.88 0.88,0.6 1.72,0.6 0.68,0 1.2,-0.16 0.56,-0.2 0.92,-0.68 0.36,-0.48 0.56,-1.28 0.2,-0.8 0.2,-2.04 v -16.4 h 6.88 v 16.96 q 0,1.96 -0.56,3.68 -0.52,1.72 -1.6,3.04 -1.08,1.28 -2.76,2.04 -1.64,0.76 -3.88,0.76 z"
         style="font-weight:900;font-family:'Source Sans Pro';-inkscape-font-specification:'Source Sans Pro Heavy'"
         id="path35006" />
      <path
         d="m -171.60006,119.85321 -0.44,1.8 h 4.8 l -0.44,-1.8 q -0.48,-1.88 -0.96,-4.08 -0.48,-2.2 -0.96,-4.16 h -0.16 q -0.44,2 -0.92,4.2 -0.44,2.16 -0.92,4.04 z m -10,12.64 7.92,-26 h 8.32 l 7.92,26 h -7.28 l -1.28,-5.52 h -7.28 l -1.28,5.52 z"
         style="font-weight:900;font-family:'Source Sans Pro';-inkscape-font-specification:'Source Sans Pro Heavy'"
         id="path35008" />
      <path
         d="m -154.96007,132.49321 v -26 h 7.04 l 5.76,11.6 2.48,5.84 h 0.16 q -0.12,-1.04 -0.28,-2.28 -0.16,-1.24 -0.28,-2.52 -0.12,-1.32 -0.24,-2.6 -0.08,-1.32 -0.08,-2.52 v -7.52 h 6.56 v 26 h -7.04 l -5.76,-11.64 -2.48,-5.8 h -0.16 q 0.24,2.24 0.56,4.88 0.32,2.64 0.32,5.04 v 7.52 z"
         style="font-weight:900;font-family:'Source Sans Pro';-inkscape-font-specification:'Source Sans Pro Heavy'"
         id="path35010" />
      <path
         d="m -128.08011,132.49321 v -26 h 7.04 l 5.76,11.6 2.48,5.84 h 0.16 q -0.12,-1.04 -0.28,-2.28 -0.16,-1.24 -0.28,-2.52 -0.12,-1.32 -0.24,-2.6 -0.08,-1.32 -0.08,-2.52 v -7.52 h 6.56 v 26 h -7.04 l -5.76,-11.64 -2.48,-5.8 h -0.16 q 0.24,2.24 0.56,4.88 0.32,2.64 0.32,5.04 v 7.52 z"
         style="font-weight:900;font-family:'Source Sans Pro';-inkscape-font-specification:'Source Sans Pro Heavy'"
         id="path35012" />
      <path
         d="m -96.640154,132.49321 v -8.96 l -7.839996,-17.04 h 7.359996 l 1.92,5.44 q 0.48,1.48 0.96,2.88 0.48,1.4 1,2.92 h 0.16 q 0.52,-1.52 1,-2.92 0.52,-1.4 1.04,-2.88 l 1.92,-5.44 h 7.2 l -7.84,17.04 v 8.96 z"
         style="font-weight:900;font-family:'Source Sans Pro';-inkscape-font-specification:'Source Sans Pro Heavy'"
         id="path35014" />
      <path
         d="m -79.440206,132.49321 v -26 h 9.52 q 2.12,0 4.04,0.44 1.92,0.4 3.36,1.44 1.44,1 2.28,2.68 0.88,1.64 0.88,4.08 0,2.4 -0.88,4.12 -0.84,1.72 -2.28,2.84 -1.44,1.08 -3.32,1.64 -1.88,0.52 -3.92,0.52 h -2.8 v 8.24 z m 6.88,-13.68 h 2.48 q 2.04,0 3,-0.96 1,-0.96 1,-2.72 0,-1.76 -1.08,-2.48 -1.08,-0.72 -3.08,-0.72 h -2.32 z"
         style="font-weight:900;font-family:'Source Sans Pro';-inkscape-font-specification:'Source Sans Pro Heavy'"
         id="path35016" />
      <path
         d="m -55.120214,132.49321 v -26 h 6.88 v 9.68 h 7.76 v -9.68 h 6.88 v 26 h -6.88 v -10.32 h -7.76 v 10.32 z"
         style="font-weight:900;font-family:'Source Sans Pro';-inkscape-font-specification:'Source Sans Pro Heavy'"
         id="path35018" />
      <path
         d="m -16.880245,132.97321 q -2.72,0 -4.96,-0.92 -2.2,-0.92 -3.8,-2.64 -1.56,-1.76 -2.44,-4.28 -0.88,-2.56 -0.88,-5.76 0,-3.2 0.88,-5.68 0.88,-2.52 2.44,-4.2 1.6,-1.72 3.8,-2.6 2.24,-0.88 4.96,-0.88 2.68,0 4.92,0.88 2.2399996,0.88 3.7999996,2.6 1.6,1.72 2.48,4.2 0.88,2.48 0.88,5.68 0,3.2 -0.88,5.76 -0.88,2.52 -2.48,4.28 -1.56,1.72 -3.7999996,2.64 -2.24,0.92 -4.92,0.92 z m 0,-5.92 q 2.36,0 3.68,-2.04 1.36,-2.08 1.36,-5.64 0,-3.56 -1.36,-5.48 -1.32,-1.96 -3.68,-1.96 -2.36,0 -3.72,1.96 -1.32,1.92 -1.32,5.48 0,3.56 1.32,5.64 1.36,2.04 3.72,2.04 z"
         style="font-weight:900;font-family:'Source Sans Pro';-inkscape-font-specification:'Source Sans Pro Heavy'"
         id="path35020" />
      <path
         d="m -0.16026794,132.49321 v -26 H 9.1997321 q 2.0399999,0 3.8399999,0.32 1.8,0.28 3.12,1 1.32,0.72 2.08,2 0.8,1.24 0.8,3.16 0,0.84 -0.24,1.72 -0.24,0.84 -0.68,1.64 -0.4,0.76 -1,1.36 -0.6,0.6 -1.36,0.88 v 0.16 q 1.88,0.56 3.16,2.04 1.32,1.44 1.32,4.04 0,2 -0.84,3.48 -0.8,1.44 -2.2,2.4 -1.36,0.92 -3.24,1.36 -1.88,0.44 -3.9599999,0.44 z m 6.88000004,-15.84 h 2.32 q 1.6799999,0 2.4799999,-0.72 0.8,-0.72 0.8,-1.92 0,-1.2 -0.8,-1.72 -0.8,-0.52 -2.4799999,-0.52 h -2.32 z m 0,10.56 h 2.8 q 3.9999999,0 3.9999999,-2.88 0,-1.44 -1,-2.04 -0.96,-0.6 -2.9999999,-0.6 h -2.8 z"
         style="font-weight:900;font-family:'Source Sans Pro';-inkscape-font-specification:'Source Sans Pro Heavy'"
         id="path35022" />
      <path
         d="m 24.319713,132.49321 v -26 h 16.8 v 5.76 h -9.92 v 4.08 h 8.48 v 5.76 h -8.48 v 4.64 h 10.32 v 5.76 z"
         style="font-weight:900;font-family:'Source Sans Pro';-inkscape-font-specification:'Source Sans Pro Heavy'"
         id="path35024" />
    </g>
  </g>
</svg>
