<svg width="200" height="200" viewBox="0 0 52.917 52.917" xmlns="http://www.w3.org/2000/svg"><defs><path id="a" d="M-173 221.5h275.5v92H-173z"/></defs><g transform="translate(249.804 -91.41)"><rect y="91.409" x="-249.804" height="52.917" width="52.917" style="display:inline;fill:#000;fill-opacity:1;fill-rule:nonzero;stroke:none;stroke-width:.5;stroke-linecap:butt;stroke-linejoin:round;stroke-miterlimit:4;stroke-dasharray:none;stroke-dashoffset:0;stroke-opacity:.909449;paint-order:normal" rx="14.552" ry="14.552"/><path style="display:inline;fill:#52ce3c;fill-opacity:1;stroke-width:.450003;stroke-linejoin:round;stroke-opacity:.909449" d="M-234.062 94.055h21.432a13.068 13.068 0 0 1 13.096 13.097v21.432h-47.625v-21.432a13.068 13.068 0 0 1 13.097-13.097z"/><g style="fill:#000;fill-opacity:1;stroke-width:.803442"><path style="fill:#000;fill-opacity:1;stroke-width:.803441" d="M148.21 217.452c1.453-.434.96 1.416 1.045 2.302-.067 1.138.29 2.24.264 3.378h-8.991c.338-1.27.243-2.608.68-3.865.04-1.707 2.313-1.184 3.473-1.664 1.173-.092 2.368.086 3.529-.152M118.91 214.904c1.232-.104 2.552.54 3.804.76 1.847.41 3.736.6 5.513 1.28 1.173.51 3.025.178 3.76 1.258.106 1.638.196 3.318-.186 4.93h-14.81c.718-1.897 1.264-3.868 1.408-5.896.204-.773.386-1.542.511-2.332M148.743 213.254c1.054-.09.333 2.054.405 2.78-1.584.565-3.355.461-5.042.508-.84.22-3.147.718-1.403-.415 1.85-1.279 3.905-2.185 6.04-2.874M120.475 210.901c1.276-.305 2.493.726 3.768.923 2.532.807 4.827 2.185 7.207 3.34 1.875.98-.62 1.81-1.59 1.017-1.378-.165-2.626-.839-4.006-.992-2.168-.386-4.332-.858-6.423-1.523-.117-.718.565-2.05 1.045-2.765" transform="matrix(1.29751 0 0 1.27407 -396.71 -153.495)"/><path style="fill:#000;fill-opacity:1;stroke-width:.803441" d="M128.584 200.805c1.375-.454 2.673.229 3.742 1.026.994 1.162 2.37.544 3.662.858 1.359.639 2.48-.054 3.626-.7 1.274-.44 2.689-.974 4.034-.598 1.117.492 2.438.83 3.124 1.917 1.22 1.085 1.849 2.742 1.695 4.37.291 1.345.337 2.745.18 4.113-1.215.968-2.892 1.073-4.18 1.937-1.236.757-2.685 1.318-3.627 2.456-.519 1.42-.801 2.934-1.057 4.424-.384.678.277 2.651-.805 2.524h-5.854c.047-1.905-.134-3.828.19-5.71 0-1.149.29-2.774-1.218-3.126-2.994-1.499-5.94-3.148-9.188-4.043-1.861-.192-.623-1.982-.137-2.922.653-1.293 1.517-2.471 2.497-3.536.92-1.19 1.69-2.678 3.317-2.99m.213 7.405c1.136-.399 2.116-1.087 3.002-1.888 1.301-1.027-.294-2.609-1.318-1.3-.643.81-1.594 1.223-2.346 1.88-.452.512-.292 1.768.662 1.308m17.659.315c1.094-.58-.547-1.948-1.277-2.628-.73-.68-2.865-1.471-2.29.227.685.933 1.679 1.69 2.665 2.279.291.088.598.119.901.122" transform="matrix(1.29751 0 0 1.27407 -396.71 -153.495)"/></g><path style="display:inline;fill:#000;stroke-width:.5;stroke-linejoin:round;stroke-opacity:.909449" d="M-196.888 128.583v1.191a14.52 14.52 0 0 1-14.552 14.552h-23.812a14.52 14.52 0 0 1-14.552-14.552v-1.19z"/><g aria-label="LIKED" transform="matrix(.31263 0 0 .31263 -186.143 59.862)" style="font-size:40px;line-height:1.25;white-space:pre;shape-inside:url(#a);fill:#52ce3c"><path d="M-170.12 257.993v-26h6.88v20.24h9.84v5.76zM-148.92 257.993v-26h6.88v26zM-136.28 257.993v-26h6.88v9.68h.16l6.56-9.68h7.52l-7.76 10.56 9.28 15.44h-7.52l-5.76-10-2.48 3.52v6.48zM-111.16 257.993v-26h16.8v5.76h-9.92v4.08h8.48v5.76h-8.48v4.64h10.32v5.76zM-88.92 257.993v-26h7.68q2.96 0 5.4.72 2.48.72 4.24 2.28 1.76 1.56 2.72 4 1 2.44 1 5.88t-.96 5.92q-.96 2.48-2.72 4.08-1.72 1.6-4.12 2.36-2.36.76-5.16.76zm6.88-5.52h.4q1.4 0 2.64-.32 1.24-.36 2.12-1.2.92-.84 1.44-2.32.52-1.48.52-3.76t-.52-3.72q-.52-1.44-1.44-2.24-.88-.8-2.12-1.08-1.24-.32-2.64-.32h-.4z" style="font-weight:900;font-family:'Source Sans Pro';-inkscape-font-specification:'Source Sans Pro Heavy'"/></g></g></svg>