<?xml version="1.0" encoding="UTF-8" standalone="no"?>
<svg
   width="200"
   height="200"
   viewBox="0 0 52.916668 52.916666"
   version="1.1"
   id="svg8"
   inkscape:version="1.1 (c68e22c387, 2021-05-23)"
   sodipodi:docname="liked.svg"
   xmlns:inkscape="http://www.inkscape.org/namespaces/inkscape"
   xmlns:sodipodi="http://sodipodi.sourceforge.net/DTD/sodipodi-0.dtd"
   xmlns="http://www.w3.org/2000/svg"
   xmlns:svg="http://www.w3.org/2000/svg"
   xmlns:rdf="http://www.w3.org/1999/02/22-rdf-syntax-ns#"
   xmlns:cc="http://creativecommons.org/ns#"
   xmlns:dc="http://purl.org/dc/elements/1.1/">
  <defs
     id="defs2">
    <rect
       x="-173"
       y="221.5"
       width="275.5"
       height="92"
       id="rect8263" />
    <rect
       x="-247"
       y="42"
       width="137"
       height="81.5"
       id="rect1185" />
    <rect
       x="-48.175333"
       y="18.9895"
       width="46.117357"
       height="15.996081"
       id="rect880" />
    <rect
       x="-255.23004"
       y="125.83378"
       width="102.52459"
       height="46.959256"
       id="rect873" />
    <inkscape:path-effect
       effect="envelope"
       id="path-effect4658"
       is_visible="true"
       yy="true"
       xx="true"
       bendpath1="m -199.08406,108.42369 h 7.0057"
       bendpath2="m -192.07836,108.42369 v 6.75242"
       bendpath3="m -199.08406,115.17611 h 7.0057"
       bendpath4="m -199.08406,108.42369 v 6.75242" />
    <inkscape:path-effect
       effect="bend_path"
       id="path-effect4656"
       is_visible="true"
       bendpath="m -192.00142,114.60623 c 2.12577,-0.53066 4.48261,0.85111 7.0057,0"
       prop_scale="1"
       scale_y_rel="false"
       vertical="false"
       bendpath-nodetypes="cc" />
    <inkscape:path-effect
       effect="bounding_box"
       id="path-effect4654"
       is_visible="true"
       linkedpath=""
       visualbounds="false" />
    <linearGradient
       id="linearGradient3288"
       inkscape:swatch="solid">
      <stop
         style="stop-color:#000000;stop-opacity:1;"
         offset="0"
         id="stop3286" />
    </linearGradient>
    <linearGradient
       id="linearGradient1364"
       inkscape:swatch="solid">
      <stop
         style="stop-color:#ffffff;stop-opacity:1;"
         offset="0"
         id="stop1362" />
    </linearGradient>
    <rect
       x="293.80286"
       y="272.58966"
       width="25.455845"
       height="37.830212"
       id="rect1056" />
    <rect
       x="222.73865"
       y="266.22571"
       width="47.376156"
       height="54.09367"
       id="rect1050" />
    <rect
       x="139.30003"
       y="246.42671"
       width="58.336308"
       height="48.790367"
       id="rect1044" />
    <rect
       x="131.1683"
       y="203.64674"
       width="61.871841"
       height="73.892654"
       id="rect1038" />
    <rect
       x="81.67083"
       y="193.04015"
       width="63.63961"
       height="55.507881"
       id="rect1032" />
    <rect
       x="83.085045"
       y="274.35742"
       width="44.194176"
       height="38.890873"
       id="rect1026" />
    <rect
       x="3.5355339"
       y="269.05414"
       width="65.760933"
       height="53.386562"
       id="rect1020" />
    <rect
       x="14.142136"
       y="226.27417"
       width="79.195961"
       height="62.932503"
       id="rect1014" />
    <rect
       x="11.313708"
       y="171.82695"
       width="36.416"
       height="51.618793"
       id="rect1008" />
    <rect
       x="3.1819806"
       y="132.22897"
       width="102.88404"
       height="102.53048"
       id="rect1002" />
  </defs>
  <sodipodi:namedview
     id="base"
     pagecolor="#ffffff"
     bordercolor="#666666"
     borderopacity="1.0"
     inkscape:pageopacity="0.0"
     inkscape:pageshadow="2"
     inkscape:zoom="2"
     inkscape:cx="58"
     inkscape:cy="141.75"
     inkscape:document-units="mm"
     inkscape:current-layer="layer1"
     showgrid="false"
     fit-margin-top="0"
     fit-margin-left="0"
     fit-margin-right="0"
     fit-margin-bottom="0"
     inkscape:window-width="1920"
     inkscape:window-height="1017"
     inkscape:window-x="-8"
     inkscape:window-y="-8"
     inkscape:window-maximized="1"
     showguides="false"
     inkscape:object-nodes="true"
     units="px"
     inkscape:snap-page="true"
     inkscape:document-rotation="0"
     inkscape:pagecheckerboard="1" />
  <metadata
     id="metadata5">
    <rdf:RDF>
      <cc:Work
         rdf:about="">
        <dc:format>image/svg+xml</dc:format>
        <dc:type
           rdf:resource="http://purl.org/dc/dcmitype/StillImage" />
      </cc:Work>
    </rdf:RDF>
  </metadata>
  <g
     inkscape:label="Base"
     inkscape:groupmode="layer"
     id="layer1"
     transform="translate(249.80447,-91.409467)">
    <rect
       y="91.40947"
       x="-249.80447"
       height="52.916668"
       width="52.916668"
       id="rect5238-5"
       style="display:inline;fill:#000000;fill-opacity:1;fill-rule:nonzero;stroke:none;stroke-width:0.5;stroke-linecap:butt;stroke-linejoin:round;stroke-miterlimit:4;stroke-dasharray:none;stroke-dashoffset:0;stroke-opacity:0.909449;paint-order:normal"
       rx="14.552089"
       ry="14.552081"
       inkscape:label="Bottom-rectangle" />
    <path
       id="rect18865"
       style="display:inline;fill:#52ce3c;fill-opacity:1;stroke-width:0.450003;stroke-linejoin:round;stroke-opacity:0.909449"
       d="m -234.06184,94.055153 h 21.43138 c 7.25572,0 13.09696,5.841242 13.09696,13.096957 v 21.43139 h -47.6253 v -21.43139 c 0,-7.255715 5.84125,-13.096957 13.09696,-13.096957 z"
       sodipodi:nodetypes="sssccss"
       inkscape:label="Inner-rectangle" />
    <g
       id="g1034"
       transform="matrix(1.2975134,0,0,1.2740711,-396.71059,-153.49526)"
       style="fill:#000000;fill-opacity:1;stroke-width:0.803442"
       inkscape:label="Drawing">
      <path
         id="path1011"
         style="fill:#000000;fill-opacity:1;stroke-width:0.803441"
         d="m 148.20983,217.45184 c 1.45321,-0.43382 0.96046,1.41649 1.0453,2.30265 -0.0676,1.13721 0.28983,2.24014 0.2643,3.37715 -2.99722,0 -5.99444,0 -8.99166,0 0.33863,-1.2698 0.2435,-2.60794 0.6803,-3.86439 0.0407,-1.70733 2.31333,-1.18407 3.47318,-1.66442 1.17297,-0.0917 2.36802,0.0858 3.52841,-0.1515" />
      <path
         id="path1009"
         style="fill:#000000;fill-opacity:1;stroke-width:0.803441"
         d="m 118.90979,214.90438 c 1.2321,-0.10439 2.55247,0.54025 3.80437,0.76 1.84717,0.40913 3.73606,0.59963 5.51272,1.2794 1.17326,0.51063 3.02552,0.17871 3.76095,1.25789 0.10471,1.63798 0.195,3.31849 -0.1868,4.93041 -4.9366,0 -9.87319,0 -14.80979,0 0.71767,-1.89729 1.26349,-3.86784 1.4073,-5.89618 0.20482,-0.77327 0.38652,-1.54206 0.5117,-2.33144" />
      <path
         id="path1007"
         style="fill:#000000;fill-opacity:1;stroke-width:0.803441"
         d="m 148.743,213.25395 c 1.05406,-0.0905 0.33348,2.05414 0.40483,2.78091 -1.58398,0.56364 -3.35527,0.46062 -5.042,0.50686 -0.84055,0.22053 -3.14732,0.71826 -1.40257,-0.41445 1.84974,-1.27887 3.90456,-2.18509 6.0394,-2.87401" />
      <path
         id="path1005"
         style="fill:#000000;fill-opacity:1;stroke-width:0.803441"
         d="m 120.4754,210.90128 c 1.27516,-0.30572 2.49284,0.72602 3.76808,0.923 2.53193,0.80638 4.82674,2.18471 7.20667,3.34021 1.87525,0.97954 -0.62108,1.81043 -1.5905,1.01626 -1.37768,-0.16453 -2.62586,-0.83843 -4.00555,-0.9913 -2.16772,-0.386 -4.33244,-0.85859 -6.42312,-1.5236 -0.11691,-0.71743 0.56532,-2.04969 1.04459,-2.765" />
      <path
         id="path999"
         style="fill:#000000;fill-opacity:1;stroke-width:0.803441"
         d="m 128.58378,200.80496 c 1.37493,-0.45394 2.67347,0.22873 3.74192,1.02638 0.99392,1.16157 2.37092,0.54378 3.66213,0.85798 1.35897,0.63865 2.48045,-0.0548 3.62604,-0.70017 1.27388,-0.43939 2.68872,-0.97456 4.03452,-0.5986 1.11657,0.49233 2.43804,0.8309 3.12327,1.91794 1.22093,1.08449 1.84887,2.7416 1.69555,4.36874 0.29115,1.34556 0.33692,2.74623 0.1792,4.11391 -1.21435,0.96796 -2.89182,1.07244 -4.17858,1.93706 -1.23648,0.75705 -2.6859,1.31738 -3.62764,2.4557 -0.51876,1.41953 -0.80168,2.93376 -1.05754,4.42454 -0.38371,0.67805 0.27719,2.65096 -0.80452,2.52355 h -5.85383 c 0.0467,-1.9047 -0.13464,-3.8277 0.19,-5.71072 -4.3e-4,-1.14817 0.28891,-2.77303 -1.21813,-3.1255 -2.99393,-1.4985 -5.94045,-3.14728 -9.18767,-4.04239 -1.86179,-0.19248 -0.62392,-1.9825 -0.13756,-2.92267 0.65281,-1.29241 1.51713,-2.47086 2.49694,-3.53586 0.91922,-1.19061 1.69103,-2.67793 3.31735,-2.99028 m 0.21287,7.40562 c 1.13544,-0.39888 2.11613,-1.0869 3.00211,-1.88801 1.30093,-1.02703 -0.29399,-2.60875 -1.31799,-1.30082 -0.64278,0.81018 -1.5943,1.22335 -2.34608,1.88058 -0.45191,0.51193 -0.29168,1.76855 0.66149,1.30819 m 17.65897,0.3153 c 1.09403,-0.5811 -0.54642,-1.94835 -1.27657,-2.62829 -0.73015,-0.67994 -2.86532,-1.47151 -2.28929,0.22736 0.68404,0.93289 1.6779,1.69044 2.66433,2.27819 0.29134,0.0884 0.5976,0.11897 0.90098,0.1228"
         sodipodi:nodetypes="ccccccccccccccccccccccccczccc" />
    </g>
    <path
       id="rect19240"
       style="display:inline;fill:#000000;stroke-width:0.5;stroke-linejoin:round;stroke-opacity:0.909449"
       d="m -196.88781,128.58347 v 1.19059 c 0,8.06185 -6.49023,14.55208 -14.55208,14.55208 h -23.8125 c -8.06185,0 -14.55208,-6.49023 -14.55208,-14.55208 v -1.19059 z"
       sodipodi:nodetypes="csssscc"
       inkscape:label="Bottom-label" />
    <g
       aria-label="LIKED"
       transform="matrix(0.31263409,0,0,0.31263409,-186.14266,59.861575)"
       id="text8261"
       style="font-size:40px;line-height:1.25;white-space:pre;shape-inside:url(#rect8263);fill:#52ce3c">
      <path
         d="m -170.12,257.99321 v -26 h 6.88 v 20.24 h 9.84 v 5.76 z"
         style="font-weight:900;font-family:'Source Sans Pro';-inkscape-font-specification:'Source Sans Pro Heavy'"
         id="path12107" />
      <path
         d="m -148.92005,257.99321 v -26 h 6.88 v 26 z"
         style="font-weight:900;font-family:'Source Sans Pro';-inkscape-font-specification:'Source Sans Pro Heavy'"
         id="path12109" />
      <path
         d="m -136.28005,257.99321 v -26 h 6.88 v 9.68 h 0.16 l 6.56,-9.68 h 7.52 l -7.76,10.56 9.28,15.44 h -7.52 l -5.76,-10 -2.48,3.52 v 6.48 z"
         style="font-weight:900;font-family:'Source Sans Pro';-inkscape-font-specification:'Source Sans Pro Heavy'"
         id="path12111" />
      <path
         d="m -111.16012,257.99321 v -26 h 16.800005 v 5.76 h -9.920005 v 4.08 h 8.480005 v 5.76 h -8.480005 v 4.64 h 10.320005 v 5.76 z"
         style="font-weight:900;font-family:'Source Sans Pro';-inkscape-font-specification:'Source Sans Pro Heavy'"
         id="path12113" />
      <path
         d="m -88.920125,257.99321 v -26 h 7.68 q 2.96,0 5.4,0.72 2.48,0.72 4.24,2.28 1.76,1.56 2.72,4 1,2.44 1,5.88 0,3.44 -0.96,5.92 -0.96,2.48 -2.72,4.08 -1.72,1.6 -4.12,2.36 -2.36,0.76 -5.16,0.76 z m 6.88,-5.52 h 0.4 q 1.4,0 2.64,-0.32 1.24,-0.36 2.12,-1.2 0.92,-0.84 1.44,-2.32 0.52,-1.48 0.52,-3.76 0,-2.28 -0.52,-3.72 -0.52,-1.44 -1.44,-2.24 -0.88,-0.8 -2.12,-1.08 -1.24,-0.32 -2.64,-0.32 h -0.4 z"
         style="font-weight:900;font-family:'Source Sans Pro';-inkscape-font-specification:'Source Sans Pro Heavy'"
         id="path12115" />
    </g>
  </g>
</svg>
