<?xml version="1.0" encoding="UTF-8" standalone="no"?>
<svg
   width="200"
   height="200"
   viewBox="0 0 52.916668 52.916666"
   version="1.1"
   id="svg8"
   inkscape:version="1.1 (c68e22c387, 2021-05-23)"
   sodipodi:docname="Base.svg"
   xmlns:inkscape="http://www.inkscape.org/namespaces/inkscape"
   xmlns:sodipodi="http://sodipodi.sourceforge.net/DTD/sodipodi-0.dtd"
   xmlns="http://www.w3.org/2000/svg"
   xmlns:svg="http://www.w3.org/2000/svg"
   xmlns:rdf="http://www.w3.org/1999/02/22-rdf-syntax-ns#"
   xmlns:cc="http://creativecommons.org/ns#"
   xmlns:dc="http://purl.org/dc/elements/1.1/">
  <defs
     id="defs2">
    <rect
       x="-180.5"
       y="233.5"
       width="286"
       height="68.5"
       id="rect1673" />
    <rect
       x="-247"
       y="42"
       width="137"
       height="81.5"
       id="rect1185" />
    <rect
       x="-48.175333"
       y="18.9895"
       width="46.117357"
       height="15.996081"
       id="rect880" />
    <rect
       x="-255.23004"
       y="125.83378"
       width="102.52459"
       height="46.959256"
       id="rect873" />
    <inkscape:path-effect
       effect="envelope"
       id="path-effect4658"
       is_visible="true"
       yy="true"
       xx="true"
       bendpath1="m -199.08406,108.42369 h 7.0057"
       bendpath2="m -192.07836,108.42369 v 6.75242"
       bendpath3="m -199.08406,115.17611 h 7.0057"
       bendpath4="m -199.08406,108.42369 v 6.75242" />
    <inkscape:path-effect
       effect="bend_path"
       id="path-effect4656"
       is_visible="true"
       bendpath="m -192.00142,114.60623 c 2.12577,-0.53066 4.48261,0.85111 7.0057,0"
       prop_scale="1"
       scale_y_rel="false"
       vertical="false"
       bendpath-nodetypes="cc" />
    <inkscape:path-effect
       effect="bounding_box"
       id="path-effect4654"
       is_visible="true"
       linkedpath=""
       visualbounds="false" />
    <linearGradient
       id="linearGradient3288"
       inkscape:swatch="solid">
      <stop
         style="stop-color:#000000;stop-opacity:1;"
         offset="0"
         id="stop3286" />
    </linearGradient>
    <linearGradient
       id="linearGradient1364"
       inkscape:swatch="solid">
      <stop
         style="stop-color:#ffffff;stop-opacity:1;"
         offset="0"
         id="stop1362" />
    </linearGradient>
    <rect
       x="293.80286"
       y="272.58966"
       width="25.455845"
       height="37.830212"
       id="rect1056" />
    <rect
       x="222.73865"
       y="266.22571"
       width="47.376156"
       height="54.09367"
       id="rect1050" />
    <rect
       x="139.30003"
       y="246.42671"
       width="58.336308"
       height="48.790367"
       id="rect1044" />
    <rect
       x="131.1683"
       y="203.64674"
       width="61.871841"
       height="73.892654"
       id="rect1038" />
    <rect
       x="81.67083"
       y="193.04015"
       width="63.63961"
       height="55.507881"
       id="rect1032" />
    <rect
       x="83.085045"
       y="274.35742"
       width="44.194176"
       height="38.890873"
       id="rect1026" />
    <rect
       x="3.5355339"
       y="269.05414"
       width="65.760933"
       height="53.386562"
       id="rect1020" />
    <rect
       x="14.142136"
       y="226.27417"
       width="79.195961"
       height="62.932503"
       id="rect1014" />
    <rect
       x="11.313708"
       y="171.82695"
       width="36.416"
       height="51.618793"
       id="rect1008" />
    <rect
       x="3.1819806"
       y="132.22897"
       width="102.88404"
       height="102.53048"
       id="rect1002" />
  </defs>
  <sodipodi:namedview
     id="base"
     pagecolor="#ffffff"
     bordercolor="#666666"
     borderopacity="1.0"
     inkscape:pageopacity="0.0"
     inkscape:pageshadow="2"
     inkscape:zoom="2"
     inkscape:cx="58"
     inkscape:cy="141.75"
     inkscape:document-units="mm"
     inkscape:current-layer="layer1"
     showgrid="false"
     fit-margin-top="0"
     fit-margin-left="0"
     fit-margin-right="0"
     fit-margin-bottom="0"
     inkscape:window-width="1920"
     inkscape:window-height="1017"
     inkscape:window-x="-8"
     inkscape:window-y="-8"
     inkscape:window-maximized="1"
     showguides="false"
     inkscape:object-nodes="true"
     units="px"
     inkscape:snap-page="true"
     inkscape:document-rotation="0"
     inkscape:pagecheckerboard="1" />
  <metadata
     id="metadata5">
    <rdf:RDF>
      <cc:Work
         rdf:about="">
        <dc:format>image/svg+xml</dc:format>
        <dc:type
           rdf:resource="http://purl.org/dc/dcmitype/StillImage" />
      </cc:Work>
    </rdf:RDF>
  </metadata>
  <g
     inkscape:label="Base"
     inkscape:groupmode="layer"
     id="layer1"
     transform="translate(249.80447,-91.409467)">
    <rect
       y="91.40947"
       x="-249.80447"
       height="52.916668"
       width="52.916668"
       id="rect5238-5"
       style="display:inline;fill:#000000;fill-opacity:1;fill-rule:nonzero;stroke:none;stroke-width:0.5;stroke-linecap:butt;stroke-linejoin:round;stroke-miterlimit:4;stroke-dasharray:none;stroke-dashoffset:0;stroke-opacity:0.909449;paint-order:normal"
       rx="14.552089"
       ry="14.552081"
       inkscape:label="Bottom-rectangle" />
    <path
       id="rect18865"
       style="display:inline;fill:#ffffff;stroke-width:0.450003;stroke-linejoin:round;stroke-opacity:0.909449"
       d="m -234.06184,94.055153 h 21.43138 c 7.25572,0 13.09696,5.841242 13.09696,13.096957 v 21.43139 h -47.6253 v -21.43139 c 0,-7.255715 5.84125,-13.096957 13.09696,-13.096957 z"
       sodipodi:nodetypes="sssccss"
       inkscape:label="Inner-rectangle" />
    <g
       id="g890"
       transform="matrix(1.0785946,-0.20407781,0.20965756,1.0498893,-7.9215042,-62.921626)"
       style="fill:#000000;fill-opacity:1"
       inkscape:label="Drawing">
      <path
         id="path89665"
         style="fill:#000000;fill-opacity:1;stroke-width:1"
         d="m -228.05021,133.64 c 1.17702,-0.35989 2.30552,2.25995 0.58279,1.8617 -0.84187,-0.12181 -1.41926,-1.29684 -0.58267,-1.86146" />
      <path
         id="path89661"
         style="fill:#000000;fill-opacity:1;stroke-width:1"
         d="m -226.73639,117.70706 c 1.42109,-0.1816 2.87877,-0.13246 4.30999,-0.0579 1.44864,0.26829 3.09779,0.77946 3.7793,2.2141 0.78553,1.49495 0.66979,3.26741 0.47229,4.88676 -0.24907,1.21541 -0.47987,2.69744 -1.55328,3.46889 -1.18145,0.79617 -2.67065,0.93086 -4.0353,0.60822 -1.68635,-0.34035 -1.3454,1.81249 -2.12651,2.64481 -1.61061,-0.1417 -1.51596,-1.89025 -1.03338,-3.0225 0.52153,-0.97168 0.56256,-3.12066 2.15265,-2.39026 1.38948,0.032 2.99747,0.12565 4.04579,-0.94928 0.45758,-0.95975 0.29288,-2.12377 0.21761,-3.1619 -0.43474,-1.09453 -1.70589,-1.74532 -2.77939,-2.10011 -1.21078,-0.16169 -2.49726,-0.25441 -3.69067,0.0537 -0.85756,0.10927 -2.96274,2.03462 -2.5665,0.11686 0.47412,-1.15264 1.68237,-1.90153 2.8073,-2.3123" />
      <path
         id="path89657"
         style="fill:#000000;fill-opacity:1;stroke-width:1"
         d="m -227.31836,111.64942 c 1.70285,-0.26697 3.44442,-0.10344 5.16612,-0.149 1.41665,0.15879 2.86946,0.37901 4.21208,0.8581 2.21008,1.07913 4.63645,2.17846 6.03611,4.30161 0.78232,1.14411 1.34041,2.40459 1.71966,3.73571 0.64376,1.56122 0.97437,3.22899 0.881,4.91954 -0.0309,2.51663 0.069,5.03961 -0.0646,7.55131 -0.24855,1.52529 -0.45172,3.08644 -0.9689,4.54653 -0.84662,1.59705 -2.37016,2.90583 -4.10455,3.41959 -1.85306,0.11927 -3.71821,0.0834 -5.57365,0.0427 -1.78023,-0.32055 -3.53334,-0.75943 -5.31712,-1.0735 -1.40352,-0.24628 -2.81244,-0.48624 -4.21256,-0.7844 -2.14951,-0.48125 -4.36573,-0.76674 -6.38336,-1.7128 -1.86558,-0.69019 -3.75295,-1.78019 -4.75432,-3.56037 -0.6459,-1.54874 -0.33928,-3.25399 -0.4067,-4.88603 0.20959,-1.49857 0.33278,-3.01456 0.7266,-4.48283 0.26981,-1.99996 1.14946,-3.83353 2.14905,-5.56082 0.82667,-1.20725 1.73873,-2.34596 2.81715,-3.34086 1.22959,-1.21186 2.76067,-2.08892 4.30113,-2.84289 1.22007,-0.48261 2.49513,-0.7314 3.77829,-0.9814 m 0.89676,24.93416 c 1.35952,-0.30854 1.25385,-2.62154 0.2629,-3.32206 -0.88788,-0.83577 -2.59417,-1.19197 -3.20062,0.15595 -0.77333,1.16932 0.17263,2.80463 1.37122,3.20297 0.52026,0.0307 1.05496,0.0996 1.56671,-0.037 m 1.08717,-3.97089 c 1.34148,-0.20333 0.43598,-2.93575 1.8571,-2.63849 1.45724,0.14537 3.02408,0.18453 4.28292,-0.69295 1.60696,-0.9602 1.9703,-2.96319 2.16619,-4.66868 -0.0108,-1.91628 0.39629,-4.08573 -0.87579,-5.71685 -0.56828,-1.12048 -1.87545,-1.48972 -2.937,-1.97841 -1.70245,-0.58395 -3.53062,-0.32794 -5.29861,-0.3801 -1.83985,-0.0583 -3.39228,1.25101 -4.3583,2.70064 -0.91501,1.12999 -0.37736,2.91185 1.22491,2.82757 1.33198,-0.0147 2.29965,-1.25566 3.66389,-1.27694 1.07205,-0.036 2.25627,-0.13286 3.10869,0.65424 1.19717,0.40495 1.21669,2.0323 0.77705,2.94983 -1.23296,0.86624 -2.76944,0.58702 -4.1551,0.3993 -1.4013,0.13538 -1.53767,1.92416 -1.98859,2.97356 -0.37219,1.2299 -1.05284,2.99228 0.10599,3.97785 0.73905,0.42456 1.52506,0.99423 2.4263,0.86941" />
    </g>
    <path
       id="rect19240"
       style="display:inline;fill:#000000;stroke-width:0.5;stroke-linejoin:round;stroke-opacity:0.909449"
       d="m -196.88781,128.58347 v 1.19059 c 0,8.06185 -6.49023,14.55208 -14.55208,14.55208 h -23.8125 c -8.06185,0 -14.55208,-6.49023 -14.55208,-14.55208 v -1.19059 z"
       sodipodi:nodetypes="csssscc"
       inkscape:label="Bottom-label" />
    <g
       aria-label="LURKER"
       transform="matrix(0.26458333,0,0,0.26458333,-194.9669,68.395185)"
       id="text1671"
       style="font-size:40px;line-height:1.25;white-space:pre;shape-inside:url(#rect1673)">
      <path
         d="m -177.62,269.99321 v -26 h 6.88 v 20.24 h 9.84 v 5.76 z"
         style="font-weight:900;font-family:'Source Sans Pro';-inkscape-font-specification:'Source Sans Pro Heavy';fill:#ffffff"
         id="path4177" />
      <path
         d="m -147.38009,270.47321 q -5.48,0 -8.16,-3.16 -2.64,-3.2 -2.64,-9.88 v -13.44 h 6.88 v 14.24 q 0,3.48 0.92,4.92 0.96,1.4 3,1.4 2.04,0 3,-1.4 1,-1.44 1,-4.92 v -14.24 h 6.64 v 13.44 q 0,6.68 -2.6,9.88 -2.6,3.16 -8.04,3.16 z"
         style="font-weight:900;font-family:'Source Sans Pro';-inkscape-font-specification:'Source Sans Pro Heavy';fill:#ffffff"
         id="path4179" />
      <path
         d="m -131.14013,269.99321 v -26 h 9.84 q 2.08,0 3.96,0.4 1.92,0.4 3.32,1.36 1.44,0.96 2.28,2.6 0.84,1.6 0.84,4.04 0,2.8 -1.16,4.64 -1.12,1.84 -3.04,2.88 l 5.64,10.08 h -7.68 l -4.48,-8.72 h -2.64 v 8.72 z m 6.88,-14.16 h 2.48 q 4.16,0 4.16,-3.44 0,-1.68 -1.08,-2.32 -1.04,-0.64 -3.08,-0.64 h -2.48 z"
         style="font-weight:900;font-family:'Source Sans Pro';-inkscape-font-specification:'Source Sans Pro Heavy';fill:#ffffff"
         id="path4181" />
      <path
         d="m -105.94016,269.99321 v -26 h 6.88 v 9.68 h 0.16 l 6.56,-9.68 h 7.52 l -7.76,10.56 9.28,15.44 h -7.52 l -5.76,-10 -2.48,3.52 v 6.48 z"
         style="font-weight:900;font-family:'Source Sans Pro';-inkscape-font-specification:'Source Sans Pro Heavy';fill:#ffffff"
         id="path4183" />
      <path
         d="m -80.820226,269.99321 v -26 h 16.8 v 5.76 h -9.92 v 4.08 h 8.48 v 5.76 h -8.48 v 4.64 h 10.32 v 5.76 z"
         style="font-weight:900;font-family:'Source Sans Pro';-inkscape-font-specification:'Source Sans Pro Heavy';fill:#ffffff"
         id="path4185" />
      <path
         d="m -58.580236,269.99321 v -26 h 9.84 q 2.08,0 3.96,0.4 1.92,0.4 3.32,1.36 1.44,0.96 2.28,2.6 0.84,1.6 0.84,4.04 0,2.8 -1.16,4.64 -1.12,1.84 -3.04,2.88 l 5.64,10.08 h -7.68 l -4.48,-8.72 h -2.64 v 8.72 z m 6.88,-14.16 h 2.48 q 4.16,0 4.16,-3.44 0,-1.68 -1.08,-2.32 -1.04,-0.64 -3.08,-0.64 h -2.48 z"
         style="font-weight:900;font-family:'Source Sans Pro';-inkscape-font-specification:'Source Sans Pro Heavy';fill:#ffffff"
         id="path4187" />
    </g>
  </g>
</svg>
