<svg width="200" height="200" viewBox="0 0 52.917 52.917" xmlns="http://www.w3.org/2000/svg"><defs><path id="a" d="M-180.5 233.5h286V302h-286z"/></defs><g transform="translate(249.804 -91.41)"><rect y="91.409" x="-249.804" height="52.917" width="52.917" style="display:inline;fill:#000;fill-opacity:1;fill-rule:nonzero;stroke:none;stroke-width:.5;stroke-linecap:butt;stroke-linejoin:round;stroke-miterlimit:4;stroke-dasharray:none;stroke-dashoffset:0;stroke-opacity:.909449;paint-order:normal" rx="14.552" ry="14.552"/><path style="display:inline;fill:#fff;stroke-width:.450003;stroke-linejoin:round;stroke-opacity:.909449" d="M-234.062 94.055h21.432a13.068 13.068 0 0 1 13.096 13.097v21.432h-47.625v-21.432a13.068 13.068 0 0 1 13.097-13.097z"/><g style="fill:#000;fill-opacity:1"><path style="fill:#000;fill-opacity:1;stroke-width:1" d="M-228.05 133.64c1.177-.36 2.305 2.26.583 1.862-.842-.122-1.42-1.297-.583-1.862M-226.736 117.707c1.42-.182 2.878-.132 4.31-.058 1.448.268 3.097.78 3.779 2.214.785 1.495.67 3.268.472 4.887-.249 1.215-.48 2.697-1.553 3.469-1.182.796-2.67.93-4.035.608-1.687-.34-1.346 1.813-2.127 2.645-1.61-.142-1.516-1.89-1.033-3.023.521-.971.562-3.12 2.152-2.39 1.39.032 2.998.126 4.046-.95.458-.959.293-2.123.218-3.161-.435-1.095-1.706-1.745-2.78-2.1-1.21-.162-2.497-.255-3.69.054-.858.109-2.963 2.034-2.567.116.474-1.152 1.683-1.901 2.808-2.312" transform="matrix(1.0786 -.20408 .20966 1.04989 -7.922 -62.922)"/><path style="fill:#000;fill-opacity:1;stroke-width:1" d="M-227.318 111.65c1.702-.268 3.444-.104 5.166-.15 1.416.16 2.87.38 4.212.859 2.21 1.079 4.636 2.178 6.036 4.301.782 1.144 1.34 2.405 1.72 3.736.643 1.561.974 3.229.88 4.92-.03 2.516.07 5.039-.064 7.55-.249 1.526-.452 3.087-.969 4.547-.847 1.597-2.37 2.906-4.104 3.42-1.853.12-3.719.083-5.574.043-1.78-.321-3.533-.76-5.317-1.074-1.404-.246-2.813-.486-4.213-.784-2.15-.482-4.365-.767-6.383-1.713-1.866-.69-3.753-1.78-4.754-3.56-.646-1.55-.34-3.255-.407-4.887.21-1.498.333-3.014.726-4.482.27-2 1.15-3.834 2.15-5.561.826-1.207 1.738-2.346 2.817-3.341 1.23-1.212 2.76-2.089 4.3-2.843 1.22-.483 2.496-.731 3.78-.981m.896 24.934c1.36-.309 1.254-2.622.263-3.322-.888-.836-2.594-1.192-3.2.156-.774 1.169.172 2.804 1.37 3.203.52.03 1.055.1 1.567-.037m1.087-3.971c1.342-.204.436-2.936 1.857-2.639 1.458.146 3.024.185 4.283-.693 1.607-.96 1.97-2.963 2.166-4.668-.01-1.917.397-4.086-.875-5.717-.569-1.12-1.876-1.49-2.937-1.979-1.703-.584-3.531-.328-5.299-.38-1.84-.058-3.392 1.251-4.358 2.7-.915 1.13-.378 2.913 1.225 2.828 1.332-.014 2.3-1.255 3.664-1.276 1.072-.036 2.256-.133 3.108.654 1.197.405 1.217 2.032.777 2.95-1.233.866-2.77.587-4.155.399-1.401.135-1.538 1.924-1.988 2.973-.373 1.23-1.053 2.993.106 3.978.739.425 1.525.995 2.426.87" transform="matrix(1.0786 -.20408 .20966 1.04989 -7.922 -62.922)"/></g><path style="display:inline;fill:#000;stroke-width:.5;stroke-linejoin:round;stroke-opacity:.909449" d="M-196.888 128.583v1.191a14.52 14.52 0 0 1-14.552 14.552h-23.812a14.52 14.52 0 0 1-14.552-14.552v-1.19z"/><g aria-label="LURKER" transform="matrix(.26458 0 0 .26458 -194.967 68.395)" style="font-size:40px;line-height:1.25;white-space:pre;shape-inside:url(#a)"><path d="M-177.62 269.993v-26h6.88v20.24h9.84v5.76zM-147.38 270.473q-5.48 0-8.16-3.16-2.64-3.2-2.64-9.88v-13.44h6.88v14.24q0 3.48.92 4.92.96 1.4 3 1.4t3-1.4q1-1.44 1-4.92v-14.24h6.64v13.44q0 6.68-2.6 9.88-2.6 3.16-8.04 3.16zM-131.14 269.993v-26h9.84q2.08 0 3.96.4 1.92.4 3.32 1.36 1.44.96 2.28 2.6.84 1.6.84 4.04 0 2.8-1.16 4.64-1.12 1.84-3.04 2.88l5.64 10.08h-7.68l-4.48-8.72h-2.64v8.72zm6.88-14.16h2.48q4.16 0 4.16-3.44 0-1.68-1.08-2.32-1.04-.64-3.08-.64h-2.48zM-105.94 269.993v-26h6.88v9.68h.16l6.56-9.68h7.52l-7.76 10.56 9.28 15.44h-7.52l-5.76-10-2.48 3.52v6.48zM-80.82 269.993v-26h16.8v5.76h-9.92v4.08h8.48v5.76h-8.48v4.64h10.32v5.76zM-58.58 269.993v-26h9.84q2.08 0 3.96.4 1.92.4 3.32 1.36 1.44.96 2.28 2.6.84 1.6.84 4.04 0 2.8-1.16 4.64-1.12 1.84-3.04 2.88l5.64 10.08h-7.68l-4.48-8.72h-2.64v8.72zm6.88-14.16h2.48q4.16 0 4.16-3.44 0-1.68-1.08-2.32-1.04-.64-3.08-.64h-2.48z" style="font-weight:900;font-family:'Source Sans Pro';-inkscape-font-specification:'Source Sans Pro Heavy';fill:#fff"/></g></g></svg>