<svg width="200" height="200" viewBox="0 0 52.917 52.917" xmlns="http://www.w3.org/2000/svg"><defs><path id="a" d="M-143.5 227.5H195V324h-338.5z"/></defs><g transform="translate(249.804 -91.41)"><rect y="91.409" x="-249.804" height="52.917" width="52.917" style="display:inline;fill:#000;fill-opacity:1;fill-rule:nonzero;stroke:none;stroke-width:.5;stroke-linecap:butt;stroke-linejoin:round;stroke-miterlimit:4;stroke-dasharray:none;stroke-dashoffset:0;stroke-opacity:.909449;paint-order:normal" rx="14.552" ry="14.552"/><path style="display:inline;fill:#e12420;fill-opacity:1;stroke-width:.450003;stroke-linejoin:round;stroke-opacity:.909449" d="M-223.346 94.055h10.716a13.068 13.068 0 0 1 13.096 13.097v21.432h-23.812z"/><path style="display:inline;fill:#429b7d;fill-opacity:1;stroke-width:.450003;stroke-linejoin:round;stroke-opacity:.909449" d="M-234.062 94.055h10.716v34.528h-23.813v-21.43a13.068 13.068 0 0 1 13.097-13.098z"/><g style="display:inline;fill:#000;fill-opacity:1"><path style="fill:#000;fill-opacity:1;stroke-width:1" d="M120.582 268.746c2.505-.298 5.031.16 7.473.705 1.715.383 3.434.913 4.959 1.786 1.508.864 2.947 1.958 4.005 3.336.887 1.154 1.563 2.532 1.837 3.962.293 1.53.073 2.771-.26 4.666.161 1.039.094 1.858-1.09 1.555H112.91c-.553-1.983.025-4.068.503-6.01.922-2.815 1.596-5.894 3.691-8.113.917-1.007 2.223-1.461 3.476-1.888m-.123 8.034c1.812-.039 2.455-2.01 2.31-3.521-.198-1.687-2.327-2.37-3.7-1.601-1.521.582-2.54 2.744-1.286 4.067.638.77 1.688 1.17 2.677 1.055m12.441 1.27c1.696-.241 1.691-2.57.61-3.528-.943-.885-2.641-1.952-3.806-.863-.94.97-1.574 2.95-.12 3.781.955.712 2.18.758 3.316.61" transform="matrix(1.04494 0 0 1.04494 -355.144 -167.924)"/><path style="fill:#000;fill-opacity:1;stroke-width:1" d="M124.063 264.487c4.907-.3 11.444 1.045 13.868 5.059.915 1.132 2.22 3.4 1.094 4.828-1.244 0-2.045-1.734-3.186-2.337-1.521-1.708-3.794-2.301-5.868-3.02-3.734-1.412-8.74-1.99-12.131-.367-.858.705-2.483 2.102-2.515.036-.035-1.84 2.118-2.457 3.521-3.009 1.714-.785 3.395-.95 4.97-1.15l.247-.04" transform="matrix(1.04494 0 0 1.04494 -355.144 -167.924)"/><path style="fill:#000;fill-opacity:1;stroke-width:1" d="M130.113 252.63c1.586-.26 3.708-.498 4.784.97 1.06 1.602 1.11 3.595 1.52 5.412.02 1.8.117 3.6.395 5.364-.15 1.91-2.077 1.04-2.997.26-2.666-1.45-5.844-1.877-8.82-1.446-1.127.16-3.238.956-3.807-.13.57-1.285 1.691-2.255 2.36-3.505 1.23-1.85 2.725-3.478 4.072-5.24.636-.822 1.534-1.327 2.492-1.684" transform="matrix(1.04494 0 0 1.04494 -355.144 -167.924)"/></g><path style="display:inline;fill:#000;stroke-width:.5;stroke-linejoin:round;stroke-opacity:.909449" d="M-196.888 128.583v1.191a14.52 14.52 0 0 1-14.552 14.552h-23.812a14.52 14.52 0 0 1-14.552-14.552v-1.19z"/><g aria-label="MISBEHAVING" transform="matrix(.17138 0 0 .17138 -219.936 93.448)" style="font-size:40px;line-height:1.25;white-space:pre;shape-inside:url(#a);fill:#429b7d"><path d="M-140.42 263.993v-26.08h6.44l4.2 11.6q.4 1.16.76 2.4.36 1.2.76 2.4h.16q.4-1.2.72-2.4.36-1.24.76-2.4l4.12-11.6h6.4v26.08h-5.36v-9.56q0-.96.08-2.12.08-1.16.2-2.32.12-1.2.24-2.32.12-1.16.24-2.12h-.16l-2.12 6.2-3.72 9.96h-3.24l-3.72-9.96-2.08-6.2h-.16q.12.96.24 2.12.12 1.12.24 2.32.12 1.16.2 2.32.08 1.16.08 2.12v9.56zM-109.94 263.993v-26.08h5.88v26.08zM-89.94 264.473q-2.56 0-5.12-.92-2.52-.96-4.52-2.84l3.36-4.04q1.4 1.2 3.08 1.96 1.72.76 3.36.76 1.84 0 2.72-.68.92-.68.92-1.84 0-.6-.28-1.04-.24-.44-.76-.76-.48-.36-1.2-.64-.68-.32-1.52-.68l-3.4-1.44q-1-.4-1.96-1.04-.92-.64-1.68-1.48-.72-.88-1.16-2-.44-1.16-.44-2.6 0-1.6.68-3 .68-1.44 1.92-2.48 1.24-1.08 2.92-1.68 1.72-.6 3.76-.6 2.28 0 4.48.88 2.24.88 3.92 2.56l-3 3.72q-1.28-1-2.56-1.52-1.28-.56-2.84-.56-1.52 0-2.44.64-.88.6-.88 1.72 0 .6.28 1.04.32.4.84.76.56.32 1.28.64.72.28 1.56.64l3.36 1.36q2.4.96 3.76 2.64 1.4 1.68 1.4 4.44 0 1.64-.68 3.12-.64 1.44-1.92 2.56-1.24 1.08-3.08 1.76-1.84.64-4.16.64zM-75.66 263.993v-26.08h8.92q2.04 0 3.76.32 1.76.28 3.04 1.04 1.32.76 2.04 2 .76 1.24.76 3.12 0 .88-.24 1.76t-.68 1.64q-.44.76-1.08 1.36-.6.6-1.4.88v.16q1 .24 1.84.76.84.48 1.48 1.24t1 1.8q.36 1 .36 2.32 0 2-.8 3.44-.76 1.44-2.16 2.4-1.36.92-3.2 1.4-1.84.44-3.96.44zm5.88-15.64h2.76q2.16 0 3.12-.84 1-.84 1-2.24 0-1.52-1-2.16-1-.64-3.08-.64h-2.8zm0 11.08h3.32q4.84 0 4.84-3.52 0-1.72-1.2-2.44-1.2-.76-3.64-.76h-3.32zM-51.46 263.993v-26.08h16.32v4.96h-10.44v5.24h8.88v4.92h-8.88v6h10.84v4.96zM-29.54 263.993v-26.08h5.88v10.04h9v-10.04h5.92v26.08h-5.92v-10.88h-9v10.88z" style="font-weight:700;font-family:'Source Sans Pro';-inkscape-font-specification:'Source Sans Pro Bold'"/><path d="m3.54 250.793-.64 2.4h5.56l-.6-2.4q-.56-1.96-1.08-4.16t-1.04-4.24h-.16q-.48 2.08-1 4.28-.48 2.16-1.04 4.12zm-9.44 13.2 8.16-26.08h7.08l8.16 26.08h-6.24l-1.6-6.2H1.7l-1.6 6.2zM24.14 263.993l-7.88-26.08h6.24l3.12 12.16q.6 2.16 1.04 4.2.48 2 1.08 4.16h.16q.56-2.16 1.04-4.16.48-2.04 1.04-4.2l3.08-12.16h6l-7.84 26.08zM41.86 263.993v-26.08h5.88v26.08zM53.9 263.993v-26.08h6.04l6.8 12.96 2.56 5.76h.16q-.2-2.08-.48-4.64-.24-2.56-.24-4.88v-9.2h5.6v26.08H68.3l-6.8-13-2.56-5.68h-.16q.2 2.16.44 4.64.28 2.48.28 4.8v9.24zM92.02 264.473q-2.68 0-5.04-.84-2.32-.88-4.04-2.56-1.72-1.68-2.72-4.16-.96-2.52-.96-5.8 0-3.24 1-5.76 1-2.56 2.72-4.32 1.76-1.76 4.08-2.68 2.32-.92 4.92-.92 2.84 0 4.88 1.04t3.32 2.36l-3.08 3.76q-1-.88-2.12-1.48t-2.8-.6q-1.52 0-2.8.6-1.24.56-2.16 1.64-.92 1.08-1.44 2.64-.48 1.56-.48 3.52 0 4.04 1.8 6.28 1.84 2.2 5.52 2.2.8 0 1.56-.2t1.24-.6v-4.48H91.1v-4.8h9.52v12q-1.36 1.32-3.6 2.24-2.24.92-5 .92z" style="font-weight:700;font-family:'Source Sans Pro';-inkscape-font-specification:'Source Sans Pro Bold';fill:#e12420;fill-opacity:1"/></g></g></svg>