<?xml version="1.0" encoding="UTF-8" standalone="no"?>
<svg
   width="200"
   height="200"
   viewBox="0 0 52.916668 52.916666"
   version="1.1"
   id="svg8"
   inkscape:version="1.1 (c68e22c387, 2021-05-23)"
   sodipodi:docname="misbehaving.svg"
   xmlns:inkscape="http://www.inkscape.org/namespaces/inkscape"
   xmlns:sodipodi="http://sodipodi.sourceforge.net/DTD/sodipodi-0.dtd"
   xmlns="http://www.w3.org/2000/svg"
   xmlns:svg="http://www.w3.org/2000/svg"
   xmlns:rdf="http://www.w3.org/1999/02/22-rdf-syntax-ns#"
   xmlns:cc="http://creativecommons.org/ns#"
   xmlns:dc="http://purl.org/dc/elements/1.1/">
  <defs
     id="defs2">
    <rect
       x="-143.5"
       y="227.5"
       width="338.5"
       height="96.5"
       id="rect9974" />
    <rect
       x="-247"
       y="42"
       width="137"
       height="81.5"
       id="rect1185" />
    <rect
       x="-48.175333"
       y="18.9895"
       width="46.117357"
       height="15.996081"
       id="rect880" />
    <rect
       x="-255.23004"
       y="125.83378"
       width="102.52459"
       height="46.959256"
       id="rect873" />
    <inkscape:path-effect
       effect="envelope"
       id="path-effect4658"
       is_visible="true"
       yy="true"
       xx="true"
       bendpath1="m -199.08406,108.42369 h 7.0057"
       bendpath2="m -192.07836,108.42369 v 6.75242"
       bendpath3="m -199.08406,115.17611 h 7.0057"
       bendpath4="m -199.08406,108.42369 v 6.75242" />
    <inkscape:path-effect
       effect="bend_path"
       id="path-effect4656"
       is_visible="true"
       bendpath="m -192.00142,114.60623 c 2.12577,-0.53066 4.48261,0.85111 7.0057,0"
       prop_scale="1"
       scale_y_rel="false"
       vertical="false"
       bendpath-nodetypes="cc" />
    <inkscape:path-effect
       effect="bounding_box"
       id="path-effect4654"
       is_visible="true"
       linkedpath=""
       visualbounds="false" />
    <linearGradient
       id="linearGradient3288"
       inkscape:swatch="solid">
      <stop
         style="stop-color:#000000;stop-opacity:1;"
         offset="0"
         id="stop3286" />
    </linearGradient>
    <linearGradient
       id="linearGradient1364"
       inkscape:swatch="solid">
      <stop
         style="stop-color:#ffffff;stop-opacity:1;"
         offset="0"
         id="stop1362" />
    </linearGradient>
    <rect
       x="293.80286"
       y="272.58966"
       width="25.455845"
       height="37.830212"
       id="rect1056" />
    <rect
       x="222.73865"
       y="266.22571"
       width="47.376156"
       height="54.09367"
       id="rect1050" />
    <rect
       x="139.30003"
       y="246.42671"
       width="58.336308"
       height="48.790367"
       id="rect1044" />
    <rect
       x="131.1683"
       y="203.64674"
       width="61.871841"
       height="73.892654"
       id="rect1038" />
    <rect
       x="81.67083"
       y="193.04015"
       width="63.63961"
       height="55.507881"
       id="rect1032" />
    <rect
       x="83.085045"
       y="274.35742"
       width="44.194176"
       height="38.890873"
       id="rect1026" />
    <rect
       x="3.5355339"
       y="269.05414"
       width="65.760933"
       height="53.386562"
       id="rect1020" />
    <rect
       x="14.142136"
       y="226.27417"
       width="79.195961"
       height="62.932503"
       id="rect1014" />
    <rect
       x="11.313708"
       y="171.82695"
       width="36.416"
       height="51.618793"
       id="rect1008" />
    <rect
       x="3.1819806"
       y="132.22897"
       width="102.88404"
       height="102.53048"
       id="rect1002" />
  </defs>
  <sodipodi:namedview
     id="base"
     pagecolor="#ffffff"
     bordercolor="#666666"
     borderopacity="1.0"
     inkscape:pageopacity="0.0"
     inkscape:pageshadow="2"
     inkscape:zoom="2"
     inkscape:cx="58"
     inkscape:cy="141.75"
     inkscape:document-units="mm"
     inkscape:current-layer="layer1"
     showgrid="false"
     fit-margin-top="0"
     fit-margin-left="0"
     fit-margin-right="0"
     fit-margin-bottom="0"
     inkscape:window-width="1920"
     inkscape:window-height="1017"
     inkscape:window-x="-8"
     inkscape:window-y="-8"
     inkscape:window-maximized="1"
     showguides="false"
     inkscape:object-nodes="true"
     units="px"
     inkscape:snap-page="true"
     inkscape:document-rotation="0"
     inkscape:pagecheckerboard="1" />
  <metadata
     id="metadata5">
    <rdf:RDF>
      <cc:Work
         rdf:about="">
        <dc:format>image/svg+xml</dc:format>
        <dc:type
           rdf:resource="http://purl.org/dc/dcmitype/StillImage" />
      </cc:Work>
    </rdf:RDF>
  </metadata>
  <g
     inkscape:label="Base"
     inkscape:groupmode="layer"
     id="layer1"
     transform="translate(249.80447,-91.409467)">
    <rect
       y="91.40947"
       x="-249.80447"
       height="52.916668"
       width="52.916668"
       id="rect5238-5"
       style="display:inline;fill:#000000;fill-opacity:1;fill-rule:nonzero;stroke:none;stroke-width:0.5;stroke-linecap:butt;stroke-linejoin:round;stroke-miterlimit:4;stroke-dasharray:none;stroke-dashoffset:0;stroke-opacity:0.909449;paint-order:normal"
       rx="14.552089"
       ry="14.552081"
       inkscape:label="Bottom-rectangle" />
    <path
       id="rect18865"
       style="display:inline;fill:#e12420;fill-opacity:1;stroke-width:0.450003;stroke-linejoin:round;stroke-opacity:0.909449"
       d="m -223.34615,94.055153 h 10.71569 c 7.25572,0 13.09696,5.841242 13.09696,13.096957 v 21.43139 h -23.81265 z"
       sodipodi:nodetypes="cssccc"
       inkscape:label="Inner-rectangle" />
    <path
       id="path65"
       style="display:inline;fill:#429b7d;fill-opacity:1;stroke-width:0.450003;stroke-linejoin:round;stroke-opacity:0.909449"
       d="m -234.06184,94.055153 h 10.71569 V 128.5835 h -23.81265 v -21.43139 c 0,-7.255715 5.84125,-13.096957 13.09696,-13.096957 z"
       sodipodi:nodetypes="scccss"
       inkscape:label="Inner-rectangle-2" />
    <g
       id="g1279"
       transform="matrix(1.0449362,0,0,1.0449362,-355.14431,-167.92404)"
       style="display:inline;fill:#000000;fill-opacity:1"
       inkscape:label="Drawing">
      <path
         id="path1264"
         style="fill:#000000;fill-opacity:1;stroke-width:1"
         d="m 120.58213,268.74587 c 2.50496,-0.29796 5.03115,0.15951 7.47294,0.70533 1.71453,0.38326 3.43407,0.91312 4.95867,1.78611 1.50777,0.86336 2.94687,1.95764 4.00561,3.33525 0.88703,1.15419 1.56278,2.53236 1.83654,3.96205 0.29297,1.53001 0.0736,2.77184 -0.26004,4.66619 0.16134,1.03876 0.094,1.85816 -1.08995,1.55474 h -24.59471 c -0.55306,-1.98258 0.0249,-4.06758 0.50271,-6.00967 0.92167,-2.81439 1.59589,-5.89361 3.69105,-8.11326 0.91721,-1.00661 2.22335,-1.46093 3.47616,-1.88711 m -0.1229,8.03359 c 1.81182,-0.0387 2.45457,-2.0106 2.31048,-3.52148 -0.19902,-1.68647 -2.32771,-2.3692 -3.7004,-1.60086 -1.52145,0.58223 -2.53987,2.74433 -1.28593,4.06691 0.63719,0.77034 1.68727,1.17081 2.67642,1.05539 m 12.44157,1.27004 c 1.69602,-0.2414 1.6907,-2.57 0.61059,-3.52816 -0.94372,-0.8846 -2.6424,-1.95165 -3.80724,-0.86264 -0.9397,0.96977 -1.57382,2.94892 -0.11977,3.78108 0.95471,0.71123 2.18087,0.75767 3.31643,0.60935"
         sodipodi:nodetypes="caaaacccccccccccccccc" />
      <path
         id="path1262"
         style="fill:#000000;fill-opacity:1;stroke-width:1"
         d="m 124.06313,264.48747 c 4.90639,-0.29964 11.44346,1.04498 13.86741,5.05856 0.91508,1.13245 2.22033,3.39931 1.09402,4.82768 -1.24342,5.6e-4 -2.04483,-1.73359 -3.18575,-2.33636 -1.52118,-1.70833 -3.79333,-2.30157 -5.86822,-3.02036 -3.73392,-1.4115 -8.739,-1.99083 -12.1308,-0.36743 -0.85797,0.70537 -2.48231,2.10252 -2.51503,0.0361 -0.0349,-1.84011 2.11856,-2.45638 3.52165,-3.00861 1.71407,-0.78551 3.39509,-0.94948 4.96868,-1.15067 l 0.2482,-0.0392"
         sodipodi:nodetypes="cccccccccc" />
      <path
         id="path1260"
         style="fill:#000000;fill-opacity:1;stroke-width:1"
         d="m 130.11277,252.63059 c 1.58639,-0.26078 3.70853,-0.49882 4.78444,0.97023 1.06027,1.60084 1.10982,3.59377 1.51934,5.41156 0.0203,1.79875 0.11769,3.59918 0.39554,5.36391 -0.15095,1.90978 -2.07752,1.03915 -2.99735,0.2589 -2.66542,-1.44933 -5.84408,-1.87571 -8.81984,-1.44564 -1.12655,0.1597 -3.23749,0.95608 -3.80722,-0.12935 0.57068,-1.28529 1.69149,-2.25536 2.36029,-3.50476 1.2297,-1.84953 2.72502,-3.47891 4.07225,-5.23958 0.63544,-0.82311 1.53351,-1.32806 2.49201,-1.68512" />
    </g>
    <path
       id="rect19240"
       style="display:inline;fill:#000000;stroke-width:0.5;stroke-linejoin:round;stroke-opacity:0.909449"
       d="m -196.88781,128.58347 v 1.19059 c 0,8.06185 -6.49023,14.55208 -14.55208,14.55208 h -23.8125 c -8.06185,0 -14.55208,-6.49023 -14.55208,-14.55208 v -1.19059 z"
       sodipodi:nodetypes="csssscc"
       inkscape:label="Bottom-label" />
    <g
       aria-label="MISBEHAVING"
       transform="matrix(0.1713751,0,0,0.1713751,-219.93575,93.447673)"
       id="text9972"
       style="font-size:40px;line-height:1.25;white-space:pre;shape-inside:url(#rect9974);fill:#429b7d">
      <path
         d="m -140.42,263.99321 v -26.08 h 6.44 l 4.2,11.6 q 0.4,1.16 0.76,2.4 0.36,1.2 0.76,2.4 h 0.16 q 0.4,-1.2 0.72,-2.4 0.36,-1.24 0.76,-2.4 l 4.12,-11.6 h 6.4 v 26.08 h -5.36 v -9.56 q 0,-0.96 0.08,-2.12 0.08,-1.16 0.2,-2.32 0.12,-1.2 0.24,-2.32 0.12,-1.16 0.24,-2.12 h -0.16 l -2.12,6.2 -3.72,9.96 h -3.24 l -3.72,-9.96 -2.08,-6.2 h -0.16 q 0.12,0.96 0.24,2.12 0.12,1.12 0.24,2.32 0.12,1.16 0.2,2.32 0.08,1.16 0.08,2.12 v 9.56 z"
         style="font-weight:bold;font-family:'Source Sans Pro';-inkscape-font-specification:'Source Sans Pro Bold'"
         id="path14852" />
      <path
         d="m -109.94003,263.99321 v -26.08 h 5.88 v 26.08 z"
         style="font-weight:bold;font-family:'Source Sans Pro';-inkscape-font-specification:'Source Sans Pro Bold'"
         id="path14854" />
      <path
         d="m -89.940087,264.47321 q -2.56,0 -5.12,-0.92 -2.52,-0.96 -4.52,-2.84 l 3.36,-4.04 q 1.4,1.2 3.08,1.96 1.72,0.76 3.36,0.76 1.84,0 2.72,-0.68 0.92,-0.68 0.92,-1.84 0,-0.6 -0.28,-1.04 -0.24,-0.44 -0.76,-0.76 -0.48,-0.36 -1.2,-0.64 -0.68,-0.32 -1.52,-0.68 l -3.4,-1.44 q -1,-0.4 -1.96,-1.04 -0.92,-0.64 -1.68,-1.48 -0.72,-0.88 -1.16,-2 -0.44,-1.16 -0.44,-2.6 0,-1.6 0.68,-3 0.68,-1.44 1.92,-2.48 1.24,-1.08 2.92,-1.68 1.72,-0.6 3.76,-0.6 2.28,0 4.48,0.88 2.24,0.88 3.92,2.56 l -3,3.72 q -1.28,-1 -2.56,-1.52 -1.28,-0.56 -2.84,-0.56 -1.52,0 -2.44,0.64 -0.88,0.6 -0.88,1.72 0,0.6 0.28,1.04 0.32,0.4 0.84,0.76 0.56,0.32 1.28,0.64 0.72,0.28 1.56,0.64 l 3.36,1.36 q 2.4,0.96 3.76,2.64 1.4,1.68 1.4,4.44 0,1.64 -0.68,3.12 -0.64,1.44 -1.92,2.56 -1.24,1.08 -3.08,1.76 -1.84,0.64 -4.16,0.64 z"
         style="font-weight:bold;font-family:'Source Sans Pro';-inkscape-font-specification:'Source Sans Pro Bold'"
         id="path14856" />
      <path
         d="m -75.660097,263.99321 v -26.08 h 8.92 q 2.04,0 3.76,0.32 1.76,0.28 3.04,1.04 1.32,0.76 2.04,2 0.76,1.24 0.76,3.12 0,0.88 -0.24,1.76 -0.24,0.88 -0.68,1.64 -0.44,0.76 -1.08,1.36 -0.6,0.6 -1.4,0.88 v 0.16 q 1,0.24 1.84,0.76 0.84,0.48 1.48,1.24 0.64,0.76 1,1.8 0.36,1 0.36,2.32 0,2 -0.8,3.44 -0.76,1.44 -2.16,2.4 -1.36,0.92 -3.2,1.4 -1.84,0.44 -3.96,0.44 z m 5.88,-15.64 h 2.76 q 2.16,0 3.12,-0.84 1,-0.84 1,-2.24 0,-1.52 -1,-2.16 -1,-0.64 -3.08,-0.64 h -2.8 z m 0,11.08 h 3.32 q 4.84,0 4.84,-3.52 0,-1.72 -1.2,-2.44 -1.2,-0.76 -3.64,-0.76 h -3.32 z"
         style="font-weight:bold;font-family:'Source Sans Pro';-inkscape-font-specification:'Source Sans Pro Bold'"
         id="path14858" />
      <path
         d="m -51.460115,263.99321 v -26.08 h 16.32 v 4.96 h -10.44 v 5.24 h 8.88 v 4.92 h -8.88 v 6 h 10.84 v 4.96 z"
         style="font-weight:bold;font-family:'Source Sans Pro';-inkscape-font-specification:'Source Sans Pro Bold'"
         id="path14860" />
      <path
         d="m -29.540178,263.99321 v -26.08 h 5.88 v 10.04 h 9 v -10.04 h 5.9199998 v 26.08 h -5.9199998 v -10.88 h -9 v 10.88 z"
         style="font-weight:bold;font-family:'Source Sans Pro';-inkscape-font-specification:'Source Sans Pro Bold'"
         id="path14862" />
      <path
         d="m 3.5398132,250.79321 -0.64,2.4 h 5.56 l -0.6,-2.4 q -0.56,-1.96 -1.08,-4.16 -0.52,-2.2 -1.04,-4.24 h -0.16 q -0.48,2.08 -1,4.28 -0.48,2.16 -1.04,4.12 z m -9.44,13.2 8.16,-26.08 h 7.08 l 8.1599998,26.08 h -6.24 l -1.5999998,-6.2 h -7.96 l -1.59999997,6.2 z"
         style="font-weight:bold;font-family:'Source Sans Pro';-inkscape-font-specification:'Source Sans Pro Bold';fill:#e12420;fill-opacity:1"
         id="path14864" />
      <path
         d="m 24.139749,263.99321 -7.88,-26.08 h 6.24 l 3.12,12.16 q 0.6,2.16 1.04,4.2 0.48,2 1.08,4.16 h 0.16 q 0.56,-2.16 1.04,-4.16 0.48,-2.04 1.04,-4.2 l 3.08,-12.16 h 6 l -7.84,26.08 z"
         style="font-weight:bold;font-family:'Source Sans Pro';-inkscape-font-specification:'Source Sans Pro Bold';fill:#e12420;fill-opacity:1"
         id="path14866" />
      <path
         d="m 41.859739,263.99321 v -26.08 h 5.88 v 26.08 z"
         style="font-weight:bold;font-family:'Source Sans Pro';-inkscape-font-specification:'Source Sans Pro Bold';fill:#e12420;fill-opacity:1"
         id="path14868" />
      <path
         d="m 53.899687,263.99321 v -26.08 h 6.04 l 6.8,12.96 2.56,5.76 h 0.16 q -0.2,-2.08 -0.48,-4.64 -0.24,-2.56 -0.24,-4.88 v -9.2 h 5.6 v 26.08 h -6.04 l -6.8,-13 -2.56,-5.68 h -0.16 q 0.2,2.16 0.44,4.64 0.28,2.48 0.28,4.8 v 9.24 z"
         style="font-weight:bold;font-family:'Source Sans Pro';-inkscape-font-specification:'Source Sans Pro Bold';fill:#e12420;fill-opacity:1"
         id="path14870" />
      <path
         d="m 92.019647,264.47321 q -2.68,0 -5.04,-0.84 -2.32,-0.88 -4.04,-2.56 -1.72,-1.68 -2.72,-4.16 -0.96,-2.52 -0.96,-5.8 0,-3.24 1,-5.76 1,-2.56 2.72,-4.32 1.76,-1.76 4.08,-2.68 2.32,-0.92 4.92,-0.92 2.84,0 4.88,1.04 2.04,1.04 3.320003,2.36 l -3.080003,3.76 q -1,-0.88 -2.12,-1.48 -1.12,-0.6 -2.8,-0.6 -1.52,0 -2.8,0.6 -1.24,0.56 -2.16,1.64 -0.92,1.08 -1.44,2.64 -0.48,1.56 -0.48,3.52 0,4.04 1.8,6.28 1.84,2.2 5.52,2.2 0.8,0 1.56,-0.2 0.76,-0.2 1.24,-0.6 v -4.48 h -4.32 v -4.8 h 9.520003 v 12 q -1.360003,1.32 -3.600003,2.24 -2.24,0.92 -5,0.92 z"
         style="font-weight:bold;font-family:'Source Sans Pro';-inkscape-font-specification:'Source Sans Pro Bold';fill:#e12420;fill-opacity:1"
         id="path14872" />
    </g>
  </g>
</svg>
