<?xml version="1.0" encoding="UTF-8" standalone="no"?>
<svg
   width="200"
   height="200"
   viewBox="0 0 52.916668 52.916666"
   version="1.1"
   id="svg8"
   inkscape:version="1.1 (c68e22c387, 2021-05-23)"
   sodipodi:docname="newbie.svg"
   xmlns:inkscape="http://www.inkscape.org/namespaces/inkscape"
   xmlns:sodipodi="http://sodipodi.sourceforge.net/DTD/sodipodi-0.dtd"
   xmlns="http://www.w3.org/2000/svg"
   xmlns:svg="http://www.w3.org/2000/svg"
   xmlns:rdf="http://www.w3.org/1999/02/22-rdf-syntax-ns#"
   xmlns:cc="http://creativecommons.org/ns#"
   xmlns:dc="http://purl.org/dc/elements/1.1/">
  <defs
     id="defs2">
    <rect
       x="13.5"
       y="227"
       width="223.5"
       height="79"
       id="rect5991" />
    <rect
       x="-168"
       y="105"
       width="122.5"
       height="60.5"
       id="rect2644" />
    <rect
       x="-247"
       y="42"
       width="137"
       height="81.5"
       id="rect1185" />
    <rect
       x="-48.175333"
       y="18.9895"
       width="46.117357"
       height="15.996081"
       id="rect880" />
    <rect
       x="-255.23004"
       y="125.83378"
       width="102.52459"
       height="46.959256"
       id="rect873" />
    <inkscape:path-effect
       effect="envelope"
       id="path-effect4658"
       is_visible="true"
       yy="true"
       xx="true"
       bendpath1="m -199.08406,108.42369 h 7.0057"
       bendpath2="m -192.07836,108.42369 v 6.75242"
       bendpath3="m -199.08406,115.17611 h 7.0057"
       bendpath4="m -199.08406,108.42369 v 6.75242" />
    <inkscape:path-effect
       effect="bend_path"
       id="path-effect4656"
       is_visible="true"
       bendpath="m -192.00142,114.60623 c 2.12577,-0.53066 4.48261,0.85111 7.0057,0"
       prop_scale="1"
       scale_y_rel="false"
       vertical="false"
       bendpath-nodetypes="cc" />
    <inkscape:path-effect
       effect="bounding_box"
       id="path-effect4654"
       is_visible="true"
       linkedpath=""
       visualbounds="false" />
    <linearGradient
       id="linearGradient3288"
       inkscape:swatch="solid">
      <stop
         style="stop-color:#000000;stop-opacity:1;"
         offset="0"
         id="stop3286" />
    </linearGradient>
    <linearGradient
       id="linearGradient1364"
       inkscape:swatch="solid">
      <stop
         style="stop-color:#ffffff;stop-opacity:1;"
         offset="0"
         id="stop1362" />
    </linearGradient>
    <rect
       x="293.80286"
       y="272.58966"
       width="25.455845"
       height="37.830212"
       id="rect1056" />
    <rect
       x="222.73865"
       y="266.22571"
       width="47.376156"
       height="54.09367"
       id="rect1050" />
    <rect
       x="139.30003"
       y="246.42671"
       width="58.336308"
       height="48.790367"
       id="rect1044" />
    <rect
       x="131.1683"
       y="203.64674"
       width="61.871841"
       height="73.892654"
       id="rect1038" />
    <rect
       x="81.67083"
       y="193.04015"
       width="63.63961"
       height="55.507881"
       id="rect1032" />
    <rect
       x="83.085045"
       y="274.35742"
       width="44.194176"
       height="38.890873"
       id="rect1026" />
    <rect
       x="3.5355339"
       y="269.05414"
       width="65.760933"
       height="53.386562"
       id="rect1020" />
    <rect
       x="14.142136"
       y="226.27417"
       width="79.195961"
       height="62.932503"
       id="rect1014" />
    <rect
       x="11.313708"
       y="171.82695"
       width="36.416"
       height="51.618793"
       id="rect1008" />
    <rect
       x="3.1819806"
       y="132.22897"
       width="102.88404"
       height="102.53048"
       id="rect1002" />
  </defs>
  <sodipodi:namedview
     id="base"
     pagecolor="#ffffff"
     bordercolor="#666666"
     borderopacity="1.0"
     inkscape:pageopacity="0.0"
     inkscape:pageshadow="2"
     inkscape:zoom="2"
     inkscape:cx="58"
     inkscape:cy="141.75"
     inkscape:document-units="mm"
     inkscape:current-layer="layer1"
     showgrid="false"
     fit-margin-top="0"
     fit-margin-left="0"
     fit-margin-right="0"
     fit-margin-bottom="0"
     inkscape:window-width="1920"
     inkscape:window-height="1017"
     inkscape:window-x="-8"
     inkscape:window-y="-8"
     inkscape:window-maximized="1"
     showguides="false"
     inkscape:object-nodes="true"
     units="px"
     inkscape:snap-page="true"
     inkscape:document-rotation="0"
     inkscape:pagecheckerboard="1" />
  <metadata
     id="metadata5">
    <rdf:RDF>
      <cc:Work
         rdf:about="">
        <dc:format>image/svg+xml</dc:format>
        <dc:type
           rdf:resource="http://purl.org/dc/dcmitype/StillImage" />
      </cc:Work>
    </rdf:RDF>
  </metadata>
  <g
     inkscape:label="Base"
     inkscape:groupmode="layer"
     id="layer1"
     transform="translate(249.80447,-91.409467)">
    <rect
       y="91.40947"
       x="-249.80447"
       height="52.916668"
       width="52.916668"
       id="rect5238-5"
       style="display:inline;fill:#000000;fill-opacity:1;fill-rule:nonzero;stroke:none;stroke-width:0.5;stroke-linecap:butt;stroke-linejoin:round;stroke-miterlimit:4;stroke-dasharray:none;stroke-dashoffset:0;stroke-opacity:0.909449;paint-order:normal"
       rx="14.552089"
       ry="14.552081"
       inkscape:label="Bottom-rectangle" />
    <path
       id="rect18865"
       style="display:inline;fill:#ff0000;fill-opacity:1;stroke-width:0.450003;stroke-linejoin:round;stroke-opacity:0.909449"
       d="m -234.06184,94.055153 h 21.43138 c 7.25572,0 13.09696,5.841242 13.09696,13.096957 v 21.43139 h -47.6253 v -21.43139 c 0,-7.255715 5.84125,-13.096957 13.09696,-13.096957 z"
       sodipodi:nodetypes="sssccss"
       inkscape:label="Inner-rectangle" />
    <path
       style="fill:#000000;stroke-width:0.260921"
       d="m -221.34327,129.60264 c -3.37993,-0.66107 -6.86364,-2.11358 -8.77235,-5.14258 -2.3149,-3.11131 -2.26265,-7.23391 -1.80144,-10.90424 0.69664,-2.11655 1.73206,-4.16331 3.04473,-5.96695 1.60614,-1.76683 3.48799,-3.4307 5.74719,-4.28375 2.02735,0.45373 4.20888,0.51779 6.21242,1.21363 3.39375,0.96464 5.86993,3.88216 7.1671,7.05603 -1.34903,0.56445 -2.67142,1.5603 -2.74861,3.15855 -0.25073,1.84116 -0.10517,3.75993 0.74911,5.42394 -0.48099,1.69603 -2.463,2.56903 -4.07601,2.8456 -1.87619,0.0529 -3.86569,0.49902 -5.67729,-0.13949 -1.47981,-0.69974 -4.57508,-1.59883 -5.36121,0.33625 -0.004,0.87025 -0.4781,3.15485 0.95772,2.86074 4.02979,-0.0623 8.07938,0.18083 12.09142,-0.25592 2.21851,-0.44456 4.60189,-1.7772 5.14046,-4.13788 1.58707,-0.83509 3.99165,0.38843 5.29072,-1.27612 1.00704,-1.79966 0.87289,-4.17675 0.23283,-6.08412 -0.44564,-1.63112 -2.48886,-1.89282 -2.87199,-3.37015 -0.12267,-2.26478 -1.55108,-4.2075 -2.87763,-5.95534 -0.48331,-0.40565 -2.1681,-2.26995 -0.50854,-1.26394 3.37131,1.94852 6.23991,5.1001 7.044,8.99876 0.59932,2.6484 0.92293,5.43541 0.52933,8.13298 -0.65947,2.30582 -1.40729,4.77982 -3.43028,6.27594 -3.27217,2.41261 -7.54956,2.51006 -11.4519,2.7033 -1.54308,0.0279 -3.10877,0.083 -4.62978,-0.22524 z m 4.96018,-9.13635 c 2.15591,-0.9057 2.13989,-3.63507 1.79373,-5.58779 -0.36206,-2.54718 -3.1981,-1.09677 -4.6637,-0.53239 -1.95069,0.24137 -3.73834,1.46244 -2.79765,3.62298 0.14066,1.96583 1.99551,3.03226 3.83611,2.81394 0.62053,-0.01 1.25244,-0.0813 1.83151,-0.31674 z m -8.23321,-1.13819 c 1.21809,-1.31522 1.82598,-4.76359 -0.7307,-4.88846 -1.54225,-0.3546 -3.05724,-1.2307 -4.66209,-1.06194 -1.08217,1.17999 -0.97569,3.26687 -0.39601,4.70828 0.94135,1.78166 3.38908,2.29895 5.18131,1.72892 0.2285,-0.12651 0.42347,-0.30385 0.60749,-0.4868 z m -1.40158,5.29187 c -0.41938,-2.45094 2.84837,-1.7345 4.05039,-0.84618 2.18254,0.40595 4.43866,0.0851 6.6447,0.0235 2.13254,-0.1084 4.72863,-1.66685 4.60453,-4.05722 -0.60449,-1.34965 -1.39979,-2.78087 -1.01079,-4.32566 -0.15587,-2.31361 3.55813,-2.33622 2.64958,-4.64684 -0.96675,-2.75483 -3.00647,-5.26958 -5.68046,-6.51141 -1.96017,-0.92046 -4.13541,-1.11637 -6.22438,-1.52344 -0.46541,-1.85485 2.85529,-0.79604 4.03951,-1.04713 2.22992,0.14083 4.1961,1.47747 5.92677,2.78963 2.41383,1.99023 4.05923,4.9387 4.32984,8.0611 1.59465,0.5612 2.9013,2.15259 3.16932,3.87411 0.46814,2.06505 -0.95382,4.60969 -3.32076,4.13884 -0.8674,0.003 -1.73298,-0.0644 -2.59938,-0.0987 -0.21094,2.58898 -2.79859,4.10663 -5.12523,4.56643 -3.74313,0.44312 -7.52628,0.19827 -11.28858,0.26061 -0.0551,-0.21922 -0.11004,-0.43845 -0.16506,-0.65767 z m -10.04851,-0.8126 c -0.75089,-1.12241 -0.20175,-3.02768 -2.23004,-2.54331 -1.66532,-0.91134 -1.76681,3.10454 -3.61492,1.56935 -1.59875,-1.43041 0.10493,-3.2386 0.39644,-4.80492 0.53172,-1.82907 2.35334,-1.87788 3.41399,-0.6053 0.66208,-1.99592 -2.11727,-2.63335 -3.32253,-1.32285 -1.17103,0.48567 -3.19811,2.95516 -4.04241,1.10961 1.27155,-0.89774 2.616,-1.8903 4.0277,-2.64004 1.7009,-1.13949 4.42603,-0.23631 4.68448,1.90957 0.25735,2.45658 3.34153,-0.68227 3.7153,1.8669 0.0214,1.79782 0.37458,3.75132 -0.28426,5.45347 -0.65486,0.9072 -2.08476,0.91418 -2.74375,0.008 z"
       id="path60"
       inkscape:label="drawing" />
    <path
       id="rect19240"
       style="display:inline;fill:#000000;stroke-width:0.5;stroke-linejoin:round;stroke-opacity:0.909449"
       d="m -196.88781,128.58347 v 1.19059 c 0,8.06185 -6.49023,14.55208 -14.55208,14.55208 h -23.8125 c -8.06185,0 -14.55208,-6.49023 -14.55208,-14.55208 v -1.19059 z"
       sodipodi:nodetypes="csssscc"
       inkscape:label="Bottom-label" />
    <g
       aria-label=".org"
       transform="matrix(0.26458333,0,0,0.26458333,-176.2503,65.480301)"
       id="text2642"
       style="font-size:26.6667px;line-height:1.25;white-space:pre;shape-inside:url(#rect2644)">
      <path
         d="m -163.73333,129.64884 q -1.17333,0 -1.92,-0.8 -0.74667,-0.8 -0.74667,-1.97334 0,-1.17333 0.74667,-1.97333 0.74667,-0.8 1.92,-0.8 1.17334,0 1.92,0.8 0.74667,0.8 0.74667,1.97333 0,1.17334 -0.74667,1.97334 -0.74666,0.8 -1.92,0.8 z"
         style="font-weight:900;font-family:'Source Sans Pro';-inkscape-font-specification:'Source Sans Pro Heavy'"
         id="path4488" />
      <path
         d="m -152.26666,129.64884 q -1.28,0 -2.48,-0.45333 -1.20001,-0.48 -2.13334,-1.36001 -0.90667,-0.90666 -1.46667,-2.21333 -0.53333,-1.30667 -0.53333,-2.96001 0,-1.65333 0.53333,-2.96 0.56,-1.30667 1.46667,-2.18667 0.93333,-0.90667 2.13334,-1.36 1.2,-0.48 2.48,-0.48 1.28,0 2.45334,0.48 1.2,0.45333 2.10666,1.36 0.93334,0.88 1.49334,2.18667 0.56,1.30667 0.56,2.96 0,1.65334 -0.56,2.96001 -0.56,1.30667 -1.49334,2.21333 -0.90666,0.88001 -2.10666,1.36001 -1.17334,0.45333 -2.45334,0.45333 z m 0,-3.68001 q 1.04,0 1.46667,-0.88 0.45333,-0.90666 0.45333,-2.42667 0,-1.52 -0.45333,-2.4 -0.42667,-0.90667 -1.46667,-0.90667 -1.04,0 -1.49334,0.90667 -0.42666,0.88 -0.42666,2.4 0,1.52001 0.42666,2.42667 0.45334,0.88 1.49334,0.88 z"
         style="font-weight:900;font-family:'Source Sans Pro';-inkscape-font-specification:'Source Sans Pro Heavy'"
         id="path4490" />
      <path
         d="m -143.25333,129.32884 v -13.33335 h 3.73334 l 0.32,2.29334 h 0.10666 q 0.74667,-1.36001 1.76001,-1.97334 1.04,-0.64 2.02667,-0.64 0.61333,0 0.98666,0.08 0.37334,0.0533 0.66667,0.18667 l -0.74667,3.94667 q -0.37333,-0.08 -0.72,-0.13334 -0.32,-0.08 -0.77333,-0.08 -0.72,0 -1.52,0.50667 -0.77334,0.48 -1.25334,1.73334 v 7.41334 z"
         style="font-weight:900;font-family:'Source Sans Pro';-inkscape-font-specification:'Source Sans Pro Heavy'"
         id="path4492" />
      <path
         d="m -127.52001,134.82218 q -1.14666,0 -2.16,-0.18667 -1.01333,-0.16 -1.78667,-0.56 -0.74666,-0.4 -1.2,-1.04 -0.45333,-0.61333 -0.45333,-1.52 0,-1.57334 1.86667,-2.56 v -0.10667 q -0.53334,-0.37334 -0.88,-0.90667 -0.34667,-0.53333 -0.34667,-1.38667 0,-0.69333 0.4,-1.36 0.4,-0.66667 1.09333,-1.14667 v -0.10666 q -0.72,-0.48 -1.28,-1.36001 -0.53333,-0.88 -0.53333,-2.05333 0,-1.22667 0.48,-2.13334 0.48,-0.93333 1.28,-1.52 0.8,-0.61333 1.81334,-0.90667 1.04,-0.29333 2.13333,-0.29333 1.17334,0 2.13334,0.32 h 4.96 v 3.30667 h -1.92 q 0.08,0.24 0.13334,0.61333 0.08,0.37334 0.08,0.77334 0,1.17333 -0.42667,2.02667 -0.42667,0.82667 -1.14667,1.36 -0.72,0.53333 -1.70667,0.8 -0.98667,0.24 -2.10667,0.24 -0.66667,0 -1.49333,-0.18667 -0.21334,0.18667 -0.26667,0.34667 -0.0533,0.13333 -0.0533,0.42667 0,0.45333 0.42666,0.64 0.42667,0.16 1.44001,0.16 h 2 q 2.50667,0 3.86667,0.82667 1.38667,0.8 1.38667,2.64 0,1.09333 -0.56,1.97334 -0.53334,0.90666 -1.54667,1.54666 -0.98667,0.64001 -2.42667,0.98667 -1.41334,0.34667 -3.20001,0.34667 z m 0.42667,-12.42668 q 0.64,0 1.04,-0.45334 0.4,-0.45333 0.4,-1.41333 0,-0.93334 -0.4,-1.36 -0.4,-0.45334 -1.04,-0.45334 -0.64,0 -1.04,0.45334 -0.4,0.42666 -0.4,1.36 0,0.96 0.4,1.41333 0.4,0.45334 1.04,0.45334 z m 0.32,9.60001 q 1.12,0 1.86667,-0.34667 0.74667,-0.32 0.74667,-0.88 0,-0.53333 -0.48,-0.66667 -0.45334,-0.13333 -1.30667,-0.13333 h -1.04 q -0.8,0 -1.22667,-0.0533 -0.4,-0.0267 -0.69333,-0.10667 -0.24,0.24 -0.37334,0.45333 -0.10666,0.21334 -0.10666,0.50667 0,0.64 0.72,0.93334 0.72,0.29333 1.89333,0.29333 z"
         style="font-weight:900;font-family:'Source Sans Pro';-inkscape-font-specification:'Source Sans Pro Heavy'"
         id="path4494" />
    </g>
    <g
       aria-label="NEWBIE"
       transform="matrix(0.26458333,0,0,0.26458333,-245.72459,70.178477)"
       id="text5989"
       style="font-size:40px;line-height:1.25;white-space:pre;shape-inside:url(#rect5991);fill:#ff0000">
      <path
         d="m 16.38,263.49321 v -26 h 7.04 l 5.76,11.6 2.48,5.84 h 0.16 q -0.12,-1.04 -0.28,-2.28 -0.16,-1.24 -0.28,-2.52 -0.12,-1.32 -0.24,-2.6 -0.08,-1.32 -0.08,-2.52 v -7.52 h 6.56 v 26 h -7.04 l -5.76,-11.64 -2.48,-5.8 h -0.16 q 0.24,2.24 0.56,4.88 0.32,2.64 0.32,5.04 v 7.52 z"
         style="font-weight:900;font-family:'Source Sans Pro';-inkscape-font-specification:'Source Sans Pro Heavy'"
         id="path8325" />
      <path
         d="m 43.259959,263.49321 v -26 h 16.8 v 5.76 h -9.92 v 4.08 h 8.48 v 5.76 h -8.48 v 4.64 h 10.32 v 5.76 z"
         style="font-weight:900;font-family:'Source Sans Pro';-inkscape-font-specification:'Source Sans Pro Heavy'"
         id="path8327" />
      <path
         d="m 67.579949,263.49321 -4.56,-26 h 7.04 l 1.44,11.36 q 0.2,2.04 0.44,4.08 0.24,2.04 0.44,4.08 h 0.16 q 0.36,-2.04 0.72,-4.08 0.36,-2.04 0.72,-4.08 l 2.48,-11.36 h 5.76 l 2.48,11.36 q 0.36,1.96 0.72,4.04 0.36,2.04 0.72,4.12 h 0.16 q 0.2,-2.08 0.44,-4.12 0.24,-2.04 0.44,-4.04 l 1.44,-11.36 h 6.56 l -4.32,26 h -8.72 l -2,-10.32 q -0.32,-1.52 -0.56,-3.08 -0.2,-1.56 -0.4,-3 h -0.16 q -0.2,1.44 -0.44,3 -0.2,1.56 -0.52,3.08 l -1.92,10.32 z"
         style="font-weight:900;font-family:'Source Sans Pro';-inkscape-font-specification:'Source Sans Pro Heavy'"
         id="path8329" />
      <path
         d="m 98.459926,263.49321 v -26 h 9.360004 q 2.04,0 3.84,0.32 1.8,0.28 3.12,1 1.32,0.72 2.08,2 0.8,1.24 0.8,3.16 0,0.84 -0.24,1.72 -0.24,0.84 -0.68,1.64 -0.4,0.76 -1,1.36 -0.6,0.6 -1.36,0.88 v 0.16 q 1.88,0.56 3.16,2.04 1.32,1.44 1.32,4.04 0,2 -0.84,3.48 -0.8,1.44 -2.2,2.4 -1.36,0.92 -3.24,1.36 -1.88,0.44 -3.96,0.44 z m 6.880004,-15.84 h 2.32 q 1.68,0 2.48,-0.72 0.8,-0.72 0.8,-1.92 0,-1.2 -0.8,-1.72 -0.8,-0.52 -2.48,-0.52 h -2.32 z m 0,10.56 h 2.8 q 4,0 4,-2.88 0,-1.44 -1,-2.04 -0.96,-0.6 -3,-0.6 h -2.8 z"
         style="font-weight:900;font-family:'Source Sans Pro';-inkscape-font-specification:'Source Sans Pro Heavy'"
         id="path8331" />
      <path
         d="m 122.93991,263.49321 v -26 h 6.88 v 26 z"
         style="font-weight:900;font-family:'Source Sans Pro';-inkscape-font-specification:'Source Sans Pro Heavy'"
         id="path8333" />
      <path
         d="m 135.57991,263.49321 v -26 h 16.8 v 5.76 h -9.92 v 4.08 h 8.48 v 5.76 h -8.48 v 4.64 h 10.32 v 5.76 z"
         style="font-weight:900;font-family:'Source Sans Pro';-inkscape-font-specification:'Source Sans Pro Heavy'"
         id="path8335" />
    </g>
  </g>
</svg>
