<svg width="200" height="200" viewBox="0 0 52.917 52.917" xmlns="http://www.w3.org/2000/svg"><defs><path id="b" d="M13.5 227H237v79H13.5z"/><path id="a" d="M-168 105h122.5v60.5H-168z"/></defs><g transform="translate(249.804 -91.41)"><rect y="91.409" x="-249.804" height="52.917" width="52.917" style="display:inline;fill:#000;fill-opacity:1;fill-rule:nonzero;stroke:none;stroke-width:.5;stroke-linecap:butt;stroke-linejoin:round;stroke-miterlimit:4;stroke-dasharray:none;stroke-dashoffset:0;stroke-opacity:.909449;paint-order:normal" rx="14.552" ry="14.552"/><path style="display:inline;fill:red;fill-opacity:1;stroke-width:.450003;stroke-linejoin:round;stroke-opacity:.909449" d="M-234.062 94.055h21.432a13.068 13.068 0 0 1 13.096 13.097v21.432h-47.625v-21.432a13.068 13.068 0 0 1 13.097-13.097z"/><path style="fill:#000;stroke-width:.260921" d="M-221.343 129.603c-3.38-.661-6.864-2.114-8.773-5.143-2.315-3.111-2.262-7.234-1.801-10.904a21.779 21.779 0 0 1 3.045-5.967c1.606-1.767 3.488-3.43 5.747-4.284 2.027.454 4.209.518 6.212 1.214 3.394.964 5.87 3.882 7.167 7.056-1.349.564-2.671 1.56-2.748 3.158-.251 1.841-.105 3.76.749 5.424-.481 1.696-2.463 2.57-4.076 2.846-1.876.053-3.866.499-5.677-.14-1.48-.7-4.576-1.598-5.362.337-.004.87-.478 3.154.958 2.86 4.03-.062 8.08.181 12.092-.256 2.218-.444 4.601-1.777 5.14-4.137 1.587-.836 3.992.388 5.29-1.277 1.008-1.8.874-4.176.234-6.084-.446-1.63-2.49-1.892-2.872-3.37-.123-2.265-1.552-4.207-2.878-5.955-.483-.406-2.168-2.27-.509-1.264 3.372 1.948 6.24 5.1 7.044 8.999.6 2.648.923 5.435.53 8.133-.66 2.305-1.408 4.78-3.43 6.276-3.273 2.412-7.55 2.51-11.452 2.703-1.544.028-3.11.083-4.63-.225zm4.96-9.137c2.156-.905 2.14-3.635 1.794-5.587-.362-2.548-3.198-1.097-4.664-.533-1.95.241-3.738 1.463-2.798 3.623.141 1.966 1.996 3.032 3.836 2.814.62-.01 1.253-.081 1.832-.317zm-8.233-1.138c1.218-1.315 1.826-4.763-.731-4.888-1.542-.355-3.057-1.231-4.662-1.062-1.082 1.18-.976 3.267-.396 4.708.941 1.782 3.389 2.299 5.181 1.729.229-.127.424-.304.608-.487zm-1.402 5.292c-.42-2.451 2.848-1.735 4.05-.846 2.183.406 4.44.085 6.645.023 2.133-.108 4.729-1.667 4.605-4.057-.605-1.35-1.4-2.78-1.011-4.326-.156-2.313 3.558-2.336 2.65-4.646-.967-2.755-3.007-5.27-5.68-6.512-1.961-.92-4.136-1.116-6.225-1.523-.466-1.855 2.855-.796 4.04-1.047 2.23.14 4.195 1.477 5.926 2.79 2.414 1.99 4.06 4.938 4.33 8.06 1.594.562 2.901 2.153 3.17 3.874.467 2.065-.955 4.61-3.322 4.14-.867.002-1.733-.065-2.599-.1-.211 2.59-2.799 4.107-5.125 4.567-3.743.443-7.527.198-11.289.26l-.165-.657zm-10.048-.813c-.751-1.122-.202-3.027-2.23-2.543-1.666-.911-1.767 3.105-3.615 1.57-1.6-1.431.105-3.24.396-4.806.532-1.829 2.353-1.877 3.414-.605.662-1.996-2.117-2.633-3.322-1.323-1.171.486-3.199 2.956-4.043 1.11 1.272-.898 2.616-1.89 4.028-2.64 1.7-1.14 4.426-.236 4.684 1.91.258 2.456 3.342-.683 3.716 1.866.021 1.798.374 3.752-.285 5.454-.654.907-2.084.914-2.743.008z"/><path style="display:inline;fill:#000;stroke-width:.5;stroke-linejoin:round;stroke-opacity:.909449" d="M-196.888 128.583v1.191a14.52 14.52 0 0 1-14.552 14.552h-23.812a14.52 14.52 0 0 1-14.552-14.552v-1.19z"/><g aria-label=".org" transform="matrix(.26458 0 0 .26458 -176.25 65.48)" style="font-size:26.6667px;line-height:1.25;white-space:pre;shape-inside:url(#a)"><path d="M-163.733 129.649q-1.174 0-1.92-.8-.747-.8-.747-1.973 0-1.174.747-1.974.746-.8 1.92-.8 1.173 0 1.92.8.746.8.746 1.973 0 1.174-.746 1.974-.747.8-1.92.8zM-152.267 129.649q-1.28 0-2.48-.453-1.2-.48-2.133-1.36-.907-.907-1.467-2.214-.533-1.306-.533-2.96 0-1.653.533-2.96.56-1.307 1.467-2.187.933-.906 2.133-1.36 1.2-.48 2.48-.48t2.454.48q1.2.454 2.106 1.36.934.88 1.494 2.187.56 1.307.56 2.96 0 1.654-.56 2.96-.56 1.307-1.494 2.214-.906.88-2.106 1.36-1.174.453-2.454.453zm0-3.68q1.04 0 1.467-.88.453-.907.453-2.427t-.453-2.4q-.427-.907-1.467-.907t-1.493.907q-.427.88-.427 2.4t.427 2.427q.453.88 1.493.88zM-143.253 129.329v-13.334h3.733l.32 2.294h.107q.746-1.36 1.76-1.974 1.04-.64 2.026-.64.614 0 .987.08.373.054.667.187l-.747 3.947q-.373-.08-.72-.134-.32-.08-.773-.08-.72 0-1.52.507-.774.48-1.254 1.734v7.413zM-127.52 134.822q-1.147 0-2.16-.186-1.013-.16-1.787-.56-.746-.4-1.2-1.04-.453-.614-.453-1.52 0-1.574 1.867-2.56v-.107q-.534-.373-.88-.907-.347-.533-.347-1.387 0-.693.4-1.36.4-.666 1.093-1.146v-.107q-.72-.48-1.28-1.36-.533-.88-.533-2.053 0-1.227.48-2.134.48-.933 1.28-1.52.8-.613 1.813-.906 1.04-.294 2.134-.294 1.173 0 2.133.32h4.96v3.307h-1.92q.08.24.133.613.08.374.08.774 0 1.173-.426 2.026-.427.827-1.147 1.36-.72.534-1.707.8-.986.24-2.106.24-.667 0-1.494-.186-.213.186-.266.346-.054.134-.054.427 0 .453.427.64.427.16 1.44.16h2q2.507 0 3.867.827 1.386.8 1.386 2.64 0 1.093-.56 1.973-.533.907-1.546 1.547-.987.64-2.427.987-1.413.346-3.2.346zm.427-12.426q.64 0 1.04-.454.4-.453.4-1.413 0-.934-.4-1.36-.4-.454-1.04-.454t-1.04.454q-.4.426-.4 1.36 0 .96.4 1.413.4.454 1.04.454zm.32 9.6q1.12 0 1.866-.347.747-.32.747-.88 0-.533-.48-.667-.453-.133-1.307-.133h-1.04q-.8 0-1.226-.053-.4-.027-.694-.107-.24.24-.373.453-.107.214-.107.507 0 .64.72.933.72.294 1.894.294z" style="font-weight:900;font-family:'Source Sans Pro';-inkscape-font-specification:'Source Sans Pro Heavy'"/></g><g aria-label="NEWBIE" transform="matrix(.26458 0 0 .26458 -245.725 70.178)" style="font-size:40px;line-height:1.25;white-space:pre;shape-inside:url(#b);fill:red"><path d="M16.38 263.493v-26h7.04l5.76 11.6 2.48 5.84h.16q-.12-1.04-.28-2.28-.16-1.24-.28-2.52-.12-1.32-.24-2.6-.08-1.32-.08-2.52v-7.52h6.56v26h-7.04l-5.76-11.64-2.48-5.8h-.16q.24 2.24.56 4.88.32 2.64.32 5.04v7.52zM43.26 263.493v-26h16.8v5.76h-9.92v4.08h8.48v5.76h-8.48v4.64h10.32v5.76zM67.58 263.493l-4.56-26h7.04l1.44 11.36q.2 2.04.44 4.08t.44 4.08h.16l.72-4.08.72-4.08 2.48-11.36h5.76l2.48 11.36q.36 1.96.72 4.04.36 2.04.72 4.12h.16q.2-2.08.44-4.12t.44-4.04l1.44-11.36h6.56l-4.32 26h-8.72l-2-10.32q-.32-1.52-.56-3.08-.2-1.56-.4-3h-.16q-.2 1.44-.44 3-.2 1.56-.52 3.08l-1.92 10.32zM98.46 263.493v-26h9.36q2.04 0 3.84.32 1.8.28 3.12 1t2.08 2q.8 1.24.8 3.16 0 .84-.24 1.72-.24.84-.68 1.64-.4.76-1 1.36-.6.6-1.36.88v.16q1.88.56 3.16 2.04 1.32 1.44 1.32 4.04 0 2-.84 3.48-.8 1.44-2.2 2.4-1.36.92-3.24 1.36-1.88.44-3.96.44zm6.88-15.84h2.32q1.68 0 2.48-.72t.8-1.92q0-1.2-.8-1.72t-2.48-.52h-2.32zm0 10.56h2.8q4 0 4-2.88 0-1.44-1-2.04-.96-.6-3-.6h-2.8zM122.94 263.493v-26h6.88v26zM135.58 263.493v-26h16.8v5.76h-9.92v4.08h8.48v5.76h-8.48v4.64h10.32v5.76z" style="font-weight:900;font-family:'Source Sans Pro';-inkscape-font-specification:'Source Sans Pro Heavy'"/></g></g></svg>