<svg width="200" height="200" viewBox="0 0 52.917 52.917" xmlns="http://www.w3.org/2000/svg"><defs><path id="a" d="M-209 110.5H64V186h-273z"/></defs><g transform="translate(249.804 -91.41)"><rect y="91.409" x="-249.804" height="52.917" width="52.917" style="display:inline;fill:#000;fill-opacity:1;fill-rule:nonzero;stroke:none;stroke-width:.5;stroke-linecap:butt;stroke-linejoin:round;stroke-miterlimit:4;stroke-dasharray:none;stroke-dashoffset:0;stroke-opacity:.909449;paint-order:normal" rx="14.552" ry="14.552"/><path style="display:inline;fill:#e88401;fill-opacity:1;stroke-width:.450003;stroke-linejoin:round;stroke-opacity:.909449" d="M-234.062 94.055h21.432a13.068 13.068 0 0 1 13.096 13.097v21.432h-47.625v-21.432a13.068 13.068 0 0 1 13.097-13.097z"/><path style="fill:#000;stroke-width:.352778" d="M-229.211 130.74c-2.67-.568-5.502-1.027-7.826-2.54-1.147-1.276 1.685-1.787 2.162-2.916 1.222-1.263 2.477-2.544 3.319-4.1 1.576-.71 3.676.141 5.022-1.259 1.645-1.644 1.524-4.268 1.113-6.381-.859-1.768 1.112-3.187 1.302-4.902.87-2.774 1.505-5.656 1.465-8.577.243-2.151 3.005-.48 4.274-.359 7.27 2.136 12.544 9.156 13.272 16.595.017 2.906.046 5.916-.929 8.69-.821 2.1-2.654 3.503-4.176 5.077-5.857.813-11.8 1.924-17.705.888a49.674 49.674 0 0 1-1.293-.215zm17.847-9.735c1.503-.616 2.619-2.303 2.29-3.993-.343-1.915-1.285-3.968-3.283-4.602-2.32-1.047-4.995.485-5.979 2.652-.153 1.613-.221 3.536.895 4.845 1.39 1.566 3.968 2.404 5.862 1.308zm-27.7 5.082c-.89-1.525 2.195-1.83 2.673-3.178 1.005-1.32 2.546-2.54 2.862-4.212-1.18-1.73-1.14-4.58.839-5.726 1.47-1.32 4.1-.295 4.815-2.544 1.512-2.867 2.427-6.075 2.717-9.301-.323-1.116.332-2.958 1.64-1.848.47 3.053-.564 6.11-1.468 8.994-.25 1.75-2.072 3.13-1.882 4.86.905 1.602.891 3.848-.012 5.454-.957 1.575-2.984 1.025-4.49 1.338-1.413.793-2.042 2.449-3.134 3.596-1.125 1.143-2.566 3.158-4.237 2.987l-.147-.177zm10.987-9.51c.648-.55 2.045-3.536.386-2.337-.728 1.083-1.454 2.17-2.288 3.177-.795-1.132-1.34-2.552-2.581-3.268-.826.937 1.049 2.551 1.61 3.584 1.172 2.205 1.966-.178 2.873-1.155zm-12.316 7.026c-.683-2.561-.512-5.272-.613-7.902-.083-2.957.642-5.903 1.84-8.589 2.298-2.345 4.639-4.74 7.453-6.47 1.775-1.07 3.841-1.392 5.853-1.71.16 3.408-.894 6.758-2.275 9.835-.596 1.782-2.266 2.328-3.944 2.512-1.886.626-3.434 2.288-3.49 4.34-.195 1.361.425 2.603.979 3.796-1.527 1.682-2.828 3.721-4.923 4.735-.438.24-.714-.218-.88-.547z"/><path style="display:inline;fill:#000;stroke-width:.5;stroke-linejoin:round;stroke-opacity:.909449" d="M-196.888 128.583v1.191a14.52 14.52 0 0 1-14.552 14.552h-23.812a14.52 14.52 0 0 1-14.552-14.552v-1.19z"/><g aria-label="PLEASANT" transform="translate(-198.042 106.92) scale(.22042)" style="font-size:40px;line-height:1.25;white-space:pre;shape-inside:url(#a);fill:#e88401"><path d="M-206.12 146.993v-26h9.52q2.12 0 4.04.44 1.92.4 3.36 1.44 1.44 1 2.28 2.68.88 1.64.88 4.08 0 2.4-.88 4.12-.84 1.72-2.28 2.84-1.44 1.08-3.32 1.64-1.88.52-3.92.52h-2.8v8.24zm6.88-13.68h2.48q2.04 0 3-.96 1-.96 1-2.72 0-1.76-1.08-2.48t-3.08-.72h-2.32zM-181.8 146.993v-26h6.88v20.24h9.84v5.76zM-160.6 146.993v-26h16.8v5.76h-9.92v4.08h8.48v5.76h-8.48v4.64h10.32v5.76zM-131.64 134.353l-.44 1.8h4.8l-.44-1.8q-.48-1.88-.96-4.08t-.96-4.16h-.16q-.44 2-.92 4.2-.44 2.16-.92 4.04zm-10 12.64 7.92-26h8.32l7.92 26h-7.28l-1.28-5.52h-7.28l-1.28 5.52zM-106.76 147.473q-2.48 0-5.12-.88-2.6-.92-4.72-2.84l3.92-4.72q1.4 1.12 3 1.84 1.64.68 3.08.68 1.56 0 2.24-.48.72-.48.72-1.36 0-.48-.24-.8-.24-.32-.72-.6-.44-.28-1.08-.52-.64-.28-1.48-.6l-3.24-1.36q-1.04-.4-2-1.04-.96-.68-1.68-1.56-.72-.92-1.16-2.08-.4-1.16-.4-2.56 0-1.68.72-3.12.72-1.48 2-2.56 1.28-1.12 3.04-1.76 1.8-.64 3.92-.64 2.24 0 4.52.84 2.32.84 4.12 2.64l-3.44 4.32q-1.32-.92-2.56-1.4-1.2-.48-2.64-.48-1.28 0-2 .44t-.72 1.32q0 .92 1 1.44 1.04.48 2.84 1.16l3.16 1.24q2.44.96 3.76 2.68 1.32 1.72 1.32 4.44 0 1.64-.68 3.16-.68 1.52-2 2.68-1.28 1.12-3.16 1.8-1.88.68-4.32.68zM-85.72 134.353l-.44 1.8h4.8l-.44-1.8q-.48-1.88-.96-4.08t-.96-4.16h-.16q-.44 2-.92 4.2-.44 2.16-.92 4.04zm-10 12.64 7.92-26h8.32l7.92 26h-7.28l-1.28-5.52h-7.28l-1.28 5.52zM-69.08 146.993v-26h7.04l5.76 11.6 2.48 5.84h.16q-.12-1.04-.28-2.28-.16-1.24-.28-2.52-.12-1.32-.24-2.6-.08-1.32-.08-2.52v-7.52h6.56v26H-55l-5.76-11.64-2.48-5.8h-.16q.24 2.24.56 4.88.32 2.64.32 5.04v7.52zM-37.24 146.993v-20.24h-6.88v-5.76h20.64v5.76h-6.88v20.24z" style="font-weight:900;font-family:'Source Sans Pro';-inkscape-font-specification:'Source Sans Pro Heavy'"/></g></g></svg>