<?xml version="1.0" encoding="UTF-8" standalone="no"?>
<svg
   width="200"
   height="200"
   viewBox="0 0 52.916668 52.916666"
   version="1.1"
   id="svg8"
   inkscape:version="1.1 (c68e22c387, 2021-05-23)"
   sodipodi:docname="pleasant.svg"
   xmlns:inkscape="http://www.inkscape.org/namespaces/inkscape"
   xmlns:sodipodi="http://sodipodi.sourceforge.net/DTD/sodipodi-0.dtd"
   xmlns="http://www.w3.org/2000/svg"
   xmlns:svg="http://www.w3.org/2000/svg"
   xmlns:rdf="http://www.w3.org/1999/02/22-rdf-syntax-ns#"
   xmlns:cc="http://creativecommons.org/ns#"
   xmlns:dc="http://purl.org/dc/elements/1.1/">
  <defs
     id="defs2">
    <rect
       x="-209"
       y="110.5"
       width="273"
       height="75.5"
       id="rect4394" />
    <rect
       x="-247"
       y="42"
       width="137"
       height="81.5"
       id="rect1185" />
    <rect
       x="-48.175333"
       y="18.9895"
       width="46.117357"
       height="15.996081"
       id="rect880" />
    <rect
       x="-255.23004"
       y="125.83378"
       width="102.52459"
       height="46.959256"
       id="rect873" />
    <inkscape:path-effect
       effect="envelope"
       id="path-effect4658"
       is_visible="true"
       yy="true"
       xx="true"
       bendpath1="m -199.08406,108.42369 h 7.0057"
       bendpath2="m -192.07836,108.42369 v 6.75242"
       bendpath3="m -199.08406,115.17611 h 7.0057"
       bendpath4="m -199.08406,108.42369 v 6.75242" />
    <inkscape:path-effect
       effect="bend_path"
       id="path-effect4656"
       is_visible="true"
       bendpath="m -192.00142,114.60623 c 2.12577,-0.53066 4.48261,0.85111 7.0057,0"
       prop_scale="1"
       scale_y_rel="false"
       vertical="false"
       bendpath-nodetypes="cc" />
    <inkscape:path-effect
       effect="bounding_box"
       id="path-effect4654"
       is_visible="true"
       linkedpath=""
       visualbounds="false" />
    <linearGradient
       id="linearGradient3288"
       inkscape:swatch="solid">
      <stop
         style="stop-color:#000000;stop-opacity:1;"
         offset="0"
         id="stop3286" />
    </linearGradient>
    <linearGradient
       id="linearGradient1364"
       inkscape:swatch="solid">
      <stop
         style="stop-color:#ffffff;stop-opacity:1;"
         offset="0"
         id="stop1362" />
    </linearGradient>
    <rect
       x="293.80286"
       y="272.58966"
       width="25.455845"
       height="37.830212"
       id="rect1056" />
    <rect
       x="222.73865"
       y="266.22571"
       width="47.376156"
       height="54.09367"
       id="rect1050" />
    <rect
       x="139.30003"
       y="246.42671"
       width="58.336308"
       height="48.790367"
       id="rect1044" />
    <rect
       x="131.1683"
       y="203.64674"
       width="61.871841"
       height="73.892654"
       id="rect1038" />
    <rect
       x="81.67083"
       y="193.04015"
       width="63.63961"
       height="55.507881"
       id="rect1032" />
    <rect
       x="83.085045"
       y="274.35742"
       width="44.194176"
       height="38.890873"
       id="rect1026" />
    <rect
       x="3.5355339"
       y="269.05414"
       width="65.760933"
       height="53.386562"
       id="rect1020" />
    <rect
       x="14.142136"
       y="226.27417"
       width="79.195961"
       height="62.932503"
       id="rect1014" />
    <rect
       x="11.313708"
       y="171.82695"
       width="36.416"
       height="51.618793"
       id="rect1008" />
    <rect
       x="3.1819806"
       y="132.22897"
       width="102.88404"
       height="102.53048"
       id="rect1002" />
  </defs>
  <sodipodi:namedview
     id="base"
     pagecolor="#ffffff"
     bordercolor="#666666"
     borderopacity="1.0"
     inkscape:pageopacity="0.0"
     inkscape:pageshadow="2"
     inkscape:zoom="2"
     inkscape:cx="58"
     inkscape:cy="141.75"
     inkscape:document-units="mm"
     inkscape:current-layer="layer1"
     showgrid="false"
     fit-margin-top="0"
     fit-margin-left="0"
     fit-margin-right="0"
     fit-margin-bottom="0"
     inkscape:window-width="1920"
     inkscape:window-height="1017"
     inkscape:window-x="-8"
     inkscape:window-y="-8"
     inkscape:window-maximized="1"
     showguides="false"
     inkscape:object-nodes="true"
     units="px"
     inkscape:snap-page="true"
     inkscape:document-rotation="0"
     inkscape:pagecheckerboard="1" />
  <metadata
     id="metadata5">
    <rdf:RDF>
      <cc:Work
         rdf:about="">
        <dc:format>image/svg+xml</dc:format>
        <dc:type
           rdf:resource="http://purl.org/dc/dcmitype/StillImage" />
      </cc:Work>
    </rdf:RDF>
  </metadata>
  <g
     inkscape:label="Base"
     inkscape:groupmode="layer"
     id="layer1"
     transform="translate(249.80447,-91.409467)">
    <rect
       y="91.40947"
       x="-249.80447"
       height="52.916668"
       width="52.916668"
       id="rect5238-5"
       style="display:inline;fill:#000000;fill-opacity:1;fill-rule:nonzero;stroke:none;stroke-width:0.5;stroke-linecap:butt;stroke-linejoin:round;stroke-miterlimit:4;stroke-dasharray:none;stroke-dashoffset:0;stroke-opacity:0.909449;paint-order:normal"
       rx="14.552089"
       ry="14.552081"
       inkscape:label="Bottom-rectangle" />
    <path
       id="rect18865"
       style="display:inline;fill:#e88401;fill-opacity:1;stroke-width:0.450003;stroke-linejoin:round;stroke-opacity:0.909449"
       d="m -234.06184,94.055153 h 21.43138 c 7.25572,0 13.09696,5.841242 13.09696,13.096957 v 21.43139 h -47.6253 v -21.43139 c 0,-7.255715 5.84125,-13.096957 13.09696,-13.096957 z"
       sodipodi:nodetypes="sssccss"
       inkscape:label="Inner-rectangle" />
    <path
       style="fill:#000000;stroke-width:0.352778"
       d="m -229.21105,130.74083 c -2.66947,-0.56929 -5.50188,-1.02765 -7.82582,-2.54157 -1.14664,-1.27512 1.6848,-1.78657 2.16192,-2.91506 1.22171,-1.26296 2.47668,-2.54421 3.31846,-4.10016 1.57692,-0.70974 3.67678,0.14117 5.0222,-1.25885 1.64578,-1.64415 1.5239,-4.26769 1.11336,-6.38124 -0.85885,-1.76783 1.11221,-3.18739 1.30232,-4.9016 0.86924,-2.77453 1.50436,-5.65658 1.46414,-8.57706 0.24319,-2.151375 3.00552,-0.480425 4.27496,-0.359325 7.27044,2.136005 12.54316,9.156505 13.27119,16.595215 0.0175,2.90583 0.046,5.91619 -0.92823,8.68994 -0.82183,2.09961 -2.65422,3.50272 -4.17671,5.07715 -5.85643,0.81245 -11.80032,1.92388 -17.70445,0.88775 -0.43207,-0.0658 -0.86322,-0.13802 -1.29334,-0.21519 z m 17.84691,-9.73616 c 1.5027,-0.61563 2.61895,-2.30255 2.28925,-3.99248 -0.34214,-1.91485 -1.28392,-3.96821 -3.28173,-4.60189 -2.32012,-1.04696 -4.99511,0.48429 -5.97934,2.65157 -0.15313,1.61307 -0.22111,3.5357 0.89544,4.84534 1.3904,1.5661 3.96784,2.404 5.86151,1.30779 z m -27.69924,5.08269 c -0.89019,-1.52523 2.19488,-1.83084 2.67202,-3.17798 1.00553,-1.32063 2.54672,-2.54 2.86246,-4.21241 -1.18019,-1.73 -1.14077,-4.5791 0.8386,-5.72555 1.4707,-1.3198 4.09991,-0.29526 4.81571,-2.54451 1.51152,-2.86727 2.42681,-6.0749 2.71634,-9.30092 -0.32252,-1.11567 0.33202,-2.958005 1.64014,-1.847675 0.46928,3.052465 -0.56406,6.110365 -1.46766,8.994035 -0.24988,1.74906 -2.07177,3.12973 -1.88236,4.85905 0.90468,1.60292 0.89161,3.84888 -0.0114,5.45424 -0.9578,1.57496 -2.98454,1.02535 -4.48969,1.33852 -1.41381,0.79326 -2.04301,2.44875 -3.13517,3.59621 -1.12473,1.14215 -2.56524,3.15771 -4.23627,2.98619 l -0.1476,-0.17624 z m 10.98607,-9.50984 c 0.64785,-0.54992 2.04555,-3.53619 0.38581,-2.33798 -0.72764,1.08315 -1.45307,2.17075 -2.28719,3.17736 -0.79552,-1.13142 -1.33985,-2.55235 -2.58131,-3.26828 -0.82564,0.93758 1.04871,2.55162 1.61036,3.58481 1.1715,2.20468 1.96598,-0.17793 2.87233,-1.15591 z m -12.31531,7.02499 c -0.68361,-2.56061 -0.51285,-5.27125 -0.61342,-7.90177 -0.0828,-2.95677 0.64178,-5.90257 1.84012,-8.58873 2.29792,-2.3447 4.63864,-4.74058 7.4534,-6.47018 1.77466,-1.068945 3.84068,-1.391335 5.85285,-1.709665 0.15985,3.408005 -0.89418,6.757835 -2.27503,9.834875 -0.59608,1.78221 -2.26594,2.32777 -3.94456,2.51194 -1.88564,0.62625 -3.43339,2.28816 -3.49019,4.34057 -0.19492,1.36082 0.42574,2.60272 0.97932,3.79545 -1.52656,1.68196 -2.82814,3.72129 -4.92279,4.73477 -0.438,0.23988 -0.71427,-0.21735 -0.8797,-0.54726 z"
       id="path60"
       inkscape:label="drawing" />
    <path
       id="rect19240"
       style="display:inline;fill:#000000;stroke-width:0.5;stroke-linejoin:round;stroke-opacity:0.909449"
       d="m -196.88781,128.58347 v 1.19059 c 0,8.06185 -6.49023,14.55208 -14.55208,14.55208 h -23.8125 c -8.06185,0 -14.55208,-6.49023 -14.55208,-14.55208 v -1.19059 z"
       sodipodi:nodetypes="csssscc"
       inkscape:label="Bottom-label" />
    <g
       aria-label="PLEASANT"
       transform="matrix(0.22042069,0,0,0.22042069,-198.04183,106.91993)"
       id="text4392"
       style="font-size:40px;line-height:1.25;white-space:pre;shape-inside:url(#rect4394);fill:#e88401">
      <path
         d="m -206.12,146.99321 v -26 h 9.52 q 2.12,0 4.04,0.44 1.92,0.4 3.36,1.44 1.44,1 2.28,2.68 0.88,1.64 0.88,4.08 0,2.4 -0.88,4.12 -0.84,1.72 -2.28,2.84 -1.44,1.08 -3.32,1.64 -1.88,0.52 -3.92,0.52 h -2.8 v 8.24 z m 6.88,-13.68 h 2.48 q 2.04,0 3,-0.96 1,-0.96 1,-2.72 0,-1.76 -1.08,-2.48 -1.08,-0.72 -3.08,-0.72 h -2.32 z"
         style="font-weight:900;font-family:'Source Sans Pro';-inkscape-font-specification:'Source Sans Pro Heavy'"
         id="path12828" />
      <path
         d="m -181.80001,146.99321 v -26 h 6.88 v 20.24 h 9.84 v 5.76 z"
         style="font-weight:900;font-family:'Source Sans Pro';-inkscape-font-specification:'Source Sans Pro Heavy'"
         id="path12830" />
      <path
         d="m -160.60006,146.99321 v -26 h 16.8 v 5.76 h -9.92 v 4.08 h 8.48 v 5.76 h -8.48 v 4.64 h 10.32 v 5.76 z"
         style="font-weight:900;font-family:'Source Sans Pro';-inkscape-font-specification:'Source Sans Pro Heavy'"
         id="path12832" />
      <path
         d="m -131.64007,134.35321 -0.44,1.8 h 4.8 l -0.44,-1.8 q -0.48,-1.88 -0.96,-4.08 -0.48,-2.2 -0.96,-4.16 h -0.16 q -0.44,2 -0.92,4.2 -0.44,2.16 -0.92,4.04 z m -10,12.64 7.92,-26 h 8.32 l 7.92,26 h -7.28 l -1.28,-5.52 h -7.28 l -1.28,5.52 z"
         style="font-weight:900;font-family:'Source Sans Pro';-inkscape-font-specification:'Source Sans Pro Heavy'"
         id="path12834" />
      <path
         d="m -106.76008,147.47321 q -2.48,0 -5.12,-0.88 -2.6,-0.92 -4.72,-2.84 l 3.92,-4.72 q 1.4,1.12 3,1.84 1.64,0.68 3.08,0.68 1.56,0 2.24,-0.48 0.72,-0.48 0.72,-1.36 0,-0.48 -0.24,-0.8 -0.24,-0.32 -0.72,-0.6 -0.44,-0.28 -1.08,-0.52 -0.64,-0.28 -1.48,-0.6 l -3.24,-1.36 q -1.04,-0.4 -2,-1.04 -0.96,-0.68 -1.68,-1.56 -0.72,-0.92 -1.16,-2.08 -0.4,-1.16 -0.4,-2.56 0,-1.68 0.72,-3.12 0.72,-1.48 2,-2.56 1.28,-1.12 3.04,-1.76 1.8,-0.64 3.92,-0.64 2.24,0 4.52,0.84 2.319999,0.84 4.119999,2.64 l -3.439999,4.32 q -1.32,-0.92 -2.56,-1.4 -1.2,-0.48 -2.64,-0.48 -1.28,0 -2,0.44 -0.72,0.44 -0.72,1.32 0,0.92 1,1.44 1.04,0.48 2.84,1.16 l 3.16,1.24 q 2.439999,0.96 3.759999,2.68 1.32,1.72 1.32,4.44 0,1.64 -0.68,3.16 -0.68,1.52 -2,2.68 -1.279999,1.12 -3.159999,1.8 -1.88,0.68 -4.32,0.68 z"
         style="font-weight:900;font-family:'Source Sans Pro';-inkscape-font-specification:'Source Sans Pro Heavy'"
         id="path12836" />
      <path
         d="m -85.720114,134.35321 -0.44,1.8 h 4.8 l -0.44,-1.8 q -0.48,-1.88 -0.96,-4.08 -0.48,-2.2 -0.96,-4.16 h -0.16 q -0.44,2 -0.92,4.2 -0.44,2.16 -0.92,4.04 z m -10,12.64 7.92,-26 h 8.32 l 7.92,26 h -7.28 l -1.28,-5.52 h -7.28 l -1.28,5.52 z"
         style="font-weight:900;font-family:'Source Sans Pro';-inkscape-font-specification:'Source Sans Pro Heavy'"
         id="path12838" />
      <path
         d="m -69.080129,146.99321 v -26 h 7.04 l 5.76,11.6 2.48,5.84 h 0.16 q -0.12,-1.04 -0.28,-2.28 -0.16,-1.24 -0.28,-2.52 -0.12,-1.32 -0.24,-2.6 -0.08,-1.32 -0.08,-2.52 v -7.52 h 6.56 v 26 h -7.04 l -5.76,-11.64 -2.48,-5.8 h -0.16 q 0.24,2.24 0.56,4.88 0.32,2.64 0.32,5.04 v 7.52 z"
         style="font-weight:900;font-family:'Source Sans Pro';-inkscape-font-specification:'Source Sans Pro Heavy'"
         id="path12840" />
      <path
         d="m -37.24017,146.99321 v -20.24 h -6.88 v -5.76 h 20.64 v 5.76 h -6.88 v 20.24 z"
         style="font-weight:900;font-family:'Source Sans Pro';-inkscape-font-specification:'Source Sans Pro Heavy'"
         id="path12842" />
    </g>
  </g>
</svg>
