<svg width="200" height="200" viewBox="0 0 52.917 52.917" xmlns="http://www.w3.org/2000/svg"><defs><path id="a" d="M-159 195.5h284v134h-284z"/></defs><g transform="translate(249.804 -91.41)"><rect y="91.409" x="-249.804" height="52.917" width="52.917" style="display:inline;fill:#000;fill-opacity:1;fill-rule:nonzero;stroke:none;stroke-width:.5;stroke-linecap:butt;stroke-linejoin:round;stroke-miterlimit:4;stroke-dasharray:none;stroke-dashoffset:0;stroke-opacity:.909449;paint-order:normal" rx="14.552" ry="14.552"/><path style="display:inline;fill:#7f3980;fill-opacity:1;stroke-width:.450003;stroke-linejoin:round;stroke-opacity:.909449" d="M-234.062 94.055h21.432a13.068 13.068 0 0 1 13.096 13.097v21.432h-47.625v-21.432a13.068 13.068 0 0 1 13.097-13.097z"/><g style="fill:#000"><path style="fill:#000;fill-opacity:1;stroke-width:1" d="M-70.697 106.948c2.292-.4 4.626.058 6.86.57 1.633.45 3.478.697 4.62 2.101 1.026.995 2.032 2.005 2.834 3.192 1.268 1.721 2.348 3.586 3.282 5.512.849 2.185 1.235 4.525 1.445 6.848.077 2.471.018 4.946.037 7.418h-39.227c-1.044-2.034-.617-4.345-.706-6.537.195-2.244.831-4.444 1.622-6.55 2.415-3.881 1.831-1.735 5.213-3.286 4.717-2.777 10.635-5.775 12.76-9.023.41-.29 1.26-.245 1.26-.243m-2.994 20.247c1.039.166 2.776-1.116.989-1.524-1.388.29-3.962-.361-4.437 1.274 1.026.481 2.337.32 3.448.25m2.001-2.43c1.538-.678 1.218-3.525-.257-4.211-1.299-.952-2.78-1.738-4.433-1.72-1.36-.3-2.526.35-3.334 1.384-.947.792-1.729 2.003-1.418 3.286.922.907 2.473.919 3.728.955 1.472.123 2.912-.513 4.358-.016.454.12.87.342 1.355.322m12.433.367c1.173.105 3.855-1.806 1.856-2.345-1.264.952-3.155.578-4.268 1.546-.083 1.163 1.72.742 2.412.8m.021-2.88c1.892-.442 2.153-2.536 1.964-4.168.256-1.68-.773-3.222-2.195-4.01-1.107-1.206-3.272-1.782-4.343-.217-1.632 1.32-1.95 3.734-.996 5.552.405 1.713 1.952 3.13 3.789 2.916.594-.004 1.193.02 1.782-.072" transform="translate(-150.848 -3.36)"/><path style="fill:#000;fill-opacity:1;stroke-width:.999997" d="M-78.82 98.491c-.2.012-.423.183-.46.369-.034.172.297.437.297.437.345.506.25.468-.218.781 0 0-.476.143-.515.345-.042.213.153.498.367.54.203.039.515-.345.515-.345.652-.436.616-.197 1.005.376l.49.72.546.804a74.752 74.752 0 0 0-3.293 1.97l-.485-.715-.49-.72c-.435-.639-.605-.644.025-1.065 0 0 .476-.144.515-.345.042-.213-.153-.498-.367-.54-.203-.039-.515.345-.515.345-.508.34-.485.39-.812-.092 0 0-.123-.404-.297-.437-.215-.041-.502.15-.544.364-.034.172.298.437.298.437.344.506.25.469-.218.781 0 0-.476.143-.516.345-.041.213.153.498.367.54.203.038.515-.345.515-.345.652-.437.616-.197 1.005.376l.49.72.477.701c-1.03.663-1.998 1.322-2.937 1.973l-.478-.704-.49-.721c-.435-.639-.605-.644.025-1.065 0 0 .476-.144.515-.345.042-.213-.153-.498-.367-.54-.203-.039-.514.345-.514.345-.509.34-.486.39-.813-.092 0 0-.123-.403-.297-.437-.215-.041-.502.151-.544.364-.033.172.298.437.298.437.344.506.25.469-.218.781 0 0-.476.143-.515.345-.042.213.152.498.366.54.203.039.515-.345.515-.345.653-.437.616-.197 1.005.376l.49.72.486.714a310.046 310.046 0 0 0-3.093 2.2l-.535-.787-.49-.721c-.434-.64-.605-.644.026-1.065 0 0 .475-.144.515-.345.042-.213-.153-.498-.367-.54-.203-.039-.515.345-.515.345-.508.34-.485.39-.812-.092 0 0-.123-.403-.297-.437-.215-.041-.502.151-.544.364-.033.172.297.437.297.437.345.506.25.469-.218.781 0 0-.475.144-.515.345-.042.213.153.498.367.54.203.039.515-.345.515-.345.653-.437.616-.197 1.005.376l.49.72.547.804c-1.102.79-2.17 1.543-3.167 2.2l-.612-.9-.49-.72c-.435-.64-.605-.644.025-1.066 0 0 .476-.143.515-.345.042-.212-.152-.497-.366-.539-.203-.039-.515.345-.515.345-.509.34-.485.39-.813-.092 0 0-.123-.403-.297-.437-.215-.041-.502.151-.543.364-.034.172.297.437.297.437.344.506.25.469-.218.781 0 0-.476.143-.516.345-.041.213.154.498.367.54.204.039.515-.345.515-.345.652-.437.616-.197 1.006.376l.49.72c1.327 1.879 3.941 5.582 6.177 4.493 2.235-1.089 9.908-5.866 11.705-7.31 1.797-1.443-1.002-4.878-2.62-7.26l-.49-.72c-.435-.64-.606-.645.024-1.066 0 0 .476-.143.516-.345.041-.213-.153-.498-.367-.54-.203-.039-.515.345-.515.345-.508.34-.485.39-.812-.092 0 0-.124-.403-.298-.437a.347.347 0 0 0-.083-.004z" transform="translate(-150.848 -3.36)"/></g><path style="display:inline;fill:#000;stroke-width:.5;stroke-linejoin:round;stroke-opacity:.909449" d="M-196.888 128.583v1.191a14.52 14.52 0 0 1-14.552 14.552h-23.812a14.52 14.52 0 0 1-14.552-14.552v-1.19z"/><g aria-label="SCHIZO" transform="translate(-196.597 72.782) scale(.29075)" style="font-size:40px;line-height:1.25;white-space:pre;shape-inside:url(#a);fill:#7f3980"><path d="M-147.88 232.473q-2.48 0-5.12-.88-2.6-.92-4.72-2.84l3.92-4.72q1.4 1.12 3 1.84 1.64.68 3.08.68 1.56 0 2.24-.48.72-.48.72-1.36 0-.48-.24-.8-.24-.32-.72-.6-.44-.28-1.08-.52-.64-.28-1.48-.6l-3.24-1.36q-1.04-.4-2-1.04-.96-.68-1.68-1.56-.72-.92-1.16-2.08-.4-1.16-.4-2.56 0-1.68.72-3.12.72-1.48 2-2.56 1.28-1.12 3.04-1.76 1.8-.64 3.92-.64 2.24 0 4.52.84 2.32.84 4.12 2.64l-3.44 4.32q-1.32-.92-2.56-1.4-1.2-.48-2.64-.48-1.28 0-2 .44t-.72 1.32q0 .92 1 1.44 1.04.48 2.84 1.16l3.16 1.24q2.44.96 3.76 2.68 1.32 1.72 1.32 4.44 0 1.64-.68 3.16-.68 1.52-2 2.68-1.28 1.12-3.16 1.8-1.88.68-4.32.68zM-122.28 232.473q-2.48 0-4.76-.8-2.24-.84-3.96-2.48-1.68-1.68-2.68-4.16-1-2.52-1-5.84 0-3.28 1.04-5.8 1.04-2.56 2.76-4.28 1.76-1.76 4-2.68 2.28-.92 4.76-.92 2.6 0 4.64 1.04 2.04 1 3.44 2.4l-3.6 4.4q-.96-.84-2-1.36-1-.56-2.32-.56-1.16 0-2.2.52-1 .52-1.8 1.48-.76.96-1.24 2.36-.44 1.4-.44 3.16 0 3.68 1.52 5.64 1.56 1.96 4.08 1.96 1.52 0 2.68-.64 1.2-.68 2.04-1.6l3.6 4.32q-1.68 1.92-3.88 2.88-2.16.96-4.68.96zM-110.12 231.993v-26h6.88v9.68h7.76v-9.68h6.88v26h-6.88v-10.32h-7.76v10.32zM-82.84 231.993v-26h6.88v26zM-71.8 231.993v-4.16l10.64-16.08h-9.6v-5.76h18.08v4.16l-10.64 16.08h10.72v5.76zM-38.36 232.473q-2.72 0-4.96-.92-2.2-.92-3.8-2.64-1.56-1.76-2.44-4.28-.88-2.56-.88-5.76 0-3.2.88-5.68.88-2.52 2.44-4.2 1.6-1.72 3.8-2.6 2.24-.88 4.96-.88 2.68 0 4.92.88 2.24.88 3.8 2.6 1.6 1.72 2.48 4.2.88 2.48.88 5.68 0 3.2-.88 5.76-.88 2.52-2.48 4.28-1.56 1.72-3.8 2.64-2.24.92-4.92.92zm0-5.92q2.36 0 3.68-2.04 1.36-2.08 1.36-5.64 0-3.56-1.36-5.48-1.32-1.96-3.68-1.96-2.36 0-3.72 1.96-1.32 1.92-1.32 5.48 0 3.56 1.32 5.64 1.36 2.04 3.72 2.04z" style="font-weight:900;font-family:'Source Sans Pro';-inkscape-font-specification:'Source Sans Pro Heavy'"/></g></g></svg>