<?xml version="1.0" encoding="UTF-8" standalone="no"?>
<svg
   width="200"
   height="200"
   viewBox="0 0 52.916668 52.916666"
   version="1.1"
   id="svg8"
   inkscape:version="1.1 (c68e22c387, 2021-05-23)"
   sodipodi:docname="schizo.svg"
   xmlns:inkscape="http://www.inkscape.org/namespaces/inkscape"
   xmlns:sodipodi="http://sodipodi.sourceforge.net/DTD/sodipodi-0.dtd"
   xmlns="http://www.w3.org/2000/svg"
   xmlns:svg="http://www.w3.org/2000/svg"
   xmlns:rdf="http://www.w3.org/1999/02/22-rdf-syntax-ns#"
   xmlns:cc="http://creativecommons.org/ns#"
   xmlns:dc="http://purl.org/dc/elements/1.1/">
  <defs
     id="defs2">
    <rect
       x="-159"
       y="195.5"
       width="284"
       height="134"
       id="rect3668" />
    <rect
       x="-247"
       y="42"
       width="137"
       height="81.5"
       id="rect1185" />
    <rect
       x="-48.175333"
       y="18.9895"
       width="46.117357"
       height="15.996081"
       id="rect880" />
    <rect
       x="-255.23004"
       y="125.83378"
       width="102.52459"
       height="46.959256"
       id="rect873" />
    <inkscape:path-effect
       effect="envelope"
       id="path-effect4658"
       is_visible="true"
       yy="true"
       xx="true"
       bendpath1="m -199.08406,108.42369 h 7.0057"
       bendpath2="m -192.07836,108.42369 v 6.75242"
       bendpath3="m -199.08406,115.17611 h 7.0057"
       bendpath4="m -199.08406,108.42369 v 6.75242" />
    <inkscape:path-effect
       effect="bend_path"
       id="path-effect4656"
       is_visible="true"
       bendpath="m -192.00142,114.60623 c 2.12577,-0.53066 4.48261,0.85111 7.0057,0"
       prop_scale="1"
       scale_y_rel="false"
       vertical="false"
       bendpath-nodetypes="cc" />
    <inkscape:path-effect
       effect="bounding_box"
       id="path-effect4654"
       is_visible="true"
       linkedpath=""
       visualbounds="false" />
    <linearGradient
       id="linearGradient3288"
       inkscape:swatch="solid">
      <stop
         style="stop-color:#000000;stop-opacity:1;"
         offset="0"
         id="stop3286" />
    </linearGradient>
    <linearGradient
       id="linearGradient1364"
       inkscape:swatch="solid">
      <stop
         style="stop-color:#ffffff;stop-opacity:1;"
         offset="0"
         id="stop1362" />
    </linearGradient>
    <rect
       x="293.80286"
       y="272.58966"
       width="25.455845"
       height="37.830212"
       id="rect1056" />
    <rect
       x="222.73865"
       y="266.22571"
       width="47.376156"
       height="54.09367"
       id="rect1050" />
    <rect
       x="139.30003"
       y="246.42671"
       width="58.336308"
       height="48.790367"
       id="rect1044" />
    <rect
       x="131.1683"
       y="203.64674"
       width="61.871841"
       height="73.892654"
       id="rect1038" />
    <rect
       x="81.67083"
       y="193.04015"
       width="63.63961"
       height="55.507881"
       id="rect1032" />
    <rect
       x="83.085045"
       y="274.35742"
       width="44.194176"
       height="38.890873"
       id="rect1026" />
    <rect
       x="3.5355339"
       y="269.05414"
       width="65.760933"
       height="53.386562"
       id="rect1020" />
    <rect
       x="14.142136"
       y="226.27417"
       width="79.195961"
       height="62.932503"
       id="rect1014" />
    <rect
       x="11.313708"
       y="171.82695"
       width="36.416"
       height="51.618793"
       id="rect1008" />
    <rect
       x="3.1819806"
       y="132.22897"
       width="102.88404"
       height="102.53048"
       id="rect1002" />
  </defs>
  <sodipodi:namedview
     id="base"
     pagecolor="#ffffff"
     bordercolor="#666666"
     borderopacity="1.0"
     inkscape:pageopacity="0.0"
     inkscape:pageshadow="2"
     inkscape:zoom="2"
     inkscape:cx="58"
     inkscape:cy="141.75"
     inkscape:document-units="mm"
     inkscape:current-layer="layer1"
     showgrid="false"
     fit-margin-top="0"
     fit-margin-left="0"
     fit-margin-right="0"
     fit-margin-bottom="0"
     inkscape:window-width="1920"
     inkscape:window-height="1017"
     inkscape:window-x="-8"
     inkscape:window-y="-8"
     inkscape:window-maximized="1"
     showguides="false"
     inkscape:object-nodes="true"
     units="px"
     inkscape:snap-page="true"
     inkscape:document-rotation="0"
     inkscape:pagecheckerboard="1" />
  <metadata
     id="metadata5">
    <rdf:RDF>
      <cc:Work
         rdf:about="">
        <dc:format>image/svg+xml</dc:format>
        <dc:type
           rdf:resource="http://purl.org/dc/dcmitype/StillImage" />
      </cc:Work>
    </rdf:RDF>
  </metadata>
  <g
     inkscape:label="Base"
     inkscape:groupmode="layer"
     id="layer1"
     transform="translate(249.80447,-91.409467)">
    <rect
       y="91.40947"
       x="-249.80447"
       height="52.916668"
       width="52.916668"
       id="rect5238-5"
       style="display:inline;fill:#000000;fill-opacity:1;fill-rule:nonzero;stroke:none;stroke-width:0.5;stroke-linecap:butt;stroke-linejoin:round;stroke-miterlimit:4;stroke-dasharray:none;stroke-dashoffset:0;stroke-opacity:0.909449;paint-order:normal"
       rx="14.552089"
       ry="14.552081"
       inkscape:label="Bottom-rectangle" />
    <path
       id="rect18865"
       style="display:inline;fill:#7f3980;fill-opacity:1;stroke-width:0.450003;stroke-linejoin:round;stroke-opacity:0.909449"
       d="m -234.06184,94.055153 h 21.43138 c 7.25572,0 13.09696,5.841242 13.09696,13.096957 v 21.43139 h -47.6253 v -21.43139 c 0,-7.255715 5.84125,-13.096957 13.09696,-13.096957 z"
       sodipodi:nodetypes="sssccss"
       inkscape:label="Inner-rectangle" />
    <g
       id="g39"
       transform="translate(-150.84765,-3.36086)"
       style="fill:#000000"
       inkscape:label="Drawing">
      <path
         id="path954-3"
         style="fill:#000000;fill-opacity:1;stroke-width:1"
         d="m -70.697381,106.94843 c 2.292277,-0.40068 4.625908,0.0575 6.860217,0.56953 1.633467,0.45095 3.478549,0.69737 4.620237,2.10101 1.026019,0.99476 2.032409,2.00525 2.834404,3.19202 1.267672,1.72139 2.347896,3.58599 3.281292,5.51211 0.84882,2.18531 1.234885,4.52456 1.444818,6.84763 0.07767,2.47134 0.01841,4.94583 0.03696,7.41851 h -39.226159 c -1.044329,-2.03412 -0.617402,-4.34573 -0.70685,-6.53767 0.195001,-2.24315 0.831806,-4.44315 1.622138,-6.54949 2.415209,-3.88105 1.831546,-1.73504 5.21373,-3.2856 4.716937,-2.77774 10.634794,-5.77524 12.759071,-9.02354 0.411324,-0.28991 1.260142,-0.24451 1.260084,-0.24313 m -2.993214,20.24729 c 1.038243,0.16608 2.775982,-1.1166 0.988188,-1.5238 -1.387477,0.28902 -3.961426,-0.36135 -4.436979,1.27359 1.026607,0.48155 2.337501,0.31961 3.448925,0.24928 m 2.000689,-2.42955 c 1.538202,-0.67723 1.217697,-3.52489 -0.256798,-4.21101 -1.299044,-0.95174 -2.779866,-1.73804 -4.433776,-1.71914 -1.358734,-0.2999 -2.525309,0.34964 -3.333576,1.38331 -0.94658,0.79214 -1.728785,2.00307 -1.418169,3.28586 0.92224,0.90695 2.473399,0.91888 3.728421,0.95503 1.471827,0.1233 2.912014,-0.51266 4.357566,-0.0156 0.454029,0.11956 0.869504,0.3417 1.355505,0.3216 m 12.432505,0.36767 c 1.173448,0.10504 3.855126,-1.8068 1.855757,-2.3457 -1.263175,0.95277 -3.154255,0.57873 -4.267158,1.54588 -0.083,1.16397 1.720444,0.74295 2.411454,0.80007 m 0.02148,-2.87917 c 1.891479,-0.44229 2.153002,-2.53626 1.963125,-4.16835 0.256052,-1.68019 -0.772877,-3.22187 -2.194316,-4.00994 -1.1073,-1.20662 -3.272431,-1.78185 -4.343208,-0.21747 -1.631773,1.31946 -1.950341,3.73396 -0.995541,5.55186 0.404187,1.71339 1.951889,3.13004 3.78815,2.91676 0.594103,-0.004 1.193571,0.0195 1.782617,-0.0726"
         sodipodi:nodetypes="cccccccccccccccccccccccccccccccccccc" />
      <path
         id="path1059"
         style="fill:#000000;fill-opacity:1;stroke-width:0.999997"
         d="m -78.819936,98.491232 c -0.19919,0.01197 -0.423473,0.182448 -0.459949,0.368533 -0.03369,0.172429 0.297238,0.436752 0.297238,0.436752 0.344233,0.506435 0.249298,0.468906 -0.218107,0.781713 0,0 -0.475808,0.14323 -0.515343,0.34498 -0.04163,0.21291 0.153157,0.49772 0.366971,0.53931 0.203346,0.0392 0.514848,-0.34449 0.514848,-0.34449 0.652215,-0.43649 0.616048,-0.19691 1.005465,0.37589 l 0.489624,0.72038 0.546006,0.80381 c -1.150995,0.64834 -2.246932,1.30809 -3.292358,1.96975 l -0.485669,-0.71448 -0.490121,-0.72038 c -0.434452,-0.639 -0.604842,-0.64368 0.02522,-1.06536 0,0 0.475788,-0.14321 0.515344,-0.34498 0.04163,-0.2129 -0.153244,-0.49767 -0.366972,-0.53931 -0.203356,-0.0392 -0.514847,0.34449 -0.514847,0.34449 -0.508398,0.34025 -0.485163,0.38937 -0.812582,-0.0922 0,0 -0.123263,-0.40338 -0.297238,-0.43675 -0.214437,-0.0413 -0.501845,0.15095 -0.543532,0.36363 v 5e-4 c -0.03369,0.17242 0.297731,0.43674 0.297731,0.43674 0.344233,0.50645 0.249301,0.46892 -0.218106,0.78173 0,0 -0.475807,0.14273 -0.515342,0.34448 -0.04163,0.2129 0.152662,0.49771 0.366476,0.53931 0.203346,0.0392 0.515344,-0.34449 0.515344,-0.34449 0.652213,-0.43649 0.615554,-0.19692 1.004968,0.37589 l 0.490119,0.72038 0.476768,0.70125 c -1.03023,0.66317 -1.998203,1.32141 -2.936764,1.97221 l -0.478249,-0.7037 -0.490122,-0.72087 c -0.434452,-0.639 -0.604841,-0.64368 0.02522,-1.06536 0,0 0.475788,-0.14321 0.515343,-0.34497 0.04163,-0.2129 -0.153243,-0.49768 -0.366971,-0.53931 -0.203357,-0.0392 -0.514848,0.34449 -0.514848,0.34449 -0.508398,0.34024 -0.485163,0.38986 -0.812581,-0.0917 0,0 -0.123263,-0.40337 -0.297238,-0.43675 -0.214437,-0.0414 -0.501845,0.15096 -0.543533,0.36363 -0.03369,0.17242 0.297732,0.43675 0.297732,0.43675 0.344233,0.50644 0.249301,0.46891 -0.218107,0.78171 0,0 -0.475806,0.14275 -0.51534,0.34449 -0.04163,0.2129 0.152661,0.4982 0.366474,0.5398 0.203346,0.0392 0.515345,-0.34498 0.515345,-0.34498 0.652212,-0.43648 0.615553,-0.19692 1.004968,0.3759 l 0.490119,0.72087 0.485175,0.71351 c -1.096315,0.76772 -2.103548,1.48903 -3.092553,2.19942 l -0.534631,-0.78663 -0.490122,-0.72087 c -0.434452,-0.639 -0.604841,-0.64368 0.02522,-1.06537 0,0 0.475788,-0.14321 0.515343,-0.34497 0.04163,-0.2129 -0.152747,-0.49768 -0.366478,-0.53931 -0.203353,-0.0392 -0.515341,0.34498 -0.515341,0.34498 -0.508396,0.34025 -0.484669,0.38937 -0.812086,-0.0922 0,0 -0.123264,-0.40338 -0.297237,-0.43675 -0.214437,-0.0413 -0.501845,0.15095 -0.543535,0.36363 -0.03369,0.17242 0.297238,0.43674 0.297238,0.43674 0.344233,0.50644 0.249301,0.46891 -0.218107,0.78171 0,0 -0.475806,0.14324 -0.515341,0.34499 -0.04163,0.2129 0.153156,0.4977 0.366972,0.53931 0.203343,0.0392 0.515341,-0.34499 0.515341,-0.34499 0.652215,-0.43648 0.615553,-0.19691 1.004969,0.3759 l 0.49012,0.72087 0.546501,0.8038 c -1.10196,0.78943 -2.170393,1.54287 -3.167233,2.19991 l -0.611785,-0.89998 -0.490118,-0.72038 c -0.434455,-0.639 -0.604845,-0.64368 0.02522,-1.06536 0,0 0.475789,-0.14321 0.515342,-0.34498 0.04163,-0.2129 -0.152748,-0.49768 -0.366476,-0.53931 -0.203356,-0.0392 -0.515343,0.34449 -0.515343,0.34449 -0.508397,0.34025 -0.484669,0.38986 -0.812086,-0.0917 0,0 -0.123758,-0.40337 -0.297732,-0.43674 -0.214437,-0.0413 -0.50135,0.15095 -0.543038,0.36362 -0.03369,0.17242 0.297237,0.43674 0.297237,0.43674 0.344233,0.50645 0.249299,0.46892 -0.218105,0.78172 0,0 -0.475809,0.14274 -0.515345,0.34449 -0.04163,0.2129 0.153158,0.4982 0.366973,0.53979 0.203346,0.0392 0.514847,-0.34497 0.514847,-0.34497 0.652214,-0.43649 0.616047,-0.19692 1.005465,0.37589 l 0.489624,0.72088 c 1.327771,1.87841 3.941825,5.5821 6.177192,4.49305 2.235365,-1.08907 9.90872,-5.86642 11.705506,-7.3098 1.796785,-1.44339 -1.001671,-4.8787 -2.620732,-7.26074 l -0.490118,-0.72038 c -0.434456,-0.638999 -0.604845,-0.644169 0.02522,-1.06585 0,0 0.475788,-0.142726 0.515341,-0.344489 0.04163,-0.212902 -0.152748,-0.498163 -0.366476,-0.539794 -0.203356,-0.03922 -0.515344,0.344982 -0.515344,0.344982 -0.508395,0.340244 -0.484669,0.389367 -0.812085,-0.09221 0,0 -0.123759,-0.403374 -0.297731,-0.436743 -0.02681,-0.0047 -0.05463,-0.0066 -0.08309,-0.0047 z"
         sodipodi:nodetypes="sccccccccccccccccccccccccccccccscccccccccccccccccscccccccccccccccccccccccccccccccczzcccccccsss" />
    </g>
    <path
       id="rect19240"
       style="display:inline;fill:#000000;stroke-width:0.5;stroke-linejoin:round;stroke-opacity:0.909449"
       d="m -196.88781,128.58347 v 1.19059 c 0,8.06185 -6.49023,14.55208 -14.55208,14.55208 h -23.8125 c -8.06185,0 -14.55208,-6.49023 -14.55208,-14.55208 v -1.19059 z"
       sodipodi:nodetypes="csssscc"
       inkscape:label="Bottom-label" />
    <g
       aria-label="SCHIZO"
       transform="matrix(0.29075183,0,0,0.29075183,-196.59695,72.782128)"
       id="text3666"
       style="font-size:40px;line-height:1.25;white-space:pre;shape-inside:url(#rect3668);fill:#7f3980">
      <path
         d="m -147.88,232.47321 q -2.48,0 -5.12,-0.88 -2.6,-0.92 -4.72,-2.84 l 3.92,-4.72 q 1.4,1.12 3,1.84 1.64,0.68 3.08,0.68 1.56,0 2.24,-0.48 0.72,-0.48 0.72,-1.36 0,-0.48 -0.24,-0.8 -0.24,-0.32 -0.72,-0.6 -0.44,-0.28 -1.08,-0.52 -0.64,-0.28 -1.48,-0.6 l -3.24,-1.36 q -1.04,-0.4 -2,-1.04 -0.96,-0.68 -1.68,-1.56 -0.72,-0.92 -1.16,-2.08 -0.4,-1.16 -0.4,-2.56 0,-1.68 0.72,-3.12 0.72,-1.48 2,-2.56 1.28,-1.12 3.04,-1.76 1.8,-0.64 3.92,-0.64 2.24,0 4.52,0.84 2.32,0.84 4.12,2.64 l -3.44,4.32 q -1.32,-0.92 -2.56,-1.4 -1.2,-0.48 -2.64,-0.48 -1.28,0 -2,0.44 -0.72,0.44 -0.72,1.32 0,0.92 1,1.44 1.04,0.48 2.84,1.16 l 3.16,1.24 q 2.44,0.96 3.76,2.68 1.32,1.72 1.32,4.44 0,1.64 -0.68,3.16 -0.68,1.52 -2,2.68 -1.28,1.12 -3.16,1.8 -1.88,0.68 -4.32,0.68 z"
         style="font-weight:900;font-family:'Source Sans Pro';-inkscape-font-specification:'Source Sans Pro Heavy'"
         id="path7938" />
      <path
         d="m -122.28003,232.47321 q -2.48,0 -4.76,-0.8 -2.24,-0.84 -3.96,-2.48 -1.68,-1.68 -2.68,-4.16 -1,-2.52 -1,-5.84 0,-3.28 1.04,-5.8 1.04,-2.56 2.76,-4.28 1.76,-1.76 4,-2.68 2.28,-0.92 4.76,-0.92 2.6,0 4.64,1.04 2.04,1 3.44,2.4 l -3.6,4.4 q -0.96,-0.84 -2,-1.36 -1,-0.56 -2.32,-0.56 -1.16,0 -2.2,0.52 -1,0.52 -1.8,1.48 -0.76,0.96 -1.24,2.36 -0.44,1.4 -0.44,3.16 0,3.68 1.52,5.64 1.56,1.96 4.08,1.96 1.52,0 2.68,-0.64 1.2,-0.68 2.04,-1.6 l 3.6,4.32 q -1.68,1.92 -3.88,2.88 -2.16,0.96 -4.68,0.96 z"
         style="font-weight:900;font-family:'Source Sans Pro';-inkscape-font-specification:'Source Sans Pro Heavy'"
         id="path7940" />
      <path
         d="m -110.12009,231.99321 v -26 h 6.88 v 9.68 h 7.759998 v -9.68 h 6.88 v 26 h -6.88 v -10.32 h -7.759998 v 10.32 z"
         style="font-weight:900;font-family:'Source Sans Pro';-inkscape-font-specification:'Source Sans Pro Heavy'"
         id="path7942" />
      <path
         d="m -82.840123,231.99321 v -26 h 6.88 v 26 z"
         style="font-weight:900;font-family:'Source Sans Pro';-inkscape-font-specification:'Source Sans Pro Heavy'"
         id="path7944" />
      <path
         d="m -71.800124,231.99321 v -4.16 l 10.64,-16.08 h -9.6 v -5.76 h 18.08 v 4.16 l -10.64,16.08 h 10.72 v 5.76 z"
         style="font-weight:900;font-family:'Source Sans Pro';-inkscape-font-specification:'Source Sans Pro Heavy'"
         id="path7946" />
      <path
         d="m -38.36015,232.47321 q -2.72,0 -4.96,-0.92 -2.2,-0.92 -3.8,-2.64 -1.56,-1.76 -2.44,-4.28 -0.88,-2.56 -0.88,-5.76 0,-3.2 0.88,-5.68 0.88,-2.52 2.44,-4.2 1.6,-1.72 3.8,-2.6 2.24,-0.88 4.96,-0.88 2.68,0 4.92,0.88 2.24,0.88 3.8,2.6 1.6,1.72 2.48,4.2 0.88,2.48 0.88,5.68 0,3.2 -0.88,5.76 -0.88,2.52 -2.48,4.28 -1.56,1.72 -3.8,2.64 -2.24,0.92 -4.92,0.92 z m 0,-5.92 q 2.36,0 3.68,-2.04 1.36,-2.08 1.36,-5.64 0,-3.56 -1.36,-5.48 -1.32,-1.96 -3.68,-1.96 -2.36,0 -3.72,1.96 -1.32,1.92 -1.32,5.48 0,3.56 1.32,5.64 1.36,2.04 3.72,2.04 z"
         style="font-weight:900;font-family:'Source Sans Pro';-inkscape-font-specification:'Source Sans Pro Heavy'"
         id="path7948" />
    </g>
  </g>
</svg>
