<?xml version="1.0" encoding="UTF-8" standalone="no"?>
<svg
   width="200"
   height="200"
   viewBox="0 0 52.916668 52.916666"
   version="1.1"
   id="svg8"
   inkscape:version="1.1 (c68e22c387, 2021-05-23)"
   sodipodi:docname="sincerity.svg"
   xmlns:inkscape="http://www.inkscape.org/namespaces/inkscape"
   xmlns:sodipodi="http://sodipodi.sourceforge.net/DTD/sodipodi-0.dtd"
   xmlns="http://www.w3.org/2000/svg"
   xmlns:svg="http://www.w3.org/2000/svg"
   xmlns:rdf="http://www.w3.org/1999/02/22-rdf-syntax-ns#"
   xmlns:cc="http://creativecommons.org/ns#"
   xmlns:dc="http://purl.org/dc/elements/1.1/">
  <defs
     id="defs2">
    <rect
       x="-250"
       y="185.5"
       width="273.5"
       height="124.5"
       id="rect12154" />
    <rect
       x="-247"
       y="42"
       width="137"
       height="81.5"
       id="rect1185" />
    <rect
       x="-48.175333"
       y="18.9895"
       width="46.117357"
       height="15.996081"
       id="rect880" />
    <rect
       x="-255.23004"
       y="125.83378"
       width="102.52459"
       height="46.959256"
       id="rect873" />
    <inkscape:path-effect
       effect="envelope"
       id="path-effect4658"
       is_visible="true"
       yy="true"
       xx="true"
       bendpath1="m -199.08406,108.42369 h 7.0057"
       bendpath2="m -192.07836,108.42369 v 6.75242"
       bendpath3="m -199.08406,115.17611 h 7.0057"
       bendpath4="m -199.08406,108.42369 v 6.75242" />
    <inkscape:path-effect
       effect="bend_path"
       id="path-effect4656"
       is_visible="true"
       bendpath="m -192.00142,114.60623 c 2.12577,-0.53066 4.48261,0.85111 7.0057,0"
       prop_scale="1"
       scale_y_rel="false"
       vertical="false"
       bendpath-nodetypes="cc" />
    <inkscape:path-effect
       effect="bounding_box"
       id="path-effect4654"
       is_visible="true"
       linkedpath=""
       visualbounds="false" />
    <linearGradient
       id="linearGradient3288"
       inkscape:swatch="solid">
      <stop
         style="stop-color:#000000;stop-opacity:1;"
         offset="0"
         id="stop3286" />
    </linearGradient>
    <linearGradient
       id="linearGradient1364"
       inkscape:swatch="solid">
      <stop
         style="stop-color:#ffffff;stop-opacity:1;"
         offset="0"
         id="stop1362" />
    </linearGradient>
    <rect
       x="293.80286"
       y="272.58966"
       width="25.455845"
       height="37.830212"
       id="rect1056" />
    <rect
       x="222.73865"
       y="266.22571"
       width="47.376156"
       height="54.09367"
       id="rect1050" />
    <rect
       x="139.30003"
       y="246.42671"
       width="58.336308"
       height="48.790367"
       id="rect1044" />
    <rect
       x="131.1683"
       y="203.64674"
       width="61.871841"
       height="73.892654"
       id="rect1038" />
    <rect
       x="81.67083"
       y="193.04015"
       width="63.63961"
       height="55.507881"
       id="rect1032" />
    <rect
       x="83.085045"
       y="274.35742"
       width="44.194176"
       height="38.890873"
       id="rect1026" />
    <rect
       x="3.5355339"
       y="269.05414"
       width="65.760933"
       height="53.386562"
       id="rect1020" />
    <rect
       x="14.142136"
       y="226.27417"
       width="79.195961"
       height="62.932503"
       id="rect1014" />
    <rect
       x="11.313708"
       y="171.82695"
       width="36.416"
       height="51.618793"
       id="rect1008" />
    <rect
       x="3.1819806"
       y="132.22897"
       width="102.88404"
       height="102.53048"
       id="rect1002" />
  </defs>
  <sodipodi:namedview
     id="base"
     pagecolor="#ffffff"
     bordercolor="#666666"
     borderopacity="1.0"
     inkscape:pageopacity="0.0"
     inkscape:pageshadow="2"
     inkscape:zoom="2"
     inkscape:cx="15.5"
     inkscape:cy="174.25"
     inkscape:document-units="mm"
     inkscape:current-layer="layer1"
     showgrid="false"
     fit-margin-top="0"
     fit-margin-left="0"
     fit-margin-right="0"
     fit-margin-bottom="0"
     inkscape:window-width="1920"
     inkscape:window-height="1017"
     inkscape:window-x="-8"
     inkscape:window-y="-8"
     inkscape:window-maximized="1"
     showguides="false"
     inkscape:object-nodes="true"
     units="px"
     inkscape:snap-page="true"
     inkscape:document-rotation="0"
     inkscape:pagecheckerboard="1" />
  <metadata
     id="metadata5">
    <rdf:RDF>
      <cc:Work
         rdf:about="">
        <dc:format>image/svg+xml</dc:format>
        <dc:type
           rdf:resource="http://purl.org/dc/dcmitype/StillImage" />
      </cc:Work>
    </rdf:RDF>
  </metadata>
  <g
     inkscape:label="Base"
     inkscape:groupmode="layer"
     id="layer1"
     transform="translate(249.80447,-91.409467)">
    <rect
       y="91.40947"
       x="-249.80447"
       height="52.916668"
       width="52.916668"
       id="rect5238-5"
       style="display:inline;fill:#000000;fill-opacity:1;fill-rule:nonzero;stroke:none;stroke-width:0.5;stroke-linecap:butt;stroke-linejoin:round;stroke-miterlimit:4;stroke-dasharray:none;stroke-dashoffset:0;stroke-opacity:0.909449;paint-order:normal"
       rx="14.552089"
       ry="14.552081"
       inkscape:label="Bottom-rectangle" />
    <path
       id="rect18865"
       style="display:inline;fill:#d3d3d3;fill-opacity:1;stroke-width:1.7008;stroke-linejoin:round;stroke-opacity:0.909449"
       inkscape:label="Inner-rectangle"
       d="M 59.5,10 C 32.076844,10 10,32.076825 10,59.5 v 81 h 90 C 151.24355,99.2824 34.999761,56.500008 100,10 Z m 102.49805,4.867188 c 0.72164,0.346716 1.43326,0.709708 2.13476,1.089843 -0.7015,-0.380135 -1.41312,-0.743127 -2.13476,-1.089843 z m 2.13476,1.089843 c 0.7015,0.380135 1.39193,0.776922 2.07227,1.189453 -0.68034,-0.412531 -1.37077,-0.809318 -2.07227,-1.189453 z m 2.07227,1.189453 c 0.68033,0.412532 1.34966,0.841249 2.00781,1.285157 -0.65815,-0.443908 -1.32748,-0.872625 -2.00781,-1.285157 z m 2.00781,1.285157 c 0.65815,0.443907 1.30646,0.902691 1.94141,1.376953 -0.63495,-0.474262 -1.28326,-0.933046 -1.94141,-1.376953 z m 1.94141,1.376953 c 0.63494,0.474262 1.25647,0.963201 1.86718,1.466797 -0.61071,-0.503596 -1.23224,-0.992535 -1.86718,-1.466797 z m 1.86718,1.466797 c 0.61072,0.503595 1.20946,1.020826 1.79493,1.552734 -0.58547,-0.531908 -1.18421,-1.049139 -1.79493,-1.552734 z m 1.79493,1.552734 c 0.58546,0.531908 1.15759,1.079473 1.71679,1.638672 -0.5592,-0.559199 -1.13133,-1.106764 -1.71679,-1.638672 z m 1.71679,1.638672 c 0.5592,0.559199 1.10677,1.131328 1.63868,1.716797 -0.53191,-0.585469 -1.07948,-1.157598 -1.63868,-1.716797 z m 1.63868,1.716797 c 0.5319,0.585468 1.04913,1.184204 1.55273,1.794922 -0.5036,-0.610718 -1.02083,-1.209454 -1.55273,-1.794922 z m 1.55273,1.794922 c 0.50359,0.610717 0.99253,1.232242 1.4668,1.867187 -0.47427,-0.634945 -0.96321,-1.25647 -1.4668,-1.867187 z m 1.4668,1.867187 c 0.47426,0.634945 0.93304,1.283255 1.37695,1.941406 -0.44391,-0.658151 -0.90269,-1.306461 -1.37695,-1.941406 z m 1.37695,1.941406 c 0.44391,0.658151 0.87262,1.327477 1.28516,2.007813 -0.41254,-0.680336 -0.84125,-1.349662 -1.28516,-2.007813 z m 1.28516,2.007813 c 0.41253,0.680336 0.80931,1.370765 1.18945,2.072266 -0.38014,-0.701501 -0.77692,-1.39193 -1.18945,-2.072266 z m 1.18945,2.072266 c 0.38013,0.7015 0.74313,1.413122 1.08984,2.134765 -0.34671,-0.721643 -0.70971,-1.433265 -1.08984,-2.134765 z"
       transform="matrix(0.26458333,0,0,0.26458333,-249.80447,91.409467)" />
    <path
       id="path7020"
       style="display:inline;fill:#b22222;fill-opacity:1;stroke-width:0.450003;stroke-linejoin:round;stroke-opacity:0.909449"
       d="m -223.34615,94.055153 h 10.71569 c 7.25572,0 13.09696,5.841242 13.09696,13.096957 v 21.43139 h -23.81265 c 13.55819,-10.90549 -17.19798,-22.22522 0,-34.528347 z"
       sodipodi:nodetypes="cssccc"
       inkscape:label="Inner-rectangle" />
    <path
       style="fill:#000000;stroke-width:0.243205"
       d="m -227.0126,131.30641 c -2.90095,-0.30022 -6.04956,-0.57842 -8.4842,-2.34157 -1.04219,-1.03026 -1.93422,-3.7319 -1.06159,-4.68733 0.86457,-1.40723 0.20537,-3.58461 0.43267,-5.27459 0.019,-4.35584 0.65085,-9.11707 3.89413,-12.34118 2.10439,-2.44916 5.2046,-3.96522 8.44837,-3.9761 2.38135,-0.0269 4.94102,-0.23268 7.04114,1.12318 1.94737,0.83953 3.72651,2.20654 4.55023,4.2193 1.49682,3.0273 2.91132,6.20595 2.93306,9.64989 0.19782,2.26393 0.0632,4.56731 0.47364,6.80454 1.19922,0.96358 0.009,3.66115 -1.09501,4.61808 -2.61998,1.70458 -5.82684,2.2483 -8.90659,2.24669 -2.7406,0.0733 -5.48753,0.11757 -8.22585,-0.0409 z m 15.53461,-5.68943 c 0.47769,-0.27507 1.57939,-0.10854 1.28629,-0.92908 -0.20891,-3.8485 -0.0776,-7.76098 -1.02693,-11.5201 -0.9385,-2.22824 -1.85518,-4.53511 -3.32575,-6.46879 -3.11021,-2.88144 -7.85468,-3.47452 -11.8401,-2.37225 -3.08325,1.03727 -5.53616,3.51975 -7.11978,6.29992 -1.72268,4.09474 -1.46863,8.63884 -1.29555,12.97803 0.0418,2.23181 2.7643,1.87033 4.31124,2.15069 6.00479,0.40846 12.05676,0.56433 18.0586,0.0422 0.3198,-0.044 0.64164,-0.0884 0.95198,-0.18063 z m -14.80499,-0.12776 c -2.19086,-0.1555 -4.46561,-0.0277 -6.57388,-0.72072 -1.3141,-1.55807 -0.97843,-3.92228 -1.1722,-5.8524 0.0787,-2.48041 0.80306,-4.97648 2.01051,-7.13853 1.60939,-2.05644 3.91327,-3.6924 6.46166,-4.32591 2.57944,-0.28041 5.34983,-0.42732 7.68849,0.906 3.47927,1.61804 5.43885,5.33255 5.8751,9.01842 0.24495,2.32836 0.52187,4.7559 -0.082,7.04778 -1.01665,1.5832 -3.38358,0.81357 -5.0247,1.10847 -3.06036,0.0819 -6.12351,0.0628 -9.18304,-0.0431 z m 11.85918,-4.43424 c 1.11192,-1.72595 0.13105,-4.63166 -1.91615,-5.12524 -2.15437,-0.47261 -4.19551,1.52383 -3.51748,3.69185 0.14372,2.24391 2.83244,1.70123 4.39046,1.69428 0.35106,-0.0482 0.74556,-0.0344 1.04317,-0.26089 z m -11.63385,-0.53104 c 1.11856,-1.59215 0.40393,-4.31155 -1.57851,-4.8577 -1.89282,-0.59143 -4.3705,0.998 -3.9908,3.13452 -0.005,2.05405 2.24073,2.62455 3.88877,2.21059 0.57315,-0.0873 1.19121,-0.14542 1.68054,-0.48741 z m -16.52006,7.88799 c -2.02629,-2.08396 3.28996,-1.96146 1.65379,0.19457 -0.47006,0.49819 -1.24705,0.25279 -1.65379,-0.19457 z m 38.04138,-5.2712 c -1.06603,-0.56289 -0.23364,-1.18461 0.58553,-1.47839 2.37469,-0.41424 0.65192,3.20573 -0.58553,1.47839 z m -37.61577,-3.94465 c -1.26129,-1.26512 1.65276,-2.22835 2.12223,-0.74281 0.50851,0.55221 -1.37131,1.58155 -1.91784,0.92711 l -0.20439,-0.18427 z m 1.4264,-3.54386 c -1.65152,-1.92625 2.68605,-2.20788 1.83876,-0.20377 -0.56708,0.40983 -1.4749,1.32564 -1.83876,0.20377 z m 34.7783,-7.05293 c -1.20031,-1.67637 1.82328,-2.39581 2.2683,-0.75965 -0.30094,0.6423 -1.72563,2.09001 -2.2683,0.75965 z m -3.42378,-6.97205 c -1.45317,-1.11476 0.75805,-2.659311 1.53778,-1.18388 0.80596,0.3632 -0.54581,2.23094 -1.0494,1.70133 -0.16279,-0.17249 -0.32559,-0.34497 -0.48838,-0.51745 z m 3.17963,-0.37245 c -1.6996,-1.2139 1.36817,-2.482155 1.98576,-0.94762 0.13642,0.43108 -0.77273,0.88655 -1.05238,1.32733 -0.3793,0.68624 -0.56523,-0.14709 -0.93338,-0.37971 z m -36.38616,-0.0675 c -1.36762,-1.312408 1.25384,-3.223711 1.82982,-1.16058 0.3561,0.59758 -1.67152,2.45225 -1.82982,1.16058 z m 22.92084,-1.960638 c -2.11034,-1.5544 2.61692,-2.233458 1.64363,-0.405235 -0.42894,0.436132 -1.09808,1.061751 -1.64363,0.405235 z"
       id="path60"
       inkscape:label="drawing" />
    <path
       id="rect19240"
       style="display:inline;fill:#000000;stroke-width:0.5;stroke-linejoin:round;stroke-opacity:0.909449"
       d="m -196.88781,128.58347 v 1.19059 c 0,8.06185 -6.49023,14.55208 -14.55208,14.55208 h -23.8125 c -8.06185,0 -14.55208,-6.49023 -14.55208,-14.55208 v -1.19059 z"
       sodipodi:nodetypes="csssscc"
       inkscape:label="Bottom-label" />
    <g
       aria-label="SINCERITY"
       transform="matrix(0.20098157,0,0,0.20098157,-191.88043,94.45906)"
       id="text12152"
       style="font-size:40px;line-height:1.25;white-space:pre;shape-inside:url(#rect12154);fill:#d3d3d3">
      <path
         d="m -238.96,222.47321 q -2.56,0 -5.12,-0.92 -2.52,-0.96 -4.52,-2.84 l 3.36,-4.04 q 1.4,1.2 3.08,1.96 1.72,0.76 3.36,0.76 1.84,0 2.72,-0.68 0.92,-0.68 0.92,-1.84 0,-0.6 -0.28,-1.04 -0.24,-0.44 -0.76,-0.76 -0.48,-0.36 -1.2,-0.64 -0.68,-0.32 -1.52,-0.68 l -3.4,-1.44 q -1,-0.4 -1.96,-1.04 -0.92,-0.64 -1.68,-1.48 -0.72,-0.88 -1.16,-2 -0.44,-1.16 -0.44,-2.6 0,-1.6 0.68,-3 0.68,-1.44 1.92,-2.48 1.24,-1.08 2.92,-1.68 1.72,-0.6 3.76,-0.6 2.28,0 4.48,0.88 2.24,0.88 3.92,2.56 l -3,3.72 q -1.28,-1 -2.56,-1.52 -1.28,-0.56 -2.84,-0.56 -1.52,0 -2.44,0.64 -0.88,0.6 -0.88,1.72 0,0.6 0.28,1.04 0.32,0.4 0.84,0.76 0.56,0.32 1.28,0.64 0.72,0.28 1.56,0.64 l 3.36,1.36 q 2.4,0.96 3.76,2.64 1.4,1.68 1.4,4.44 0,1.64 -0.68,3.12 -0.64,1.44 -1.92,2.56 -1.24,1.08 -3.08,1.76 -1.84,0.64 -4.16,0.64 z"
         style="font-weight:bold;font-family:'Source Sans Pro';-inkscape-font-specification:'Source Sans Pro Bold'"
         id="path21644" />
      <path
         d="m -224.68001,221.99321 v -26.08 h 5.88 v 26.08 z"
         style="font-weight:bold;font-family:'Source Sans Pro';-inkscape-font-specification:'Source Sans Pro Bold'"
         id="path21646" />
      <path
         d="m -212.64006,221.99321 v -26.08 h 6.04 l 6.8,12.96 2.56,5.76 h 0.16 q -0.2,-2.08 -0.48,-4.64 -0.24,-2.56 -0.24,-4.88 v -9.2 h 5.6 v 26.08 h -6.04 l -6.8,-13 -2.56,-5.68 h -0.16 q 0.2,2.16 0.44,4.64 0.28,2.48 0.28,4.8 v 9.24 z"
         style="font-weight:bold;font-family:'Source Sans Pro';-inkscape-font-specification:'Source Sans Pro Bold'"
         id="path21648" />
      <path
         d="m -175.1601,222.47321 q -2.48,0 -4.68,-0.84 -2.2,-0.88 -3.88,-2.56 -1.64,-1.68 -2.6,-4.16 -0.96,-2.52 -0.96,-5.8 0,-3.24 1,-5.76 1,-2.56 2.68,-4.32 1.68,-1.76 3.92,-2.68 2.24,-0.92 4.72,-0.92 2.52,0 4.52,1.04 2,1 3.32,2.36 l -3.12,3.76 q -1,-0.92 -2.12,-1.48 -1.08,-0.6 -2.48,-0.6 -1.32,0 -2.52,0.6 -1.16,0.56 -2.04,1.64 -0.84,1.08 -1.36,2.64 -0.48,1.56 -0.48,3.52 0,4.04 1.72,6.28 1.72,2.2 4.6,2.2 1.6,0 2.84,-0.68 1.28,-0.72 2.24,-1.76 l 3.12,3.68 q -3.28,3.84 -8.44,3.84 z"
         style="font-weight:bold;font-family:'Source Sans Pro';-inkscape-font-specification:'Source Sans Pro Bold'"
         id="path21650" />
      <path
         d="m -162.76015,221.99321 v -26.08 h 16.32 v 4.96 h -10.44 v 5.24 h 8.88 v 4.92 h -8.88 v 6 h 10.84 v 4.96 z"
         style="font-weight:bold;font-family:'Source Sans Pro';-inkscape-font-specification:'Source Sans Pro Bold';fill:#b22222;fill-opacity:1"
         id="path21652" />
      <path
         d="m -140.84021,221.99321 v -26.08 h 9.4 q 2.08,0 3.88,0.4 1.84,0.4 3.2,1.36 1.36,0.92 2.16,2.48 0.8,1.56 0.8,3.88 0,2.88 -1.28,4.76 -1.24,1.84 -3.36,2.76 l 5.92,10.44 h -6.6 l -5,-9.4 h -3.24 v 9.4 z m 5.88,-14.08 h 3.04 q 2.32,0 3.52,-0.96 1.24,-1 1.24,-2.92 0,-1.92 -1.24,-2.68 -1.2,-0.76 -3.52,-0.76 h -3.04 z"
         style="font-weight:bold;font-family:'Source Sans Pro';-inkscape-font-specification:'Source Sans Pro Bold';fill:#b22222;fill-opacity:1"
         id="path21654" />
      <path
         d="m -116.32025,221.99321 v -26.08 h 5.88 v 26.08 z"
         style="font-weight:bold;font-family:'Source Sans Pro';-inkscape-font-specification:'Source Sans Pro Bold';fill:#b22222;fill-opacity:1"
         id="path21656" />
      <path
         d="m -99.200306,221.99321 v -21.12 h -7.160004 v -4.96 h 20.240004 v 4.96 h -7.16 v 21.12 z"
         style="font-weight:bold;font-family:'Source Sans Pro';-inkscape-font-specification:'Source Sans Pro Bold';fill:#b22222;fill-opacity:1"
         id="path21658" />
      <path
         d="m -78.280378,221.99321 v -9.28 l -7.88,-16.8 h 6.32 l 2.32,6 q 0.56,1.48 1.04,2.88 0.52,1.36 1.08,2.88 h 0.16 q 0.56,-1.52 1.08,-2.88 0.56,-1.4 1.12,-2.88 l 2.36,-6 h 6.16 l -7.88,16.8 v 9.28 z"
         style="font-weight:bold;font-family:'Source Sans Pro';-inkscape-font-specification:'Source Sans Pro Bold';fill:#b22222;fill-opacity:1"
         id="path21660" />
    </g>
  </g>
</svg>
