<svg width="200" height="200" viewBox="0 0 52.917 52.917" xmlns="http://www.w3.org/2000/svg"><defs><path id="a" d="M-250 185.5H23.5V310H-250z"/></defs><g transform="translate(249.804 -91.41)"><rect y="91.409" x="-249.804" height="52.917" width="52.917" style="display:inline;fill:#000;fill-opacity:1;fill-rule:nonzero;stroke:none;stroke-width:.5;stroke-linecap:butt;stroke-linejoin:round;stroke-miterlimit:4;stroke-dasharray:none;stroke-dashoffset:0;stroke-opacity:.909449;paint-order:normal" rx="14.552" ry="14.552"/><path style="display:inline;fill:#d3d3d3;fill-opacity:1;stroke-width:1.7008;stroke-linejoin:round;stroke-opacity:.909449" d="M59.5 10C32.077 10 10 32.077 10 59.5v81h90c51.244-41.218-65-84 0-130.5Zm102.498 4.867zm2.135 1.09zm2.072 1.19zm2.008 1.285zm1.941 1.377zm1.867 1.466zm1.795 1.553zm1.717 1.639zm1.639 1.717zm1.553 1.795zm1.466 1.867zm1.377 1.941zm1.286 2.008zm1.189 2.072z" transform="matrix(.26458 0 0 .26458 -249.804 91.41)"/><path style="display:inline;fill:#b22222;fill-opacity:1;stroke-width:.450003;stroke-linejoin:round;stroke-opacity:.909449" d="M-223.346 94.055h10.716a13.068 13.068 0 0 1 13.096 13.097v21.432h-23.812c13.558-10.906-17.198-22.226 0-34.529z"/><path style="fill:#000;stroke-width:.243205" d="M-227.013 131.306c-2.9-.3-6.05-.578-8.484-2.341-1.042-1.03-1.934-3.732-1.061-4.687.864-1.408.205-3.585.432-5.275.02-4.356.651-9.117 3.894-12.341 2.105-2.45 5.205-3.965 8.449-3.976 2.381-.027 4.94-.233 7.04 1.123 1.948.84 3.727 2.206 4.551 4.22 1.497 3.026 2.911 6.205 2.933 9.649.198 2.264.063 4.567.474 6.805 1.2.963.009 3.66-1.095 4.618-2.62 1.704-5.827 2.248-8.907 2.246-2.74.074-5.487.118-8.226-.04zm15.535-5.689c.478-.275 1.58-.109 1.286-.93-.209-3.848-.077-7.76-1.027-11.52-.938-2.227-1.855-4.534-3.325-6.468-3.11-2.881-7.855-3.475-11.84-2.372-3.084 1.037-5.537 3.52-7.12 6.3-1.723 4.094-1.469 8.639-1.296 12.978.042 2.232 2.764 1.87 4.311 2.15 6.005.409 12.057.565 18.059.043.32-.044.642-.089.952-.181zm-14.805-.128c-2.19-.155-4.466-.027-6.574-.72-1.314-1.559-.978-3.923-1.172-5.853.079-2.48.803-4.976 2.01-7.138 1.61-2.057 3.914-3.693 6.462-4.326 2.58-.28 5.35-.428 7.689.906 3.479 1.618 5.438 5.332 5.875 9.018.245 2.328.522 4.756-.082 7.048-1.017 1.583-3.384.813-5.025 1.108-3.06.082-6.124.063-9.183-.043zm11.86-4.434c1.111-1.726.13-4.632-1.917-5.125-2.154-.473-4.195 1.524-3.517 3.692.143 2.243 2.832 1.7 4.39 1.694.351-.048.746-.035 1.043-.261zm-11.635-.531c1.119-1.592.404-4.312-1.578-4.858-1.893-.591-4.37.998-3.991 3.135-.005 2.054 2.24 2.624 3.889 2.21.573-.087 1.191-.145 1.68-.487zm-16.52 7.888c-2.026-2.084 3.29-1.962 1.654.194-.47.499-1.247.253-1.654-.194zm38.042-5.271c-1.066-.563-.234-1.185.585-1.479 2.375-.414.652 3.206-.585 1.479zm-37.616-3.945c-1.261-1.265 1.653-2.228 2.122-.743.509.552-1.371 1.582-1.918.927l-.204-.184zm1.426-3.544c-1.651-1.926 2.686-2.208 1.84-.204-.568.41-1.476 1.326-1.84.204zm34.779-7.053c-1.2-1.676 1.823-2.396 2.268-.76-.301.643-1.726 2.09-2.268.76zm-3.424-6.972c-1.453-1.115.758-2.66 1.538-1.184.806.364-.546 2.231-1.05 1.702l-.488-.518zm3.18-.372c-1.7-1.214 1.368-2.482 1.985-.948.137.431-.773.887-1.052 1.327-.38.687-.565-.147-.934-.38zm-36.387-.068c-1.367-1.312 1.254-3.223 1.83-1.16.356.597-1.671 2.452-1.83 1.16zm22.921-1.96c-2.11-1.555 2.617-2.234 1.644-.406-.43.437-1.098 1.062-1.644.406z"/><path style="display:inline;fill:#000;stroke-width:.5;stroke-linejoin:round;stroke-opacity:.909449" d="M-196.888 128.583v1.191a14.52 14.52 0 0 1-14.552 14.552h-23.812a14.52 14.52 0 0 1-14.552-14.552v-1.19z"/><g aria-label="SINCERITY" transform="translate(-191.88 94.46) scale(.20098)" style="font-size:40px;line-height:1.25;white-space:pre;shape-inside:url(#a);fill:#d3d3d3"><path d="M-238.96 222.473q-2.56 0-5.12-.92-2.52-.96-4.52-2.84l3.36-4.04q1.4 1.2 3.08 1.96 1.72.76 3.36.76 1.84 0 2.72-.68.92-.68.92-1.84 0-.6-.28-1.04-.24-.44-.76-.76-.48-.36-1.2-.64-.68-.32-1.52-.68l-3.4-1.44q-1-.4-1.96-1.04-.92-.64-1.68-1.48-.72-.88-1.16-2-.44-1.16-.44-2.6 0-1.6.68-3 .68-1.44 1.92-2.48 1.24-1.08 2.92-1.68 1.72-.6 3.76-.6 2.28 0 4.48.88 2.24.88 3.92 2.56l-3 3.72q-1.28-1-2.56-1.52-1.28-.56-2.84-.56-1.52 0-2.44.64-.88.6-.88 1.72 0 .6.28 1.04.32.4.84.76.56.32 1.28.64.72.28 1.56.64l3.36 1.36q2.4.96 3.76 2.64 1.4 1.68 1.4 4.44 0 1.64-.68 3.12-.64 1.44-1.92 2.56-1.24 1.08-3.08 1.76-1.84.64-4.16.64zM-224.68 221.993v-26.08h5.88v26.08zM-212.64 221.993v-26.08h6.04l6.8 12.96 2.56 5.76h.16q-.2-2.08-.48-4.64-.24-2.56-.24-4.88v-9.2h5.6v26.08h-6.04l-6.8-13-2.56-5.68h-.16q.2 2.16.44 4.64.28 2.48.28 4.8v9.24zM-175.16 222.473q-2.48 0-4.68-.84-2.2-.88-3.88-2.56-1.64-1.68-2.6-4.16-.96-2.52-.96-5.8 0-3.24 1-5.76 1-2.56 2.68-4.32 1.68-1.76 3.92-2.68 2.24-.92 4.72-.92 2.52 0 4.52 1.04 2 1 3.32 2.36l-3.12 3.76q-1-.92-2.12-1.48-1.08-.6-2.48-.6-1.32 0-2.52.6-1.16.56-2.04 1.64-.84 1.08-1.36 2.64-.48 1.56-.48 3.52 0 4.04 1.72 6.28 1.72 2.2 4.6 2.2 1.6 0 2.84-.68 1.28-.72 2.24-1.76l3.12 3.68q-3.28 3.84-8.44 3.84z" style="font-weight:700;font-family:'Source Sans Pro';-inkscape-font-specification:'Source Sans Pro Bold'"/><path d="M-162.76 221.993v-26.08h16.32v4.96h-10.44v5.24h8.88v4.92h-8.88v6h10.84v4.96zM-140.84 221.993v-26.08h9.4q2.08 0 3.88.4 1.84.4 3.2 1.36 1.36.92 2.16 2.48t.8 3.88q0 2.88-1.28 4.76-1.24 1.84-3.36 2.76l5.92 10.44h-6.6l-5-9.4h-3.24v9.4zm5.88-14.08h3.04q2.32 0 3.52-.96 1.24-1 1.24-2.92t-1.24-2.68q-1.2-.76-3.52-.76h-3.04zM-116.32 221.993v-26.08h5.88v26.08zM-99.2 221.993v-21.12h-7.16v-4.96h20.24v4.96h-7.16v21.12z" style="font-weight:700;font-family:'Source Sans Pro';-inkscape-font-specification:'Source Sans Pro Bold';fill:#b22222;fill-opacity:1"/><path d="M-78.28 221.993v-9.28l-7.88-16.8h6.32l2.32 6q.56 1.48 1.04 2.88.52 1.36 1.08 2.88h.16q.56-1.52 1.08-2.88.56-1.4 1.12-2.88l2.36-6h6.16l-7.88 16.8v9.28z" style="font-weight:700;font-family:'Source Sans Pro';-inkscape-font-specification:'Source Sans Pro Bold';fill:#b22222;fill-opacity:1"/></g></g></svg>