<svg width="200" height="200" viewBox="0 0 52.917 52.917" xmlns="http://www.w3.org/2000/svg"><defs><path id="a" d="M-139 247.5h294.5V316H-139z"/></defs><g transform="translate(249.804 -91.41)"><rect y="91.409" x="-249.804" height="52.917" width="52.917" style="display:inline;fill:#000;fill-opacity:1;fill-rule:nonzero;stroke:none;stroke-width:.5;stroke-linecap:butt;stroke-linejoin:round;stroke-miterlimit:4;stroke-dasharray:none;stroke-dashoffset:0;stroke-opacity:.909449;paint-order:normal" rx="14.552" ry="14.552"/><path style="display:inline;fill:#8b5320;fill-opacity:1;stroke-width:.450003;stroke-linejoin:round;stroke-opacity:.909449" d="M-199.534 116.528v12.055h-47.625v-12.055z"/><path style="display:inline;fill:#333;fill-opacity:1;stroke-width:.450003;stroke-linejoin:round;stroke-opacity:.909449" d="M-199.799 104.506c.174.854.265 1.74.265 2.646v9.376h-47.625v-9.376c0-.907.091-1.792.265-2.646z"/><path style="display:inline;fill:#8b5320;fill-opacity:1;stroke-width:.450003;stroke-linejoin:round;stroke-opacity:.909449" d="M-234.062 94.055h21.432c3.627 0 6.902 1.46 9.269 3.828a13.066 13.066 0 0 1 3.562 6.623h-47.095a13.021 13.021 0 0 1 3.563-6.623 13.056 13.056 0 0 1 9.27-3.828z"/><path style="display:inline;fill:#000;stroke-width:.5;stroke-linejoin:round;stroke-opacity:.909449" d="M-196.888 128.583v1.191a14.52 14.52 0 0 1-14.552 14.552h-23.812a14.52 14.52 0 0 1-14.552-14.552v-1.19z"/><path style="fill:#000;stroke-width:.252663" d="M-229.105 129.893c-3.264-1.14-5.995-3.968-6.41-7.487-.514-3.669.481-7.373 1.668-10.818.86-2.601 3.141-4.332 5.547-5.422 2.813-1.55 6.04-2.345 9.252-1.995 3.704.17 7.332 1.904 9.544 4.922.632 1.096 2.688 2.767 1.86 3.818-5.995.56-12.03.635-18.029 1.175-.508 2.105-.447 4.323-.165 6.455.604 1.97 2.506 3.348 4.563 3.369 1.876.057 3.913.51 5.66-.374 1.632.03 3.32.467 5 .18 1.77-.127 4.114-.38 4.697-2.396.24-.86.566-2.531.526-.63.24 2.742-.686 5.42-1.967 7.8-1.25 1.424-3.372 1.346-5.102 1.606-4.96.362-9.947.323-14.914.137-.586-.049-1.179-.12-1.73-.34zm7.47-6.868c-2.689-.543-3.967-3.54-3.657-6.053.266-.731-.146-2.417 1.07-2.186 5.579-.444 11.172-.784 16.766-.887 1.208 1.52 1.023 3.783 1.008 5.648-.032 1.727-1.482 3.094-3.169 3.224-1.799.119-3.944.588-5.452-.685-1.378.5-3.138 1.59-4.94 1.19a10.738 10.738 0 0 1-1.626-.251zm.167-1.374c-.698-1.628-1.897-3.186-1.862-5.07 1.428-.693 3.537-.179 5.222-.509 1.714-.562-1.57-.67-2.07-.595-1.184-.002-2.368 0-3.552 0-.495 2.206.039 4.718 1.799 6.236l.247.064zm7.833-.505c-.177-1.67-2.37-3.786-1.06-5.223 1.633-.489 3.534-.264 5.06-.926-.918-1.025-2.723.046-3.986-.01-1.936-.247-2.91 1.36-2.04 3.058.423.925.773 3.286 2.026 3.1zm-23.46-2.652c-2.336-1.12-4.387-2.87-5.992-4.895-1.186-1.895 1.105-3.33 2.745-3.61 1.574-.363 3.218-1.323 4.837-.918 1.429 1.194.23 2.995.025 4.448-.511 1.638-.49 3.517-1.316 5.01l-.135.011zm2.955-9.807c-.598-1.503 1.75-3.896 3.246-2.961 1.344.428-.614.764-.973 1.297-.904.189-1.667 2.343-2.12 1.952l-.153-.288zm4.291-3.89c-1.75-1.302.432-3.768.869-5.385.945-1.157 2.404-3.769 4.102-2.368 2.144 1.222 3.38 3.462 4.215 5.7-.663 1.256-3.24.328-4.578 1.085-1.312.392-2.56.963-3.836 1.458l-.772-.49z"/><g aria-label="STANDARD" transform="matrix(.26458 0 0 .26458 -206.889 65.998)" style="font-size:32px;line-height:1.25;white-space:pre;shape-inside:url(#a);fill:#8b5320"><path d="M-130.104 277.079q-1.984 0-4.096-.704-2.08-.736-3.776-2.272l3.136-3.776q1.12.896 2.4 1.472 1.312.544 2.464.544 1.248 0 1.792-.384.576-.384.576-1.088 0-.384-.192-.64t-.576-.48q-.352-.224-.864-.416-.512-.224-1.184-.48l-2.592-1.088q-.832-.32-1.6-.832-.768-.544-1.344-1.248-.576-.736-.928-1.664-.32-.928-.32-2.048 0-1.344.576-2.496.576-1.184 1.6-2.048 1.024-.896 2.432-1.408 1.44-.512 3.136-.512 1.792 0 3.616.672 1.856.672 3.296 2.112l-2.752 3.456q-1.056-.736-2.048-1.12-.96-.384-2.112-.384-1.024 0-1.6.352-.576.352-.576 1.056 0 .736.8 1.152.832.384 2.272.928l2.528.992q1.952.768 3.008 2.144 1.056 1.376 1.056 3.552 0 1.312-.544 2.528t-1.6 2.144q-1.024.896-2.528 1.44-1.504.544-3.456.544zM-115.32 276.695v-16.192h-5.504v-4.608h16.512v4.608h-5.504v16.192zM-97.144 266.583l-.352 1.44h3.84l-.352-1.44q-.384-1.504-.768-3.264-.384-1.76-.768-3.328h-.128q-.352 1.6-.736 3.36-.352 1.728-.736 3.232zm-8 10.112 6.336-20.8h6.656l6.336 20.8h-5.824l-1.024-4.416h-5.824l-1.024 4.416zM-83.832 276.695v-20.8h5.632l4.608 9.28 1.984 4.672h.128q-.096-.832-.224-1.824-.128-.992-.224-2.016-.096-1.056-.192-2.08-.064-1.056-.064-2.016v-6.016h5.248v20.8h-5.632l-4.608-9.312-1.984-4.64h-.128q.192 1.792.448 3.904t.256 4.032v6.016zM-62.328 276.695v-20.8h6.144q2.368 0 4.32.576 1.984.576 3.392 1.824 1.408 1.248 2.176 3.2.8 1.952.8 4.704t-.768 4.736q-.768 1.984-2.176 3.264-1.376 1.28-3.296 1.888-1.888.608-4.128.608zm5.504-4.416h.32q1.12 0 2.112-.256.992-.288 1.696-.96.736-.672 1.152-1.856.416-1.184.416-3.008t-.416-2.976q-.416-1.152-1.152-1.792-.704-.64-1.696-.864-.992-.256-2.112-.256h-.32zM-36.728 266.583l-.352 1.44h3.84l-.352-1.44q-.384-1.504-.768-3.264-.384-1.76-.768-3.328h-.128q-.352 1.6-.736 3.36-.352 1.728-.736 3.232zm-8 10.112 6.336-20.8h6.656l6.336 20.8h-5.824l-1.024-4.416h-5.824l-1.024 4.416zM-23.416 276.695v-20.8h7.872q1.664 0 3.168.32 1.536.32 2.656 1.088 1.152.768 1.824 2.08.672 1.28.672 3.232 0 2.24-.928 3.712-.896 1.472-2.432 2.304l4.512 8.064h-6.144l-3.584-6.976h-2.112v6.976zm5.504-11.328h1.984q3.328 0 3.328-2.752 0-1.344-.864-1.856-.832-.512-2.464-.512h-1.984zM-3.256 276.695v-20.8h6.144q2.368 0 4.32.576 1.984.576 3.392 1.824 1.408 1.248 2.176 3.2.8 1.952.8 4.704t-.768 4.736q-.768 1.984-2.176 3.264-1.376 1.28-3.296 1.888-1.888.608-4.128.608zm5.504-4.416h.32q1.12 0 2.112-.256.992-.288 1.696-.96.736-.672 1.152-1.856.416-1.184.416-3.008t-.416-2.976q-.416-1.152-1.152-1.792-.704-.64-1.696-.864-.992-.256-2.112-.256h-.32z" style="font-weight:900;font-family:'Source Sans Pro';-inkscape-font-specification:'Source Sans Pro Heavy'"/></g></g></svg>