<?xml version="1.0" encoding="UTF-8" standalone="no"?>
<svg
   width="200"
   height="200"
   viewBox="0 0 52.916668 52.916666"
   version="1.1"
   id="svg8"
   inkscape:version="1.1 (c68e22c387, 2021-05-23)"
   sodipodi:docname="unfunny.svg"
   xmlns:inkscape="http://www.inkscape.org/namespaces/inkscape"
   xmlns:sodipodi="http://sodipodi.sourceforge.net/DTD/sodipodi-0.dtd"
   xmlns="http://www.w3.org/2000/svg"
   xmlns:svg="http://www.w3.org/2000/svg"
   xmlns:rdf="http://www.w3.org/1999/02/22-rdf-syntax-ns#"
   xmlns:cc="http://creativecommons.org/ns#"
   xmlns:dc="http://purl.org/dc/elements/1.1/">
  <defs
     id="defs2">
    <rect
       x="-804.68752"
       y="-373.35238"
       width="485.07525"
       height="149.90664"
       id="rect40377" />
    <rect
       x="-247"
       y="42"
       width="137"
       height="81.5"
       id="rect1185" />
    <rect
       x="-48.175333"
       y="18.9895"
       width="46.117357"
       height="15.996081"
       id="rect880" />
    <rect
       x="-255.23004"
       y="125.83378"
       width="102.52459"
       height="46.959256"
       id="rect873" />
    <inkscape:path-effect
       effect="envelope"
       id="path-effect4658"
       is_visible="true"
       yy="true"
       xx="true"
       bendpath1="m -199.08406,108.42369 h 7.0057"
       bendpath2="m -192.07836,108.42369 v 6.75242"
       bendpath3="m -199.08406,115.17611 h 7.0057"
       bendpath4="m -199.08406,108.42369 v 6.75242" />
    <inkscape:path-effect
       effect="bend_path"
       id="path-effect4656"
       is_visible="true"
       bendpath="m -192.00142,114.60623 c 2.12577,-0.53066 4.48261,0.85111 7.0057,0"
       prop_scale="1"
       scale_y_rel="false"
       vertical="false"
       bendpath-nodetypes="cc" />
    <inkscape:path-effect
       effect="bounding_box"
       id="path-effect4654"
       is_visible="true"
       linkedpath=""
       visualbounds="false" />
    <linearGradient
       id="linearGradient3288"
       inkscape:swatch="solid">
      <stop
         style="stop-color:#000000;stop-opacity:1;"
         offset="0"
         id="stop3286" />
    </linearGradient>
    <linearGradient
       id="linearGradient1364"
       inkscape:swatch="solid">
      <stop
         style="stop-color:#ffffff;stop-opacity:1;"
         offset="0"
         id="stop1362" />
    </linearGradient>
    <rect
       x="293.80286"
       y="272.58966"
       width="25.455845"
       height="37.830212"
       id="rect1056" />
    <rect
       x="222.73865"
       y="266.22571"
       width="47.376156"
       height="54.09367"
       id="rect1050" />
    <rect
       x="139.30003"
       y="246.42671"
       width="58.336308"
       height="48.790367"
       id="rect1044" />
    <rect
       x="131.1683"
       y="203.64674"
       width="61.871841"
       height="73.892654"
       id="rect1038" />
    <rect
       x="81.67083"
       y="193.04015"
       width="63.63961"
       height="55.507881"
       id="rect1032" />
    <rect
       x="83.085045"
       y="274.35742"
       width="44.194176"
       height="38.890873"
       id="rect1026" />
    <rect
       x="3.5355339"
       y="269.05414"
       width="65.760933"
       height="53.386562"
       id="rect1020" />
    <rect
       x="14.142136"
       y="226.27417"
       width="79.195961"
       height="62.932503"
       id="rect1014" />
    <rect
       x="11.313708"
       y="171.82695"
       width="36.416"
       height="51.618793"
       id="rect1008" />
    <rect
       x="3.1819806"
       y="132.22897"
       width="102.88404"
       height="102.53048"
       id="rect1002" />
  </defs>
  <sodipodi:namedview
     id="base"
     pagecolor="#ffffff"
     bordercolor="#666666"
     borderopacity="1.0"
     inkscape:pageopacity="0.0"
     inkscape:pageshadow="2"
     inkscape:zoom="0.35355339"
     inkscape:cx="958.83679"
     inkscape:cy="683.06515"
     inkscape:document-units="mm"
     inkscape:current-layer="layer1"
     showgrid="false"
     fit-margin-top="0"
     fit-margin-left="0"
     fit-margin-right="0"
     fit-margin-bottom="0"
     inkscape:window-width="1920"
     inkscape:window-height="1017"
     inkscape:window-x="-8"
     inkscape:window-y="-8"
     inkscape:window-maximized="1"
     showguides="false"
     inkscape:object-nodes="true"
     units="px"
     inkscape:snap-page="true"
     inkscape:document-rotation="0"
     inkscape:pagecheckerboard="1" />
  <metadata
     id="metadata5">
    <rdf:RDF>
      <cc:Work
         rdf:about="">
        <dc:format>image/svg+xml</dc:format>
        <dc:type
           rdf:resource="http://purl.org/dc/dcmitype/StillImage" />
      </cc:Work>
    </rdf:RDF>
  </metadata>
  <g
     inkscape:label="Base"
     inkscape:groupmode="layer"
     id="layer1"
     transform="translate(249.80447,-91.409467)">
    <rect
       y="91.40947"
       x="-249.80447"
       height="52.916668"
       width="52.916668"
       id="rect5238-5"
       style="display:inline;fill:#000000;fill-opacity:1;fill-rule:nonzero;stroke:none;stroke-width:0.5;stroke-linecap:butt;stroke-linejoin:round;stroke-miterlimit:4;stroke-dasharray:none;stroke-dashoffset:0;stroke-opacity:0.909449;paint-order:normal"
       rx="14.552089"
       ry="14.552081"
       inkscape:label="Bottom-rectangle" />
    <path
       id="path31521"
       style="display:inline;fill:#7f66de;fill-opacity:1;stroke-width:0.450003;stroke-linejoin:round;stroke-opacity:0.909449"
       d="m -201.76433,99.819604 c 1.46014,2.252096 2.21954,4.984796 2.23083,7.332506 v 21.43139 h -42.00289 z"
       sodipodi:nodetypes="ccccc"
       inkscape:label="Inner-rectangle" />
    <path
       id="path192"
       style="display:inline;fill:#ffffff;stroke-width:0.450003;stroke-linejoin:round;stroke-opacity:0.909449"
       d="m -205.29795,96.285984 c 0.69654,0.469802 1.34505,1.004936 1.93687,1.596754 0.59181,0.591819 1.12695,1.240323 1.59675,1.936866 l -39.77214,28.763896 h -5.62233 v -2.67892 z"
       sodipodi:nodetypes="csccccc"
       inkscape:label="Inner-rectangle-2" />
    <path
       id="path31519"
       style="display:inline;fill:#38b6ff;fill-opacity:1;stroke-width:0.450003;stroke-linejoin:round;stroke-opacity:0.909449"
       d="m -234.06184,94.055153 h 21.43138 c 1.81393,0 3.53946,0.365078 5.10741,1.026065 0.78397,0.330493 1.52856,0.734964 2.2251,1.204766 l -41.86085,29.618596 v -18.75247 c 0,-7.255715 5.84125,-13.096957 13.09696,-13.096957 z"
       sodipodi:nodetypes="ssscccs"
       inkscape:label="Inner-rectangle-3" />
    <path
       style="display:inline;fill:#000000;stroke-width:0.292641"
       d="m -232.53635,128.99535 c -3.1016,-1.41185 -6.19079,-3.73819 -6.9147,-7.26573 -0.64866,-3.24946 -0.51157,-6.68972 0.40284,-9.87646 1.38866,-4.23571 5.20259,-7.74503 9.72358,-8.1994 2.70559,-0.32741 5.47544,-0.43714 8.17815,-0.0567 4.43404,1.14023 7.8023,4.81896 9.79876,8.79413 0.87408,2.33352 1.22416,4.91018 0.73313,7.36929 2.00838,0.0738 4.34075,-0.3535 5.94681,1.12172 1.01182,1.32104 1.08813,3.34153 0.42501,4.82016 -1.44223,1.89362 -4.11341,1.64897 -6.23244,1.63757 -2.23325,0.0468 -4.38633,-0.70677 -6.21386,-1.96517 -1.78611,-1.18882 -4.01322,-1.92026 -6.16432,-1.63139 -1.73041,0.37847 -3.41276,1.6034 -5.23354,1.16907 -1.30816,-1.13804 -0.48471,-3.53911 1.2471,-3.78684 3.2252,-1.10207 6.80922,-0.93713 10.06602,-0.0401 2.41971,0.73807 4.33323,2.88551 6.95069,2.99226 0.95697,0.1318 3.40821,-0.66813 1.17099,-0.89283 -3.12463,0.079 -5.53235,-2.26199 -8.47588,-2.90865 -2.95677,-0.69528 -6.06543,-0.60272 -9.05275,-0.16637 -1.06522,0.22994 -2.00148,0.80865 -2.98067,1.26005 -0.0109,1.25605 -0.26086,2.5399 0.0384,3.77423 1.73556,1.10817 4.10221,0.0507 5.92349,-0.51878 2.5828,-0.91624 5.03491,0.78506 7.16164,2.04293 0.66513,0.78512 2.42506,0.41077 2.6933,1.03144 -2.21326,1.25511 -4.78409,1.8021 -7.3233,1.69971 -3.83757,-0.0466 -7.70089,0.15072 -11.51803,-0.30998 z m 16.31008,-10.39363 c 1.72123,-0.99931 2.17685,-3.33727 1.64679,-5.12477 -1.1275,-1.13617 -3.00984,-0.57324 -4.45917,-0.73989 -0.97934,0 -1.95868,0 -2.93803,0 -0.82809,1.31461 -1.27714,3.05051 -0.33296,4.43725 1.22051,2.00551 4.09139,2.54454 6.08337,1.42741 z m -14.96021,-0.56366 c 1.49855,-1.02941 2.14084,-3.01568 2.07076,-4.76493 -1.05864,-1.50404 -3.39638,-0.80692 -5.00046,-1.09719 -1.61743,-0.34134 -3.81856,0.0793 -3.36683,2.22295 -0.0603,1.78049 1.05968,3.54108 2.83418,3.97467 1.134,0.34437 2.43288,0.28837 3.46235,-0.3355 z m -9.53332,-6.0326 c -1.31223,-3.30045 -2.64247,-7.22451 -0.8494,-10.60709 0.80591,-1.753308 3.25407,-1.686678 4.77036,-1.00558 1.58996,0.86841 3.22314,1.7572 4.5647,2.97916 -1.51953,0.92068 -3.23565,1.63169 -4.38526,3.0715 -1.70402,1.84067 -2.89914,4.09216 -3.7451,6.43993 -0.11837,-0.29264 -0.23687,-0.58528 -0.3553,-0.87792 z m 29.77347,-0.55924 c -1.52258,-2.7677 -3.6236,-5.30104 -6.21532,-7.12486 -2.08923,-0.71862 1.04023,-2.70882 1.94782,-3.30352 1.74502,-0.9149 3.91227,-1.949938 5.88187,-1.172248 1.68716,1.507908 1.72099,4.073358 1.60556,6.175648 -0.22504,2.18432 -0.81723,4.45547 -2.2428,6.17172 -0.50039,0.39303 -0.79512,-0.41976 -0.97713,-0.74674 z"
       id="path60"
       inkscape:label="Drawing" />
    <path
       id="rect19240"
       style="display:inline;fill:#000000;stroke-width:0.5;stroke-linejoin:round;stroke-opacity:0.909449"
       d="m -196.88781,128.58347 v 1.19059 c 0,8.06185 -6.49023,14.55208 -14.55208,14.55208 h -23.8125 c -8.06185,0 -14.55208,-6.49023 -14.55208,-14.55208 v -1.19059 z"
       sodipodi:nodetypes="csssscc"
       inkscape:label="Bottom-label" />
    <g
       aria-label="UNFUNNY"
       transform="matrix(0.20806107,0,0,0.20806107,-74.722372,209.19677)"
       id="text40375"
       style="font-size:40px;line-height:1.25;white-space:pre;shape-inside:url(#rect40377);fill:#7f66de">
      <path
         d="m -791.1675,-336.37835 q -5.48,0 -8.16,-3.16 -2.64,-3.2 -2.64,-9.88 v -13.44 h 6.88 v 14.24 q 0,3.48 0.92,4.92 0.96,1.4 3,1.4 2.04,0 3,-1.4 1,-1.44 1,-4.92 v -14.24 h 6.64 v 13.44 q 0,6.68 -2.6,9.88 -2.6,3.16 -8.04,3.16 z"
         style="font-weight:900;font-family:'Source Sans Pro';-inkscape-font-specification:'Source Sans Pro Heavy'"
         id="path46168" />
      <path
         d="m -774.92754,-336.85835 v -26 h 7.04 l 5.76,11.6 2.48,5.84 h 0.16 q -0.12,-1.04 -0.28,-2.28 -0.16,-1.24 -0.28,-2.52 -0.12,-1.32 -0.24,-2.6 -0.08,-1.32 -0.08,-2.52 v -7.52 h 6.56 v 26 h -7.04 l -5.76,-11.64 -2.48,-5.8 h -0.16 q 0.24,2.24 0.56,4.88 0.32,2.64 0.32,5.04 v 7.52 z"
         style="font-weight:900;font-family:'Source Sans Pro';-inkscape-font-specification:'Source Sans Pro Heavy'"
         id="path46170" />
      <path
         d="m -748.04758,-336.85835 v -26 h 16.96 v 5.76 h -10.08 v 4.96 h 8.64 v 5.76 h -8.64 v 9.52 z"
         style="font-weight:900;font-family:'Source Sans Pro';-inkscape-font-specification:'Source Sans Pro Heavy'"
         id="path46172" />
      <path
         d="m -715.96761,-336.37835 q -5.48,0 -8.16,-3.16 -2.64,-3.2 -2.64,-9.88 v -13.44 h 6.88 v 14.24 q 0,3.48 0.92,4.92 0.96,1.4 3,1.4 2.04,0 3,-1.4 1,-1.44 1,-4.92 v -14.24 h 6.64 v 13.44 q 0,6.68 -2.6,9.88 -2.6,3.16 -8.04,3.16 z"
         style="font-weight:900;font-family:'Source Sans Pro';-inkscape-font-specification:'Source Sans Pro Heavy'"
         id="path46174" />
      <path
         d="m -699.72765,-336.85835 v -26 h 7.04 l 5.76,11.6 2.48,5.84 h 0.16 q -0.12,-1.04 -0.28,-2.28 -0.16,-1.24 -0.28,-2.52 -0.12,-1.32 -0.24,-2.6 -0.08,-1.32 -0.08,-2.52 v -7.52 h 6.56 v 26 h -7.04 l -5.76,-11.64 -2.48,-5.8 h -0.16 q 0.24,2.24 0.56,4.88 0.32,2.64 0.32,5.04 v 7.52 z"
         style="font-weight:900;font-family:'Source Sans Pro';-inkscape-font-specification:'Source Sans Pro Heavy'"
         id="path46176" />
      <path
         d="m -672.84769,-336.85835 v -26 h 7.04 l 5.76,11.6 2.48,5.84 h 0.16 q -0.12,-1.04 -0.28,-2.28 -0.16,-1.24 -0.28,-2.52 -0.12,-1.32 -0.24,-2.6 -0.08,-1.32 -0.08,-2.52 v -7.52 h 6.56 v 26 h -7.04 l -5.76,-11.64 -2.48,-5.8 h -0.16 q 0.24,2.24 0.56,4.88 0.32,2.64 0.32,5.04 v 7.52 z"
         style="font-weight:900;font-family:'Source Sans Pro';-inkscape-font-specification:'Source Sans Pro Heavy'"
         id="path46178" />
      <path
         d="m -641.40773,-336.85835 v -8.96 l -7.84,-17.04 h 7.36 l 1.92,5.44 q 0.48,1.48 0.96,2.88 0.48,1.4 1,2.92 h 0.16 q 0.52,-1.52 1,-2.92 0.52,-1.4 1.04,-2.88 l 1.92,-5.44 h 7.2 l -7.84,17.04 v 8.96 z"
         style="font-weight:900;font-family:'Source Sans Pro';-inkscape-font-specification:'Source Sans Pro Heavy'"
         id="path46180" />
    </g>
  </g>
</svg>
