<svg width="200" height="200" viewBox="0 0 52.917 52.917" xmlns="http://www.w3.org/2000/svg"><defs><path id="a" d="M-804.688-373.352h485.075v149.907h-485.075z"/></defs><g transform="translate(249.804 -91.41)"><rect y="91.409" x="-249.804" height="52.917" width="52.917" style="display:inline;fill:#000;fill-opacity:1;fill-rule:nonzero;stroke:none;stroke-width:.5;stroke-linecap:butt;stroke-linejoin:round;stroke-miterlimit:4;stroke-dasharray:none;stroke-dashoffset:0;stroke-opacity:.909449;paint-order:normal" rx="14.552" ry="14.552"/><path style="display:inline;fill:#7f66de;fill-opacity:1;stroke-width:.450003;stroke-linejoin:round;stroke-opacity:.909449" d="M-201.764 99.82c1.46 2.252 2.22 4.984 2.23 7.332v21.431h-42.002z"/><path style="display:inline;fill:#fff;stroke-width:.450003;stroke-linejoin:round;stroke-opacity:.909449" d="M-205.298 96.286a13.095 13.095 0 0 1 3.534 3.534l-39.772 28.764h-5.623v-2.68z"/><path style="display:inline;fill:#38b6ff;fill-opacity:1;stroke-width:.450003;stroke-linejoin:round;stroke-opacity:.909449" d="M-234.062 94.055h21.432a13.033 13.033 0 0 1 7.333 2.23l-41.862 29.62v-18.753a13.068 13.068 0 0 1 13.097-13.097z"/><path style="display:inline;fill:#000;stroke-width:.292641" d="M-232.536 128.995c-3.102-1.412-6.191-3.738-6.915-7.265-.649-3.25-.512-6.69.403-9.877 1.388-4.236 5.202-7.745 9.723-8.2 2.706-.327 5.476-.436 8.179-.056 4.434 1.14 7.802 4.819 9.798 8.794.874 2.334 1.224 4.91.733 7.37 2.009.073 4.341-.354 5.947 1.121 1.012 1.321 1.088 3.342.425 4.82-1.442 1.894-4.113 1.65-6.232 1.638-2.233.047-4.387-.707-6.214-1.965-1.786-1.19-4.013-1.92-6.164-1.632-1.73.379-3.413 1.604-5.234 1.17-1.308-1.139-.485-3.54 1.247-3.787 3.225-1.102 6.81-.938 10.066-.04 2.42.738 4.333 2.885 6.95 2.992.958.132 3.41-.668 1.172-.893-3.125.079-5.532-2.262-8.476-2.909-2.957-.695-6.065-.602-9.053-.166-1.065.23-2.001.809-2.98 1.26-.011 1.256-.261 2.54.038 3.774 1.736 1.108 4.102.05 5.923-.519 2.583-.916 5.035.785 7.162 2.043.665.785 2.425.411 2.693 1.032-2.213 1.255-4.784 1.802-7.323 1.7-3.837-.047-7.7.15-11.518-.31zm16.31-10.393c1.721-1 2.177-3.338 1.647-5.125-1.128-1.136-3.01-.573-4.46-.74h-2.938c-.828 1.315-1.277 3.05-.333 4.437 1.22 2.006 4.092 2.545 6.084 1.428zm-14.96-.564c1.498-1.03 2.14-3.016 2.07-4.765-1.058-1.504-3.396-.807-5-1.097-1.618-.341-3.819.08-3.367 2.223-.06 1.78 1.06 3.541 2.834 3.975 1.134.344 2.433.288 3.463-.336zm-9.534-6.033c-1.312-3.3-2.642-7.224-.85-10.607.807-1.753 3.255-1.686 4.771-1.005 1.59.868 3.223 1.757 4.565 2.979-1.52.92-3.236 1.632-4.385 3.071-1.704 1.841-2.9 4.093-3.745 6.44l-.356-.878zm29.774-.559c-1.523-2.767-3.624-5.3-6.216-7.125-2.089-.718 1.04-2.708 1.948-3.303 1.745-.915 3.912-1.95 5.882-1.172 1.687 1.507 1.721 4.073 1.606 6.175-.225 2.185-.818 4.456-2.243 6.172-.5.393-.795-.42-.977-.747z"/><path style="display:inline;fill:#000;stroke-width:.5;stroke-linejoin:round;stroke-opacity:.909449" d="M-196.888 128.583v1.191a14.52 14.52 0 0 1-14.552 14.552h-23.812a14.52 14.52 0 0 1-14.552-14.552v-1.19z"/><g aria-label="UNFUNNY" transform="translate(-74.722 209.197) scale(.20806)" style="font-size:40px;line-height:1.25;white-space:pre;shape-inside:url(#a);fill:#7f66de"><path d="M-791.168-336.378q-5.48 0-8.16-3.16-2.64-3.2-2.64-9.88v-13.44h6.88v14.24q0 3.48.92 4.92.96 1.4 3 1.4t3-1.4q1-1.44 1-4.92v-14.24h6.64v13.44q0 6.68-2.6 9.88-2.6 3.16-8.04 3.16zM-774.928-336.858v-26h7.04l5.76 11.6 2.48 5.84h.16q-.12-1.04-.28-2.28-.16-1.24-.28-2.52-.12-1.32-.24-2.6-.08-1.32-.08-2.52v-7.52h6.56v26h-7.04l-5.76-11.64-2.48-5.8h-.16q.24 2.24.56 4.88.32 2.64.32 5.04v7.52zM-748.048-336.858v-26h16.96v5.76h-10.08v4.96h8.64v5.76h-8.64v9.52zM-715.968-336.378q-5.48 0-8.16-3.16-2.64-3.2-2.64-9.88v-13.44h6.88v14.24q0 3.48.92 4.92.96 1.4 3 1.4t3-1.4q1-1.44 1-4.92v-14.24h6.64v13.44q0 6.68-2.6 9.88-2.6 3.16-8.04 3.16zM-699.728-336.858v-26h7.04l5.76 11.6 2.48 5.84h.16q-.12-1.04-.28-2.28-.16-1.24-.28-2.52-.12-1.32-.24-2.6-.08-1.32-.08-2.52v-7.52h6.56v26h-7.04l-5.76-11.64-2.48-5.8h-.16q.24 2.24.56 4.88.32 2.64.32 5.04v7.52zM-672.848-336.858v-26h7.04l5.76 11.6 2.48 5.84h.16q-.12-1.04-.28-2.28-.16-1.24-.28-2.52-.12-1.32-.24-2.6-.08-1.32-.08-2.52v-7.52h6.56v26h-7.04l-5.76-11.64-2.48-5.8h-.16q.24 2.24.56 4.88.32 2.64.32 5.04v7.52zM-641.408-336.858v-8.96l-7.84-17.04h7.36l1.92 5.44q.48 1.48.96 2.88l1 2.92h.16l1-2.92q.52-1.4 1.04-2.88l1.92-5.44h7.2l-7.84 17.04v8.96z" style="font-weight:900;font-family:'Source Sans Pro';-inkscape-font-specification:'Source Sans Pro Heavy'"/></g></g></svg>