<svg width="200" height="200" viewBox="0 0 52.917 52.917" xmlns="http://www.w3.org/2000/svg"><defs><path id="a" d="M-26.5 237.5h296v67h-296z"/></defs><g transform="translate(249.804 -91.41)"><rect y="91.409" x="-249.804" height="52.917" width="52.917" style="display:inline;fill:#000;fill-opacity:1;fill-rule:nonzero;stroke:none;stroke-width:.5;stroke-linecap:butt;stroke-linejoin:round;stroke-miterlimit:4;stroke-dasharray:none;stroke-dashoffset:0;stroke-opacity:.909449;paint-order:normal" rx="14.552" ry="14.552"/><path style="display:inline;fill:#00f;fill-opacity:1;stroke-width:.450003;stroke-linejoin:round;stroke-opacity:.909449" d="M-203.361 97.883a13.056 13.056 0 0 1 3.828 9.27v21.43h-47.626z"/><path style="display:inline;fill:#fdfd00;fill-opacity:1;stroke-width:.450003;stroke-linejoin:round;stroke-opacity:.909449" d="M-234.062 94.055h21.432c3.627 0 6.902 1.46 9.269 3.828l-43.798 30.7v-21.43a13.068 13.068 0 0 1 13.097-13.098z"/><path style="fill:#000;stroke-width:.274977" d="M-233.285 134.601c-2.21-.693-4.545-1.657-6.113-3.41-1.148-2.383-1.763-4.997-2.446-7.544-.312-2.62-.455-5.366.181-7.943 1.606 1.046 1.044 4.058 1.849 5.845.063 2.158.604 4.143 2.686 5.24 1.374 1.06 3.805-1.865 2.972-3.106-1.64-1.08-3.378-2.287-3.417-4.473-.24-1.597-.869-4.325 1.268-4.787 3.634-.584 7.23-1.397 10.894-1.795 3.852-.522 7.68-1.191 11.512-1.845.299.822 1.754 2.46.073 2.429-4.975.885-10.043 1.398-14.915 2.761-1.219 1.29.232 3.624.358 5.3-.048 2.191 1.832 2.7 3.664 2.293 4.517-.082 8.982-.802 13.43-1.519.706 1.677.065 3.96-.833 5.558-1.905 3.079-5.135 4.968-8.377 6.37-2.44 1.19-5.255.662-7.872.828-1.638-.021-3.287.006-4.914-.202zm22.42-7.206c1.081-1.802.314-3.994.988-5.865.466-1.754.15-3.69-.15-5.47-.351-1.963-2.84-2.84-1.835-5.07.066-1.615.41-3.41-.285-4.91-2.27-.162-1.551-2.409.279-2.638 2.02.2.472-4.1 2.96-2.665.6 1.788-.617 3.89.636 5.483.424 2.276 0 4.66.549 6.904 1.41.52 4.036-1.853 4.148 1.15.847 1.674-.61 2.614-1.965 3.054.08 1.201-1.172 2.715-1.405 3.244 1.022.49 3.128 1.09 2.613 2.459-.71 2.123-2.574.888-3.674-.086a55.936 55.936 0 0 0 2.164 5.194c-.532 1.179-2.508.48-3.7.66h-1.995l.672-1.445zm3.653-8.959c-.22-1.86-1.472 1.28-.176.51l.105-.217.07-.293zm-30.718 6.965c-1.588-1.446-.775-3.83-1.656-5.68-.452-1.604-.313-4.386-1.808-5.057-1.194.364-3.785.143-2.07-1.462 1.28-2.645 1.176-5.76 2.59-8.372 1.58-3.374 5.229-4.992 8.568-6.112 1.847-.825 3.804-1.103 5.826-.911 1.977.008 4.04.086 5.754 1.204 3.068 1.464 4.054 4.916 5.891 7.486.947.677 4.255 1.98 1.776 3.006-6.083 1.426-12.301 2.14-18.473 3.052-.59-.549.114-2.939.22-.926.215 1.206 1.152-1.112 1.766-1.102 1.722-.406 3.73-.434 5.218.053.94-1.096 3.39-1.722 4.684-1.065.609.815.88-1.407 2.037-.888 1.12.248 3.297-1.556 1.072-1.226-1.512.801-3.11.521-3.137-1.429-1.97-2.292 2.583-.835 2.116-2.535-1.765.162-3.788.802-4.463-1.444-.177-.442-1.39-1.423-.293-1.202.875.242 2.97-.458 1.128-.806-1.665.37-2.754-.547-3.73-1.67-1.171.31 1.565 2.195-.501 1.986-1.752.872-1.92-.617-2.642-1.67-1.37-.1.905 2.473-1.144 2.114-.678-.105-2.266.938-2.434.207.213-.893-.413-2.718-.785-.817.546 1.573-3.15 2.551-2.939.967-1.223-.666-1.024 2.1-2.658 1.731-2.327.026-.69 2.365-1.163 3.76-.49 1.253-2.742 1.344-2.372 3.278-.004 1.384-.535 4.295 1.771 3.517 2.415-.155 4.821-.758 7.24-.654-2.018.604-4.23.529-6.18 1.388 1.066 1.374-.352 3.163.437 4.849.241 1.977 1.014 3.927 3.002 4.663 1.824.561-.57 3.26-1.554 2.792a9.11 9.11 0 0 1-1.094-1.025zm1.449-1.567c-1.117-.296-1.318 1.901-.17.522.094-.145.25-.333.17-.522zm-1.108-.174c1.191-1.84-2.161.796-.347.321l.169-.14zm10.479-1.539c-.632-1.629-1.216-3.442-1.073-5.2 1.407-.966 3.41-.75 5.04-1.326 3.457-.76 6.987-1.11 10.473-1.709 1.22.982 2.225 2.352 2.155 3.997.438 1.875-.184 3.934-2.488 3.623-4.19.5-8.386 1.051-12.602 1.257-.557.001-1.227-.077-1.506-.642zm15.141-2.382c.278-1.544.005-3.799-1.73-4.335-2.54-.007-5.128.252-7.578.947-1.329 1.174 1.91.322 2.582.285 1.814-.066 4.312-1.219 5.675.319.529 1.011-.259 3.222.78 3.551.146-.234.21-.503.271-.767zm-28.973-7.674c-.494-1.71 2.075-1.198 1.266.31.021 1.344-1.57.805-1.266-.31zm2.49-.19c.092-2.266 2.278-.536.918.697-.496.2-.973-.163-.917-.697zm2.464-.498c-.195-1.912 2.22-.557 1.114.771-.603.577-1.22-.107-1.114-.77zm2.482-.137c-.144-1.844 2.41-.217.91.784-.551.221-.975-.24-.91-.784zm-7.479-1.598c.014-1.435 1.35-1.69 1.37-.07.116.742-1.414.791-1.37.07zm2.475-.55c-.157-1.125 1.12-2.406 1.284-.602.78 1.286-1.293 2.123-1.284.602zm2.475-.275c-.157-1.125 1.12-2.406 1.283-.602.781 1.286-1.292 2.123-1.283.602zm2.475-.108c-.173-1.024.868-2.699 1.264-.873.832 1.094-1.304 2.528-1.264.873zm3.25-.05c-.844-2.306 1.264-2.578 2.992-2.684 1.728-.8 1.83 2.58 1.712 3.27-1.548.17-3.103.277-4.655.41l-.049-.995zm-1.325-.05c-.297-.719-.52-2.734.253-1.117.11.412-.09 2.944-.253 1.117zm6.9-.6c-.725-1.383-.618-3.078 1.339-2.836 2.121-1.155 3.627 1.468 3.289 3.015-1.366-.128-4.347 2.02-4.628-.18zm-14.726.5c.108-1.354.761.825 0 0zm2.463-.844c.584-1.14.894.914 0 0zm2.504-.162c-.63-1.512 1.662.034.185.253zm-3.744-1.144c-.687-1.688.016-2.91 1.737-3.17.92-.236.646 1.94.726 2.669.04 1.005-2.214 1.426-2.463.5zm3.486-.27c-.314-1.07-.343-2.197-.484-3.3.971-.015 2.113-.651 2.93-.322.182 1.394 1.48 3.836-.993 3.642-.457.059-1.032.243-1.453-.02zm3.687-1.619c-.857-1.568 0-3.08 1.82-2.844 1.838-1.08 3.231 2.564 2.168 3.452-1.214.28-2.462.378-3.693.565l-.295-1.173zm5.319-.294c-.564-1.375-1.544-3.49.894-3.066.712-.153 1.371-.196 1.625.621.534.84 2.107 2.48.204 2.553-.808-.058-2.22.781-2.723-.108z"/><path style="display:inline;fill:#000;stroke-width:.5;stroke-linejoin:round;stroke-opacity:.909449" d="M-196.888 128.583v1.191a14.52 14.52 0 0 1-14.552 14.552h-23.812a14.52 14.52 0 0 1-14.552-14.552v-1.19z"/><g aria-label="VETERAN" transform="matrix(.23405 0 0 .23405 -236.065 75.368)" style="font-size:40px;line-height:1.25;white-space:pre;shape-inside:url(#a);fill:#fdfd00"><path d="m-19.22 273.993-7.68-26h7.28l2.72 11.36q.56 2.08.96 4.12.4 2 .96 4.12h.16q.56-2.12.96-4.12.44-2.04.96-4.12l2.64-11.36h7.04l-7.68 26zM-.74 273.993v-26h16.8v5.76H6.14v4.08h8.48v5.76H6.14v4.64h10.32v5.76zM26.46 273.993v-20.24h-6.88v-5.76h20.64v5.76h-6.88v20.24z" style="font-weight:900;font-family:'Source Sans Pro';-inkscape-font-specification:'Source Sans Pro Heavy'"/><path d="M44.06 273.993v-26h16.8v5.76h-9.92v4.08h8.48v5.76h-8.48v4.64h10.32v5.76zM66.3 273.993v-26h9.84q2.08 0 3.96.4 1.92.4 3.32 1.36 1.44.96 2.28 2.6.84 1.6.84 4.04 0 2.8-1.16 4.64-1.12 1.84-3.04 2.88l5.64 10.08H80.3l-4.48-8.72h-2.64v8.72zm6.88-14.16h2.48q4.16 0 4.16-3.44 0-1.68-1.08-2.32-1.04-.64-3.08-.64h-2.48z" style="font-weight:900;font-family:'Source Sans Pro';-inkscape-font-specification:'Source Sans Pro Heavy';fill:#00f;fill-opacity:1"/><path d="m97.82 261.353-.44 1.8h4.8l-.44-1.8q-.48-1.88-.96-4.08t-.96-4.16h-.16q-.44 2-.92 4.2-.44 2.16-.92 4.04zm-10 12.64 7.92-26h8.32l7.92 26h-7.28l-1.28-5.52h-7.28l-1.28 5.52zM114.46 273.993v-26h7.04l5.76 11.6 2.48 5.84h.16q-.12-1.04-.28-2.28-.16-1.24-.28-2.52-.12-1.32-.24-2.6-.08-1.32-.08-2.52v-7.52h6.56v26h-7.04l-5.76-11.64-2.48-5.8h-.16q.24 2.24.56 4.88.32 2.64.32 5.04v7.52z" style="font-weight:900;font-family:'Source Sans Pro';-inkscape-font-specification:'Source Sans Pro Heavy';fill:#00f;fill-opacity:1"/></g></g></svg>