<?xml version="1.0" encoding="UTF-8" standalone="no"?>
<svg
   width="200"
   height="200"
   viewBox="0 0 52.916668 52.916666"
   version="1.1"
   id="svg8"
   inkscape:version="1.1 (c68e22c387, 2021-05-23)"
   sodipodi:docname="veteran.svg"
   xmlns:inkscape="http://www.inkscape.org/namespaces/inkscape"
   xmlns:sodipodi="http://sodipodi.sourceforge.net/DTD/sodipodi-0.dtd"
   xmlns="http://www.w3.org/2000/svg"
   xmlns:svg="http://www.w3.org/2000/svg"
   xmlns:rdf="http://www.w3.org/1999/02/22-rdf-syntax-ns#"
   xmlns:cc="http://creativecommons.org/ns#"
   xmlns:dc="http://purl.org/dc/elements/1.1/">
  <defs
     id="defs2">
    <rect
       x="-26.5"
       y="237.5"
       width="296"
       height="67"
       id="rect5485" />
    <rect
       x="-247"
       y="42"
       width="137"
       height="81.5"
       id="rect1185" />
    <rect
       x="-48.175333"
       y="18.9895"
       width="46.117357"
       height="15.996081"
       id="rect880" />
    <rect
       x="-255.23004"
       y="125.83378"
       width="102.52459"
       height="46.959256"
       id="rect873" />
    <inkscape:path-effect
       effect="envelope"
       id="path-effect4658"
       is_visible="true"
       yy="true"
       xx="true"
       bendpath1="m -199.08406,108.42369 h 7.0057"
       bendpath2="m -192.07836,108.42369 v 6.75242"
       bendpath3="m -199.08406,115.17611 h 7.0057"
       bendpath4="m -199.08406,108.42369 v 6.75242" />
    <inkscape:path-effect
       effect="bend_path"
       id="path-effect4656"
       is_visible="true"
       bendpath="m -192.00142,114.60623 c 2.12577,-0.53066 4.48261,0.85111 7.0057,0"
       prop_scale="1"
       scale_y_rel="false"
       vertical="false"
       bendpath-nodetypes="cc" />
    <inkscape:path-effect
       effect="bounding_box"
       id="path-effect4654"
       is_visible="true"
       linkedpath=""
       visualbounds="false" />
    <linearGradient
       id="linearGradient3288"
       inkscape:swatch="solid">
      <stop
         style="stop-color:#000000;stop-opacity:1;"
         offset="0"
         id="stop3286" />
    </linearGradient>
    <linearGradient
       id="linearGradient1364"
       inkscape:swatch="solid">
      <stop
         style="stop-color:#ffffff;stop-opacity:1;"
         offset="0"
         id="stop1362" />
    </linearGradient>
    <rect
       x="293.80286"
       y="272.58966"
       width="25.455845"
       height="37.830212"
       id="rect1056" />
    <rect
       x="222.73865"
       y="266.22571"
       width="47.376156"
       height="54.09367"
       id="rect1050" />
    <rect
       x="139.30003"
       y="246.42671"
       width="58.336308"
       height="48.790367"
       id="rect1044" />
    <rect
       x="131.1683"
       y="203.64674"
       width="61.871841"
       height="73.892654"
       id="rect1038" />
    <rect
       x="81.67083"
       y="193.04015"
       width="63.63961"
       height="55.507881"
       id="rect1032" />
    <rect
       x="83.085045"
       y="274.35742"
       width="44.194176"
       height="38.890873"
       id="rect1026" />
    <rect
       x="3.5355339"
       y="269.05414"
       width="65.760933"
       height="53.386562"
       id="rect1020" />
    <rect
       x="14.142136"
       y="226.27417"
       width="79.195961"
       height="62.932503"
       id="rect1014" />
    <rect
       x="11.313708"
       y="171.82695"
       width="36.416"
       height="51.618793"
       id="rect1008" />
    <rect
       x="3.1819806"
       y="132.22897"
       width="102.88404"
       height="102.53048"
       id="rect1002" />
  </defs>
  <sodipodi:namedview
     id="base"
     pagecolor="#ffffff"
     bordercolor="#666666"
     borderopacity="1.0"
     inkscape:pageopacity="0.0"
     inkscape:pageshadow="2"
     inkscape:zoom="2"
     inkscape:cx="58"
     inkscape:cy="141.75"
     inkscape:document-units="mm"
     inkscape:current-layer="layer1"
     showgrid="false"
     fit-margin-top="0"
     fit-margin-left="0"
     fit-margin-right="0"
     fit-margin-bottom="0"
     inkscape:window-width="1920"
     inkscape:window-height="1017"
     inkscape:window-x="-8"
     inkscape:window-y="-8"
     inkscape:window-maximized="1"
     showguides="false"
     inkscape:object-nodes="true"
     units="px"
     inkscape:snap-page="true"
     inkscape:document-rotation="0"
     inkscape:pagecheckerboard="1" />
  <metadata
     id="metadata5">
    <rdf:RDF>
      <cc:Work
         rdf:about="">
        <dc:format>image/svg+xml</dc:format>
        <dc:type
           rdf:resource="http://purl.org/dc/dcmitype/StillImage" />
      </cc:Work>
    </rdf:RDF>
  </metadata>
  <g
     inkscape:label="Base"
     inkscape:groupmode="layer"
     id="layer1"
     transform="translate(249.80447,-91.409467)">
    <rect
       y="91.40947"
       x="-249.80447"
       height="52.916668"
       width="52.916668"
       id="rect5238-5"
       style="display:inline;fill:#000000;fill-opacity:1;fill-rule:nonzero;stroke:none;stroke-width:0.5;stroke-linecap:butt;stroke-linejoin:round;stroke-miterlimit:4;stroke-dasharray:none;stroke-dashoffset:0;stroke-opacity:0.909449;paint-order:normal"
       rx="14.552089"
       ry="14.552081"
       inkscape:label="Bottom-rectangle" />
    <path
       id="rect18865"
       style="display:inline;fill:#0000ff;fill-opacity:1;stroke-width:0.450003;stroke-linejoin:round;stroke-opacity:0.909449"
       d="m -203.36108,97.882738 c 2.36727,2.367272 3.82758,5.641512 3.82758,9.269372 v 21.43139 h -47.6253 z"
       sodipodi:nodetypes="csccc"
       inkscape:label="Inner-rectangle" />
    <path
       id="path197"
       style="display:inline;fill:#fdfd00;fill-opacity:1;stroke-width:0.450003;stroke-linejoin:round;stroke-opacity:0.909449"
       d="m -234.06184,94.055153 h 21.43138 c 3.62786,0 6.9021,1.460311 9.26938,3.827585 L -247.1588,128.5835 v -21.43139 c 0,-7.255715 5.84125,-13.096957 13.09696,-13.096957 z"
       sodipodi:nodetypes="ssccss"
       inkscape:label="Inner-rectangle-2" />
    <path
       style="fill:#000000;stroke-width:0.274977"
       d="m -233.28532,134.60123 c -2.21013,-0.69338 -4.54499,-1.65698 -6.1123,-3.41103 -1.14886,-2.38262 -1.76306,-4.99626 -2.44658,-7.54312 -0.31176,-2.62079 -0.45469,-5.36637 0.18124,-7.9432 1.60612,1.04589 1.04435,4.05854 1.84899,5.84525 0.0632,2.15776 0.60433,4.14328 2.68572,5.24015 1.37428,1.06048 3.80495,-1.86514 2.97238,-3.10638 -1.63966,-1.07973 -3.37857,-2.28711 -3.41735,-4.47323 -0.2393,-1.59643 -0.86874,-4.32455 1.26816,-4.78619 3.63387,-0.58473 7.22981,-1.3978 10.89405,-1.79564 3.85176,-0.52134 7.68076,-1.19118 11.51159,-1.84495 0.2991,0.8221 1.75486,2.45945 0.0731,2.42878 -4.97453,0.88489 -10.04264,1.39845 -14.91424,2.76144 -1.21904,1.29039 0.23149,3.62348 0.35757,5.29994 -0.048,2.19121 1.83165,2.70014 3.66397,2.29289 4.51739,-0.082 8.98162,-0.80214 13.43044,-1.51855 0.70586,1.6768 0.0641,3.96037 -0.83322,5.55728 -1.90553,3.07888 -5.1354,4.96785 -8.37707,6.371 -2.44026,1.18997 -5.25503,0.6618 -7.87179,0.82717 -1.63821,-0.0212 -3.28705,0.006 -4.91466,-0.20161 z m 22.42061,-7.20672 c 1.08076,-1.80109 0.31384,-3.99313 0.9874,-5.86486 0.46592,-1.75338 0.15124,-3.69025 -0.14982,-5.46946 -0.35134,-1.96304 -2.83934,-2.83992 -1.83506,-5.06966 0.0664,-1.61582 0.41076,-3.41058 -0.28523,-4.91003 -2.27052,-0.16265 -1.55084,-2.40932 0.27934,-2.6389 2.02013,0.20087 0.47195,-4.098734 2.95985,-2.66451 0.60058,1.78837 -0.61716,3.89084 0.63584,5.48262 0.42471,2.27673 -4.7e-4,4.66091 0.54938,6.90462 1.41054,0.52035 4.03577,-1.8537 4.1476,1.1502 0.84701,1.67394 -0.6102,2.61331 -1.96434,3.05377 0.0799,1.20082 -1.17255,2.71517 -1.40519,3.24394 1.02236,0.49046 3.12786,1.09008 2.61313,2.45837 -0.70942,2.12365 -2.57445,0.88879 -3.67398,-0.0857 0.62122,1.72287 1.35595,3.51371 2.16384,5.19379 -0.53223,1.17917 -2.50831,0.48086 -3.7008,0.65942 -0.6647,0 -1.32941,0 -1.99411,0 0.22405,-0.48121 0.4481,-0.96241 0.67215,-1.44362 z m 3.6526,-8.95829 c -0.21935,-1.85959 -1.47194,1.27906 -0.17579,0.51022 l 0.10529,-0.21727 0.0705,-0.29294 z m -30.71812,6.96507 c -1.58749,-1.44598 -0.77443,-3.83014 -1.65541,-5.6796 -0.45267,-1.60438 -0.31288,-4.38679 -1.80795,-5.05785 -1.19434,0.36412 -3.78555,0.1427 -2.07097,-1.46152 1.2799,-2.6453 1.17654,-5.7606 2.59108,-8.37269 1.57997,-3.37405 5.22813,-4.991775 8.567,-6.111794 1.84766,-0.824933 3.80413,-1.102793 5.82634,-0.91116 1.97699,0.0083 4.04021,0.08612 5.75369,1.204529 3.06871,1.463305 4.05485,4.915325 5.89191,7.486185 0.94615,0.67691 4.25444,1.98015 1.77537,3.00591 -6.08329,1.42543 -12.30106,2.13925 -18.47304,3.0516 -0.58974,-0.54858 0.11386,-2.9384 0.21928,-0.92569 0.21544,1.20537 1.15248,-1.11243 1.76716,-1.10185 1.72204,-0.40649 3.73067,-0.434 5.21727,0.0522 0.94079,-1.09536 3.3901,-1.72115 4.68422,-1.06423 0.60892,0.81486 0.88034,-1.40764 2.03766,-0.88852 1.12012,0.24864 3.29692,-1.55616 1.07171,-1.22564 -1.51237,0.80116 -3.11004,0.52113 -3.13735,-1.42894 -1.97025,-2.29201 2.58331,-0.8351 2.11592,-2.53516 -1.76419,0.16163 -3.7877,0.80201 -4.46252,-1.44361 -0.17739,-0.44233 -1.39032,-1.42319 -0.29338,-1.20281 0.87545,0.24255 2.96971,-0.45769 1.12799,-0.805359 -1.6643,0.369979 -2.75417,-0.547443 -3.72975,-1.669449 -1.17109,0.310097 1.56536,2.194638 -0.5012,1.984978 -1.75155,0.87226 -1.9205,-0.617223 -2.64176,-1.670643 -1.36916,-0.09925 0.90466,2.473523 -1.14398,2.115233 -0.67836,-0.10559 -2.26611,0.93803 -2.43446,0.20651 0.21337,-0.89244 -0.41309,-2.718286 -0.78445,-0.81654 0.54569,1.57218 -3.15023,2.55096 -2.93898,0.96703 -1.22332,-0.66634 -1.02435,2.10011 -2.65823,1.73081 -2.32662,0.0254 -0.69074,2.36462 -1.16294,3.7594 -0.49037,1.25327 -2.74233,1.3446 -2.37191,3.27856 -0.004,1.38432 -0.53525,4.29517 1.77096,3.51665 2.41533,-0.15444 4.82125,-0.75825 7.23913,-0.65377 -2.01729,0.60363 -4.2289,0.52867 -6.17997,1.38767 1.06683,1.37414 -0.35129,3.16314 0.43747,4.84907 0.24129,1.97715 1.01401,3.92752 3.00243,4.6635 1.8237,0.56101 -0.56933,3.25926 -1.55369,2.79214 -0.39678,-0.30537 -0.75394,-0.65933 -1.09465,-1.02514 z m 1.4489,-1.56741 c -1.11703,-0.29556 -1.3177,1.90147 -0.16994,0.52169 0.0947,-0.1448 0.24939,-0.33219 0.16994,-0.52169 z m -1.10814,-0.17389 c 1.19147,-1.84018 -2.16056,0.79639 -0.3467,0.32136 l 0.16908,-0.14115 z m 10.47897,-1.53877 c -0.63146,-1.62918 -1.2155,-3.44192 -1.07221,-5.19971 1.40669,-0.96666 3.40937,-0.75068 5.04038,-1.32684 3.45656,-0.76023 6.98604,-1.10921 10.47253,-1.70844 1.22052,0.98198 2.22501,2.35174 2.15451,3.99659 0.43856,1.87566 -0.18346,3.93398 -2.48727,3.62288 -4.19036,0.50029 -8.38626,1.05138 -12.60254,1.25753 -0.55697,0.001 -1.22736,-0.0769 -1.5054,-0.64201 z m 15.14149,-2.38268 c 0.27797,-1.54348 0.005,-3.79838 -1.73069,-4.33411 -2.53994,-0.007 -5.12747,0.25179 -7.57747,0.94658 -1.32874,1.17437 1.91064,0.32221 2.58227,0.28478 1.81353,-0.0662 4.31228,-1.21863 5.67504,0.31885 0.52889,1.0115 -0.25906,3.2222 0.77996,3.55144 0.14547,-0.23394 0.20941,-0.50323 0.27089,-0.76754 z m -28.97303,-7.67399 c -0.49443,-1.70913 2.07465,-1.19761 1.26618,0.30997 0.0212,1.34428 -1.57076,0.80584 -1.26618,-0.30997 z m 2.49093,-0.18927 c 0.0914,-2.26673 2.27751,-0.53673 0.91743,0.69715 -0.49601,0.19928 -0.97288,-0.16352 -0.91743,-0.69715 z m 2.4636,-0.4982 c -0.19559,-1.91165 2.21863,-0.55697 1.11336,0.77089 -0.60293,0.57663 -1.21964,-0.10716 -1.11336,-0.77089 z m 2.48134,-0.13748 c -0.14368,-1.84345 2.40928,-0.21703 0.90968,0.78482 -0.55076,0.22094 -0.97431,-0.24051 -0.90968,-0.78482 z m -7.4785,-1.59731 c 0.0135,-1.43484 1.34954,-1.69103 1.36918,-0.0695 0.11614,0.74148 -1.41391,0.79061 -1.36918,0.0695 z m 2.47479,-0.54994 c -0.15714,-1.12495 1.1199,-2.40622 1.28347,-0.60216 0.78114,1.28621 -1.29212,2.12272 -1.28347,0.60216 z m 2.47479,-0.27498 c -0.15712,-1.12494 1.1199,-2.40622 1.28347,-0.60217 0.78111,1.2862 -1.29211,2.12272 -1.28347,0.60217 z m 2.47479,-0.10876 c -0.17315,-1.02394 0.86784,-2.69822 1.26436,-0.87233 0.83231,1.09413 -1.3044,2.52768 -1.26436,0.87233 z m 3.25062,-0.0488 c -0.84449,-2.3073 1.26394,-2.57899 2.99168,-2.68478 1.72809,-0.79982 1.82972,2.58074 1.71236,3.26986 -1.54851,0.17009 -3.10297,0.27721 -4.65494,0.40987 -0.0164,-0.33165 -0.0327,-0.6633 -0.0491,-0.99495 z m -1.32578,-0.0506 c -0.29676,-0.71925 -0.51998,-2.73442 0.2536,-1.11721 0.10967,0.41185 -0.0894,2.94409 -0.2536,1.11721 z m 6.90027,-0.6006 c -0.72441,-1.38219 -0.61762,-3.07809 1.33914,-2.83582 2.1214,-1.15486 3.62731,1.46798 3.289,3.01489 -1.36632,-0.1275 -4.34709,2.01943 -4.62814,-0.17907 z m -14.72537,0.5002 c 0.10708,-1.35392 0.76065,0.82539 0,0 z m 2.46304,-0.84393 c 0.58373,-1.14004 0.89351,0.91405 0,0 z m 2.50362,-0.16156 c -0.63057,-1.51214 1.662,0.034 0.1844,0.25244 z m -3.74404,-1.14458 c -0.68733,-1.68753 0.016,-2.9098 1.73667,-3.16936 0.91943,-0.23625 0.64582,1.94003 0.72625,2.66834 0.0406,1.00501 -2.21359,1.42583 -2.46292,0.50102 z m 3.48586,-0.26991 c -0.31395,-1.07037 -0.34335,-2.19724 -0.48405,-3.2991 0.97122,-0.0154 2.11341,-0.65205 2.92989,-0.32267 0.18181,1.39394 1.47993,3.83598 -0.99301,3.64153 -0.45683,0.0593 -1.03148,0.24333 -1.45283,-0.0198 z m 3.68706,-1.61879 c -0.85699,-1.56783 -9.2e-4,-3.08049 1.81966,-2.84448 1.83875,-1.07981 3.23158,2.56457 2.16804,3.45227 -1.21381,0.2807 -2.46155,0.37861 -3.69225,0.56559 -0.0985,-0.39113 -0.19697,-0.78225 -0.29545,-1.17338 z m 5.31887,-0.29396 c -0.56401,-1.37522 -1.54416,-3.48923 0.89423,-3.0662 0.71153,-0.15282 1.37137,-0.19617 1.62465,0.62148 0.53388,0.84023 2.10769,2.47896 0.20438,2.55293 -0.80784,-0.0584 -2.22089,0.78095 -2.72326,-0.10821 z"
       id="path60"
       inkscape:label="drawing" />
    <path
       id="rect19240"
       style="display:inline;fill:#000000;stroke-width:0.5;stroke-linejoin:round;stroke-opacity:0.909449"
       d="m -196.88781,128.58347 v 1.19059 c 0,8.06185 -6.49023,14.55208 -14.55208,14.55208 h -23.8125 c -8.06185,0 -14.55208,-6.49023 -14.55208,-14.55208 v -1.19059 z"
       sodipodi:nodetypes="csssscc"
       inkscape:label="Bottom-label" />
    <g
       aria-label="VETERAN"
       transform="matrix(0.23405448,0,0,0.23405448,-236.06464,75.368174)"
       id="text5483"
       style="font-size:40px;line-height:1.25;white-space:pre;shape-inside:url(#rect5485);fill:#fdfd00">
      <path
         d="m -19.22,273.99321 -7.68,-26 h 7.28 l 2.72,11.36 q 0.56,2.08 0.96,4.12 0.4,2 0.96,4.12 h 0.16 q 0.56,-2.12 0.96,-4.12 0.44,-2.04 0.96,-4.12 l 2.64,-11.36 h 7.04 l -7.68,26 z"
         style="font-weight:900;font-family:'Source Sans Pro';-inkscape-font-specification:'Source Sans Pro Heavy'"
         id="path10005" />
      <path
         d="m -0.74005615,273.99321 v -26 H 16.059944 v 5.76 H 6.1399438 v 4.08 h 8.4800002 v 5.76 H 6.1399438 v 4.64 H 16.459944 v 5.76 z"
         style="font-weight:900;font-family:'Source Sans Pro';-inkscape-font-specification:'Source Sans Pro Heavy'"
         id="path10007" />
      <path
         d="m 26.459934,273.99321 v -20.24 h -6.88 v -5.76 h 20.64 v 5.76 h -6.88 v 20.24 z"
         style="font-weight:900;font-family:'Source Sans Pro';-inkscape-font-specification:'Source Sans Pro Heavy'"
         id="path10009" />
      <path
         d="m 44.059901,273.99321 v -26 h 16.8 v 5.76 h -9.92 v 4.08 h 8.48 v 5.76 h -8.48 v 4.64 h 10.32 v 5.76 z"
         style="font-weight:900;font-family:'Source Sans Pro';-inkscape-font-specification:'Source Sans Pro Heavy';fill:#0000ff;fill-opacity:1"
         id="path10011" />
      <path
         d="m 66.299891,273.99321 v -26 h 9.84 q 2.08,0 3.96,0.4 1.92,0.4 3.32,1.36 1.44,0.96 2.28,2.6 0.84,1.6 0.84,4.04 0,2.8 -1.16,4.64 -1.12,1.84 -3.04,2.88 l 5.64,10.08 h -7.68 l -4.48,-8.72 h -2.64 v 8.72 z m 6.88,-14.16 h 2.48 q 4.16,0 4.16,-3.44 0,-1.68 -1.08,-2.32 -1.04,-0.64 -3.08,-0.64 h -2.48 z"
         style="font-weight:900;font-family:'Source Sans Pro';-inkscape-font-specification:'Source Sans Pro Heavy';fill:#0000ff;fill-opacity:1"
         id="path10013" />
      <path
         d="m 97.819849,261.35321 -0.44,1.8 h 4.800001 l -0.44,-1.8 q -0.48,-1.88 -0.96,-4.08 -0.48,-2.2 -0.960001,-4.16 h -0.16 q -0.44,2 -0.92,4.2 -0.44,2.16 -0.92,4.04 z m -10,12.64 7.92,-26 h 8.320001 l 7.92,26 h -7.28 l -1.28,-5.52 h -7.280001 l -1.28,5.52 z"
         style="font-weight:900;font-family:'Source Sans Pro';-inkscape-font-specification:'Source Sans Pro Heavy';fill:#0000ff;fill-opacity:1"
         id="path10015" />
      <path
         d="m 114.45983,273.99321 v -26 h 7.04 l 5.76,11.6 2.48,5.84 h 0.16 q -0.12,-1.04 -0.28,-2.28 -0.16,-1.24 -0.28,-2.52 -0.12,-1.32 -0.24,-2.6 -0.08,-1.32 -0.08,-2.52 v -7.52 h 6.56 v 26 h -7.04 l -5.76,-11.64 -2.48,-5.8 h -0.16 q 0.24,2.24 0.56,4.88 0.32,2.64 0.32,5.04 v 7.52 z"
         style="font-weight:900;font-family:'Source Sans Pro';-inkscape-font-specification:'Source Sans Pro Heavy';fill:#0000ff;fill-opacity:1"
         id="path10017" />
    </g>
  </g>
</svg>
