<?xml version="1.0" encoding="UTF-8" standalone="no"?>
<svg
   width="200"
   height="200"
   viewBox="0 0 52.916668 52.916666"
   version="1.1"
   id="svg8"
   inkscape:version="1.1 (c68e22c387, 2021-05-23)"
   sodipodi:docname="wacky.svg"
   xmlns:inkscape="http://www.inkscape.org/namespaces/inkscape"
   xmlns:sodipodi="http://sodipodi.sourceforge.net/DTD/sodipodi-0.dtd"
   xmlns="http://www.w3.org/2000/svg"
   xmlns:svg="http://www.w3.org/2000/svg"
   xmlns:rdf="http://www.w3.org/1999/02/22-rdf-syntax-ns#"
   xmlns:cc="http://creativecommons.org/ns#"
   xmlns:dc="http://purl.org/dc/elements/1.1/">
  <defs
     id="defs2">
    <rect
       x="-175"
       y="223"
       width="298"
       height="92.5"
       id="rect3818" />
    <rect
       x="-247"
       y="42"
       width="137"
       height="81.5"
       id="rect1185" />
    <rect
       x="-48.175333"
       y="18.9895"
       width="46.117357"
       height="15.996081"
       id="rect880" />
    <rect
       x="-255.23004"
       y="125.83378"
       width="102.52459"
       height="46.959256"
       id="rect873" />
    <inkscape:path-effect
       effect="envelope"
       id="path-effect4658"
       is_visible="true"
       yy="true"
       xx="true"
       bendpath1="m -199.08406,108.42369 h 7.0057"
       bendpath2="m -192.07836,108.42369 v 6.75242"
       bendpath3="m -199.08406,115.17611 h 7.0057"
       bendpath4="m -199.08406,108.42369 v 6.75242" />
    <inkscape:path-effect
       effect="bend_path"
       id="path-effect4656"
       is_visible="true"
       bendpath="m -192.00142,114.60623 c 2.12577,-0.53066 4.48261,0.85111 7.0057,0"
       prop_scale="1"
       scale_y_rel="false"
       vertical="false"
       bendpath-nodetypes="cc" />
    <inkscape:path-effect
       effect="bounding_box"
       id="path-effect4654"
       is_visible="true"
       linkedpath=""
       visualbounds="false" />
    <linearGradient
       id="linearGradient3288"
       inkscape:swatch="solid">
      <stop
         style="stop-color:#000000;stop-opacity:1;"
         offset="0"
         id="stop3286" />
    </linearGradient>
    <linearGradient
       id="linearGradient1364"
       inkscape:swatch="solid">
      <stop
         style="stop-color:#ffffff;stop-opacity:1;"
         offset="0"
         id="stop1362" />
    </linearGradient>
    <rect
       x="293.80286"
       y="272.58966"
       width="25.455845"
       height="37.830212"
       id="rect1056" />
    <rect
       x="222.73865"
       y="266.22571"
       width="47.376156"
       height="54.09367"
       id="rect1050" />
    <rect
       x="139.30003"
       y="246.42671"
       width="58.336308"
       height="48.790367"
       id="rect1044" />
    <rect
       x="131.1683"
       y="203.64674"
       width="61.871841"
       height="73.892654"
       id="rect1038" />
    <rect
       x="81.67083"
       y="193.04015"
       width="63.63961"
       height="55.507881"
       id="rect1032" />
    <rect
       x="83.085045"
       y="274.35742"
       width="44.194176"
       height="38.890873"
       id="rect1026" />
    <rect
       x="3.5355339"
       y="269.05414"
       width="65.760933"
       height="53.386562"
       id="rect1020" />
    <rect
       x="14.142136"
       y="226.27417"
       width="79.195961"
       height="62.932503"
       id="rect1014" />
    <rect
       x="11.313708"
       y="171.82695"
       width="36.416"
       height="51.618793"
       id="rect1008" />
    <rect
       x="3.1819806"
       y="132.22897"
       width="102.88404"
       height="102.53048"
       id="rect1002" />
  </defs>
  <sodipodi:namedview
     id="base"
     pagecolor="#ffffff"
     bordercolor="#666666"
     borderopacity="1.0"
     inkscape:pageopacity="0.0"
     inkscape:pageshadow="2"
     inkscape:zoom="2"
     inkscape:cx="58"
     inkscape:cy="141.75"
     inkscape:document-units="mm"
     inkscape:current-layer="layer1"
     showgrid="false"
     fit-margin-top="0"
     fit-margin-left="0"
     fit-margin-right="0"
     fit-margin-bottom="0"
     inkscape:window-width="1920"
     inkscape:window-height="1017"
     inkscape:window-x="-8"
     inkscape:window-y="-8"
     inkscape:window-maximized="1"
     showguides="false"
     inkscape:object-nodes="true"
     units="px"
     inkscape:snap-page="true"
     inkscape:document-rotation="0"
     inkscape:pagecheckerboard="1" />
  <metadata
     id="metadata5">
    <rdf:RDF>
      <cc:Work
         rdf:about="">
        <dc:format>image/svg+xml</dc:format>
        <dc:type
           rdf:resource="http://purl.org/dc/dcmitype/StillImage" />
      </cc:Work>
    </rdf:RDF>
  </metadata>
  <g
     inkscape:label="Base"
     inkscape:groupmode="layer"
     id="layer1"
     transform="translate(249.80447,-91.409467)">
    <rect
       y="91.40947"
       x="-249.80447"
       height="52.916668"
       width="52.916668"
       id="rect5238-5"
       style="display:inline;fill:#000000;fill-opacity:1;fill-rule:nonzero;stroke:none;stroke-width:0.5;stroke-linecap:butt;stroke-linejoin:round;stroke-miterlimit:4;stroke-dasharray:none;stroke-dashoffset:0;stroke-opacity:0.909449;paint-order:normal"
       rx="14.552089"
       ry="14.552081"
       inkscape:label="Bottom-rectangle" />
    <path
       id="rect18865"
       style="display:inline;fill:#89001c;fill-opacity:1;stroke-width:0.450003;stroke-linejoin:round;stroke-opacity:0.909449"
       d="m -234.06184,94.055153 h 21.43138 c 7.25572,0 13.09696,5.841242 13.09696,13.096957 v 21.43139 h -47.6253 v -21.43139 c 0,-7.255715 5.84125,-13.096957 13.09696,-13.096957 z"
       sodipodi:nodetypes="sssccss"
       inkscape:label="Inner-rectangle" />
    <path
       id="path848"
       style="fill:#000000;fill-opacity:1;stroke:none;stroke-width:1.44156;stroke-linecap:round;paint-order:stroke fill markers"
       d="m -223.34584,96.783062 a 18.2972,17.487685 0 0 0 -18.2974,17.487678 18.2972,17.487685 0 0 0 18.2974,17.48769 18.2972,17.487685 0 0 0 18.29681,-17.48769 18.2972,17.487685 0 0 0 -18.29681,-17.487678 z m -10e-4,10.737818 c 3.36721,0 6.42241,0.68406 8.69615,1.84265 2.27372,1.15859 3.85958,2.86037 3.85958,4.9078 0,2.04744 -1.58586,3.74687 -3.85958,4.90547 -2.27374,1.15858 -5.32894,1.84498 -8.69615,1.84498 -3.36721,0 -6.42003,-0.6864 -8.69378,-1.84498 -2.27373,-1.1586 -3.86135,-2.85803 -3.86135,-4.90547 0,-2.04743 1.58762,-3.74921 3.86135,-4.9078 2.27375,-1.15859 5.32657,-1.84265 8.69378,-1.84265 z m 0,1.43985 c -3.16871,0 -6.02949,0.66559 -8.03894,1.68953 -2.00945,1.02391 -3.074,2.33811 -3.074,3.62107 0,1.28297 1.06455,2.59717 3.074,3.62108 2.00945,1.02393 4.87023,1.68717 8.03894,1.68717 3.16872,0 6.03243,-0.66324 8.04189,-1.68717 2.00946,-1.02391 3.07341,-2.33811 3.07341,-3.62108 0,-1.28296 -1.06395,-2.59716 -3.07341,-3.62107 -2.00946,-1.02394 -4.87317,-1.68953 -8.04189,-1.68953 z m -0.0359,2.33258 a 3.128184,2.977428 0 0 1 0.0372,0 3.128184,2.977428 0 0 1 3.12819,2.97743 3.128184,2.977428 0 0 1 -3.12819,2.97743 3.128184,2.977428 0 0 1 -3.12818,-2.97743 3.128184,2.977428 0 0 1 3.09108,-2.97743 z"
       inkscape:label="Drawing" />
    <path
       id="rect19240"
       style="display:inline;fill:#000000;stroke-width:0.5;stroke-linejoin:round;stroke-opacity:0.909449"
       d="m -196.88781,128.58347 v 1.19059 c 0,8.06185 -6.49023,14.55208 -14.55208,14.55208 h -23.8125 c -8.06185,0 -14.55208,-6.49023 -14.55208,-14.55208 v -1.19059 z"
       sodipodi:nodetypes="csssscc"
       inkscape:label="Bottom-label" />
    <g
       aria-label="WACKY"
       transform="matrix(0.30796119,0,0,0.30796119,-188.82982,60.544462)"
       id="text3816"
       style="font-size:40px;line-height:1.25;white-space:pre;shape-inside:url(#rect3818);fill:#89001c">
      <path
         d="m -170.04,259.49321 -4.56,-26 h 7.04 l 1.44,11.36 q 0.2,2.04 0.44,4.08 0.24,2.04 0.44,4.08 h 0.16 q 0.36,-2.04 0.72,-4.08 0.36,-2.04 0.72,-4.08 l 2.48,-11.36 h 5.76 l 2.48,11.36 q 0.36,1.96 0.72,4.04 0.36,2.04 0.72,4.12 h 0.16 q 0.2,-2.08 0.44,-4.12 0.24,-2.04 0.44,-4.04 l 1.44,-11.36 h 6.56 l -4.32,26 h -8.72 l -2,-10.32 q -0.32,-1.52 -0.56,-3.08 -0.2,-1.56 -0.4,-3 h -0.16 q -0.2,1.44 -0.44,3 -0.2,1.56 -0.52,3.08 l -1.92,10.32 z"
         style="font-weight:900;font-family:'Source Sans Pro';-inkscape-font-specification:'Source Sans Pro Heavy'"
         id="path9444" />
      <path
         d="m -132.44002,246.85321 -0.44,1.8 h 4.8 l -0.44,-1.8 q -0.48,-1.88 -0.96,-4.08 -0.48,-2.2 -0.96,-4.16 h -0.16 q -0.44,2 -0.92,4.2 -0.44,2.16 -0.92,4.04 z m -10,12.64 7.92,-26 h 8.32 l 7.92,26 h -7.28 l -1.28,-5.52 h -7.28 l -1.28,5.52 z"
         style="font-weight:900;font-family:'Source Sans Pro';-inkscape-font-specification:'Source Sans Pro Heavy'"
         id="path9446" />
      <path
         d="m -104.92005,259.97321 q -2.48,0 -4.76,-0.8 -2.24,-0.84 -3.96,-2.48 -1.68,-1.68 -2.68,-4.16 -1,-2.52 -1,-5.84 0,-3.28 1.04,-5.8 1.04,-2.56 2.76,-4.28 1.76,-1.76 4,-2.68 2.28,-0.92 4.76,-0.92 2.6,0 4.64,1.04 2.040002,1 3.440002,2.4 l -3.600002,4.4 q -0.96,-0.84 -2,-1.36 -1,-0.56 -2.32,-0.56 -1.16,0 -2.2,0.52 -1,0.52 -1.8,1.48 -0.76,0.96 -1.24,2.36 -0.44,1.4 -0.44,3.16 0,3.68 1.52,5.64 1.56,1.96 4.08,1.96 1.52,0 2.68,-0.64 1.2,-0.68 2.040002,-1.6 l 3.6,4.32 q -1.68,1.92 -3.880002,2.88 -2.16,0.96 -4.68,0.96 z"
         style="font-weight:900;font-family:'Source Sans Pro';-inkscape-font-specification:'Source Sans Pro Heavy'"
         id="path9448" />
      <path
         d="m -92.760106,259.49321 v -26 h 6.88 v 9.68 h 0.16 l 6.56,-9.68 h 7.52 l -7.76,10.56 9.28,15.44 h -7.52 l -5.76,-10 -2.48,3.52 v 6.48 z"
         style="font-weight:900;font-family:'Source Sans Pro';-inkscape-font-specification:'Source Sans Pro Heavy'"
         id="path9450" />
      <path
         d="m -64.2802,259.49321 v -8.96 l -7.84,-17.04 h 7.36 l 1.92,5.44 q 0.48,1.48 0.96,2.88 0.48,1.4 1,2.92 h 0.16 q 0.52,-1.52 1,-2.92 0.52,-1.4 1.04,-2.88 l 1.92,-5.44 h 7.2 l -7.84,17.04 v 8.96 z"
         style="font-weight:900;font-family:'Source Sans Pro';-inkscape-font-specification:'Source Sans Pro Heavy'"
         id="path9452" />
    </g>
  </g>
</svg>
