<svg width="200" height="200" viewBox="0 0 52.917 52.917" xmlns="http://www.w3.org/2000/svg"><defs><path id="a" d="M-175 223h298v92.5h-298z"/></defs><g transform="translate(249.804 -91.41)"><rect y="91.409" x="-249.804" height="52.917" width="52.917" style="display:inline;fill:#000;fill-opacity:1;fill-rule:nonzero;stroke:none;stroke-width:.5;stroke-linecap:butt;stroke-linejoin:round;stroke-miterlimit:4;stroke-dasharray:none;stroke-dashoffset:0;stroke-opacity:.909449;paint-order:normal" rx="14.552" ry="14.552"/><path style="display:inline;fill:#89001c;fill-opacity:1;stroke-width:.450003;stroke-linejoin:round;stroke-opacity:.909449" d="M-234.062 94.055h21.432a13.068 13.068 0 0 1 13.096 13.097v21.432h-47.625v-21.432a13.068 13.068 0 0 1 13.097-13.097z"/><path style="fill:#000;fill-opacity:1;stroke:none;stroke-width:1.44156;stroke-linecap:round;paint-order:stroke fill markers" d="M-223.346 96.783a18.297 17.488 0 0 0-18.297 17.488 18.297 17.488 0 0 0 18.297 17.487 18.297 17.488 0 0 0 18.297-17.487 18.297 17.488 0 0 0-18.297-17.488zm0 10.738c3.366 0 6.422.684 8.695 1.843 2.274 1.158 3.86 2.86 3.86 4.907 0 2.048-1.586 3.747-3.86 4.906-2.273 1.158-5.329 1.845-8.696 1.845s-6.42-.687-8.694-1.845c-2.273-1.159-3.861-2.858-3.861-4.906 0-2.047 1.588-3.749 3.861-4.907 2.274-1.16 5.327-1.843 8.694-1.843zm0 1.44c-3.17 0-6.03.665-8.04 1.69-2.01 1.023-3.074 2.337-3.074 3.62s1.065 2.598 3.074 3.621c2.01 1.024 4.87 1.688 8.04 1.688 3.168 0 6.032-.664 8.041-1.688 2.01-1.023 3.073-2.338 3.073-3.62 0-1.284-1.063-2.598-3.073-3.622s-4.873-1.69-8.042-1.69zm-.037 2.332a3.128 2.977 0 0 1 .037 0 3.128 2.977 0 0 1 3.129 2.978 3.128 2.977 0 0 1-3.129 2.977 3.128 2.977 0 0 1-3.128-2.977 3.128 2.977 0 0 1 3.091-2.978z"/><path style="display:inline;fill:#000;stroke-width:.5;stroke-linejoin:round;stroke-opacity:.909449" d="M-196.888 128.583v1.191a14.52 14.52 0 0 1-14.552 14.552h-23.812a14.52 14.52 0 0 1-14.552-14.552v-1.19z"/><g aria-label="WACKY" transform="translate(-188.83 60.544) scale(.30796)" style="font-size:40px;line-height:1.25;white-space:pre;shape-inside:url(#a);fill:#89001c"><path d="m-170.04 259.493-4.56-26h7.04l1.44 11.36q.2 2.04.44 4.08t.44 4.08h.16l.72-4.08.72-4.08 2.48-11.36h5.76l2.48 11.36q.36 1.96.72 4.04.36 2.04.72 4.12h.16q.2-2.08.44-4.12t.44-4.04l1.44-11.36h6.56l-4.32 26h-8.72l-2-10.32q-.32-1.52-.56-3.08-.2-1.56-.4-3h-.16q-.2 1.44-.44 3-.2 1.56-.52 3.08l-1.92 10.32zM-132.44 246.853l-.44 1.8h4.8l-.44-1.8q-.48-1.88-.96-4.08t-.96-4.16h-.16q-.44 2-.92 4.2-.44 2.16-.92 4.04zm-10 12.64 7.92-26h8.32l7.92 26h-7.28l-1.28-5.52h-7.28l-1.28 5.52zM-104.92 259.973q-2.48 0-4.76-.8-2.24-.84-3.96-2.48-1.68-1.68-2.68-4.16-1-2.52-1-5.84 0-3.28 1.04-5.8 1.04-2.56 2.76-4.28 1.76-1.76 4-2.68 2.28-.92 4.76-.92 2.6 0 4.64 1.04 2.04 1 3.44 2.4l-3.6 4.4q-.96-.84-2-1.36-1-.56-2.32-.56-1.16 0-2.2.52-1 .52-1.8 1.48-.76.96-1.24 2.36-.44 1.4-.44 3.16 0 3.68 1.52 5.64 1.56 1.96 4.08 1.96 1.52 0 2.68-.64 1.2-.68 2.04-1.6l3.6 4.32q-1.68 1.92-3.88 2.88-2.16.96-4.68.96zM-92.76 259.493v-26h6.88v9.68h.16l6.56-9.68h7.52l-7.76 10.56 9.28 15.44h-7.52l-5.76-10-2.48 3.52v6.48z" style="font-weight:900;font-family:'Source Sans Pro';-inkscape-font-specification:'Source Sans Pro Heavy'"/><path d="M-64.28 259.493v-8.96l-7.84-17.04h7.36l1.92 5.44q.48 1.48.96 2.88l1 2.92h.16l1-2.92q.52-1.4 1.04-2.88l1.92-5.44h7.2l-7.84 17.04v8.96z" style="font-weight:900;font-family:'Source Sans Pro';-inkscape-font-specification:'Source Sans Pro Heavy'"/></g></g></svg>