<?xml version="1.0" encoding="UTF-8" standalone="no"?>
<svg
   width="200"
   height="200"
   viewBox="0 0 52.916668 52.916666"
   version="1.1"
   id="svg8"
   inkscape:version="1.1 (c68e22c387, 2021-05-23)"
   sodipodi:docname="wholesome.svg"
   xmlns:inkscape="http://www.inkscape.org/namespaces/inkscape"
   xmlns:sodipodi="http://sodipodi.sourceforge.net/DTD/sodipodi-0.dtd"
   xmlns="http://www.w3.org/2000/svg"
   xmlns:svg="http://www.w3.org/2000/svg"
   xmlns:rdf="http://www.w3.org/1999/02/22-rdf-syntax-ns#"
   xmlns:cc="http://creativecommons.org/ns#"
   xmlns:dc="http://purl.org/dc/elements/1.1/">
  <defs
     id="defs2">
    <rect
       x="-210"
       y="119"
       width="242"
       height="59.999999"
       id="rect1738" />
    <rect
       x="-247"
       y="42"
       width="137"
       height="81.5"
       id="rect1185" />
    <rect
       x="-48.175333"
       y="18.9895"
       width="46.117357"
       height="15.996081"
       id="rect880" />
    <rect
       x="-255.23004"
       y="125.83378"
       width="102.52459"
       height="46.959256"
       id="rect873" />
    <inkscape:path-effect
       effect="envelope"
       id="path-effect4658"
       is_visible="true"
       yy="true"
       xx="true"
       bendpath1="m -199.08406,108.42369 h 7.0057"
       bendpath2="m -192.07836,108.42369 v 6.75242"
       bendpath3="m -199.08406,115.17611 h 7.0057"
       bendpath4="m -199.08406,108.42369 v 6.75242" />
    <inkscape:path-effect
       effect="bend_path"
       id="path-effect4656"
       is_visible="true"
       bendpath="m -192.00142,114.60623 c 2.12577,-0.53066 4.48261,0.85111 7.0057,0"
       prop_scale="1"
       scale_y_rel="false"
       vertical="false"
       bendpath-nodetypes="cc" />
    <inkscape:path-effect
       effect="bounding_box"
       id="path-effect4654"
       is_visible="true"
       linkedpath=""
       visualbounds="false" />
    <linearGradient
       id="linearGradient3288"
       inkscape:swatch="solid">
      <stop
         style="stop-color:#000000;stop-opacity:1;"
         offset="0"
         id="stop3286" />
    </linearGradient>
    <linearGradient
       id="linearGradient1364"
       inkscape:swatch="solid">
      <stop
         style="stop-color:#ffffff;stop-opacity:1;"
         offset="0"
         id="stop1362" />
    </linearGradient>
    <rect
       x="293.80286"
       y="272.58966"
       width="25.455845"
       height="37.830212"
       id="rect1056" />
    <rect
       x="222.73865"
       y="266.22571"
       width="47.376156"
       height="54.09367"
       id="rect1050" />
    <rect
       x="139.30003"
       y="246.42671"
       width="58.336308"
       height="48.790367"
       id="rect1044" />
    <rect
       x="131.1683"
       y="203.64674"
       width="61.871841"
       height="73.892654"
       id="rect1038" />
    <rect
       x="81.67083"
       y="193.04015"
       width="63.63961"
       height="55.507881"
       id="rect1032" />
    <rect
       x="83.085045"
       y="274.35742"
       width="44.194176"
       height="38.890873"
       id="rect1026" />
    <rect
       x="3.5355339"
       y="269.05414"
       width="65.760933"
       height="53.386562"
       id="rect1020" />
    <rect
       x="14.142136"
       y="226.27417"
       width="79.195961"
       height="62.932503"
       id="rect1014" />
    <rect
       x="11.313708"
       y="171.82695"
       width="36.416"
       height="51.618793"
       id="rect1008" />
    <rect
       x="3.1819806"
       y="132.22897"
       width="102.88404"
       height="102.53048"
       id="rect1002" />
  </defs>
  <sodipodi:namedview
     id="base"
     pagecolor="#ffffff"
     bordercolor="#666666"
     borderopacity="1.0"
     inkscape:pageopacity="0.0"
     inkscape:pageshadow="2"
     inkscape:zoom="2"
     inkscape:cx="58"
     inkscape:cy="141.75"
     inkscape:document-units="mm"
     inkscape:current-layer="layer1"
     showgrid="false"
     fit-margin-top="0"
     fit-margin-left="0"
     fit-margin-right="0"
     fit-margin-bottom="0"
     inkscape:window-width="1920"
     inkscape:window-height="1017"
     inkscape:window-x="-8"
     inkscape:window-y="-8"
     inkscape:window-maximized="1"
     showguides="false"
     inkscape:object-nodes="true"
     units="px"
     inkscape:snap-page="true"
     inkscape:document-rotation="0"
     inkscape:pagecheckerboard="1" />
  <metadata
     id="metadata5">
    <rdf:RDF>
      <cc:Work
         rdf:about="">
        <dc:format>image/svg+xml</dc:format>
        <dc:type
           rdf:resource="http://purl.org/dc/dcmitype/StillImage" />
      </cc:Work>
    </rdf:RDF>
  </metadata>
  <g
     inkscape:label="Base"
     inkscape:groupmode="layer"
     id="layer1"
     transform="translate(249.80447,-91.409467)">
    <rect
       y="91.40947"
       x="-249.80447"
       height="52.916668"
       width="52.916668"
       id="rect5238-5"
       style="display:inline;fill:#000000;fill-opacity:1;fill-rule:nonzero;stroke:none;stroke-width:0.5;stroke-linecap:butt;stroke-linejoin:round;stroke-miterlimit:4;stroke-dasharray:none;stroke-dashoffset:0;stroke-opacity:0.909449;paint-order:normal"
       rx="14.552089"
       ry="14.552081"
       inkscape:label="Bottom-rectangle" />
    <path
       id="rect18865"
       style="display:inline;fill:#c000ff;fill-opacity:1;stroke-width:0.450003;stroke-linejoin:round;stroke-opacity:0.909449"
       d="m -234.06184,94.055153 h 21.43138 c 7.25572,0 13.09696,5.841242 13.09696,13.096957 v 21.43139 h -47.6253 v -21.43139 c 0,-7.255715 5.84125,-13.096957 13.09696,-13.096957 z"
       sodipodi:nodetypes="sssccss"
       inkscape:label="Inner-rectangle" />
    <path
       style="fill:#000000;stroke-width:0.177985"
       d="m -222.8917,131.75289 c -3.23419,-0.42715 -6.6154,-0.85593 -9.48981,-2.50244 -1.7764,-1.0616 -2.86498,-3.0398 -2.8083,-5.10484 -0.12855,-2.93578 0.92235,-5.84315 2.53534,-8.25817 0.4707,-0.3779 0.77926,-1.23484 1.4816,-1.11069 5.6123,0.0296 11.22742,-0.0759 16.83741,0.0858 1.67727,0.23814 1.86187,2.55914 2.51282,3.84385 0.47571,2.54853 0.40115,5.20219 0.0123,7.75961 -0.42096,1.80139 -0.84152,3.94074 -2.54114,4.97061 -1.96177,0.57615 -4.05676,0.28111 -6.07952,0.36315 -0.82017,-0.008 -1.6416,0.001 -2.46068,-0.0469 z m 8.19441,-5.67776 c 1.28631,-0.80171 1.41693,-2.61848 1.09945,-3.95597 -1.32138,-0.17219 0.0401,2.7053 -1.41951,3.19327 -1.67958,1.14619 -3.1015,-0.90582 -2.71327,-2.50511 0.34448,-1.16335 -0.82751,-1.30919 -0.6582,-0.10124 -0.26924,1.42013 0.18912,3.50725 1.89982,3.63625 0.60389,0.0159 1.22936,-0.0297 1.79171,-0.2672 z m -8.96254,-1.1021 c 0.73289,-0.6183 1.97045,-2.98046 0.86906,-3.33617 -0.47392,1.2921 -1.24256,3.8679 -3.11721,2.6241 -1.00532,-1.11652 -0.17201,-2.71434 0.0631,-3.72714 -1.45847,-0.41392 -1.399,2.25082 -1.15561,3.24345 0.29023,1.58947 2.13048,1.82228 3.34062,1.19576 z m -7.86848,-11.82965 c -0.42412,-2.05049 2.51187,-1.24304 3.7016,-1.52782 4.57121,-0.13622 9.18468,-0.16747 13.73136,-0.29807 0.20135,0.889 0.0629,1.83403 0.1029,2.74732 -5.80304,0 -11.60608,0 -17.40912,0 -0.0422,-0.30715 -0.0845,-0.61428 -0.12674,-0.92143 z m 0.15677,-2.56272 c -0.68817,-1.61108 -0.25654,-3.46999 -0.88271,-5.11701 -0.32229,-1.06665 -0.69829,-2.11602 -1.04939,-3.17338 2.22904,-2.0773 4.69133,-3.876433 7.28369,-5.471431 1.2001,-0.629978 2.4989,-2.094 3.79515,-1.97648 2.83466,2.474885 5.4182,5.275881 8.63899,7.275931 1.50094,1.09507 -1.03052,2.75736 -0.80654,4.23833 -0.7014,1.20093 0.49565,4.00811 -1.25755,4.19158 -5.0898,0.26002 -10.20148,0.21384 -15.28568,0.45177 l -0.22735,-0.13786 z"
       id="path78"
       inkscape:label="Drawing" />
    <path
       id="rect19240"
       style="display:inline;fill:#000000;stroke-width:0.5;stroke-linejoin:round;stroke-opacity:0.909449"
       d="m -196.88781,128.58347 v 1.19059 c 0,8.06185 -6.49023,14.55208 -14.55208,14.55208 h -23.8125 c -8.06185,0 -14.55208,-6.49023 -14.55208,-14.55208 v -1.19059 z"
       sodipodi:nodetypes="csssscc"
       inkscape:label="Bottom-label" />
    <g
       aria-label="WHOLESOME"
       transform="matrix(0.17625803,0,0,0.17625803,-206.87657,111.33923)"
       id="text1736"
       style="font-size:40px;line-height:1.25;white-space:pre;shape-inside:url(#rect1738);fill:#c000ff">
      <path
         d="m -205.04,155.49321 -4.56,-26 h 7.04 l 1.44,11.36 q 0.2,2.04 0.44,4.08 0.24,2.04 0.44,4.08 h 0.16 q 0.36,-2.04 0.72,-4.08 0.36,-2.04 0.72,-4.08 l 2.48,-11.36 h 5.76 l 2.48,11.36 q 0.36,1.96 0.72,4.04 0.36,2.04 0.72,4.12 h 0.16 q 0.2,-2.08 0.44,-4.12 0.24,-2.04 0.44,-4.04 l 1.44,-11.36 h 6.56 l -4.32,26 h -8.72 l -2,-10.32 q -0.32,-1.52 -0.56,-3.08 -0.2,-1.56 -0.4,-3 h -0.16 q -0.2,1.44 -0.44,3 -0.2,1.56 -0.52,3.08 l -1.92,10.32 z"
         style="font-weight:900;font-family:'Source Sans Pro';-inkscape-font-specification:'Source Sans Pro Heavy'"
         id="path54" />
      <path
         d="m -174.16002,155.49321 v -26 h 6.88 v 9.68 h 7.76 v -9.68 h 6.88 v 26 h -6.88 v -10.32 h -7.76 v 10.32 z"
         style="font-weight:900;font-family:'Source Sans Pro';-inkscape-font-specification:'Source Sans Pro Heavy'"
         id="path56" />
      <path
         d="m -135.92006,155.97321 q -2.72,0 -4.96,-0.92 -2.2,-0.92 -3.8,-2.64 -1.56,-1.76 -2.44,-4.28 -0.88,-2.56 -0.88,-5.76 0,-3.2 0.88,-5.68 0.88,-2.52 2.44,-4.2 1.6,-1.72 3.8,-2.6 2.24,-0.88 4.96,-0.88 2.68,0 4.92,0.88 2.24,0.88 3.8,2.6 1.6,1.72 2.48,4.2 0.88,2.48 0.88,5.68 0,3.2 -0.88,5.76 -0.88,2.52 -2.48,4.28 -1.56,1.72 -3.8,2.64 -2.24,0.92 -4.92,0.92 z m 0,-5.92 q 2.36,0 3.68,-2.04 1.36,-2.08 1.36,-5.64 0,-3.56 -1.36,-5.48 -1.32,-1.96 -3.68,-1.96 -2.36,0 -3.72,1.96 -1.32,1.92 -1.32,5.48 0,3.56 1.32,5.64 1.36,2.04 3.72,2.04 z"
         style="font-weight:900;font-family:'Source Sans Pro';-inkscape-font-specification:'Source Sans Pro Heavy'"
         id="path58" />
      <path
         d="m -119.20008,155.49321 v -26 h 6.88 v 20.24 h 9.84 v 5.76 z"
         style="font-weight:900;font-family:'Source Sans Pro';-inkscape-font-specification:'Source Sans Pro Heavy'"
         id="path60" />
      <path
         d="m -98.000127,155.49321 v -26 h 16.8 v 5.76 h -9.92 v 4.08 h 8.48 v 5.76 h -8.48 v 4.64 h 10.32 v 5.76 z"
         style="font-weight:900;font-family:'Source Sans Pro';-inkscape-font-specification:'Source Sans Pro Heavy'"
         id="path62" />
      <path
         d="m -67.520137,155.97321 q -2.48,0 -5.12,-0.88 -2.6,-0.92 -4.72,-2.84 l 3.92,-4.72 q 1.4,1.12 3,1.84 1.64,0.68 3.08,0.68 1.56,0 2.24,-0.48 0.72,-0.48 0.72,-1.36 0,-0.48 -0.24,-0.8 -0.24,-0.32 -0.72,-0.6 -0.44,-0.28 -1.08,-0.52 -0.64,-0.28 -1.48,-0.6 l -3.24,-1.36 q -1.04,-0.4 -2,-1.04 -0.96,-0.68 -1.68,-1.56 -0.72,-0.92 -1.16,-2.08 -0.4,-1.16 -0.4,-2.56 0,-1.68 0.72,-3.12 0.72,-1.48 2,-2.56 1.28,-1.12 3.04,-1.76 1.8,-0.64 3.92,-0.64 2.24,0 4.52,0.84 2.32,0.84 4.12,2.64 l -3.44,4.32 q -1.32,-0.92 -2.56,-1.4 -1.2,-0.48 -2.64,-0.48 -1.28,0 -2,0.44 -0.72,0.44 -0.72,1.32 0,0.92 1,1.44 1.04,0.48 2.84,1.16 l 3.16,1.24 q 2.44,0.96 3.76,2.68 1.32,1.72 1.32,4.44 0,1.64 -0.68,3.16 -0.68,1.52 -2,2.68 -1.28,1.12 -3.16,1.8 -1.88,0.68 -4.32,0.68 z"
         style="font-weight:900;font-family:'Source Sans Pro';-inkscape-font-specification:'Source Sans Pro Heavy'"
         id="path64" />
      <path
         d="m -42.24017,155.97321 q -2.72,0 -4.96,-0.92 -2.2,-0.92 -3.8,-2.64 -1.56,-1.76 -2.44,-4.28 -0.88,-2.56 -0.88,-5.76 0,-3.2 0.88,-5.68 0.88,-2.52 2.44,-4.2 1.6,-1.72 3.8,-2.6 2.24,-0.88 4.96,-0.88 2.68,0 4.92,0.88 2.24,0.88 3.8,2.6 1.6,1.72 2.48,4.2 0.88,2.48 0.88,5.68 0,3.2 -0.88,5.76 -0.88,2.52 -2.48,4.28 -1.56,1.72 -3.8,2.64 -2.24,0.92 -4.92,0.92 z m 0,-5.92 q 2.36,0 3.68,-2.04 1.36,-2.08 1.36,-5.64 0,-3.56 -1.36,-5.48 -1.32,-1.96 -3.68,-1.96 -2.36,0 -3.72,1.96 -1.32,1.92 -1.32,5.48 0,3.56 1.32,5.64 1.36,2.04 3.72,2.04 z"
         style="font-weight:900;font-family:'Source Sans Pro';-inkscape-font-specification:'Source Sans Pro Heavy'"
         id="path66" />
      <path
         d="m -25.520192,155.49321 v -26 h 7.36 l 3.92,10.64 q 0.36,1.08 0.68,2.24 0.32,1.16 0.68,2.32 h 0.16 q 0.36,-1.16 0.68,-2.32 0.32,-1.16 0.68,-2.24 l 3.7599997,-10.64 h 7.36000004 v 26 H -6.4801923 v -7.68 q 0,-1 0.08,-2.2 0.12,-1.2 0.24,-2.44 0.12,-1.28 0.28,-2.48 0.16,-1.2 0.28,-2.16 h -0.16 l -2.16,6.24 -3.1999997,8.6 h -3.68 l -3.2,-8.6 -2.08,-6.24 h -0.16 q 0.12,0.96 0.28,2.16 0.16,1.2 0.28,2.48 0.12,1.24 0.2,2.44 0.12,1.2 0.12,2.2 v 7.68 z"
         style="font-weight:900;font-family:'Source Sans Pro';-inkscape-font-specification:'Source Sans Pro Heavy'"
         id="path68" />
      <path
         d="m 5.5197705,155.49321 v -26 H 22.319771 v 5.76 h -9.92 v 4.08 h 8.48 v 5.76 h -8.48 v 4.64 h 10.32 v 5.76 z"
         style="font-weight:900;font-family:'Source Sans Pro';-inkscape-font-specification:'Source Sans Pro Heavy'"
         id="path70" />
    </g>
  </g>
</svg>
