<svg width="200" height="200" viewBox="0 0 52.917 52.917" xmlns="http://www.w3.org/2000/svg"><defs><path id="a" d="M-210 119H32v60h-242z"/></defs><g transform="translate(249.804 -91.41)"><rect y="91.409" x="-249.804" height="52.917" width="52.917" style="display:inline;fill:#000;fill-opacity:1;fill-rule:nonzero;stroke:none;stroke-width:.5;stroke-linecap:butt;stroke-linejoin:round;stroke-miterlimit:4;stroke-dasharray:none;stroke-dashoffset:0;stroke-opacity:.909449;paint-order:normal" rx="14.552" ry="14.552"/><path style="display:inline;fill:#c000ff;fill-opacity:1;stroke-width:.450003;stroke-linejoin:round;stroke-opacity:.909449" d="M-234.062 94.055h21.432a13.068 13.068 0 0 1 13.096 13.097v21.432h-47.625v-21.432a13.068 13.068 0 0 1 13.097-13.097z"/><path style="fill:#000;stroke-width:.177985" d="M-222.892 131.753c-3.234-.427-6.615-.856-9.49-2.503a5.806 5.806 0 0 1-2.808-5.104c-.128-2.936.923-5.844 2.536-8.259.47-.377.779-1.234 1.481-1.11 5.612.03 11.228-.076 16.838.086 1.677.238 1.861 2.559 2.512 3.843.476 2.549.402 5.203.013 7.76-.421 1.801-.842 3.94-2.541 4.97-1.962.577-4.057.282-6.08.364-.82-.008-1.642 0-2.46-.047zm8.195-5.678c1.286-.802 1.417-2.618 1.1-3.956-1.322-.172.04 2.705-1.42 3.193-1.68 1.147-3.102-.905-2.714-2.505.345-1.163-.827-1.309-.658-.1-.27 1.42.19 3.506 1.9 3.635.604.016 1.23-.03 1.792-.267zm-8.963-1.102c.733-.618 1.97-2.98.87-3.336-.475 1.292-1.243 3.868-3.118 2.624-1.005-1.117-.172-2.714.063-3.727-1.458-.414-1.399 2.25-1.155 3.243.29 1.59 2.13 1.823 3.34 1.196zm-7.868-11.83c-.424-2.05 2.512-1.243 3.701-1.527 4.572-.137 9.185-.168 13.732-.299.201.89.063 1.835.103 2.748h-17.41l-.126-.922zm.156-2.562c-.688-1.611-.256-3.47-.882-5.117-.323-1.067-.699-2.116-1.05-3.174 2.23-2.077 4.692-3.876 7.284-5.471 1.2-.63 2.499-2.094 3.795-1.977 2.835 2.475 5.418 5.276 8.64 7.276 1.5 1.095-1.031 2.758-.807 4.239-.702 1.2.495 4.008-1.258 4.191-5.09.26-10.201.214-15.286.452l-.227-.138z"/><path style="display:inline;fill:#000;stroke-width:.5;stroke-linejoin:round;stroke-opacity:.909449" d="M-196.888 128.583v1.191a14.52 14.52 0 0 1-14.552 14.552h-23.812a14.52 14.52 0 0 1-14.552-14.552v-1.19z"/><g aria-label="WHOLESOME" transform="matrix(.17626 0 0 .17626 -206.877 111.34)" style="font-size:40px;line-height:1.25;white-space:pre;shape-inside:url(#a);fill:#c000ff"><path d="m-205.04 155.493-4.56-26h7.04l1.44 11.36q.2 2.04.44 4.08t.44 4.08h.16l.72-4.08.72-4.08 2.48-11.36h5.76l2.48 11.36q.36 1.96.72 4.04.36 2.04.72 4.12h.16q.2-2.08.44-4.12t.44-4.04l1.44-11.36h6.56l-4.32 26h-8.72l-2-10.32q-.32-1.52-.56-3.08-.2-1.56-.4-3h-.16q-.2 1.44-.44 3-.2 1.56-.52 3.08l-1.92 10.32zM-174.16 155.493v-26h6.88v9.68h7.76v-9.68h6.88v26h-6.88v-10.32h-7.76v10.32zM-135.92 155.973q-2.72 0-4.96-.92-2.2-.92-3.8-2.64-1.56-1.76-2.44-4.28-.88-2.56-.88-5.76 0-3.2.88-5.68.88-2.52 2.44-4.2 1.6-1.72 3.8-2.6 2.24-.88 4.96-.88 2.68 0 4.92.88 2.24.88 3.8 2.6 1.6 1.72 2.48 4.2.88 2.48.88 5.68 0 3.2-.88 5.76-.88 2.52-2.48 4.28-1.56 1.72-3.8 2.64-2.24.92-4.92.92zm0-5.92q2.36 0 3.68-2.04 1.36-2.08 1.36-5.64 0-3.56-1.36-5.48-1.32-1.96-3.68-1.96-2.36 0-3.72 1.96-1.32 1.92-1.32 5.48 0 3.56 1.32 5.64 1.36 2.04 3.72 2.04zM-119.2 155.493v-26h6.88v20.24h9.84v5.76zM-98 155.493v-26h16.8v5.76h-9.92v4.08h8.48v5.76h-8.48v4.64h10.32v5.76zM-67.52 155.973q-2.48 0-5.12-.88-2.6-.92-4.72-2.84l3.92-4.72q1.4 1.12 3 1.84 1.64.68 3.08.68 1.56 0 2.24-.48.72-.48.72-1.36 0-.48-.24-.8-.24-.32-.72-.6-.44-.28-1.08-.52-.64-.28-1.48-.6l-3.24-1.36q-1.04-.4-2-1.04-.96-.68-1.68-1.56-.72-.92-1.16-2.08-.4-1.16-.4-2.56 0-1.68.72-3.12.72-1.48 2-2.56 1.28-1.12 3.04-1.76 1.8-.64 3.92-.64 2.24 0 4.52.84 2.32.84 4.12 2.64l-3.44 4.32q-1.32-.92-2.56-1.4-1.2-.48-2.64-.48-1.28 0-2 .44t-.72 1.32q0 .92 1 1.44 1.04.48 2.84 1.16l3.16 1.24q2.44.96 3.76 2.68 1.32 1.72 1.32 4.44 0 1.64-.68 3.16-.68 1.52-2 2.68-1.28 1.12-3.16 1.8-1.88.68-4.32.68zM-42.24 155.973q-2.72 0-4.96-.92-2.2-.92-3.8-2.64-1.56-1.76-2.44-4.28-.88-2.56-.88-5.76 0-3.2.88-5.68.88-2.52 2.44-4.2 1.6-1.72 3.8-2.6 2.24-.88 4.96-.88 2.68 0 4.92.88 2.24.88 3.8 2.6 1.6 1.72 2.48 4.2.88 2.48.88 5.68 0 3.2-.88 5.76-.88 2.52-2.48 4.28-1.56 1.72-3.8 2.64-2.24.92-4.92.92zm0-5.92q2.36 0 3.68-2.04 1.36-2.08 1.36-5.64 0-3.56-1.36-5.48-1.32-1.96-3.68-1.96-2.36 0-3.72 1.96-1.32 1.92-1.32 5.48 0 3.56 1.32 5.64 1.36 2.04 3.72 2.04zM-25.52 155.493v-26h7.36l3.92 10.64q.36 1.08.68 2.24.32 1.16.68 2.32h.16q.36-1.16.68-2.32.32-1.16.68-2.24l3.76-10.64h7.36v26h-6.24v-7.68q0-1 .08-2.2.12-1.2.24-2.44.12-1.28.28-2.48.16-1.2.28-2.16h-.16l-2.16 6.24-3.2 8.6h-3.68l-3.2-8.6-2.08-6.24h-.16q.12.96.28 2.16.16 1.2.28 2.48.12 1.24.2 2.44.12 1.2.12 2.2v7.68zM5.52 155.493v-26h16.8v5.76H12.4v4.08h8.48v5.76H12.4v4.64h10.32v5.76z" style="font-weight:900;font-family:'Source Sans Pro';-inkscape-font-specification:'Source Sans Pro Heavy'"/></g></g></svg>