<svg xmlns="http://www.w3.org/2000/svg" width="269.3" height="82.656" viewBox="0 0 202 62"><path fill="#333" d="m24 36 12 9.29c2.83 2.02 10.16 6.67 11.16 9.88 1.44 4.66-3.54 6.27-7.16 5.53-3.39-.7-8.15-4.48-11-6.58L10 40.13C7.38 38.16 1.63 34.6 1.63 31c0-3.6 5.75-7.16 8.37-9.13L29 7.88C31.85 5.78 36.61 2 40 1.3c3.62-.74 8.6.87 7.16 5.53-1 3.21-8.33 7.86-11.16 9.88L24 26h154l-12-9.29c-2.83-2.02-10.16-6.67-11.16-9.88C153.4 2.17 158.38.56 162 1.3c3.39.7 8.15 4.48 11 6.58l19 13.99c2.62 1.97 8.37 5.53 8.37 9.13 0 3.6-5.75 7.16-8.37 9.13l-19 13.99c-2.85 2.1-7.61 5.88-11 6.58-3.62.74-8.6-.87-7.16-5.53 1-3.21 8.33-7.86 11.16-9.88L178 36H24Z"/></svg>