<?xml version="1.0" encoding="UTF-8" standalone="no"?>
<svg
   xmlns:osb="http://www.openswatchbook.org/uri/2009/osb"
   xmlns:dc="http://purl.org/dc/elements/1.1/"
   xmlns:cc="http://creativecommons.org/ns#"
   xmlns:rdf="http://www.w3.org/1999/02/22-rdf-syntax-ns#"
   xmlns:svg="http://www.w3.org/2000/svg"
   xmlns="http://www.w3.org/2000/svg"
   xmlns:sodipodi="http://sodipodi.sourceforge.net/DTD/sodipodi-0.dtd"
   xmlns:inkscape="http://www.inkscape.org/namespaces/inkscape"
   width="200"
   height="200"
   viewBox="0 0 52.916668 52.916666"
   version="1.1"
   id="svg8"
   inkscape:version="1.0.2-2 (e86c870879, 2021-01-15)"
   sodipodi:docname="active.svg">
  <defs
     id="defs2">
    <rect
       x="-48.175333"
       y="18.9895"
       width="46.117357"
       height="15.996081"
       id="rect880" />
    <rect
       x="-255.23004"
       y="125.83378"
       width="102.52459"
       height="46.959256"
       id="rect873" />
    <inkscape:path-effect
       effect="envelope"
       id="path-effect4658"
       is_visible="true"
       yy="true"
       xx="true"
       bendpath1="m -199.08406,108.42369 h 7.0057"
       bendpath2="m -192.07836,108.42369 v 6.75242"
       bendpath3="m -199.08406,115.17611 h 7.0057"
       bendpath4="m -199.08406,108.42369 v 6.75242" />
    <inkscape:path-effect
       effect="bend_path"
       id="path-effect4656"
       is_visible="true"
       bendpath="m -192.00142,114.60623 c 2.12577,-0.53066 4.48261,0.85111 7.0057,0"
       prop_scale="1"
       scale_y_rel="false"
       vertical="false"
       bendpath-nodetypes="cc" />
    <inkscape:path-effect
       effect="bounding_box"
       id="path-effect4654"
       is_visible="true"
       linkedpath=""
       visualbounds="false" />
    <linearGradient
       id="linearGradient3288"
       osb:paint="solid">
      <stop
         style="stop-color:#000000;stop-opacity:1;"
         offset="0"
         id="stop3286" />
    </linearGradient>
    <linearGradient
       id="linearGradient1364"
       osb:paint="solid">
      <stop
         style="stop-color:#ffffff;stop-opacity:1;"
         offset="0"
         id="stop1362" />
    </linearGradient>
    <rect
       x="293.80286"
       y="272.58966"
       width="25.455845"
       height="37.830212"
       id="rect1056" />
    <rect
       x="222.73865"
       y="266.22571"
       width="47.376156"
       height="54.09367"
       id="rect1050" />
    <rect
       x="139.30003"
       y="246.42671"
       width="58.336308"
       height="48.790367"
       id="rect1044" />
    <rect
       x="131.1683"
       y="203.64674"
       width="61.871841"
       height="73.892654"
       id="rect1038" />
    <rect
       x="81.67083"
       y="193.04015"
       width="63.63961"
       height="55.507881"
       id="rect1032" />
    <rect
       x="83.085045"
       y="274.35742"
       width="44.194176"
       height="38.890873"
       id="rect1026" />
    <rect
       x="3.5355339"
       y="269.05414"
       width="65.760933"
       height="53.386562"
       id="rect1020" />
    <rect
       x="14.142136"
       y="226.27417"
       width="79.195961"
       height="62.932503"
       id="rect1014" />
    <rect
       x="11.313708"
       y="171.82695"
       width="36.416"
       height="51.618793"
       id="rect1008" />
    <rect
       x="3.1819806"
       y="132.22897"
       width="102.88404"
       height="102.53048"
       id="rect1002" />
  </defs>
  <sodipodi:namedview
     id="base"
     pagecolor="#ffffff"
     bordercolor="#666666"
     borderopacity="1.0"
     inkscape:pageopacity="0.0"
     inkscape:pageshadow="2"
     inkscape:zoom="2.8284271"
     inkscape:cx="48.421497"
     inkscape:cy="96.879577"
     inkscape:document-units="mm"
     inkscape:current-layer="layer3"
     showgrid="false"
     fit-margin-top="0"
     fit-margin-left="0"
     fit-margin-right="0"
     fit-margin-bottom="0"
     inkscape:window-width="1920"
     inkscape:window-height="1017"
     inkscape:window-x="-8"
     inkscape:window-y="-8"
     inkscape:window-maximized="1"
     showguides="false"
     inkscape:object-nodes="true"
     units="px"
     inkscape:snap-page="true"
     inkscape:document-rotation="0" />
  <metadata
     id="metadata5">
    <rdf:RDF>
      <cc:Work
         rdf:about="">
        <dc:format>image/svg+xml</dc:format>
        <dc:type
           rdf:resource="http://purl.org/dc/dcmitype/StillImage" />
        <dc:title></dc:title>
      </cc:Work>
    </rdf:RDF>
  </metadata>
  <g
     inkscape:label="Layer 1"
     inkscape:groupmode="layer"
     id="layer1"
     transform="translate(249.80447,-91.409467)">
    <rect
       y="91.40947"
       x="-249.80447"
       height="52.916668"
       width="52.916668"
       id="rect5238-5"
       style="fill:#222222;fill-opacity:1;fill-rule:nonzero;stroke:none;stroke-width:0.5;stroke-linecap:butt;stroke-linejoin:round;stroke-miterlimit:4;stroke-dasharray:none;stroke-dashoffset:0;stroke-opacity:0.909449;paint-order:normal"
       rx="3.96875"
       ry="3.96875" />
  </g>
  <g
     inkscape:groupmode="layer"
     id="layer2"
     inkscape:label="Layer 2"
     style="display:inline">
    <path
       id="rect5240-3"
       style="fill:#000000;fill-opacity:1;fill-rule:nonzero;stroke:none;stroke-width:0.5;stroke-linecap:butt;stroke-linejoin:round;stroke-miterlimit:4;stroke-dasharray:none;stroke-dashoffset:0;stroke-opacity:0.909449;paint-order:normal"
       transform="translate(249.80447,-91.409467)"
       d="m -244.5128,94.055298 h 42.33334 c 1.46579,0 2.64583,1.180041 2.64583,2.645833 v 42.333329 c 0,1.4658 -1.18004,2.64584 -2.64583,2.64584 h -42.33334 c -1.46579,0 -2.64583,-1.18004 -2.64583,-2.64584 V 96.701131 c 0,-1.465792 1.18004,-2.645833 2.64583,-2.645833 z" />
    <path
       id="path895"
       style="fill:#ff0000;fill-opacity:1;fill-rule:nonzero;stroke:none;stroke-width:0.5;stroke-linecap:butt;stroke-linejoin:round;stroke-miterlimit:4;stroke-dasharray:none;stroke-dashoffset:0;stroke-opacity:0.909449;paint-order:normal"
       transform="translate(249.80447,-91.409467)"
       d="m -244.5128,94.055298 h 42.33334 c 0.73289,0 1.39435,0.29501 1.87259,0.773244 l -46.85176,33.622588 V 96.701131 c 0,-1.465792 1.18004,-2.645833 2.64583,-2.645833 z"
       sodipodi:nodetypes="ssccss" />
    <path
       id="rect908"
       style="fill:#ff0000;fill-opacity:1;stroke:none;stroke-width:1.265;stroke-linecap:round;paint-order:stroke fill markers"
       d="m 15.739944,18.336622 9.534402,-0.65481 -0.187089,10.175916 -9.06668,-0.748354 z"
       sodipodi:nodetypes="ccccc" />
  </g>
  <g
     inkscape:groupmode="layer"
     id="layer3"
     inkscape:label="Layer 3"
     style="display:inline">
    <path
       inkscape:connector-curvature="0"
       id="path5244-6"
       d="m -248.34926,128.45114 v 8.33437 c 0,3.07816 2.47808,5.55625 5.55625,5.55625 h 38.89375 c 3.07816,0 5.55625,-2.47809 5.55625,-5.55625 v -8.33437 z"
       style="fill:#222222;fill-opacity:1;fill-rule:nonzero;stroke:none;stroke-width:0.5;stroke-linecap:butt;stroke-linejoin:round;stroke-miterlimit:4;stroke-dasharray:none;stroke-dashoffset:0;stroke-opacity:0.909449;paint-order:normal"
       transform="translate(249.80447,-91.409467)" />
    <path
       id="path89614"
       style="display:inline;fill:#222222;fill-opacity:1;stroke-width:1"
       d="m 25.289857,5.6178564 c 2.217935,-0.5225703 4.586069,-0.7749311 6.75179,0.111352 1.863297,0.4638826 3.491803,1.4715195 4.461813,3.1588585 1.424895,1.8092591 2.398187,3.9561431 2.705405,6.2433221 0.565267,3.148618 0.673393,6.359075 1.102078,9.52736 0.224796,3.939153 -0.696867,7.868196 -0.485836,11.800187 -0.580142,1.872942 -2.636282,0.634754 -3.237862,-0.556639 -1.397909,-1.434549 -1.697488,1.711962 -3.07254,1.848313 -1.662684,0.741007 -1.593414,-2.741212 -3.091256,-1.79848 -0.7473,1.198179 -2.410362,2.83797 -3.883961,1.866742 -0.852681,-0.635271 -2.148744,-3.216658 -3.04906,-1.567532 -0.621662,1.530623 -2.703263,2.075363 -3.769375,0.66178 -0.860722,-0.911251 -2.149137,-3.180155 -3.447146,-1.531262 -0.887145,0.924184 -2.232588,2.521208 -3.598846,1.495725 C 12.452722,35.196635 11.138224,36.616032 10.277759,36.186604 9.7488783,34.290259 10.020356,32.243417 9.9687209,30.29117 10.407432,25.742686 9.4210464,20.931184 11.343768,16.612022 12.734326,13.106375 15.057063,9.8925587 18.321575,7.9227532 20.364014,6.4288761 22.901859,6.1916395 25.289677,5.6162921 M 22.842283,26.642389 c 2.046138,-0.629035 1.752067,-3.160113 1.508039,-4.823226 -0.05541,-1.922709 -1.934313,-3.299986 -3.797834,-2.855018 -2.393933,0.240346 -4.406365,2.77436 -3.664972,5.1654 0.504388,2.177999 3.17786,3.07145 5.185919,2.675661 0.26005,-0.03437 0.516558,-0.09211 0.768757,-0.163554 m 12.28026,0.589626 c 1.886288,-0.263614 2.55211,-2.408926 2.37557,-4.058368 0.156372,-2.043671 -1.626772,-3.783563 -3.666162,-3.449952 -1.424641,0.119422 -3.201548,0.15957 -3.920101,1.641505 -1.061616,1.946351 -0.759086,5.017995 1.444183,6.036542 1.198497,0.460103 2.537515,-0.05429 3.766576,-0.168835" />
    <g
       aria-label="ACTIVE"
       transform="translate(54.679361,18.973861)"
       id="text878"
       style="font-style:normal;font-weight:normal;font-size:10.5833px;line-height:1.25;font-family:sans-serif;white-space:pre;shape-inside:url(#rect880);fill:#000000;fill-opacity:1;stroke:none">
      <path
         d="m -42.418466,27.129782 h -3.439573 l -0.656164,1.587494 h -1.756828 l 3.30199,-7.408309 h 1.693327 l 3.312573,7.408309 h -1.799161 z m -0.539749,-1.301746 -1.174746,-2.836325 -1.174746,2.836325 z"
         style="font-style:normal;font-variant:normal;font-weight:bold;font-stretch:normal;font-family:Montserrat;-inkscape-font-specification:'Montserrat Bold';fill:#ff0000;fill-opacity:1"
         id="path884" />
      <path
         d="m -35.751003,28.844276 q -1.132413,0 -2.05316,-0.486832 -0.910164,-0.497415 -1.439328,-1.365245 -0.518582,-0.878414 -0.518582,-1.979077 0,-1.100664 0.518582,-1.968494 0.529164,-0.878414 1.439328,-1.365246 0.920747,-0.497415 2.063744,-0.497415 0.96308,0 1.735661,0.338666 0.783164,0.338665 1.312329,0.973663 l -1.100663,1.015997 q -0.751414,-0.867831 -1.862661,-0.867831 -0.687914,0 -1.227663,0.306916 -0.539748,0.296333 -0.846664,0.836081 -0.296332,0.539748 -0.296332,1.227663 0,0.687914 0.296332,1.227662 0.306916,0.539749 0.846664,0.846664 0.539749,0.296333 1.227663,0.296333 1.111247,0 1.862661,-0.878414 l 1.100663,1.015997 q -0.529165,0.645581 -1.312329,0.984246 -0.783164,0.338666 -1.746245,0.338666 z"
         style="font-style:normal;font-variant:normal;font-weight:bold;font-stretch:normal;font-family:Montserrat;-inkscape-font-specification:'Montserrat Bold';fill:#ff0000;fill-opacity:1"
         id="path886" />
      <path
         d="m -30.078376,22.705962 h -2.370659 v -1.396995 h 6.455813 v 1.396995 h -2.370659 v 6.011314 h -1.714495 z"
         style="font-style:normal;font-variant:normal;font-weight:bold;font-stretch:normal;font-family:Montserrat;-inkscape-font-specification:'Montserrat Bold';fill:#ff0000;fill-opacity:1"
         id="path888" />
      <path
         d="M -25.072495,21.308967 H -23.358 v 7.408309 h -1.714495 z"
         style="font-style:normal;font-variant:normal;font-weight:bold;font-stretch:normal;font-family:Montserrat;-inkscape-font-specification:'Montserrat Bold';fill:#cccccc"
         id="path890" />
      <path
         d="m -14.520971,21.308967 -3.20674,7.408309 h -1.693328 l -3.196157,-7.408309 h 1.852078 l 2.254243,5.29165 2.285992,-5.29165 z"
         style="font-style:normal;font-variant:normal;font-weight:bold;font-stretch:normal;font-family:Montserrat;-inkscape-font-specification:'Montserrat Bold';fill:#cccccc"
         id="path892" />
      <path
         d="m -8.1710212,27.341448 v 1.375828 H -13.90717 v -7.408309 h 5.5985659 v 1.375829 h -3.8946539 v 1.608661 h 3.439572 v 1.333496 h -3.439572 v 1.714495 z"
         style="font-style:normal;font-variant:normal;font-weight:bold;font-stretch:normal;font-family:Montserrat;-inkscape-font-specification:'Montserrat Bold';fill:#cccccc"
         id="path894" />
    </g>
  </g>
</svg>
