<?xml version="1.0" encoding="UTF-8" standalone="no"?>
<svg
   xmlns:dc="http://purl.org/dc/elements/1.1/"
   xmlns:cc="http://creativecommons.org/ns#"
   xmlns:rdf="http://www.w3.org/1999/02/22-rdf-syntax-ns#"
   xmlns:svg="http://www.w3.org/2000/svg"
   xmlns="http://www.w3.org/2000/svg"
   xmlns:sodipodi="http://sodipodi.sourceforge.net/DTD/sodipodi-0.dtd"
   xmlns:inkscape="http://www.inkscape.org/namespaces/inkscape"
   width="200"
   height="200"
   viewBox="0 0 52.916668 52.916666"
   version="1.1"
   id="svg8"
   inkscape:version="1.0.2-2 (e86c870879, 2021-01-15)"
   sodipodi:docname="revolution.svg">
  <defs
     id="defs2">
    <rect
       x="-247.02634"
       y="132.02301"
       width="85.195833"
       height="26.722916"
       id="rect1290" />
    <inkscape:path-effect
       effect="envelope"
       id="path-effect4658"
       is_visible="true"
       yy="true"
       xx="true"
       bendpath1="m -199.08406,108.42369 h 7.0057"
       bendpath2="m -192.07836,108.42369 v 6.75242"
       bendpath3="m -199.08406,115.17611 h 7.0057"
       bendpath4="m -199.08406,108.42369 v 6.75242" />
    <inkscape:path-effect
       effect="bend_path"
       id="path-effect4656"
       is_visible="true"
       bendpath="m -192.00142,114.60623 c 2.12577,-0.53066 4.48261,0.85111 7.0057,0"
       prop_scale="1"
       scale_y_rel="false"
       vertical="false"
       bendpath-nodetypes="cc" />
    <inkscape:path-effect
       effect="bounding_box"
       id="path-effect4654"
       is_visible="true"
       linkedpath=""
       visualbounds="false" />
  </defs>
  <sodipodi:namedview
     id="base"
     pagecolor="#ffffff"
     bordercolor="#666666"
     borderopacity="1.0"
     inkscape:pageopacity="0.0"
     inkscape:pageshadow="2"
     inkscape:zoom="2"
     inkscape:cx="164.95074"
     inkscape:cy="155.76315"
     inkscape:document-units="mm"
     inkscape:current-layer="layer1"
     showgrid="false"
     fit-margin-top="0"
     fit-margin-left="0"
     fit-margin-right="0"
     fit-margin-bottom="0"
     inkscape:window-width="1920"
     inkscape:window-height="1017"
     inkscape:window-x="-8"
     inkscape:window-y="-8"
     inkscape:window-maximized="1"
     showguides="false"
     inkscape:object-nodes="true"
     units="px"
     inkscape:snap-page="true"
     inkscape:document-rotation="0" />
  <metadata
     id="metadata5">
    <rdf:RDF>
      <cc:Work
         rdf:about="">
        <dc:format>image/svg+xml</dc:format>
        <dc:type
           rdf:resource="http://purl.org/dc/dcmitype/StillImage" />
        <dc:title></dc:title>
      </cc:Work>
    </rdf:RDF>
  </metadata>
  <g
     inkscape:label="Layer 1"
     inkscape:groupmode="layer"
     id="layer1"
     transform="translate(249.80447,-91.409467)">
    <rect
       y="91.40947"
       x="-249.80447"
       height="52.916668"
       width="52.916668"
       id="rect5238-5"
       style="fill:#222222;fill-opacity:1;fill-rule:nonzero;stroke:none;stroke-width:0.5;stroke-linecap:butt;stroke-linejoin:round;stroke-miterlimit:4;stroke-dasharray:none;stroke-dashoffset:0;stroke-opacity:0.909449;paint-order:normal"
       rx="3.96875"
       ry="3.96875" />
    <rect
       style="fill:#890000;fill-opacity:1;fill-rule:nonzero;stroke:none;stroke-width:0.5;stroke-linecap:butt;stroke-linejoin:round;stroke-miterlimit:4;stroke-dasharray:none;stroke-dashoffset:0;stroke-opacity:0.909449;paint-order:normal"
       id="rect5240-3"
       width="47.625"
       height="47.625"
       x="-247.15863"
       y="94.055298"
       rx="2.6458333"
       ry="2.6458333" />
    <path
       inkscape:connector-curvature="0"
       id="path5244-6"
       d="m -248.34926,128.45114 v 8.33437 c 0,3.07816 2.47808,5.55625 5.55625,5.55625 h 38.89375 c 3.07816,0 5.55625,-2.47809 5.55625,-5.55625 v -8.33437 z"
       style="fill:#222222;fill-opacity:1;fill-rule:nonzero;stroke:none;stroke-width:0.5;stroke-linecap:butt;stroke-linejoin:round;stroke-miterlimit:4;stroke-dasharray:none;stroke-dashoffset:0;stroke-opacity:0.909449;paint-order:normal" />
    <g
       id="Default"
       visibility="visible"
       transform="matrix(0.0012923,0,0,0.0012923,-238.3492,96.214692)"
       style="stroke-width:204.737;fill:#222222;fill-opacity:1">
      <desc
         id="desc3699">Master slide</desc>
    </g>
    <g
       id="g3982"
       style="visibility:visible;fill:#222222;fill-opacity:1;stroke:none;stroke-width:204.737;stroke-opacity:1"
       transform="matrix(0.0012923,0,0,0.0012923,-237.05937,96.214692)">
      <desc
         id="desc3704">Group</desc>
      <g
         id="g3734"
         style="fill:#222222;fill-opacity:1;stroke:none;stroke-width:204.737;stroke-opacity:1">
        <desc
           id="desc3706">Drawing</desc>
        <g
           id="g3732"
           style="fill:#222222;fill-opacity:1;stroke:none;stroke-width:204.737;stroke-opacity:1">
          <g
             style="fill:#222222;fill-opacity:1;stroke:none;stroke-width:204.737;stroke-opacity:1"
             id="g3710">
            <path
               d="M 8639,426 6546,3840 9419,5161 11318,2109 Z"
               id="path3708"
               style="fill:#222222;fill-opacity:1;stroke:none;stroke-width:204.737;stroke-opacity:1" />
          </g>
          <g
             style="fill:#222222;fill-opacity:1;stroke:none;stroke-width:204.737;stroke-opacity:1"
             id="g3728">
            <path
               d="m 8682,453 -2093,3414 -43,-27 -43,-27 2093,-3414 43,27 z"
               id="path3712"
               style="fill:#222222;fill-opacity:1;stroke:none;stroke-width:204.737;stroke-opacity:1" />
            <path
               d="m 6546,3840 -21,46 -8,-4 -7,-6 -6,-7 -4,-7 -3,-9 -2,-8 v -9 l 2,-9 3,-8 3,-6 z"
               id="path3714"
               style="fill:#222222;fill-opacity:1;stroke:none;stroke-width:204.737;stroke-opacity:1" />
            <path
               d="m 6567,3794 2873,1321 -21,46 -21,46 -2873,-1321 21,-46 z"
               id="path3716"
               style="fill:#222222;fill-opacity:1;stroke:none;stroke-width:204.737;stroke-opacity:1" />
            <path
               d="m 9419,5161 43,27 -5,7 -7,6 -7,5 -8,3 -9,2 -9,1 -9,-1 -8,-3 -2,-1 z"
               id="path3718"
               style="fill:#222222;fill-opacity:1;stroke:none;stroke-width:204.737;stroke-opacity:1" />
            <path
               d="m 9376,5134 1899,-3052 43,27 43,27 -1899,3052 -43,-27 z"
               id="path3720"
               style="fill:#222222;fill-opacity:1;stroke:none;stroke-width:204.737;stroke-opacity:1" />
            <path
               d="m 11318,2109 27,-43 7,5 6,7 5,7 4,8 2,9 v 9 l -1,9 -3,8 -4,8 z"
               id="path3722"
               style="fill:#222222;fill-opacity:1;stroke:none;stroke-width:204.737;stroke-opacity:1" />
            <path
               d="M 11291,2152 8612,469 l 27,-43 27,-43 2679,1683 -27,43 z"
               id="path3724"
               style="fill:#222222;fill-opacity:1;stroke:none;stroke-width:204.737;stroke-opacity:1" />
            <path
               d="m 8639,426 -43,-27 5,-7 6,-6 8,-5 8,-3 8,-2 9,-1 9,1 9,3 8,4 v 0 z"
               id="path3726"
               style="fill:#222222;fill-opacity:1;stroke:none;stroke-width:204.737;stroke-opacity:1" />
          </g>
          <g
             id="g3730"
             style="fill:#222222;fill-opacity:1;stroke:none;stroke-width:204.737;stroke-opacity:1" />
        </g>
      </g>
      <g
         id="g3768"
         style="fill:#222222;fill-opacity:1;stroke:none;stroke-width:204.737;stroke-opacity:1">
        <desc
           id="desc3736">Drawing</desc>
        <g
           id="g3766"
           style="fill:#222222;fill-opacity:1;stroke:none;stroke-width:204.737;stroke-opacity:1">
          <g
             style="fill:#222222;fill-opacity:1;stroke:none;stroke-width:204.737;stroke-opacity:1"
             id="g3740">
            <path
               d="m 12291,2748 -1800,2958 2191,1093 -148,1184 2484,-3779 z"
               id="path3738"
               style="fill:#222222;fill-opacity:1;stroke:none;stroke-width:204.737;stroke-opacity:1" />
          </g>
          <g
             style="fill:#222222;fill-opacity:1;stroke:none;stroke-width:204.737;stroke-opacity:1"
             id="g3762">
            <path
               d="m 12335,2775 -1800,2958 -44,-27 -44,-27 1800,-2958 44,27 z"
               id="path3742"
               style="fill:#222222;fill-opacity:1;stroke:none;stroke-width:204.737;stroke-opacity:1" />
            <path
               d="m 10491,5706 -23,46 -7,-5 -7,-6 -6,-7 -4,-8 -3,-8 -1,-9 v -9 l 2,-8 3,-9 2,-4 z"
               id="path3744"
               style="fill:#222222;fill-opacity:1;stroke:none;stroke-width:204.737;stroke-opacity:1" />
            <path
               d="m 10514,5660 2191,1093 -23,46 -23,46 -2191,-1093 23,-46 z"
               id="path3746"
               style="fill:#222222;fill-opacity:1;stroke:none;stroke-width:204.737;stroke-opacity:1" />
            <path
               d="m 12682,6799 23,-46 7,5 7,6 6,7 4,8 3,8 1,9 v 9 0 z"
               id="path3748"
               style="fill:#222222;fill-opacity:1;stroke:none;stroke-width:204.737;stroke-opacity:1" />
            <path
               d="m 12733,6805 -148,1184 -51,-6 -51,-6 148,-1184 51,6 z"
               id="path3750"
               style="fill:#222222;fill-opacity:1;stroke:none;stroke-width:204.737;stroke-opacity:1" />
            <path
               d="m 12534,7983 43,28 -6,7 -7,6 -7,5 -8,3 -9,2 h -9 l -9,-1 -8,-3 -8,-4 -7,-6 -6,-7 -5,-7 -3,-8 -2,-9 v -9 -3 z"
               id="path3752"
               style="fill:#222222;fill-opacity:1;stroke:none;stroke-width:204.737;stroke-opacity:1" />
            <path
               d="m 12491,7955 2484,-3779 43,28 43,28 -2484,3779 -43,-28 z"
               id="path3754"
               style="fill:#222222;fill-opacity:1;stroke:none;stroke-width:204.737;stroke-opacity:1" />
            <path
               d="m 15018,4204 24,-45 7,5 7,6 5,7 4,8 3,8 1,9 -1,9 -2,9 -3,8 -2,4 z"
               id="path3756"
               style="fill:#222222;fill-opacity:1;stroke:none;stroke-width:204.737;stroke-opacity:1" />
            <path
               d="m 14994,4249 -2727,-1456 24,-45 24,-45 2727,1456 -24,45 z"
               id="path3758"
               style="fill:#222222;fill-opacity:1;stroke:none;stroke-width:204.737;stroke-opacity:1" />
            <path
               d="m 12291,2748 -44,-27 6,-7 6,-6 8,-5 8,-3 8,-2 9,-1 9,1 9,2 5,3 z"
               id="path3760"
               style="fill:#222222;fill-opacity:1;stroke:none;stroke-width:204.737;stroke-opacity:1" />
          </g>
          <g
             id="g3764"
             style="fill:#222222;fill-opacity:1;stroke:none;stroke-width:204.737;stroke-opacity:1" />
        </g>
      </g>
      <g
         id="g3802"
         style="fill:#222222;fill-opacity:1;stroke:none;stroke-width:204.737;stroke-opacity:1">
        <desc
           id="desc3770">Drawing</desc>
        <g
           id="g3800"
           style="fill:#222222;fill-opacity:1;stroke:none;stroke-width:204.737;stroke-opacity:1">
          <g
             style="fill:#222222;fill-opacity:1;stroke:none;stroke-width:204.737;stroke-opacity:1"
             id="g3774">
            <path
               d="m 15701,5479 -3896,5462 2337,864 3847,-4552 h -49 z"
               id="path3772"
               style="fill:#222222;fill-opacity:1;stroke:none;stroke-width:204.737;stroke-opacity:1" />
          </g>
          <g
             style="fill:#222222;fill-opacity:1;stroke:none;stroke-width:204.737;stroke-opacity:1"
             id="g3796">
            <path
               d="m 15743,5509 -3896,5462 -42,-30 -42,-30 3896,-5462 42,30 z"
               id="path3776"
               style="fill:#222222;fill-opacity:1;stroke:none;stroke-width:204.737;stroke-opacity:1" />
            <path
               d="m 11805,10941 -18,48 -8,-4 -7,-5 -6,-6 -5,-8 -4,-8 -2,-8 -1,-9 1,-9 2,-9 4,-8 2,-4 z"
               id="path3778"
               style="fill:#222222;fill-opacity:1;stroke:none;stroke-width:204.737;stroke-opacity:1" />
            <path
               d="m 11823,10893 2337,864 -18,48 -18,48 -2337,-864 18,-48 z"
               id="path3780"
               style="fill:#222222;fill-opacity:1;stroke:none;stroke-width:204.737;stroke-opacity:1" />
            <path
               d="m 14142,11805 39,33 -6,6 -8,5 -8,4 -8,2 -9,1 -9,-1 -9,-2 v 0 z"
               id="path3782"
               style="fill:#222222;fill-opacity:1;stroke:none;stroke-width:204.737;stroke-opacity:1" />
            <path
               d="m 14103,11772 3847,-4552 39,33 39,33 -3847,4552 -39,-33 z"
               id="path3784"
               style="fill:#222222;fill-opacity:1;stroke:none;stroke-width:204.737;stroke-opacity:1" />
            <path
               d="m 17989,7253 v -51 l 9,1 8,2 8,4 8,5 6,6 5,7 4,9 2,8 1,9 -1,9 -2,8 -4,8 -5,8 v 0 z"
               id="path3786"
               style="fill:#222222;fill-opacity:1;stroke:none;stroke-width:204.737;stroke-opacity:1" />
            <path
               d="m 17989,7304 h -49 v -51 -51 h 49 v 51 z"
               id="path3788"
               style="fill:#222222;fill-opacity:1;stroke:none;stroke-width:204.737;stroke-opacity:1" />
            <path
               d="m 17940,7253 v 51 l -9,-1 -8,-2 -8,-4 -7,-4 z"
               id="path3790"
               style="fill:#222222;fill-opacity:1;stroke:none;stroke-width:204.737;stroke-opacity:1" />
            <path
               d="m 17908,7293 -2239,-1774 32,-40 32,-40 2239,1774 -32,40 z"
               id="path3792"
               style="fill:#222222;fill-opacity:1;stroke:none;stroke-width:204.737;stroke-opacity:1" />
            <path
               d="m 15701,5479 -42,-30 6,-6 7,-6 8,-4 8,-3 9,-2 h 9 l 9,2 8,3 8,4 2,2 z"
               id="path3794"
               style="fill:#222222;fill-opacity:1;stroke:none;stroke-width:204.737;stroke-opacity:1" />
          </g>
          <g
             id="g3798"
             style="fill:#222222;fill-opacity:1;stroke:none;stroke-width:204.737;stroke-opacity:1" />
        </g>
      </g>
      <g
         id="g3832"
         style="fill:#222222;fill-opacity:1;stroke:none;stroke-width:204.737;stroke-opacity:1">
        <desc
           id="desc3804">Drawing</desc>
        <g
           id="g3830"
           style="fill:#222222;fill-opacity:1;stroke:none;stroke-width:204.737;stroke-opacity:1">
          <g
             style="fill:#222222;fill-opacity:1;stroke:none;stroke-width:204.737;stroke-opacity:1"
             id="g3808">
            <path
               d="m 18573,8255 -3603,4189 1119,1138 4139,-3689 z"
               id="path3806"
               style="fill:#222222;fill-opacity:1;stroke:none;stroke-width:204.737;stroke-opacity:1" />
          </g>
          <g
             style="fill:#222222;fill-opacity:1;stroke:none;stroke-width:204.737;stroke-opacity:1"
             id="g3826">
            <path
               d="m 18612,8288 -3603,4189 -39,-33 -39,-33 3603,-4189 39,33 z"
               id="path3810"
               style="fill:#222222;fill-opacity:1;stroke:none;stroke-width:204.737;stroke-opacity:1" />
            <path
               d="m 14970,12444 -36,36 -6,-7 -4,-8 -3,-8 -2,-9 v -9 l 2,-9 3,-8 4,-8 3,-3 z"
               id="path3812"
               style="fill:#222222;fill-opacity:1;stroke:none;stroke-width:204.737;stroke-opacity:1" />
            <path
               d="m 15006,12408 1119,1138 -36,36 -36,36 -1119,-1138 36,-36 z"
               id="path3814"
               style="fill:#222222;fill-opacity:1;stroke:none;stroke-width:204.737;stroke-opacity:1" />
            <path
               d="m 16089,13582 34,38 -7,5 -8,4 -9,3 -8,1 -9,-1 -9,-2 -8,-3 -8,-5 -4,-4 z"
               id="path3816"
               style="fill:#222222;fill-opacity:1;stroke:none;stroke-width:204.737;stroke-opacity:1" />
            <path
               d="m 16055,13544 4139,-3689 34,38 34,38 -4139,3689 -34,-38 z"
               id="path3818"
               style="fill:#222222;fill-opacity:1;stroke:none;stroke-width:204.737;stroke-opacity:1" />
            <path
               d="m 20228,9893 36,-36 6,7 4,7 3,9 2,8 v 9 l -2,9 -3,8 -4,8 -6,7 -2,2 z"
               id="path3820"
               style="fill:#222222;fill-opacity:1;stroke:none;stroke-width:204.737;stroke-opacity:1" />
            <path
               d="m 20192,9929 -1655,-1638 36,-36 36,-36 1655,1638 -36,36 z"
               id="path3822"
               style="fill:#222222;fill-opacity:1;stroke:none;stroke-width:204.737;stroke-opacity:1" />
            <path
               d="m 18573,8255 -39,-33 7,-6 7,-5 8,-4 9,-2 9,-1 8,1 9,2 8,4 7,5 3,3 z"
               id="path3824"
               style="fill:#222222;fill-opacity:1;stroke:none;stroke-width:204.737;stroke-opacity:1" />
          </g>
          <g
             id="g3828"
             style="fill:#222222;fill-opacity:1;stroke:none;stroke-width:204.737;stroke-opacity:1" />
        </g>
      </g>
      <g
         id="g3954"
         style="fill:#222222;fill-opacity:1;stroke:none;stroke-width:204.737;stroke-opacity:1">
        <desc
           id="desc3834">Drawing</desc>
        <g
           id="g3952"
           style="fill:#222222;fill-opacity:1;stroke:none;stroke-width:204.737;stroke-opacity:1">
          <g
             style="fill:#222222;fill-opacity:1;stroke:none;stroke-width:204.737;stroke-opacity:1"
             id="g3838">
            <path
               d="m 5377,4568 -4382,6509 6720,7693 -1267,7375 9884,-91 -438,-6692 2290,-2913 584,-3916 -2629,2186 -2192,-1957 -3992,-957 3896,6101 876,637 -1412,45 -438,1594 -586,-1594 -1460,229 1606,-1411 L 8639,11533 5669,10532 6741,9575 6448,7983 h 633 l 974,1365 2191,-91 1169,-637 146,-1458 z"
               id="path3836"
               style="fill:#222222;fill-opacity:1;stroke:none;stroke-width:204.737;stroke-opacity:1" />
          </g>
          <g
             style="fill:#222222;fill-opacity:1;stroke:none;stroke-width:204.737;stroke-opacity:1"
             id="g3948">
            <path
               d="m 5419,4596 -4382,6509 -42,-28 -42,-28 4382,-6509 42,28 z"
               id="path3840"
               style="fill:#222222;fill-opacity:1;stroke:none;stroke-width:204.737;stroke-opacity:1" />
            <path
               d="m 995,11077 -38,34 -6,-8 -4,-8 -2,-8 -1,-9 1,-9 2,-8 3,-9 3,-3 z"
               id="path3842"
               style="fill:#222222;fill-opacity:1;stroke:none;stroke-width:204.737;stroke-opacity:1" />
            <path
               d="m 1033,11043 6720,7693 -38,34 -38,34 -6720,-7693 38,-34 z"
               id="path3844"
               style="fill:#222222;fill-opacity:1;stroke:none;stroke-width:204.737;stroke-opacity:1" />
            <path
               d="m 7715,18770 38,-34 6,8 4,8 2,8 1,9 -1,9 v 1 z"
               id="path3846"
               style="fill:#222222;fill-opacity:1;stroke:none;stroke-width:204.737;stroke-opacity:1" />
            <path
               d="m 7765,18779 -1267,7375 -50,-9 -50,-9 1267,-7375 50,9 z"
               id="path3848"
               style="fill:#222222;fill-opacity:1;stroke:none;stroke-width:204.737;stroke-opacity:1" />
            <path
               d="m 6448,26145 v 51 l -8,-1 -9,-2 -8,-4 -7,-5 -7,-6 -5,-7 -4,-8 -2,-9 -1,-9 1,-8 v -1 z"
               id="path3850"
               style="fill:#222222;fill-opacity:1;stroke:none;stroke-width:204.737;stroke-opacity:1" />
            <path
               d="m 6448,26094 9884,-91 v 51 51 l -9884,91 v -51 z"
               id="path3852"
               style="fill:#222222;fill-opacity:1;stroke:none;stroke-width:204.737;stroke-opacity:1" />
            <path
               d="m 16332,26054 51,-3 v 9 l -2,8 -3,9 -5,7 -6,7 -7,5 -7,5 -9,3 -9,1 h -3 z"
               id="path3854"
               style="fill:#222222;fill-opacity:1;stroke:none;stroke-width:204.737;stroke-opacity:1" />
            <path
               d="m 16281,26057 -438,-6692 51,-3 51,-3 438,6692 -51,3 z"
               id="path3856"
               style="fill:#222222;fill-opacity:1;stroke:none;stroke-width:204.737;stroke-opacity:1" />
            <path
               d="m 15894,19362 -51,3 v -9 l 2,-8 3,-9 5,-7 1,-2 z"
               id="path3858"
               style="fill:#222222;fill-opacity:1;stroke:none;stroke-width:204.737;stroke-opacity:1" />
            <path
               d="m 15854,19330 2290,-2913 40,32 40,32 -2290,2913 -40,-32 z"
               id="path3860"
               style="fill:#222222;fill-opacity:1;stroke:none;stroke-width:204.737;stroke-opacity:1" />
            <path
               d="m 18184,16449 50,8 -2,8 -3,8 -5,8 z"
               id="path3862"
               style="fill:#222222;fill-opacity:1;stroke:none;stroke-width:204.737;stroke-opacity:1" />
            <path
               d="m 18134,16441 584,-3916 50,8 50,8 -584,3916 -50,-8 z"
               id="path3864"
               style="fill:#222222;fill-opacity:1;stroke:none;stroke-width:204.737;stroke-opacity:1" />
            <path
               d="m 18768,12533 -33,-39 8,-5 8,-4 8,-2 9,-1 9,1 9,2 8,4 7,5 6,6 5,8 4,8 2,8 1,9 -1,8 z"
               id="path3866"
               style="fill:#222222;fill-opacity:1;stroke:none;stroke-width:204.737;stroke-opacity:1" />
            <path
               d="m 18801,12572 -2629,2186 -33,-39 -33,-39 2629,-2186 33,39 z"
               id="path3868"
               style="fill:#222222;fill-opacity:1;stroke:none;stroke-width:204.737;stroke-opacity:1" />
            <path
               d="m 16139,14719 33,39 -8,5 -8,4 -8,2 -9,1 -9,-1 -9,-2 -8,-4 -7,-5 -1,-1 z"
               id="path3870"
               style="fill:#222222;fill-opacity:1;stroke:none;stroke-width:204.737;stroke-opacity:1" />
            <path
               d="m 16105,14757 -2192,-1957 34,-38 34,-38 2192,1957 -34,38 z"
               id="path3872"
               style="fill:#222222;fill-opacity:1;stroke:none;stroke-width:204.737;stroke-opacity:1" />
            <path
               d="m 13947,12762 12,-50 8,3 8,4 6,5 z"
               id="path3874"
               style="fill:#222222;fill-opacity:1;stroke:none;stroke-width:204.737;stroke-opacity:1" />
            <path
               d="m 13935,12812 -3992,-957 12,-50 12,-50 3992,957 -12,50 z"
               id="path3876"
               style="fill:#222222;fill-opacity:1;stroke:none;stroke-width:204.737;stroke-opacity:1" />
            <path
               d="m 9955,11805 -43,27 -4,-7 -3,-9 -1,-9 v -9 l 2,-8 4,-9 5,-7 6,-7 7,-5 7,-4 9,-3 9,-1 h 9 l 5,1 z"
               id="path3878"
               style="fill:#222222;fill-opacity:1;stroke:none;stroke-width:204.737;stroke-opacity:1" />
            <path
               d="m 9998,11778 3896,6101 -43,27 -43,27 -3896,-6101 43,-27 z"
               id="path3880"
               style="fill:#222222;fill-opacity:1;stroke:none;stroke-width:204.737;stroke-opacity:1" />
            <path
               d="m 13851,17906 -30,41 -7,-6 -5,-6 -1,-2 z"
               id="path3882"
               style="fill:#222222;fill-opacity:1;stroke:none;stroke-width:204.737;stroke-opacity:1" />
            <path
               d="m 13881,17865 876,637 -30,41 -30,41 -876,-637 30,-41 z"
               id="path3884"
               style="fill:#222222;fill-opacity:1;stroke:none;stroke-width:204.737;stroke-opacity:1" />
            <path
               d="m 14727,18543 30,-41 7,6 5,6 5,8 2,9 2,8 v 9 l -2,9 -3,8 -5,8 -6,7 -6,5 -8,5 -9,2 -8,2 h -2 z"
               id="path3886"
               style="fill:#222222;fill-opacity:1;stroke:none;stroke-width:204.737;stroke-opacity:1" />
            <path
               d="m 14729,18594 -1412,45 -2,-51 -2,-51 1412,-45 2,51 z"
               id="path3888"
               style="fill:#222222;fill-opacity:1;stroke:none;stroke-width:204.737;stroke-opacity:1" />
            <path
               d="m 13315,18588 -49,-14 3,-8 4,-8 6,-6 7,-6 8,-4 8,-3 9,-2 h 2 z"
               id="path3890"
               style="fill:#222222;fill-opacity:1;stroke:none;stroke-width:204.737;stroke-opacity:1" />
            <path
               d="m 13364,18602 -438,1594 -49,-14 -49,-14 438,-1594 49,14 z"
               id="path3892"
               style="fill:#222222;fill-opacity:1;stroke:none;stroke-width:204.737;stroke-opacity:1" />
            <path
               d="m 12877,20182 49,14 -3,8 -4,8 -6,6 -7,6 -8,4 -8,3 -9,2 h -9 l -9,-2 -8,-3 -8,-4 -6,-6 -6,-7 -4,-8 -2,-3 z"
               id="path3894"
               style="fill:#222222;fill-opacity:1;stroke:none;stroke-width:204.737;stroke-opacity:1" />
            <path
               d="m 12829,20200 -586,-1594 48,-18 48,-18 586,1594 -48,18 z"
               id="path3896"
               style="fill:#222222;fill-opacity:1;stroke:none;stroke-width:204.737;stroke-opacity:1" />
            <path
               d="m 12291,18588 -8,-50 9,-1 9,1 8,2 8,4 8,6 6,6 5,7 3,7 z"
               id="path3898"
               style="fill:#222222;fill-opacity:1;stroke:none;stroke-width:204.737;stroke-opacity:1" />
            <path
               d="m 12299,18638 -1460,229 -8,-50 -8,-50 1460,-229 8,50 z"
               id="path3900"
               style="fill:#222222;fill-opacity:1;stroke:none;stroke-width:204.737;stroke-opacity:1" />
            <path
               d="m 10831,18817 8,50 -9,1 -9,-1 -8,-2 -8,-4 -8,-6 -6,-6 -5,-7 -3,-8 -2,-9 -1,-9 1,-9 2,-8 4,-8 6,-8 4,-4 z"
               id="path3902"
               style="fill:#222222;fill-opacity:1;stroke:none;stroke-width:204.737;stroke-opacity:1" />
            <path
               d="m 10797,18779 1606,-1411 34,38 34,38 -1606,1411 -34,-38 z"
               id="path3904"
               style="fill:#222222;fill-opacity:1;stroke:none;stroke-width:204.737;stroke-opacity:1" />
            <path
               d="m 12437,17406 43,-28 4,8 3,9 1,8 v 9 l -2,9 -4,8 -4,8 -6,6 -1,1 z"
               id="path3906"
               style="fill:#222222;fill-opacity:1;stroke:none;stroke-width:204.737;stroke-opacity:1" />
            <path
               d="m 12394,17434 -3798,-5873 43,-28 43,-28 3798,5873 -43,28 z"
               id="path3908"
               style="fill:#222222;fill-opacity:1;stroke:none;stroke-width:204.737;stroke-opacity:1" />
            <path
               d="m 8639,11533 16,-48 8,3 8,5 6,6 5,6 z"
               id="path3910"
               style="fill:#222222;fill-opacity:1;stroke:none;stroke-width:204.737;stroke-opacity:1" />
            <path
               d="m 8623,11581 -2970,-1001 16,-48 16,-48 2970,1001 -16,48 z"
               id="path3912"
               style="fill:#222222;fill-opacity:1;stroke:none;stroke-width:204.737;stroke-opacity:1" />
            <path
               d="m 5669,10532 -16,48 -8,-3 -8,-5 -6,-6 -6,-7 -3,-8 -3,-9 -1,-9 1,-9 2,-8 3,-8 5,-8 6,-6 z"
               id="path3914"
               style="fill:#222222;fill-opacity:1;stroke:none;stroke-width:204.737;stroke-opacity:1" />
            <path
               d="m 5635,10494 1072,-957 34,38 34,38 -1072,957 -34,-38 z"
               id="path3916"
               style="fill:#222222;fill-opacity:1;stroke:none;stroke-width:204.737;stroke-opacity:1" />
            <path
               d="m 6741,9575 50,-9 1,9 -1,8 -2,9 -4,8 -5,7 -5,6 z"
               id="path3918"
               style="fill:#222222;fill-opacity:1;stroke:none;stroke-width:204.737;stroke-opacity:1" />
            <path
               d="m 6691,9584 -293,-1592 50,-9 50,-9 293,1592 -50,9 z"
               id="path3920"
               style="fill:#222222;fill-opacity:1;stroke:none;stroke-width:204.737;stroke-opacity:1" />
            <path
               d="m 6448,7983 -50,9 -1,-9 1,-8 2,-9 4,-8 5,-7 6,-7 7,-5 8,-4 9,-2 9,-1 v 0 z"
               id="path3922"
               style="fill:#222222;fill-opacity:1;stroke:none;stroke-width:204.737;stroke-opacity:1" />
            <path
               d="m 6448,7932 h 633 v 51 51 h -633 v -51 z"
               id="path3924"
               style="fill:#222222;fill-opacity:1;stroke:none;stroke-width:204.737;stroke-opacity:1" />
            <path
               d="m 7081,7983 v -51 l 9,1 8,2 8,4 8,5 6,6 3,3 z"
               id="path3926"
               style="fill:#222222;fill-opacity:1;stroke:none;stroke-width:204.737;stroke-opacity:1" />
            <path
               d="m 7123,7953 974,1365 -42,30 -42,30 -974,-1365 42,-30 z"
               id="path3928"
               style="fill:#222222;fill-opacity:1;stroke:none;stroke-width:204.737;stroke-opacity:1" />
            <path
               d="m 8055,9348 2,51 h -9 l -8,-2 -9,-4 -7,-5 -7,-6 -4,-4 z"
               id="path3930"
               style="fill:#222222;fill-opacity:1;stroke:none;stroke-width:204.737;stroke-opacity:1" />
            <path
               d="m 8053,9297 2191,-91 2,51 2,51 -2191,91 -2,-51 z"
               id="path3932"
               style="fill:#222222;fill-opacity:1;stroke:none;stroke-width:204.737;stroke-opacity:1" />
            <path
               d="m 10246,9257 24,45 -8,3 -8,2 -6,1 z"
               id="path3934"
               style="fill:#222222;fill-opacity:1;stroke:none;stroke-width:204.737;stroke-opacity:1" />
            <path
               d="m 10222,9212 1169,-637 24,45 24,45 -1169,637 -24,-45 z"
               id="path3936"
               style="fill:#222222;fill-opacity:1;stroke:none;stroke-width:204.737;stroke-opacity:1" />
            <path
               d="m 11415,8620 51,5 -2,9 -3,8 -5,8 -5,7 -7,5 -5,3 z"
               id="path3938"
               style="fill:#222222;fill-opacity:1;stroke:none;stroke-width:204.737;stroke-opacity:1" />
            <path
               d="m 11364,8615 146,-1458 51,5 51,5 -146,1458 -51,-5 z"
               id="path3940"
               style="fill:#222222;fill-opacity:1;stroke:none;stroke-width:204.737;stroke-opacity:1" />
            <path
               d="m 11561,7162 20,-47 8,4 7,6 6,6 4,8 4,8 2,9 v 8 3 z"
               id="path3942"
               style="fill:#222222;fill-opacity:1;stroke:none;stroke-width:204.737;stroke-opacity:1" />
            <path
               d="m 11541,7209 -6184,-2594 20,-47 20,-47 6184,2594 -20,47 z"
               id="path3944"
               style="fill:#222222;fill-opacity:1;stroke:none;stroke-width:204.737;stroke-opacity:1" />
            <path
               d="m 5377,4568 -42,-28 5,-7 7,-6 8,-5 8,-3 9,-2 h 9 l 8,2 8,2 z"
               id="path3946"
               style="fill:#222222;fill-opacity:1;stroke:none;stroke-width:204.737;stroke-opacity:1" />
          </g>
          <g
             id="g3950"
             style="fill:#222222;fill-opacity:1;stroke:none;stroke-width:204.737;stroke-opacity:1" />
        </g>
      </g>
      <g
         id="g3980"
         style="fill:#222222;fill-opacity:1;stroke:none;stroke-width:204.737;stroke-opacity:1">
        <desc
           id="desc3956">Drawing</desc>
        <g
           id="g3978"
           style="fill:#222222;fill-opacity:1;stroke:none;stroke-width:204.737;stroke-opacity:1">
          <g
             style="fill:#222222;fill-opacity:1;stroke:none;stroke-width:204.737;stroke-opacity:1"
             id="g3960">
            <path
               d="m 11513,9849 -1120,1184 -1218,-501 z"
               id="path3958"
               style="fill:#222222;fill-opacity:1;stroke:none;stroke-width:204.737;stroke-opacity:1" />
          </g>
          <g
             style="fill:#222222;fill-opacity:1;stroke:none;stroke-width:204.737;stroke-opacity:1"
             id="g3974">
            <path
               d="m 11550,9884 -1120,1184 -37,-35 -37,-35 1120,-1184 37,35 z"
               id="path3962"
               style="fill:#222222;fill-opacity:1;stroke:none;stroke-width:204.737;stroke-opacity:1" />
            <path
               d="m 10393,11033 37,35 -7,6 -7,5 -8,3 -9,2 h -9 l -9,-1 -7,-3 z"
               id="path3964"
               style="fill:#222222;fill-opacity:1;stroke:none;stroke-width:204.737;stroke-opacity:1" />
            <path
               d="m 10374,11080 -1218,-501 19,-47 19,-47 1218,501 -19,47 z"
               id="path3966"
               style="fill:#222222;fill-opacity:1;stroke:none;stroke-width:204.737;stroke-opacity:1" />
            <path
               d="m 9175,10532 -19,47 -8,-4 -7,-5 -6,-7 -5,-7 -4,-9 -2,-8 v -9 l 1,-9 3,-8 4,-8 5,-7 7,-6 7,-5 9,-4 h 1 z"
               id="path3968"
               style="fill:#222222;fill-opacity:1;stroke:none;stroke-width:204.737;stroke-opacity:1" />
            <path
               d="m 9161,10483 2338,-683 14,49 14,49 -2338,683 -14,-49 z"
               id="path3970"
               style="fill:#222222;fill-opacity:1;stroke:none;stroke-width:204.737;stroke-opacity:1" />
            <path
               d="m 11513,9849 -14,-49 8,-2 h 9 l 9,1 9,3 7,5 7,5 6,7 5,7 3,9 2,8 v 9 l -1,9 -3,9 -5,7 -5,7 z"
               id="path3972"
               style="fill:#222222;fill-opacity:1;stroke:none;stroke-width:204.737;stroke-opacity:1" />
          </g>
          <g
             id="g3976"
             style="fill:#222222;fill-opacity:1;stroke:none;stroke-width:204.737;stroke-opacity:1" />
        </g>
      </g>
    </g>
    <g
       aria-label="REVOLUTION"
       transform="matrix(0.62016454,0,0,0.62016454,-92.898404,49.785015)"
       id="text1288"
       style="font-style:normal;font-weight:normal;font-size:10.5833px;line-height:1.25;font-family:sans-serif;white-space:pre;shape-inside:url(#rect1290);fill:#eeeeee;fill-opacity:1;stroke:none;stroke-width:1.61248">
      <path
         d="m -241.42683,141.75048 -1.42874,-2.06374 h -0.0847 -1.49224 v 2.06374 h -1.7145 v -7.40831 h 3.20674 q 0.98425,0 1.70391,0.32808 0.73025,0.32808 1.12183,0.93133 0.39159,0.60325 0.39159,1.42875 0,0.8255 -0.40217,1.42874 -0.39158,0.59267 -1.12183,0.91017 l 1.66158,2.38124 z m -0.0318,-4.72015 q 0,-0.62442 -0.40216,-0.9525 -0.40217,-0.33866 -1.17475,-0.33866 h -1.39699 v 2.58232 h 1.39699 q 0.77258,0 1.17475,-0.33867 0.40216,-0.33866 0.40216,-0.95249 z"
         style="font-style:normal;font-variant:normal;font-weight:bold;font-stretch:normal;font-family:Montserrat;-inkscape-font-specification:'Montserrat Bold';fill:#eeeeee;fill-opacity:1;stroke-width:2.60008"
         id="path1294" />
      <path
         d="m -232.63212,140.37465 v 1.37583 h -5.73615 v -7.40831 h 5.59857 v 1.37583 h -3.89465 v 1.60866 h 3.43957 v 1.3335 h -3.43957 v 1.71449 z"
         style="font-style:normal;font-variant:normal;font-weight:bold;font-stretch:normal;font-family:Montserrat;-inkscape-font-specification:'Montserrat Bold';fill:#eeeeee;fill-opacity:1;stroke-width:2.60008"
         id="path1296" />
      <path
         d="m -224.25015,134.34217 -3.20674,7.40831 h -1.69333 l -3.19616,-7.40831 h 1.85208 l 2.25425,5.29165 2.28599,-5.29165 z"
         style="font-style:normal;font-variant:normal;font-weight:bold;font-stretch:normal;font-family:Montserrat;-inkscape-font-specification:'Montserrat Bold';fill:#eeeeee;fill-opacity:1;stroke-width:2.60008"
         id="path1298" />
      <path
         d="m -220.13327,141.87748 q -1.15358,0 -2.08491,-0.49742 -0.92075,-0.49741 -1.44991,-1.36524 -0.51859,-0.87842 -0.51859,-1.9685 0,-1.09008 0.51859,-1.95791 0.52916,-0.87841 1.44991,-1.37582 0.93133,-0.49742 2.08491,-0.49742 1.15358,0 2.07432,0.49742 0.92075,0.49741 1.44992,1.37582 0.52916,0.86783 0.52916,1.95791 0,1.09008 -0.52916,1.9685 -0.52917,0.86783 -1.44992,1.36524 -0.92074,0.49742 -2.07432,0.49742 z m 0,-1.4605 q 0.65616,0 1.18533,-0.29633 0.52916,-0.30691 0.8255,-0.84666 0.30691,-0.53975 0.30691,-1.22767 0,-0.68791 -0.30691,-1.22766 -0.29634,-0.53975 -0.8255,-0.83608 -0.52917,-0.30691 -1.18533,-0.30691 -0.65617,0 -1.18533,0.30691 -0.52917,0.29633 -0.83608,0.83608 -0.29633,0.53975 -0.29633,1.22766 0,0.68792 0.29633,1.22767 0.30691,0.53975 0.83608,0.84666 0.52916,0.29633 1.18533,0.29633 z"
         style="font-style:normal;font-variant:normal;font-weight:bold;font-stretch:normal;font-family:Montserrat;-inkscape-font-specification:'Montserrat Bold';fill:#eeeeee;fill-opacity:1;stroke-width:2.60008"
         id="path1300" />
      <path
         d="m -214.78871,134.34217 h 1.7145 v 6.01131 h 3.71473 v 1.397 h -5.42923 z"
         style="font-style:normal;font-variant:normal;font-weight:bold;font-stretch:normal;font-family:Montserrat;-inkscape-font-specification:'Montserrat Bold';fill:#eeeeee;fill-opacity:1;stroke-width:2.60008"
         id="path1302" />
      <path
         d="m -205.20027,141.87748 q -1.58749,0 -2.47649,-0.87841 -0.87841,-0.87842 -0.87841,-2.50825 v -4.14865 h 1.71449 v 4.08515 q 0,1.98966 1.651,1.98966 0.80433,0 1.22766,-0.47624 0.42333,-0.48684 0.42333,-1.51342 v -4.08515 h 1.69333 v 4.14865 q 0,1.62983 -0.889,2.50825 -0.87841,0.87841 -2.46591,0.87841 z"
         style="font-style:normal;font-variant:normal;font-weight:bold;font-stretch:normal;font-family:Montserrat;-inkscape-font-specification:'Montserrat Bold';fill:#eeeeee;fill-opacity:1;stroke-width:2.60008"
         id="path1304" />
      <path
         d="m -198.74448,135.73917 h -2.37066 v -1.397 h 6.45581 v 1.397 h -2.37066 v 6.01131 h -1.71449 z"
         style="font-style:normal;font-variant:normal;font-weight:bold;font-stretch:normal;font-family:Montserrat;-inkscape-font-specification:'Montserrat Bold';fill:#eeeeee;fill-opacity:1;stroke-width:2.60008"
         id="path1306" />
      <path
         d="m -193.7386,134.34217 h 1.71449 v 7.40831 h -1.71449 z"
         style="font-style:normal;font-variant:normal;font-weight:bold;font-stretch:normal;font-family:Montserrat;-inkscape-font-specification:'Montserrat Bold';fill:#eeeeee;fill-opacity:1;stroke-width:2.60008"
         id="path1308" />
      <path
         d="m -186.67955,141.87748 q -1.15358,0 -2.08491,-0.49742 -0.92075,-0.49741 -1.44991,-1.36524 -0.51858,-0.87842 -0.51858,-1.9685 0,-1.09008 0.51858,-1.95791 0.52916,-0.87841 1.44991,-1.37582 0.93133,-0.49742 2.08491,-0.49742 1.15358,0 2.07433,0.49742 0.92074,0.49741 1.44991,1.37582 0.52916,0.86783 0.52916,1.95791 0,1.09008 -0.52916,1.9685 -0.52917,0.86783 -1.44991,1.36524 -0.92075,0.49742 -2.07433,0.49742 z m 0,-1.4605 q 0.65616,0 1.18533,-0.29633 0.52916,-0.30691 0.8255,-0.84666 0.30691,-0.53975 0.30691,-1.22767 0,-0.68791 -0.30691,-1.22766 -0.29634,-0.53975 -0.8255,-0.83608 -0.52917,-0.30691 -1.18533,-0.30691 -0.65616,0 -1.18533,0.30691 -0.52916,0.29633 -0.83608,0.83608 -0.29633,0.53975 -0.29633,1.22766 0,0.68792 0.29633,1.22767 0.30692,0.53975 0.83608,0.84666 0.52917,0.29633 1.18533,0.29633 z"
         style="font-style:normal;font-variant:normal;font-weight:bold;font-stretch:normal;font-family:Montserrat;-inkscape-font-specification:'Montserrat Bold';fill:#eeeeee;fill-opacity:1;stroke-width:2.60008"
         id="path1310" />
      <path
         d="m -174.54051,134.34217 v 7.40831 h -1.40758 l -3.69357,-4.4979 v 4.4979 h -1.69333 v -7.40831 h 1.41816 l 3.68299,4.4979 v -4.4979 z"
         style="font-style:normal;font-variant:normal;font-weight:bold;font-stretch:normal;font-family:Montserrat;-inkscape-font-specification:'Montserrat Bold';fill:#eeeeee;fill-opacity:1;stroke-width:2.60008"
         id="path1312" />
    </g>
  </g>
</svg>
