<?xml version="1.0" encoding="UTF-8" standalone="no"?>
<svg
   xmlns:dc="http://purl.org/dc/elements/1.1/"
   xmlns:cc="http://creativecommons.org/ns#"
   xmlns:rdf="http://www.w3.org/1999/02/22-rdf-syntax-ns#"
   xmlns:svg="http://www.w3.org/2000/svg"
   xmlns="http://www.w3.org/2000/svg"
   xmlns:sodipodi="http://sodipodi.sourceforge.net/DTD/sodipodi-0.dtd"
   xmlns:inkscape="http://www.inkscape.org/namespaces/inkscape"
   width="200"
   height="200"
   viewBox="0 0 52.916668 52.916666"
   version="1.1"
   id="svg8"
   inkscape:version="1.0.2-2 (e86c870879, 2021-01-15)"
   sodipodi:docname="antihorny.svg">
  <defs
     id="defs2">
    <rect
       x="-117.59958"
       y="132.74827"
       width="79.325593"
       height="23.198994"
       id="rect943" />
    <rect
       x="-130.60224"
       y="134.99334"
       width="68.567998"
       height="20.579753"
       id="rect880" />
    <inkscape:path-effect
       effect="envelope"
       id="path-effect4658"
       is_visible="true"
       yy="true"
       xx="true"
       bendpath1="m -199.08406,108.42369 h 7.0057"
       bendpath2="m -192.07836,108.42369 v 6.75242"
       bendpath3="m -199.08406,115.17611 h 7.0057"
       bendpath4="m -199.08406,108.42369 v 6.75242" />
    <inkscape:path-effect
       effect="bend_path"
       id="path-effect4656"
       is_visible="true"
       bendpath="m -192.00142,114.60623 c 2.12577,-0.53066 4.48261,0.85111 7.0057,0"
       prop_scale="1"
       scale_y_rel="false"
       vertical="false"
       bendpath-nodetypes="cc" />
    <inkscape:path-effect
       effect="bounding_box"
       id="path-effect4654"
       is_visible="true"
       linkedpath=""
       visualbounds="false" />
  </defs>
  <sodipodi:namedview
     id="base"
     pagecolor="#ffffff"
     bordercolor="#666666"
     borderopacity="1.0"
     inkscape:pageopacity="0.0"
     inkscape:pageshadow="2"
     inkscape:zoom="2.8284272"
     inkscape:cx="151.01087"
     inkscape:cy="111.46231"
     inkscape:document-units="px"
     inkscape:current-layer="layer1"
     showgrid="false"
     fit-margin-top="0"
     fit-margin-left="0"
     fit-margin-right="0"
     fit-margin-bottom="0"
     inkscape:window-width="1920"
     inkscape:window-height="1017"
     inkscape:window-x="-8"
     inkscape:window-y="-8"
     inkscape:window-maximized="1"
     showguides="false"
     inkscape:object-nodes="true"
     units="px"
     inkscape:snap-page="true"
     inkscape:document-rotation="0" />
  <metadata
     id="metadata5">
    <rdf:RDF>
      <cc:Work
         rdf:about="">
        <dc:format>image/svg+xml</dc:format>
        <dc:type
           rdf:resource="http://purl.org/dc/dcmitype/StillImage" />
        <dc:title />
      </cc:Work>
    </rdf:RDF>
  </metadata>
  <g
     inkscape:label="Layer 1"
     inkscape:groupmode="layer"
     id="layer1"
     transform="translate(98.048812,-95.14345)">
    <rect
       y="95.143448"
       x="-98.048813"
       height="52.916668"
       width="52.916668"
       id="rect5163"
       style="fill:#222222;fill-opacity:1;fill-rule:nonzero;stroke:none;stroke-width:0.5;stroke-linecap:butt;stroke-linejoin:round;stroke-miterlimit:4;stroke-dasharray:none;stroke-dashoffset:0;stroke-opacity:0.909449;paint-order:normal"
       rx="3.96875"
       ry="3.96875" />
    <rect
       style="fill:#f5dd00;fill-opacity:1;fill-rule:nonzero;stroke:none;stroke-width:0.5;stroke-linecap:butt;stroke-linejoin:round;stroke-miterlimit:4;stroke-dasharray:none;stroke-dashoffset:0;stroke-opacity:0.909449;paint-order:normal"
       id="rect5165"
       width="47.625"
       height="47.625"
       x="-95.402977"
       y="97.789284"
       rx="2.6458333"
       ry="2.6458333" />
    <path
       style="fill:#222222;fill-opacity:1;fill-rule:nonzero;stroke:none;stroke-width:0.5;stroke-linecap:butt;stroke-linejoin:round;stroke-miterlimit:4;stroke-dasharray:none;stroke-dashoffset:0;stroke-opacity:0.909449;paint-order:normal"
       d="m -96.593602,132.18512 v 8.33438 c 0,3.07816 2.478088,5.55624 5.55625,5.55624 h 38.893748 c 3.078162,0 5.55625,-2.47808 5.55625,-5.55624 v -8.33438 z"
       id="rect5205-3-6"
       inkscape:connector-curvature="0" />
    <g
       id="g927"
       transform="matrix(0.84837335,0,0,0.84837335,-9.9521867,19.349535)"
       style="fill:#222222;fill-opacity:1;stroke-width:1.17873">
      <path
         id="path88925"
         style="fill:#222222;fill-opacity:1;stroke-width:1.17873"
         d="m -88.304021,124.99656 c 1.150084,0.11531 2.993962,-0.38639 3.615895,0.98951 1.008104,1.41094 2.937957,1.32711 4.450188,1.03124 1.168621,0.0135 1.640806,-2.19507 2.673666,-1.10157 2.101451,1.26439 4.693966,0.68955 6.901922,0.0424 1.106405,-0.4805 1.967207,1.35617 3.336292,0.95547 1.777263,0.40424 4.021676,0.51629 5.275915,-1.06383 0.76918,-1.39842 2.868181,-1.27698 2.251461,0.64979 -0.289756,1.94452 1.586247,2.18503 3.053746,2.0504 0.672286,0.71323 -0.85623,1.70158 -1.330303,2.33449 -1.417637,1.19815 -3.34511,1.51857 -5.070096,2.07034 -1.713971,0.38364 -3.411575,0.85382 -5.171217,0.9296 -1.278086,0.47337 -2.670377,0.64779 -4.027178,0.7085 -2.480103,-0.0316 -4.966205,0.0674 -7.442054,-0.0578 -2.805799,-0.41456 -5.98143,-1.07833 -7.73841,-3.53648 -0.305808,-1.27463 -0.179813,-2.76102 -0.511711,-4.10599 -0.123929,-0.62727 -0.104814,-1.27534 -0.26792,-1.89689" />
      <path
         id="path88923"
         style="fill:#222222;fill-opacity:1;stroke-width:1.17873"
         d="m -67.191096,123.10672 c 1.330234,-0.42092 2.445123,1.03224 2.183377,2.24405 -0.506554,1.15641 -2.689309,0.63632 -3.40271,0.0142 -0.285992,-0.94961 0.30167,-1.94005 1.219295,-2.25831" />
      <path
         id="path88919"
         style="fill:#222222;fill-opacity:1;stroke-width:1.17873"
         d="m -82.847626,121.22445 c 1.269062,-0.4592 2.83058,0.32409 3.075629,1.68967 0.691021,1.17943 0.43009,2.93444 -1.150058,3.10378 -1.324437,0.39293 -3.015896,-0.0655 -3.179348,-1.63399 0.02428,-1.08097 0.06885,-2.67759 1.253721,-3.15837" />
      <path
         id="path88917"
         style="fill:#222222;fill-opacity:1;stroke-width:1.17873"
         d="m -62.380403,120.1614 c 1.418383,-0.61088 2.928958,0.59744 2.575057,2.12117 0.436863,1.79221 -2.205128,1.83677 -3.058079,0.88811 -1.013315,-0.75122 -0.713319,-2.60404 0.483057,-3.00897" />
      <path
         id="path88915"
         style="fill:#222222;fill-opacity:1;stroke-width:1.17873"
         d="m -87.875819,119.69001 c 1.505349,-0.18629 3.23635,1.27616 2.698153,2.8791 0.261609,1.72744 -2.227052,1.79949 -3.059421,0.85431 -0.892227,-1.13929 -0.698711,-2.77933 0.361229,-3.73329" />
      <path
         id="path88913"
         style="fill:#222222;fill-opacity:1;stroke-width:1.17873"
         d="m -67.207785,118.05757 c 1.407791,-0.58671 2.798455,0.90453 2.290552,2.29924 -0.07069,1.62403 -2.036065,1.42944 -3.177319,1.68857 -1.036212,-1.06087 -0.917235,-3.11786 0.521957,-3.80404 l 0.168734,-0.0894 0.196073,-0.0945" />
      <path
         id="path88909"
         style="fill:#222222;fill-opacity:1;stroke-width:1.17873"
         d="m -82.596475,115.67709 c 1.358824,-0.44292 3.030995,0.88442 2.490954,2.34768 -0.101401,1.23468 0.179241,3.00801 -1.538812,2.02912 -1.273926,0.0718 -3.368351,-0.0149 -3.271718,-1.78431 0.06211,-1.2086 1.210633,-2.26594 2.319542,-2.59361" />
      <path
         id="path88907"
         style="fill:#222222;fill-opacity:1;stroke-width:1.17873"
         d="m -70.456968,115.44481 c 1.359429,-0.47931 2.905482,0.18624 4.341117,0.1796 1.79751,0.22325 3.600379,0.4936 5.359756,0.9347 1.128354,0.33579 1.487695,3.28094 -0.266128,2.42776 -1.271332,-0.35811 -2.955598,1.1506 -3.083032,-0.87609 -1.038632,-1.51956 -3.48681,-1.72736 -4.724,-0.33543 -0.727753,0.70924 -0.875899,-2.03634 -1.627744,-2.32874" />
      <path
         id="path88905"
         style="fill:#222222;fill-opacity:1;stroke-width:1.17873"
         d="m -74.889937,115.37099 c 1.247198,-0.12712 2.745128,0.14049 3.661994,1.06932 1.234982,1.67216 1.108709,3.84359 1.082688,5.82615 -0.248545,1.20371 -0.531669,2.87026 -2.080712,2.92504 -1.746385,0.44499 -4.08116,0.83003 -5.32691,-0.81286 -0.845378,-0.95212 -1.289439,-2.20876 -1.560957,-3.42956 -0.156011,-1.51727 0.01289,-3.22372 1.297159,-4.24182 0.77502,-0.83537 1.840231,-1.14973 2.926774,-1.33608 m -2.802433,5.59558 c 0.999049,-0.50567 0.912386,-2.29244 2.199772,-2.75272 1.210924,-0.25199 2.30521,-1.73401 0.31854,-1.45954 -1.571762,0.6263 -3.022323,2.11181 -3.079516,3.87892 0.120926,0.18463 0.327581,0.3478 0.561219,0.33328 m 4.738956,2.66026 c 1.644266,-0.7174 -0.640611,-2.16592 -0.770678,-0.27843 0.10159,0.28628 0.527159,0.25595 0.770688,0.27806" />
      <path
         id="path88903"
         style="fill:#222222;fill-opacity:1;stroke-width:1.17873"
         d="m -85.766703,115.11568 c 2.057422,-0.60703 1.106575,0.67471 0.178804,1.49366 -0.471699,1.13387 -0.346269,3.15247 -2.019656,1.66974 -0.378428,-1.12203 -0.122812,-3.03098 1.436948,-3.05621 l 0.239361,-0.0617 0.164578,-0.0455" />
      <path
         id="path88901"
         style="fill:#222222;fill-opacity:1;stroke-width:1.17873"
         d="m -80.293717,114.87653 c 0.958133,-0.47818 3.36252,0.16699 1.539422,1.16496 -0.555654,0.29467 -1.034344,-0.93246 -1.539417,-1.16441" />
      <path
         id="path88899"
         style="fill:#222222;fill-opacity:1;stroke-width:1.17873"
         d="m -73.299629,98.95499 c 2.41217,-0.254304 4.850419,-0.0844 7.274715,-0.1339 1.547318,0.09921 2.838403,1.073156 4.265586,1.56208 1.169746,0.57744 2.024163,1.53351 2.784902,2.56125 1.276654,1.28366 1.892936,3.03056 2.94652,4.47835 0.70317,0.99681 0.757512,2.50098 1.91947,3.10723 1.390909,0.0311 2.694099,0.91979 2.51122,2.45727 -0.01463,1.51234 0.369787,2.98942 0.291,4.50819 0.416604,1.91521 0.220863,3.90636 0.2277,5.85753 -0.05861,1.30333 -1.467242,1.85232 -2.26215,2.68753 -1.008314,0.82544 -2.117797,1.68242 -3.521064,1.39874 -1.487186,0.39904 -2.161828,-0.91297 -1.87332,-2.23545 -0.04673,-2.54271 0.08803,-5.09613 -0.07623,-7.63144 0.0526,-1.51986 -1.337192,-2.30084 -2.694935,-2.29455 -2.018003,-0.35502 -4.03353,-0.78144 -6.086464,-0.868 -1.408249,-0.37327 -2.889555,-0.094 -4.305599,-0.4417 -2.15086,-0.16493 -4.343842,0.14513 -6.467204,-0.2108 -1.704783,-0.16604 -3.445229,-0.1056 -5.160568,-0.0523 -1.661748,0.41101 -3.813483,-0.0171 -4.970973,1.55667 -0.558539,1.25521 -0.127269,2.84528 -0.573352,3.95488 -0.956137,1.22037 -1.144322,2.96654 -0.504068,4.3736 -0.160174,1.30323 0.509815,2.69326 0.53126,4.05218 0.209833,1.11844 0.662036,3.33876 -1.244723,2.28438 -0.987064,-0.60202 -2.406247,-0.80931 -3.005438,-1.86502 -0.508035,-1.93478 -1.110654,-3.87796 -0.951549,-5.90216 0.101085,-1.90857 -0.324947,-3.93821 0.557842,-5.7141 0.718217,-1.01572 2.372687,-1.22465 2.271664,-2.74656 0.278577,-1.77899 1.152811,-3.40102 1.800711,-5.06863 0.851304,-1.84466 2.365956,-3.31345 3.934882,-4.55234 1.945301,-1.29099 3.974369,-2.52573 6.150539,-3.37241 1.799421,-0.4861 3.534494,-1.174254 5.37299,-1.5244 0.288976,-0.06359 0.571311,-0.151756 0.857453,-0.226" />
    </g>
    <g
       aria-label="ANTI-HORNY"
       transform="translate(22.080234,2.3671096)"
       id="text941"
       style="font-style:normal;font-weight:normal;font-size:7.05556px;line-height:1.25;font-family:sans-serif;white-space:pre;shape-inside:url(#rect943);fill:#f5dd00;fill-opacity:1;stroke:none">
      <path
         d="m -113.76138,138.17443 h -2.29306 l -0.43745,1.05834 h -1.17122 l 2.20134,-4.9389 h 1.12888 l 2.2084,4.9389 h -1.19945 z m -0.35984,-0.86783 -0.78317,-1.89089 -0.78316,1.89089 z"
         style="font-style:normal;font-variant:normal;font-weight:bold;font-stretch:normal;font-size:7.05556px;font-family:Montserrat;-inkscape-font-specification:'Montserrat Bold';fill:#f5dd00;fill-opacity:1"
         id="path856" />
      <path
         d="m -107.07978,134.29387 v 4.9389 h -0.93839 l -2.46239,-2.99862 v 2.99862 h -1.12889 v -4.9389 h 0.94545 l 2.45533,2.99862 v -2.99862 z"
         style="font-style:normal;font-variant:normal;font-weight:bold;font-stretch:normal;font-size:7.05556px;font-family:Montserrat;-inkscape-font-specification:'Montserrat Bold';fill:#f5dd00;fill-opacity:1"
         id="path858" />
      <path
         d="m -104.88551,135.22521 h -1.58044 v -0.93134 h 4.30389 v 0.93134 h -1.58045 v 4.00756 h -1.143 z"
         style="font-style:normal;font-variant:normal;font-weight:bold;font-stretch:normal;font-size:7.05556px;font-family:Montserrat;-inkscape-font-specification:'Montserrat Bold';fill:#f5dd00;fill-opacity:1"
         id="path860" />
      <path
         d="m -101.54824,134.29387 h 1.143 v 4.9389 h -1.143 z"
         style="font-style:normal;font-variant:normal;font-weight:bold;font-stretch:normal;font-size:7.05556px;font-family:Montserrat;-inkscape-font-specification:'Montserrat Bold';fill:#f5dd00;fill-opacity:1"
         id="path862" />
      <path
         d="m -99.452746,136.80565 h 1.996723 v 0.88195 h -1.996723 z"
         style="font-style:normal;font-variant:normal;font-weight:bold;font-stretch:normal;font-size:7.05556px;font-family:Montserrat;-inkscape-font-specification:'Montserrat Bold';fill:#f5dd00;fill-opacity:1"
         id="path864" />
      <path
         d="m -91.98091,134.29387 v 4.9389 h -1.143001 v -2.02495 h -2.243668 v 2.02495 h -1.143001 v -4.9389 h 1.143001 v 1.94734 h 2.243668 v -1.94734 z"
         style="font-style:normal;font-variant:normal;font-weight:bold;font-stretch:normal;font-size:7.05556px;font-family:Montserrat;-inkscape-font-specification:'Montserrat Bold';fill:#f5dd00;fill-opacity:1"
         id="path866" />
      <path
         d="m -88.417861,139.31743 q -0.769056,0 -1.389946,-0.33161 -0.613833,-0.33161 -0.966611,-0.91017 -0.345723,-0.58561 -0.345723,-1.31233 0,-0.72672 0.345723,-1.30528 0.352778,-0.58561 0.966611,-0.91722 0.62089,-0.33161 1.389946,-0.33161 0.769056,0 1.38289,0.33161 0.613833,0.33161 0.966611,0.91722 0.352778,0.57856 0.352778,1.30528 0,0.72672 -0.352778,1.31233 -0.352778,0.57856 -0.966611,0.91017 -0.613834,0.33161 -1.38289,0.33161 z m 0,-0.97366 q 0.437445,0 0.790223,-0.19756 0.352778,-0.20461 0.550333,-0.56444 0.204611,-0.35984 0.204611,-0.81845 0,-0.45861 -0.204611,-0.81844 -0.197555,-0.35984 -0.550333,-0.55739 -0.352778,-0.20462 -0.790223,-0.20462 -0.437445,0 -0.790223,0.20462 -0.352778,0.19755 -0.557389,0.55739 -0.197556,0.35983 -0.197556,0.81844 0,0.45861 0.197556,0.81845 0.204611,0.35983 0.557389,0.56444 0.352778,0.19756 0.790223,0.19756 z"
         style="font-style:normal;font-variant:normal;font-weight:bold;font-stretch:normal;font-size:7.05556px;font-family:Montserrat;-inkscape-font-specification:'Montserrat Bold';fill:#f5dd00;fill-opacity:1"
         id="path868" />
      <path
         d="m -81.708023,139.23277 -0.952501,-1.37584 h -0.05644 -0.994834 v 1.37584 h -1.143001 v -4.9389 h 2.137835 q 0.656167,0 1.135945,0.21873 0.486834,0.21872 0.747889,0.62089 0.261056,0.40216 0.261056,0.9525 0,0.55033 -0.268111,0.9525 -0.261056,0.39511 -0.74789,0.60678 l 1.107723,1.5875 z m -0.02117,-3.14678 q 0,-0.41628 -0.268111,-0.635 -0.268111,-0.22578 -0.783167,-0.22578 h -0.931334 v 1.72155 h 0.931334 q 0.515056,0 0.783167,-0.22577 0.268111,-0.22578 0.268111,-0.635 z"
         style="font-style:normal;font-variant:normal;font-weight:bold;font-stretch:normal;font-size:7.05556px;font-family:Montserrat;-inkscape-font-specification:'Montserrat Bold';fill:#f5dd00;fill-opacity:1"
         id="path870" />
      <path
         d="m -75.139308,134.29387 v 4.9389 h -0.938389 l -2.462391,-2.99862 v 2.99862 h -1.12889 v -4.9389 h 0.945445 l 2.455335,2.99862 v -2.99862 z"
         style="font-style:normal;font-variant:normal;font-weight:bold;font-stretch:normal;font-size:7.05556px;font-family:Montserrat;-inkscape-font-specification:'Montserrat Bold';fill:#f5dd00;fill-opacity:1"
         id="path872" />
      <path
         d="m -71.597427,137.48299 v 1.74978 h -1.143001 v -1.76389 l -1.912057,-3.17501 h 1.213556 l 1.31939,2.19428 1.31939,-2.19428 h 1.121834 z"
         style="font-style:normal;font-variant:normal;font-weight:bold;font-stretch:normal;font-size:7.05556px;font-family:Montserrat;-inkscape-font-specification:'Montserrat Bold';fill:#f5dd00;fill-opacity:1"
         id="path874" />
    </g>
  </g>
</svg>
