<?xml version="1.0" encoding="UTF-8" standalone="no"?>
<svg
   xmlns:dc="http://purl.org/dc/elements/1.1/"
   xmlns:cc="http://creativecommons.org/ns#"
   xmlns:rdf="http://www.w3.org/1999/02/22-rdf-syntax-ns#"
   xmlns:svg="http://www.w3.org/2000/svg"
   xmlns="http://www.w3.org/2000/svg"
   xmlns:sodipodi="http://sodipodi.sourceforge.net/DTD/sodipodi-0.dtd"
   xmlns:inkscape="http://www.inkscape.org/namespaces/inkscape"
   width="200"
   height="200"
   viewBox="0 0 52.916668 52.916666"
   version="1.1"
   id="svg8"
   inkscape:version="1.0.2-2 (e86c870879, 2021-01-15)"
   sodipodi:docname="behaving.svg">
  <defs
     id="defs2">
    <rect
       x="-298.22322"
       y="119.32301"
       width="73.554167"
       height="25.003124"
       id="rect865" />
    <rect
       x="-297.69405"
       y="129.24488"
       width="41.936458"
       height="10.847917"
       id="rect860" />
    <inkscape:path-effect
       effect="envelope"
       id="path-effect4658"
       is_visible="true"
       yy="true"
       xx="true"
       bendpath1="m -199.08406,108.42369 h 7.0057"
       bendpath2="m -192.07836,108.42369 v 6.75242"
       bendpath3="m -199.08406,115.17611 h 7.0057"
       bendpath4="m -199.08406,108.42369 v 6.75242" />
    <inkscape:path-effect
       effect="bend_path"
       id="path-effect4656"
       is_visible="true"
       bendpath="m -192.00142,114.60623 c 2.12577,-0.53066 4.48261,0.85111 7.0057,0"
       prop_scale="1"
       scale_y_rel="false"
       vertical="false"
       bendpath-nodetypes="cc" />
    <inkscape:path-effect
       effect="bounding_box"
       id="path-effect4654"
       is_visible="true"
       linkedpath=""
       visualbounds="false" />
  </defs>
  <sodipodi:namedview
     id="base"
     pagecolor="#ffffff"
     bordercolor="#666666"
     borderopacity="1.0"
     inkscape:pageopacity="0.0"
     inkscape:pageshadow="2"
     inkscape:zoom="2"
     inkscape:cx="105.21275"
     inkscape:cy="154.82819"
     inkscape:document-units="mm"
     inkscape:current-layer="layer1"
     showgrid="false"
     fit-margin-top="0"
     fit-margin-left="0"
     fit-margin-right="0"
     fit-margin-bottom="0"
     inkscape:window-width="1920"
     inkscape:window-height="1017"
     inkscape:window-x="-8"
     inkscape:window-y="-8"
     inkscape:window-maximized="1"
     showguides="false"
     inkscape:object-nodes="true"
     units="px"
     inkscape:snap-page="true"
     inkscape:document-rotation="0" />
  <metadata
     id="metadata5">
    <rdf:RDF>
      <cc:Work
         rdf:about="">
        <dc:format>image/svg+xml</dc:format>
        <dc:type
           rdf:resource="http://purl.org/dc/dcmitype/StillImage" />
        <dc:title />
      </cc:Work>
    </rdf:RDF>
  </metadata>
  <g
     inkscape:label="Layer 1"
     inkscape:groupmode="layer"
     id="layer1"
     transform="translate(249.80447,-91.409467)">
    <rect
       ry="3.96875"
       rx="3.96875"
       style="fill:#222222;fill-opacity:1;fill-rule:nonzero;stroke:none;stroke-width:0.5;stroke-linecap:butt;stroke-linejoin:round;stroke-miterlimit:4;stroke-dasharray:none;stroke-dashoffset:0;stroke-opacity:0.909449;paint-order:normal"
       id="rect5322"
       width="52.916668"
       height="52.916668"
       x="-249.80447"
       y="91.40947" />
    <rect
       ry="2.6458333"
       rx="2.6458333"
       y="94.055298"
       x="-247.15863"
       height="47.625"
       width="47.625"
       id="rect5324"
       style="fill:#ffcc00;fill-opacity:1;fill-rule:nonzero;stroke:none;stroke-width:0.5;stroke-linecap:butt;stroke-linejoin:round;stroke-miterlimit:4;stroke-dasharray:none;stroke-dashoffset:0;stroke-opacity:0.909449;paint-order:normal" />
    <path
       inkscape:connector-curvature="0"
       id="path5326"
       d="m -248.34926,128.45114 v 8.33437 c 0,3.07817 2.47809,5.55625 5.55625,5.55625 h 38.89375 c 3.07816,0 5.55625,-2.47808 5.55625,-5.55625 v -8.33437 z"
       style="fill:#222222;fill-opacity:1;fill-rule:nonzero;stroke:none;stroke-width:0.5;stroke-linecap:butt;stroke-linejoin:round;stroke-miterlimit:4;stroke-dasharray:none;stroke-dashoffset:0;stroke-opacity:0.909449;paint-order:normal" />
    <text
       xml:space="preserve"
       id="text858"
       style="fill:black;fill-opacity:1;line-height:1.25;stroke:none;font-family:sans-serif;font-style:normal;font-weight:normal;font-size:10.58333333px;white-space:pre;shape-inside:url(#rect860);" />
    <path
       id="path1221"
       style="fill:#222222;fill-opacity:1;stroke-width:1"
       d="m -226.14418,103.23223 c 1.88163,-0.4122 3.83476,-0.16958 5.75106,-0.23413 2.276,-0.0881 4.63906,0.27252 6.58779,1.50746 1.3284,1.24453 3.39838,1.32704 4.51092,2.84148 1.3253,0.97653 2.26199,2.19587 3.07886,3.58233 0.79565,1.51864 1.36788,3.15708 1.76811,4.81477 0.17148,2.08608 0.22666,4.20658 -0.20488,6.2644 -0.0685,1.34515 0.0624,2.7314 -0.54371,3.98766 -0.52319,0.77416 0.0841,2.85466 -1.0717,2.85004 -12.03221,0 -24.06443,0 -36.09664,0 0.0362,-1.41656 -0.14917,-2.86309 0.30685,-4.22723 -0.0368,-2.90249 1.17803,-5.59627 1.65414,-8.4209 0.61011,-1.81988 1.93916,-3.24992 2.84575,-4.91482 0.92039,-1.34351 1.99708,-2.6617 3.38305,-3.54159 1.44089,-0.78294 2.6847,-1.84843 4.14547,-2.59037 1.34955,-0.57046 2.64521,-1.13282 3.8855,-1.92026 m -0.94527,21.83956 c 1.41618,-0.16267 3.56652,-0.51754 3.51157,-2.35923 0.0336,-1.66065 0.27908,-3.87343 -1.38578,-4.8551 -1.54078,-0.7496 -3.38479,-1.51327 -5.09326,-0.859 -1.70941,0.87367 -2.35051,2.89731 -2.53578,4.67524 -0.0743,1.77868 1.77623,3.07338 3.32231,3.40373 0.72243,0.0979 1.46124,0.1088 2.18254,-0.004 m 18.12811,-0.018 c 1.6517,-0.27704 2.31185,-1.792 2.04711,-3.31395 0.18073,-1.23707 -0.48401,-2.42079 -1.64067,-2.91473 -1.4768,-0.89963 -3.49697,-0.80639 -4.73184,0.45603 -1.14118,1.24863 -1.84746,3.02275 -1.02861,4.63455 0.83528,1.6144 2.93947,1.09095 4.41964,1.22206 0.31202,-0.0168 0.62703,-0.0173 0.93407,-0.0837" />
    <g
       aria-label="BEHAVING"
       transform="translate(51.004782,11.255857)"
       id="text863"
       style="font-style:normal;font-weight:normal;font-size:8.46667px;line-height:1.25;font-family:sans-serif;white-space:pre;shape-inside:url(#rect865);fill:#ffcc00;fill-opacity:1;stroke:none">
      <path
         d="m -293.16805,124.02206 q 0.508,0.16087 0.79586,0.54187 0.28787,0.37253 0.28787,0.92286 0,0.77894 -0.6096,1.20227 -0.60113,0.41487 -1.76107,0.41487 h -3.06493 v -5.92667 h 2.8956 q 1.08373,0 1.65947,0.41486 0.5842,0.41487 0.5842,1.12607 0,0.4318 -0.21167,0.77047 -0.2032,0.33867 -0.57573,0.5334 z m -2.98874,-1.81187 v 1.397 h 1.36314 q 0.508,0 0.77046,-0.1778 0.26247,-0.1778 0.26247,-0.52493 0,-0.34713 -0.26247,-0.51647 -0.26246,-0.1778 -0.77046,-0.1778 z m 1.6002,3.8608 q 0.54187,0 0.8128,-0.1778 0.2794,-0.1778 0.2794,-0.55033 0,-0.7366 -1.0922,-0.7366 h -1.6002 v 1.46473 z"
         style="font-style:normal;font-variant:normal;font-weight:bold;font-stretch:normal;font-size:8.46667px;font-family:Montserrat;-inkscape-font-specification:'Montserrat Bold';fill:#ffcc00;fill-opacity:1"
         id="path869" />
      <path
         d="m -286.45399,126.00326 v 1.10067 h -4.58894 v -5.92667 h 4.47887 v 1.10067 h -3.11573 v 1.28693 h 2.75167 v 1.0668 h -2.75167 v 1.3716 z"
         style="font-style:normal;font-variant:normal;font-weight:bold;font-stretch:normal;font-size:8.46667px;font-family:Montserrat;-inkscape-font-specification:'Montserrat Bold';fill:#ffcc00;fill-opacity:1"
         id="path871" />
      <path
         d="m -279.92619,121.17726 v 5.92667 h -1.3716 v -2.42994 h -2.6924 v 2.42994 h -1.3716 v -5.92667 h 1.3716 v 2.3368 h 2.6924 v -2.3368 z"
         style="font-style:normal;font-variant:normal;font-weight:bold;font-stretch:normal;font-size:8.46667px;font-family:Montserrat;-inkscape-font-specification:'Montserrat Bold';fill:#ffcc00;fill-opacity:1"
         id="path873" />
      <path
         d="m -274.6176,125.83393 h -2.75167 l -0.52493,1.27 h -1.40547 l 2.6416,-5.92667 h 1.35467 l 2.65007,5.92667 h -1.43934 z m -0.4318,-1.0414 -0.9398,-2.26907 -0.9398,2.26907 z"
         style="font-style:normal;font-variant:normal;font-weight:bold;font-stretch:normal;font-size:8.46667px;font-family:Montserrat;-inkscape-font-specification:'Montserrat Bold';fill:#ffcc00;fill-opacity:1"
         id="path875" />
      <path
         d="m -266.65894,121.17726 -2.5654,5.92667 h -1.35467 l -2.55693,-5.92667 h 1.48166 l 1.8034,4.23333 1.8288,-4.23333 z"
         style="font-style:normal;font-variant:normal;font-weight:bold;font-stretch:normal;font-size:8.46667px;font-family:Montserrat;-inkscape-font-specification:'Montserrat Bold';fill:#ffcc00;fill-opacity:1"
         id="path877" />
      <path
         d="m -266.1679,121.17726 h 1.3716 v 5.92667 h -1.3716 z"
         style="font-style:normal;font-variant:normal;font-weight:bold;font-stretch:normal;font-size:8.46667px;font-family:Montserrat;-inkscape-font-specification:'Montserrat Bold';fill:#ffcc00;fill-opacity:1"
         id="path879" />
      <path
         d="m -257.95524,121.17726 v 5.92667 h -1.12607 l -2.95486,-3.59834 v 3.59834 h -1.35467 v -5.92667 h 1.13453 l 2.9464,3.59833 v -3.59833 z"
         style="font-style:normal;font-variant:normal;font-weight:bold;font-stretch:normal;font-size:8.46667px;font-family:Montserrat;-inkscape-font-specification:'Montserrat Bold';fill:#ffcc00;fill-opacity:1"
         id="path881" />
      <path
         d="m -252.54505,124.04746 h 1.25307 v 2.40453 q -0.4826,0.36407 -1.1176,0.5588 -0.635,0.19474 -1.27847,0.19474 -0.92286,0 -1.65946,-0.38947 -0.7366,-0.39793 -1.15994,-1.0922 -0.41486,-0.70273 -0.41486,-1.58327 0,-0.88053 0.41486,-1.5748 0.42334,-0.70273 1.1684,-1.0922 0.74507,-0.39793 1.6764,-0.39793 0.77894,0 1.41394,0.26246 0.635,0.26247 1.0668,0.76201 l -0.88054,0.8128 q -0.635,-0.66887 -1.53246,-0.66887 -0.56727,0 -1.00754,0.23707 -0.44026,0.23706 -0.6858,0.66886 -0.24553,0.4318 -0.24553,0.9906 0,0.55034 0.24553,0.98214 0.24554,0.4318 0.67734,0.67733 0.44026,0.23707 0.99906,0.23707 0.59267,0 1.0668,-0.254 z"
         style="font-style:normal;font-variant:normal;font-weight:bold;font-stretch:normal;font-size:8.46667px;font-family:Montserrat;-inkscape-font-specification:'Montserrat Bold';fill:#ffcc00;fill-opacity:1"
         id="path883" />
    </g>
  </g>
</svg>
