<?xml version="1.0" encoding="UTF-8" standalone="no"?>
<svg
   xmlns:dc="http://purl.org/dc/elements/1.1/"
   xmlns:cc="http://creativecommons.org/ns#"
   xmlns:rdf="http://www.w3.org/1999/02/22-rdf-syntax-ns#"
   xmlns:svg="http://www.w3.org/2000/svg"
   xmlns="http://www.w3.org/2000/svg"
   xmlns:sodipodi="http://sodipodi.sourceforge.net/DTD/sodipodi-0.dtd"
   xmlns:inkscape="http://www.inkscape.org/namespaces/inkscape"
   width="200"
   height="200"
   viewBox="0 0 52.916668 52.916666"
   version="1.1"
   id="svg8"
   inkscape:version="1.0.2-2 (e86c870879, 2021-01-15)"
   sodipodi:docname="behaving.svg">
  <defs
     id="defs2">
    <rect
       x="-298.22322"
       y="119.32301"
       width="73.554167"
       height="25.003124"
       id="rect865" />
    <rect
       x="-297.69405"
       y="129.24488"
       width="41.936458"
       height="10.847917"
       id="rect860" />
    <inkscape:path-effect
       effect="envelope"
       id="path-effect4658"
       is_visible="true"
       yy="true"
       xx="true"
       bendpath1="m -199.08406,108.42369 h 7.0057"
       bendpath2="m -192.07836,108.42369 v 6.75242"
       bendpath3="m -199.08406,115.17611 h 7.0057"
       bendpath4="m -199.08406,108.42369 v 6.75242" />
    <inkscape:path-effect
       effect="bend_path"
       id="path-effect4656"
       is_visible="true"
       bendpath="m -192.00142,114.60623 c 2.12577,-0.53066 4.48261,0.85111 7.0057,0"
       prop_scale="1"
       scale_y_rel="false"
       vertical="false"
       bendpath-nodetypes="cc" />
    <inkscape:path-effect
       effect="bounding_box"
       id="path-effect4654"
       is_visible="true"
       linkedpath=""
       visualbounds="false" />
  </defs>
  <sodipodi:namedview
     id="base"
     pagecolor="#ffffff"
     bordercolor="#666666"
     borderopacity="1.0"
     inkscape:pageopacity="0.0"
     inkscape:pageshadow="2"
     inkscape:zoom="1.4142136"
     inkscape:cx="-67.119814"
     inkscape:cy="-31.559482"
     inkscape:document-units="mm"
     inkscape:current-layer="layer1"
     showgrid="false"
     fit-margin-top="0"
     fit-margin-left="0"
     fit-margin-right="0"
     fit-margin-bottom="0"
     inkscape:window-width="1920"
     inkscape:window-height="1017"
     inkscape:window-x="-8"
     inkscape:window-y="-8"
     inkscape:window-maximized="1"
     showguides="false"
     inkscape:object-nodes="true"
     units="px"
     inkscape:snap-page="true"
     inkscape:document-rotation="0" />
  <metadata
     id="metadata5">
    <rdf:RDF>
      <cc:Work
         rdf:about="">
        <dc:format>image/svg+xml</dc:format>
        <dc:type
           rdf:resource="http://purl.org/dc/dcmitype/StillImage" />
        <dc:title />
      </cc:Work>
    </rdf:RDF>
  </metadata>
  <g
     inkscape:label="Layer 1"
     inkscape:groupmode="layer"
     id="layer1"
     transform="translate(249.80447,-91.409467)">
    <rect
       ry="3.96875"
       rx="3.96875"
       style="fill:#222222;fill-opacity:1;fill-rule:nonzero;stroke:none;stroke-width:0.5;stroke-linecap:butt;stroke-linejoin:round;stroke-miterlimit:4;stroke-dasharray:none;stroke-dashoffset:0;stroke-opacity:0.909449;paint-order:normal"
       id="rect5322"
       width="52.916668"
       height="52.916668"
       x="-249.80447"
       y="91.40947" />
    <rect
       ry="2.6458333"
       rx="2.6458333"
       y="94.055298"
       x="-247.15863"
       height="47.625"
       width="47.625"
       id="rect5324"
       style="fill:#7f00ff;fill-opacity:1;fill-rule:nonzero;stroke:none;stroke-width:0.5;stroke-linecap:butt;stroke-linejoin:round;stroke-miterlimit:4;stroke-dasharray:none;stroke-dashoffset:0;stroke-opacity:0.909449;paint-order:normal" />
    <path
       inkscape:connector-curvature="0"
       id="path5326"
       d="m -248.34926,128.45114 v 8.33437 c 0,3.07817 2.47809,5.55625 5.55625,5.55625 h 38.89375 c 3.07816,0 5.55625,-2.47808 5.55625,-5.55625 v -8.33437 z"
       style="fill:#222222;fill-opacity:1;fill-rule:nonzero;stroke:none;stroke-width:0.5;stroke-linecap:butt;stroke-linejoin:round;stroke-miterlimit:4;stroke-dasharray:none;stroke-dashoffset:0;stroke-opacity:0.909449;paint-order:normal" />
    <text
       xml:space="preserve"
       id="text858"
       style="fill:black;fill-opacity:1;line-height:1.25;stroke:none;font-family:sans-serif;font-style:normal;font-weight:normal;font-size:10.58333333px;white-space:pre;shape-inside:url(#rect860);" />
    <g
       aria-label="BEHAVING"
       transform="translate(51.004782,11.255857)"
       id="text863"
       style="font-style:normal;font-weight:normal;font-size:8.46667px;line-height:1.25;font-family:sans-serif;white-space:pre;shape-inside:url(#rect865);fill:#7f00ff;fill-opacity:1;stroke:none">
      <path
         d="m -293.16805,124.02206 q 0.508,0.16087 0.79586,0.54187 0.28787,0.37253 0.28787,0.92286 0,0.77894 -0.6096,1.20227 -0.60113,0.41487 -1.76107,0.41487 h -3.06493 v -5.92667 h 2.8956 q 1.08373,0 1.65947,0.41486 0.5842,0.41487 0.5842,1.12607 0,0.4318 -0.21167,0.77047 -0.2032,0.33867 -0.57573,0.5334 z m -2.98874,-1.81187 v 1.397 h 1.36314 q 0.508,0 0.77046,-0.1778 0.26247,-0.1778 0.26247,-0.52493 0,-0.34713 -0.26247,-0.51647 -0.26246,-0.1778 -0.77046,-0.1778 z m 1.6002,3.8608 q 0.54187,0 0.8128,-0.1778 0.2794,-0.1778 0.2794,-0.55033 0,-0.7366 -1.0922,-0.7366 h -1.6002 v 1.46473 z"
         style="font-style:normal;font-variant:normal;font-weight:bold;font-stretch:normal;font-size:8.46667px;font-family:Montserrat;-inkscape-font-specification:'Montserrat Bold';fill:#7f00ff;fill-opacity:1"
         id="path869" />
      <path
         d="m -286.45399,126.00326 v 1.10067 h -4.58894 v -5.92667 h 4.47887 v 1.10067 h -3.11573 v 1.28693 h 2.75167 v 1.0668 h -2.75167 v 1.3716 z"
         style="font-style:normal;font-variant:normal;font-weight:bold;font-stretch:normal;font-size:8.46667px;font-family:Montserrat;-inkscape-font-specification:'Montserrat Bold';fill:#7f00ff;fill-opacity:1"
         id="path871" />
      <path
         d="m -279.92619,121.17726 v 5.92667 h -1.3716 v -2.42994 h -2.6924 v 2.42994 h -1.3716 v -5.92667 h 1.3716 v 2.3368 h 2.6924 v -2.3368 z"
         style="font-style:normal;font-variant:normal;font-weight:bold;font-stretch:normal;font-size:8.46667px;font-family:Montserrat;-inkscape-font-specification:'Montserrat Bold';fill:#7f00ff;fill-opacity:1"
         id="path873" />
      <path
         d="m -274.6176,125.83393 h -2.75167 l -0.52493,1.27 h -1.40547 l 2.6416,-5.92667 h 1.35467 l 2.65007,5.92667 h -1.43934 z m -0.4318,-1.0414 -0.9398,-2.26907 -0.9398,2.26907 z"
         style="font-style:normal;font-variant:normal;font-weight:bold;font-stretch:normal;font-size:8.46667px;font-family:Montserrat;-inkscape-font-specification:'Montserrat Bold';fill:#7f00ff;fill-opacity:1"
         id="path875" />
      <path
         d="m -266.65894,121.17726 -2.5654,5.92667 h -1.35467 l -2.55693,-5.92667 h 1.48166 l 1.8034,4.23333 1.8288,-4.23333 z"
         style="font-style:normal;font-variant:normal;font-weight:bold;font-stretch:normal;font-size:8.46667px;font-family:Montserrat;-inkscape-font-specification:'Montserrat Bold';fill:#7f00ff;fill-opacity:1"
         id="path877" />
      <path
         d="m -266.1679,121.17726 h 1.3716 v 5.92667 h -1.3716 z"
         style="font-style:normal;font-variant:normal;font-weight:bold;font-stretch:normal;font-size:8.46667px;font-family:Montserrat;-inkscape-font-specification:'Montserrat Bold';fill:#7f00ff;fill-opacity:1"
         id="path879" />
      <path
         d="m -257.95524,121.17726 v 5.92667 h -1.12607 l -2.95486,-3.59834 v 3.59834 h -1.35467 v -5.92667 h 1.13453 l 2.9464,3.59833 v -3.59833 z"
         style="font-style:normal;font-variant:normal;font-weight:bold;font-stretch:normal;font-size:8.46667px;font-family:Montserrat;-inkscape-font-specification:'Montserrat Bold';fill:#7f00ff;fill-opacity:1"
         id="path881" />
      <path
         d="m -252.54505,124.04746 h 1.25307 v 2.40453 q -0.4826,0.36407 -1.1176,0.5588 -0.635,0.19474 -1.27847,0.19474 -0.92286,0 -1.65946,-0.38947 -0.7366,-0.39793 -1.15994,-1.0922 -0.41486,-0.70273 -0.41486,-1.58327 0,-0.88053 0.41486,-1.5748 0.42334,-0.70273 1.1684,-1.0922 0.74507,-0.39793 1.6764,-0.39793 0.77894,0 1.41394,0.26246 0.635,0.26247 1.0668,0.76201 l -0.88054,0.8128 q -0.635,-0.66887 -1.53246,-0.66887 -0.56727,0 -1.00754,0.23707 -0.44026,0.23706 -0.6858,0.66886 -0.24553,0.4318 -0.24553,0.9906 0,0.55034 0.24553,0.98214 0.24554,0.4318 0.67734,0.67733 0.44026,0.23707 0.99906,0.23707 0.59267,0 1.0668,-0.254 z"
         style="font-style:normal;font-variant:normal;font-weight:bold;font-stretch:normal;font-size:8.46667px;font-family:Montserrat;-inkscape-font-specification:'Montserrat Bold';fill:#7f00ff;fill-opacity:1"
         id="path883" />
    </g>
    <g
       id="g880"
       transform="matrix(0.82217869,-0.10095086,0.10095086,0.82217869,-383.50964,-66.842537)"
       style="fill:#222222;fill-opacity:1;stroke-width:1.20721">
      <path
         id="path863"
         style="fill:#222222;fill-opacity:1;stroke-width:1.20721"
         d="m 150.51386,251.87551 c 1.03001,-0.0319 2.03166,0.93026 3.04775,1.27581 1.51811,0.68287 3.05897,1.31383 4.66823,1.74971 2.5467,0.58961 5.11405,1.16615 7.65741,1.7933 2.49366,0.37959 4.96659,0.99299 7.51223,0.83988 1.08367,0.0273 2.17664,-0.0707 3.25157,0.0879 -0.66151,0.91632 -1.41811,2.38221 -2.54476,2.45556 -7.39092,-0.038 -11.70649,-1.48445 -18.83053,-2.42963 -5.09639,-1.19621 -5.73411,-3.41919 -4.7619,-5.77253"
         sodipodi:nodetypes="ccccccccc" />
      <path
         id="path861"
         style="fill:#222222;fill-opacity:1;stroke-width:1.20721"
         d="m 175.70232,243.40942 c 1.05052,-0.22153 3.24698,-0.45286 3.50165,1.0096 0.46693,1.99412 0.30487,4.06154 0.2835,6.09113 0.0328,1.45255 -0.62359,2.42113 -2.21052,1.99485 -0.70617,-0.0242 -2.40584,0.25867 -1.79657,-0.94713 0.57769,-1.57667 0.24777,-3.28954 0.3355,-4.93426 0.007,-1.0744 0.016,-2.15162 -0.113,-3.21426" />
      <path
         id="path859"
         style="fill:#222222;fill-opacity:1;stroke-width:1.20721"
         d="m 170.38389,243.17356 c 1.27087,-0.31891 3.05546,-0.24639 4.07326,0.4663 0.53402,1.49795 0.21398,3.13396 0.30063,4.69715 0.0785,1.37413 -0.17924,2.76793 -0.87106,3.96827 -1.38091,0.30456 -2.90822,-0.0865 -4.31302,-0.295 -1.61652,-0.0716 -0.17316,-2.34627 -0.10641,-3.32706 0.49107,-1.37769 0.5684,-2.83485 0.7766,-4.2671 0.0382,-0.41163 -0.0374,-0.85375 0.1404,-1.24104" />
      <path
         id="path857"
         style="fill:#222222;fill-opacity:1;stroke-width:1.20721"
         d="m 165.56462,242.64579 c 1.07894,-0.19674 2.85247,-0.0703 3.72119,0.34432 -0.1808,2.08279 -0.52843,4.13988 -1.0868,6.15488 -0.0526,1.44393 -0.91844,2.90861 -2.51323,1.9811 -0.87967,-0.35228 -3.18462,-0.62385 -2.09322,-2.00233 1.24565,-1.94722 1.55121,-4.2505 1.97318,-6.47865" />
      <path
         id="path855"
         style="fill:#222222;fill-opacity:1;stroke-width:1.20721"
         d="m 161.31348,241.86239 c 0.94165,0.2595 3.31614,-0.2066 2.97409,1.35569 -0.3824,2.14172 -0.79753,4.47166 -2.32879,6.11868 -1.07482,-0.0744 -2.00111,-0.93898 -2.91779,-1.45485 0.5767,-1.77981 1.87253,-3.29706 2.03389,-5.22272 0.0673,-0.26928 0.15044,-0.53412 0.2386,-0.79721" />
      <path
         id="path853"
         style="fill:#222222;fill-opacity:1;stroke-width:1.20721"
         d="m 157.58026,241.07623 c 1.08133,-0.10689 3.19874,0.14619 2.3308,1.7619 -0.37046,1.52891 -1.13971,2.95256 -1.97173,4.26688 -1.21514,-0.64004 -2.59811,-1.97496 -2.05392,-3.49637 0.11351,-1.08455 0.83479,-1.92742 1.69414,-2.5324" />
      <path
         id="path851"
         style="fill:#222222;fill-opacity:1;stroke-width:1.20721"
         d="m 144.64062,219.4402 c 3.54905,0.5249 11.28307,2.56933 14.08432,4.55542 1.27506,0.57656 2.12841,1.84924 2.65653,3.09977 0.56847,1.21813 -0.26561,2.31953 -0.41176,3.31997 0.73838,0.7371 2.0639,0.27261 3.07194,0.39619 1.71519,0.0616 3.46091,-0.15195 5.14885,0.1748 1.97664,0.76307 4.02848,1.6029 5.43448,3.26445 1.69546,1.72301 2.72334,3.97849 3.53621,6.22125 0.27334,0.80461 0.91601,2.37969 -0.59848,1.7568 -1.68017,-0.13475 -3.38831,0.13104 -5.03855,-0.2723 -1.16394,-0.004 -2.31342,-0.0523 -3.45995,-0.2499 -1.42599,-0.0224 -2.81364,-0.37437 -4.24189,-0.3492 -2.28346,-0.49156 -4.57965,-0.91217 -6.84397,-1.4894 -1.21351,-0.18059 -1.88511,1.11612 -2.64348,1.8407 -0.62506,1.18314 -0.98206,2.77948 -0.3984,4.03504 0.94671,1.76043 2.90319,2.54471 4.4513,3.66411 2.52435,1.34598 5.07977,2.77103 7.94956,3.20242 1.50328,0.43683 3.0474,0.66725 4.59935,0.7962 2.18023,0.33496 4.40769,0.0378 6.60367,0.212 0.62008,0.69827 -0.63358,2.4063 -1.34876,2.81043 -1.99807,0.0712 -4.00869,0.0735 -6.0079,0.0107 -2.51955,-0.37078 -5.06677,-0.68852 -7.52221,-1.4182 -2.20061,-0.54266 -4.48217,-0.8253 -6.61178,-1.6161 -1.40135,-0.52779 -2.82325,-1.00036 -4.12119,-1.7646 -1.10662,-0.37872 -2.32523,-0.93666 -2.9228,-1.99116 -0.20516,-1.53818 -0.10176,-3.11595 -0.101,-4.67058 0.26573,-1.69788 0.69969,-3.35814 1.3661,-4.93868 0.4108,-1.27654 1.07633,-2.42474 1.80424,-3.54028 0.93187,-1.32286 2.12129,-2.46491 3.34671,-3.51398 0.99727,-0.77639 2.20034,-1.19928 3.3244,-1.73463 -0.20139,-1.28151 -2.5362,-0.30102 -3.38233,-1.32051 -3.55355,-3.25283 -7.80922,-7.73284 -11.72267,-10.49018"
         sodipodi:nodetypes="cccccccccccccccccccccccccccccccc" />
    </g>
  </g>
</svg>
