<?xml version="1.0" encoding="UTF-8" standalone="no"?>
<svg
   xmlns:dc="http://purl.org/dc/elements/1.1/"
   xmlns:cc="http://creativecommons.org/ns#"
   xmlns:rdf="http://www.w3.org/1999/02/22-rdf-syntax-ns#"
   xmlns:svg="http://www.w3.org/2000/svg"
   xmlns="http://www.w3.org/2000/svg"
   xmlns:sodipodi="http://sodipodi.sourceforge.net/DTD/sodipodi-0.dtd"
   xmlns:inkscape="http://www.inkscape.org/namespaces/inkscape"
   width="200"
   height="200"
   viewBox="0 0 52.916668 52.916666"
   version="1.1"
   id="svg8"
   inkscape:version="1.0.2-2 (e86c870879, 2021-01-15)"
   sodipodi:docname="trad.svg">
  <defs
     id="defs2">
    <rect
       x="-297.69405"
       y="129.24488"
       width="41.936458"
       height="10.847917"
       id="rect860" />
    <inkscape:path-effect
       effect="envelope"
       id="path-effect4658"
       is_visible="true"
       yy="true"
       xx="true"
       bendpath1="m -199.08406,108.42369 h 7.0057"
       bendpath2="m -192.07836,108.42369 v 6.75242"
       bendpath3="m -199.08406,115.17611 h 7.0057"
       bendpath4="m -199.08406,108.42369 v 6.75242" />
    <inkscape:path-effect
       effect="bend_path"
       id="path-effect4656"
       is_visible="true"
       bendpath="m -192.00142,114.60623 c 2.12577,-0.53066 4.48261,0.85111 7.0057,0"
       prop_scale="1"
       scale_y_rel="false"
       vertical="false"
       bendpath-nodetypes="cc" />
    <inkscape:path-effect
       effect="bounding_box"
       id="path-effect4654"
       is_visible="true"
       linkedpath=""
       visualbounds="false" />
  </defs>
  <sodipodi:namedview
     id="base"
     pagecolor="#ffffff"
     bordercolor="#666666"
     borderopacity="1.0"
     inkscape:pageopacity="0.0"
     inkscape:pageshadow="2"
     inkscape:zoom="2"
     inkscape:cx="105.21275"
     inkscape:cy="154.82819"
     inkscape:document-units="mm"
     inkscape:current-layer="layer1"
     showgrid="false"
     fit-margin-top="0"
     fit-margin-left="0"
     fit-margin-right="0"
     fit-margin-bottom="0"
     inkscape:window-width="1920"
     inkscape:window-height="1017"
     inkscape:window-x="-8"
     inkscape:window-y="-8"
     inkscape:window-maximized="1"
     showguides="false"
     inkscape:object-nodes="true"
     units="px"
     inkscape:snap-page="true"
     inkscape:document-rotation="0" />
  <metadata
     id="metadata5">
    <rdf:RDF>
      <cc:Work
         rdf:about="">
        <dc:format>image/svg+xml</dc:format>
        <dc:type
           rdf:resource="http://purl.org/dc/dcmitype/StillImage" />
        <dc:title></dc:title>
      </cc:Work>
    </rdf:RDF>
  </metadata>
  <g
     inkscape:label="Layer 1"
     inkscape:groupmode="layer"
     id="layer1"
     transform="translate(249.80447,-91.409467)">
    <rect
       ry="3.96875"
       rx="3.96875"
       style="fill:#222222;fill-opacity:1;fill-rule:nonzero;stroke:none;stroke-width:0.5;stroke-linecap:butt;stroke-linejoin:round;stroke-miterlimit:4;stroke-dasharray:none;stroke-dashoffset:0;stroke-opacity:0.909449;paint-order:normal"
       id="rect5322"
       width="52.916668"
       height="52.916668"
       x="-249.80447"
       y="91.40947" />
    <rect
       ry="2.6458333"
       rx="2.6458333"
       y="94.055298"
       x="-247.15863"
       height="47.625"
       width="47.625"
       id="rect5324"
       style="fill:#6c9569;fill-opacity:1;fill-rule:nonzero;stroke:none;stroke-width:0.5;stroke-linecap:butt;stroke-linejoin:round;stroke-miterlimit:4;stroke-dasharray:none;stroke-dashoffset:0;stroke-opacity:0.909449;paint-order:normal" />
    <path
       inkscape:connector-curvature="0"
       id="path5326"
       d="m -248.34926,128.45114 v 8.33437 c 0,3.07817 2.47809,5.55625 5.55625,5.55625 h 38.89375 c 3.07816,0 5.55625,-2.47808 5.55625,-5.55625 v -8.33437 z"
       style="fill:#222222;fill-opacity:1;fill-rule:nonzero;stroke:none;stroke-width:0.5;stroke-linecap:butt;stroke-linejoin:round;stroke-miterlimit:4;stroke-dasharray:none;stroke-dashoffset:0;stroke-opacity:0.909449;paint-order:normal" />
    <text
       xml:space="preserve"
       id="text858"
       style="fill:black;fill-opacity:1;line-height:1.25;stroke:none;font-family:sans-serif;font-style:normal;font-weight:normal;font-size:10.58333333px;white-space:pre;shape-inside:url(#rect860);" />
    <g
       aria-label="TRADITIONALIST"
       id="text866"
       style="font-style:normal;font-weight:normal;font-size:5.29167px;line-height:1.25;font-family:sans-serif;fill:#eeeeee;fill-opacity:1;stroke:none;stroke-width:0.264583">
      <path
         d="m -245.46263,134.24287 h -1.18533 v -0.6985 h 3.22792 v 0.6985 h -1.18534 v 3.00567 h -0.85725 z"
         style="font-style:normal;font-variant:normal;font-weight:bold;font-stretch:normal;font-size:5.29167px;font-family:Montserrat;-inkscape-font-specification:'Montserrat Bold';fill:#eeeeee;fill-opacity:1;stroke-width:0.264583"
         id="path868" />
      <path
         d="m -240.59959,137.24854 -0.71438,-1.03188 h -0.0423 -0.74613 v 1.03188 h -0.85725 v -3.70417 h 1.60338 q 0.49212,0 0.85196,0.16404 0.36512,0.16404 0.56091,0.46566 0.1958,0.30163 0.1958,0.71438 0,0.41275 -0.20109,0.71438 -0.19579,0.29633 -0.56091,0.45508 l 0.83079,1.19063 z m -0.0159,-2.36009 q 0,-0.31221 -0.20108,-0.47625 -0.20109,-0.16933 -0.58738,-0.16933 h -0.6985 v 1.29116 h 0.6985 q 0.38629,0 0.58738,-0.16933 0.20108,-0.16933 0.20108,-0.47625 z"
         style="font-style:normal;font-variant:normal;font-weight:bold;font-stretch:normal;font-size:5.29167px;font-family:Montserrat;-inkscape-font-specification:'Montserrat Bold';fill:#eeeeee;fill-opacity:1;stroke-width:0.264583"
         id="path870" />
      <path
         d="m -236.63085,136.45478 h -1.71979 l -0.32808,0.79376 h -0.87842 l 1.651,-3.70417 h 0.84667 l 1.65629,3.70417 h -0.89958 z m -0.26987,-0.65087 -0.58738,-1.41817 -0.58737,1.41817 z"
         style="font-style:normal;font-variant:normal;font-weight:bold;font-stretch:normal;font-size:5.29167px;font-family:Montserrat;-inkscape-font-specification:'Montserrat Bold';fill:#eeeeee;fill-opacity:1;stroke-width:0.264583"
         id="path872" />
      <path
         d="m -235.01689,133.54437 h 1.68275 q 0.60325,0 1.06362,0.23283 0.46567,0.22754 0.71967,0.64558 0.25929,0.41805 0.25929,0.97367 0,0.55563 -0.25929,0.97367 -0.254,0.41804 -0.71967,0.65087 -0.46037,0.22755 -1.06362,0.22755 h -1.68275 z m 1.64041,3.00037 q 0.55563,0 0.88371,-0.30691 0.33338,-0.31221 0.33338,-0.84138 0,-0.52917 -0.33338,-0.83608 -0.32808,-0.31221 -0.88371,-0.31221 h -0.78316 v 2.29658 z"
         style="font-style:normal;font-variant:normal;font-weight:bold;font-stretch:normal;font-size:5.29167px;font-family:Montserrat;-inkscape-font-specification:'Montserrat Bold';fill:#eeeeee;fill-opacity:1;stroke-width:0.264583"
         id="path874" />
      <path
         d="m -230.64598,133.54437 h 0.85725 v 3.70417 h -0.85725 z"
         style="font-style:normal;font-variant:normal;font-weight:bold;font-stretch:normal;font-size:5.29167px;font-family:Montserrat;-inkscape-font-specification:'Montserrat Bold';fill:#eeeeee;fill-opacity:1;stroke-width:0.264583"
         id="path876" />
      <path
         d="m -228.14303,134.24287 h -1.18533 v -0.6985 h 3.22792 v 0.6985 h -1.18534 v 3.00567 h -0.85725 z"
         style="font-style:normal;font-variant:normal;font-weight:bold;font-stretch:normal;font-size:5.29167px;font-family:Montserrat;-inkscape-font-specification:'Montserrat Bold';fill:#eeeeee;fill-opacity:1;stroke-width:0.264583"
         id="path878" />
      <path
         d="m -225.64008,133.54437 h 0.85725 v 3.70417 h -0.85725 z"
         style="font-style:normal;font-variant:normal;font-weight:bold;font-stretch:normal;font-size:5.29167px;font-family:Montserrat;-inkscape-font-specification:'Montserrat Bold';fill:#eeeeee;fill-opacity:1;stroke-width:0.264583"
         id="path880" />
      <path
         d="m -222.11054,137.31204 q -0.57679,0 -1.04246,-0.24871 -0.46037,-0.24871 -0.72496,-0.68263 -0.25929,-0.43921 -0.25929,-0.98425 0,-0.54504 0.25929,-0.97896 0.26459,-0.43921 0.72496,-0.68792 0.46567,-0.2487 1.04246,-0.2487 0.57679,0 1.03717,0.2487 0.46037,0.24871 0.72496,0.68792 0.26458,0.43392 0.26458,0.97896 0,0.54504 -0.26458,0.98425 -0.26459,0.43392 -0.72496,0.68263 -0.46038,0.24871 -1.03717,0.24871 z m 0,-0.73026 q 0.32808,0 0.59267,-0.14816 0.26458,-0.15346 0.41275,-0.42334 0.15346,-0.26987 0.15346,-0.61383 0,-0.34396 -0.15346,-0.61383 -0.14817,-0.26988 -0.41275,-0.41804 -0.26459,-0.15346 -0.59267,-0.15346 -0.32808,0 -0.59267,0.15346 -0.26458,0.14816 -0.41804,0.41804 -0.14817,0.26987 -0.14817,0.61383 0,0.34396 0.14817,0.61383 0.15346,0.26988 0.41804,0.42334 0.26459,0.14816 0.59267,0.14816 z"
         style="font-style:normal;font-variant:normal;font-weight:bold;font-stretch:normal;font-size:5.29167px;font-family:Montserrat;-inkscape-font-specification:'Montserrat Bold';fill:#eeeeee;fill-opacity:1;stroke-width:0.264583"
         id="path882" />
      <path
         d="m -216.041,133.54437 v 3.70417 h -0.70379 l -1.84679,-2.24896 v 2.24896 h -0.84667 v -3.70417 h 0.70909 l 1.8415,2.24896 v -2.24896 z"
         style="font-style:normal;font-variant:normal;font-weight:bold;font-stretch:normal;font-size:5.29167px;font-family:Montserrat;-inkscape-font-specification:'Montserrat Bold';fill:#eeeeee;fill-opacity:1;stroke-width:0.264583"
         id="path884" />
      <path
         d="m -212.72313,136.45478 h -1.71979 l -0.32808,0.79376 h -0.87842 l 1.651,-3.70417 h 0.84667 l 1.65629,3.70417 h -0.89958 z m -0.26987,-0.65087 -0.58738,-1.41817 -0.58737,1.41817 z"
         style="font-style:normal;font-variant:normal;font-weight:bold;font-stretch:normal;font-size:5.29167px;font-family:Montserrat;-inkscape-font-specification:'Montserrat Bold';fill:#eeeeee;fill-opacity:1;stroke-width:0.264583"
         id="path886" />
      <path
         d="m -211.10917,133.54437 h 0.85725 v 3.00566 h 1.85737 v 0.69851 h -2.71462 z"
         style="font-style:normal;font-variant:normal;font-weight:bold;font-stretch:normal;font-size:5.29167px;font-family:Montserrat;-inkscape-font-specification:'Montserrat Bold';fill:#eeeeee;fill-opacity:1;stroke-width:0.264583"
         id="path888" />
      <path
         d="m -207.91301,133.54437 h 0.85725 v 3.70417 h -0.85725 z"
         style="font-style:normal;font-variant:normal;font-weight:bold;font-stretch:normal;font-size:5.29167px;font-family:Montserrat;-inkscape-font-specification:'Montserrat Bold';fill:#eeeeee;fill-opacity:1;stroke-width:0.264583"
         id="path890" />
      <path
         d="m -204.96027,137.31204 q -0.4392,0 -0.85195,-0.11642 -0.40746,-0.12171 -0.65617,-0.31221 l 0.29104,-0.64558 q 0.23813,0.17462 0.56621,0.28045 0.32808,0.10584 0.65617,0.10584 0.36512,0 0.53975,-0.10584 0.17462,-0.11112 0.17462,-0.29104 0,-0.13229 -0.10583,-0.21696 -0.10054,-0.0899 -0.26459,-0.14287 -0.15875,-0.0529 -0.43391,-0.11642 -0.42334,-0.10054 -0.69321,-0.20108 -0.26988,-0.10054 -0.46567,-0.32279 -0.1905,-0.22225 -0.1905,-0.59267 0,-0.32279 0.17463,-0.58208 0.17462,-0.26459 0.52387,-0.41805 0.35454,-0.15345 0.86254,-0.15345 0.35455,0 0.69321,0.0847 0.33867,0.0847 0.59267,0.24342 l -0.26458,0.65088 q -0.5133,-0.29105 -1.02659,-0.29105 -0.35983,0 -0.53446,0.11642 -0.16933,0.11642 -0.16933,0.30692 0,0.1905 0.19579,0.28575 0.20109,0.09 0.60854,0.17991 0.42334,0.10055 0.69321,0.20109 0.26988,0.10054 0.46038,0.3175 0.19579,0.21696 0.19579,0.58737 0,0.3175 -0.17992,0.58209 -0.17462,0.25929 -0.52916,0.41275 -0.35455,0.15346 -0.86255,0.15346 z"
         style="font-style:normal;font-variant:normal;font-weight:bold;font-stretch:normal;font-size:5.29167px;font-family:Montserrat;-inkscape-font-specification:'Montserrat Bold';fill:#eeeeee;fill-opacity:1;stroke-width:0.264583"
         id="path892" />
      <path
         d="m -202.0869,134.24287 h -1.18533 v -0.6985 h 3.22792 v 0.6985 h -1.18534 v 3.00567 h -0.85725 z"
         style="font-style:normal;font-variant:normal;font-weight:bold;font-stretch:normal;font-size:5.29167px;font-family:Montserrat;-inkscape-font-specification:'Montserrat Bold';fill:#eeeeee;fill-opacity:1;stroke-width:0.264583"
         id="path894" />
    </g>
    <path
       sodipodi:nodetypes="sssszssssscssscsscsssscssscsssssssssssssssssssscsssssssssscsssscssssssssssscsssssssssscsssscssssssssss"
       id="path895"
       d="m -228.92573,127.75818 c -0.81794,-0.43135 -1.48839,-0.9299 -2.16908,-1.61293 -1.21758,-1.22174 -1.94902,-2.59021 -2.3265,-4.35267 -0.1139,-0.53178 -0.12576,-0.98784 -0.12576,-4.83543 0,-4.02745 -0.0369,-4.44807 0.14527,-5.9628 0.18214,-1.51474 0.34765,-2.05463 0.47425,-2.18124 0.0912,-0.0912 0.12353,-0.0837 0.28352,0.0658 0.0993,0.0928 0.43226,0.52628 0.73985,0.9632 0.67544,0.95939 1.21084,1.53672 1.59965,1.72494 0.56718,0.27457 0.52202,0.54701 0.52358,-3.1583 6.7e-4,-1.81416 0.0295,-3.49248 0.0637,-3.72961 0.24971,-1.72652 1.97507,-2.79298 3.54432,-2.19081 0.10889,0.0418 0.12095,-0.0103 0.12299,-0.53095 0.007,-1.70942 0.46697,-2.638706 1.57782,-3.185576 0.41685,-0.20521 0.5097,-0.22383 1.1125,-0.22318 0.5671,6.4e-4 0.71209,0.0261 1.05268,0.18513 0.5455,0.25469 1.06708,0.75925 1.30746,1.26479 0.10839,0.227946 0.19709,0.451476 0.19713,0.496726 6e-5,0.15161 0.13008,0.16498 0.48264,0.0497 0.51538,-0.16857 1.3663,-0.10943 1.86605,0.12971 0.51864,0.24818 1.01063,0.7487 1.27058,1.29261 0.20344,0.42568 0.21581,0.49968 0.23814,1.42417 l 0.0235,0.97516 0.42546,-0.13508 c 0.57939,-0.18396 1.21461,-0.13388 1.80475,0.14227 0.61321,0.28696 0.95948,0.62742 1.26328,1.24207 l 0.25869,0.52337 0.0196,7.29131 c 0.0214,7.92656 0.0233,7.87733 -0.36579,9.22548 -0.61192,2.1203 -2.22569,4.04299 -4.28203,5.10175 l -0.48355,0.24896 c -3.71715,1.91386 -8.54373,0.85947 -10.16812,0.003 z m 6.61372,-0.30489 c 1.35158,-0.13742 2.64643,-0.49218 3.66223,-1.00335 1.72333,-0.8672 3.02531,-2.3109 3.57855,-3.96807 0.3851,-1.15347 0.3706,-0.83993 0.3975,-8.59867 0.0224,-6.47915 0.014,-7.21268 -0.0864,-7.47568 -0.20754,-0.54357 -0.77062,-0.84603 -1.30641,-0.70176 -0.33794,0.091 -0.69808,0.4558 -0.7952,0.8055 -0.0445,0.16037 -0.0715,1.51095 -0.0718,3.59338 -2.4e-4,2.84023 -0.0159,3.36643 -0.10472,3.53817 -0.1344,0.25991 -0.29921,0.34438 -0.66824,0.34247 -0.31537,-0.002 -0.53693,-0.13097 -0.66997,-0.39111 -0.0548,-0.10724 -0.0772,-1.6748 -0.0772,-5.41806 0,-5.20644 -0.002,-5.27062 -0.14479,-5.56627 -0.3635,-0.75089 -1.32756,-0.85035 -1.83209,-0.18901 l -0.19907,0.26095 -0.0345,5.39348 c -0.0366,5.71028 -0.0279,5.57088 -0.36129,5.8044 -0.19993,0.14003 -0.6705,0.13707 -0.87404,-0.005 -0.36137,-0.25312 -0.35346,-0.1018 -0.35346,-6.7629 0,-4.43234 -0.022,-6.23204 -0.0774,-6.34009 -0.26803,-0.52274 -0.80856,-0.802426 -1.29674,-0.67098 -0.33418,0.09 -0.74591,0.5273 -0.79471,0.84409 -0.0194,0.12575 -0.0547,2.7296 -0.0784,5.78636 -0.0417,5.35951 -0.048,5.56447 -0.17772,5.74663 -0.2269,0.31865 -0.82372,0.39472 -1.15525,0.14724 l -0.18452,-0.13773 -0.0345,-3.93 c -0.0343,-3.89651 -0.0358,-3.93206 -0.18604,-4.17177 -0.25432,-0.40585 -0.70117,-0.59806 -1.12505,-0.48391 -0.27972,0.0753 -0.64704,0.42124 -0.757,0.71291 -0.0485,0.12859 -0.0734,1.49759 -0.0737,4.04104 -2e-4,2.31131 -0.0275,3.9443 -0.0684,4.09142 -0.0854,0.30737 -0.43651,0.64517 -0.78693,0.75709 -0.62468,0.19951 -1.35963,-0.0658 -2.25341,-0.81344 -0.56072,-0.46904 -0.58944,-0.48398 -0.65277,-0.33956 -0.0994,0.22669 -0.13522,7.66491 -0.0408,8.47493 0.20807,1.78504 0.8366,3.10657 2.02675,4.26143 0.9009,0.87417 1.74936,1.3837 3.05913,1.83711 1.45369,0.50321 3.04878,0.6868 4.59835,0.52924 z m -2.4622,-1.83791 c -1.47219,-0.31469 -3.12808,-1.23817 -4.58466,-2.55683 -0.59824,-0.5416 -0.76825,-0.7937 -0.7686,-1.13978 -2.4e-4,-0.28375 0.12489,-0.45894 0.76235,-1.06698 1.78951,-1.7069 4.02733,-2.72032 6.007,-2.72032 1.95738,0 4.14638,0.98388 5.96948,2.68304 0.6873,0.64058 0.80012,0.80625 0.80012,1.17499 0,0.29473 -0.0249,0.33276 -0.56988,0.86855 -1.41668,1.39288 -3.24049,2.43548 -4.83253,2.76257 -0.67518,0.13872 -2.12259,0.136 -2.78328,-0.005 z m 2.55587,-1.53897 c 1.11896,-0.26915 2.17951,-0.82924 3.33503,-1.76126 l 0.43377,-0.34987 -0.33015,-0.30501 c -0.18159,-0.16776 -0.63168,-0.50322 -1.00021,-0.74548 -2.09021,-1.37405 -3.87985,-1.59488 -5.85643,-0.72265 -0.68607,0.30276 -1.77907,1.00333 -2.30049,1.47454 l -0.33042,0.2986 0.43404,0.35238 c 1.95421,1.58654 3.85523,2.18201 5.61486,1.75875 z m -2.00588,-0.30583 c -0.42539,-0.19808 -0.88144,-0.69951 -1.02834,-1.13066 -0.33259,-0.97609 0.048,-1.9804 0.93711,-2.47286 0.32897,-0.18221 0.43553,-0.20503 0.95733,-0.20503 0.5218,0 0.62836,0.0228 0.95733,0.20503 0.74805,0.41433 1.08814,1.05042 1.03082,1.92802 -0.0509,0.77865 -0.46253,1.38075 -1.15922,1.69546 -0.45408,0.20512 -1.23134,0.19597 -1.69503,-0.0199 z"
       style="fill:#222222;fill-opacity:1;stroke-width:0.282223" />
  </g>
</svg>
