<?xml version="1.0" encoding="UTF-8" standalone="no"?>
<svg
   xmlns:dc="http://purl.org/dc/elements/1.1/"
   xmlns:cc="http://creativecommons.org/ns#"
   xmlns:rdf="http://www.w3.org/1999/02/22-rdf-syntax-ns#"
   xmlns:svg="http://www.w3.org/2000/svg"
   xmlns="http://www.w3.org/2000/svg"
   xmlns:sodipodi="http://sodipodi.sourceforge.net/DTD/sodipodi-0.dtd"
   xmlns:inkscape="http://www.inkscape.org/namespaces/inkscape"
   width="200"
   height="200"
   viewBox="0 0 52.916668 52.916666"
   version="1.1"
   id="svg8"
   inkscape:version="1.0.2-2 (e86c870879, 2021-01-15)"
   sodipodi:docname="boring.svg">
  <defs
     id="defs2">
    <rect
       x="-263.92966"
       y="127.89176"
       width="72.093255"
       height="28.718111"
       id="rect878" />
    <rect
       x="-247.37232"
       y="130.511"
       width="75.490278"
       height="17.399246"
       id="rect876" />
    <inkscape:path-effect
       effect="envelope"
       id="path-effect4658"
       is_visible="true"
       yy="true"
       xx="true"
       bendpath1="m -199.08406,108.42369 h 7.0057"
       bendpath2="m -192.07836,108.42369 v 6.75242"
       bendpath3="m -199.08406,115.17611 h 7.0057"
       bendpath4="m -199.08406,108.42369 v 6.75242" />
    <inkscape:path-effect
       effect="bend_path"
       id="path-effect4656"
       is_visible="true"
       bendpath="m -192.00142,114.60623 c 2.12577,-0.53066 4.48261,0.85111 7.0057,0"
       prop_scale="1"
       scale_y_rel="false"
       vertical="false"
       bendpath-nodetypes="cc" />
    <inkscape:path-effect
       effect="bounding_box"
       id="path-effect4654"
       is_visible="true"
       linkedpath=""
       visualbounds="false" />
  </defs>
  <sodipodi:namedview
     id="base"
     pagecolor="#ffffff"
     bordercolor="#666666"
     borderopacity="1.0"
     inkscape:pageopacity="0.0"
     inkscape:pageshadow="2"
     inkscape:zoom="2.8284271"
     inkscape:cx="144.56379"
     inkscape:cy="93.401422"
     inkscape:document-units="mm"
     inkscape:current-layer="layer1"
     showgrid="false"
     fit-margin-top="0"
     fit-margin-left="0"
     fit-margin-right="0"
     fit-margin-bottom="0"
     inkscape:window-width="1920"
     inkscape:window-height="1017"
     inkscape:window-x="-8"
     inkscape:window-y="-8"
     inkscape:window-maximized="1"
     showguides="false"
     inkscape:object-nodes="true"
     units="px"
     inkscape:snap-page="true"
     inkscape:document-rotation="0" />
  <metadata
     id="metadata5">
    <rdf:RDF>
      <cc:Work
         rdf:about="">
        <dc:format>image/svg+xml</dc:format>
        <dc:type
           rdf:resource="http://purl.org/dc/dcmitype/StillImage" />
        <dc:title />
      </cc:Work>
    </rdf:RDF>
  </metadata>
  <g
     inkscape:label="Layer 1"
     inkscape:groupmode="layer"
     id="layer1"
     transform="translate(249.80447,-91.409467)">
    <rect
       y="91.40947"
       x="-249.80447"
       height="52.916668"
       width="52.916668"
       id="rect5238-5"
       style="fill:#222222;fill-opacity:1;fill-rule:nonzero;stroke:none;stroke-width:0.5;stroke-linecap:butt;stroke-linejoin:round;stroke-miterlimit:4;stroke-dasharray:none;stroke-dashoffset:0;stroke-opacity:0.909449;paint-order:normal"
       rx="3.96875"
       ry="3.96875" />
    <rect
       style="fill:#f5dd00;fill-opacity:1;fill-rule:nonzero;stroke:none;stroke-width:0.5;stroke-linecap:butt;stroke-linejoin:round;stroke-miterlimit:4;stroke-dasharray:none;stroke-dashoffset:0;stroke-opacity:0.909449;paint-order:normal"
       id="rect5240-3"
       width="47.625"
       height="47.625"
       x="-247.15863"
       y="94.055298"
       rx="2.6458333"
       ry="2.6458333" />
    <path
       inkscape:connector-curvature="0"
       id="path5244-6"
       d="m -248.34926,128.45114 v 8.33437 c 0,3.07816 2.47808,5.55625 5.55625,5.55625 h 38.89375 c 3.07816,0 5.55625,-2.47809 5.55625,-5.55625 v -8.33437 z"
       style="fill:#222222;fill-opacity:1;fill-rule:nonzero;stroke:none;stroke-width:0.5;stroke-linecap:butt;stroke-linejoin:round;stroke-miterlimit:4;stroke-dasharray:none;stroke-dashoffset:0;stroke-opacity:0.909449;paint-order:normal" />
    <g
       id="g73484"
       transform="matrix(0.70637032,0,0,0.70637032,-331.3408,69.479266)"
       style="stroke-width:1.41569;fill:#222222;fill-opacity:1">
      <path
         id="path73473"
         style="fill:#222222;fill-opacity:1;stroke-width:1.41569"
         d="m 152.56988,69.685582 c 1.43066,-0.424603 2.86981,0.435678 4.30195,0.57173 1.11508,0.508743 3.47487,-0.147996 3.573,1.482165 -0.0127,1.259087 0.23669,2.653605 -0.4499,3.781055 -2.06611,-0.262403 -4.13166,-0.707133 -6.19373,-1.06594 -1.77528,-0.311553 -3.61375,-0.3522 -5.34884,-0.83685 0.97943,-1.498002 2.67253,-2.342872 3.82233,-3.713006 l 0.12833,-0.10572 0.1666,-0.113461" />
      <path
         id="path73471"
         style="fill:#222222;fill-opacity:1;stroke-width:1.41569"
         d="m 148.32386,68.860013 c 0.72631,-0.123081 3.50045,-0.0095 2.215,1.178045 -1.47044,0.951511 -2.42614,2.554566 -4.02238,3.319702 -0.86413,-0.0082 -3.59377,-0.188251 -1.79462,-1.198973 1.20772,-1.083382 2.18937,-2.472396 3.60221,-3.298776" />
      <path
         id="path73469"
         style="fill:#222222;fill-opacity:1;stroke-width:1.41569"
         d="m 135.50654,67.377923 c 1.35121,-0.692431 2.98656,0.215045 4.45805,0.01521 1.57149,0.03219 3.14219,0.276251 4.66733,0.63525 0.87499,0.873191 -1.37865,1.45454 -1.75244,2.258967 -1.10467,0.484039 -1.68397,1.800286 -2.63559,2.308011 -1.73517,-0.467757 -3.59812,-0.333922 -5.30218,-0.86453 -0.0697,-1.3761 -0.042,-3.073267 0.56483,-4.352879" />
      <path
         id="path73467"
         style="fill:#222222;fill-opacity:1;stroke-width:1.41569"
         d="m 152.02522,39.292602 c 1.77809,-0.46627 3.66125,-0.114636 5.4261,0.238943 1.8733,0.579787 3.73043,1.185831 5.5055,2.028528 2.51377,1.164685 5.16486,2.143583 7.36729,3.870312 0.33742,1.343387 -0.41724,2.704262 -0.652,4.030392 -0.86485,2.884371 -2.38873,5.512318 -3.24261,8.397347 -0.22421,1.221715 -0.98311,2.660012 -0.61636,3.814509 1.03543,0.72767 2.40085,0.991602 3.25309,1.960122 0.26198,1.277089 -0.12026,3.043709 -0.76187,3.949837 -1.92198,-0.587743 -0.63115,1.690258 -0.42442,2.597504 0.56746,2.015753 0.89451,4.095684 0.7916,6.194367 0.0378,1.95523 -0.3489,3.914556 -0.9215,5.771726 -0.78251,1.473763 -1.73188,3.150714 -3.42656,3.664722 -3.34822,0.210473 -6.71475,0.05538 -10.07102,0.10302 -1.86463,-0.01901 -3.74052,0.102099 -5.57797,-0.24672 -2.53941,0.03822 -4.91918,-1.018255 -7.4164,-1.26918 -2.23183,-0.308937 -4.37708,-1.666505 -5.15567,-3.853865 -0.92686,-1.927611 -0.81157,-4.10191 -0.7214,-6.181426 0.1527,-1.789599 2.35691,-1.041115 3.53305,-0.916877 2.64225,0.416959 5.29276,0.67678 7.93191,1.08164 2.09176,0.317135 4.1853,0.716705 6.29791,0.90268 2.29372,0.419327 4.59072,0.867121 6.89504,1.2089 1.79433,0.34806 1.33631,-2.156285 1.4909,-3.263628 -0.0782,-1.09038 0.19423,-2.264275 -0.22532,-3.282641 -1.56629,-0.604789 -3.30085,-0.67033 -4.93614,-1.06213 -3.8553,-0.921665 -7.81716,-1.219524 -11.67687,-2.13479 -1.90367,-0.344342 -3.82407,-0.632596 -5.76763,-0.56937 -1.94388,0.183375 -1.47097,-1.881303 -0.74246,-2.917447 1.00332,-1.648104 2.31795,-3.099394 3.86794,-4.245716 0.66278,-0.991681 -1.907,-1.019607 -1.83507,-2.17394 0.66814,-0.929366 1.00505,-2.387082 2.18008,-2.765317 1.19168,-0.242299 2.70584,1.242614 3.6717,0.245133 0.53759,-1.543365 0.77591,-3.179253 1.3572,-4.716564 0.631,-2.354299 1.54737,-4.615322 2.42919,-6.88176 0.67531,-1.229764 0.85664,-2.799299 2.17526,-3.578222" />
    </g>
    <g
       aria-label="BORING"
       transform="translate(17.935312,1.964431)"
       id="text876"
       style="font-style:normal;font-weight:normal;font-size:10.5833px;line-height:1.25;font-family:sans-serif;white-space:pre;shape-inside:url(#rect878);fill:#f5dd00;fill-opacity:1;stroke:none">
      <path
         d="m -257.61146,133.7673 q 0.635,0.20108 0.99483,0.67733 0.35983,0.46567 0.35983,1.15358 0,0.97366 -0.76199,1.50283 -0.75142,0.51858 -2.20133,0.51858 h -3.83115 v -7.40831 h 3.61948 q 1.35467,0 2.07433,0.51858 0.73025,0.51858 0.73025,1.40758 0,0.53975 -0.26458,0.96308 -0.254,0.42333 -0.71967,0.66675 z m -3.7359,-2.26483 v 1.74625 h 1.70391 q 0.635,0 0.96308,-0.22225 0.32808,-0.22225 0.32808,-0.65617 0,-0.43391 -0.32808,-0.64558 -0.32808,-0.22225 -0.96308,-0.22225 z m 2.00024,4.82599 q 0.67733,0 1.016,-0.22225 0.34925,-0.22225 0.34925,-0.68792 0,-0.92074 -1.36525,-0.92074 h -2.00024 v 1.83091 z"
         style="font-style:normal;font-variant:normal;font-weight:bold;font-stretch:normal;font-family:Montserrat;-inkscape-font-specification:'Montserrat Bold';fill:#f5dd00;fill-opacity:1"
         id="path848" />
      <path
         d="m -251.36732,137.74662 q -1.15358,0 -2.08491,-0.49742 -0.92074,-0.49741 -1.44991,-1.36524 -0.51858,-0.87841 -0.51858,-1.96849 0,-1.09008 0.51858,-1.95792 0.52917,-0.87841 1.44991,-1.37582 0.93133,-0.49742 2.08491,-0.49742 1.15358,0 2.07433,0.49742 0.92075,0.49741 1.44991,1.37582 0.52917,0.86784 0.52917,1.95792 0,1.09008 -0.52917,1.96849 -0.52916,0.86783 -1.44991,1.36524 -0.92075,0.49742 -2.07433,0.49742 z m 0,-1.4605 q 0.65617,0 1.18533,-0.29633 0.52917,-0.30691 0.8255,-0.84666 0.30692,-0.53975 0.30692,-1.22766 0,-0.68792 -0.30692,-1.22767 -0.29633,-0.53975 -0.8255,-0.83608 -0.52916,-0.30691 -1.18533,-0.30691 -0.65616,0 -1.18533,0.30691 -0.52916,0.29633 -0.83608,0.83608 -0.29633,0.53975 -0.29633,1.22767 0,0.68791 0.29633,1.22766 0.30692,0.53975 0.83608,0.84666 0.52917,0.29633 1.18533,0.29633 z"
         style="font-style:normal;font-variant:normal;font-weight:bold;font-stretch:normal;font-family:Montserrat;-inkscape-font-specification:'Montserrat Bold';fill:#f5dd00;fill-opacity:1"
         id="path850" />
      <path
         d="m -241.3026,137.61962 -1.42874,-2.06374 h -0.0847 -1.49225 v 2.06374 h -1.71449 v -7.40831 h 3.20674 q 0.98425,0 1.70391,0.32808 0.73025,0.32809 1.12183,0.93133 0.39158,0.60325 0.39158,1.42875 0,0.8255 -0.40216,1.42874 -0.39159,0.59267 -1.12183,0.91017 l 1.66157,2.38124 z m -0.0317,-4.72015 q 0,-0.62442 -0.40216,-0.9525 -0.40217,-0.33866 -1.17475,-0.33866 h -1.397 v 2.58232 h 1.397 q 0.77258,0 1.17475,-0.33866 0.40216,-0.33867 0.40216,-0.9525 z"
         style="font-style:normal;font-variant:normal;font-weight:bold;font-stretch:normal;font-family:Montserrat;-inkscape-font-specification:'Montserrat Bold';fill:#f5dd00;fill-opacity:1"
         id="path852" />
      <path
         d="m -238.24404,130.21131 h 1.71449 v 7.40831 h -1.71449 z"
         style="font-style:normal;font-variant:normal;font-weight:bold;font-stretch:normal;font-family:Montserrat;-inkscape-font-specification:'Montserrat Bold';fill:#f5dd00;fill-opacity:1"
         id="path854" />
      <path
         d="m -227.97825,130.21131 v 7.40831 h -1.40758 l -3.69357,-4.4979 v 4.4979 h -1.69333 v -7.40831 h 1.41816 l 3.68299,4.4979 v -4.4979 z"
         style="font-style:normal;font-variant:normal;font-weight:bold;font-stretch:normal;font-family:Montserrat;-inkscape-font-specification:'Montserrat Bold';fill:#f5dd00;fill-opacity:1"
         id="path856" />
      <path
         d="m -221.21554,133.79905 h 1.56633 v 3.00566 q -0.60324,0.45508 -1.39699,0.69849 -0.79375,0.24342 -1.59808,0.24342 -1.15358,0 -2.07433,-0.48683 -0.92074,-0.49742 -1.44991,-1.36525 -0.51858,-0.87841 -0.51858,-1.97907 0,-1.10067 0.51858,-1.9685 0.52917,-0.87841 1.4605,-1.36524 0.93133,-0.49742 2.09549,-0.49742 0.97366,0 1.76741,0.32808 0.79375,0.32809 1.3335,0.9525 l -1.10067,1.016 q -0.79374,-0.83608 -1.91557,-0.83608 -0.70909,0 -1.25942,0.29633 -0.55033,0.29633 -0.85724,0.83608 -0.30692,0.53975 -0.30692,1.23825 0,0.68791 0.30692,1.22766 0.30691,0.53975 0.84666,0.84666 0.55033,0.29633 1.24883,0.29633 0.74083,0 1.33349,-0.31749 z"
         style="font-style:normal;font-variant:normal;font-weight:bold;font-stretch:normal;font-family:Montserrat;-inkscape-font-specification:'Montserrat Bold';fill:#f5dd00;fill-opacity:1"
         id="path858" />
    </g>
  </g>
</svg>
