<?xml version="1.0" encoding="UTF-8" standalone="no"?>
<svg
   xmlns:osb="http://www.openswatchbook.org/uri/2009/osb"
   xmlns:dc="http://purl.org/dc/elements/1.1/"
   xmlns:cc="http://creativecommons.org/ns#"
   xmlns:rdf="http://www.w3.org/1999/02/22-rdf-syntax-ns#"
   xmlns:svg="http://www.w3.org/2000/svg"
   xmlns="http://www.w3.org/2000/svg"
   xmlns:sodipodi="http://sodipodi.sourceforge.net/DTD/sodipodi-0.dtd"
   xmlns:inkscape="http://www.inkscape.org/namespaces/inkscape"
   width="200"
   height="200"
   viewBox="0 0 52.916668 52.916666"
   version="1.1"
   id="svg8"
   inkscape:version="1.0.2-2 (e86c870879, 2021-01-15)"
   sodipodi:docname="casual.svg">
  <defs
     id="defs2">
    <rect
       x="-28.811655"
       y="30.682542"
       width="57.436221"
       height="17.492791"
       id="rect880" />
    <rect
       x="-74.612501"
       y="-26.9875"
       width="74.612501"
       height="34.925"
       id="rect973" />
    <rect
       x="-255.23004"
       y="125.83378"
       width="102.52459"
       height="46.959256"
       id="rect873" />
    <inkscape:path-effect
       effect="envelope"
       id="path-effect4658"
       is_visible="true"
       yy="true"
       xx="true"
       bendpath1="m -199.08406,108.42369 h 7.0057"
       bendpath2="m -192.07836,108.42369 v 6.75242"
       bendpath3="m -199.08406,115.17611 h 7.0057"
       bendpath4="m -199.08406,108.42369 v 6.75242" />
    <inkscape:path-effect
       effect="bend_path"
       id="path-effect4656"
       is_visible="true"
       bendpath="m -192.00142,114.60623 c 2.12577,-0.53066 4.48261,0.85111 7.0057,0"
       prop_scale="1"
       scale_y_rel="false"
       vertical="false"
       bendpath-nodetypes="cc" />
    <inkscape:path-effect
       effect="bounding_box"
       id="path-effect4654"
       is_visible="true"
       linkedpath=""
       visualbounds="false" />
    <linearGradient
       id="linearGradient3288"
       osb:paint="solid">
      <stop
         style="stop-color:#000000;stop-opacity:1;"
         offset="0"
         id="stop3286" />
    </linearGradient>
    <linearGradient
       id="linearGradient1364"
       osb:paint="solid">
      <stop
         style="stop-color:#ffffff;stop-opacity:1;"
         offset="0"
         id="stop1362" />
    </linearGradient>
    <rect
       x="293.80286"
       y="272.58966"
       width="25.455845"
       height="37.830212"
       id="rect1056" />
    <rect
       x="222.73865"
       y="266.22571"
       width="47.376156"
       height="54.09367"
       id="rect1050" />
    <rect
       x="139.30003"
       y="246.42671"
       width="58.336308"
       height="48.790367"
       id="rect1044" />
    <rect
       x="131.1683"
       y="203.64674"
       width="61.871841"
       height="73.892654"
       id="rect1038" />
    <rect
       x="81.67083"
       y="193.04015"
       width="63.63961"
       height="55.507881"
       id="rect1032" />
    <rect
       x="83.085045"
       y="274.35742"
       width="44.194176"
       height="38.890873"
       id="rect1026" />
    <rect
       x="3.5355339"
       y="269.05414"
       width="65.760933"
       height="53.386562"
       id="rect1020" />
    <rect
       x="14.142136"
       y="226.27417"
       width="79.195961"
       height="62.932503"
       id="rect1014" />
    <rect
       x="11.313708"
       y="171.82695"
       width="36.416"
       height="51.618793"
       id="rect1008" />
    <rect
       x="3.1819806"
       y="132.22897"
       width="102.88404"
       height="102.53048"
       id="rect1002" />
  </defs>
  <sodipodi:namedview
     id="base"
     pagecolor="#ffffff"
     bordercolor="#666666"
     borderopacity="1.0"
     inkscape:pageopacity="0.0"
     inkscape:pageshadow="2"
     inkscape:zoom="2.8284271"
     inkscape:cx="46.240803"
     inkscape:cy="76.078272"
     inkscape:document-units="mm"
     inkscape:current-layer="layer3"
     showgrid="false"
     fit-margin-top="0"
     fit-margin-left="0"
     fit-margin-right="0"
     fit-margin-bottom="0"
     inkscape:window-width="1920"
     inkscape:window-height="1017"
     inkscape:window-x="-8"
     inkscape:window-y="-8"
     inkscape:window-maximized="1"
     showguides="false"
     inkscape:object-nodes="true"
     units="px"
     inkscape:snap-page="true"
     inkscape:document-rotation="0" />
  <metadata
     id="metadata5">
    <rdf:RDF>
      <cc:Work
         rdf:about="">
        <dc:format>image/svg+xml</dc:format>
        <dc:type
           rdf:resource="http://purl.org/dc/dcmitype/StillImage" />
        <dc:title />
      </cc:Work>
    </rdf:RDF>
  </metadata>
  <g
     inkscape:label="Layer 1"
     inkscape:groupmode="layer"
     id="layer1"
     transform="translate(249.80447,-91.409467)">
    <rect
       y="91.40947"
       x="-249.80447"
       height="52.916668"
       width="52.916668"
       id="rect5238-5"
       style="fill:#222222;fill-opacity:1;fill-rule:nonzero;stroke:none;stroke-width:0.5;stroke-linecap:butt;stroke-linejoin:round;stroke-miterlimit:4;stroke-dasharray:none;stroke-dashoffset:0;stroke-opacity:0.909449;paint-order:normal"
       rx="3.96875"
       ry="3.96875" />
  </g>
  <g
     inkscape:groupmode="layer"
     id="layer2"
     inkscape:label="Layer 2"
     style="display:inline">
    <path
       id="rect5240-3"
       style="fill:#003890;fill-opacity:1;fill-rule:nonzero;stroke:none;stroke-width:0.5;stroke-linecap:butt;stroke-linejoin:round;stroke-miterlimit:4;stroke-dasharray:none;stroke-dashoffset:0;stroke-opacity:0.909449;paint-order:normal"
       transform="translate(249.80447,-91.409467)"
       d="m -200.30687,94.828542 c 0.47823,0.478235 0.77324,1.139693 0.77324,1.872589 v 42.333329 c 0,1.4658 -1.18004,2.64584 -2.64583,2.64584 h -42.33334 c -1.46579,0 -2.64583,-1.18004 -2.64583,-2.64584 v -10.58333 z"
       sodipodi:nodetypes="cssssscc" />
    <path
       id="path864"
       style="fill:#ffffff;fill-opacity:1;fill-rule:nonzero;stroke:none;stroke-width:0.5;stroke-linecap:butt;stroke-linejoin:round;stroke-miterlimit:4;stroke-dasharray:none;stroke-dashoffset:0;stroke-opacity:0.909449;paint-order:normal"
       d="m 5.28583,2.64 h 42.33334 c 0.73289,0 1.39435,0.29501 1.87259,0.773244 L 2.64,37.035832 V 5.285833 C 2.64,3.820041 3.82004,2.64 5.28583,2.64 Z"
       sodipodi:nodetypes="ssccss" />
    <rect
       style="fill:#ffffff;fill-opacity:1;stroke-width:1.265;stroke-linecap:round;paint-order:stroke fill markers"
       id="rect866"
       width="8.7693176"
       height="6.9988217"
       x="13.252666"
       y="23.093204" />
  </g>
  <g
     inkscape:groupmode="layer"
     id="layer3"
     inkscape:label="Layer 3"
     style="display:inline">
    <path
       id="path88810"
       style="fill:#222222;fill-opacity:1;stroke-width:1"
       d="m 15.116006,7.9588448 c 0.908024,-0.3850727 1.194124,1.0896768 1.869733,1.4874192 1.213815,1.399127 2.795602,2.398231 4.50806,3.08652 0.539792,0.381043 -0.746832,-1.601667 0.619627,-1.073676 2.669615,0.924959 5.426006,1.899622 7.557499,3.826112 0.674618,0.390778 1.208931,0.909152 1.776308,1.438423 0.650868,0.818079 0.927607,0.826553 1.414378,-0.0088 0.832872,0.347182 0.847242,1.511314 1.52813,2.074117 1.101021,1.651316 2.429367,3.173118 4.087037,4.281022 -0.0066,-0.671939 0.782831,-1.812644 1.391688,-0.565742 1.106049,1.864898 2.722895,3.335274 3.982151,5.083403 0.851021,1.309195 0.822057,2.893885 0.98932,4.389677 -0.02507,1.223478 -0.747644,2.296116 -1.292654,3.347174 -0.931923,1.247851 -2.550431,2.209261 -4.144356,1.76385 -0.875807,-0.05794 -1.685945,-0.625157 -2.485003,-0.747861 -0.417772,0.977915 -1.722487,1.130773 -2.660097,1.030392 -0.62076,-0.612872 -0.468488,-2.018112 -1.644402,-1.97144 -1.100071,0.06126 -2.187151,0.04558 -3.277403,-0.110799 -2.662282,-0.240383 -5.332062,-0.192563 -7.992924,-0.425763 -2.127611,-0.09114 -4.249547,-0.398799 -6.341717,-0.792369 -0.927828,-0.08113 -1.70683,-0.962165 -0.714712,-1.641945 0.861187,-0.741307 1.988736,-0.515189 3.019523,-0.575325 1.016354,-0.390156 1.386907,0.660709 2.083577,1.132232 1.067487,0.596859 2.601828,0.225243 3.299994,-0.779562 0.81994,0.176125 1.826996,0.794054 2.71454,0.201983 0.445755,-0.770236 0.272406,-1.834772 1.620479,-1.572959 1.126555,-0.174992 2.255299,-0.152292 3.387863,-0.165076 1.005891,-0.1246 2.033288,-0.155575 3.022745,-0.361576 -0.549965,-0.311046 -1.035896,-1.076946 -1.282783,-1.620054 0.282115,1.213434 -0.955967,1.139144 -1.820432,1.215563 -1.615943,-0.08764 -3.235967,0.123104 -4.834091,0.351188 -0.885812,0.37292 -0.273316,2.244151 -1.750539,1.458963 -0.604418,-0.280491 -1.326146,-1.788514 -1.725561,-0.464357 -0.0833,1.280656 -2.207453,1.720414 -2.690387,0.468537 -0.426234,-1.131957 -1.771074,-0.554692 -2.671932,-0.607324 -1.426194,-0.25383 -3.340957,0.295503 -3.683319,1.872557 -0.376159,1.100648 0.799842,1.525321 1.622148,1.780289 0.987957,0.323729 2.051962,0.389661 3.075277,0.551313 2.527107,0.334064 5.086517,0.432123 7.622794,0.561305 1.697411,0.02476 3.400745,0.116243 5.087024,0.302375 -0.444689,0.764253 -1.315417,1.327873 -2.156974,1.683729 -1.25361,0.838507 -2.831681,0.644764 -4.260915,0.882574 -1.718531,0.032 -3.442871,0.01927 -5.161771,-0.08324 C 17.131102,38.52376 15.417335,38.545434 13.826316,37.921287 12.581891,37.615732 11.444482,36.951521 10.38157,36.262534 9.3072947,35.089911 8.2679208,33.69565 8.2792153,32.028291 8.0428913,30.316523 7.9663072,28.583257 8.3097545,26.878478 8.4636514,25.55443 8.9920881,24.30662 9.514767,23.093205 c 0.696034,-1.134777 1.436488,-2.261698 2.460103,-3.129488 1.031307,-1.124407 2.405029,-1.836203 3.627451,-2.709249 -0.291932,-0.775825 -0.922564,-1.476286 -1.435126,-2.160161 -0.949852,-1.064752 -2.062199,-2.038729 -3.434637,-2.505141 -0.511435,-0.986325 1.400315,-1.189023 2.078416,-1.248241 0.868013,-0.09064 2.246823,0.370401 2.80801,-0.02331 C 15.321874,10.255497 14.806833,9.1395025 15.0476,8.0278184 l 0.06871,-0.069252 m 2.661324,20.8818516 c 1.13012,-0.359607 2.382221,-1.226217 2.498065,-2.491417 -0.149051,-0.731367 0.217091,-1.995345 -0.707127,-2.270988 -1.121526,-0.308699 -2.307682,0.07078 -3.454202,0.121823 -0.88212,0.265562 -2.138006,0.251237 -2.602733,1.181527 -0.05621,1.003834 0.341347,2.059311 0.926516,2.866101 0.615883,0.906986 1.689245,0.920257 2.662698,0.712046 0.228458,-0.02179 0.457672,-0.04767 0.676962,-0.119728 m 10.44479,-0.51585 c 1.597368,-0.530338 2.263906,-2.538141 1.724602,-4.04032 -0.834341,-0.429328 -1.880693,-0.444591 -2.815705,-0.628414 -1.070107,0.03487 -2.334448,-0.285578 -3.260418,0.361058 -0.625639,1.199176 -0.348089,2.836721 0.554588,3.831141 1.023904,0.919353 2.555653,0.725299 3.79643,0.476649 m 12.503191,8.024824 c 1.175436,-0.458243 2.275298,-1.291209 2.651287,-2.549675 0.631464,-1.016778 0.753804,-2.216908 0.530769,-3.376749 -0.04283,-2.19596 -1.896725,-3.636561 -3.119397,-5.234677 -0.456123,-0.400044 -1.327558,-2.221418 -1.31609,-0.674708 -0.855862,0.521432 -1.295406,-0.761154 -1.942767,-1.104993 -1.66762,-1.255504 -3.056745,-2.853103 -4.133248,-4.638318 -0.319154,-0.407378 -0.556695,1.294675 -1.235167,0.183096 -0.558037,-1.071703 -1.456505,-1.911305 -2.370117,-2.676582 -1.201682,-0.607967 -2.059137,-1.745258 -3.344744,-2.2246 -1.102775,-0.594987 -2.281425,-1.103827 -3.497274,-1.387841 0.668025,0.687866 0.330257,1.693103 -0.755578,1.025971 -1.734443,-0.682268 -3.467002,-1.463093 -4.845864,-2.752071 -0.38053,-0.153443 -1.26523,-1.482403 -1.151402,-0.674439 0.03445,0.85754 1.295525,1.766878 0.665611,2.509532 -1.108628,-0.273907 -2.203743,-0.704639 -3.376364,-0.594371 -0.983335,-0.186466 -1.792852,0.136323 -0.508204,0.677489 1.092621,0.864515 2.108074,1.855659 2.847395,3.037614 0.430164,0.984865 1.336009,1.090231 2.21819,0.604548 1.642518,-0.299774 3.319063,-0.472134 4.984704,-0.562425 1.085359,0.126792 2.15918,0.332118 3.11145,0.895476 1.126199,0.521518 1.919437,1.538273 2.722835,2.446204 1.106344,1.197002 1.494029,2.814874 2.178237,4.255732 0.44805,1.217379 0.740524,2.472638 0.919656,3.75344 0.399213,0.78213 1.768188,0.802397 1.829401,1.796265 0.07693,0.94247 1.286896,-0.843292 1.964318,0.04019 0.852158,0.486997 1.038991,1.642453 1.272119,2.523464 0.199514,1.073405 0.116381,2.161475 0.03045,3.238306 0.496312,1.159278 1.972345,1.401225 3.095743,1.536051 0.193513,-0.0018 0.386806,-0.02617 0.574797,-0.0721" />
    <path
       inkscape:connector-curvature="0"
       id="path5244-6"
       d="m 1.4552083,37.041673 v 8.33437 c 0,3.07816 2.47808,5.55625 5.55625,5.55625 H 45.905208 c 3.07816,0 5.55625,-2.47809 5.55625,-5.55625 v -8.33437 z"
       style="fill:#222222;fill-opacity:1;fill-rule:nonzero;stroke:none;stroke-width:0.5;stroke-linecap:butt;stroke-linejoin:round;stroke-miterlimit:4;stroke-dasharray:none;stroke-dashoffset:0;stroke-opacity:0.909449;paint-order:normal" />
    <g
       aria-label="CASUAL"
       transform="translate(32.53266,7.2824551)"
       id="text878"
       style="font-style:normal;font-weight:normal;font-size:10.5833px;line-height:1.25;font-family:sans-serif;white-space:pre;shape-inside:url(#rect880);fill:#000000;fill-opacity:1;stroke:none">
      <path
         d="m -24.388681,40.535682 q -1.132413,0 -2.05316,-0.486831 -0.910164,-0.497416 -1.439329,-1.365246 -0.518581,-0.878414 -0.518581,-1.979077 0,-1.100663 0.518581,-1.968494 0.529165,-0.878414 1.439329,-1.365246 0.920747,-0.497415 2.063744,-0.497415 0.96308,0 1.735661,0.338666 0.783164,0.338666 1.312329,0.973664 l -1.100663,1.015996 q -0.751415,-0.86783 -1.862661,-0.86783 -0.687915,0 -1.227663,0.306915 -0.539748,0.296333 -0.846664,0.836081 -0.296332,0.539748 -0.296332,1.227663 0,0.687914 0.296332,1.227663 0.306916,0.539748 0.846664,0.846664 0.539748,0.296332 1.227663,0.296332 1.111246,0 1.862661,-0.878414 l 1.100663,1.015997 q -0.529165,0.645581 -1.312329,0.984247 -0.783164,0.338665 -1.746245,0.338665 z"
         style="font-style:normal;font-variant:normal;font-weight:bold;font-stretch:normal;font-family:Montserrat;-inkscape-font-specification:'Montserrat Bold';fill:#ffffff;fill-opacity:1"
         id="path884" />
      <path
         d="m -15.445814,38.821188 h -3.439573 l -0.656164,1.587495 h -1.756828 l 3.301989,-7.40831 h 1.693328 l 3.312573,7.40831 h -1.799161 z m -0.539749,-1.301746 -1.174746,-2.836324 -1.174746,2.836324 z"
         style="font-style:normal;font-variant:normal;font-weight:bold;font-stretch:normal;font-family:Montserrat;-inkscape-font-specification:'Montserrat Bold';fill:#ffffff;fill-opacity:1"
         id="path886" />
      <path
         d="m -9.7837617,40.535682 q -0.8784143,0 -1.7039113,-0.232832 -0.814914,-0.243416 -1.312329,-0.624415 l 0.582081,-1.291162 q 0.476249,0.349248 1.132413,0.560914 0.656165,0.211666 1.3123296,0.211666 0.7302477,0 1.0794966,-0.211666 0.3492489,-0.222249 0.3492489,-0.582081 0,-0.264583 -0.211666,-0.433915 -0.2010827,-0.179916 -0.529165,-0.285749 -0.317499,-0.105833 -0.8678306,-0.232833 -0.8466635,-0.201083 -1.3864125,-0.402165 -0.539748,-0.201083 -0.93133,-0.645582 -0.380999,-0.444498 -0.380999,-1.185329 0,-0.645582 0.349249,-1.164163 0.349249,-0.529165 1.047747,-0.836081 0.709081,-0.306916 1.7250775,-0.306916 0.7090811,0 1.3864123,0.169333 0.6773311,0.169333 1.1853295,0.486832 l -0.5291649,1.301746 q -1.0265801,-0.582082 -2.0531602,-0.582082 -0.7196642,0 -1.0689132,0.232833 -0.338666,0.232833 -0.338666,0.613831 0,0.380999 0.391582,0.571498 0.402166,0.179917 1.2170799,0.359833 0.846664,0.201082 1.3864123,0.402165 0.5397482,0.201083 0.920747,0.634998 0.3915821,0.433915 0.3915821,1.174746 0,0.634998 -0.3598322,1.164163 -0.3492489,0.518582 -1.0583299,0.825498 -0.7090811,0.306915 -1.7250779,0.306915 z"
         style="font-style:normal;font-variant:normal;font-weight:bold;font-stretch:normal;font-family:Montserrat;-inkscape-font-specification:'Montserrat Bold';fill:#ffffff;fill-opacity:1"
         id="path888" />
      <path
         d="m -2.1743839,40.535682 q -1.5874949,0 -2.4764921,-0.878414 -0.8784139,-0.878413 -0.8784139,-2.508242 v -4.148653 h 1.7144946 v 4.085154 q 0,1.98966 1.6509947,1.98966 0.8043308,0 1.22766277,-0.476249 0.42333198,-0.486831 0.42333198,-1.513411 V 33.000373 H 1.1805221 v 4.148653 q 0,1.629829 -0.88899718,2.508242 -0.87841387,0.878414 -2.46590882,0.878414 z"
         style="font-style:normal;font-variant:normal;font-weight:bold;font-stretch:normal;font-family:Montserrat;-inkscape-font-specification:'Montserrat Bold';fill:#003890;fill-opacity:1"
         id="path890" />
      <path
         d="M 7.5939697,38.821188 H 4.1543973 L 3.4982327,40.408683 H 1.741405 l 3.3019895,-7.40831 h 1.6933279 l 3.3125726,7.40831 H 8.2501342 Z M 7.0542214,37.519442 5.8794751,34.683118 4.7047289,37.519442 Z"
         style="font-style:normal;font-variant:normal;font-weight:bold;font-stretch:normal;font-family:Montserrat;-inkscape-font-specification:'Montserrat Bold';fill:#003890;fill-opacity:1"
         id="path892" />
      <path
         d="m 10.821865,33.000373 h 1.714494 v 6.011314 h 3.714739 v 1.396996 h -5.429233 z"
         style="font-style:normal;font-variant:normal;font-weight:bold;font-stretch:normal;font-family:Montserrat;-inkscape-font-specification:'Montserrat Bold';fill:#003890;fill-opacity:1"
         id="path894" />
    </g>
  </g>
</svg>
