<?xml version="1.0" encoding="UTF-8" standalone="no"?>
<svg
   xmlns:dc="http://purl.org/dc/elements/1.1/"
   xmlns:cc="http://creativecommons.org/ns#"
   xmlns:rdf="http://www.w3.org/1999/02/22-rdf-syntax-ns#"
   xmlns:svg="http://www.w3.org/2000/svg"
   xmlns="http://www.w3.org/2000/svg"
   xmlns:sodipodi="http://sodipodi.sourceforge.net/DTD/sodipodi-0.dtd"
   xmlns:inkscape="http://www.inkscape.org/namespaces/inkscape"
   width="200"
   height="200"
   viewBox="0 0 52.916668 52.916666"
   version="1.1"
   id="svg8"
   inkscape:version="1.0.2-2 (e86c870879, 2021-01-15)"
   sodipodi:docname="central.svg">
  <defs
     id="defs2">
    <rect
       x="-249.80447"
       y="131.09697"
       width="84.005209"
       height="23.547916"
       id="rect909" />
    <inkscape:path-effect
       effect="envelope"
       id="path-effect4658"
       is_visible="true"
       yy="true"
       xx="true"
       bendpath1="m -199.08406,108.42369 h 7.0057"
       bendpath2="m -192.07836,108.42369 v 6.75242"
       bendpath3="m -199.08406,115.17611 h 7.0057"
       bendpath4="m -199.08406,108.42369 v 6.75242" />
    <inkscape:path-effect
       effect="bend_path"
       id="path-effect4656"
       is_visible="true"
       bendpath="m -192.00142,114.60623 c 2.12577,-0.53066 4.48261,0.85111 7.0057,0"
       prop_scale="1"
       scale_y_rel="false"
       vertical="false"
       bendpath-nodetypes="cc" />
    <inkscape:path-effect
       effect="bounding_box"
       id="path-effect4654"
       is_visible="true"
       linkedpath=""
       visualbounds="false" />
  </defs>
  <sodipodi:namedview
     id="base"
     pagecolor="#ffffff"
     bordercolor="#666666"
     borderopacity="1.0"
     inkscape:pageopacity="0.0"
     inkscape:pageshadow="2"
     inkscape:zoom="2"
     inkscape:cx="54.587238"
     inkscape:cy="112.86034"
     inkscape:document-units="mm"
     inkscape:current-layer="layer1"
     showgrid="false"
     fit-margin-top="0"
     fit-margin-left="0"
     fit-margin-right="0"
     fit-margin-bottom="0"
     inkscape:window-width="1920"
     inkscape:window-height="1017"
     inkscape:window-x="-8"
     inkscape:window-y="-8"
     inkscape:window-maximized="1"
     showguides="false"
     inkscape:object-nodes="true"
     units="px"
     inkscape:snap-page="true"
     inkscape:document-rotation="0" />
  <metadata
     id="metadata5">
    <rdf:RDF>
      <cc:Work
         rdf:about="">
        <dc:format>image/svg+xml</dc:format>
        <dc:type
           rdf:resource="http://purl.org/dc/dcmitype/StillImage" />
        <dc:title></dc:title>
      </cc:Work>
    </rdf:RDF>
  </metadata>
  <g
     inkscape:label="Layer 1"
     inkscape:groupmode="layer"
     id="layer1"
     transform="translate(249.80447,-91.409467)">
    <rect
       y="91.40947"
       x="-249.80447"
       height="52.916668"
       width="52.916668"
       id="rect5238-5"
       style="fill:#222222;fill-opacity:1;fill-rule:nonzero;stroke:none;stroke-width:0.5;stroke-linecap:butt;stroke-linejoin:round;stroke-miterlimit:4;stroke-dasharray:none;stroke-dashoffset:0;stroke-opacity:0.909449;paint-order:normal"
       rx="3.96875"
       ry="3.96875" />
    <rect
       style="fill:#ffe000;fill-opacity:1;fill-rule:nonzero;stroke:none;stroke-width:0.5;stroke-linecap:butt;stroke-linejoin:round;stroke-miterlimit:4;stroke-dasharray:none;stroke-dashoffset:0;stroke-opacity:0.909449;paint-order:normal"
       id="rect5240-3"
       width="47.625"
       height="47.625"
       x="-247.15863"
       y="94.055298"
       rx="2.6458333"
       ry="2.6458333" />
    <path
       inkscape:connector-curvature="0"
       id="path5244-6"
       d="m -248.34926,128.45114 v 8.33437 c 0,3.07816 2.47808,5.55625 5.55625,5.55625 h 38.89375 c 3.07816,0 5.55625,-2.47809 5.55625,-5.55625 v -8.33437 z"
       style="fill:#222222;fill-opacity:1;fill-rule:nonzero;stroke:none;stroke-width:0.5;stroke-linecap:butt;stroke-linejoin:round;stroke-miterlimit:4;stroke-dasharray:none;stroke-dashoffset:0;stroke-opacity:0.909449;paint-order:normal" />
    <path
       id="path856"
       style="fill:#222222;stroke-width:0.264583;fill-opacity:1"
       inkscape:transform-center-x="-0.016032813"
       inkscape:transform-center-y="-0.92651062"
       d="m -223.40662,113.98906 -4.03517,7.07677 h 2.6008 v 7.515 h 2.9897 v -7.515 h 2.60081 z"
       sodipodi:nodetypes="cccccccc" />
    <path
       id="path863"
       style="fill:#222222;stroke-width:0.264583;fill-opacity:1"
       inkscape:transform-center-x="-0.016032813"
       inkscape:transform-center-y="0.92651062"
       d="m -223.40662,108.5835 -4.03517,-7.07676 h 2.6008 v -7.515009 h 2.9897 v 7.515009 h 2.60081 z"
       sodipodi:nodetypes="cccccccc" />
    <path
       id="path869"
       style="fill:#222222;stroke-width:0.264583;fill-opacity:1"
       inkscape:transform-center-x="-0.016032813"
       inkscape:transform-center-y="-0.92651062"
       d="m -226.04891,111.22579 -7.07676,-4.03517 v 2.6008 h -14.39418 v 2.9897 h 14.39418 v 2.60081 z"
       sodipodi:nodetypes="cccccccc" />
    <path
       id="path871"
       style="fill:#222222;stroke-width:0.264583;fill-opacity:1"
       inkscape:transform-center-x="-0.016032813"
       inkscape:transform-center-y="0.92651062"
       d="m -220.64335,111.22579 7.07677,-4.03517 v 2.6008 h 14.39417 v 2.9897 h -14.39417 v 2.60081 z"
       sodipodi:nodetypes="cccccccc" />
    <g
       aria-label="CENTRALIZED"
       transform="matrix(0.59710139,0,0,0.59710139,-97.666747,53.521583)"
       id="text907"
       style="font-style:normal;font-weight:normal;font-size:10.5833px;line-height:1.25;font-family:sans-serif;white-space:pre;shape-inside:url(#rect909);fill:#eeeeee;fill-opacity:1;stroke:none;stroke-width:1.67476">
      <path
         d="m -245.38087,140.9517 q -1.13241,0 -2.05316,-0.48683 -0.91016,-0.49742 -1.43933,-1.36525 -0.51858,-0.87841 -0.51858,-1.97908 0,-1.10066 0.51858,-1.96849 0.52917,-0.87841 1.43933,-1.36525 0.92075,-0.49741 2.06375,-0.49741 0.96308,0 1.73566,0.33866 0.78316,0.33867 1.31233,0.97367 l -1.10067,1.01599 q -0.75141,-0.86783 -1.86266,-0.86783 -0.68791,0 -1.22766,0.30692 -0.53975,0.29633 -0.84667,0.83608 -0.29633,0.53975 -0.29633,1.22766 0,0.68792 0.29633,1.22767 0.30692,0.53974 0.84667,0.84666 0.53975,0.29633 1.22766,0.29633 1.11125,0 1.86266,-0.87841 l 1.10067,1.016 q -0.52917,0.64558 -1.31233,0.98424 -0.78317,0.33867 -1.74625,0.33867 z"
         style="font-style:normal;font-variant:normal;font-weight:bold;font-stretch:normal;font-family:Montserrat;-inkscape-font-specification:'Montserrat Bold';fill:#eeeeee;fill-opacity:1;stroke-width:2.80481"
         id="path913" />
      <path
         d="m -235.43257,139.44887 v 1.37583 h -5.73615 v -7.40831 h 5.59857 v 1.37583 h -3.89466 v 1.60866 h 3.43958 v 1.33349 h -3.43958 v 1.7145 z"
         style="font-style:normal;font-variant:normal;font-weight:bold;font-stretch:normal;font-family:Montserrat;-inkscape-font-specification:'Montserrat Bold';fill:#eeeeee;fill-opacity:1;stroke-width:2.80481"
         id="path915" />
      <path
         d="m -227.27285,133.41639 v 7.40831 h -1.40758 l -3.69357,-4.4979 v 4.4979 h -1.69333 v -7.40831 h 1.41816 l 3.68299,4.4979 v -4.4979 z"
         style="font-style:normal;font-variant:normal;font-weight:bold;font-stretch:normal;font-family:Montserrat;-inkscape-font-specification:'Montserrat Bold';fill:#eeeeee;fill-opacity:1;stroke-width:2.80481"
         id="path917" />
      <path
         d="m -223.98146,134.81338 h -2.37066 v -1.39699 h 6.45581 v 1.39699 h -2.37065 v 6.01132 h -1.7145 z"
         style="font-style:normal;font-variant:normal;font-weight:bold;font-stretch:normal;font-family:Montserrat;-inkscape-font-specification:'Montserrat Bold';fill:#eeeeee;fill-opacity:1;stroke-width:2.80481"
         id="path919" />
      <path
         d="m -214.25543,140.8247 -1.42874,-2.06375 h -0.0847 -1.49224 v 2.06375 h -1.7145 v -7.40831 h 3.20674 q 0.98425,0 1.70391,0.32808 0.73025,0.32808 1.12183,0.93133 0.39158,0.60325 0.39158,1.42875 0,0.82549 -0.40216,1.42874 -0.39158,0.59267 -1.12183,0.91017 l 1.66158,2.38124 z m -0.0318,-4.72015 q 0,-0.62442 -0.40216,-0.9525 -0.40217,-0.33867 -1.17475,-0.33867 h -1.39699 v 2.58233 h 1.39699 q 0.77258,0 1.17475,-0.33867 0.40216,-0.33866 0.40216,-0.95249 z"
         style="font-style:normal;font-variant:normal;font-weight:bold;font-stretch:normal;font-family:Montserrat;-inkscape-font-specification:'Montserrat Bold';fill:#eeeeee;fill-opacity:1;stroke-width:2.80481"
         id="path921" />
      <path
         d="m -206.31796,139.2372 h -3.43958 l -0.65616,1.5875 h -1.75683 l 3.30199,-7.40831 h 1.69333 l 3.31257,7.40831 h -1.79916 z m -0.53975,-1.30174 -1.17475,-2.83633 -1.17475,2.83633 z"
         style="font-style:normal;font-variant:normal;font-weight:bold;font-stretch:normal;font-family:Montserrat;-inkscape-font-specification:'Montserrat Bold';fill:#eeeeee;fill-opacity:1;stroke-width:2.80481"
         id="path923" />
      <path
         d="m -203.09007,133.41639 h 1.7145 v 6.01131 h 3.71473 v 1.397 h -5.42923 z"
         style="font-style:normal;font-variant:normal;font-weight:bold;font-stretch:normal;font-family:Montserrat;-inkscape-font-specification:'Montserrat Bold';fill:#eeeeee;fill-opacity:1;stroke-width:2.80481"
         id="path925" />
      <path
         d="m -196.69778,133.41639 h 1.7145 v 7.40831 h -1.7145 z"
         style="font-style:normal;font-variant:normal;font-weight:bold;font-stretch:normal;font-family:Montserrat;-inkscape-font-specification:'Montserrat Bold';fill:#eeeeee;fill-opacity:1;stroke-width:2.80481"
         id="path927" />
      <path
         d="m -187.22573,139.4277 v 1.397 h -6.47698 v -1.11125 l 4.06398,-4.90007 h -3.97932 v -1.39699 h 6.23357 v 1.11125 l -4.05341,4.90006 z"
         style="font-style:normal;font-variant:normal;font-weight:bold;font-stretch:normal;font-family:Montserrat;-inkscape-font-specification:'Montserrat Bold';fill:#eeeeee;fill-opacity:1;stroke-width:2.80481"
         id="path929" />
      <path
         d="m -180.38893,139.44887 v 1.37583 h -5.73615 v -7.40831 h 5.59857 v 1.37583 h -3.89466 v 1.60866 h 3.43958 v 1.33349 h -3.43958 v 1.7145 z"
         style="font-style:normal;font-variant:normal;font-weight:bold;font-stretch:normal;font-family:Montserrat;-inkscape-font-specification:'Montserrat Bold';fill:#eeeeee;fill-opacity:1;stroke-width:2.80481"
         id="path931" />
      <path
         d="m -179.02369,133.41639 h 3.36549 q 1.2065,0 2.12725,0.46566 0.93133,0.45509 1.43933,1.29117 0.51858,0.83608 0.51858,1.94732 0,1.11125 -0.51858,1.94733 -0.508,0.83608 -1.43933,1.30175 -0.92075,0.45508 -2.12725,0.45508 h -3.36549 z m 3.28083,6.00073 q 1.11124,0 1.76741,-0.61383 0.66675,-0.62442 0.66675,-1.68275 0,-1.05833 -0.66675,-1.67216 -0.65617,-0.62441 -1.76741,-0.62441 h -1.56633 v 4.59315 z"
         style="font-style:normal;font-variant:normal;font-weight:bold;font-stretch:normal;font-family:Montserrat;-inkscape-font-specification:'Montserrat Bold';fill:#eeeeee;fill-opacity:1;stroke-width:2.80481"
         id="path933" />
    </g>
  </g>
</svg>
