<?xml version="1.0" encoding="UTF-8" standalone="no"?>
<svg
   xmlns:dc="http://purl.org/dc/elements/1.1/"
   xmlns:cc="http://creativecommons.org/ns#"
   xmlns:rdf="http://www.w3.org/1999/02/22-rdf-syntax-ns#"
   xmlns:svg="http://www.w3.org/2000/svg"
   xmlns="http://www.w3.org/2000/svg"
   xmlns:sodipodi="http://sodipodi.sourceforge.net/DTD/sodipodi-0.dtd"
   xmlns:inkscape="http://www.inkscape.org/namespaces/inkscape"
   width="200"
   height="200"
   viewBox="0 0 52.916668 52.916666"
   version="1.1"
   id="svg8"
   inkscape:version="1.0.2-2 (e86c870879, 2021-01-15)"
   sodipodi:docname="decentral.svg">
  <defs
     id="defs2">
    <rect
       x="-242.79301"
       y="132.68447"
       width="120.51771"
       height="26.855208"
       id="rect954" />
    <inkscape:path-effect
       effect="envelope"
       id="path-effect4658"
       is_visible="true"
       yy="true"
       xx="true"
       bendpath1="m -199.08406,108.42369 h 7.0057"
       bendpath2="m -192.07836,108.42369 v 6.75242"
       bendpath3="m -199.08406,115.17611 h 7.0057"
       bendpath4="m -199.08406,108.42369 v 6.75242" />
    <inkscape:path-effect
       effect="bend_path"
       id="path-effect4656"
       is_visible="true"
       bendpath="m -192.00142,114.60623 c 2.12577,-0.53066 4.48261,0.85111 7.0057,0"
       prop_scale="1"
       scale_y_rel="false"
       vertical="false"
       bendpath-nodetypes="cc" />
    <inkscape:path-effect
       effect="bounding_box"
       id="path-effect4654"
       is_visible="true"
       linkedpath=""
       visualbounds="false" />
  </defs>
  <sodipodi:namedview
     id="base"
     pagecolor="#ffffff"
     bordercolor="#666666"
     borderopacity="1.0"
     inkscape:pageopacity="0.0"
     inkscape:pageshadow="2"
     inkscape:zoom="4"
     inkscape:cx="122.93267"
     inkscape:cy="101.24538"
     inkscape:document-units="mm"
     inkscape:current-layer="layer1"
     showgrid="false"
     fit-margin-top="0"
     fit-margin-left="0"
     fit-margin-right="0"
     fit-margin-bottom="0"
     inkscape:window-width="1920"
     inkscape:window-height="1017"
     inkscape:window-x="-8"
     inkscape:window-y="-8"
     inkscape:window-maximized="1"
     showguides="false"
     inkscape:object-nodes="true"
     units="px"
     inkscape:snap-page="true"
     inkscape:document-rotation="0" />
  <metadata
     id="metadata5">
    <rdf:RDF>
      <cc:Work
         rdf:about="">
        <dc:format>image/svg+xml</dc:format>
        <dc:type
           rdf:resource="http://purl.org/dc/dcmitype/StillImage" />
        <dc:title></dc:title>
      </cc:Work>
    </rdf:RDF>
  </metadata>
  <g
     inkscape:label="Layer 1"
     inkscape:groupmode="layer"
     id="layer1"
     transform="translate(249.80447,-91.409467)">
    <rect
       y="91.40947"
       x="-249.80447"
       height="52.916668"
       width="52.916668"
       id="rect5238-5"
       style="fill:#222222;fill-opacity:1;fill-rule:nonzero;stroke:none;stroke-width:0.5;stroke-linecap:butt;stroke-linejoin:round;stroke-miterlimit:4;stroke-dasharray:none;stroke-dashoffset:0;stroke-opacity:0.909449;paint-order:normal"
       rx="3.96875"
       ry="3.96875" />
    <rect
       style="fill:#ffffff;fill-opacity:1;fill-rule:nonzero;stroke:none;stroke-width:0.5;stroke-linecap:butt;stroke-linejoin:round;stroke-miterlimit:4;stroke-dasharray:none;stroke-dashoffset:0;stroke-opacity:0.909449;paint-order:normal"
       id="rect5240-3"
       width="47.625"
       height="47.625"
       x="-247.15863"
       y="94.055298"
       rx="2.6458333"
       ry="2.6458333" />
    <path
       inkscape:connector-curvature="0"
       id="path5244-6"
       d="m -248.34926,128.45114 v 8.33437 c 0,3.07816 2.47808,5.55625 5.55625,5.55625 h 38.89375 c 3.07816,0 5.55625,-2.47809 5.55625,-5.55625 v -8.33437 z"
       style="fill:#222222;fill-opacity:1;fill-rule:nonzero;stroke:none;stroke-width:0.5;stroke-linecap:butt;stroke-linejoin:round;stroke-miterlimit:4;stroke-dasharray:none;stroke-dashoffset:0;stroke-opacity:0.909449;paint-order:normal" />
    <g
       id="g950"
       transform="matrix(1.1556891,0,0,1.1556891,33.778775,-16.760846)"
       style="stroke-width:0.865285;fill:#222222;fill-opacity:1">
      <path
         id="path856"
         style="fill:#222222;stroke-width:0.22894;fill-opacity:1"
         inkscape:transform-center-x="-0.016032813"
         inkscape:transform-center-y="0.92651062"
         d="m -222.53526,125.0751 -3.27123,-5.73698 h 2.10842 v -6.09226 h 2.42369 v 6.09226 h 2.10841 z"
         sodipodi:nodetypes="cccccccc" />
      <path
         id="path863"
         style="fill:#222222;stroke-width:0.22894;fill-opacity:1"
         inkscape:transform-center-x="-0.016032813"
         inkscape:transform-center-y="-0.92651062"
         d="m -222.53526,97.034437 -3.27123,5.736993 h 2.10842 v 6.09225 h 2.42369 v -6.09225 h 2.10841 z"
         sodipodi:nodetypes="cccccccc" />
      <path
         id="path869"
         style="fill:#222222;stroke-width:0.22894;fill-opacity:1"
         inkscape:transform-center-x="0.016032813"
         inkscape:transform-center-y="-0.92651062"
         d="m -236.50656,111.00573 5.73699,-3.27123 v 2.10841 h 6.09226 v 2.42369 h -6.09226 v 2.10842 z"
         sodipodi:nodetypes="cccccccc" />
      <path
         id="path871"
         style="fill:#222222;stroke-width:0.22894;fill-opacity:1"
         inkscape:transform-center-x="0.016032813"
         inkscape:transform-center-y="0.92651062"
         d="m -208.46589,111.00573 -5.73698,-3.27123 v 2.10841 h -6.09226 v 2.42369 h 6.09226 v 2.10842 z"
         sodipodi:nodetypes="cccccccc" />
    </g>
    <g
       aria-label="DECENTRALIZED"
       transform="matrix(0.51442298,0,0,0.51442298,-122.86547,64.042649)"
       id="text952"
       style="font-style:normal;font-weight:normal;font-size:10.5833px;line-height:1.25;font-family:sans-serif;white-space:pre;shape-inside:url(#rect954);fill:#eeeeee;fill-opacity:1;stroke:none;stroke-width:1.94393">
      <path
         d="m -241.91455,135.00233 h 3.36548 q 1.2065,0 2.12725,0.46566 0.93133,0.45508 1.43933,1.29116 0.51858,0.83608 0.51858,1.94733 0,1.11125 -0.51858,1.94733 -0.508,0.83608 -1.43933,1.30174 -0.92075,0.45509 -2.12725,0.45509 h -3.36548 z m 3.28082,6.00073 q 1.11124,0 1.76741,-0.61383 0.66675,-0.62442 0.66675,-1.68275 0,-1.05833 -0.66675,-1.67216 -0.65617,-0.62442 -1.76741,-0.62442 h -1.56633 v 4.59316 z"
         style="font-style:normal;font-variant:normal;font-weight:bold;font-stretch:normal;font-family:Montserrat;-inkscape-font-specification:'Montserrat Bold';fill:#eeeeee;fill-opacity:1;stroke-width:4.18292"
         id="path958" />
      <path
         d="m -227.43662,141.03481 v 1.37583 h -5.73615 v -7.40831 h 5.59857 v 1.37583 h -3.89466 v 1.60866 h 3.43958 v 1.33349 h -3.43958 v 1.7145 z"
         style="font-style:normal;font-variant:normal;font-weight:bold;font-stretch:normal;font-family:Montserrat;-inkscape-font-specification:'Montserrat Bold';fill:#eeeeee;fill-opacity:1;stroke-width:4.18292"
         id="path960" />
      <path
         d="m -222.54715,142.53764 q -1.13241,0 -2.05316,-0.48684 -0.91016,-0.49741 -1.43933,-1.36524 -0.51858,-0.87842 -0.51858,-1.97908 0,-1.10066 0.51858,-1.96849 0.52917,-0.87842 1.43933,-1.36525 0.92075,-0.49741 2.06375,-0.49741 0.96308,0 1.73566,0.33866 0.78316,0.33867 1.31233,0.97367 l -1.10067,1.01599 q -0.75141,-0.86783 -1.86266,-0.86783 -0.68791,0 -1.22766,0.30692 -0.53975,0.29633 -0.84666,0.83608 -0.29634,0.53975 -0.29634,1.22766 0,0.68792 0.29634,1.22766 0.30691,0.53975 0.84666,0.84667 0.53975,0.29633 1.22766,0.29633 1.11125,0 1.86266,-0.87841 l 1.10067,1.01599 q -0.52917,0.64558 -1.31233,0.98425 -0.78317,0.33867 -1.74625,0.33867 z"
         style="font-style:normal;font-variant:normal;font-weight:bold;font-stretch:normal;font-family:Montserrat;-inkscape-font-specification:'Montserrat Bold';fill:#eeeeee;fill-opacity:1;stroke-width:4.18292"
         id="path962" />
      <path
         d="m -212.59885,141.03481 v 1.37583 h -5.73615 v -7.40831 h 5.59857 v 1.37583 h -3.89465 v 1.60866 h 3.43957 v 1.33349 h -3.43957 v 1.7145 z"
         style="font-style:normal;font-variant:normal;font-weight:bold;font-stretch:normal;font-family:Montserrat;-inkscape-font-specification:'Montserrat Bold';fill:#eeeeee;fill-opacity:1;stroke-width:4.18292"
         id="path964" />
      <path
         d="m -204.43913,135.00233 v 7.40831 h -1.40758 l -3.69357,-4.49791 v 4.49791 h -1.69333 v -7.40831 h 1.41816 l 3.68299,4.4979 v -4.4979 z"
         style="font-style:normal;font-variant:normal;font-weight:bold;font-stretch:normal;font-family:Montserrat;-inkscape-font-specification:'Montserrat Bold';fill:#eeeeee;fill-opacity:1;stroke-width:4.18292"
         id="path966" />
      <path
         d="m -201.14774,136.39932 h -2.37066 v -1.39699 h 6.45582 v 1.39699 h -2.37066 v 6.01132 h -1.7145 z"
         style="font-style:normal;font-variant:normal;font-weight:bold;font-stretch:normal;font-family:Montserrat;-inkscape-font-specification:'Montserrat Bold';fill:#eeeeee;fill-opacity:1;stroke-width:4.18292"
         id="path968" />
      <path
         d="m -191.42171,142.41064 -1.42874,-2.06375 h -0.0847 -1.49224 v 2.06375 h -1.7145 v -7.40831 h 3.20674 q 0.98425,0 1.70391,0.32808 0.73025,0.32808 1.12183,0.93133 0.39159,0.60325 0.39159,1.42874 0,0.8255 -0.40217,1.42875 -0.39158,0.59266 -1.12183,0.91016 l 1.66158,2.38125 z m -0.0318,-4.72016 q 0,-0.62441 -0.40216,-0.95249 -0.40217,-0.33867 -1.17475,-0.33867 h -1.39699 v 2.58233 h 1.39699 q 0.77258,0 1.17475,-0.33867 0.40216,-0.33866 0.40216,-0.9525 z"
         style="font-style:normal;font-variant:normal;font-weight:bold;font-stretch:normal;font-family:Montserrat;-inkscape-font-specification:'Montserrat Bold';fill:#eeeeee;fill-opacity:1;stroke-width:4.18292"
         id="path970" />
      <path
         d="m -183.48424,140.82314 h -3.43958 l -0.65616,1.5875 h -1.75683 l 3.30199,-7.40831 h 1.69333 l 3.31257,7.40831 h -1.79916 z m -0.53975,-1.30174 -1.17475,-2.83633 -1.17474,2.83633 z"
         style="font-style:normal;font-variant:normal;font-weight:bold;font-stretch:normal;font-family:Montserrat;-inkscape-font-specification:'Montserrat Bold';fill:#eeeeee;fill-opacity:1;stroke-width:4.18292"
         id="path972" />
      <path
         d="m -180.25635,135.00233 h 1.71449 v 6.01131 h 3.71474 v 1.397 h -5.42923 z"
         style="font-style:normal;font-variant:normal;font-weight:bold;font-stretch:normal;font-family:Montserrat;-inkscape-font-specification:'Montserrat Bold';fill:#eeeeee;fill-opacity:1;stroke-width:4.18292"
         id="path974" />
      <path
         d="m -173.86406,135.00233 h 1.7145 v 7.40831 h -1.7145 z"
         style="font-style:normal;font-variant:normal;font-weight:bold;font-stretch:normal;font-family:Montserrat;-inkscape-font-specification:'Montserrat Bold';fill:#eeeeee;fill-opacity:1;stroke-width:4.18292"
         id="path976" />
      <path
         d="m -164.39201,141.01364 v 1.397 h -6.47698 v -1.11125 l 4.06399,-4.90007 h -3.97932 v -1.39699 h 6.23356 v 1.11124 l -4.0534,4.90007 z"
         style="font-style:normal;font-variant:normal;font-weight:bold;font-stretch:normal;font-family:Montserrat;-inkscape-font-specification:'Montserrat Bold';fill:#eeeeee;fill-opacity:1;stroke-width:4.18292"
         id="path978" />
      <path
         d="m -157.55521,141.03481 v 1.37583 h -5.73615 v -7.40831 h 5.59857 v 1.37583 h -3.89465 v 1.60866 h 3.43957 v 1.33349 h -3.43957 v 1.7145 z"
         style="font-style:normal;font-variant:normal;font-weight:bold;font-stretch:normal;font-family:Montserrat;-inkscape-font-specification:'Montserrat Bold';fill:#eeeeee;fill-opacity:1;stroke-width:4.18292"
         id="path980" />
      <path
         d="m -156.18997,135.00233 h 3.36549 q 1.2065,0 2.12724,0.46566 0.93133,0.45508 1.43933,1.29116 0.51858,0.83608 0.51858,1.94733 0,1.11125 -0.51858,1.94733 -0.508,0.83608 -1.43933,1.30174 -0.92074,0.45509 -2.12724,0.45509 h -3.36549 z m 3.28082,6.00073 q 1.11125,0 1.76742,-0.61383 0.66674,-0.62442 0.66674,-1.68275 0,-1.05833 -0.66674,-1.67216 -0.65617,-0.62442 -1.76742,-0.62442 h -1.56632 v 4.59316 z"
         style="font-style:normal;font-variant:normal;font-weight:bold;font-stretch:normal;font-family:Montserrat;-inkscape-font-specification:'Montserrat Bold';fill:#eeeeee;fill-opacity:1;stroke-width:4.18292"
         id="path982" />
    </g>
  </g>
</svg>
