<?xml version="1.0" encoding="UTF-8" standalone="no"?>
<svg
   xmlns:dc="http://purl.org/dc/elements/1.1/"
   xmlns:cc="http://creativecommons.org/ns#"
   xmlns:rdf="http://www.w3.org/1999/02/22-rdf-syntax-ns#"
   xmlns:svg="http://www.w3.org/2000/svg"
   xmlns="http://www.w3.org/2000/svg"
   xmlns:sodipodi="http://sodipodi.sourceforge.net/DTD/sodipodi-0.dtd"
   xmlns:inkscape="http://www.inkscape.org/namespaces/inkscape"
   width="200"
   height="200"
   viewBox="0 0 52.916668 52.916666"
   version="1.1"
   id="svg8"
   inkscape:version="1.0.2-2 (e86c870879, 2021-01-15)"
   sodipodi:docname="discriminatory.svg">
  <defs
     id="defs2">
    <rect
       x="-60.192708"
       y="25.664583"
       width="115.49062"
       height="41.010416"
       id="rect951" />
    <rect
       x="-326.66593"
       y="109.9303"
       width="56.35625"
       height="17.594792"
       id="rect914" />
    <rect
       x="-230.62218"
       y="74.079259"
       width="66.013542"
       height="16.801042"
       id="rect885" />
    <inkscape:path-effect
       effect="envelope"
       id="path-effect4658"
       is_visible="true"
       yy="true"
       xx="true"
       bendpath1="m -199.08406,108.42369 h 7.0057"
       bendpath2="m -192.07836,108.42369 v 6.75242"
       bendpath3="m -199.08406,115.17611 h 7.0057"
       bendpath4="m -199.08406,108.42369 v 6.75242" />
    <inkscape:path-effect
       effect="bend_path"
       id="path-effect4656"
       is_visible="true"
       bendpath="m -192.00142,114.60623 c 2.12577,-0.53066 4.48261,0.85111 7.0057,0"
       prop_scale="1"
       scale_y_rel="false"
       vertical="false"
       bendpath-nodetypes="cc" />
    <inkscape:path-effect
       effect="bounding_box"
       id="path-effect4654"
       is_visible="true"
       linkedpath=""
       visualbounds="false" />
  </defs>
  <sodipodi:namedview
     id="base"
     pagecolor="#ffffff"
     bordercolor="#666666"
     borderopacity="1.0"
     inkscape:pageopacity="0.0"
     inkscape:pageshadow="2"
     inkscape:zoom="1.4142136"
     inkscape:cx="171.56414"
     inkscape:cy="-12.943886"
     inkscape:document-units="mm"
     inkscape:current-layer="layer3"
     showgrid="false"
     fit-margin-top="0"
     fit-margin-left="0"
     fit-margin-right="0"
     fit-margin-bottom="0"
     inkscape:window-width="1920"
     inkscape:window-height="1017"
     inkscape:window-x="-8"
     inkscape:window-y="-8"
     inkscape:window-maximized="1"
     showguides="false"
     inkscape:object-nodes="true"
     units="px"
     inkscape:snap-page="true"
     inkscape:document-rotation="0" />
  <metadata
     id="metadata5">
    <rdf:RDF>
      <cc:Work
         rdf:about="">
        <dc:format>image/svg+xml</dc:format>
        <dc:type
           rdf:resource="http://purl.org/dc/dcmitype/StillImage" />
        <dc:title></dc:title>
      </cc:Work>
    </rdf:RDF>
  </metadata>
  <g
     inkscape:label="Layer 1"
     inkscape:groupmode="layer"
     id="layer1"
     transform="translate(249.80447,-91.409467)">
    <rect
       y="91.40947"
       x="-249.80447"
       height="52.916668"
       width="52.916668"
       id="rect5238-5"
       style="fill:#222222;fill-opacity:1;fill-rule:nonzero;stroke:none;stroke-width:0.5;stroke-linecap:butt;stroke-linejoin:round;stroke-miterlimit:4;stroke-dasharray:none;stroke-dashoffset:0;stroke-opacity:0.909449;paint-order:normal"
       rx="3.96875"
       ry="3.96875" />
    <path
       id="rect5240-3"
       style="fill:#000000;fill-opacity:1;fill-rule:nonzero;stroke:none;stroke-width:0.5;stroke-linecap:butt;stroke-linejoin:round;stroke-miterlimit:4;stroke-dasharray:none;stroke-dashoffset:0;stroke-opacity:0.909449;paint-order:normal"
       d="m -244.5128,94.055298 h 42.33334 c 1.46579,0 2.64583,1.180041 2.64583,2.645833 v 42.333329 c 0,1.4658 -1.18004,2.64584 -2.64583,2.64584 h -42.33334 c -1.46579,0 -2.64583,-1.18004 -2.64583,-2.64584 V 96.701131 c 0,-1.465792 1.18004,-2.645833 2.64583,-2.645833 z" />
    <path
       id="path897"
       style="fill:#ffffff;fill-opacity:1;fill-rule:nonzero;stroke:none;stroke-width:0.5;stroke-linecap:butt;stroke-linejoin:round;stroke-miterlimit:4;stroke-dasharray:none;stroke-dashoffset:0;stroke-opacity:0.909449;paint-order:normal"
       d="m -244.5128,94.055298 h 42.33334 c 1.46579,0 2.64583,1.180041 2.64583,2.645833 v 25.399999 h -47.625 V 96.701131 c 0,-1.465792 1.18004,-2.645833 2.64583,-2.645833 z"
       sodipodi:nodetypes="sssccss" />
    <path
       id="path899"
       style="fill:#000000;fill-opacity:1;fill-rule:nonzero;stroke:none;stroke-width:0.5;stroke-linecap:butt;stroke-linejoin:round;stroke-miterlimit:4;stroke-dasharray:none;stroke-dashoffset:0;stroke-opacity:0.909449;paint-order:normal"
       d="m -244.5128,94.055298 h 42.33334 c 1.46579,0 2.64583,1.180041 2.64583,2.645833 v 18.520829 h -47.625 V 96.701131 c 0,-1.465792 1.18004,-2.645833 2.64583,-2.645833 z"
       sodipodi:nodetypes="sssccss" />
    <path
       id="path901"
       style="fill:#ffffff;fill-opacity:1;fill-rule:nonzero;stroke:none;stroke-width:0.5;stroke-linecap:butt;stroke-linejoin:round;stroke-miterlimit:4;stroke-dasharray:none;stroke-dashoffset:0;stroke-opacity:0.909449;paint-order:normal"
       d="m -244.5128,94.055298 h 42.33334 c 1.46579,0 2.64583,1.180041 2.64583,2.645833 v 11.112499 h -47.625 V 96.701131 c 0,-1.465792 1.18004,-2.645833 2.64583,-2.645833 z"
       sodipodi:nodetypes="sssccss" />
    <path
       id="path903"
       style="fill:#000000;fill-opacity:1;fill-rule:nonzero;stroke:none;stroke-width:0.5;stroke-linecap:butt;stroke-linejoin:round;stroke-miterlimit:4;stroke-dasharray:none;stroke-dashoffset:0;stroke-opacity:0.909449;paint-order:normal"
       d="m -244.5128,94.055298 h 42.33334 c 1.46579,0 2.64583,1.180041 2.64583,2.645833 v 4.233329 h -47.625 v -4.233329 c 0,-1.465792 1.18004,-2.645833 2.64583,-2.645833 z"
       sodipodi:nodetypes="sssccss" />
    <path
       id="path905"
       style="fill:#32b5d4;fill-opacity:1;fill-rule:nonzero;stroke:none;stroke-width:0.5;stroke-linecap:butt;stroke-linejoin:round;stroke-miterlimit:4;stroke-dasharray:none;stroke-dashoffset:0;stroke-opacity:0.909449;paint-order:normal"
       d="m -224.40446,111.5178 -22.75417,16.93333 V 96.701131 c 0,-0.732896 0.29501,-1.394354 0.77324,-1.872588 z"
       sodipodi:nodetypes="ccscc" />
    <rect
       style="fill:#32b5d4;fill-opacity:1;stroke-width:1.265;stroke-linecap:round;paint-order:stroke fill markers"
       id="rect907"
       width="10.383423"
       height="5.4723406"
       x="-236.75504"
       y="119.19213" />
    <path
       id="rect909"
       style="fill:#32b5d4;fill-opacity:1;stroke-width:1.265;stroke-linecap:round;paint-order:stroke fill markers"
       d="m -222.39598,118.95827 c 3.94201,-1.1719 7.71924,-0.94322 11.41241,0 v 5.7062 h -11.41241 z"
       sodipodi:nodetypes="ccccc" />
    <text
       xml:space="preserve"
       id="text912"
       style="fill:black;fill-opacity:1;line-height:1.25;stroke:none;font-family:sans-serif;font-style:normal;font-weight:normal;font-size:10.58333333px;white-space:pre;shape-inside:url(#rect914);" />
  </g>
  <g
     inkscape:groupmode="layer"
     id="layer3"
     inkscape:label="Layer 2"
     style="display:inline">
    <g
       id="g1185"
       transform="matrix(1.3735175,0,0,1.3735175,-166.79459,-247.33305)"
       style="fill:#222222;fill-opacity:1;stroke-width:0.728058">
      <path
         id="path1170"
         style="fill:#222222;fill-opacity:1;stroke-width:0.728057"
         d="m 153.30909,196.94725 c 0.89091,0.0828 0.0415,1.72692 0.65522,2.3742 0.26883,1.49036 0.1124,3.02472 0.14855,4.53571 -0.26203,1.00816 -0.31027,2.63354 -0.73216,3.30562 -8.51051,0 -17.02101,0 -25.53152,0 0.006,-1.29417 -0.0628,-2.59533 0.2091,-3.86658 0.10474,-1.06331 -0.0202,-2.14738 0.2432,-3.19097 -0.3662,-1.66844 1.97937,-0.26239 2.87319,-0.63822 1.61065,0.0503 3.24156,-0.14203 4.82704,0.2123 1.49917,0.24045 2.95233,-0.22133 4.44367,-0.2311 1.41751,-0.39495 2.87697,-0.4857 4.32541,-0.7106 1.26351,-0.0247 2.50057,-0.23614 3.73421,-0.479 1.57756,-0.52375 3.19222,-0.90614 4.80272,-1.3117 m -16.84121,6.69237 c 1.36387,-0.18816 1.03573,-2.39404 -0.12205,-2.68639 -1.15395,-0.76048 -2.65274,-0.80828 -3.82925,-0.0699 -0.94691,0.52145 -1.68463,2.49604 -0.0286,2.53586 1.29071,0.363 2.65651,0.34772 3.98005,0.2193 m 11.15931,-0.006 c 0.92271,-0.58102 0.10043,-2.38624 -0.67824,-2.96673 -0.91351,-0.74058 -2.55191,-1.34546 -3.44508,-0.26999 -0.68891,0.75718 -1.74442,1.42399 -1.74546,2.55097 0.4205,1.05347 1.76342,0.70113 2.6741,0.76605 1.06433,-0.0259 2.13841,0.0663 3.19462,-0.08" />
      <path
         id="path1168"
         style="fill:#222222;fill-opacity:1;stroke-width:0.728057"
         d="m 139.49189,195.36269 c 2.06062,-0.24673 4.14779,-0.0992 6.22146,-0.1397 1.53509,0.01 3.10991,-0.12362 4.56028,0.5007 0.597,0.0519 1.62131,0.54321 0.43641,0.6847 -1.3741,0.28253 -2.66436,0.87607 -4.06536,1.0355 -1.52093,0.17792 -3.04922,0.32211 -4.57568,0.4801 -1.38946,0.48445 -2.84444,0.44253 -4.2745,0.69032 -1.38309,0.21197 -2.7316,-0.342 -4.12161,-0.20723 -1.63352,-0.033 -3.28313,0.11721 -4.89259,-0.2188 -0.53479,0.091 -1.60456,-0.298 -0.51345,-0.52894 1.42874,-0.80328 3.15603,-0.7521 4.61268,-1.5047 1.45553,-0.31339 2.93783,-0.37795 4.40086,-0.6375 0.73958,-0.0636 1.48454,0.0355 2.21146,-0.1547" />
      <path
         id="path1166"
         style="fill:#222222;fill-opacity:1;stroke-width:0.728057"
         d="m 135.8548,185.8348 c 1.37817,-0.28998 2.80946,-0.11578 4.2134,-0.1638 0.92852,0.007 1.87232,-0.0613 2.76919,0.2263 1.49903,-0.10299 2.87089,0.48618 4.25685,0.9431 1.41664,0.69048 2.9173,1.29593 4.10671,2.35703 1.17729,0.77812 2.26952,1.66573 3.37698,2.53587 0.89433,0.71953 1.94728,2.08437 0.99037,3.16608 -1.04001,0.9125 -2.53181,0.96712 -3.67784,0.22496 -1.23822,-0.41876 -2.48299,-1.00075 -3.81645,-0.9632 -2.80652,0.0212 -5.61689,-0.0438 -8.42085,0.035 -1.48788,0.27115 -3.00373,0.28892 -4.50189,0.4927 -1.38364,-0.0476 -2.68569,0.43567 -3.98317,0.8182 -1.15867,0.57424 -2.67472,0.71462 -3.3503,-0.64061 -0.38622,-0.94673 -2.25364,-1.9082 -1.05207,-2.92876 0.62047,-0.80496 1.2537,-1.59886 2.0119,-2.28606 0.90469,-0.98086 1.91464,-1.86276 3.12214,-2.45339 1.06988,-0.47198 2.19877,-1.04632 3.37003,-1.14466 0.19147,-0.0816 0.38645,-0.15521 0.58473,-0.2186" />
    </g>
    <path
       inkscape:connector-curvature="0"
       id="path5244-6"
       d="m -248.34926,128.45114 v 8.33437 c 0,3.07816 2.47808,5.55625 5.55625,5.55625 h 38.89375 c 3.07816,0 5.55625,-2.47809 5.55625,-5.55625 v -8.33437 z"
       style="fill:#222222;fill-opacity:1;fill-rule:nonzero;stroke:none;stroke-width:0.5;stroke-linecap:butt;stroke-linejoin:round;stroke-miterlimit:4;stroke-dasharray:none;stroke-dashoffset:0;stroke-opacity:0.909449;paint-order:normal"
       transform="translate(249.80447,-91.409467)" />
    <g
       aria-label="DISCRIMINATORY"
       transform="translate(63.535258,15.51223)"
       id="text949"
       style="font-style:normal;font-weight:normal;font-size:4.93889px;line-height:1.25;font-family:sans-serif;white-space:pre;shape-inside:url(#rect951);fill:#32b5d4;fill-opacity:1;stroke:none">
      <path
         d="m -59.783432,26.746141 h 1.570568 q 0.563033,0 0.992716,0.217311 0.434623,0.212373 0.671689,0.602545 0.242006,0.390172 0.242006,0.908756 0,0.518583 -0.242006,0.908756 -0.237066,0.390172 -0.671689,0.607483 -0.429683,0.212372 -0.992716,0.212372 h -1.570568 z m 1.531056,2.800351 q 0.518584,0 0.824795,-0.286456 0.31115,-0.291394 0.31115,-0.785283 0,-0.493889 -0.31115,-0.780345 -0.306211,-0.291394 -0.824795,-0.291394 h -0.730955 v 2.143478 z"
         style="font-style:normal;font-variant:normal;font-weight:bold;font-stretch:normal;font-size:4.93889px;font-family:Montserrat;-inkscape-font-specification:'Montserrat Bold';fill:#32b5d4;fill-opacity:1"
         id="path955" />
      <path
         d="m -55.703917,26.746141 h 0.800101 v 3.457223 h -0.800101 z"
         style="font-style:normal;font-variant:normal;font-weight:bold;font-stretch:normal;font-size:4.93889px;font-family:Montserrat;-inkscape-font-specification:'Montserrat Bold';fill:#32b5d4;fill-opacity:1"
         id="path957" />
      <path
         d="m -52.94802,30.262631 q -0.409928,0 -0.795161,-0.108656 -0.380295,-0.113594 -0.612423,-0.291394 l 0.271639,-0.602545 q 0.22225,0.162984 0.528461,0.261761 0.306212,0.09878 0.612423,0.09878 0.340783,0 0.503767,-0.09878 0.162983,-0.103716 0.162983,-0.271638 0,-0.123473 -0.09878,-0.202495 -0.09384,-0.08396 -0.246944,-0.13335 -0.148167,-0.04939 -0.404989,-0.108656 -0.395112,-0.09384 -0.646995,-0.187677 -0.251883,-0.09384 -0.434622,-0.301273 -0.1778,-0.207433 -0.1778,-0.553155 0,-0.301273 0.162983,-0.543278 0.162983,-0.246945 0.48895,-0.390173 0.330906,-0.143227 0.805039,-0.143227 0.330906,0 0.646995,0.07902 0.316089,0.07902 0.553156,0.227189 l -0.246945,0.607483 q -0.479072,-0.271639 -0.958145,-0.271639 -0.335844,0 -0.498828,0.108656 -0.158044,0.108655 -0.158044,0.286456 0,0.1778 0.182739,0.2667 0.187678,0.08396 0.567972,0.167922 0.395111,0.09384 0.646995,0.187678 0.251883,0.09384 0.429683,0.296333 0.182739,0.202495 0.182739,0.548217 0,0.296333 -0.167922,0.543278 -0.162983,0.242005 -0.493889,0.385233 -0.330906,0.143228 -0.805039,0.143228 z"
         style="font-style:normal;font-variant:normal;font-weight:bold;font-stretch:normal;font-size:4.93889px;font-family:Montserrat;-inkscape-font-specification:'Montserrat Bold';fill:#32b5d4;fill-opacity:1"
         id="path959" />
      <path
         d="m -49.278432,30.262631 q -0.528461,0 -0.958145,-0.227189 -0.424744,-0.232128 -0.671689,-0.637117 -0.242005,-0.409928 -0.242005,-0.923572 0,-0.513645 0.242005,-0.918634 0.246945,-0.409928 0.671689,-0.637117 0.429684,-0.232127 0.963084,-0.232127 0.449439,0 0.809978,0.158044 0.365478,0.158045 0.612422,0.454378 l -0.513644,0.474133 q -0.350661,-0.404989 -0.869245,-0.404989 -0.321028,0 -0.572911,0.143228 -0.251883,0.138289 -0.395111,0.390173 -0.138289,0.251883 -0.138289,0.572911 0,0.321028 0.138289,0.572911 0.143228,0.251883 0.395111,0.395111 0.251883,0.138289 0.572911,0.138289 0.518584,0 0.869245,-0.409928 l 0.513644,0.474134 q -0.246944,0.301272 -0.612422,0.459316 -0.365478,0.158045 -0.814917,0.158045 z"
         style="font-style:normal;font-variant:normal;font-weight:bold;font-stretch:normal;font-size:4.93889px;font-family:Montserrat;-inkscape-font-specification:'Montserrat Bold';fill:#32b5d4;fill-opacity:1"
         id="path961" />
      <path
         d="m -45.11001,30.203364 -0.66675,-0.963083 h -0.03951 -0.696384 v 0.963083 h -0.8001 v -3.457223 h 1.496484 q 0.459316,0 0.795161,0.153106 0.340783,0.153105 0.523522,0.434622 0.182739,0.281517 0.182739,0.66675 0,0.385234 -0.187678,0.66675 -0.182739,0.276578 -0.523522,0.424745 l 0.775406,1.11125 z m -0.01482,-2.202745 q 0,-0.291394 -0.187678,-0.4445 -0.187677,-0.158044 -0.548216,-0.158044 h -0.651934 v 1.205089 h 0.651934 q 0.360539,0 0.548216,-0.158045 0.187678,-0.158044 0.187678,-0.4445 z"
         style="font-style:normal;font-variant:normal;font-weight:bold;font-stretch:normal;font-size:4.93889px;font-family:Montserrat;-inkscape-font-specification:'Montserrat Bold';fill:#32b5d4;fill-opacity:1"
         id="path963" />
      <path
         d="m -43.682678,26.746141 h 0.8001 v 3.457223 h -0.8001 z"
         style="font-style:normal;font-variant:normal;font-weight:bold;font-stretch:normal;font-size:4.93889px;font-family:Montserrat;-inkscape-font-specification:'Montserrat Bold';fill:#ffffff;fill-opacity:1"
         id="path965" />
      <path
         d="m -38.916652,30.203364 -0.0049,-2.074334 -1.017411,1.708856 h -0.360539 l -1.012472,-1.664406 v 2.029884 h -0.750712 v -3.457223 h 0.661812 l 1.293989,2.148417 1.274233,-2.148417 h 0.656873 l 0.0099,3.457223 z"
         style="font-style:normal;font-variant:normal;font-weight:bold;font-stretch:normal;font-size:4.93889px;font-family:Montserrat;-inkscape-font-specification:'Montserrat Bold';fill:#32b5d4;fill-opacity:1"
         id="path967" />
      <path
         d="m -37.346086,26.746141 h 0.8001 v 3.457223 h -0.8001 z"
         style="font-style:normal;font-variant:normal;font-weight:bold;font-stretch:normal;font-size:4.93889px;font-family:Montserrat;-inkscape-font-specification:'Montserrat Bold';fill:#ffffff;fill-opacity:1"
         id="path969" />
      <path
         d="m -32.555367,26.746141 v 3.457223 h -0.656873 l -1.723672,-2.099028 v 2.099028 h -0.790223 v -3.457223 h 0.661812 l 1.718733,2.099029 v -2.099029 z"
         style="font-style:normal;font-variant:normal;font-weight:bold;font-stretch:normal;font-size:4.93889px;font-family:Montserrat;-inkscape-font-specification:'Montserrat Bold';fill:#32b5d4;fill-opacity:1"
         id="path971" />
      <path
         d="m -29.458691,29.462531 h -1.605139 l -0.306211,0.740833 h -0.819856 l 1.540934,-3.457223 h 0.790222 l 1.545873,3.457223 h -0.839611 z m -0.251883,-0.607484 -0.548217,-1.323622 -0.548217,1.323622 z"
         style="font-style:normal;font-variant:normal;font-weight:bold;font-stretch:normal;font-size:4.93889px;font-family:Montserrat;-inkscape-font-specification:'Montserrat Bold';fill:#ffffff;fill-opacity:1"
         id="path973" />
      <path
         d="m -27.409065,27.398075 h -1.106311 v -0.651934 h 3.012723 v 0.651934 h -1.106311 v 2.805289 h -0.800101 z"
         style="font-style:normal;font-variant:normal;font-weight:bold;font-stretch:normal;font-size:4.93889px;font-family:Montserrat;-inkscape-font-specification:'Montserrat Bold';fill:#32b5d4;fill-opacity:1"
         id="path975" />
      <path
         d="m -23.448084,30.262631 q -0.538339,0 -0.972961,-0.232128 -0.429683,-0.232128 -0.676628,-0.637117 -0.242006,-0.409928 -0.242006,-0.918633 0,-0.508706 0.242006,-0.913695 0.246945,-0.409928 0.676628,-0.642056 0.434622,-0.232127 0.972961,-0.232127 0.538339,0 0.968023,0.232127 0.429683,0.232128 0.676628,0.642056 0.246944,0.404989 0.246944,0.913695 0,0.508705 -0.246944,0.918633 -0.246945,0.404989 -0.676628,0.637117 -0.429684,0.232128 -0.968023,0.232128 z m 0,-0.681567 q 0.306212,0 0.553156,-0.138289 0.246945,-0.143228 0.385233,-0.395111 0.143228,-0.251883 0.143228,-0.572911 0,-0.321028 -0.143228,-0.572911 -0.138288,-0.251884 -0.385233,-0.390173 -0.246944,-0.143228 -0.553156,-0.143228 -0.306211,0 -0.553155,0.143228 -0.246945,0.138289 -0.390173,0.390173 -0.138289,0.251883 -0.138289,0.572911 0,0.321028 0.138289,0.572911 0.143228,0.251883 0.390173,0.395111 0.246944,0.138289 0.553155,0.138289 z"
         style="font-style:normal;font-variant:normal;font-weight:bold;font-stretch:normal;font-size:4.93889px;font-family:Montserrat;-inkscape-font-specification:'Montserrat Bold';fill:#ffffff;fill-opacity:1"
         id="path977" />
      <path
         d="m -18.7512,30.203364 -0.66675,-0.963083 h -0.03951 -0.696383 v 0.963083 h -0.800101 v -3.457223 h 1.496484 q 0.459317,0 0.795161,0.153106 0.340784,0.153105 0.523523,0.434622 0.182739,0.281517 0.182739,0.66675 0,0.385234 -0.187678,0.66675 -0.182739,0.276578 -0.523523,0.424745 l 0.775406,1.11125 z m -0.01482,-2.202745 q 0,-0.291394 -0.187678,-0.4445 -0.187678,-0.158044 -0.548217,-0.158044 h -0.651933 v 1.205089 h 0.651933 q 0.360539,0 0.548217,-0.158045 0.187678,-0.158044 0.187678,-0.4445 z"
         style="font-style:normal;font-variant:normal;font-weight:bold;font-stretch:normal;font-size:4.93889px;font-family:Montserrat;-inkscape-font-specification:'Montserrat Bold';fill:#32b5d4;fill-opacity:1"
         id="path979" />
      <path
         d="m -15.713793,28.97852 v 1.224844 h -0.8001 v -1.234722 l -1.338439,-2.222501 h 0.849489 l 0.923572,1.535995 0.923573,-1.535995 h 0.785283 z"
         style="font-style:normal;font-variant:normal;font-weight:bold;font-stretch:normal;font-size:4.93889px;font-family:Montserrat;-inkscape-font-specification:'Montserrat Bold';fill:#ffffff;fill-opacity:1"
         id="path981" />
    </g>
  </g>
</svg>
