<?xml version="1.0" encoding="UTF-8" standalone="no"?>
<svg
   xmlns:dc="http://purl.org/dc/elements/1.1/"
   xmlns:cc="http://creativecommons.org/ns#"
   xmlns:rdf="http://www.w3.org/1999/02/22-rdf-syntax-ns#"
   xmlns:svg="http://www.w3.org/2000/svg"
   xmlns="http://www.w3.org/2000/svg"
   xmlns:sodipodi="http://sodipodi.sourceforge.net/DTD/sodipodi-0.dtd"
   xmlns:inkscape="http://www.inkscape.org/namespaces/inkscape"
   width="200"
   height="200"
   viewBox="0 0 52.916668 52.916666"
   version="1.1"
   id="svg8"
   inkscape:version="1.0.2-2 (e86c870879, 2021-01-15)"
   sodipodi:docname="disliked.svg">
  <defs
     id="defs2">
    <rect
       x="-55.959375"
       y="18.917708"
       width="55.959375"
       height="25.664584"
       id="rect887" />
    <rect
       x="14.780005"
       y="42.001406"
       width="38.136662"
       height="10.91526"
       id="rect983" />
    <rect
       x="-245.70343"
       y="111.31936"
       width="65.484375"
       height="18.71927"
       id="rect868" />
    <rect
       x="-268.4576"
       y="130.43551"
       width="120.12083"
       height="27.384375"
       id="rect867" />
    <inkscape:path-effect
       effect="envelope"
       id="path-effect4658"
       is_visible="true"
       yy="true"
       xx="true"
       bendpath1="m -199.08406,108.42369 h 7.0057"
       bendpath2="m -192.07836,108.42369 v 6.75242"
       bendpath3="m -199.08406,115.17611 h 7.0057"
       bendpath4="m -199.08406,108.42369 v 6.75242" />
    <inkscape:path-effect
       effect="bend_path"
       id="path-effect4656"
       is_visible="true"
       bendpath="m -192.00142,114.60623 c 2.12577,-0.53066 4.48261,0.85111 7.0057,0"
       prop_scale="1"
       scale_y_rel="false"
       vertical="false"
       bendpath-nodetypes="cc" />
    <inkscape:path-effect
       effect="bounding_box"
       id="path-effect4654"
       is_visible="true"
       linkedpath=""
       visualbounds="false" />
  </defs>
  <sodipodi:namedview
     id="base"
     pagecolor="#ffffff"
     bordercolor="#666666"
     borderopacity="1.0"
     inkscape:pageopacity="0.0"
     inkscape:pageshadow="2"
     inkscape:zoom="4"
     inkscape:cx="61.044607"
     inkscape:cy="98.324771"
     inkscape:document-units="mm"
     inkscape:current-layer="layer5"
     showgrid="false"
     fit-margin-top="0"
     fit-margin-left="0"
     fit-margin-right="0"
     fit-margin-bottom="0"
     inkscape:window-width="1920"
     inkscape:window-height="1017"
     inkscape:window-x="-8"
     inkscape:window-y="-8"
     inkscape:window-maximized="1"
     showguides="false"
     inkscape:object-nodes="true"
     units="px"
     inkscape:snap-page="true"
     inkscape:document-rotation="0" />
  <metadata
     id="metadata5">
    <rdf:RDF>
      <cc:Work
         rdf:about="">
        <dc:format>image/svg+xml</dc:format>
        <dc:type
           rdf:resource="http://purl.org/dc/dcmitype/StillImage" />
        <dc:title />
      </cc:Work>
    </rdf:RDF>
  </metadata>
  <g
     inkscape:groupmode="layer"
     id="layer5"
     inkscape:label="Final layer"
     style="display:inline">
    <path
       id="rect5238-5"
       style="fill:#222222;fill-opacity:1;fill-rule:nonzero;stroke:none;stroke-width:0.5;stroke-linecap:butt;stroke-linejoin:round;stroke-miterlimit:4;stroke-dasharray:none;stroke-dashoffset:0;stroke-opacity:0.909449;paint-order:normal"
       transform="translate(249.80447,-91.409467)"
       d="m -245.83572,91.40947 h 44.97916 c 2.19869,0 3.96875,1.770062 3.96875,3.96875 v 44.97917 c 0,2.19869 -1.77006,3.96875 -3.96875,3.96875 h -44.97916 c -2.19869,0 -3.96875,-1.77006 -3.96875,-3.96875 V 95.37822 c 0,-2.198688 1.77006,-3.96875 3.96875,-3.96875 z" />
    <path
       id="rect5240-3"
       style="display:inline;fill:#5bcffa;fill-opacity:1;fill-rule:nonzero;stroke:none;stroke-width:0.5;stroke-linecap:butt;stroke-linejoin:round;stroke-miterlimit:4;stroke-dasharray:none;stroke-dashoffset:0;stroke-opacity:0.909449;paint-order:normal"
       transform="translate(249.80447,-91.409467)"
       d="m -244.5128,94.055298 h 42.33334 c 1.46579,0 2.64583,1.180041 2.64583,2.645833 v 42.333329 c 0,1.4658 -1.18004,2.64584 -2.64583,2.64584 h -42.33334 c -1.46579,0 -2.64583,-1.18004 -2.64583,-2.64584 V 96.701131 c 0,-1.465792 1.18004,-2.645833 2.64583,-2.645833 z" />
    <path
       id="path944"
       style="display:inline;fill:#f5abb9;fill-opacity:1;fill-rule:nonzero;stroke:none;stroke-width:0.5;stroke-linecap:butt;stroke-linejoin:round;stroke-miterlimit:4;stroke-dasharray:none;stroke-dashoffset:0;stroke-opacity:0.909449;paint-order:normal"
       d="M 50.27084,8.1713575 V 47.639609 c 0,1.457703 -1.18004,2.631224 -2.64583,2.631224 H 5.29167 c -1.46579,0 -2.64583,-1.173521 -2.64583,-2.631224 V 8.1713575 Z"
       sodipodi:nodetypes="csssscc" />
    <path
       id="path946"
       style="display:inline;fill:#ffffff;fill-opacity:1;fill-rule:nonzero;stroke:none;stroke-width:0.5;stroke-linecap:butt;stroke-linejoin:round;stroke-miterlimit:4;stroke-dasharray:none;stroke-dashoffset:0;stroke-opacity:0.909449;paint-order:normal"
       d="M 50.27084,9.1684194 V 47.376286 c 0,1.603581 -1.18004,2.894542 -2.64583,2.894542 H 5.29167 c -1.46579,0 -2.64583,-1.290961 -2.64583,-2.894542 V 9.1684194 Z"
       sodipodi:nodetypes="csssscc" />
    <path
       id="path952"
       style="display:inline;fill:#f5abb9;fill-opacity:1;fill-rule:nonzero;stroke:none;stroke-width:0.5;stroke-linecap:butt;stroke-linejoin:round;stroke-miterlimit:4;stroke-dasharray:none;stroke-dashoffset:0;stroke-opacity:0.909449;paint-order:normal"
       d="m 50.27084,29.834925 v 18.059634 c 0,1.31646 -1.18004,2.376274 -2.64583,2.376274 H 5.29167 c -1.46579,0 -2.64583,-1.059814 -2.64583,-2.376274 V 29.834925 Z"
       sodipodi:nodetypes="csssscc" />
    <path
       id="path954"
       style="display:inline;fill:#5bcffa;fill-opacity:1;fill-rule:nonzero;stroke:none;stroke-width:0.5;stroke-linecap:butt;stroke-linejoin:round;stroke-miterlimit:4;stroke-dasharray:none;stroke-dashoffset:0;stroke-opacity:0.909449;paint-order:normal"
       d="m 50.27084,30.855945 v 16.559753 c 0,1.581751 -1.18004,2.855137 -2.64583,2.855137 H 5.29167 c -1.46579,0 -2.64583,-1.273386 -2.64583,-2.855137 V 30.855945 Z"
       sodipodi:nodetypes="csssscc" />
    <path
       inkscape:connector-curvature="0"
       id="path5244-6"
       d="m -248.34926,128.45114 v 8.33437 c 0,3.07816 2.47808,5.55625 5.55625,5.55625 h 38.89375 c 3.07816,0 5.55625,-2.47809 5.55625,-5.55625 v -8.33437 z"
       style="display:inline;fill:#222222;fill-opacity:1;fill-rule:nonzero;stroke:none;stroke-width:0.5;stroke-linecap:butt;stroke-linejoin:round;stroke-miterlimit:4;stroke-dasharray:none;stroke-dashoffset:0;stroke-opacity:0.909449;paint-order:normal"
       transform="translate(249.80447,-91.409467)" />
    <text
       xml:space="preserve"
       id="text981"
       style="font-style:normal;font-weight:normal;font-size:4.23333333px;line-height:1.25;font-family:sans-serif;white-space:pre;shape-inside:url(#rect983);fill:#000000;fill-opacity:1;stroke:none;" />
    <g
       aria-label="DISLIKED"
       transform="translate(57.698211,19.447634)"
       id="text885"
       style="font-style:normal;font-weight:normal;font-size:9.87778px;line-height:1.25;font-family:sans-serif;white-space:pre;shape-inside:url(#rect887);fill:#000000;fill-opacity:1;stroke:none">
      <path
         d="m -55.139129,21.082126 h 3.141134 q 1.126067,0 1.985434,0.434623 0.869245,0.424744 1.343378,1.205089 0.484011,0.780344 0.484011,1.817511 0,1.037167 -0.484011,1.817512 -0.474133,0.780344 -1.343378,1.214967 -0.859367,0.424744 -1.985434,0.424744 h -3.141134 z m 3.062112,5.600702 q 1.037167,0 1.649589,-0.572912 0.622301,-0.582789 0.622301,-1.570567 0,-0.987778 -0.622301,-1.560689 -0.612422,-0.582789 -1.649589,-0.582789 h -1.461911 v 4.286957 z"
         style="font-style:normal;font-variant:normal;font-weight:bold;font-stretch:normal;font-size:9.87778px;font-family:Montserrat;-inkscape-font-specification:'Montserrat Bold';fill:#5bcffa;fill-opacity:1"
         id="path891" />
      <path
         d="m -46.980099,21.082126 h 1.600201 v 6.914446 h -1.600201 z"
         style="font-style:normal;font-variant:normal;font-weight:bold;font-stretch:normal;font-size:9.87778px;font-family:Montserrat;-inkscape-font-specification:'Montserrat Bold';fill:#f5abb9;fill-opacity:1"
         id="path893" />
      <path
         d="m -41.468306,28.115106 q -0.819856,0 -1.590322,-0.217312 -0.760589,-0.227188 -1.224845,-0.582789 l 0.543278,-1.205089 q 0.4445,0.325967 1.056922,0.523523 0.612423,0.197555 1.224845,0.197555 0.681567,0 1.007533,-0.197555 0.325967,-0.207434 0.325967,-0.543278 0,-0.246945 -0.197555,-0.404989 -0.187678,-0.167922 -0.493889,-0.2667 -0.296334,-0.09878 -0.809978,-0.217311 -0.790223,-0.187678 -1.293989,-0.375356 -0.503767,-0.187678 -0.869245,-0.602545 -0.3556,-0.414866 -0.3556,-1.106311 0,-0.602545 0.325967,-1.086556 0.325966,-0.493889 0.9779,-0.780344 0.661811,-0.286456 1.610078,-0.286456 0.661811,0 1.293989,0.158044 0.632178,0.158045 1.106311,0.454378 l -0.493889,1.214967 q -0.958144,-0.543278 -1.916289,-0.543278 -0.671689,0 -0.997656,0.217312 -0.316089,0.217311 -0.316089,0.572911 0,0.3556 0.365478,0.5334 0.375356,0.167922 1.135945,0.335844 0.790222,0.187678 1.293989,0.375356 0.503767,0.187678 0.859367,0.592667 0.365478,0.404989 0.365478,1.096433 0,0.592667 -0.335845,1.086556 -0.325966,0.484011 -0.987778,0.770467 -0.661811,0.286456 -1.610078,0.286456 z"
         style="font-style:normal;font-variant:normal;font-weight:bold;font-stretch:normal;font-size:9.87778px;font-family:Montserrat;-inkscape-font-specification:'Montserrat Bold';fill:#ffffff;fill-opacity:1"
         id="path895" />
      <path
         d="m -37.438186,21.082126 h 1.600201 v 5.610579 h 3.4671 v 1.303867 h -5.067301 z"
         style="font-style:normal;font-variant:normal;font-weight:bold;font-stretch:normal;font-size:9.87778px;font-family:Montserrat;-inkscape-font-specification:'Montserrat Bold';fill:#ffffff;fill-opacity:1"
         id="path897" />
      <path
         d="m -31.472026,21.082126 h 1.600201 v 6.914446 h -1.600201 z"
         style="font-style:normal;font-variant:normal;font-weight:bold;font-stretch:normal;font-size:9.87778px;font-family:Montserrat;-inkscape-font-specification:'Montserrat Bold';fill:#ffffff;fill-opacity:1"
         id="path899" />
      <path
         d="m -25.713288,25.280183 -0.928511,0.968022 v 1.748367 h -1.590322 v -6.914446 h 1.590322 v 3.230034 l 3.062112,-3.230034 h 1.778 l -2.864556,3.081868 3.032479,3.832578 h -1.866901 z"
         style="font-style:normal;font-variant:normal;font-weight:bold;font-stretch:normal;font-size:9.87778px;font-family:Montserrat;-inkscape-font-specification:'Montserrat Bold';fill:#ffffff;fill-opacity:1"
         id="path901" />
      <path
         d="m -15.568812,26.712461 v 1.284111 h -5.353756 v -6.914446 h 5.225345 v 1.284112 h -3.635023 v 1.501422 h 3.210279 v 1.244601 h -3.210279 v 1.6002 z"
         style="font-style:normal;font-variant:normal;font-weight:bold;font-stretch:normal;font-size:9.87778px;font-family:Montserrat;-inkscape-font-specification:'Montserrat Bold';fill:#f5abb9;fill-opacity:1"
         id="path903" />
      <path
         d="m -14.294581,21.082126 h 3.141134 q 1.126067,0 1.9854334,0.434623 0.8692447,0.424744 1.3433781,1.205089 0.4840112,0.780344 0.4840112,1.817511 0,1.037167 -0.4840112,1.817512 -0.4741334,0.780344 -1.3433781,1.214967 -0.8593664,0.424744 -1.9854334,0.424744 h -3.141134 z m 3.062111,5.600702 q 1.037167,0 1.6495897,-0.572912 0.6223001,-0.582789 0.6223001,-1.570567 0,-0.987778 -0.6223001,-1.560689 -0.6124227,-0.582789 -1.6495897,-0.582789 h -1.461911 v 4.286957 z"
         style="font-style:normal;font-variant:normal;font-weight:bold;font-stretch:normal;font-size:9.87778px;font-family:Montserrat;-inkscape-font-specification:'Montserrat Bold';fill:#5bcffa;fill-opacity:1"
         id="path905" />
    </g>
    <path
       id="path13"
       d="m 34.149733,9.5914171 c -0.04337,-0.0048 -0.08588,-0.005 -0.127953,7.28e-4 -0.268627,0.02238 -2.047843,1.7787489 -3.296142,3.3060939 -0.442179,-0.22652 -0.891857,-0.412002 -1.180698,-0.467019 -1.45579,-0.254764 -2.947834,-0.291443 -4.403623,-0.109466 -1.892528,0.327553 -3.784772,0.582601 -5.53172,1.565259 -1.237421,0.76429 -2.365516,1.746805 -3.31178,2.947832 -1.091843,1.346607 -1.456358,2.43845 -2.220648,4.185398 -1.128238,2.620424 -1.746807,4.803966 -2.037965,9.134944 -0.145579,2.547633 0,4.986081 0.727895,7.278951 1.348932,1.147888 17.784479,1.240886 24.966662,0.810352 2.729605,-0.509527 2.9484,-6.487509 2.620848,-9.471878 -0.181975,-1.81974 -0.327411,-4.003852 -1.128096,-5.532431 -0.03648,-0.07296 -0.07417,-0.138909 -0.111598,-0.202588 l 4.369503,-5.292878 C 42.982319,16.681442 40.418482,16.457412 38.90593,15.865975 38.727179,15.03237 38.113711,14.359429 37.300155,14.104526 36.42552,12.413871 35.132716,9.7003391 34.149733,9.5914341 Z M 31.36468,18.727779 c 0.181974,0 0.364088,0.03611 0.509668,0.0725 0.291157,0.0364 0.582458,0.145722 0.873616,0.327696 0.400343,0.254763 0.728179,0.582031 1.019337,0.982374 0.400342,0.582315 0.690932,1.201453 0.872906,1.892953 0.145579,0.436737 -0.07222,0.836795 -0.508958,0.982375 h -0.03696 c -0.291159,0.0364 -0.618144,0.03625 -0.872906,-0.145722 -0.14558,-0.109177 -0.291585,-0.218368 -0.437164,-0.363947 -0.181974,-0.14558 -0.327694,-0.254764 -0.509669,-0.363948 -0.145578,-0.07279 -0.254621,-0.109329 -0.400199,-0.14572 -0.181975,-0.0364 -0.363949,-0.03626 -0.545922,-0.03626 -0.254764,-0.0364 -0.509385,0.03653 -0.764148,0.145722 -0.363947,0.145578 -0.691216,0.363663 -0.982375,0.618426 -0.07279,0.0364 -0.109191,0.07293 -0.181973,0.145722 -0.291158,0.181973 -0.618711,0.218368 -0.90987,0 -0.254762,-0.181974 -0.400484,-0.509101 -0.327694,-0.836653 0.07279,-0.254763 0.145295,-0.473275 0.254479,-0.691643 0.145579,-0.400342 0.327553,-0.764717 0.545922,-1.165058 0.109177,-0.218369 0.254621,-0.400201 0.400201,-0.582174 0.327553,-0.400343 0.764431,-0.618711 1.237563,-0.727896 0.254763,-0.07279 0.509385,-0.07237 0.764148,-0.108751 z m -10.299292,0.654679 c 0.545922,0 0.982375,0.145864 1.346322,0.473416 0.363948,0.291159 0.655391,0.655249 0.837364,1.05559 0.254764,0.509527 0.436737,1.01877 0.545921,1.528297 0.0364,0.145578 0.0725,0.291015 0.0725,0.400199 0.0364,0.254763 -0.07237,0.509669 -0.290732,0.691643 -0.291157,0.254763 -0.728179,0.218506 -1.019336,-0.03625 l -0.145722,-0.145729 c -0.254762,-0.327553 -0.546063,-0.54578 -0.873615,-0.764148 -0.145579,-0.109177 -0.290874,-0.145579 -0.436454,-0.181973 -0.109191,-0.0364 -0.21851,0 -0.327695,0 -0.145578,0.0364 -0.327126,0.07293 -0.472706,0.14572 -0.291157,0.109178 -0.546488,0.25448 -0.764856,0.436454 -0.109178,0.07279 -0.217944,0.21851 -0.290733,0.327695 -0.109177,0.181974 -0.218368,0.291015 -0.363948,0.400199 -0.254763,0.181974 -0.618852,0.181974 -0.873616,0 -0.254763,-0.181973 -0.400626,-0.50981 -0.291442,-0.837363 l 0.109467,-0.326985 c 0.109177,-0.291157 0.254621,-0.546347 0.400199,-0.80111 0.291159,-0.545922 0.655106,-1.055164 1.091843,-1.528295 0.07279,-0.07279 0.182258,-0.182401 0.291442,-0.255191 0.436737,-0.400341 0.946264,-0.582174 1.45579,-0.582174 z"
       style="display:inline;stroke-width:0.264583;fill:#222222;fill-opacity:1"
       sodipodi:nodetypes="cccccccccccccccccccsccccccccccccccccccccsssccccccccccccccscccccss" />
  </g>
</svg>
