<?xml version="1.0" encoding="UTF-8" standalone="no"?>
<svg
   xmlns:dc="http://purl.org/dc/elements/1.1/"
   xmlns:cc="http://creativecommons.org/ns#"
   xmlns:rdf="http://www.w3.org/1999/02/22-rdf-syntax-ns#"
   xmlns:svg="http://www.w3.org/2000/svg"
   xmlns="http://www.w3.org/2000/svg"
   xmlns:sodipodi="http://sodipodi.sourceforge.net/DTD/sodipodi-0.dtd"
   xmlns:inkscape="http://www.inkscape.org/namespaces/inkscape"
   width="200"
   height="200"
   viewBox="0 0 52.916668 52.916666"
   version="1.1"
   id="svg8"
   inkscape:version="1.0.2-2 (e86c870879, 2021-01-15)"
   sodipodi:docname="prog.svg">
  <defs
     id="defs2">
    <rect
       x="-130.60224"
       y="134.99334"
       width="68.567998"
       height="20.579753"
       id="rect880" />
    <inkscape:path-effect
       effect="envelope"
       id="path-effect4658"
       is_visible="true"
       yy="true"
       xx="true"
       bendpath1="m -199.08406,108.42369 h 7.0057"
       bendpath2="m -192.07836,108.42369 v 6.75242"
       bendpath3="m -199.08406,115.17611 h 7.0057"
       bendpath4="m -199.08406,108.42369 v 6.75242" />
    <inkscape:path-effect
       effect="bend_path"
       id="path-effect4656"
       is_visible="true"
       bendpath="m -192.00142,114.60623 c 2.12577,-0.53066 4.48261,0.85111 7.0057,0"
       prop_scale="1"
       scale_y_rel="false"
       vertical="false"
       bendpath-nodetypes="cc" />
    <inkscape:path-effect
       effect="bounding_box"
       id="path-effect4654"
       is_visible="true"
       linkedpath=""
       visualbounds="false" />
  </defs>
  <sodipodi:namedview
     id="base"
     pagecolor="#ffffff"
     bordercolor="#666666"
     borderopacity="1.0"
     inkscape:pageopacity="0.0"
     inkscape:pageshadow="2"
     inkscape:zoom="0.70710681"
     inkscape:cx="-96.850223"
     inkscape:cy="-86.661439"
     inkscape:document-units="px"
     inkscape:current-layer="layer1"
     showgrid="false"
     fit-margin-top="0"
     fit-margin-left="0"
     fit-margin-right="0"
     fit-margin-bottom="0"
     inkscape:window-width="1920"
     inkscape:window-height="1017"
     inkscape:window-x="-8"
     inkscape:window-y="-8"
     inkscape:window-maximized="1"
     showguides="false"
     inkscape:object-nodes="true"
     units="px"
     inkscape:snap-page="true"
     inkscape:document-rotation="0" />
  <metadata
     id="metadata5">
    <rdf:RDF>
      <cc:Work
         rdf:about="">
        <dc:format>image/svg+xml</dc:format>
        <dc:type
           rdf:resource="http://purl.org/dc/dcmitype/StillImage" />
        <dc:title />
      </cc:Work>
    </rdf:RDF>
  </metadata>
  <g
     inkscape:label="Layer 1"
     inkscape:groupmode="layer"
     id="layer1"
     transform="translate(98.048812,-95.14345)">
    <rect
       y="95.143448"
       x="-98.048813"
       height="52.916668"
       width="52.916668"
       id="rect5163"
       style="fill:#222222;fill-opacity:1;fill-rule:nonzero;stroke:none;stroke-width:0.5;stroke-linecap:butt;stroke-linejoin:round;stroke-miterlimit:4;stroke-dasharray:none;stroke-dashoffset:0;stroke-opacity:0.909449;paint-order:normal"
       rx="3.96875"
       ry="3.96875" />
    <rect
       style="fill:#ff42ff;fill-opacity:1;fill-rule:nonzero;stroke:none;stroke-width:0.5;stroke-linecap:butt;stroke-linejoin:round;stroke-miterlimit:4;stroke-dasharray:none;stroke-dashoffset:0;stroke-opacity:0.909449;paint-order:normal"
       id="rect5165"
       width="47.625"
       height="47.625"
       x="-95.402977"
       y="97.789284"
       rx="2.6458333"
       ry="2.6458333" />
    <path
       style="fill:#222222;fill-opacity:1;fill-rule:nonzero;stroke:none;stroke-width:0.5;stroke-linecap:butt;stroke-linejoin:round;stroke-miterlimit:4;stroke-dasharray:none;stroke-dashoffset:0;stroke-opacity:0.909449;paint-order:normal"
       d="m -96.593602,132.18512 v 8.33438 c 0,3.07816 2.478088,5.55624 5.55625,5.55624 h 38.893748 c 3.078162,0 5.55625,-2.47808 5.55625,-5.55624 v -8.33438 z"
       id="rect5205-3-6"
       inkscape:connector-curvature="0" />
    <g
       aria-label="PROGRESSIVE"
       transform="translate(35.144652,0.52254558)"
       id="text878"
       style="font-style:normal;font-weight:normal;font-size:6.35px;line-height:1.25;font-family:sans-serif;white-space:pre;shape-inside:url(#rect880);fill:#eeeeee;fill-opacity:1;stroke:none">
      <path
         d="m -128.15046,136.38538 q 0.59055,0 1.02235,0.19685 0.43815,0.19685 0.6731,0.5588 0.23495,0.36195 0.23495,0.85725 0,0.48895 -0.23495,0.85725 -0.23495,0.36195 -0.6731,0.5588 -0.4318,0.1905 -1.02235,0.1905 h -0.89535 v 1.22555 h -1.0287 v -4.445 z m -0.0571,2.38125 q 0.46355,0 0.70485,-0.19685 0.2413,-0.2032 0.2413,-0.5715 0,-0.37465 -0.2413,-0.5715 -0.2413,-0.2032 -0.70485,-0.2032 h -0.8382 v 1.54305 z"
         style="font-style:normal;font-variant:normal;font-weight:bold;font-stretch:normal;font-size:6.35px;font-family:Montserrat;-inkscape-font-specification:'Montserrat Bold';fill:#eeeeee;fill-opacity:1"
         id="path893" />
      <path
         d="m -122.65772,140.83038 -0.85725,-1.23825 h -0.0508 -0.89535 v 1.23825 h -1.0287 v -4.445 h 1.92405 q 0.59055,0 1.02235,0.19685 0.43815,0.19685 0.6731,0.5588 0.23495,0.36195 0.23495,0.85725 0,0.4953 -0.2413,0.85725 -0.23495,0.3556 -0.6731,0.5461 l 0.99695,1.42875 z m -0.0191,-2.8321 q 0,-0.37465 -0.2413,-0.5715 -0.2413,-0.2032 -0.70485,-0.2032 h -0.8382 v 1.5494 h 0.8382 q 0.46355,0 0.70485,-0.2032 0.2413,-0.2032 0.2413,-0.5715 z"
         style="font-style:normal;font-variant:normal;font-weight:bold;font-stretch:normal;font-size:6.35px;font-family:Montserrat;-inkscape-font-specification:'Montserrat Bold';fill:#eeeeee;fill-opacity:1"
         id="path895" />
      <path
         d="m -118.66993,140.90658 q -0.69215,0 -1.25095,-0.29845 -0.55245,-0.29845 -0.86995,-0.81915 -0.31115,-0.52705 -0.31115,-1.1811 0,-0.65405 0.31115,-1.17475 0.3175,-0.52705 0.86995,-0.8255 0.5588,-0.29845 1.25095,-0.29845 0.69215,0 1.2446,0.29845 0.55245,0.29845 0.86995,0.8255 0.3175,0.5207 0.3175,1.17475 0,0.65405 -0.3175,1.1811 -0.3175,0.5207 -0.86995,0.81915 -0.55245,0.29845 -1.2446,0.29845 z m 0,-0.8763 q 0.3937,0 0.7112,-0.1778 0.3175,-0.18415 0.4953,-0.508 0.18415,-0.32385 0.18415,-0.7366 0,-0.41275 -0.18415,-0.7366 -0.1778,-0.32385 -0.4953,-0.50165 -0.3175,-0.18415 -0.7112,-0.18415 -0.3937,0 -0.7112,0.18415 -0.3175,0.1778 -0.50165,0.50165 -0.1778,0.32385 -0.1778,0.7366 0,0.41275 0.1778,0.7366 0.18415,0.32385 0.50165,0.508 0.3175,0.1778 0.7112,0.1778 z"
         style="font-style:normal;font-variant:normal;font-weight:bold;font-stretch:normal;font-size:6.35px;font-family:Montserrat;-inkscape-font-specification:'Montserrat Bold';fill:#eeeeee;fill-opacity:1"
         id="path897" />
      <path
         d="m -112.45963,138.53803 h 0.9398 v 1.8034 q -0.36195,0.27305 -0.8382,0.4191 -0.47625,0.14605 -0.95885,0.14605 -0.69215,0 -1.2446,-0.2921 -0.55245,-0.29845 -0.86995,-0.81915 -0.31115,-0.52705 -0.31115,-1.18745 0,-0.6604 0.31115,-1.1811 0.3175,-0.52705 0.8763,-0.81915 0.5588,-0.29845 1.2573,-0.29845 0.5842,0 1.06045,0.19685 0.47625,0.19685 0.8001,0.5715 l -0.6604,0.6096 q -0.47625,-0.50165 -1.14935,-0.50165 -0.42545,0 -0.75565,0.1778 -0.3302,0.1778 -0.51435,0.50165 -0.18415,0.32385 -0.18415,0.74295 0,0.41275 0.18415,0.7366 0.18415,0.32385 0.508,0.508 0.3302,0.1778 0.7493,0.1778 0.4445,0 0.8001,-0.1905 z"
         style="font-style:normal;font-variant:normal;font-weight:bold;font-stretch:normal;font-size:6.35px;font-family:Montserrat;-inkscape-font-specification:'Montserrat Bold';fill:#eeeeee;fill-opacity:1"
         id="path899" />
      <path
         d="m -107.73523,140.83038 -0.85725,-1.23825 h -0.0508 -0.89535 v 1.23825 h -1.0287 v -4.445 h 1.92405 q 0.59055,0 1.02235,0.19685 0.43815,0.19685 0.6731,0.5588 0.23495,0.36195 0.23495,0.85725 0,0.4953 -0.2413,0.85725 -0.23495,0.3556 -0.6731,0.5461 l 0.99695,1.42875 z m -0.019,-2.8321 q 0,-0.37465 -0.2413,-0.5715 -0.2413,-0.2032 -0.70485,-0.2032 h -0.8382 v 1.5494 h 0.8382 q 0.46355,0 0.70485,-0.2032 0.2413,-0.2032 0.2413,-0.5715 z"
         style="font-style:normal;font-variant:normal;font-weight:bold;font-stretch:normal;font-size:6.35px;font-family:Montserrat;-inkscape-font-specification:'Montserrat Bold';fill:#eeeeee;fill-opacity:1"
         id="path901" />
      <path
         d="m -102.45839,140.00488 v 0.8255 h -3.4417 v -4.445 h 3.35915 v 0.8255 h -2.3368 v 0.9652 h 2.06375 v 0.8001 h -2.06375 v 1.0287 z"
         style="font-style:normal;font-variant:normal;font-weight:bold;font-stretch:normal;font-size:6.35px;font-family:Montserrat;-inkscape-font-specification:'Montserrat Bold';fill:#eeeeee;fill-opacity:1"
         id="path903" />
      <path
         d="m -100.17875,140.90658 q -0.52705,0 -1.02235,-0.1397 -0.48895,-0.14605 -0.7874,-0.37465 l 0.34925,-0.7747 q 0.28575,0.20955 0.67945,0.33655 0.3937,0.127 0.7874,0.127 0.438154,0 0.647704,-0.127 0.20955,-0.13335 0.20955,-0.34925 0,-0.15875 -0.127,-0.26035 -0.12065,-0.10795 -0.3175,-0.17145 -0.1905,-0.0635 -0.520704,-0.1397 -0.508,-0.12065 -0.83185,-0.2413 -0.32385,-0.12065 -0.5588,-0.38735 -0.2286,-0.2667 -0.2286,-0.7112 0,-0.38735 0.20955,-0.6985 0.20955,-0.3175 0.62865,-0.50165 0.42545,-0.18415 1.03505,-0.18415 0.425454,0 0.831854,0.1016 0.4064,0.1016 0.7112,0.2921 l -0.3175,0.78105 q -0.61595,-0.34925 -1.231904,-0.34925 -0.4318,0 -0.64135,0.1397 -0.2032,0.1397 -0.2032,0.3683 0,0.2286 0.23495,0.3429 0.2413,0.10795 0.730254,0.2159 0.508,0.12065 0.83185,0.2413 0.32385,0.12065 0.55245,0.381 0.23495,0.26035 0.23495,0.70485 0,0.381 -0.2159,0.6985 -0.20955,0.31115 -0.635,0.4953 -0.42545,0.18415 -1.035054,0.18415 z"
         style="font-style:normal;font-variant:normal;font-weight:bold;font-stretch:normal;font-size:6.35px;font-family:Montserrat;-inkscape-font-specification:'Montserrat Bold';fill:#eeeeee;fill-opacity:1"
         id="path905" />
      <path
         d="m -96.127456,140.90658 q -0.52705,0 -1.02235,-0.1397 -0.48895,-0.14605 -0.787399,-0.37465 l 0.349249,-0.7747 q 0.28575,0.20955 0.67945,0.33655 0.3937,0.127 0.7874,0.127 0.43815,0 0.6477,-0.127 0.20955,-0.13335 0.20955,-0.34925 0,-0.15875 -0.127,-0.26035 -0.12065,-0.10795 -0.3175,-0.17145 -0.1905,-0.0635 -0.5207,-0.1397 -0.508,-0.12065 -0.83185,-0.2413 -0.32385,-0.12065 -0.5588,-0.38735 -0.228599,-0.2667 -0.228599,-0.7112 0,-0.38735 0.209549,-0.6985 0.20955,-0.3175 0.62865,-0.50165 0.42545,-0.18415 1.03505,-0.18415 0.42545,0 0.83185,0.1016 0.4064,0.1016 0.7112,0.2921 l -0.3175,0.78105 q -0.61595,-0.34925 -1.2319,-0.34925 -0.4318,0 -0.64135,0.1397 -0.2032,0.1397 -0.2032,0.3683 0,0.2286 0.23495,0.3429 0.2413,0.10795 0.73025,0.2159 0.508,0.12065 0.83185,0.2413 0.32385,0.12065 0.55245,0.381 0.23495,0.26035 0.23495,0.70485 0,0.381 -0.2159,0.6985 -0.20955,0.31115 -0.635,0.4953 -0.42545,0.18415 -1.03505,0.18415 z"
         style="font-style:normal;font-variant:normal;font-weight:bold;font-stretch:normal;font-size:6.35px;font-family:Montserrat;-inkscape-font-specification:'Montserrat Bold';fill:#eeeeee;fill-opacity:1"
         id="path907" />
      <path
         d="m -93.536663,136.38538 h 1.0287 v 4.445 h -1.0287 z"
         style="font-style:normal;font-variant:normal;font-weight:bold;font-stretch:normal;font-size:6.35px;font-family:Montserrat;-inkscape-font-specification:'Montserrat Bold';fill:#eeeeee;fill-opacity:1"
         id="path909" />
      <path
         d="m -87.205729,136.38538 -1.92405,4.445 h -1.016 l -1.9177,-4.445 h 1.11125 l 1.35255,3.175 1.3716,-3.175 z"
         style="font-style:normal;font-variant:normal;font-weight:bold;font-stretch:normal;font-size:6.35px;font-family:Montserrat;-inkscape-font-specification:'Montserrat Bold';fill:#eeeeee;fill-opacity:1"
         id="path911" />
      <path
         d="m -83.395748,140.00488 v 0.8255 h -3.4417 v -4.445 h 3.35915 v 0.8255 h -2.3368 v 0.9652 h 2.06375 v 0.8001 h -2.06375 v 1.0287 z"
         style="font-style:normal;font-variant:normal;font-weight:bold;font-stretch:normal;font-size:6.35px;font-family:Montserrat;-inkscape-font-specification:'Montserrat Bold';fill:#eeeeee;fill-opacity:1"
         id="path913" />
    </g>
    <path
       id="path4"
       d="m -85.862436,99.907458 v 6.342472 h 2.53661 V 104.347 l 1.902931,1.90293 -1.902931,1.90292 1.904786,1.90107 1.90107,-1.90107 0.635548,0.62626 c -1.260452,1.58983 -2.011499,3.5866 -2.012569,5.76081 -0.0023,4.6457 3.412573,8.51511 7.883024,9.20058 l -0.0037,3.28367 h -3.647896 v 2.85439 h 3.647896 v 3.33012 h 2.854392 v -3.33012 h 3.647896 v -2.85439 h -3.647896 v -3.28738 -0.002 c 4.453085,-0.68969 7.881163,-4.55418 7.881163,-9.195 0,-2.16874 -0.748593,-4.16929 -2.003278,-5.75698 l 4.430253,-4.43595 v 4.12363 h 2.536616 v -8.563229 h -8.563169 v 2.536619 h 4.123627 l -4.484142,4.486 c -1.514433,-1.06844 -3.359886,-1.69851 -5.348266,-1.69851 -1.987783,0 -3.833149,0.62977 -5.344546,1.69851 l -0.682009,-0.68027 1.90293,-1.90292 -1.90293,-1.90293 -1.902925,1.90293 -1.902925,-1.90293 h 1.902925 v -2.536499 z m 15.310286,8.016582 c 2.145329,0.33864 3.990797,1.70204 4.944831,3.65318 0.954039,1.95114 0.896801,4.2449 -0.153368,6.14602 z m -2.234406,0.0268 -4.61975,9.79494 c 0.01759,0.0753 -0.02131,-0.0717 0,0 -1.133984,-1.87376 -1.156425,-3.97985 -0.257364,-5.977 0.899065,-1.99714 2.722547,-3.42461 4.877114,-3.81794 z m 1.125219,1.80699 2.118025,4.54233 h -4.236285 z m -2.949862,6.32563 h 5.899489 l 1.489452,3.19412 c -2.70192,2.19869 -6.45934,2.14443 -8.877696,-0.001 z"
       sodipodi:nodetypes="cccccccccccccccccccccccscccccccccsccccccccccsccccsccccccccccc"
       style="fill:#222222;fill-opacity:1;stroke-width:0.264583" />
  </g>
</svg>
