<?xml version="1.0" encoding="UTF-8" standalone="no"?>
<svg
   xmlns:dc="http://purl.org/dc/elements/1.1/"
   xmlns:cc="http://creativecommons.org/ns#"
   xmlns:rdf="http://www.w3.org/1999/02/22-rdf-syntax-ns#"
   xmlns:svg="http://www.w3.org/2000/svg"
   xmlns="http://www.w3.org/2000/svg"
   xmlns:sodipodi="http://sodipodi.sourceforge.net/DTD/sodipodi-0.dtd"
   xmlns:inkscape="http://www.inkscape.org/namespaces/inkscape"
   width="200"
   height="200"
   viewBox="0 0 52.916668 52.916666"
   version="1.1"
   id="svg8"
   inkscape:version="1.0.2-2 (e86c870879, 2021-01-15)"
   sodipodi:docname="edgy.svg">
  <defs
     id="defs2">
    <rect
       x="-8.9802561"
       y="41.159507"
       width="54.442803"
       height="27.502034"
       id="rect914" />
    <rect
       x="14.780005"
       y="42.001406"
       width="38.136662"
       height="10.91526"
       id="rect983" />
    <rect
       x="-245.70343"
       y="111.31936"
       width="65.484375"
       height="18.71927"
       id="rect868" />
    <rect
       x="-268.4576"
       y="130.43551"
       width="120.12083"
       height="27.384375"
       id="rect867" />
    <inkscape:path-effect
       effect="envelope"
       id="path-effect4658"
       is_visible="true"
       yy="true"
       xx="true"
       bendpath1="m -199.08406,108.42369 h 7.0057"
       bendpath2="m -192.07836,108.42369 v 6.75242"
       bendpath3="m -199.08406,115.17611 h 7.0057"
       bendpath4="m -199.08406,108.42369 v 6.75242" />
    <inkscape:path-effect
       effect="bend_path"
       id="path-effect4656"
       is_visible="true"
       bendpath="m -192.00142,114.60623 c 2.12577,-0.53066 4.48261,0.85111 7.0057,0"
       prop_scale="1"
       scale_y_rel="false"
       vertical="false"
       bendpath-nodetypes="cc" />
    <inkscape:path-effect
       effect="bounding_box"
       id="path-effect4654"
       is_visible="true"
       linkedpath=""
       visualbounds="false" />
  </defs>
  <sodipodi:namedview
     id="base"
     pagecolor="#ffffff"
     bordercolor="#666666"
     borderopacity="1.0"
     inkscape:pageopacity="0.0"
     inkscape:pageshadow="2"
     inkscape:zoom="2"
     inkscape:cx="130.68491"
     inkscape:cy="150.52443"
     inkscape:document-units="mm"
     inkscape:current-layer="layer5"
     showgrid="false"
     fit-margin-top="0"
     fit-margin-left="0"
     fit-margin-right="0"
     fit-margin-bottom="0"
     inkscape:window-width="1920"
     inkscape:window-height="1017"
     inkscape:window-x="-8"
     inkscape:window-y="-8"
     inkscape:window-maximized="1"
     showguides="false"
     inkscape:object-nodes="true"
     units="px"
     inkscape:snap-page="true"
     inkscape:document-rotation="0" />
  <metadata
     id="metadata5">
    <rdf:RDF>
      <cc:Work
         rdf:about="">
        <dc:format>image/svg+xml</dc:format>
        <dc:type
           rdf:resource="http://purl.org/dc/dcmitype/StillImage" />
        <dc:title></dc:title>
      </cc:Work>
    </rdf:RDF>
  </metadata>
  <g
     inkscape:groupmode="layer"
     id="layer5"
     inkscape:label="Final layer"
     style="display:inline">
    <path
       id="rect5238-5"
       style="fill:#222222;fill-opacity:1;fill-rule:nonzero;stroke:none;stroke-width:0.5;stroke-linecap:butt;stroke-linejoin:round;stroke-miterlimit:4;stroke-dasharray:none;stroke-dashoffset:0;stroke-opacity:0.909449;paint-order:normal"
       transform="translate(249.80447,-91.409467)"
       d="m -245.83572,91.40947 h 44.97916 c 2.19869,0 3.96875,1.770062 3.96875,3.96875 v 44.97917 c 0,2.19869 -1.77006,3.96875 -3.96875,3.96875 h -44.97916 c -2.19869,0 -3.96875,-1.77006 -3.96875,-3.96875 V 95.37822 c 0,-2.198688 1.77006,-3.96875 3.96875,-3.96875 z" />
    <path
       id="rect5240-3"
       style="display:inline;fill:#ee2436;fill-opacity:1;fill-rule:nonzero;stroke:none;stroke-width:0.5;stroke-linecap:butt;stroke-linejoin:round;stroke-miterlimit:4;stroke-dasharray:none;stroke-dashoffset:0;stroke-opacity:0.909449;paint-order:normal"
       transform="translate(249.80447,-91.409467)"
       d="m -244.5128,94.055298 h 42.33334 c 1.46579,0 2.64583,1.180041 2.64583,2.645833 v 42.333329 c 0,1.4658 -1.18004,2.64584 -2.64583,2.64584 h -42.33334 c -1.46579,0 -2.64583,-1.18004 -2.64583,-2.64584 V 96.701131 c 0,-1.465792 1.18004,-2.645833 2.64583,-2.645833 z" />
    <path
       id="path946"
       style="display:inline;fill:#ffffff;fill-opacity:1;fill-rule:nonzero;stroke:none;stroke-width:0.5;stroke-linecap:butt;stroke-linejoin:round;stroke-miterlimit:4;stroke-dasharray:none;stroke-dashoffset:0;stroke-opacity:0.909449;paint-order:normal"
       d="m 50.27084,14.431382 v 33.31554 c 0,1.398251 -1.18004,2.523911 -2.64583,2.523911 H 5.29167 c -1.46579,0 -2.64583,-1.12566 -2.64583,-2.523911 v -33.31554 z"
       sodipodi:nodetypes="csssscc" />
    <path
       id="path954"
       style="display:inline;fill:#ee2436;fill-opacity:1;fill-rule:nonzero;stroke:none;stroke-width:0.499999;stroke-linecap:butt;stroke-linejoin:round;stroke-miterlimit:4;stroke-dasharray:none;stroke-dashoffset:0;stroke-opacity:0.909449;paint-order:normal"
       d="m 50.27084,25.972586 v 20.724966 c 0,1.979603 -1.18004,3.573279 -2.64583,3.573279 H 5.29167 c -1.46579,0 -2.64583,-1.593676 -2.64583,-3.573279 V 25.972586 Z"
       sodipodi:nodetypes="csssscc" />
    <path
       inkscape:connector-curvature="0"
       id="path5244-6"
       d="m -248.34926,128.45114 v 8.33437 c 0,3.07816 2.47808,5.55625 5.55625,5.55625 h 38.89375 c 3.07816,0 5.55625,-2.47809 5.55625,-5.55625 v -8.33437 z"
       style="display:inline;fill:#222222;fill-opacity:1;fill-rule:nonzero;stroke:none;stroke-width:0.5;stroke-linecap:butt;stroke-linejoin:round;stroke-miterlimit:4;stroke-dasharray:none;stroke-dashoffset:0;stroke-opacity:0.909449;paint-order:normal"
       transform="translate(249.80447,-91.409467)" />
    <text
       xml:space="preserve"
       id="text981"
       style="font-style:normal;font-weight:normal;font-size:4.23333333px;line-height:1.25;font-family:sans-serif;white-space:pre;shape-inside:url(#rect983);fill:#000000;fill-opacity:1;stroke:none;" />
    <path
       id="rect882"
       style="fill:#ffffff;fill-opacity:1;stroke-width:1.265;stroke-linecap:round;paint-order:stroke fill markers"
       d="m 17.735992,23.125093 6.574458,0.514494 -0.467722,5.851556 -5.592243,-0.467722 z"
       sodipodi:nodetypes="ccccc" />
    <path
       id="rect884"
       style="fill:#ee2436;fill-opacity:1;stroke-width:1.265;stroke-linecap:round;paint-order:stroke fill markers"
       d="m 31.247259,24.968911 6.987384,1.403165 v 5.324739 c -4.56717,1.129544 -7.686926,1.479712 -7.408334,0 z"
       sodipodi:nodetypes="ccccc" />
    <g
       id="g942"
       transform="matrix(0.80830318,0,0,0.80830318,-90.862099,-53.55225)"
       style="display:inline;stroke-width:1.23716;fill:#222222;fill-opacity:1">
      <path
         id="path923"
         style="fill:#222222;fill-opacity:1;stroke-width:1.23716"
         d="m 140.3635,106.74964 c 1.01957,0.41774 1.05043,2.58433 -0.0206,3.07196 -1.12378,0.69409 -3.19061,0.49782 -1.33923,-0.75522 0.64772,-0.65342 0.98639,-1.5028 1.35948,-2.31701" />
      <path
         id="path919"
         style="fill:#222222;fill-opacity:1;stroke-width:1.23716"
         d="m 136.75832,105.45587 c 0.92459,-0.204 3.16444,0.37067 2.13817,1.73121 -0.54162,1.18359 -1.6247,2.02449 -2.5668,2.88246 -1.36261,0.67264 -3.06301,-0.25032 -1.37771,-1.43384 0.77457,-0.9564 1.25385,-2.09491 1.806,-3.17952" />
      <path
         id="path917"
         style="fill:#222222;fill-opacity:1;stroke-width:1.23716"
         d="m 132.66809,104.38168 c 0.8897,-0.0572 3.44372,-0.0374 2.59101,1.43659 -0.63337,1.36761 -1.50586,2.65555 -2.5724,3.71673 -0.92972,0.0236 -3.3971,0.33375 -3.44747,-0.69938 1.19337,-1.32667 2.70124,-2.46883 3.27271,-4.23455 l 0.0847,-0.13582 0.0713,-0.0832" />
      <path
         id="path915"
         style="fill:#222222;fill-opacity:1;stroke-width:1.23716"
         d="m 129.57097,104.1723 c 1.34787,-0.84816 2.50066,0.11013 1.14309,1.28921 -0.37523,0.89114 -2.20682,2.73253 -1.6079,0.52365 0.14649,-0.61007 0.0177,-1.30744 0.46501,-1.81299" />
      <path
         id="path907"
         style="fill:#222222;fill-opacity:1;stroke-width:1.23716"
         d="m 120.78333,91.931677 c 1.17052,0.19056 2.19148,1.102281 3.02354,1.937909 1.37908,1.170342 2.4297,2.861475 2.24691,4.734253 0.19633,1.330929 -0.68344,2.514041 -0.6697,3.796661 0.3202,1.40822 1.00089,2.75475 2.1076,3.69706 1.1013,1.45221 -0.0375,2.98456 -1.76375,2.22789 -1.72003,-0.66223 -3.135,-1.99302 -4.21746,-3.45124 -0.64677,-0.85056 -0.84169,-1.8479 -0.7427,-2.8975 -0.10628,-1.7454 1.06349,-3.296194 0.7924,-5.06783 -0.0824,-1.50635 -0.36506,-3.067913 -1.26402,-4.318747 0.0172,-0.276926 0.29849,-0.48083 0.48703,-0.658563 m 5.64443,15.36571 c 0.47749,-0.58629 -1.34873,-1.50608 -1.36147,-2.48893 -0.87332,-1.39661 -1.08336,-3.1982 -0.33615,-4.69653 0.48146,-1.416117 0.28751,-2.99823 -0.59691,-4.211684 -0.42802,-0.708402 -2.17531,-2.516824 -1.61489,-0.547224 0.16723,1.848978 0.24691,3.768565 -0.5054,5.511238 -0.50986,1.50615 -0.0158,3.14936 1.12235,4.22587 0.93729,0.90843 1.90755,2.09143 3.29222,2.20733" />
      <path
         id="path905"
         style="fill:#222222;fill-opacity:1;stroke-width:1.23716"
         d="m 144.53534,85.016693 c 2.21926,-0.260835 4.47586,-0.07874 6.71221,-0.133163 1.54627,0.04587 3.11907,0.359376 4.43867,1.215596 1.02043,0.63231 2.29708,0.915911 3.16215,1.745314 0.72774,0.977392 1.84297,1.536219 2.4657,2.608615 1.43695,2.033325 2.6626,4.284342 2.95859,6.79562 0.61006,2.520613 0.2877,5.129855 0.3685,7.698325 0.0479,2.50216 -0.2101,5.07521 -1.2434,7.37671 -0.9188,1.52328 -2.29151,2.93793 -4.07766,3.35353 -1.36631,0.56206 -2.82453,1.03628 -4.32573,0.9225 -1.33495,0.0712 -2.64467,-0.11537 -3.96355,-0.254 -1.6731,-0.0367 -3.35646,0.0851 -5.00013,-0.2603 -2.93484,-0.14838 -5.74526,-1.13275 -8.49745,-2.0914 -1.30606,-0.89952 -3.06555,-1.38235 -3.91075,-2.79643 1.29114,0.13536 2.61372,0.46808 3.94894,0.1447 1.56703,-0.0125 3.69345,0.0642 4.45355,-1.62166 0.28183,-1.38321 0.4187,-3.41856 -1.16332,-4.07168 -1.57782,-0.85273 -3.27273,-1.49237 -5.00958,-1.90705 -0.73892,-0.91101 -2.16339,-1.47982 -2.18613,-2.85935 -1.51734,-1.16464 -0.52373,1.92461 -0.87513,2.14468 -2.03157,0.31253 -1.59037,-1.56088 -1.34167,-2.88738 0.17508,-1.688208 0.44379,-3.373103 1.1094,-4.954385 0.63741,-2.171722 1.97989,-4.059288 3.67082,-5.542871 1.30691,-1.390104 2.72638,-2.780784 4.61354,-3.322748 1.17337,-0.587191 2.41893,-0.999694 3.69298,-1.301396 m -4.66386,17.23753 c 1.72922,-0.23702 2.17494,-2.299926 2.03966,-3.76114 0.0744,-1.341673 -0.72299,-2.735241 -2.14276,-2.911156 -2.61037,-0.772263 -5.40569,1.887544 -4.95026,4.526326 0.092,1.76016 2.1541,2.37806 3.63411,2.21638 0.47475,0.002 0.94985,0.012 1.41978,-0.0711 m 17.5507,6.07081 c 0.87289,-0.0388 2.69383,-1.69037 1.24878,-2.1447 -0.85325,0.86554 -2.0066,1.41183 -3.22452,1.06586 -1.47002,1.1175 1.42755,1.28953 1.97586,1.07865 m -0.8731,-2.63034 c 1.85421,-0.29844 3.08783,-2.21645 2.80504,-4.03451 0.31431,-1.48906 -0.82634,-2.441141 -2.04642,-2.952912 -1.26736,-0.472756 -2.97065,-0.627039 -4.1457,0.184786 -1.50472,0.768312 -2.16538,2.717676 -1.90137,4.313526 0.62152,1.32717 1.883,2.58734 3.45866,2.53151 0.60953,0.0297 1.22386,0.0515 1.82939,-0.0424" />
    </g>
    <g
       aria-label="EDGY"
       transform="translate(18.268417,-3.5976133)"
       id="text912"
       style="font-style:normal;font-weight:normal;font-size:11.2889px;line-height:1.25;font-family:sans-serif;white-space:pre;shape-inside:url(#rect914);fill:#000000;fill-opacity:1;stroke:none">
      <path
         d="m -1.924906,50.068154 v 1.467557 H -8.04349 v -7.90223 h 5.9718283 v 1.467557 h -4.1543154 v 1.715913 h 3.6688927 v 1.422402 h -3.6688927 v 1.828801 z"
         style="font-style:normal;font-variant:normal;font-weight:bold;font-stretch:normal;font-size:11.2889px;font-family:Montserrat;-inkscape-font-specification:'Montserrat Bold';fill:#ee2436;fill-opacity:1"
         id="path918" />
      <path
         d="M -0.46864327,43.633481 H 3.121227 q 1.2869347,0 2.269069,0.496712 0.9934233,0.485422 1.5352905,1.377246 0.5531561,0.891823 0.5531561,2.077157 0,1.185335 -0.5531561,2.077158 -0.5418672,0.891823 -1.5352905,1.388535 -0.9821343,0.485422 -2.269069,0.485422 h -3.58987027 z m 3.49955907,6.400807 q 1.1853346,0 1.8852464,-0.654757 0.7112007,-0.666045 0.7112007,-1.794935 0,-1.12889 -0.7112007,-1.783646 Q 4.2162504,45.134905 3.0309158,45.134905 H 1.3601586 v 4.899383 z"
         style="font-style:normal;font-variant:normal;font-weight:bold;font-stretch:normal;font-size:11.2889px;font-family:Montserrat;-inkscape-font-specification:'Montserrat Bold';fill:#ffffff;fill-opacity:1"
         id="path920" />
      <path
         d="m 14.19562,47.460418 h 1.670757 v 3.206048 q -0.643467,0.485423 -1.490135,0.745068 -0.846667,0.259644 -1.704624,0.259644 -1.23049,0 -2.212624,-0.519289 Q 9.4768593,50.62131 8.9124143,49.695621 8.3592582,48.758642 8.3592582,47.584596 q 0,-1.174045 0.5531561,-2.099735 0.564445,-0.936979 1.5578687,-1.456268 0.993423,-0.530579 2.235202,-0.530579 1.038579,0 1.885246,0.349956 0.846668,0.349956 1.422402,1.016001 l -1.174046,1.083735 q -0.846668,-0.891823 -2.043291,-0.891823 -0.756356,0 -1.343379,0.316089 -0.587023,0.316089 -0.914401,0.891823 -0.327378,0.575734 -0.327378,1.320801 0,0.733779 0.327378,1.309513 0.327378,0.575734 0.903112,0.903112 0.587023,0.316089 1.33209,0.316089 0.790223,0 1.422402,-0.338667 z"
         style="font-style:normal;font-variant:normal;font-weight:bold;font-stretch:normal;font-size:11.2889px;font-family:Montserrat;-inkscape-font-specification:'Montserrat Bold';fill:#ffffff;fill-opacity:1"
         id="path922" />
      <path
         d="m 21.352781,48.736064 v 2.799647 H 19.52398 v -2.822225 l -3.059292,-5.080005 h 1.94169 l 2.111025,3.510848 2.111024,-3.510848 h 1.794935 z"
         style="font-style:normal;font-variant:normal;font-weight:bold;font-stretch:normal;font-size:11.2889px;font-family:Montserrat;-inkscape-font-specification:'Montserrat Bold';fill:#ee2436;fill-opacity:1"
         id="path924" />
    </g>
  </g>
</svg>
