<?xml version="1.0" encoding="UTF-8" standalone="no"?>
<svg
   xmlns:dc="http://purl.org/dc/elements/1.1/"
   xmlns:cc="http://creativecommons.org/ns#"
   xmlns:rdf="http://www.w3.org/1999/02/22-rdf-syntax-ns#"
   xmlns:svg="http://www.w3.org/2000/svg"
   xmlns="http://www.w3.org/2000/svg"
   xmlns:sodipodi="http://sodipodi.sourceforge.net/DTD/sodipodi-0.dtd"
   xmlns:inkscape="http://www.inkscape.org/namespaces/inkscape"
   width="200"
   height="200"
   viewBox="0 0 52.916668 52.916666"
   version="1.1"
   id="svg8"
   inkscape:version="1.0.2-2 (e86c870879, 2021-01-15)"
   sodipodi:docname="Global.svg">
  <defs
     id="defs2">
    <rect
       x="-243.72409"
       y="131.82062"
       width="81.563263"
       height="24.676347"
       id="rect928" />
    <inkscape:path-effect
       effect="envelope"
       id="path-effect4658"
       is_visible="true"
       yy="true"
       xx="true"
       bendpath1="m -199.08406,108.42369 h 7.0057"
       bendpath2="m -192.07836,108.42369 v 6.75242"
       bendpath3="m -199.08406,115.17611 h 7.0057"
       bendpath4="m -199.08406,108.42369 v 6.75242" />
    <inkscape:path-effect
       effect="bend_path"
       id="path-effect4656"
       is_visible="true"
       bendpath="m -192.00142,114.60623 c 2.12577,-0.53066 4.48261,0.85111 7.0057,0"
       prop_scale="1"
       scale_y_rel="false"
       vertical="false"
       bendpath-nodetypes="cc" />
    <inkscape:path-effect
       effect="bounding_box"
       id="path-effect4654"
       is_visible="true"
       linkedpath=""
       visualbounds="false" />
  </defs>
  <sodipodi:namedview
     id="base"
     pagecolor="#ffffff"
     bordercolor="#666666"
     borderopacity="1.0"
     inkscape:pageopacity="0.0"
     inkscape:pageshadow="2"
     inkscape:zoom="2"
     inkscape:cx="71.008489"
     inkscape:cy="26.892536"
     inkscape:document-units="mm"
     inkscape:current-layer="layer1"
     showgrid="false"
     fit-margin-top="0"
     fit-margin-left="0"
     fit-margin-right="0"
     fit-margin-bottom="0"
     inkscape:window-width="1920"
     inkscape:window-height="1017"
     inkscape:window-x="-8"
     inkscape:window-y="-8"
     inkscape:window-maximized="1"
     showguides="false"
     inkscape:object-nodes="true"
     units="px"
     inkscape:snap-page="true"
     inkscape:document-rotation="0" />
  <metadata
     id="metadata5">
    <rdf:RDF>
      <cc:Work
         rdf:about="">
        <dc:format>image/svg+xml</dc:format>
        <dc:type
           rdf:resource="http://purl.org/dc/dcmitype/StillImage" />
        <dc:title></dc:title>
      </cc:Work>
    </rdf:RDF>
  </metadata>
  <g
     inkscape:label="Layer 1"
     inkscape:groupmode="layer"
     id="layer1"
     transform="translate(249.80447,-91.409467)">
    <rect
       ry="3.96875"
       rx="3.96875"
       style="fill:#222222;fill-opacity:1;fill-rule:nonzero;stroke:none;stroke-width:0.5;stroke-linecap:butt;stroke-linejoin:round;stroke-miterlimit:4;stroke-dasharray:none;stroke-dashoffset:0;stroke-opacity:0.909449;paint-order:normal"
       id="rect5252-2"
       width="52.916668"
       height="52.916668"
       x="-249.80447"
       y="91.40947" />
    <rect
       ry="2.6458333"
       rx="2.6458333"
       y="94.055298"
       x="-247.15863"
       height="47.625"
       width="47.625"
       id="rect5254-7"
       style="fill:#03a9f4;fill-opacity:1;fill-rule:nonzero;stroke:none;stroke-width:0.5;stroke-linecap:butt;stroke-linejoin:round;stroke-miterlimit:4;stroke-dasharray:none;stroke-dashoffset:0;stroke-opacity:0.909449;paint-order:normal" />
    <path
       inkscape:connector-curvature="0"
       style="fill:#222222;fill-opacity:1;stroke-width:1"
       d="m -223.34678,96.515794 c -0.58244,0 -1.16493,0.01521 -1.4981,0.04599 -3.82198,0.35297 -7.16083,1.709994 -10.10171,4.109316 -0.63282,0.51628 -1.87901,1.76114 -2.41381,2.41019 -2.37073,2.87719 -3.74195,6.19302 -4.1212,9.95701 -0.0769,0.76305 -0.088,2.43088 -0.0196,3.1719 0.35826,3.8812 1.76006,7.27631 4.22662,10.23813 0.20398,0.24495 0.6714,0.7422 1.06247,1.13327 0.97764,0.97764 1.73336,1.6003 2.8515,2.34353 2.52719,1.67982 5.56393,2.72311 8.57415,2.94142 0.29655,0.0215 0.6201,0.0434 0.71882,0.0506 0.42176,0.0308 1.79152,-0.0144 2.39883,-0.0703 2.275,-0.20922 4.39532,-0.81287 6.44921,-1.83606 5.33688,-2.65869 9.05818,-7.80555 9.89035,-13.67565 0.13995,-0.98691 0.18482,-1.62037 0.18346,-2.65617 -0.003,-2.04062 -0.29771,-3.85462 -0.94103,-5.77743 -0.71853,-2.14756 -1.82785,-4.11531 -3.3321,-5.9216 -0.47106,-0.56565 -1.63992,-1.73494 -2.19521,-2.19573 -2.98337,-2.475662 -6.34954,-3.863698 -10.23452,-4.222486 -0.33317,-0.03077 -0.91566,-0.04599 -1.4981,-0.04599 z m -4.25194,2.862357 c -0.91009,0.995269 -1.90627,2.302169 -2.66806,3.562579 -0.36935,0.61111 -0.92536,1.67436 -1.25367,2.3983 -0.0543,0.11975 -0.10331,0.22617 -0.14469,0.31264 -0.0211,-0.008 -0.0303,-0.01 -0.0548,-0.0196 -0.15387,-0.0623 -0.37286,-0.16123 -0.6134,-0.27337 -0.48106,-0.22428 -1.06242,-0.51457 -1.48414,-0.74982 -0.30054,-0.16765 -0.65764,-0.37702 -0.94155,-0.55088 -0.11883,-0.0728 -0.21366,-0.13396 -0.29662,-0.18758 0.0392,-0.0448 0.071,-0.085 0.12092,-0.13694 1.29769,-1.35061 2.67109,-2.37882 4.30465,-3.22616 0.89538,-0.46444 2.02693,-0.848058 3.03134,-1.129133 z m 8.49199,0.0041 c 2.44352,0.674869 4.84976,1.953189 6.64869,3.663859 0.30298,0.28812 0.55729,0.54012 0.73018,0.72243 0.0399,0.042 0.0594,0.0639 0.0899,0.0977 -0.0862,0.0558 -0.18428,0.12111 -0.30437,0.19534 -0.2833,0.17512 -0.62547,0.3801 -0.86765,0.51573 -0.20724,0.11606 -0.67924,0.35852 -1.03095,0.53124 -0.35149,0.1726 -0.82261,0.3889 -1.02371,0.47283 l -0.16381,0.0703 -0.047,-0.10955 c -0.25078,-0.56227 -0.99718,-2.01636 -1.26143,-2.4567 -0.79537,-1.32537 -1.79787,-2.63425 -2.76985,-3.703129 z m -5.36712,0.01913 c 0.002,0.205092 0.006,0.423778 0.008,0.734839 0.005,0.7843 0.008,1.86748 0.008,3.05821 v 4.0783 h -0.0625 c -0.85128,-0.0134 -2.51085,-0.24237 -3.67575,-0.51159 -0.41805,-0.0966 -0.81359,-0.20062 -1.10122,-0.28526 -0.10208,-0.03 -0.16895,-0.0545 -0.23823,-0.078 0.0452,-0.10389 0.10522,-0.23396 0.1757,-0.38292 0.15091,-0.31897 0.34283,-0.7007 0.49196,-0.97669 0.94113,-1.74176 1.91701,-3.10027 3.25406,-4.52737 0.19746,-0.21075 0.5769,-0.582711 0.90641,-0.894515 0.0894,-0.08458 0.15588,-0.142782 0.23409,-0.214974 z m 2.25413,0 c 0.0505,0.04615 0.0892,0.07804 0.14418,0.129194 0.27333,0.254169 0.58967,0.555565 0.76997,0.742065 1.4203,1.46914 2.48541,2.92441 3.46853,4.73822 0.14018,0.25861 0.33142,0.64935 0.48834,0.98082 0.075,0.15838 0.143,0.29944 0.1912,0.40979 -0.0791,0.0267 -0.16289,0.0529 -0.28112,0.0863 -1.30218,0.36795 -2.77402,0.63776 -4.14858,0.75396 -0.2282,0.0193 -0.53196,0.0346 -0.64854,0.0351 v -4.08606 c 0,-1.34 0.006,-2.42299 0.0119,-3.16828 0.002,-0.27178 0.001,-0.443142 0.004,-0.621149 z m -14.24616,6.238379 c 0.0556,0.0344 0.1076,0.0654 0.1757,0.10955 1.11792,0.72513 2.50603,1.45512 3.71088,1.95285 0.069,0.0285 0.0861,0.0404 0.12506,0.0589 -0.0276,0.0909 -0.0495,0.16378 -0.0977,0.32039 -0.52586,1.71112 -0.89188,3.77199 -0.9741,5.50354 l -2.88509,0.008 -2.85978,0.008 0.008,-0.12144 c 0.0272,-0.46335 0.10662,-1.07565 0.22221,-1.70274 0.27382,-1.48554 0.81041,-3.0391 1.5043,-4.37544 0.30966,-0.59638 0.79598,-1.3767 1.07021,-1.76165 z m 26.22631,0.0119 c 1.1192,1.65584 1.91459,3.33211 2.37143,5.15989 0.23116,0.92487 0.43078,2.26439 0.43718,2.78949 h -2.84375 c -0.85289,0 -1.62933,2.7e-4 -2.19522,-0.004 -0.28294,-0.002 -0.51292,-0.005 -0.67179,-0.008 -0.0152,-2.6e-4 -0.0213,2.7e-4 -0.0351,0 -1e-5,-0.002 0,-0.003 0,-0.004 -5.3e-4,-0.80951 -0.22457,-2.47268 -0.49248,-3.70314 -0.12686,-0.58271 -0.43456,-1.73579 -0.56999,-2.1208 0.0419,-0.019 0.0779,-0.0379 0.12867,-0.0589 1.19478,-0.49342 2.59493,-1.23134 3.70727,-1.95285 0.0631,-0.0409 0.11144,-0.0672 0.16382,-0.0977 z m -6.03168,2.5771 c 0.0678,-0.0215 0.0866,0.0157 0.21911,0.43667 0.45468,1.44419 0.82721,3.5191 0.87282,4.86327 l 0.0103,0.30592 -3.6406,0.009 c -2.89348,0.007 -3.64406,2e-4 -3.65766,-0.0357 -0.01,-0.0248 -0.0135,-1.048 -0.008,-2.27376 l 0.009,-2.22881 0.35967,-0.0258 c 1.79949,-0.13049 3.08808,-0.32499 4.46691,-0.67386 0.48479,-0.12266 1.11113,-0.29508 1.36839,-0.37672 z m -14.0503,0.27079 c 1.71954,0.53025 3.59775,0.88062 5.69939,1.02732 l 0.14469,0.0114 v 2.0314 2.01538 l -3.38687,0.008 c -1.13434,0.003 -2.04795,0.004 -2.6758,0 -0.31393,-0.002 -0.55513,-0.008 -0.71882,-0.0119 -0.007,-1.6e-4 -0.009,1.6e-4 -0.0155,0 0.004,-0.0852 0.01,-0.17544 0.0196,-0.29714 0.024,-0.30417 0.0648,-0.69638 0.10904,-1.05472 0.1374,-1.11253 0.43607,-2.51591 0.74259,-3.48815 0.0461,-0.14616 0.0613,-0.1868 0.0816,-0.24185 z m -8.94933,7.32771 h 2.84789 2.88303 c 0.0104,0.12093 0.037,0.4638 0.0584,0.7581 0.11807,1.62691 0.43611,3.32009 0.92191,4.91804 l 0.0584,0.18707 c -0.0758,0.0321 -0.15979,0.0698 -0.25374,0.10956 -1.13408,0.47954 -2.66275,1.2964 -3.58996,1.91823 -0.0456,0.0306 -0.0845,0.0555 -0.12506,0.0816 -0.0106,-0.0142 -0.0156,-0.0188 -0.0274,-0.0352 -0.0914,-0.12674 -0.21622,-0.31431 -0.3514,-0.53123 -0.27036,-0.43383 -0.58446,-0.98287 -0.79685,-1.40611 -0.87588,-1.7454 -1.51193,-4.06015 -1.61696,-5.87872 z m 7.98453,0 3.39462,0.008 3.41426,0.0119 v 2.01176 2.0314 l -0.14469,0.0119 c -2.06788,0.14434 -3.63793,0.41336 -5.43739,0.93328 l -0.1757,0.0512 c -0.0489,0.0138 -0.10377,0.0275 -0.1447,0.0387 -0.0196,-0.0584 -0.0375,-0.11225 -0.0625,-0.19534 -0.0751,-0.24922 -0.17249,-0.59197 -0.26199,-0.95291 -0.29689,-1.19721 -0.50091,-2.54888 -0.57413,-3.79305 z m 15.87913,0 -0.008,0.15658 c -0.0923,1.56885 -0.37847,3.19464 -0.82837,4.72633 -0.0304,0.10342 -0.0484,0.16869 -0.0661,0.22273 -0.0122,-0.004 -0.01,-0.003 -0.0238,-0.008 -1.64599,-0.52277 -3.64904,-0.88167 -5.71851,-1.02371 l -0.16433,-0.0114 v -2.0314 -2.0159 l 3.41426,-0.008 z m 2.24999,0 h 2.8789 2.8515 c -0.003,0.10152 -0.0201,0.36817 -0.047,0.60152 -0.30338,2.62691 -1.1482,4.96257 -2.57814,7.12515 -0.064,0.0968 -0.11833,0.1744 -0.16795,0.24598 -0.0236,-0.0154 -0.0408,-0.0259 -0.0661,-0.0429 -0.95414,-0.64045 -2.51446,-1.47583 -3.65249,-1.95698 -0.0939,-0.0396 -0.17801,-0.0775 -0.25373,-0.10956 l 0.0584,-0.18707 c 0.49796,-1.63796 0.85619,-3.59008 0.94155,-5.15627 0.0104,-0.19146 0.0254,-0.41564 0.0351,-0.51987 z m -11.30111,6.3283 v 4.16409 0.21859 c -2.7e-4,1.11664 -0.005,2.16055 -0.008,2.90628 -0.001,0.32504 -0.002,0.55765 -0.004,0.76946 -0.003,-0.003 -0.005,-0.005 -0.008,-0.008 -0.22553,-0.20819 -0.51283,-0.481 -0.77721,-0.74621 -1.53924,-1.54406 -2.7834,-3.26179 -3.78892,-5.22655 -0.12989,-0.25381 -0.29147,-0.59486 -0.42167,-0.8785 -0.0554,-0.12066 -0.10329,-0.22148 -0.14108,-0.30903 0.0317,-0.0104 0.046,-0.0188 0.0863,-0.031 0.21132,-0.0641 0.53587,-0.15053 0.96841,-0.25787 1.24006,-0.30773 2.77681,-0.54073 3.85196,-0.58962 z m 2.2226,0 0.23461,0.0119 c 0.65956,0.0308 1.61183,0.14081 2.44946,0.28887 0.51469,0.091 1.19737,0.24745 1.74563,0.38706 0.27413,0.0698 0.51636,0.13468 0.68368,0.18706 0.0176,0.006 0.0234,0.007 0.0393,0.0119 -0.0508,0.11738 -0.12587,0.28451 -0.23823,0.52762 -1.08865,2.35448 -2.77217,4.66757 -4.66793,6.42545 -0.0857,0.0795 -0.15441,0.14242 -0.23048,0.21135 -0.001,-0.0474 -0.003,-0.0441 -0.004,-0.1018 -0.008,-0.57236 -0.0119,-1.68209 -0.0119,-3.7853 z m -9.49606,1.6521 c 0.027,0.0544 0.0456,0.0905 0.1018,0.21911 0.95181,2.17832 2.34232,4.26977 3.92172,6.04666 -0.28223,-0.0833 -0.59876,-0.18274 -0.83974,-0.26562 -1.94363,-0.66849 -3.74636,-1.71019 -5.31234,-3.07423 -0.12034,-0.10482 -0.47505,-0.45255 -0.78909,-0.76533 -0.15408,-0.15346 -0.29889,-0.29936 -0.40618,-0.41031 0.11687,-0.077 0.26929,-0.17334 0.45682,-0.28526 0.40071,-0.23916 0.91556,-0.52935 1.35547,-0.75757 0.24913,-0.12924 0.62484,-0.31128 0.95705,-0.46509 0.26487,-0.12264 0.43796,-0.19498 0.55449,-0.24236 z m 16.76952,0 c 0.20307,0.0776 0.57018,0.24103 1.03146,0.46922 0.52394,0.25919 1.09766,0.56248 1.49241,0.79272 0.39486,0.23027 0.65831,0.38715 0.80461,0.48834 -0.0807,0.0852 -0.18559,0.19651 -0.30489,0.31626 -0.24162,0.24251 -0.5312,0.5209 -0.72244,0.69556 -1.73724,1.58663 -3.99859,2.76731 -6.2699,3.41788 1.56251,-1.77594 2.92095,-3.79731 3.86746,-5.96087 0.0563,-0.12861 0.0743,-0.16466 0.10129,-0.21911 z"
       id="path4806-0" />
    <path
       inkscape:connector-curvature="0"
       id="path5258-9"
       d="m -248.34926,128.45114 v 8.33437 c 0,3.07817 2.47809,5.55625 5.55625,5.55625 h 38.89375 c 3.07816,0 5.55625,-2.47808 5.55625,-5.55625 v -8.33437 z"
       style="fill:#222222;fill-opacity:1;fill-rule:nonzero;stroke:none;stroke-width:0.5;stroke-linecap:butt;stroke-linejoin:round;stroke-miterlimit:4;stroke-dasharray:none;stroke-dashoffset:0;stroke-opacity:0.909449;paint-order:normal" />
    <g
       aria-label="GLOBALIST"
       transform="translate(-2.714673,-1.2421895)"
       id="text926"
       style="font-style:normal;font-weight:normal;font-size:7.76111px;line-height:1.25;font-family:sans-serif;white-space:pre;shape-inside:url(#rect928);fill:#eeeeee;fill-opacity:1;stroke:none">
      <path
         d="m -239.40943,136.15174 h 1.14864 v 2.20415 q -0.44238,0.33373 -1.02446,0.51224 -0.58209,0.1785 -1.17193,0.1785 -0.84596,0 -1.52118,-0.35701 -0.67522,-0.36477 -1.06327,-1.00118 -0.3803,-0.64417 -0.3803,-1.45133 0,-0.80716 0.3803,-1.44357 0.38805,-0.64417 1.07103,-1.00118 0.68298,-0.36477 1.5367,-0.36477 0.71402,0 1.29611,0.24059 0.58208,0.2406 0.9779,0.6985 l -0.80716,0.74507 q -0.58208,-0.61313 -1.40476,-0.61313 -0.51999,0 -0.92357,0.21731 -0.40358,0.21731 -0.62865,0.61313 -0.22507,0.39582 -0.22507,0.90805 0,0.50447 0.22507,0.90029 0.22507,0.39582 0.62089,0.62089 0.40357,0.21731 0.91581,0.21731 0.54328,0 0.9779,-0.23283 z"
         style="font-style:normal;font-variant:normal;font-weight:bold;font-stretch:normal;font-size:7.76111px;font-family:Montserrat;-inkscape-font-specification:'Montserrat Bold';fill:#eeeeee;fill-opacity:1"
         id="path932" />
      <path
         d="m -237.09662,133.52072 h 1.2573 v 4.40831 h 2.72415 v 1.02447 h -3.98145 z"
         style="font-style:normal;font-variant:normal;font-weight:bold;font-stretch:normal;font-size:7.76111px;font-family:Montserrat;-inkscape-font-specification:'Montserrat Bold';fill:#eeeeee;fill-opacity:1"
         id="path934" />
      <path
         d="m -229.87105,139.04663 q -0.84596,0 -1.52894,-0.36477 -0.67522,-0.36477 -1.06327,-1.00118 -0.3803,-0.64418 -0.3803,-1.44357 0,-0.79939 0.3803,-1.43581 0.38805,-0.64417 1.06327,-1.00894 0.68298,-0.36477 1.52894,-0.36477 0.84596,0 1.52118,0.36477 0.67521,0.36477 1.06327,1.00894 0.38805,0.63642 0.38805,1.43581 0,0.79939 -0.38805,1.44357 -0.38806,0.63641 -1.06327,1.00118 -0.67522,0.36477 -1.52118,0.36477 z m 0,-1.07103 q 0.48119,0 0.86924,-0.21731 0.38806,-0.22507 0.60537,-0.62089 0.22507,-0.39582 0.22507,-0.90029 0,-0.50447 -0.22507,-0.90029 -0.21731,-0.39582 -0.60537,-0.61313 -0.38805,-0.22507 -0.86924,-0.22507 -0.48119,0 -0.86925,0.22507 -0.38805,0.21731 -0.61312,0.61313 -0.21731,0.39582 -0.21731,0.90029 0,0.50447 0.21731,0.90029 0.22507,0.39582 0.61312,0.62089 0.38806,0.21731 0.86925,0.21731 z"
         style="font-style:normal;font-variant:normal;font-weight:bold;font-stretch:normal;font-size:7.76111px;font-family:Montserrat;-inkscape-font-specification:'Montserrat Bold';fill:#eeeeee;fill-opacity:1"
         id="path936" />
      <path
         d="m -221.96248,136.12845 q 0.46567,0.14747 0.72954,0.49672 0.26388,0.34148 0.26388,0.84596 0,0.71402 -0.5588,1.10207 -0.55104,0.3803 -1.61431,0.3803 h -2.80952 v -5.43278 h 2.6543 q 0.99342,0 1.52118,0.3803 0.53551,0.38029 0.53551,1.03222 0,0.39582 -0.19403,0.70626 -0.18626,0.31045 -0.52775,0.48895 z m -2.73967,-1.66087 v 1.28058 h 1.24954 q 0.46566,0 0.70626,-0.16298 0.24059,-0.16299 0.24059,-0.48119 0,-0.31821 -0.24059,-0.47343 -0.2406,-0.16298 -0.70626,-0.16298 z m 1.46685,3.53906 q 0.49671,0 0.74506,-0.16298 0.25612,-0.16298 0.25612,-0.50447 0,-0.67522 -1.00118,-0.67522 h -1.46685 v 1.34267 z"
         style="font-style:normal;font-variant:normal;font-weight:bold;font-stretch:normal;font-size:7.76111px;font-family:Montserrat;-inkscape-font-specification:'Montserrat Bold';fill:#eeeeee;fill-opacity:1"
         id="path938" />
      <path
         d="m -216.43658,137.78933 h -2.52236 l -0.48118,1.16417 h -1.28835 l 2.42147,-5.43278 h 1.24177 l 2.42923,5.43278 h -1.31939 z m -0.39581,-0.95461 -0.86148,-2.07998 -0.86149,2.07998 z"
         style="font-style:normal;font-variant:normal;font-weight:bold;font-stretch:normal;font-size:7.76111px;font-family:Montserrat;-inkscape-font-specification:'Montserrat Bold';fill:#eeeeee;fill-opacity:1"
         id="path940" />
      <path
         d="m -214.06945,133.52072 h 1.2573 v 4.40831 h 2.72415 v 1.02447 h -3.98145 z"
         style="font-style:normal;font-variant:normal;font-weight:bold;font-stretch:normal;font-size:7.76111px;font-family:Montserrat;-inkscape-font-specification:'Montserrat Bold';fill:#eeeeee;fill-opacity:1"
         id="path942" />
      <path
         d="m -209.38175,133.52072 h 1.2573 v 5.43278 h -1.2573 z"
         style="font-style:normal;font-variant:normal;font-weight:bold;font-stretch:normal;font-size:7.76111px;font-family:Montserrat;-inkscape-font-specification:'Montserrat Bold';fill:#eeeeee;fill-opacity:1"
         id="path944" />
      <path
         d="m -205.05106,139.04663 q -0.64417,0 -1.24954,-0.17074 -0.5976,-0.17851 -0.96237,-0.45791 l 0.42686,-0.94685 q 0.34925,0.25611 0.83044,0.41134 0.48118,0.15522 0.96237,0.15522 0.53552,0 0.79164,-0.15522 0.25611,-0.16299 0.25611,-0.42687 0,-0.19402 -0.15522,-0.3182 -0.14746,-0.13194 -0.38806,-0.20955 -0.23283,-0.0776 -0.63641,-0.17075 -0.62088,-0.14746 -1.0167,-0.29492 -0.39582,-0.14746 -0.68298,-0.47343 -0.2794,-0.32596 -0.2794,-0.86924 0,-0.47343 0.25612,-0.85372 0.25611,-0.38806 0.76835,-0.61313 0.51999,-0.22507 1.26506,-0.22507 0.51999,0 1.0167,0.12418 0.49671,0.12417 0.86925,0.35701 l -0.38806,0.95461 q -0.75283,-0.42686 -1.50565,-0.42686 -0.52776,0 -0.78387,0.17075 -0.24836,0.17074 -0.24836,0.45014 0,0.2794 0.28716,0.4191 0.29492,0.13194 0.89253,0.26388 0.62089,0.14746 1.0167,0.29492 0.39582,0.14746 0.67522,0.46567 0.28716,0.3182 0.28716,0.86148 0,0.46567 -0.26388,0.85372 -0.25611,0.3803 -0.77611,0.60537 -0.51999,0.22507 -1.26506,0.22507 z"
         style="font-style:normal;font-variant:normal;font-weight:bold;font-stretch:normal;font-size:7.76111px;font-family:Montserrat;-inkscape-font-specification:'Montserrat Bold';fill:#eeeeee;fill-opacity:1"
         id="path946" />
      <path
         d="m -200.83679,134.54519 h -1.73848 v -1.02447 h 4.73427 v 1.02447 h -1.73849 v 4.40831 h -1.2573 z"
         style="font-style:normal;font-variant:normal;font-weight:bold;font-stretch:normal;font-size:7.76111px;font-family:Montserrat;-inkscape-font-specification:'Montserrat Bold';fill:#eeeeee;fill-opacity:1"
         id="path948" />
    </g>
  </g>
</svg>
