<?xml version="1.0" encoding="UTF-8" standalone="no"?>
<svg
   xmlns:osb="http://www.openswatchbook.org/uri/2009/osb"
   xmlns:dc="http://purl.org/dc/elements/1.1/"
   xmlns:cc="http://creativecommons.org/ns#"
   xmlns:rdf="http://www.w3.org/1999/02/22-rdf-syntax-ns#"
   xmlns:svg="http://www.w3.org/2000/svg"
   xmlns="http://www.w3.org/2000/svg"
   xmlns:sodipodi="http://sodipodi.sourceforge.net/DTD/sodipodi-0.dtd"
   xmlns:inkscape="http://www.inkscape.org/namespaces/inkscape"
   width="200"
   height="200"
   viewBox="0 0 52.916668 52.916666"
   version="1.1"
   id="svg8"
   inkscape:version="1.0.2-2 (e86c870879, 2021-01-15)"
   sodipodi:docname="horny.svg">
  <defs
     id="defs2">
    <rect
       x="-45.462547"
       y="26.285958"
       width="43.311027"
       height="22.544184"
       id="rect894" />
    <rect
       x="-255.23004"
       y="125.83378"
       width="102.52459"
       height="46.959256"
       id="rect873" />
    <inkscape:path-effect
       effect="envelope"
       id="path-effect4658"
       is_visible="true"
       yy="true"
       xx="true"
       bendpath1="m -199.08406,108.42369 h 7.0057"
       bendpath2="m -192.07836,108.42369 v 6.75242"
       bendpath3="m -199.08406,115.17611 h 7.0057"
       bendpath4="m -199.08406,108.42369 v 6.75242" />
    <inkscape:path-effect
       effect="bend_path"
       id="path-effect4656"
       is_visible="true"
       bendpath="m -192.00142,114.60623 c 2.12577,-0.53066 4.48261,0.85111 7.0057,0"
       prop_scale="1"
       scale_y_rel="false"
       vertical="false"
       bendpath-nodetypes="cc" />
    <inkscape:path-effect
       effect="bounding_box"
       id="path-effect4654"
       is_visible="true"
       linkedpath=""
       visualbounds="false" />
    <linearGradient
       id="linearGradient3288"
       osb:paint="solid">
      <stop
         style="stop-color:#000000;stop-opacity:1;"
         offset="0"
         id="stop3286" />
    </linearGradient>
    <linearGradient
       id="linearGradient1364"
       osb:paint="solid">
      <stop
         style="stop-color:#ffffff;stop-opacity:1;"
         offset="0"
         id="stop1362" />
    </linearGradient>
    <rect
       x="293.80286"
       y="272.58966"
       width="25.455845"
       height="37.830212"
       id="rect1056" />
    <rect
       x="222.73865"
       y="266.22571"
       width="47.376156"
       height="54.09367"
       id="rect1050" />
    <rect
       x="139.30003"
       y="246.42671"
       width="58.336308"
       height="48.790367"
       id="rect1044" />
    <rect
       x="131.1683"
       y="203.64674"
       width="61.871841"
       height="73.892654"
       id="rect1038" />
    <rect
       x="81.67083"
       y="193.04015"
       width="63.63961"
       height="55.507881"
       id="rect1032" />
    <rect
       x="83.085045"
       y="274.35742"
       width="44.194176"
       height="38.890873"
       id="rect1026" />
    <rect
       x="3.5355339"
       y="269.05414"
       width="65.760933"
       height="53.386562"
       id="rect1020" />
    <rect
       x="14.142136"
       y="226.27417"
       width="79.195961"
       height="62.932503"
       id="rect1014" />
    <rect
       x="11.313708"
       y="171.82695"
       width="36.416"
       height="51.618793"
       id="rect1008" />
    <rect
       x="3.1819806"
       y="132.22897"
       width="102.88404"
       height="102.53048"
       id="rect1002" />
  </defs>
  <sodipodi:namedview
     id="base"
     pagecolor="#ffffff"
     bordercolor="#666666"
     borderopacity="1.0"
     inkscape:pageopacity="0.0"
     inkscape:pageshadow="2"
     inkscape:zoom="2"
     inkscape:cx="47.720598"
     inkscape:cy="87.382653"
     inkscape:document-units="mm"
     inkscape:current-layer="layer3"
     showgrid="false"
     fit-margin-top="0"
     fit-margin-left="0"
     fit-margin-right="0"
     fit-margin-bottom="0"
     inkscape:window-width="1920"
     inkscape:window-height="1017"
     inkscape:window-x="-8"
     inkscape:window-y="-8"
     inkscape:window-maximized="1"
     showguides="false"
     inkscape:object-nodes="true"
     units="px"
     inkscape:snap-page="true"
     inkscape:document-rotation="0" />
  <metadata
     id="metadata5">
    <rdf:RDF>
      <cc:Work
         rdf:about="">
        <dc:format>image/svg+xml</dc:format>
        <dc:type
           rdf:resource="http://purl.org/dc/dcmitype/StillImage" />
        <dc:title />
      </cc:Work>
    </rdf:RDF>
  </metadata>
  <g
     inkscape:label="Layer 1"
     inkscape:groupmode="layer"
     id="layer1"
     transform="translate(249.80447,-91.409467)">
    <rect
       y="91.40947"
       x="-249.80447"
       height="52.916668"
       width="52.916668"
       id="rect5238-5"
       style="fill:#222222;fill-opacity:1;fill-rule:nonzero;stroke:none;stroke-width:0.5;stroke-linecap:butt;stroke-linejoin:round;stroke-miterlimit:4;stroke-dasharray:none;stroke-dashoffset:0;stroke-opacity:0.909449;paint-order:normal"
       rx="3.96875"
       ry="3.96875" />
  </g>
  <g
     inkscape:groupmode="layer"
     id="layer2"
     inkscape:label="Layer 2"
     style="display:inline">
    <path
       id="rect5240-3"
       style="fill:#ffffff;fill-opacity:1;fill-rule:nonzero;stroke:none;stroke-width:0.5;stroke-linecap:butt;stroke-linejoin:round;stroke-miterlimit:4;stroke-dasharray:none;stroke-dashoffset:0;stroke-opacity:0.909449;paint-order:normal"
       transform="translate(249.80447,-91.409467)"
       d="m -244.5128,94.055298 h 42.33334 c 1.46579,0 2.64583,1.180041 2.64583,2.645833 v 42.333329 c 0,1.4658 -1.18004,2.64584 -2.64583,2.64584 h -42.33334 c -1.46579,0 -2.64583,-1.18004 -2.64583,-2.64584 V 96.701131 c 0,-1.465792 1.18004,-2.645833 2.64583,-2.645833 z" />
    <path
       id="path884"
       style="fill:#000000;fill-opacity:1;fill-rule:nonzero;stroke:none;stroke-width:0.5;stroke-linecap:butt;stroke-linejoin:round;stroke-miterlimit:4;stroke-dasharray:none;stroke-dashoffset:0;stroke-opacity:0.909449;paint-order:normal"
       transform="translate(249.80447,-91.409467)"
       d="m -244.5128,94.055298 h 12.70833 v 17.354172 h -15.35416 V 96.701131 c 0,-1.465792 1.18004,-2.645833 2.64583,-2.645833 z"
       sodipodi:nodetypes="scccss" />
    <path
       id="path886"
       style="fill:#000000;fill-opacity:1;fill-rule:nonzero;stroke:none;stroke-width:0.5;stroke-linecap:butt;stroke-linejoin:round;stroke-miterlimit:4;stroke-dasharray:none;stroke-dashoffset:0;stroke-opacity:0.909449;paint-order:normal"
       transform="translate(249.80447,-91.409467)"
       d="m -231.80447,118.40947 v 23.27083 h -12.70833 c -1.46579,0 -2.64583,-1.18004 -2.64583,-2.64584 v -20.62499 z"
       sodipodi:nodetypes="ccsscc" />
    <path
       id="path888"
       style="fill:#000000;fill-opacity:1;fill-rule:nonzero;stroke:none;stroke-width:0.5;stroke-linecap:butt;stroke-linejoin:round;stroke-miterlimit:4;stroke-dasharray:none;stroke-dashoffset:0;stroke-opacity:0.909449;paint-order:normal"
       transform="translate(249.80447,-91.409467)"
       d="m -224.80447,94.055298 h 22.62501 c 1.46579,0 2.64583,1.180041 2.64583,2.645833 v 14.708339 h -25.27084 z"
       sodipodi:nodetypes="cssccc" />
    <path
       id="path890"
       style="fill:#000000;fill-opacity:1;fill-rule:nonzero;stroke:none;stroke-width:0.5;stroke-linecap:butt;stroke-linejoin:round;stroke-miterlimit:4;stroke-dasharray:none;stroke-dashoffset:0;stroke-opacity:0.909449;paint-order:normal"
       transform="translate(249.80447,-91.409467)"
       d="m -199.53363,118.40947 v 20.62499 c 0,1.4658 -1.18004,2.64584 -2.64583,2.64584 h -22.62501 l 0,-23.27083 z"
       sodipodi:nodetypes="cssccc" />
    <path
       id="rect898"
       style="display:inline;fill:#ffffff;fill-opacity:1;stroke-width:1.265;stroke-linecap:round;paint-order:stroke fill markers"
       d="m 36.809696,24.274754 h 7.43121 l 0,6.68128 -8.179565,-0.608039 z"
       sodipodi:nodetypes="ccccc" />
  </g>
  <g
     inkscape:groupmode="layer"
     id="layer3"
     inkscape:label="Layer 3"
     style="display:inline">
    <path
       inkscape:connector-curvature="0"
       id="path5244-6"
       d="m -248.34926,128.45114 v 8.33437 c 0,3.07816 2.47808,5.55625 5.55625,5.55625 h 38.89375 c 3.07816,0 5.55625,-2.47809 5.55625,-5.55625 v -8.33437 z"
       style="fill:#222222;fill-opacity:1;fill-rule:nonzero;stroke:none;stroke-width:0.5;stroke-linecap:butt;stroke-linejoin:round;stroke-miterlimit:4;stroke-dasharray:none;stroke-dashoffset:0;stroke-opacity:0.909449;paint-order:normal"
       transform="translate(249.80447,-91.409467)" />
    <g
       id="g88867"
       transform="matrix(0.79246984,0.04153159,-0.04153159,0.79246984,-61.242078,-119.14544)"
       style="fill:#222222;fill-opacity:1;stroke-width:1.26015">
      <path
         id="path88854"
         style="fill:#222222;fill-opacity:1;stroke-width:1.26015"
         d="m 127.50304,162.02403 c 2.22285,-0.34891 4.44504,0.0383 6.6536,0.2279 1.87681,0.24904 3.63229,1.10122 5.18879,2.14228 1.60196,1.52806 3.1158,3.20919 4.11514,5.19023 0.79005,1.93348 1.81524,3.80317 2.03025,5.92362 0.70268,2.42377 0.56263,4.98878 0.24523,7.45286 -0.0437,2.94946 -1.69027,5.95025 -4.42211,7.21797 -1.86396,0.91916 -4.0166,1.07605 -6.04752,1.3691 -2.98909,-0.0522 -5.99115,0.11165 -8.97104,-0.0961 -1.74746,-0.38369 -3.69827,-0.36145 -5.30494,-1.08065 0.84939,-0.64446 2.14072,-1.53553 1.81452,-2.75793 -0.32886,-0.93613 -1.44873,-1.4422 -1.74817,-2.29948 1.64424,-0.21599 3.31752,-0.014 4.94907,-0.3653 1.60616,0.40935 1.24511,-1.34904 2.4197,-1.79405 -0.0326,-1.02492 -1.1654,-1.57513 -1.76295,-2.32764 -0.52984,-0.84345 -2.37367,-1.87284 -0.68437,-2.60652 1.2144,-0.85807 2.60135,-1.55627 3.66522,-2.577 0.0693,-1.11137 0.86124,-2.37501 -0.56622,-3.01292 -0.006,-0.84649 1.78403,-1.17424 1.96466,-2.25772 0.0384,-1.28209 -1.84829,-1.42578 -2.70566,-2.07002 -1.29995,-0.66888 -2.66303,-1.27756 -4.1282,-1.4487 0.43142,-1.03624 0.88145,-2.23306 1.21557,-3.38822 -0.30478,-1.50725 1.06832,-1.00719 2.07932,-1.44204 m 15.18426,21.98171 c 1.28242,-0.0292 1.17723,-3.33525 -0.0458,-2.07123 0.0454,2.06692 -1.88329,-0.185 -2.49632,0.86967 0.0317,0.87906 1.79953,1.38404 2.54209,1.20177 m -1.309,-2.85327 c 0.71164,-1.0464 0.37791,-2.77007 0.0593,-4.00401 -0.52102,-1.39975 -2.31938,-1.54244 -3.57119,-1.90212 -2.09749,-0.1568 -4.64384,0.96792 -5.03493,3.24442 -1.00625,1.93055 1.82255,0.22292 2.70712,0.66031 2.06678,0.29677 4.00056,1.02585 5.83836,2.00143" />
      <path
         id="path88852"
         style="fill:#222222;fill-opacity:1;stroke-width:1.26015"
         d="m 119.5161,156.22218 c 2.0381,-0.2624 4.25055,-0.35924 6.06861,0.77528 1.48024,0.56538 2.49641,1.96175 3.04194,3.3772 -1.43817,0.67056 -3.14778,0.84437 -4.65825,1.3917 -0.0297,1.05812 -0.4991,2.23906 -0.14173,3.32214 -0.82336,0.74596 -1.67081,2.29844 -0.0831,2.72735 2.10086,0.30352 3.98492,1.32168 5.82278,2.31662 -0.11945,1.05904 -2.44972,1.21458 -1.69177,2.75212 0.65468,0.77415 0.85579,2.35397 -0.25459,2.83352 -1.14881,1.17593 -1.68196,-0.68623 -2.57185,-1.18687 -1.71397,-1.08754 -4.29432,-1.0443 -5.6645,0.60444 -1.15791,1.04957 -2.24154,2.43007 -1.98675,4.09904 -0.74022,1.75445 1.25918,1.48322 2.3833,1.46069 1.68269,-0.0702 3.34461,0.19331 5.00226,0.4083 1.03901,0.13625 2.4335,1.59732 1.08016,2.34888 -1.7843,1.20827 -4.09184,0.34481 -6.04444,0.8475 -1.10375,0.8814 0.56874,1.96308 1.1139,2.71035 1.2624,0.82111 -0.0643,2.04808 -0.90039,2.57044 -1.06518,0.78583 -2.20061,-0.48685 -3.2542,-0.58719 0.51485,1.81573 2.77576,2.2383 3.7288,3.77357 1.04355,1.43827 2.53451,3.14981 2.04685,5.01384 -1.15385,-1.49261 -2.31215,-3.18324 -4.16132,-3.89685 -1.58146,-0.92713 -3.60384,-1.09303 -4.8318,-2.5994 -1.13541,-1.07122 -0.8193,-2.73363 -1.02296,-4.08563 -1.53467,1.1324 -3.08915,2.78516 -5.20054,2.49635 -1.84993,0.013 -3.75333,-0.34181 -5.27647,-1.44883 -1.85219,-1.10931 -3.335979,-2.7397 -5.211239,-3.802 -0.812902,-0.38653 -3.757003,-0.19677 -1.909431,-1.45448 1.252839,-1.06934 3.130165,-1.77078 4.624117,-0.74335 1.502043,1.11912 2.899953,2.89662 4.995363,2.67606 1.32256,0.0464 3.09635,0.13722 3.92337,-1.03164 -1.63322,0.0106 -3.45166,0.13858 -4.71645,-1.11166 -2.50693,-2.42852 -2.90925,-6.07449 -4.00231,-9.2176 -0.418072,-1.65839 -2.00288,-2.76345 -3.701541,-2.65731 -1.921598,-0.0802 -1.005379,-1.6692 0.406868,-1.68179 1.734538,-0.23933 3.647163,0.16893 5.036453,1.28315 1.41987,1.36442 2.50918,3.10546 2.92489,5.03941 0.50629,1.18647 0.37738,2.74365 1.27491,3.70055 1.69607,0.50226 1.71369,-1.86631 1.94067,-2.95825 0.29585,-1.82179 0.55121,-3.65139 0.49099,-5.50661 0.23036,-1.67526 0.35779,-3.36538 0.856,-4.99548 0.76117,-2.05947 1.74265,-4.11245 3.24101,-5.73784 1.68234,-1.40802 3.34664,-3.11815 5.61744,-3.48372 0.54707,-0.1507 1.10896,-0.22287 1.66308,-0.3401" />
    </g>
    <g
       aria-label="HORNY"
       transform="translate(50.918689,11.67894)"
       id="text892"
       style="font-style:normal;font-weight:normal;font-size:10.5833px;line-height:1.25;font-family:sans-serif;white-space:pre;shape-inside:url(#rect894);fill:#ffffff;fill-opacity:1;stroke:none">
      <path
         d="m -37.789998,28.603889 v 7.408309 h -1.714495 v -3.037407 h -3.365489 v 3.037407 h -1.714495 v -7.408309 h 1.714495 v 2.92099 h 3.365489 v -2.92099 z"
         style="font-style:normal;font-variant:normal;font-weight:bold;font-stretch:normal;font-family:Montserrat;-inkscape-font-specification:'Montserrat Bold';fill:#ffffff"
         id="path89586" />
      <path
         d="m -32.445447,36.139198 q -1.153579,0 -2.08491,-0.497415 -0.920747,-0.497415 -1.449912,-1.365246 -0.518581,-0.878414 -0.518581,-1.968494 0,-1.090079 0.518581,-1.95791 0.529165,-0.878414 1.449912,-1.375829 0.931331,-0.497415 2.08491,-0.497415 1.15358,0 2.074327,0.497415 0.920747,0.497415 1.449912,1.375829 0.529165,0.867831 0.529165,1.95791 0,1.09008 -0.529165,1.968494 -0.529165,0.867831 -1.449912,1.365246 -0.920747,0.497415 -2.074327,0.497415 z m 0,-1.460495 q 0.656165,0 1.18533,-0.296333 0.529165,-0.306915 0.825497,-0.846664 0.306916,-0.539748 0.306916,-1.227663 0,-0.687914 -0.306916,-1.227662 -0.296332,-0.539749 -0.825497,-0.836081 -0.529165,-0.306916 -1.18533,-0.306916 -0.656164,0 -1.185329,0.306916 -0.529165,0.296332 -0.836081,0.836081 -0.296332,0.539748 -0.296332,1.227662 0,0.687915 0.296332,1.227663 0.306916,0.539749 0.836081,0.846664 0.529165,0.296333 1.185329,0.296333 z"
         style="font-style:normal;font-variant:normal;font-weight:bold;font-stretch:normal;font-family:Montserrat;-inkscape-font-specification:'Montserrat Bold';fill:#ffffff"
         id="path89588" />
      <path
         d="m -22.38073,36.012198 -1.428746,-2.063743 h -0.08467 -1.492245 v 2.063743 h -1.714495 v -7.408309 h 3.20674 q 0.984247,0 1.703911,0.328082 0.730248,0.328082 1.12183,0.93133 0.391582,0.603248 0.391582,1.428746 0,0.825497 -0.402165,1.428745 -0.391582,0.592665 -1.12183,0.910164 l 1.661578,2.381242 z m -0.03175,-4.720151 q 0,-0.624415 -0.402166,-0.952497 -0.402165,-0.338666 -1.174746,-0.338666 h -1.396995 v 2.582325 h 1.396995 q 0.772581,0 1.174746,-0.338665 0.402166,-0.338666 0.402166,-0.952497 z"
         style="font-style:normal;font-variant:normal;font-weight:bold;font-stretch:normal;font-family:Montserrat;-inkscape-font-specification:'Montserrat Bold';fill:#ffffff"
         id="path89590" />
      <path
         d="m -12.527692,28.603889 v 7.408309 h -1.407579 l -3.693572,-4.497902 v 4.497902 h -1.693328 v -7.408309 h 1.418163 l 3.682988,4.497902 v -4.497902 z"
         style="font-style:normal;font-variant:normal;font-weight:bold;font-stretch:normal;font-family:Montserrat;-inkscape-font-specification:'Montserrat Bold';fill:#ffffff"
         id="path89592" />
      <path
         d="m -7.2148894,33.38754 v 2.624658 H -8.929384 v -2.645825 l -2.868074,-4.762484 h 1.8203274 l 1.979077,3.291406 1.979077,-3.291406 h 1.6827447 z"
         style="font-style:normal;font-variant:normal;font-weight:bold;font-stretch:normal;font-family:Montserrat;-inkscape-font-specification:'Montserrat Bold';fill:#ffffff"
         id="path89594" />
    </g>
  </g>
</svg>
