<?xml version="1.0" encoding="UTF-8" standalone="no"?>
<svg
   xmlns:dc="http://purl.org/dc/elements/1.1/"
   xmlns:cc="http://creativecommons.org/ns#"
   xmlns:rdf="http://www.w3.org/1999/02/22-rdf-syntax-ns#"
   xmlns:svg="http://www.w3.org/2000/svg"
   xmlns="http://www.w3.org/2000/svg"
   xmlns:sodipodi="http://sodipodi.sourceforge.net/DTD/sodipodi-0.dtd"
   xmlns:inkscape="http://www.inkscape.org/namespaces/inkscape"
   width="200"
   height="200"
   viewBox="0 0 52.916668 52.916666"
   version="1.1"
   id="svg8"
   inkscape:version="1.0.2-2 (e86c870879, 2021-01-15)"
   sodipodi:docname="plan.svg">
  <defs
     id="defs2">
    <rect
       x="-245.67036"
       y="131.61373"
       width="63.045247"
       height="19.533691"
       id="rect918" />
    <inkscape:path-effect
       effect="envelope"
       id="path-effect4658"
       is_visible="true"
       yy="true"
       xx="true"
       bendpath1="m -199.08406,108.42369 h 7.0057"
       bendpath2="m -192.07836,108.42369 v 6.75242"
       bendpath3="m -199.08406,115.17611 h 7.0057"
       bendpath4="m -199.08406,108.42369 v 6.75242" />
    <inkscape:path-effect
       effect="bend_path"
       id="path-effect4656"
       is_visible="true"
       bendpath="m -192.00142,114.60623 c 2.12577,-0.53066 4.48261,0.85111 7.0057,0"
       prop_scale="1"
       scale_y_rel="false"
       vertical="false"
       bendpath-nodetypes="cc" />
    <inkscape:path-effect
       effect="bounding_box"
       id="path-effect4654"
       is_visible="true"
       linkedpath=""
       visualbounds="false" />
  </defs>
  <sodipodi:namedview
     id="base"
     pagecolor="#ffffff"
     bordercolor="#666666"
     borderopacity="1.0"
     inkscape:pageopacity="0.0"
     inkscape:pageshadow="2"
     inkscape:zoom="2.56"
     inkscape:cx="121.23568"
     inkscape:cy="120.16771"
     inkscape:document-units="mm"
     inkscape:current-layer="layer1"
     showgrid="false"
     fit-margin-top="0"
     fit-margin-left="0"
     fit-margin-right="0"
     fit-margin-bottom="0"
     inkscape:window-width="1920"
     inkscape:window-height="1017"
     inkscape:window-x="-8"
     inkscape:window-y="-8"
     inkscape:window-maximized="1"
     showguides="false"
     inkscape:object-nodes="true"
     units="px"
     inkscape:snap-page="true"
     inkscape:document-rotation="0" />
  <metadata
     id="metadata5">
    <rdf:RDF>
      <cc:Work
         rdf:about="">
        <dc:format>image/svg+xml</dc:format>
        <dc:type
           rdf:resource="http://purl.org/dc/dcmitype/StillImage" />
        <dc:title></dc:title>
      </cc:Work>
    </rdf:RDF>
  </metadata>
  <g
     inkscape:label="Layer 1"
     inkscape:groupmode="layer"
     id="layer1"
     transform="translate(249.80447,-91.409467)">
    <rect
       y="91.40947"
       x="-249.80447"
       height="52.916668"
       width="52.916668"
       id="rect5238-5"
       style="fill:#222222;fill-opacity:1;fill-rule:nonzero;stroke:none;stroke-width:0.5;stroke-linecap:butt;stroke-linejoin:round;stroke-miterlimit:4;stroke-dasharray:none;stroke-dashoffset:0;stroke-opacity:0.909449;paint-order:normal"
       rx="3.96875"
       ry="3.96875" />
    <rect
       style="fill:#ff4900;fill-opacity:1;fill-rule:nonzero;stroke:none;stroke-width:0.5;stroke-linecap:butt;stroke-linejoin:round;stroke-miterlimit:4;stroke-dasharray:none;stroke-dashoffset:0;stroke-opacity:0.909449;paint-order:normal"
       id="rect5240-3"
       width="47.625"
       height="47.625"
       x="-247.15863"
       y="94.055298"
       rx="2.6458333"
       ry="2.6458333" />
    <path
       inkscape:connector-curvature="0"
       id="path5244-6"
       d="m -248.34926,128.45114 v 8.33437 c 0,3.07816 2.47808,5.55625 5.55625,5.55625 h 38.89375 c 3.07816,0 5.55625,-2.47809 5.55625,-5.55625 v -8.33437 z"
       style="fill:#222222;fill-opacity:1;fill-rule:nonzero;stroke:none;stroke-width:0.5;stroke-linecap:butt;stroke-linejoin:round;stroke-miterlimit:4;stroke-dasharray:none;stroke-dashoffset:0;stroke-opacity:0.909449;paint-order:normal" />
    <g
       id="planning-svgrepo-com"
       transform="matrix(0.07181532,0,0,0.07181532,-223.34613,112.28674)"
       style="clip-rule:evenodd;fill-rule:evenodd;stroke-linejoin:round;stroke-miterlimit:2">
      <g
         transform="translate(-245,-245)"
         id="g66">
        <g
           id="g64">
          <path
             d="m 10,372.5 h 405 c 2.602,-10e-4 5.159,-1.016 7.071,-2.929 l 65,-65 c 1.912,-1.913 2.904,-4.47 2.905,-7.071 H 490 v -245 c 0,-5.522 -4.477,-10 -10,-10 H 10 c -5.523,0 -10,4.478 -10,10 v 310 c 0,5.522 4.477,10 10,10 z M 425,338.357 V 307.5 h 30.858 z M 20,62.5 h 450 v 225 h -55 c -5.523,0 -10,4.478 -10,10 v 55 H 20 Z"
             style="fill:#222222;fill-rule:nonzero"
             id="path34" />
          <path
             d="M 350,92.5 H 250 c -5.523,0 -10,4.478 -10,10 v 15 h -25 c -5.523,0 -10,4.478 -10,10 v 75 h -80 v -35 h 55 c 5.523,0 10,-4.478 10,-10 v -60 c 0,-5.522 -4.477,-10 -10,-10 H 60 c -5.523,0 -10,4.478 -10,10 v 60 c 0,5.522 4.477,10 10,10 h 45 v 45 c 0,5.522 4.477,10 10,10 h 90 v 70 c 0,5.522 4.477,10 10,10 h 25 v 10 c 0,5.522 4.477,10 10,10 h 100 c 5.523,0 10,-4.478 10,-10 v -50 c 0,-5.522 -4.477,-10 -10,-10 H 250 c -5.523,0 -10,4.478 -10,10 v 20 h -15 v -60 h 15 v 10 c 0,5.522 4.477,10 10,10 h 100 c 5.523,0 10,-4.478 10,-10 v -50 c 0,-5.522 -4.477,-10 -10,-10 H 250 c -5.523,0 -10,4.478 -10,10 v 20 h -15 v -65 h 15 v 15 c 0,5.522 4.477,10 10,10 h 100 c 5.523,0 10,-4.478 10,-10 v -50 c 0,-5.522 -4.477,-10 -10,-10 z m -280,55 v -40 h 100 v 40 z m 190,125 h 80 v 30 h -80 z m 0,-80 h 80 v 30 h -80 z m 80,-50 h -80 v -30 h 80 z"
             style="fill:#222222;fill-rule:nonzero"
             id="path36" />
          <rect
             x="50"
             y="247.5"
             width="75"
             height="20"
             style="fill:#222222"
             id="rect38" />
          <rect
             x="50"
             y="277.5"
             width="75"
             height="20"
             style="fill:#222222"
             id="rect40" />
          <rect
             x="50"
             y="307.5"
             width="130"
             height="20"
             style="fill:#222222"
             id="rect42" />
          <rect
             x="135"
             y="247.5"
             width="20"
             height="20"
             style="fill:#222222"
             id="rect44" />
          <rect
             x="380"
             y="92.5"
             width="25"
             height="20"
             style="fill:#222222"
             id="rect46" />
          <rect
             x="420"
             y="92.5"
             width="25"
             height="20"
             style="fill:#222222"
             id="rect48" />
          <rect
             x="380"
             y="122.5"
             width="25"
             height="20"
             style="fill:#222222"
             id="rect50" />
          <rect
             x="420"
             y="122.5"
             width="25"
             height="20"
             style="fill:#222222"
             id="rect52" />
          <rect
             x="380"
             y="152.5"
             width="25"
             height="20"
             style="fill:#222222"
             id="rect54" />
          <rect
             x="420"
             y="152.5"
             width="25"
             height="20"
             style="fill:#222222"
             id="rect56" />
          <rect
             x="380"
             y="182.5"
             width="25"
             height="20"
             style="fill:#222222"
             id="rect58" />
          <rect
             x="420"
             y="182.5"
             width="25"
             height="20"
             style="fill:#222222"
             id="rect60" />
          <path
             d="m 483.162,408.013 -60,-20 c -1.033,-0.344 -2.1,-0.498 -3.162,-0.498 V 387.5 H 10 c -5.523,0 -10,4.478 -10,10 v 40 c 0,5.522 4.477,10 10,10 h 410.001 c 1.061,0 2.129,-0.169 3.161,-0.513 l 60,-20 c 4.083,-1.361 6.838,-5.183 6.838,-9.487 0,-4.304 -2.754,-8.126 -6.838,-9.487 z M 60,427.5 H 20 v -20 h 40 z m 350,0 H 80 v -20 h 330 z m 20,-3.874 v -12.252 l 18.377,6.126 z"
             style="fill:#222222;fill-rule:nonzero"
             id="path62" />
        </g>
      </g>
    </g>
    <g
       aria-label="PLANNING"
       transform="translate(-1.5945088,-1.0351583)"
       id="text916"
       style="font-style:normal;font-weight:normal;font-size:8.46667px;line-height:1.25;font-family:sans-serif;white-space:pre;shape-inside:url(#rect918);fill:#eeeeee;fill-opacity:1;stroke:none">
      <path
         d="m -242.40179,133.46827 q 0.7874,0 1.36314,0.26247 0.5842,0.26247 0.89746,0.74507 0.31327,0.4826 0.31327,1.143 0,0.65193 -0.31327,1.143 -0.31326,0.4826 -0.89746,0.74507 -0.57574,0.254 -1.36314,0.254 h -1.1938 v 1.63406 h -1.3716 v -5.92667 z m -0.0762,3.17501 q 0.61807,0 0.9398,-0.26247 0.32174,-0.27094 0.32174,-0.762 0,-0.49954 -0.32174,-0.762 -0.32173,-0.27094 -0.9398,-0.27094 h -1.1176 v 2.05741 z"
         style="font-style:normal;font-variant:normal;font-weight:bold;font-stretch:normal;font-size:8.46667px;font-family:Montserrat;-inkscape-font-specification:'Montserrat Bold';fill:#eeeeee;fill-opacity:1"
         id="path922" />
      <path
         d="m -238.85427,133.46827 h 1.3716 v 4.80907 h 2.9718 v 1.1176 h -4.3434 z"
         style="font-style:normal;font-variant:normal;font-weight:bold;font-stretch:normal;font-size:8.46667px;font-family:Montserrat;-inkscape-font-specification:'Montserrat Bold';fill:#eeeeee;fill-opacity:1"
         id="path924" />
      <path
         d="m -229.78649,138.12494 h -2.75167 l -0.52493,1.27 h -1.40547 l 2.6416,-5.92667 h 1.35467 l 2.65007,5.92667 h -1.43934 z m -0.4318,-1.0414 -0.9398,-2.26907 -0.9398,2.26907 z"
         style="font-style:normal;font-variant:normal;font-weight:bold;font-stretch:normal;font-size:8.46667px;font-family:Montserrat;-inkscape-font-specification:'Montserrat Bold';fill:#eeeeee;fill-opacity:1"
         id="path926" />
      <path
         d="m -221.76856,133.46827 v 5.92667 h -1.12607 l -2.95487,-3.59833 v 3.59833 h -1.35467 v -5.92667 h 1.13454 l 2.9464,3.59834 v -3.59834 z"
         style="font-style:normal;font-variant:normal;font-weight:bold;font-stretch:normal;font-size:8.46667px;font-family:Montserrat;-inkscape-font-specification:'Montserrat Bold';fill:#eeeeee;fill-opacity:1"
         id="path928" />
      <path
         d="m -214.92751,133.46827 v 5.92667 h -1.12606 l -2.95487,-3.59833 v 3.59833 h -1.35467 v -5.92667 h 1.13454 l 2.9464,3.59834 v -3.59834 z"
         style="font-style:normal;font-variant:normal;font-weight:bold;font-stretch:normal;font-size:8.46667px;font-family:Montserrat;-inkscape-font-specification:'Montserrat Bold';fill:#eeeeee;fill-opacity:1"
         id="path930" />
      <path
         d="m -213.52205,133.46827 h 1.3716 v 5.92667 h -1.3716 z"
         style="font-style:normal;font-variant:normal;font-weight:bold;font-stretch:normal;font-size:8.46667px;font-family:Montserrat;-inkscape-font-specification:'Montserrat Bold';fill:#eeeeee;fill-opacity:1"
         id="path932" />
      <path
         d="m -205.30939,133.46827 v 5.92667 h -1.12606 l -2.95487,-3.59833 v 3.59833 h -1.35467 v -5.92667 h 1.13453 l 2.94641,3.59834 v -3.59834 z"
         style="font-style:normal;font-variant:normal;font-weight:bold;font-stretch:normal;font-size:8.46667px;font-family:Montserrat;-inkscape-font-specification:'Montserrat Bold';fill:#eeeeee;fill-opacity:1"
         id="path934" />
      <path
         d="m -199.8992,136.33847 h 1.25307 v 2.40454 q -0.4826,0.36407 -1.1176,0.5588 -0.635,0.19473 -1.27847,0.19473 -0.92287,0 -1.65947,-0.38946 -0.7366,-0.39794 -1.15993,-1.0922 -0.41487,-0.70274 -0.41487,-1.58327 0,-0.88054 0.41487,-1.5748 0.42333,-0.70274 1.1684,-1.0922 0.74507,-0.39794 1.6764,-0.39794 0.77894,0 1.41394,0.26247 0.635,0.26247 1.0668,0.762 l -0.88054,0.8128 q -0.635,-0.66887 -1.53247,-0.66887 -0.56726,0 -1.00753,0.23707 -0.44027,0.23707 -0.6858,0.66887 -0.24553,0.4318 -0.24553,0.9906 0,0.55033 0.24553,0.98213 0.24553,0.4318 0.67733,0.67734 0.44027,0.23706 0.99907,0.23706 0.59267,0 1.0668,-0.254 z"
         style="font-style:normal;font-variant:normal;font-weight:bold;font-stretch:normal;font-size:8.46667px;font-family:Montserrat;-inkscape-font-specification:'Montserrat Bold';fill:#eeeeee;fill-opacity:1"
         id="path936" />
    </g>
  </g>
</svg>
