<?xml version="1.0" encoding="UTF-8" standalone="no"?>
<svg
   xmlns:dc="http://purl.org/dc/elements/1.1/"
   xmlns:cc="http://creativecommons.org/ns#"
   xmlns:rdf="http://www.w3.org/1999/02/22-rdf-syntax-ns#"
   xmlns:svg="http://www.w3.org/2000/svg"
   xmlns="http://www.w3.org/2000/svg"
   xmlns:sodipodi="http://sodipodi.sourceforge.net/DTD/sodipodi-0.dtd"
   xmlns:inkscape="http://www.inkscape.org/namespaces/inkscape"
   width="200"
   height="200"
   viewBox="0 0 52.916668 52.916666"
   version="1.1"
   id="svg8"
   inkscape:version="1.0.2-2 (e86c870879, 2021-01-15)"
   sodipodi:docname="jannyphile.svg">
  <defs
     id="defs2">
    <rect
       x="14.780005"
       y="42.001406"
       width="38.136662"
       height="10.91526"
       id="rect983" />
    <rect
       x="-245.70343"
       y="111.31936"
       width="65.484375"
       height="18.71927"
       id="rect868" />
    <rect
       x="-268.4576"
       y="130.43551"
       width="120.12083"
       height="27.384375"
       id="rect867" />
    <inkscape:path-effect
       effect="envelope"
       id="path-effect4658"
       is_visible="true"
       yy="true"
       xx="true"
       bendpath1="m -199.08406,108.42369 h 7.0057"
       bendpath2="m -192.07836,108.42369 v 6.75242"
       bendpath3="m -199.08406,115.17611 h 7.0057"
       bendpath4="m -199.08406,108.42369 v 6.75242" />
    <inkscape:path-effect
       effect="bend_path"
       id="path-effect4656"
       is_visible="true"
       bendpath="m -192.00142,114.60623 c 2.12577,-0.53066 4.48261,0.85111 7.0057,0"
       prop_scale="1"
       scale_y_rel="false"
       vertical="false"
       bendpath-nodetypes="cc" />
    <inkscape:path-effect
       effect="bounding_box"
       id="path-effect4654"
       is_visible="true"
       linkedpath=""
       visualbounds="false" />
  </defs>
  <sodipodi:namedview
     id="base"
     pagecolor="#ffffff"
     bordercolor="#666666"
     borderopacity="1.0"
     inkscape:pageopacity="0.0"
     inkscape:pageshadow="2"
     inkscape:zoom="4"
     inkscape:cx="99.021949"
     inkscape:cy="97.461018"
     inkscape:document-units="mm"
     inkscape:current-layer="layer5"
     showgrid="false"
     fit-margin-top="0"
     fit-margin-left="0"
     fit-margin-right="0"
     fit-margin-bottom="0"
     inkscape:window-width="1920"
     inkscape:window-height="1017"
     inkscape:window-x="-8"
     inkscape:window-y="-8"
     inkscape:window-maximized="1"
     showguides="false"
     inkscape:object-nodes="true"
     units="px"
     inkscape:snap-page="true"
     inkscape:document-rotation="0" />
  <metadata
     id="metadata5">
    <rdf:RDF>
      <cc:Work
         rdf:about="">
        <dc:format>image/svg+xml</dc:format>
        <dc:type
           rdf:resource="http://purl.org/dc/dcmitype/StillImage" />
        <dc:title />
      </cc:Work>
    </rdf:RDF>
  </metadata>
  <g
     inkscape:groupmode="layer"
     id="layer5"
     inkscape:label="Final layer"
     style="display:inline">
    <path
       id="rect5238-5"
       style="fill:#222222;fill-opacity:1;fill-rule:nonzero;stroke:none;stroke-width:0.5;stroke-linecap:butt;stroke-linejoin:round;stroke-miterlimit:4;stroke-dasharray:none;stroke-dashoffset:0;stroke-opacity:0.909449;paint-order:normal"
       transform="translate(249.80447,-91.409467)"
       d="m -245.83572,91.40947 h 44.97916 c 2.19869,0 3.96875,1.770062 3.96875,3.96875 v 44.97917 c 0,2.19869 -1.77006,3.96875 -3.96875,3.96875 h -44.97916 c -2.19869,0 -3.96875,-1.77006 -3.96875,-3.96875 V 95.37822 c 0,-2.198688 1.77006,-3.96875 3.96875,-3.96875 z" />
    <path
       id="rect5240-3"
       style="display:inline;fill:#d061a6;fill-opacity:1;fill-rule:nonzero;stroke:none;stroke-width:0.5;stroke-linecap:butt;stroke-linejoin:round;stroke-miterlimit:4;stroke-dasharray:none;stroke-dashoffset:0;stroke-opacity:0.909449;paint-order:normal"
       transform="translate(249.80447,-91.409467)"
       d="m -244.5128,94.055298 h 42.33334 c 1.46579,0 2.64583,1.180041 2.64583,2.645833 v 42.333329 c 0,1.4658 -1.18004,2.64584 -2.64583,2.64584 h -42.33334 c -1.46579,0 -2.64583,-1.18004 -2.64583,-2.64584 V 96.701131 c 0,-1.465792 1.18004,-2.645833 2.64583,-2.645833 z" />
    <path
       id="path944"
       style="display:inline;fill:#e4adcd;fill-opacity:1;fill-rule:nonzero;stroke:none;stroke-width:0.5;stroke-linecap:butt;stroke-linejoin:round;stroke-miterlimit:4;stroke-dasharray:none;stroke-dashoffset:0;stroke-opacity:0.909449;paint-order:normal"
       transform="translate(249.80447,-91.409467)"
       d="m -199.53363,99.346964 v 39.687496 c 0,1.4658 -1.18004,2.64584 -2.64583,2.64584 h -42.33334 c -1.46579,0 -2.64583,-1.18004 -2.64583,-2.64584 V 99.346964 Z"
       sodipodi:nodetypes="csssscc" />
    <path
       id="path946"
       style="display:inline;fill:#ffffff;fill-opacity:1;fill-rule:nonzero;stroke:none;stroke-width:0.5;stroke-linecap:butt;stroke-linejoin:round;stroke-miterlimit:4;stroke-dasharray:none;stroke-dashoffset:0;stroke-opacity:0.909449;paint-order:normal"
       transform="translate(249.80447,-91.409467)"
       d="m -199.53363,104.10946 v 34.925 c 0,1.4658 -1.18004,2.64584 -2.64583,2.64584 h -42.33334 c -1.46579,0 -2.64583,-1.18004 -2.64583,-2.64584 v -34.925 z"
       sodipodi:nodetypes="csssscc" />
    <path
       id="path948"
       style="display:inline;fill:#57cef8;fill-opacity:1;fill-rule:nonzero;stroke:none;stroke-width:0.5;stroke-linecap:butt;stroke-linejoin:round;stroke-miterlimit:4;stroke-dasharray:none;stroke-dashoffset:0;stroke-opacity:0.909449;paint-order:normal"
       transform="translate(249.80447,-91.409467)"
       d="m -199.53363,108.87196 v 30.1625 c 0,1.4658 -1.18004,2.64584 -2.64583,2.64584 h -42.33334 c -1.46579,0 -2.64583,-1.18004 -2.64583,-2.64584 v -30.1625 z"
       sodipodi:nodetypes="csssscc" />
    <path
       id="path950"
       style="display:inline;fill:#ffffff;fill-opacity:1;fill-rule:nonzero;stroke:none;stroke-width:0.5;stroke-linecap:butt;stroke-linejoin:round;stroke-miterlimit:4;stroke-dasharray:none;stroke-dashoffset:0;stroke-opacity:0.909449;paint-order:normal"
       transform="translate(249.80447,-91.409467)"
       d="m -199.53363,113.63446 v 25.4 c 0,1.4658 -1.18004,2.64584 -2.64583,2.64584 h -42.33334 c -1.46579,0 -2.64583,-1.18004 -2.64583,-2.64584 v -25.4 z"
       sodipodi:nodetypes="csssscc" />
    <path
       id="path952"
       style="display:inline;fill:#e4adcd;fill-opacity:1;fill-rule:nonzero;stroke:none;stroke-width:0.5;stroke-linecap:butt;stroke-linejoin:round;stroke-miterlimit:4;stroke-dasharray:none;stroke-dashoffset:0;stroke-opacity:0.909449;paint-order:normal"
       transform="translate(249.80447,-91.409467)"
       d="m -199.53363,118.92613 v 20.10833 c 0,1.4658 -1.18004,2.64584 -2.64583,2.64584 h -42.33334 c -1.46579,0 -2.64583,-1.18004 -2.64583,-2.64584 v -20.10833 z"
       sodipodi:nodetypes="csssscc" />
    <path
       id="path954"
       style="display:inline;fill:#d061a6;fill-opacity:1;fill-rule:nonzero;stroke:none;stroke-width:0.5;stroke-linecap:butt;stroke-linejoin:round;stroke-miterlimit:4;stroke-dasharray:none;stroke-dashoffset:0;stroke-opacity:0.909449;paint-order:normal"
       transform="translate(249.80447,-91.409467)"
       d="m -199.53363,123.68863 v 15.34583 c 0,1.4658 -1.18004,2.64584 -2.64583,2.64584 h -42.33334 c -1.46579,0 -2.64583,-1.18004 -2.64583,-2.64584 v -15.34583 z"
       sodipodi:nodetypes="csssscc" />
    <path
       inkscape:connector-curvature="0"
       id="path5244-6"
       d="m -248.34926,128.45114 v 8.33437 c 0,3.07816 2.47808,5.55625 5.55625,5.55625 h 38.89375 c 3.07816,0 5.55625,-2.47809 5.55625,-5.55625 v -8.33437 z"
       style="display:inline;fill:#222222;fill-opacity:1;fill-rule:nonzero;stroke:none;stroke-width:0.5;stroke-linecap:butt;stroke-linejoin:round;stroke-miterlimit:4;stroke-dasharray:none;stroke-dashoffset:0;stroke-opacity:0.909449;paint-order:normal"
       transform="translate(249.80447,-91.409467)" />
    <text
       xml:space="preserve"
       id="text981"
       style="font-style:normal;font-weight:normal;font-size:4.23333333px;line-height:1.25;font-family:sans-serif;white-space:pre;shape-inside:url(#rect983);fill:#000000;fill-opacity:1;stroke:none;" />
    <g
       aria-label="JANNYPHILE"
       id="text989"
       style="font-style:normal;font-weight:normal;font-size:7.05556px;line-height:1.25;font-family:sans-serif;fill:#eeeeee;fill-opacity:1;stroke:none;stroke-width:0.264583">
      <path
         d="m 4.501487,46.498764 q -0.5009448,0 -0.9242784,-0.183445 -0.4162781,-0.1905 -0.6843893,-0.536223 l 0.6350004,-0.762 q 0.4021669,0.543278 0.9172228,0.543278 0.6985004,0 0.6985004,-0.818445 V 42.392428 H 3.4078751 v -0.917223 h 2.871613 v 3.203224 q 0,0.910167 -0.4515558,1.368779 -0.4515559,0.451556 -1.3264453,0.451556 z"
         style="font-style:normal;font-variant:normal;font-weight:bold;font-stretch:normal;font-size:7.05556px;font-family:Montserrat;-inkscape-font-specification:'Montserrat Bold';fill:#d061a6;fill-opacity:1;stroke-width:0.264583"
         id="path991" />
      <path
         d="M 10.555137,45.355763 H 8.2620804 l -0.4374447,1.058334 h -1.171223 l 2.2013348,-4.938892 h 1.1288896 l 2.2083899,4.938892 h -1.199445 z m -0.359833,-0.867834 -0.7831673,-1.89089 -0.7831672,1.89089 z"
         style="font-style:normal;font-variant:normal;font-weight:bold;font-stretch:normal;font-size:7.05556px;font-family:Montserrat;-inkscape-font-specification:'Montserrat Bold';fill:#e4adcd;fill-opacity:1;stroke-width:0.264583"
         id="path993" />
      <path
         d="m 17.236744,41.475205 v 4.938892 h -0.938389 l -2.462391,-2.998613 v 2.998613 h -1.128889 v -4.938892 h 0.945445 l 2.455335,2.998613 v -2.998613 z"
         style="font-style:normal;font-variant:normal;font-weight:bold;font-stretch:normal;font-size:7.05556px;font-family:Montserrat;-inkscape-font-specification:'Montserrat Bold';fill:#e4adcd;fill-opacity:1;stroke-width:0.264583"
         id="path995" />
      <path
         d="m 22.937628,41.475205 v 4.938892 h -0.938389 l -2.462391,-2.998613 v 2.998613 h -1.128889 v -4.938892 h 0.945445 l 2.455335,2.998613 v -2.998613 z"
         style="font-style:normal;font-variant:normal;font-weight:bold;font-stretch:normal;font-size:7.05556px;font-family:Montserrat;-inkscape-font-specification:'Montserrat Bold';fill:#ffffff;fill-opacity:1;stroke-width:0.264583"
         id="path997" />
      <path
         d="m 26.479509,44.664318 v 1.749779 h -1.143001 v -1.76389 l -1.912057,-3.175002 h 1.213557 l 1.319389,2.194279 1.31939,-2.194279 h 1.121834 z"
         style="font-style:normal;font-variant:normal;font-weight:bold;font-stretch:normal;font-size:7.05556px;font-family:Montserrat;-inkscape-font-specification:'Montserrat Bold';fill:#57cef8;fill-opacity:1;stroke-width:0.264583"
         id="path999" />
      <path
         d="m 30.966823,41.475205 q 0.656168,0 1.135946,0.218722 0.486833,0.218722 0.747889,0.620889 0.261056,0.402167 0.261056,0.952501 0,0.543278 -0.261056,0.952501 -0.261056,0.402167 -0.747889,0.620889 -0.479778,0.211667 -1.135946,0.211667 h -0.994834 v 1.361723 h -1.143 v -4.938892 z m -0.0635,2.645835 q 0.515056,0 0.783168,-0.218723 0.268111,-0.225777 0.268111,-0.635 0,-0.416278 -0.268111,-0.635 -0.268112,-0.225778 -0.783168,-0.225778 h -0.931334 v 1.714501 z"
         style="font-style:normal;font-variant:normal;font-weight:bold;font-stretch:normal;font-size:7.05556px;font-family:Montserrat;-inkscape-font-specification:'Montserrat Bold';fill:#57cef8;fill-opacity:1;stroke-width:0.264583"
         id="path1001" />
      <path
         d="m 38.452759,41.475205 v 4.938892 h -1.143 V 44.389151 H 35.06609 v 2.024946 h -1.143 v -4.938892 h 1.143 v 1.947334 h 2.243669 v -1.947334 z"
         style="font-style:normal;font-variant:normal;font-weight:bold;font-stretch:normal;font-size:7.05556px;font-family:Montserrat;-inkscape-font-specification:'Montserrat Bold';fill:#eeeeee;fill-opacity:1;stroke-width:0.264583"
         id="path1003" />
      <path
         d="m 39.623974,41.475205 h 1.143 v 4.938892 h -1.143 z"
         style="font-style:normal;font-variant:normal;font-weight:bold;font-stretch:normal;font-size:7.05556px;font-family:Montserrat;-inkscape-font-specification:'Montserrat Bold';fill:#e4adcd;fill-opacity:1;stroke-width:0.264583"
         id="path1005" />
      <path
         d="m 41.93819,41.475205 h 1.143001 v 4.007558 h 2.476501 v 0.931334 H 41.93819 Z"
         style="font-style:normal;font-variant:normal;font-weight:bold;font-stretch:normal;font-size:7.05556px;font-family:Montserrat;-inkscape-font-specification:'Montserrat Bold';fill:#e4adcd;fill-opacity:1;stroke-width:0.264583"
         id="path1007" />
      <path
         d="m 50.023851,45.496874 v 0.917223 h -3.824114 v -4.938892 h 3.732392 v 0.917223 h -2.596447 v 1.072445 h 2.293057 v 0.889 h -2.293057 v 1.143001 z"
         style="font-style:normal;font-variant:normal;font-weight:bold;font-stretch:normal;font-size:7.05556px;font-family:Montserrat;-inkscape-font-specification:'Montserrat Bold';fill:#d061a6;fill-opacity:1;stroke-width:0.264583"
         id="path1009" />
    </g>
    <rect
       style="fill:#d061a6;fill-opacity:1;stroke-width:1.265;stroke-linecap:round;paint-order:stroke fill markers"
       id="rect882"
       width="7.2760415"
       height="6.0854168"
       x="17.363281"
       y="23.8125" />
    <rect
       style="fill:#57cef8;fill-opacity:1;stroke-width:1.265;stroke-linecap:round;paint-order:stroke fill markers"
       id="rect884"
       width="7.4083333"
       height="5.3247395"
       x="27.54974"
       y="25.102343" />
    <g
       id="g74288"
       transform="matrix(0.643456,-0.0337221,0.0337221,0.643456,-83.421212,-80.166287)"
       style="display:inline;fill:#222222;fill-opacity:1;stroke-width:1.55198">
      <path
         style="fill:#222222;fill-opacity:1;stroke-width:1.55198"
         d="m 157.84281,159.78745 q 0.10302,-0.0247 0.20106,-0.0382 0.098,-0.0135 0.17175,-0.0197 0.0737,-0.006 0.256,-0.026 0.18227,-0.0198 0.2887,-0.0226 0.10643,-0.003 0.23299,-0.007 0.12655,-0.005 0.27518,-0.006 0.14864,-9.6e-4 0.28093,-9.6e-4 0.13229,0 0.26458,0 0.13229,0 0.26458,0 0.1323,0 0.26459,0 0.13229,0 0.26458,0 0.13229,0 0.26458,0 0.1323,0 0.26699,0.005 0.13469,0.005 0.24488,0.0151 0.11019,0.0104 0.2758,0.0388 0.16561,0.0284 0.25005,0.0436 0.0844,0.0152 0.16092,0.0302 0.0765,0.015 0.17316,0.0261 0.0967,0.0111 0.24453,0.0317 0.14787,0.0206 0.27158,0.0323 0.1237,0.0118 0.22791,0.0182 0.10421,0.006 0.2486,0.0108 0.14439,0.004 0.2908,0.007 0.1464,0.002 0.25957,0.006 0.11316,0.003 0.22669,0.0122 0.11352,0.009 0.25824,0.0361 0.14472,0.0273 0.25695,0.0567 0.11224,0.0294 0.19931,0.0417 0.0871,0.0123 0.17035,0.0242 0.0833,0.0119 0.2317,0.0362 0.14842,0.0243 0.28762,0.045 0.13921,0.0207 0.22657,0.0425 0.0874,0.0217 0.17694,0.0531 0.0896,0.0314 0.18385,0.0654 0.0943,0.0341 0.20698,0.0878 0.11271,0.0537 0.18624,0.0911 0.0735,0.0374 0.15383,0.0731 0.0803,0.0357 0.16075,0.0773 0.0804,0.0415 0.15547,0.088 0.075,0.0465 0.17446,0.11143 0.0994,0.0649 0.15854,0.0956 0.0591,0.0307 0.19983,0.10167 0.14072,0.071 0.19825,0.0931 0.0575,0.0222 0.16907,0.0709 0.11156,0.0488 0.22906,0.0945 0.11751,0.0457 0.17114,0.0634 0.0536,0.0177 0.12221,0.0362 0.0686,0.0185 0.23518,0.0697 0.16659,0.0512 0.26,0.0891 0.0934,0.0379 0.13755,0.0562 0.0441,0.0183 0.16397,0.0693 0.11983,0.0511 0.21139,0.0928 0.0916,0.0417 0.15526,0.0768 0.0637,0.035 0.18904,0.11009 0.12536,0.0751 0.20234,0.11883 0.077,0.0438 0.14122,0.0932 0.0642,0.0494 0.16533,0.11894 0.10109,0.0695 0.15659,0.10596 0.0555,0.0365 0.14441,0.095 0.0889,0.0585 0.16868,0.11471 0.0798,0.0562 0.14473,0.10166 0.065,0.0455 0.14891,0.0994 0.084,0.0539 0.15263,0.0966 0.0687,0.0426 0.16648,0.0965 0.0978,0.0538 0.16808,0.0912 0.0703,0.0374 0.15661,0.0886 0.0863,0.0511 0.20353,0.12693 0.11719,0.0758 0.18523,0.11555 0.068,0.0397 0.1373,0.0882 0.0693,0.0484 0.15898,0.10565 0.0897,0.0572 0.15479,0.0953 0.0651,0.0381 0.14698,0.0886 0.0819,0.0505 0.18253,0.1195 0.10064,0.069 0.18431,0.1334 0.0837,0.0644 0.1338,0.11035 0.0501,0.0459 0.12703,0.1191 0.0769,0.0732 0.1432,0.13258 0.0663,0.0594 0.12761,0.11966 0.0613,0.0602 0.12747,0.1264 0.0661,0.0661 0.13229,0.13229 0.0662,0.0661 0.13801,0.14853 0.0719,0.0824 0.10989,0.13044 0.038,0.048 0.11321,0.15391 0.0752,0.10586 0.11524,0.15973 0.0401,0.0539 0.10975,0.15337 0.0697,0.0995 0.11151,0.1623 0.0418,0.0628 0.10027,0.15291 0.0585,0.0901 0.10522,0.16762 0.0468,0.0775 0.1027,0.16871 0.0559,0.0912 0.0977,0.16478 0.0418,0.0736 0.0838,0.14908 0.042,0.0754 0.0881,0.16456 0.0461,0.0891 0.0929,0.18821 0.0468,0.0991 0.0805,0.17512 0.0338,0.076 0.0839,0.18814 0.0501,0.11213 0.088,0.19362 0.0379,0.0815 0.0946,0.18622 0.0567,0.10474 0.0887,0.16156 0.032,0.0568 0.0775,0.14235 0.0455,0.0855 0.0856,0.16956 0.0401,0.084 0.0714,0.17713 0.0314,0.0931 0.0658,0.19554 0.0344,0.10242 0.0647,0.19852 0.0303,0.0961 0.06,0.18513 0.0297,0.089 0.0581,0.18144 0.0285,0.0924 0.0767,0.23131 0.0482,0.1389 0.0908,0.27037 0.0426,0.13148 0.0704,0.21975 0.0278,0.0883 0.0492,0.16014 0.0214,0.0719 0.0551,0.19085 0.0337,0.11898 0.0679,0.18771 0.0341,0.0687 0.11201,0.0672 0.0779,-0.002 0.17748,-0.0164 0.0996,-0.0149 0.16711,-0.0549 0.0675,-0.04 0.1261,-0.0899 0.0586,-0.0499 0.13428,-0.11176 0.0757,-0.0618 0.14878,-0.1238 0.0731,-0.0619 0.1402,-0.12498 0.0671,-0.063 0.13327,-0.12918 0.0661,-0.0661 0.13229,-0.13229 0.0662,-0.0661 0.1323,-0.13229 0.0661,-0.0661 0.13229,-0.13229 0.0661,-0.0661 0.13229,-0.13229 0.0661,-0.0661 0.12626,-0.12186 0.0601,-0.0557 0.14905,-0.13358 0.089,-0.0779 0.13994,-0.11381 0.051,-0.036 0.14162,-0.0859 0.0906,-0.0499 0.18825,-0.0971 0.0976,-0.0472 0.16158,-0.0775 0.064,-0.0303 0.1743,-0.0878 0.11032,-0.0575 0.20313,-0.10338 0.0928,-0.0459 0.16974,-0.0832 0.0769,-0.0373 0.16299,-0.0871 0.0861,-0.0498 0.17083,-0.0944 0.0848,-0.0445 0.17233,-0.0889 0.0876,-0.0443 0.19372,-0.10028 0.10616,-0.056 0.18746,-0.0904 0.0813,-0.0344 0.18406,-0.0788 0.10276,-0.0444 0.16147,-0.0667 0.0587,-0.0223 0.21092,-0.0751 0.15223,-0.0528 0.23367,-0.0811 0.0814,-0.0283 0.15984,-0.0462 0.0784,-0.0179 0.17126,-0.0374 0.0928,-0.0195 0.21976,-0.0315 0.12691,-0.012 0.24009,-0.0273 0.11317,-0.0152 0.26898,-0.0223 0.1558,-0.007 0.30604,-0.0114 0.15025,-0.004 0.27387,-0.007 0.12363,-0.002 0.25592,-0.002 0.13229,0 0.26459,0 0.13229,0 0.26883,0.004 0.13654,0.004 0.26735,0.0176 0.13081,0.0137 0.24723,0.0384 0.11641,0.0246 0.21305,0.0497 0.0966,0.0251 0.18764,0.0644 0.091,0.0393 0.16186,0.0711 0.0709,0.0317 0.19342,0.0839 0.12256,0.0521 0.18458,0.0778 0.062,0.0257 0.15969,0.0721 0.0977,0.0464 0.20758,0.10038 0.10989,0.054 0.18149,0.0898 0.0716,0.0359 0.14508,0.07 0.0735,0.0341 0.16985,0.0854 0.0964,0.0513 0.20521,0.10839 0.10883,0.0571 0.14925,0.0812 0.0404,0.0241 0.14529,0.1 0.10487,0.0759 0.17361,0.12296 0.0687,0.0471 0.14575,0.11256 0.077,0.0655 0.18147,0.15175 0.10447,0.0863 0.12736,0.10908 0.0229,0.0228 0.10495,0.0992 0.0821,0.0764 0.14821,0.14256 0.0661,0.0661 0.13229,0.13229 0.0661,0.0661 0.13229,0.13229 0.0661,0.0662 0.13229,0.13229 0.0662,0.0661 0.12392,0.1319 0.0578,0.0658 0.12372,0.14279 0.0659,0.077 0.12017,0.16403 0.0542,0.087 0.0984,0.15956 0.0441,0.0726 0.10515,0.15949 0.061,0.0869 0.11098,0.16102 0.05,0.0741 0.0995,0.1506 0.0495,0.0765 0.11228,0.17017 0.0628,0.0937 0.11247,0.15963 0.0497,0.066 0.11189,0.15693 0.0622,0.091 0.11049,0.15434 0.0483,0.0634 0.10788,0.14785 0.0596,0.0845 0.10817,0.1566 0.0486,0.0721 0.0922,0.13601 0.0436,0.0639 0.10395,0.15797 0.0603,0.0941 0.10904,0.16946 0.0487,0.0754 0.0989,0.14768 0.0502,0.0723 0.10165,0.15224 0.0514,0.0799 0.10012,0.16379 0.0487,0.0839 0.0971,0.18731 0.0485,0.10345 0.0827,0.16555 0.0342,0.0621 0.083,0.15678 0.0488,0.0947 0.0964,0.19101 0.0476,0.0963 0.0885,0.17773 0.0409,0.0814 0.0823,0.16885 0.0414,0.0874 0.0874,0.18012 0.046,0.0927 0.1004,0.20256 0.0544,0.1099 0.0886,0.17895 0.0342,0.0691 0.0908,0.17396 0.0566,0.1049 0.10313,0.19455 0.0466,0.0896 0.0762,0.15295 0.0297,0.0633 0.0774,0.17121 0.0477,0.10789 0.0844,0.1977 0.0367,0.0898 0.0651,0.16005 0.0284,0.0703 0.0771,0.20905 0.0487,0.13879 0.0756,0.21009 0.027,0.0713 0.052,0.16307 0.0251,0.0918 0.0538,0.21557 0.0287,0.12381 0.0549,0.23552 0.0262,0.11172 0.0652,0.25154 0.039,0.13982 0.0696,0.24405 0.0306,0.10423 0.0475,0.15679 0.017,0.0526 0.0448,0.18237 0.0278,0.12981 0.0403,0.21125 0.0125,0.0814 0.0342,0.23634 0.0217,0.1549 0.045,0.25984 0.0233,0.10494 0.0441,0.18516 0.0207,0.0802 0.0405,0.19264 0.0198,0.11242 0.0406,0.2034 0.0208,0.091 0.047,0.24897 0.0262,0.15799 0.0398,0.22786 0.0136,0.0699 0.0555,0.23174 0.0419,0.16187 0.0641,0.24997 0.0222,0.0881 0.0314,0.16332 0.009,0.0752 0.0359,0.21946 0.0268,0.14423 0.0298,0.25577 0.003,0.11155 0.0174,0.24442 0.0143,0.13287 0.0181,0.25679 0.004,0.12392 0.0116,0.25619 0.008,0.13228 0.0137,0.27783 0.006,0.14555 0.006,0.25908 10e-6,0.11354 0.007,0.25241 0.007,0.13886 0.0323,0.27577 0.0251,0.13691 0.0447,0.23945 0.0196,0.10254 0.0339,0.17964 0.0143,0.0771 0.0327,0.17937 0.0183,0.10228 0.042,0.23115 0.0237,0.12888 0.0359,0.24518 0.0122,0.1163 0.0135,0.25044 0.001,0.13413 0.002,0.27309 7.9e-4,0.13896 10e-4,0.24573 2.4e-4,0.10677 0.003,0.25032 0.003,0.14354 0.004,0.27797 3.1e-4,0.13444 3.1e-4,0.26673 0,0.13229 0,0.26458 0,0.13229 0,0.26458 0,0.1323 0,0.26459 0,0.13229 0,0.26458 0,0.13229 0,0.26459 0,0.13229 0,0.26458 0,0.13229 0,0.26458 0,0.13229 0,0.26458 0,0.1323 -0.002,0.26039 -0.002,0.1281 -0.0183,0.26712 -0.0164,0.13901 -0.0377,0.26381 -0.0214,0.12479 -0.0438,0.21066 -0.0225,0.0859 -0.0504,0.18117 -0.0279,0.0953 -0.0481,0.19587 -0.0202,0.10056 -0.0441,0.21664 -0.024,0.11608 -0.0575,0.24975 -0.0335,0.13367 -0.0536,0.21578 -0.02,0.0821 -0.0477,0.17641 -0.0277,0.0943 -0.0454,0.19625 -0.0177,0.10194 -0.0332,0.19181 -0.0155,0.0899 -0.0543,0.23819 -0.0387,0.14832 -0.0816,0.2694 -0.0429,0.12109 -0.0692,0.18448 -0.0263,0.0634 -0.0741,0.14363 -0.0478,0.0802 -0.10746,0.1779 -0.0597,0.0977 -0.12021,0.14284 -0.0605,0.0452 -0.14646,0.0931 -0.0859,0.0479 -0.14693,0.0787 -0.061,0.0307 -0.19675,0.0592 -0.13573,0.0285 -0.27243,0.042 -0.1367,0.0135 -0.27112,0.0138 -0.13442,2.4e-4 -0.26306,-0.0122 -0.12864,-0.0124 -0.21042,-0.0286 -0.0818,-0.0162 -0.18686,-0.0611 -0.10507,-0.0449 -0.17013,-0.0859 -0.0651,-0.041 -0.13171,-0.095 -0.0666,-0.054 -0.13362,-0.10652 -0.067,-0.0525 -0.10354,-0.11796 -0.0366,-0.0654 -0.0774,-0.14769 -0.0409,-0.0822 -0.10384,-0.22073 -0.063,-0.13849 -0.0967,-0.21822 -0.0337,-0.0797 -0.0536,-0.16008 -0.0199,-0.0804 -0.0536,-0.21256 -0.0337,-0.13222 -0.059,-0.25531 -0.0253,-0.1231 -0.0552,-0.25166 -0.0299,-0.12857 -0.0462,-0.1751 -0.0163,-0.0465 -0.0671,-0.0499 -0.0508,-0.003 -0.0761,0.0712 -0.0254,0.0747 -0.0721,0.20946 -0.0468,0.13479 -0.086,0.24129 -0.0392,0.10651 -0.0601,0.15628 -0.0209,0.0498 -0.0651,0.12215 -0.0441,0.0724 -0.0795,0.12817 -0.0353,0.0558 -0.1099,0.14138 -0.0746,0.0856 -0.15605,0.12717 -0.0815,0.0416 -0.16778,0.0766 -0.0863,0.035 -0.22029,0.0709 -0.13402,0.0359 -0.25881,0.0452 -0.12479,0.009 -0.24553,0.016 -0.12075,0.007 -0.25677,-0.005 -0.13602,-0.012 -0.2517,-0.0304 -0.11569,-0.0184 -0.18709,-0.0451 -0.0714,-0.0267 -0.16191,-0.0825 -0.0905,-0.0558 -0.17759,-0.11886 -0.0871,-0.0631 -0.12461,-0.10551 -0.0375,-0.0424 -0.0879,-0.1156 -0.0504,-0.0732 -0.12976,-0.19452 -0.0794,-0.12135 -0.13525,-0.21929 -0.0559,-0.0979 -0.0839,-0.15427 -0.0281,-0.0563 -0.0718,-0.1383 -0.0438,-0.082 -0.0871,-0.16611 -0.0432,-0.0841 -0.0924,-0.1857 -0.0492,-0.10154 -0.0862,-0.18278 -0.037,-0.0812 -0.0956,-0.18871 -0.0586,-0.10749 -0.0981,-0.18732 -0.0395,-0.0798 -0.0796,-0.17728 -0.0401,-0.0974 -0.083,-0.11702 -0.0429,-0.0196 -0.0862,-0.031 -0.0432,-0.0114 -0.0685,0.0587 -0.0252,0.0701 -0.0669,0.18663 -0.0417,0.1165 -0.0677,0.18787 -0.026,0.0714 -0.0582,0.16994 -0.0322,0.0986 -0.0605,0.17321 -0.0283,0.0746 -0.0975,0.24992 -0.0693,0.17528 -0.1267,0.27703 -0.0574,0.10175 -0.0989,0.14794 -0.0415,0.0462 -0.0878,0.0848 -0.0463,0.0386 -0.12226,0.052 -0.0759,0.0134 -0.18333,0.028 -0.1074,0.0146 -0.23801,0.0208 -0.13062,0.006 -0.29225,0.0124 -0.16164,0.006 -0.30192,-0.0114 -0.14029,-0.0177 -0.27071,-0.0341 -0.13043,-0.0164 -0.19691,-0.0485 -0.0665,-0.0321 -0.0976,-0.0508 -0.0311,-0.0187 -0.11832,-0.10798 -0.0872,-0.0893 -0.13941,-0.16712 -0.0522,-0.0778 -0.0968,-0.1715 -0.0446,-0.0937 -0.0668,-0.15712 -0.0222,-0.0635 -0.0458,-0.15054 -0.0236,-0.0871 -0.0593,-0.20491 -0.0357,-0.11784 -0.0856,-0.2888 -0.0498,-0.17095 -0.0688,-0.22631 -0.019,-0.0554 -0.0425,-0.14168 -0.0236,-0.0863 -0.056,-0.22738 -0.0325,-0.14108 -0.051,-0.27372 -0.0185,-0.13264 -0.0442,-0.2004 -0.0257,-0.0678 -0.0968,-0.15573 -0.071,-0.088 -0.15158,-0.10886 -0.0806,-0.0209 -0.037,0.0609 0.0436,0.0818 0.0153,0.17927 -0.0282,0.0975 -0.0784,0.21389 -0.0501,0.11644 -0.0823,0.19889 -0.0322,0.0825 -0.0702,0.16324 -0.038,0.0808 -0.0987,0.18021 -0.0607,0.0994 -0.0974,0.14525 -0.0367,0.0458 -0.11974,0.1459 -0.083,0.1001 -0.13105,0.15126 -0.048,0.0512 -0.11961,0.10867 -0.0716,0.0575 -0.15581,0.11173 -0.0842,0.0542 -0.1666,0.0955 -0.0824,0.0413 -0.16806,0.0683 -0.0857,0.027 -0.22246,0.0674 -0.13679,0.0404 -0.21849,0.0488 -0.0817,0.008 -0.23712,-0.0116 -0.15542,-0.02 -0.30193,-0.049 -0.14652,-0.029 -0.21647,-0.0567 -0.0699,-0.0277 -0.14567,-0.0721 -0.0757,-0.0444 -0.14914,-0.11165 -0.0734,-0.0673 -0.11398,-0.11175 -0.0406,-0.0445 -0.0695,-0.11115 -0.0289,-0.0667 -0.0717,-0.16683 -0.0428,-0.10015 -0.0489,-0.18468 -0.006,-0.0845 -0.029,-0.22921 -0.0229,-0.14469 -0.027,-0.27593 -0.004,-0.13123 -0.006,-0.29097 -0.002,-0.15974 -0.0142,-0.29784 -0.0119,-0.1381 -0.0221,-0.24262 -0.0102,-0.10451 -0.0188,-0.225 -0.009,-0.1205 -0.002,-0.19397 0.007,-0.0735 -0.065,-0.0845 -0.0716,-0.0111 -0.0917,0.0856 -0.0201,0.0967 -0.0334,0.18532 -0.0133,0.0886 -0.0346,0.21607 -0.0214,0.12742 -0.0418,0.23296 -0.0204,0.10554 -0.0591,0.2335 -0.0387,0.12795 -0.0653,0.21039 -0.0266,0.0824 -0.0453,0.17253 -0.0187,0.0901 -0.0607,0.21505 -0.0421,0.12496 -0.064,0.20386 -0.0219,0.0789 -0.049,0.15569 -0.0271,0.0768 -0.0618,0.19279 -0.0347,0.11598 -0.0727,0.2325 -0.0381,0.11652 -0.0788,0.21785 -0.0407,0.10132 -0.0654,0.16257 -0.0247,0.0612 -0.0574,0.13146 -0.0327,0.0702 -0.0977,0.20844 -0.065,0.13821 -0.10441,0.21188 -0.0394,0.0737 -0.11531,0.19747 -0.0759,0.1238 -0.12482,0.19513 -0.0489,0.0713 -0.0947,0.14058 -0.0458,0.0693 -0.0815,0.13156 -0.0357,0.0623 -0.0841,0.14125 -0.0483,0.0789 -0.1111,0.17389 -0.0628,0.0949 -0.10516,0.15612 -0.0424,0.0612 -0.12671,0.1473 -0.0843,0.0861 -0.14096,0.13828 -0.0566,0.0522 -0.14691,0.11495 -0.0903,0.0628 -0.15881,0.11537 -0.0685,0.0526 -0.13292,0.0967 -0.0644,0.0441 -0.13873,0.097 -0.0744,0.0529 -0.18673,0.11815 -0.11238,0.0653 -0.19503,0.11045 -0.0827,0.0452 -0.16351,0.0873 -0.0809,0.0421 -0.12578,0.0695 -0.0449,0.0274 -0.15209,0.0786 -0.10719,0.0513 -0.22818,0.10965 -0.12099,0.0584 -0.15524,0.0669 -0.0343,0.008 -0.15075,0.0407 -0.1165,0.0322 -0.24545,0.0656 -0.12895,0.0334 -0.26206,0.0613 -0.13311,0.0279 -0.22183,0.0549 -0.0887,0.027 -0.17298,0.0507 -0.0843,0.0237 -0.19575,0.0536 -0.11148,0.0299 -0.21845,0.0379 -0.10696,0.008 -0.22908,0.0321 -0.12212,0.0241 -0.25008,0.0544 -0.12795,0.0304 -0.22772,0.0666 -0.0998,0.0362 -0.21546,0.0674 -0.11571,0.0312 -0.19368,0.048 -0.078,0.0168 -0.20871,0.0218 -0.13073,0.005 -0.27826,0.0121 -0.14754,0.007 -0.26606,0.0132 -0.11853,0.006 -0.26417,0.0117 -0.14563,0.006 -0.26101,0.01 -0.11538,0.004 -0.22045,0.0268 -0.10508,0.0223 -0.2073,0.0456 -0.10221,0.0233 -0.20632,0.0587 -0.10411,0.0354 -0.19009,0.052 -0.086,0.0166 -0.20643,0.0276 -0.12045,0.011 -0.2863,0.0171 -0.16584,0.006 -0.29342,0.0137 -0.12759,0.008 -0.24513,0.0106 -0.11758,0.003 -0.24987,0.003 -0.13229,0 -0.26458,0 -0.13229,0 -0.26458,0 -0.1323,0 -0.26459,0 -0.13229,0 -0.26458,0 -0.13229,0 -0.26458,0 -0.1323,0 -0.26459,0 -0.13229,0 -0.26458,0 -0.13229,0 -0.26458,0 -0.1323,0 -0.26459,0 -0.13229,0 -0.26458,0 -0.13229,0 -0.26458,0 -0.1323,0 -0.26459,0 -0.13229,0 -0.26458,0 -0.13229,0 -0.25631,-0.008 -0.12402,-0.008 -0.26258,-0.0183 -0.13856,-0.0106 -0.25283,-0.0271 -0.11427,-0.0165 -0.21449,-0.038 -0.10023,-0.0215 -0.18175,-0.0383 -0.0815,-0.0169 -0.16458,-0.0296 -0.0831,-0.0128 -0.24061,-0.0391 -0.15754,-0.0263 -0.28706,-0.036 -0.12951,-0.01 -0.26815,-0.0146 -0.13863,-0.005 -0.26191,-0.0104 -0.12327,-0.005 -0.25556,-0.005 -0.1323,0 -0.26459,0 -0.13229,0 -0.26458,0 -0.13229,0 -0.26458,0 -0.13229,0 -0.26957,-0.004 -0.13728,-0.004 -0.25122,-0.007 -0.11395,-0.003 -0.29434,-0.0249 -0.18039,-0.0215 -0.25044,-0.0353 -0.0701,-0.0139 -0.1702,-0.0338 -0.10014,-0.0199 -0.18432,-0.0435 -0.0842,-0.0236 -0.20111,-0.0369 -0.11693,-0.0133 -0.22609,-0.0212 -0.10916,-0.008 -0.27507,-0.0148 -0.16591,-0.007 -0.30797,-0.0107 -0.14205,-0.004 -0.23348,-0.008 -0.0914,-0.005 -0.22944,-0.009 -0.138,-0.004 -0.28967,-0.01 -0.15167,-0.006 -0.27031,-0.006 -0.11865,-1.7e-4 -0.24557,-0.008 -0.12692,-0.008 -0.24945,-0.0224 -0.12252,-0.0141 -0.2706,-0.0382 -0.14808,-0.024 -0.27511,-0.0483 -0.12702,-0.0242 -0.15418,-0.0284 -0.0272,-0.004 -0.15459,-0.0271 -0.12743,-0.0229 -0.26611,-0.0381 -0.13867,-0.0152 -0.23616,-0.0196 -0.0975,-0.004 -0.23288,-0.0113 -0.13539,-0.007 -0.28409,-0.0139 -0.14869,-0.007 -0.28381,-0.013 -0.13511,-0.006 -0.26969,-0.0284 -0.13459,-0.0225 -0.25763,-0.0465 -0.12305,-0.0241 -0.22807,-0.0481 -0.10502,-0.024 -0.15738,-0.036 -0.0524,-0.012 -0.16793,-0.0376 -0.11557,-0.0256 -0.24078,-0.0367 -0.12521,-0.0111 -0.23383,-0.0189 -0.10861,-0.008 -0.27413,-0.0174 -0.16552,-0.01 -0.26695,-0.0326 -0.10143,-0.0231 -0.21067,-0.0504 -0.10925,-0.0273 -0.18097,-0.046 -0.0717,-0.0187 -0.14906,-0.03 -0.0773,-0.0113 -0.24595,-0.033 -0.16861,-0.0216 -0.28928,-0.032 -0.12066,-0.0104 -0.25073,-0.0365 -0.13006,-0.0261 -0.25012,-0.0584 -0.12005,-0.0323 -0.2308,-0.0571 -0.11075,-0.0248 -0.17992,-0.0438 -0.0692,-0.019 -0.14055,-0.0415 -0.0714,-0.0225 -0.19623,-0.0602 -0.12486,-0.0377 -0.24262,-0.0784 -0.11777,-0.0407 -0.23281,-0.0812 -0.11505,-0.0405 -0.17318,-0.0577 -0.0581,-0.0172 -0.18427,-0.0552 -0.12613,-0.038 -0.20268,-0.064 -0.0765,-0.026 -0.19805,-0.0595 -0.1215,-0.0335 -0.19254,-0.0495 -0.071,-0.016 -0.24177,-0.0575 -0.17073,-0.0416 -0.28703,-0.0734 -0.11631,-0.0319 -0.20913,-0.0578 -0.0928,-0.0259 -0.16515,-0.051 -0.0723,-0.025 -0.13624,-0.0601 -0.0639,-0.035 -0.17246,-0.0851 -0.10854,-0.0501 -0.19034,-0.0902 -0.0818,-0.0401 -0.14961,-0.0712 -0.0678,-0.0311 -0.19382,-0.0913 -0.126,-0.0602 -0.22163,-0.10641 -0.0956,-0.0462 -0.15227,-0.0812 -0.0567,-0.035 -0.15834,-0.10614 -0.10169,-0.0711 -0.16227,-0.11145 -0.0606,-0.0403 -0.13939,-0.0924 -0.0788,-0.0521 -0.17427,-0.10374 -0.0955,-0.0516 -0.18919,-0.11047 -0.0937,-0.0588 -0.16718,-0.11451 -0.0735,-0.0557 -0.14041,-0.11034 -0.0669,-0.0546 -0.13457,-0.11498 -0.0676,-0.0603 -0.12972,-0.12099 -0.0621,-0.0606 -0.13702,-0.14605 -0.0749,-0.0854 -0.10856,-0.13972 -0.0336,-0.0543 -0.10523,-0.1494 -0.0716,-0.0951 -0.12083,-0.16563 -0.0492,-0.0705 -0.11022,-0.15837 -0.061,-0.0879 -0.0963,-0.12803 -0.0353,-0.0402 -0.12536,-0.14209 -0.0901,-0.1019 -0.14478,-0.16048 -0.0547,-0.0586 -0.11287,-0.1359 -0.0582,-0.0773 -0.10669,-0.14851 -0.0485,-0.0712 -0.0944,-0.14508 -0.0459,-0.0739 -0.11576,-0.20761 -0.0699,-0.13369 -0.0925,-0.17738 -0.0227,-0.0437 -0.0755,-0.14278 -0.0528,-0.0991 -0.10076,-0.19779 -0.048,-0.0987 -0.0862,-0.17434 -0.0383,-0.0756 -0.0738,-0.15176 -0.0355,-0.0761 -0.0802,-0.17049 -0.0447,-0.0944 -0.0741,-0.17702 -0.0294,-0.0826 -0.0607,-0.18687 -0.0313,-0.10424 -0.0746,-0.2073 -0.0432,-0.10305 -0.0716,-0.20298 -0.0284,-0.0999 -0.0667,-0.0739 -0.0383,0.026 -0.1121,0.12711 -0.0738,0.10106 -0.10784,0.14159 -0.0341,0.0405 -0.0771,0.0717 -0.043,0.0312 -0.13367,0.10133 -0.0906,0.0702 -0.17891,0.096 -0.0883,0.0259 -0.22785,0.0345 -0.13957,0.009 -0.24086,0.0118 -0.1013,0.003 -0.22993,-0.0134 -0.12863,-0.0166 -0.24438,-0.0293 -0.11575,-0.0127 -0.18979,-0.0339 -0.074,-0.0211 -0.16933,-0.0349 -0.0953,-0.0138 -0.14389,0.019 -0.0486,0.0328 -0.0737,0.10682 -0.0251,0.074 -0.0756,0.2014 -0.0505,0.12739 -0.0882,0.24518 -0.0377,0.11779 -0.0714,0.22232 -0.0338,0.10453 -0.0782,0.18919 -0.0445,0.0847 -0.0925,0.19254 -0.048,0.10788 -0.0829,0.18619 -0.035,0.0783 -0.0786,0.16717 -0.0437,0.0889 -0.0761,0.14616 -0.0325,0.0573 -0.0961,0.15599 -0.0636,0.0987 -0.13808,0.19924 -0.0744,0.10055 -0.12439,0.14334 -0.05,0.0428 -0.11164,0.094 -0.0617,0.0512 -0.12776,0.0831 -0.0661,0.0319 -0.18627,0.0738 -0.12019,0.0419 -0.24426,0.0544 -0.12407,0.0124 -0.21328,0.007 -0.0892,-0.005 -0.19806,-0.0601 -0.10885,-0.0549 -0.17106,-0.0863 -0.0622,-0.0313 -0.12544,-0.0862 -0.0632,-0.0549 -0.1311,-0.10754 -0.0679,-0.0527 -0.14798,-0.13359 -0.0801,-0.0809 -0.12987,-0.14229 -0.0498,-0.0614 -0.1133,-0.15218 -0.0635,-0.0908 -0.11147,-0.16305 -0.048,-0.0722 -0.1,-0.14647 -0.052,-0.0742 -0.10054,-0.1367 -0.0485,-0.0625 -0.0953,-0.13023 -0.0467,-0.0678 -0.0936,-0.14328 -0.0469,-0.0755 -0.0841,-0.18839 -0.0373,-0.11287 -0.0486,-0.2253 -0.0113,-0.11243 -0.0181,-0.25951 -0.007,-0.14708 -0.01,-0.27191 -0.003,-0.12484 -0.009,-0.26656 -0.006,-0.14173 -0.0163,-0.27894 -0.0102,-0.1372 -0.0184,-0.26512 -0.008,-0.12793 -0.0379,-0.19431 -0.0298,-0.0664 -0.0798,-0.0702 -0.0501,-0.004 -0.0529,0.0663 -0.003,0.0701 -0.0202,0.23385 -0.0174,0.16379 -0.0346,0.27079 -0.0173,0.10699 -0.0463,0.2141 -0.029,0.10711 -0.0545,0.22006 -0.0255,0.11295 -0.0532,0.19053 -0.0277,0.0776 -0.0663,0.202 -0.0386,0.12442 -0.0701,0.21986 -0.0315,0.0954 -0.0651,0.18896 -0.0336,0.0935 -0.0655,0.17228 -0.0318,0.0788 -0.088,0.18525 -0.0562,0.1065 -0.10091,0.2036 -0.0447,0.0971 -0.0825,0.17078 -0.0378,0.0737 -0.0831,0.16677 -0.0453,0.0931 -0.10165,0.20611 -0.0563,0.11302 -0.089,0.17893 -0.0327,0.0659 -0.0846,0.14376 -0.0519,0.0779 -0.11446,0.16077 -0.0626,0.0829 -0.1089,0.14515 -0.0463,0.0622 -0.10062,0.0986 -0.0543,0.0364 -0.1406,0.0789 -0.0863,0.0425 -0.19972,0.062 -0.11342,0.0195 -0.24447,0.0349 -0.13104,0.0155 -0.25372,-0.004 -0.12269,-0.0195 -0.31581,-0.0606 -0.19312,-0.0412 -0.23434,-0.067 -0.0412,-0.0259 -0.12708,-0.0755 -0.0859,-0.0497 -0.1523,-0.1036 -0.0664,-0.054 -0.1125,-0.14045 -0.0461,-0.0865 -0.081,-0.16205 -0.0349,-0.0755 -0.0551,-0.13373 -0.0201,-0.0582 -0.0448,-0.17153 -0.0247,-0.11337 -0.0512,-0.26031 -0.0265,-0.14694 -0.0513,-0.24263 -0.0248,-0.0957 -0.0709,-0.22956 -0.0462,-0.13388 -0.0939,-0.22852 -0.0477,-0.0947 -0.0889,-0.18728 -0.0412,-0.0926 -0.0647,-0.10145 -0.0235,-0.009 -0.0764,0.0153 -0.0529,0.024 -0.0891,0.0671 -0.0362,0.043 -0.0936,0.13615 -0.0574,0.0931 -0.0883,0.16075 -0.0309,0.0677 -0.0538,0.14075 -0.0229,0.0731 -0.0687,0.2182 -0.0459,0.1451 -0.0733,0.20725 -0.0274,0.0621 -0.073,0.17143 -0.0456,0.10929 -0.0958,0.18499 -0.0502,0.0757 -0.10278,0.1391 -0.0526,0.0634 -0.12078,0.10828 -0.0682,0.0449 -0.19906,0.0547 -0.13088,0.01 -0.27892,0.0215 -0.14804,0.0117 -0.26839,0.007 -0.12034,-0.005 -0.24185,-0.012 -0.1215,-0.007 -0.29197,-0.0125 -0.17047,-0.006 -0.25058,-0.0359 -0.0801,-0.0303 -0.12913,-0.0712 -0.049,-0.0409 -0.12523,-0.1086 -0.0762,-0.0677 -0.13769,-0.13266 -0.0615,-0.065 -0.10453,-0.13778 -0.0431,-0.0728 -0.0651,-0.17116 -0.0221,-0.0983 -0.0425,-0.22422 -0.0204,-0.1259 -0.0381,-0.24468 -0.0176,-0.11877 -0.0343,-0.22766 -0.0167,-0.10889 -0.0537,-0.29828 -0.037,-0.18939 -0.0561,-0.25077 -0.0191,-0.0614 -0.0345,-0.14435 -0.0154,-0.083 -0.0331,-0.20648 -0.0177,-0.1235 -0.0345,-0.21692 -0.0168,-0.0934 -0.0283,-0.23098 -0.0115,-0.13754 -0.0304,-0.24126 -0.0189,-0.10371 -0.0536,-0.29181 -0.0347,-0.18809 -0.0479,-0.26496 -0.0133,-0.0769 -0.0252,-0.14471 -0.0119,-0.0679 -0.0244,-0.16243 -0.0125,-0.0946 -0.0351,-0.24225 -0.0226,-0.14766 -0.0332,-0.25859 -0.0106,-0.11093 -0.0197,-0.23043 -0.009,-0.11949 -0.0246,-0.26233 -0.0155,-0.14285 -0.0381,-0.26726 -0.0225,-0.12441 -0.0396,-0.20896 -0.0171,-0.0846 -0.041,-0.22105 -0.0239,-0.13648 -0.0134,-0.17312 0.0105,-0.0367 0.0147,-0.0967 0.004,-0.06 0.0285,-0.18878 0.0243,-0.12877 0.0313,-0.22424 0.007,-0.0955 0.0185,-0.2289 0.0115,-0.13344 0.0189,-0.25787 0.007,-0.12443 0.0127,-0.26198 0.005,-0.13755 0.0111,-0.26067 0.006,-0.12311 0.006,-0.2696 5e-4,-0.14654 5e-4,-0.27883 0,-0.13229 0,-0.26459 0,-0.13229 0,-0.26458 0,-0.13229 0,-0.26458 0,-0.13229 0,-0.26459 0,-0.13229 0,-0.26458 0,-0.13229 0,-0.26458 0,-0.13229 0,-0.26458 0,-0.1323 0,-0.26459 0,-0.13229 0,-0.26458 0,-0.13229 0,-0.26459 0,-0.13229 0,-0.26458 0,-0.13229 0,-0.26458 0,-0.13229 0,-0.26459 0,-0.13229 0,-0.26458 0,-0.13229 0,-0.26458 0,-0.13229 0.0126,-0.25532 0.0126,-0.12303 0.0285,-0.27601 0.0159,-0.15297 0.0332,-0.26936 0.0173,-0.11639 0.0405,-0.21451 0.0232,-0.0981 0.0383,-0.17525 0.0151,-0.0771 0.0367,-0.21474 0.0216,-0.13758 0.0284,-0.22189 0.007,-0.0843 0.014,-0.21154 0.007,-0.12725 0.0147,-0.26558 0.008,-0.13833 0.0196,-0.28743 0.012,-0.14911 0.0431,-0.28541 0.0312,-0.13631 0.0512,-0.21965 0.0201,-0.0833 0.0323,-0.13547 0.0122,-0.0521 0.0387,-0.17231 0.0265,-0.12017 0.0461,-0.25424 0.0197,-0.13406 0.0457,-0.25137 0.026,-0.1173 0.0588,-0.27076 0.0328,-0.15347 0.0609,-0.26872 0.0282,-0.11525 0.0444,-0.17408 0.0162,-0.0588 0.0495,-0.17125 0.0333,-0.11243 0.0573,-0.18844 0.024,-0.076 0.0758,-0.2089 0.0519,-0.1329 0.0761,-0.19136 0.0242,-0.0584 0.0574,-0.17383 0.0332,-0.11537 0.0569,-0.19107 0.0237,-0.0757 0.0785,-0.22668 0.0547,-0.15098 0.0791,-0.21568 0.0244,-0.0647 0.0793,-0.17022 0.0549,-0.10551 0.0903,-0.1771 0.0354,-0.0716 0.0751,-0.14116 0.0397,-0.0696 0.0985,-0.17828 0.0588,-0.10871 0.10303,-0.20837 0.0443,-0.0996 0.0778,-0.19023 0.0335,-0.0906 0.0548,-0.16655 0.0214,-0.076 0.0506,-0.16336 0.0292,-0.0874 0.0738,-0.2278 0.0446,-0.14041 0.0762,-0.20383 0.0316,-0.0634 0.0808,-0.16216 0.0493,-0.0987 0.0925,-0.15689 0.0433,-0.0582 0.1008,-0.15765 0.0575,-0.0995 0.099,-0.16821 0.0415,-0.0687 0.0885,-0.13949 0.0471,-0.0708 0.11584,-0.1751 0.0688,-0.10434 0.11102,-0.17676 0.0423,-0.0724 0.0968,-0.17943 0.0546,-0.10699 0.0985,-0.18803 0.0439,-0.081 0.0938,-0.15814 0.0499,-0.0771 0.10446,-0.15117 0.0546,-0.0741 0.10497,-0.1306 0.0504,-0.0565 0.13883,-0.15269 0.0884,-0.0962 0.15005,-0.16527 0.0616,-0.0691 0.10915,-0.11706 0.0476,-0.0479 0.11739,-0.11822 0.0698,-0.0703 0.13598,-0.13642 0.0662,-0.0661 0.13229,-0.1323 0.0661,-0.0661 0.1323,-0.13229 0.0661,-0.0661 0.13229,-0.13229 0.0661,-0.0661 0.13229,-0.13229 0.0661,-0.0661 0.13229,-0.13229 0.0661,-0.0661 0.13229,-0.13229 0.0661,-0.0661 0.14549,-0.12827 0.0793,-0.0621 0.16777,-0.12452 0.0884,-0.0624 0.12932,-0.094 0.0409,-0.0316 0.12443,-0.0933 0.0835,-0.0617 0.17127,-0.12959 0.0877,-0.0679 0.14775,-0.11302 0.06,-0.0451 0.15123,-0.10448 0.0912,-0.0593 0.17428,-0.0896 0.0831,-0.0302 0.16995,-0.0541 0.0869,-0.0238 0.24109,-0.0421 0.15422,-0.0183 0.21634,-0.022 0.0621,-0.004 0.25968,-0.0236 0.19755,-0.0199 0.29118,-0.0195 0.0936,4.8e-4 0.21654,-0.008 0.12291,-0.009 0.27965,-0.0104 0.15674,-0.002 0.29068,0.0109 0.13394,0.0126 0.27787,0.0212 0.14393,0.009 0.24919,0.0243 0.10526,0.0156 0.20965,0.0524 0.10439,0.0368 0.16711,0.0611 0.0627,0.0243 0.17532,0.0503 0.1126,0.0261 0.26265,0.0745 0.15005,0.0485 0.23388,0.0729 0.0838,0.0244 0.18278,0.0661 0.099,0.0417 0.14897,0.0656 0.05,0.0239 0.14308,0.0673 0.0931,0.0434 0.19545,0.0938 0.10238,0.0504 0.18416,0.091 0.0818,0.0406 0.18449,0.094 0.10271,0.0534 0.17,0.0889 0.0673,0.0355 0.14944,0.0797 0.0821,0.0443 0.19742,0.11793 0.11527,0.0737 0.15215,0.0958 0.0369,0.0221 0.11852,0.0884 0.0816,0.0663 0.161,0.13419 0.0794,0.0679 0.14816,0.12288 0.0688,0.055 0.14469,0.10417 0.0759,0.0492 0.14948,0.0982 0.0736,0.049 0.18273,0.12193 0.10913,0.073 0.17855,0.13063 0.0694,0.0577 0.14891,0.12631 0.0795,0.0686 0.12857,0.11453 0.0491,0.0459 0.10691,0.10275 0.0578,0.0568 0.13299,0.13153 0.0752,0.0747 0.14132,0.14084 0.0661,0.0661 0.13229,0.13229 0.0661,0.0661 0.13229,0.13229 0.0661,0.0661 0.13229,0.13229 0.0661,0.0662 0.13229,0.13229 0.0661,0.0661 0.1323,0.13229 0.0661,0.0662 0.13229,0.1323 0.0661,0.0661 0.13229,0.13229 0.0661,0.0661 0.13229,0.13229 0.0662,0.0661 0.13229,0.13229 0.0661,0.0661 0.13229,0.13229 0.0661,0.0662 0.1323,0.13229 0.0661,0.0661 0.13229,0.1323 0.0661,0.0661 0.13229,0.13229 0.0661,0.0661 0.13229,0.13229 0.0662,0.0661 0.13229,0.13229 0.0662,0.0661 0.12561,0.13816 0.0595,0.072 0.12917,0.1636 0.0697,0.0916 0.10006,0.13746 0.0303,0.0459 0.11067,0.16725 0.0803,0.12138 0.10348,0.15017 0.0232,0.0288 0.0675,0.01 0.0443,-0.0189 0.0932,-0.0788 0.0489,-0.0599 0.0927,-0.12715 0.0438,-0.0673 0.0914,-0.15924 0.0476,-0.092 0.0771,-0.15032 0.0295,-0.0583 0.10413,-0.21134 0.0747,-0.15302 0.0937,-0.19324 0.0191,-0.0402 0.0664,-0.1279 0.0474,-0.0877 0.10379,-0.19071 0.0564,-0.10304 0.0976,-0.18515 0.0412,-0.0821 0.0891,-0.17816 0.048,-0.0961 0.09,-0.17849 0.042,-0.0824 0.0855,-0.17254 0.0435,-0.0901 0.0897,-0.1868 0.0462,-0.0967 0.10665,-0.19342 0.0605,-0.0967 0.0978,-0.15324 0.0373,-0.0565 0.0988,-0.15379 0.0615,-0.0973 0.11463,-0.1801 0.0531,-0.0828 0.10816,-0.1599 0.055,-0.0771 0.10148,-0.14212 0.0465,-0.065 0.0938,-0.13242 0.0474,-0.0674 0.0919,-0.13449 0.0445,-0.0671 0.0986,-0.14697 0.054,-0.0799 0.10349,-0.15363 0.0495,-0.0738 0.11033,-0.15572 0.0609,-0.082 0.1281,-0.16124 0.0672,-0.0793 0.14119,-0.17429 0.0739,-0.095 0.12591,-0.15391 0.052,-0.0589 0.11975,-0.1318 0.0678,-0.0729 0.12725,-0.13757 0.0594,-0.0647 0.12559,-0.13083 0.0661,-0.0661 0.13229,-0.13229 0.0662,-0.0662 0.13229,-0.13229 0.0662,-0.0662 0.13229,-0.13229 0.0661,-0.0662 0.1323,-0.1323 0.0661,-0.0661 0.13229,-0.13229 0.0661,-0.0661 0.13229,-0.13229 0.0661,-0.0661 0.13229,-0.13229 0.0662,-0.0661 0.13229,-0.13229 0.0662,-0.0661 0.12055,-0.11628 0.0544,-0.0501 0.12797,-0.12048 0.0736,-0.0703 0.1757,-0.14975 0.10215,-0.0794 0.1917,-0.14618 0.0896,-0.0668 0.11881,-0.0873 0.0293,-0.0205 0.13416,-0.0897 0.10491,-0.0692 0.18739,-0.13228 0.0825,-0.0631 0.12643,-0.098 0.044,-0.035 0.11896,-0.0799 0.075,-0.0449 0.16212,-0.0988 0.0871,-0.0539 0.1943,-0.12173 0.10718,-0.0679 0.18727,-0.12296 0.0801,-0.0551 0.13452,-0.091 0.0544,-0.0358 0.13968,-0.0872 0.0853,-0.0514 0.17806,-0.11025 0.0928,-0.0589 0.17303,-0.11726 0.0802,-0.0584 0.15031,-0.1131 0.0701,-0.0547 0.13376,-0.0993 0.0637,-0.0446 0.13654,-0.0814 0.0729,-0.0369 0.16233,-0.0686 0.0895,-0.0317 0.23598,-0.0952 0.1465,-0.0635 0.25167,-0.10122 0.10517,-0.0378 0.18531,-0.0576 0.0801,-0.0199 0.15026,-0.0378 0.0701,-0.018 0.24649,-0.0398 0.17637,-0.0217 0.26118,-0.0323 0.0848,-0.0105 0.20033,-0.032 0.11553,-0.0215 0.29337,-0.0577 0.17785,-0.0362 0.24626,-0.054 0.0684,-0.0178 0.14916,-0.0323 0.0807,-0.0145 0.21186,-0.0301 0.13111,-0.0157 0.23334,-0.0256 0.10224,-0.01 0.21805,-0.0233 0.11581,-0.0133 0.26165,-0.0292 0.14584,-0.0158 0.26759,-0.0441 0.12175,-0.0282 0.2019,-0.0537 0.0802,-0.0254 0.18081,-0.0483 0.10066,-0.0228 0.17936,-0.0269 0.0787,-0.004 0.21954,-0.0353 0.14084,-0.0312 0.28354,-0.0545 0.14269,-0.0233 0.28254,-0.0523 0.13986,-0.029 0.21916,-0.0482 0.0793,-0.0192 0.18233,-0.0439 m 2.77538,30.76192 q 0.0659,-0.005 0.15623,-0.0295 0.0903,-0.025 0.14423,-0.11074 0.0539,-0.0858 0.10673,-0.18747 0.0529,-0.10171 0.0787,-0.16661 0.0258,-0.0649 0.065,-0.17399 0.0392,-0.10909 0.0445,-0.20782 0.005,-0.0987 0.0132,-0.23159 0.008,-0.13287 0.0197,-0.28184 0.0118,-0.14898 0.0214,-0.27832 0.01,-0.12934 0.0486,-0.25093 0.0389,-0.1216 0.08,-0.17016 0.0411,-0.0486 0.10683,-0.10715 0.0658,-0.0586 0.20406,-0.082 0.13829,-0.0234 0.22131,-0.0397 0.083,-0.0163 0.18209,-0.0779 0.0991,-0.0616 0.1629,-0.097 0.0638,-0.0354 0.11483,-0.0894 0.051,-0.054 0.0835,-0.1928 0.0325,-0.13876 0.057,-0.26483 0.0244,-0.12607 0.0413,-0.20174 0.0168,-0.0757 0.0666,-0.22014 0.0498,-0.14448 0.0816,-0.21268 0.0318,-0.0682 0.0794,-0.1101 0.0475,-0.0419 0.21034,-0.0581 0.1628,-0.0162 0.2709,-0.0325 0.10809,-0.0163 0.2392,-0.0528 0.13111,-0.0365 0.22776,-0.0592 0.0967,-0.0227 0.16217,-0.0417 0.0655,-0.019 0.16858,-0.0386 0.10306,-0.0197 0.23642,-0.0367 0.13335,-0.0171 0.26983,-0.0271 0.13649,-0.0101 0.24237,-0.0319 0.1059,-0.0218 0.2479,-0.0444 0.142,-0.0226 0.20035,-0.0396 0.0584,-0.017 0.18686,-0.0457 0.1285,-0.0287 0.21458,-0.0411 0.0861,-0.0124 0.23764,-0.0289 0.15155,-0.0166 0.26518,-0.0298 0.11363,-0.0132 0.22134,-0.0326 0.10771,-0.0194 0.24542,-0.0456 0.1377,-0.0262 0.2197,-0.0442 0.082,-0.018 0.17331,-0.0407 0.0913,-0.0227 0.20625,-0.0543 0.11495,-0.0316 0.22984,-0.0576 0.11488,-0.026 0.27438,-0.0677 0.15949,-0.0417 0.23995,-0.0595 0.0805,-0.0178 0.17775,-0.0385 0.0973,-0.0207 0.17297,-0.0313 0.0757,-0.0106 0.22483,-0.0349 0.14915,-0.0243 0.25397,-0.0426 0.10482,-0.0183 0.25038,-0.0514 0.14556,-0.0331 0.22636,-0.0485 0.0808,-0.0154 0.12093,-0.0241 0.0401,-0.009 0.18983,-0.0393 0.14971,-0.0306 0.29399,-0.0599 0.14429,-0.0292 0.24154,-0.0438 0.0973,-0.0146 0.21645,-0.039 0.11919,-0.0243 0.23772,-0.0576 0.11852,-0.0333 0.20783,-0.0568 0.0893,-0.0236 0.19725,-0.0394 0.10796,-0.0158 0.21575,-0.0347 0.10778,-0.0189 0.25243,-0.0437 0.14465,-0.0249 0.28595,-0.0575 0.1413,-0.0326 0.2095,-0.0537 0.0682,-0.0211 0.14297,-0.0439 0.0748,-0.0227 0.15771,-0.0402 0.0829,-0.0175 0.23665,-0.0488 0.15371,-0.0313 0.2544,-0.0543 0.10068,-0.023 0.22513,-0.051 0.12446,-0.0281 0.19338,-0.0437 0.0689,-0.0156 0.16468,-0.037 0.0958,-0.0214 0.22008,-0.0463 0.12432,-0.0249 0.28298,-0.0806 0.15866,-0.0557 0.23282,-0.0781 0.0742,-0.0224 0.16612,-0.0494 0.092,-0.027 0.19288,-0.0481 0.1009,-0.0211 0.21217,-0.0452 0.11126,-0.0241 0.22858,-0.0473 0.11732,-0.0233 0.24251,-0.0554 0.1252,-0.0322 0.18495,-0.0489 0.0598,-0.0167 0.17561,-0.0464 0.11584,-0.0297 0.2232,-0.0697 0.10736,-0.04 0.19961,-0.0771 0.0923,-0.0371 0.18979,-0.0735 0.0975,-0.0363 0.19809,-0.0686 0.10055,-0.0322 0.2083,-0.0666 0.10774,-0.0344 0.20441,-0.0657 0.0967,-0.0313 0.17149,-0.0498 0.0748,-0.0184 0.18175,-0.0444 0.10691,-0.026 0.25379,-0.0682 0.14688,-0.0423 0.25507,-0.0821 0.10819,-0.0399 0.16106,-0.0935 0.0529,-0.0536 0.10569,-0.1054 0.0528,-0.0518 0.0599,-0.19429 0.007,-0.14246 0.003,-0.22394 -0.004,-0.0815 -0.0286,-0.23967 -0.0245,-0.15819 -0.0615,-0.22213 -0.0371,-0.064 -0.082,-0.10883 -0.0449,-0.0449 -0.16992,0.002 -0.12501,0.0474 -0.17707,0.065 -0.0521,0.0176 -0.11003,0.0366 -0.058,0.019 -0.23079,0.0797 -0.17282,0.0607 -0.25864,0.0857 -0.0858,0.025 -0.14593,0.0383 -0.0601,0.0133 -0.20645,0.0456 -0.14634,0.0323 -0.25273,0.0541 -0.10639,0.0218 -0.2165,0.0561 -0.11011,0.0343 -0.19912,0.0578 -0.089,0.0235 -0.18051,0.0561 -0.0915,0.0326 -0.19346,0.0626 -0.10195,0.03 -0.20691,0.0658 -0.10496,0.0358 -0.21058,0.0697 -0.10561,0.0338 -0.21921,0.0696 -0.1136,0.0358 -0.17329,0.0525 -0.0597,0.0168 -0.19095,0.041 -0.13126,0.0243 -0.26903,0.0537 -0.13777,0.0294 -0.25531,0.0732 -0.11754,0.0438 -0.14661,0.053 -0.0291,0.009 -0.13278,0.0292 -0.10371,0.02 -0.23534,0.0482 -0.13162,0.0282 -0.27909,0.061 -0.14747,0.0328 -0.21736,0.055 -0.0699,0.0223 -0.1433,0.0435 -0.0734,0.0212 -0.18873,0.0532 -0.11532,0.0319 -0.26221,0.0665 -0.14689,0.0345 -0.25374,0.0632 -0.10684,0.0286 -0.19074,0.0494 -0.0839,0.0207 -0.17956,0.0429 -0.0957,0.0222 -0.2083,0.0378 -0.11263,0.0156 -0.23931,0.0404 -0.12669,0.0248 -0.26253,0.0484 -0.13584,0.0237 -0.2317,0.0435 -0.0959,0.0198 -0.22933,0.0533 -0.13346,0.0335 -0.18455,0.0466 -0.0511,0.0131 -0.15061,0.0307 -0.0995,0.0176 -0.23026,0.04 -0.13072,0.0224 -0.24872,0.0454 -0.118,0.023 -0.24513,0.0516 -0.12714,0.0286 -0.28124,0.0681 -0.1541,0.0395 -0.22885,0.0566 -0.0748,0.017 -0.16312,0.0312 -0.0884,0.0142 -0.18797,0.0272 -0.0996,0.013 -0.22566,0.0321 -0.12605,0.019 -0.25488,0.051 -0.12883,0.032 -0.20794,0.0506 -0.0791,0.0186 -0.18754,0.0453 -0.10844,0.0267 -0.18274,0.0445 -0.0743,0.0178 -0.23718,0.0502 -0.16287,0.0324 -0.26212,0.0488 -0.0992,0.0163 -0.21677,0.0572 -0.11753,0.0409 -0.19996,0.0585 -0.0824,0.0176 -0.16128,0.0385 -0.0789,0.0209 -0.20233,0.0369 -0.12347,0.016 -0.27276,0.0274 -0.14928,0.0115 -0.24656,0.0182 -0.0973,0.007 -0.25322,0.0278 -0.15594,0.0211 -0.26121,0.0589 -0.10527,0.0378 -0.1912,0.0633 -0.0859,0.0256 -0.18227,0.0485 -0.0963,0.0229 -0.23634,0.0404 -0.14001,0.0175 -0.26761,0.0262 -0.1276,0.009 -0.23671,0.0161 -0.1091,0.007 -0.2061,0.0339 -0.097,0.0264 -0.24684,0.0693 -0.14985,0.0429 -0.23084,0.0625 -0.081,0.0195 -0.15399,0.031 -0.073,0.0114 -0.24089,0.0279 -0.16788,0.0164 -0.26092,0.0249 -0.093,0.008 -0.22469,0.0206 -0.13165,0.0121 -0.27026,0.0368 -0.1386,0.0246 -0.24018,0.0498 -0.10157,0.0252 -0.19648,0.0508 -0.0949,0.0256 -0.17704,0.053 -0.0821,0.0274 -0.10995,-0.0133 -0.0278,-0.0408 -0.0672,-0.12571 -0.0394,-0.085 -0.0741,-0.23647 -0.0347,-0.15151 -0.0451,-0.23142 -0.0104,-0.0799 -0.037,-0.23005 -0.0266,-0.15013 -0.0525,-0.27198 -0.0259,-0.12185 -0.0425,-0.20183 -0.0166,-0.08 -0.0817,-0.11965 -0.0651,-0.0397 -0.16558,-0.10086 -0.10045,-0.0612 -0.15277,-0.0882 -0.0523,-0.027 -0.19248,-0.062 -0.14017,-0.035 -0.27722,-0.0399 -0.13705,-0.005 -0.24058,-0.001 -0.10353,0.004 -0.20348,0.0171 -0.1,0.0133 -0.21963,0.0408 -0.11967,0.0275 -0.18047,0.0626 -0.0608,0.0351 -0.13194,0.10114 -0.0712,0.066 -0.1378,0.14948 -0.0667,0.0835 -0.0996,0.13699 -0.033,0.0535 -0.0566,0.13834 -0.0236,0.0848 -0.0521,0.22088 -0.0284,0.13607 -0.0573,0.25298 -0.0289,0.11691 -0.0765,0.27914 -0.0476,0.16222 -0.0855,0.19277 -0.0379,0.0306 -0.10324,0.0766 -0.0653,0.046 -0.1262,0.0338 -0.0609,-0.0123 -0.12791,-0.0299 -0.0671,-0.0177 -0.19658,-0.0471 -0.12951,-0.0295 -0.22815,-0.0447 -0.0986,-0.0152 -0.28275,-0.0507 -0.18411,-0.0354 -0.321,-0.0652 -0.13689,-0.0298 -0.20719,-0.0533 -0.0703,-0.0234 -0.15521,-0.0424 -0.0849,-0.0189 -0.16485,-0.0343 -0.0799,-0.0154 -0.19541,-0.0428 -0.11547,-0.0274 -0.22911,-0.0598 -0.11363,-0.0324 -0.24648,-0.067 -0.13284,-0.0346 -0.23045,-0.0639 -0.0976,-0.0293 -0.15074,-0.0429 -0.0531,-0.0136 -0.24414,-0.0727 -0.191,-0.0591 -0.22614,-0.0703 -0.0351,-0.0111 -0.12081,-0.0423 -0.0857,-0.0312 -0.16106,-0.0556 -0.0754,-0.0245 -0.19556,-0.0655 -0.12016,-0.0411 -0.274,-0.0973 -0.15384,-0.0562 -0.19397,-0.0757 -0.0401,-0.0195 -0.14515,-0.0729 -0.10501,-0.0534 -0.18635,-0.091 -0.0813,-0.0376 -0.19421,-0.0879 -0.11287,-0.0503 -0.17717,-0.0954 -0.0643,-0.0451 -0.11123,-0.0782 -0.0469,-0.0332 -0.15562,-0.10647 -0.10869,-0.0733 -0.16997,-0.10873 -0.0613,-0.0354 -0.16227,-0.0974 -0.10101,-0.062 -0.19258,-0.10613 -0.0916,-0.0441 -0.17607,-0.0871 -0.0845,-0.0429 -0.15801,-0.0824 -0.0735,-0.0395 -0.17006,-0.0957 -0.0965,-0.0562 -0.17181,-0.10465 -0.0753,-0.0484 -0.16751,-0.1131 -0.0923,-0.0647 -0.15541,-0.1102 -0.0631,-0.0455 -0.13167,-0.0849 -0.0685,-0.0394 -0.16916,-0.0963 -0.10064,-0.057 -0.21054,-0.11653 -0.1099,-0.0596 -0.17052,-0.0937 -0.0606,-0.0341 -0.1507,-0.093 -0.0901,-0.0588 -0.19387,-0.12406 -0.10379,-0.0652 -0.17903,-0.11629 -0.0752,-0.0511 -0.13901,-0.0923 -0.0638,-0.0412 -0.13826,-0.0871 -0.0745,-0.0459 -0.15802,-0.0909 -0.0835,-0.045 -0.17846,-0.0977 -0.095,-0.0526 -0.16971,-0.0949 -0.0748,-0.0423 -0.16024,-0.0802 -0.0855,-0.0379 -0.19815,-0.091 -0.11266,-0.0531 -0.1907,-0.11274 -0.0781,-0.0596 -0.13177,-0.10167 -0.0537,-0.0421 -0.10514,-0.0814 -0.0514,-0.0393 -0.14239,-0.0948 -0.091,-0.0555 -0.20971,-0.13077 -0.11872,-0.0753 -0.18781,-0.13056 -0.0691,-0.0553 -0.14025,-0.11211 -0.0712,-0.0568 -0.13687,-0.10295 -0.0657,-0.0461 -0.16108,-0.10589 -0.0954,-0.0598 -0.17671,-0.11036 -0.0813,-0.0506 -0.15858,-0.11054 -0.0773,-0.06 -0.12816,-0.0949 -0.0509,-0.035 -0.16293,-0.0955 -0.11205,-0.0605 -0.19928,-0.11402 -0.0872,-0.0535 -0.17043,-0.11045 -0.0832,-0.0569 -0.14965,-0.10238 -0.0665,-0.0454 -0.10809,-0.0719 -0.0416,-0.0265 -0.17429,-0.10857 -0.13267,-0.0821 -0.21807,-0.1409 -0.0854,-0.0588 -0.13919,-0.0989 -0.0538,-0.0401 -0.14938,-0.11952 -0.0956,-0.0794 -0.16492,-0.13547 -0.0693,-0.0561 -0.11643,-0.10077 -0.0471,-0.0447 -0.12357,-0.0999 -0.0765,-0.0553 -0.13445,-0.10022 -0.058,-0.045 -0.16822,-0.11646 -0.11022,-0.0715 -0.19221,-0.12655 -0.082,-0.0551 -0.15115,-0.11359 -0.0692,-0.0585 -0.1407,-0.11871 -0.0715,-0.0602 -0.12898,-0.10835 -0.0574,-0.0482 -0.14042,-0.1138 -0.083,-0.0656 -0.1892,-0.13071 -0.10621,-0.0651 -0.16828,-0.10926 -0.0621,-0.0442 -0.16932,-0.12127 -0.10724,-0.0771 -0.15705,-0.11145 -0.0498,-0.0344 -0.10829,-0.0633 -0.0585,-0.0289 -0.1589,-0.0678 -0.10044,-0.0389 -0.20035,-0.0736 -0.0999,-0.0347 -0.14902,0.001 -0.0491,0.0359 -0.0939,0.0881 -0.0448,0.0522 -0.0401,0.15517 0.005,0.10302 0.0182,0.25871 0.0135,0.1557 0.0249,0.27469 0.0114,0.119 0.0579,0.18152 0.0465,0.0625 0.10398,0.11949 0.0575,0.057 0.14695,0.14743 0.0894,0.0905 0.13094,0.12561 0.0415,0.0352 0.12073,0.10083 0.0792,0.0657 0.15688,0.12325 0.0777,0.0576 0.1687,0.11945 0.091,0.0619 0.13787,0.0959 0.0468,0.0341 0.1553,0.11068 0.10849,0.0766 0.17476,0.12415 0.0663,0.0475 0.11903,0.0943 0.0528,0.0468 0.14743,0.12684 0.0947,0.08 0.17763,0.14678 0.083,0.0668 0.15002,0.11145 0.0671,0.0447 0.13622,0.0873 0.0692,0.0426 0.1364,0.0873 0.0672,0.0447 0.17429,0.12379 0.10704,0.0791 0.16348,0.12072 0.0564,0.0416 0.1297,0.0923 0.0733,0.0506 0.17327,0.11657 0.1,0.0659 0.17072,0.11557 0.0707,0.0496 0.16635,0.11322 0.0956,0.0636 0.16675,0.11205 0.0711,0.0485 0.17051,0.11376 0.0994,0.0652 0.13393,0.0874 0.0346,0.0221 0.11869,0.0764 0.0841,0.0543 0.17763,0.11794 0.0935,0.0636 0.15519,0.10831 0.0617,0.0447 0.15288,0.11733 0.0912,0.0727 0.17222,0.12491 0.081,0.0522 0.16537,0.0992 0.0843,0.047 0.18559,0.10725 0.10125,0.0602 0.11908,0.0717 0.0178,0.0114 0.12846,0.0869 0.11062,0.0755 0.20058,0.13262 0.09,0.0571 0.18922,0.11099 0.0993,0.0539 0.19717,0.11227 0.0979,0.0584 0.17872,0.10404 0.0808,0.0456 0.13038,0.081 0.0496,0.0353 0.15649,0.094 0.10691,0.0586 0.17633,0.11126 0.0694,0.0526 0.15807,0.11341 0.0887,0.0608 0.15684,0.10632 0.0682,0.0455 0.14941,0.0911 0.0812,0.0456 0.17541,0.0937 0.0942,0.0482 0.17786,0.0902 0.0837,0.042 0.17062,0.0894 0.0869,0.0474 0.16641,0.10197 0.0795,0.0545 0.18151,0.1287 0.10203,0.0742 0.15186,0.0999 0.0498,0.0257 0.10631,0.061 0.0565,0.0353 0.17788,0.10309 0.12139,0.0678 0.21743,0.11663 0.096,0.0488 0.15694,0.0815 0.0609,0.0327 0.16422,0.0858 0.10332,0.0531 0.19017,0.0996 0.0868,0.0465 0.18836,0.10048 0.10152,0.054 0.17433,0.0964 0.0728,0.0424 0.10821,0.0637 0.0354,0.0212 0.14487,0.0954 0.10948,0.0741 0.18767,0.13674 0.0782,0.0626 0.13712,0.0967 0.0589,0.034 0.15858,0.0909 0.0997,0.0568 0.23618,0.12786 0.13652,0.0711 0.18148,0.0954 0.045,0.0243 0.15425,0.079 0.1093,0.0546 0.16497,0.0738 0.0557,0.0191 0.12998,0.0496 0.0743,0.0305 0.1614,0.0613 0.0871,0.0308 0.25465,0.0874 0.16757,0.0566 0.2371,0.0819 0.0695,0.0252 0.18813,0.0624 0.11859,0.0372 0.18361,0.0577 0.065,0.0206 0.21666,0.0749 0.15163,0.0543 0.23327,0.0804 0.0816,0.026 0.15569,0.0444 0.074,0.0184 0.17143,0.0473 0.0974,0.029 0.23976,0.0696 0.14237,0.0406 0.25229,0.0733 0.10991,0.0327 0.19053,0.0624 0.0806,0.0298 0.17694,0.0656 0.0963,0.0358 0.18074,0.0952 0.0844,0.0594 0.17748,0.1335 0.0931,0.0741 0.10711,0.11896 0.0141,0.0448 0.0459,0.16033 0.0318,0.11547 0.0671,0.24381 0.0353,0.12833 0.0938,0.21604 0.0585,0.0877 0.13352,0.16246 0.075,0.0748 0.10386,0.10047 0.0289,0.0257 0.0777,0.0376 0.0489,0.0118 0.24163,0.0528 0.19277,0.041 0.27231,0.0569 0.0796,0.016 0.21076,0.0465 0.13122,0.0305 0.20075,0.0532 0.0695,0.0227 0.0991,0.14509 0.0296,0.12241 0.0524,0.25932 0.0228,0.13692 0.0328,0.224 0.01,0.0871 0.0204,0.24821 0.0104,0.16114 0.0152,0.27598 0.005,0.11484 0.0105,0.25195 0.006,0.13712 0.0155,0.25139 0.01,0.11426 0.0363,0.24503 0.0265,0.13077 0.0603,0.19639 0.0338,0.0656 0.0986,0.1756 0.0648,0.10997 0.11764,0.16465 0.0529,0.0547 0.13962,0.0748 0.0867,0.0201 0.25009,0.0337 0.16334,0.0136 0.26163,0.015 0.0983,0.001 0.23165,-0.01 0.13335,-0.0112 0.29258,-0.0224 0.15922,-0.0112 0.2251,-0.0157 m 9.24096,-11.09929 q 0.13323,-0.0165 0.25363,-0.0501 0.12041,-0.0336 0.17527,-0.0771 0.0549,-0.0434 0.0986,-0.0801 0.0438,-0.0367 0.11307,-0.0819 0.0693,-0.0452 0.18876,-0.10865 0.11945,-0.0634 0.2187,-0.13181 0.0992,-0.0684 0.16705,-0.11622 0.0678,-0.0478 0.12693,-0.10124 0.0591,-0.0534 0.14463,-0.10537 0.0855,-0.0519 0.17998,-0.11076 0.0945,-0.0588 0.17285,-0.11207 0.0784,-0.0532 0.15452,-0.12323 0.0762,-0.07 0.0987,-0.0935 0.0226,-0.0235 0.0804,-0.13381 0.0578,-0.11027 0.11571,-0.21593 0.0579,-0.10565 0.0892,-0.17734 0.0313,-0.0717 0.0701,-0.16919 0.0388,-0.0975 0.0835,-0.21128 0.0446,-0.11375 0.0667,-0.18064 0.0221,-0.0669 0.0609,-0.19203 0.0388,-0.12513 0.0764,-0.2272 0.0376,-0.10206 0.0783,-0.22626 0.0407,-0.1242 0.0818,-0.24161 0.0411,-0.11741 0.05,-0.15198 0.009,-0.0346 0.017,-0.10749 0.008,-0.0729 0.0223,-0.22576 0.0142,-0.15286 0.0259,-0.26489 0.0118,-0.11204 0.0182,-0.25257 0.006,-0.14054 0.0107,-0.28201 0.004,-0.14147 0.008,-0.29019 0.004,-0.14872 0.003,-0.26497 -5.3e-4,-0.11625 -0.0137,-0.22047 -0.0131,-0.10421 -0.0358,-0.244 -0.0227,-0.13979 -0.0692,-0.20233 -0.0465,-0.0625 -0.11205,-0.10728 -0.0655,-0.0447 -0.15245,-0.061 -0.087,-0.0162 -0.20344,0.0319 -0.11649,0.0482 -0.17016,0.072 -0.0537,0.0239 -0.0908,0.0999 -0.0372,0.076 -0.0568,0.14987 -0.0197,0.0739 -0.0549,0.23894 -0.0353,0.16506 -0.0473,0.27518 -0.0121,0.11012 -0.0275,0.24142 -0.0154,0.13129 -0.0361,0.27419 -0.0208,0.1429 -0.0492,0.27155 -0.0284,0.12864 -0.0505,0.21115 -0.0221,0.0825 -0.0391,0.14797 -0.017,0.0655 -0.0533,0.20494 -0.0362,0.13947 -0.0573,0.2133 -0.0211,0.0738 -0.0589,0.20895 -0.0379,0.13511 -0.0471,0.16071 -0.009,0.0256 -0.0683,0.17177 -0.059,0.14616 -0.11263,0.26755 -0.0536,0.12139 -0.0815,0.1879 -0.0279,0.0665 -0.0834,0.15689 -0.0555,0.0904 -0.0996,0.15171 -0.0441,0.0613 -0.12082,0.1456 -0.0767,0.0843 -0.14563,0.15363 -0.069,0.0694 -0.13309,0.12069 -0.0641,0.0513 -0.12588,0.0867 -0.0617,0.0353 -0.16128,0.10559 -0.0995,0.0702 -0.19051,0.1374 -0.091,0.0671 -0.15548,0.11302 -0.0645,0.0459 -0.14981,0.10892 -0.0853,0.0631 -0.12539,0.0808 -0.0401,0.0178 -0.16285,0.0474 -0.12276,0.0297 -0.22944,0.054 -0.10668,0.0244 -0.24584,0.0291 -0.13915,0.005 -0.27114,0.0111 -0.13199,0.006 -0.26486,0.009 -0.13287,0.002 -0.27059,0.003 -0.13773,10e-4 -0.27002,10e-4 -0.13229,0 -0.25167,-0.008 -0.11939,-0.008 -0.28731,-0.0273 -0.16793,-0.0197 -0.30229,-0.059 -0.13437,-0.0392 -0.19835,-0.0722 -0.064,-0.0329 -0.11633,-0.0711 -0.0524,-0.0381 -0.10933,-0.0925 -0.057,-0.0544 -0.12042,-0.15278 -0.0634,-0.0984 -0.10864,-0.16637 -0.0452,-0.068 -0.0745,-0.15681 -0.0293,-0.0888 -0.05,-0.17047 -0.0207,-0.0817 -0.0368,-0.23455 -0.0161,-0.15289 -0.0222,-0.2492 -0.006,-0.0963 -0.0126,-0.23586 -0.007,-0.13954 -0.0135,-0.26519 -0.007,-0.12565 -0.0108,-0.2653 -0.004,-0.13965 -0.004,-0.29329 -5.3e-4,-0.15364 -7.9e-4,-0.27228 2e-5,-0.11865 2e-5,-0.25095 0,-0.13229 0,-0.26458 0,-0.13229 0,-0.26458 0,-0.13229 -0.0143,-0.29277 -0.0143,-0.16049 -0.0423,-0.24077 -0.0281,-0.0803 -0.0859,-0.1632 -0.0578,-0.0829 -0.12937,-0.0982 -0.0715,-0.0154 -0.16309,-0.0103 -0.0916,0.005 -0.17582,0.031 -0.0843,0.026 -0.14675,0.0769 -0.0625,0.0509 -0.12122,0.10363 -0.0587,0.0527 -0.0765,0.129 -0.0178,0.0763 -0.035,0.19607 -0.0172,0.11978 -0.026,0.26312 -0.009,0.14335 -0.0159,0.27294 -0.007,0.1296 -0.0135,0.2793 -0.006,0.1497 -0.01,0.26451 -0.003,0.11481 -0.003,0.2471 0,0.13229 0,0.26458 0,0.1323 0,0.26459 0,0.13229 0,0.26458 0,0.13229 0,0.26458 0,0.1323 0.007,0.23599 0.007,0.1037 0.0222,0.27998 0.015,0.17628 0.0289,0.29286 0.0139,0.11657 0.0352,0.20723 0.0213,0.0907 0.0568,0.1611 0.0355,0.0704 0.0894,0.15887 0.0539,0.0884 0.10095,0.16887 0.0471,0.0804 0.10015,0.15198 0.0531,0.0715 0.13148,0.1795 0.0784,0.10796 0.11666,0.15015 0.0383,0.0422 0.12174,0.12413 0.0834,0.082 0.15405,0.13367 0.0706,0.0517 0.12408,0.09 0.0535,0.0383 0.14243,0.0631 0.089,0.0248 0.2112,0.0458 0.12224,0.021 0.26719,0.0341 0.14495,0.0131 0.28279,0.017 0.13784,0.004 0.26338,0.0115 0.12555,0.008 0.25784,0.008 0.13229,0 0.26458,0 0.13229,0 0.26459,0 0.13229,0 0.26458,0 0.13229,0 0.26458,0 0.13229,0 0.26459,0 0.13229,0 0.27919,-0.01 0.14689,-0.01 0.2596,-0.0221 0.11271,-0.0125 0.24594,-0.029 m -14.8142,-2.37378 q 0.14826,-0.0256 0.24988,-0.0619 0.10162,-0.0363 0.15701,-0.0528 0.0554,-0.0165 0.18907,-0.0915 0.13369,-0.075 0.19182,-0.10912 0.0581,-0.0342 0.11129,-0.0703 0.0532,-0.0361 0.17152,-0.13443 0.11835,-0.0983 0.14811,-0.12376 0.0298,-0.0255 0.11255,-0.10419 0.0828,-0.0787 0.13972,-0.13488 0.0569,-0.0562 0.12308,-0.12231 0.0662,-0.0661 0.11048,-0.12784 0.0443,-0.0617 0.0658,-0.0915 0.0215,-0.0298 0.0845,-0.14552 0.063,-0.11575 0.1226,-0.23686 0.0596,-0.12112 0.0958,-0.21662 0.0362,-0.0955 0.0718,-0.17035 0.0356,-0.0748 0.0844,-0.19403 0.0488,-0.1192 0.0936,-0.22489 0.0448,-0.1057 0.0805,-0.18873 0.0357,-0.083 0.0687,-0.14761 0.033,-0.0646 0.0724,-0.15345 0.0394,-0.0889 0.0549,-0.15317 0.0155,-0.0643 0.0544,-0.2419 0.0388,-0.17759 0.0604,-0.2712 0.0216,-0.0936 0.0285,-0.21109 0.007,-0.11748 0.006,-0.23864 -8e-4,-0.12116 -0.021,-0.21266 -0.0203,-0.0915 -0.11947,-0.12033 -0.0991,-0.0288 -0.22859,-0.0317 -0.12944,-0.003 -0.19184,0.0277 -0.0624,0.0306 -0.14395,0.10344 -0.0816,0.0729 -0.11875,0.1076 -0.0372,0.0347 -0.077,0.10412 -0.0399,0.0694 -0.0955,0.15765 -0.0557,0.0882 -0.14211,0.23724 -0.0864,0.14899 -0.10579,0.19472 -0.0194,0.0457 -0.0767,0.16474 -0.0574,0.11901 -0.0809,0.18035 -0.0236,0.0614 -0.0624,0.16575 -0.0389,0.1044 -0.0932,0.23717 -0.0543,0.13278 -0.077,0.19111 -0.0226,0.0583 -0.0812,0.16452 -0.0585,0.10619 -0.10141,0.18817 -0.0429,0.082 -0.11285,0.20932 -0.07,0.12734 -0.10355,0.17607 -0.0336,0.0487 -0.0714,0.0918 -0.0378,0.0431 -0.11327,0.10977 -0.0755,0.0667 -0.12375,0.10144 -0.0483,0.0348 -0.14987,0.10442 -0.1016,0.0696 -0.18094,0.10738 -0.0793,0.0377 -0.18422,0.0716 -0.10488,0.0338 -0.19437,0.0559 -0.0895,0.0221 -0.2221,0.0417 -0.13262,0.0196 -0.25693,0.0372 -0.12431,0.0176 -0.26815,0.023 -0.14384,0.005 -0.26098,0.003 -0.11714,-0.002 -0.26102,-2.3e-4 -0.14387,0.002 -0.27722,-0.007 -0.13334,-0.009 -0.27564,-0.0224 -0.14231,-0.013 -0.23934,-0.0424 -0.097,-0.0294 -0.15687,-0.047 -0.0598,-0.0176 -0.14698,-0.0379 -0.0871,-0.0203 -0.23814,-0.0548 -0.15101,-0.0345 -0.27127,-0.0595 -0.12025,-0.0249 -0.23185,-0.0658 -0.1116,-0.0408 -0.14807,-0.0568 -0.0365,-0.016 -0.16043,-0.0853 -0.12397,-0.0693 -0.19649,-0.10863 -0.0725,-0.0393 -0.14743,-0.0844 -0.0749,-0.0451 -0.13589,-0.0821 -0.061,-0.0371 -0.14317,-0.0955 -0.0822,-0.0584 -0.19701,-0.14707 -0.11484,-0.0887 -0.15893,-0.13777 -0.0441,-0.0491 -0.0872,-0.0959 -0.0431,-0.0469 -0.10855,-0.17027 -0.0655,-0.12341 -0.11237,-0.19237 -0.0469,-0.069 -0.0982,-0.1579 -0.0513,-0.0889 -0.0972,-0.17906 -0.0459,-0.0901 -0.0652,-0.16465 -0.0193,-0.0745 -0.0358,-0.1544 -0.0165,-0.0799 -0.0382,-0.21289 -0.0217,-0.13302 -0.0399,-0.2669 -0.0182,-0.13387 -0.006,-0.26367 0.0119,-0.12981 0.0171,-0.25484 0.005,-0.12502 0.0266,-0.24009 0.0214,-0.11506 0.0403,-0.16262 0.0189,-0.0476 0.0679,-0.18557 0.049,-0.13802 0.0861,-0.23574 0.0371,-0.0977 0.0727,-0.22606 0.0356,-0.12836 0.0453,-0.16506 0.01,-0.0367 0.0523,-0.19292 0.0426,-0.15621 0.0303,-0.22071 -0.0123,-0.0645 -0.056,-0.13885 -0.0437,-0.0743 -0.0881,-0.14009 -0.0444,-0.0658 -0.15285,-0.12283 -0.10849,-0.0571 -0.22425,-0.0939 -0.11575,-0.0368 -0.14653,-0.023 -0.0308,0.0138 -0.0897,0.0602 -0.0589,0.0464 -0.13245,0.10829 -0.0735,0.0619 -0.0948,0.0921 -0.0212,0.0302 -0.0841,0.13714 -0.0628,0.10693 -0.0974,0.1826 -0.0346,0.0757 -0.0954,0.21935 -0.0608,0.14368 -0.087,0.21536 -0.0262,0.0717 -0.048,0.15812 -0.0218,0.0864 -0.0389,0.1733 -0.017,0.0869 -0.0428,0.24828 -0.0258,0.16142 -0.0327,0.27915 -0.007,0.11772 -0.007,0.23592 -2.6e-4,0.11821 -0.006,0.25706 -0.006,0.13885 0.005,0.28012 0.0105,0.14126 0.0108,0.27788 3.2e-4,0.13663 0.002,0.24298 0.001,0.10636 0.0221,0.20442 0.0207,0.0981 0.05,0.19302 0.0293,0.095 0.0625,0.20797 0.0332,0.11302 0.0858,0.22666 0.0526,0.11365 0.10698,0.1978 0.0544,0.0841 0.098,0.14303 0.0436,0.0589 0.0996,0.11831 0.056,0.0594 0.11453,0.12851 0.0586,0.0691 0.12621,0.14422 0.0677,0.0751 0.12886,0.13937 0.0612,0.0642 0.13416,0.13923 0.073,0.075 0.1391,0.14116 0.0662,0.0661 0.12788,0.12132 0.0617,0.0552 0.12534,0.10765 0.0636,0.0525 0.11879,0.0926 0.0552,0.0401 0.1619,0.11634 0.10672,0.0762 0.19369,0.12474 0.087,0.0485 0.17169,0.0916 0.0847,0.0431 0.19089,0.0999 0.10616,0.0567 0.20437,0.10523 0.0982,0.0485 0.1902,0.0777 0.092,0.0292 0.14003,0.0465 0.0481,0.0173 0.17711,0.0445 0.12906,0.0272 0.25848,0.0599 0.12941,0.0328 0.24396,0.0642 0.11456,0.0315 0.20276,0.0518 0.0882,0.0203 0.1846,0.0344 0.0964,0.0141 0.20886,0.028 0.11247,0.0139 0.25771,0.0222 0.14524,0.008 0.29812,0.0132 0.15289,0.005 0.27446,0.007 0.12157,0.003 0.2478,0.004 0.12624,0.002 0.25888,0.004 0.13264,0.002 0.2785,0.003 0.14586,8e-4 0.26232,0.002 0.11646,0.001 0.23749,-0.0126 0.12104,-0.0138 0.26929,-0.0394"
         id="path74269" />
      <path
         style="fill:#222222;fill-opacity:1;stroke-width:1.55198"
         d="m 152.26677,148.1331 q 0.0853,-0.0233 0.21668,-0.0442 0.13134,-0.0209 0.24794,-0.0286 0.1166,-0.008 0.21667,-0.0125 0.10006,-0.005 0.2531,-0.0104 0.15303,-0.006 0.27408,-0.009 0.12105,-0.003 0.25334,-0.003 0.1323,0 0.26459,0 0.13229,0 0.26458,0 0.13229,0 0.26458,0 0.1323,0 0.24885,0.007 0.11655,0.007 0.27289,0.0294 0.15635,0.0225 0.28122,0.0369 0.12488,0.0144 0.20222,0.0322 0.0773,0.0179 0.14748,0.0348 0.0702,0.017 0.21444,0.0432 0.14429,0.0262 0.2273,0.0374 0.083,0.0112 0.24401,0.0191 0.16099,0.008 0.32285,0.0133 0.16187,0.005 0.25708,0.008 0.0952,0.003 0.2275,0.003 0.13229,0 0.26458,0 0.13229,0 0.26458,0 0.1323,0 0.26459,0 0.13229,0 0.26458,0 0.13229,0 0.26458,0 0.1323,0 0.26459,0 0.13229,0 0.26458,0 0.13229,0 0.28031,0.008 0.14801,0.008 0.2621,0.0133 0.11408,0.005 0.2143,0.0306 0.10021,0.0255 0.20946,0.0523 0.10925,0.0269 0.23955,0.0493 0.1303,0.0224 0.2148,0.0361 0.0845,0.0137 0.22598,0.0337 0.14149,0.02 0.21349,0.0211 0.072,0.001 0.22308,0.009 0.15109,0.008 0.26985,0.0176 0.11876,0.009 0.25936,0.0355 0.14059,0.0263 0.2222,0.0406 0.0816,0.0143 0.18666,0.0376 0.10506,0.0233 0.17456,0.0356 0.0695,0.0123 0.22621,0.0381 0.15671,0.0258 0.28714,0.0473 0.13044,0.0215 0.24189,0.037 0.11145,0.0155 0.24697,0.0519 0.13552,0.0363 0.19379,0.0502 0.0583,0.0138 0.13223,0.0284 0.0739,0.0146 0.22864,0.0343 0.15468,0.0197 0.26664,0.0417 0.11197,0.0221 0.25135,0.0415 0.13939,0.0194 0.30725,0.0427 0.16785,0.0233 0.23163,0.0379 0.0638,0.0146 0.13258,0.0451 0.0688,0.0304 0.20692,0.0474 0.13813,0.017 0.26153,0.0405 0.12339,0.0235 0.23366,0.05 0.11029,0.0265 0.2479,0.0561 0.13761,0.0296 0.18653,0.0426 0.0489,0.013 0.16632,0.0424 0.11741,0.0294 0.22217,0.0487 0.10476,0.0194 0.21209,0.0306 0.10733,0.0113 0.26328,0.0379 0.15595,0.0266 0.26309,0.0526 0.10715,0.026 0.22463,0.0597 0.11748,0.0337 0.21357,0.0662 0.0961,0.0325 0.15977,0.0493 0.0637,0.0168 0.18343,0.0529 0.11975,0.0361 0.22262,0.0679 0.10287,0.0318 0.14755,0.0458 0.0447,0.014 0.17748,0.0568 0.1328,0.0428 0.26082,0.0818 0.12801,0.039 0.19996,0.0674 0.0719,0.0284 0.19503,0.0736 0.12309,0.0452 0.19906,0.0684 0.076,0.0232 0.17486,0.0579 0.0989,0.0347 0.19767,0.0691 0.0988,0.0344 0.18264,0.0638 0.0838,0.0294 0.19575,0.0658 0.11191,0.0364 0.21332,0.0693 0.10141,0.0329 0.21332,0.073 0.11191,0.0401 0.22359,0.0828 0.11169,0.0428 0.17956,0.0741 0.0679,0.0313 0.16912,0.0803 0.10125,0.049 0.16697,0.0849 0.0657,0.0358 0.14244,0.0782 0.0767,0.0424 0.18911,0.0985 0.11238,0.0561 0.17688,0.0834 0.0645,0.0273 0.15893,0.0584 0.0944,0.0311 0.20214,0.067 0.1077,0.036 0.24939,0.0861 0.14168,0.0501 0.20229,0.0766 0.0606,0.0265 0.15509,0.0729 0.0945,0.0464 0.20506,0.0977 0.11059,0.0513 0.18399,0.0874 0.0734,0.0361 0.17526,0.0898 0.10187,0.0537 0.18869,0.0943 0.0868,0.0406 0.19159,0.0908 0.10476,0.0502 0.1745,0.0857 0.0697,0.0355 0.16924,0.0802 0.0995,0.0447 0.16467,0.0777 0.0652,0.033 0.15032,0.0745 0.0852,0.0415 0.18191,0.0874 0.0967,0.0459 0.15558,0.0765 0.0588,0.0306 0.1571,0.0991 0.0983,0.0685 0.1992,0.12687 0.10091,0.0584 0.17817,0.11772 0.0773,0.0593 0.14301,0.11489 0.0658,0.0556 0.14725,0.12942 0.0815,0.0739 0.14022,0.12672 0.0587,0.0529 0.11882,0.11198 0.0601,0.0591 0.12625,0.12527 0.0661,0.0661 0.13229,0.13229 0.0662,0.0661 0.1323,0.13229 0.0661,0.0661 0.13229,0.1323 0.0661,0.0661 0.13229,0.13229 0.0661,0.0661 0.13885,0.14621 0.0727,0.0801 0.11873,0.16461 0.046,0.0845 0.0816,0.13881 0.0355,0.0543 0.0759,0.13558 0.0404,0.0813 0.0957,0.20872 0.0553,0.12741 0.0821,0.21459 0.0268,0.0872 0.0389,0.21694 0.0121,0.12977 0.0176,0.28009 0.005,0.15032 -0.004,0.23747 -0.009,0.0871 -0.0284,0.2294 -0.0193,0.14226 -0.0404,0.28422 -0.021,0.14195 -0.036,0.21142 -0.015,0.0695 -0.0365,0.14495 -0.0215,0.0755 -0.0499,0.17453 -0.0284,0.099 -0.0728,0.23281 -0.0444,0.13376 -0.0698,0.20178 -0.0254,0.068 -0.0731,0.1878 -0.0477,0.11978 -0.0845,0.18933 -0.0368,0.0696 -0.10171,0.17482 -0.0649,0.10528 -0.11256,0.17352 -0.0477,0.0682 -0.11753,0.14917 -0.0699,0.0809 -0.12124,0.14545 -0.0514,0.0645 -0.11618,0.13478 -0.0648,0.0703 -0.12247,0.12866 -0.0577,0.0584 -0.10899,0.10412 -0.0513,0.0457 -0.16107,0.12169 -0.10975,0.076 -0.15135,0.10689 -0.0416,0.0309 -0.14446,0.0941 -0.10285,0.0632 -0.18859,0.1018 -0.0857,0.0386 -0.19994,0.0814 -0.11419,0.0428 -0.16291,0.0626 -0.0487,0.0198 -0.19066,0.0362 -0.14194,0.0164 -0.26901,0.0293 -0.12707,0.0129 -0.27311,0.022 -0.14604,0.009 -0.26822,0.0175 -0.12219,0.008 -0.24685,0.0167 -0.12467,0.008 -0.26723,0.0339 -0.14257,0.0256 -0.21827,0.0489 -0.0757,0.0234 -0.19084,0.0517 -0.11514,0.0283 -0.20372,0.0471 -0.0886,0.0189 -0.19033,0.0262 -0.10175,0.007 -0.23712,0.0158 -0.13536,0.008 -0.29364,0.0156 -0.15827,0.007 -0.28027,0.0111 -0.12199,0.004 -0.24858,0.005 -0.12659,9.4e-4 -0.25888,9.4e-4 -0.13229,0 -0.26458,0 -0.13229,0 -0.26458,0 -0.1323,0 -0.26459,0 -0.13229,0 -0.26458,0 -0.13229,0 -0.26458,0 -0.1323,0 -0.26459,0 -0.13229,0 -0.26458,0 -0.13229,0 -0.25755,-0.007 -0.12526,-0.007 -0.25007,-0.0112 -0.12482,-0.004 -0.28898,-0.0334 -0.16416,-0.029 -0.23871,-0.0484 -0.0745,-0.0194 -0.14304,-0.036 -0.0685,-0.0166 -0.22755,-0.0454 -0.15904,-0.0288 -0.26092,-0.0422 -0.10188,-0.0134 -0.19087,-0.0186 -0.089,-0.005 -0.2358,-0.0124 -0.14681,-0.007 -0.28343,-0.009 -0.13662,-10e-4 -0.26891,-10e-4 -0.1323,0 -0.26459,0 -0.13229,0 -0.27178,-8.2e-4 -0.13949,-8.2e-4 -0.24427,-0.0203 -0.10479,-0.0195 -0.23546,-0.0413 -0.13067,-0.0218 -0.22119,-0.0342 -0.0905,-0.0124 -0.18626,-0.0293 -0.0957,-0.0169 -0.20379,-0.032 -0.10805,-0.0151 -0.20411,-0.0256 -0.0961,-0.0104 -0.23563,-0.0207 -0.13958,-0.0103 -0.28502,-0.0288 -0.14545,-0.0185 -0.32466,-0.0433 -0.17921,-0.0247 -0.22546,-0.0359 -0.0462,-0.0111 -0.18919,-0.0494 -0.14294,-0.0383 -0.20438,-0.0506 -0.0614,-0.0123 -0.14339,-0.0274 -0.0819,-0.0151 -0.23222,-0.0527 -0.15028,-0.0376 -0.33038,-0.0818 -0.18009,-0.0442 -0.24628,-0.0611 -0.0662,-0.0169 -0.15707,-0.0411 -0.0909,-0.0242 -0.13865,-0.0315 -0.0478,-0.007 -0.19925,-0.027 -0.15147,-0.0196 -0.26519,-0.0271 -0.11372,-0.007 -0.27576,-0.0147 -0.16203,-0.007 -0.2837,-0.009 -0.12167,-0.002 -0.25356,-0.005 -0.13189,-0.003 -0.27301,-0.0113 -0.14111,-0.008 -0.26997,-0.0162 -0.12885,-0.008 -0.23534,-0.0328 -0.1065,-0.0246 -0.21918,-0.0522 -0.11269,-0.0275 -0.19903,-0.0483 -0.0863,-0.0208 -0.17765,-0.0326 -0.0913,-0.0118 -0.22301,-0.0321 -0.13169,-0.0203 -0.25991,-0.0453 -0.12823,-0.025 -0.25464,-0.0597 -0.12641,-0.0347 -0.18901,-0.0469 -0.0626,-0.0122 -0.13852,-0.0279 -0.0759,-0.0157 -0.23491,-0.0479 -0.15898,-0.0323 -0.26302,-0.0568 -0.10404,-0.0246 -0.23162,-0.0569 -0.12757,-0.0323 -0.23154,-0.0627 -0.10396,-0.0304 -0.16558,-0.0448 -0.0616,-0.0144 -0.17295,-0.0359 -0.11133,-0.0215 -0.23171,-0.0426 -0.12038,-0.0211 -0.23433,-0.0474 -0.11396,-0.0264 -0.23093,-0.0617 -0.11697,-0.0353 -0.17732,-0.0438 -0.0604,-0.009 -0.14741,-0.0245 -0.0871,-0.016 -0.23363,-0.0415 -0.14657,-0.0255 -0.27425,-0.0533 -0.12768,-0.0277 -0.23589,-0.0584 -0.10822,-0.0307 -0.2157,-0.0622 -0.10748,-0.0315 -0.20527,-0.049 -0.0978,-0.0175 -0.21398,-0.0402 -0.1162,-0.0227 -0.21408,-0.0324 -0.0979,-0.01 -0.24891,-0.0264 -0.15104,-0.0167 -0.28937,-0.0328 -0.13833,-0.0162 -0.22749,-0.0338 -0.0892,-0.0177 -0.24766,-0.0626 -0.15851,-0.0449 -0.24066,-0.066 -0.0822,-0.0211 -0.16221,-0.0366 -0.08,-0.0155 -0.19225,-0.0323 -0.1122,-0.0168 -0.19957,-0.0392 -0.0874,-0.0224 -0.1797,-0.0496 -0.0923,-0.0272 -0.23041,-0.0649 -0.13807,-0.0377 -0.18853,-0.0489 -0.0504,-0.0112 -0.24557,-0.0601 -0.19512,-0.0489 -0.30619,-0.0831 -0.11106,-0.0341 -0.19482,-0.0763 -0.0838,-0.0422 -0.15291,-0.0878 -0.0691,-0.0457 -0.12246,-0.0847 -0.0533,-0.0391 -0.11397,-0.10772 -0.0607,-0.0686 -0.0888,-0.15709 -0.0282,-0.0885 -0.0324,-0.14248 -0.004,-0.054 0.0304,-0.0947 0.0347,-0.0407 0.0951,-0.10872 0.0604,-0.068 0.13824,-0.13758 0.0778,-0.0696 0.12729,-0.10585 0.0495,-0.0363 0.1531,-0.0697 0.10363,-0.0335 0.21822,-0.0496 0.11459,-0.0161 0.1916,0.0177 0.077,0.0338 0.14008,0.0549 0.0631,0.0211 0.22343,0.0545 0.16035,0.0333 0.24482,0.0408 0.0845,0.008 0.25838,0.0204 0.17392,0.0129 0.2829,0.0185 0.10898,0.006 0.24812,0.0164 0.13914,0.0108 0.25005,0.0377 0.11091,0.027 0.22123,0.0505 0.11032,0.0234 0.17441,0.0388 0.0641,0.0154 0.17654,0.0347 0.11246,0.0193 0.23955,0.0397 0.12709,0.0203 0.25029,0.0344 0.1232,0.0141 0.26203,0.0161 0.13884,0.002 0.26648,0.003 0.12765,7.9e-4 0.27145,0.005 0.14379,0.004 0.23713,0.0201 0.0933,0.0159 0.28044,0.0379 0.18712,0.022 0.24896,0.0338 0.0618,0.0118 0.15622,0.032 0.0944,0.0202 0.17891,0.034 0.0845,0.0138 0.22656,0.0376 0.14201,0.0238 0.28628,0.0402 0.14426,0.0164 0.26815,0.0353 0.1239,0.0189 0.25367,0.0416 0.12976,0.0227 0.2159,0.0424 0.0861,0.0197 0.16352,0.0354 0.0774,0.0157 0.18078,0.0339 0.1034,0.0182 0.20704,0.0376 0.10365,0.0194 0.23844,0.0319 0.13479,0.0125 0.29078,0.0353 0.156,0.0229 0.28817,0.039 0.13217,0.0161 0.18799,0.037 0.0558,0.0209 0.18963,0.0593 0.13382,0.0384 0.25588,0.0637 0.12207,0.0253 0.21415,0.0334 0.0921,0.008 0.19056,0.0218 0.0985,0.0137 0.2721,0.0379 0.17363,0.0242 0.25426,0.0477 0.0806,0.0234 0.16398,0.0518 0.0834,0.0284 0.17445,0.0403 0.0911,0.0119 0.21143,0.0308 0.12033,0.019 0.24717,0.029 0.12684,0.0101 0.26218,0.0209 0.13534,0.0108 0.26764,0.0108 0.13229,0 0.26458,0 0.13229,0 0.26458,0 0.13229,0 0.26459,0 0.13229,0 0.2488,7.2e-4 0.11651,7.1e-4 0.27855,0.006 0.16202,0.005 0.27074,0.0242 0.10873,0.0191 0.2376,0.0514 0.12887,0.0323 0.18169,0.0472 0.0528,0.0148 0.18841,0.0344 0.13558,0.0195 0.26124,0.0326 0.12565,0.0131 0.22412,0.0236 0.0985,0.0105 0.19996,0.0181 0.10149,0.008 0.28113,0.0134 0.17964,0.006 0.28738,0.009 0.10774,0.003 0.24541,0.004 0.13767,4e-4 0.26997,4e-4 0.13229,0 0.26458,0 0.13229,0 0.26458,0 0.13229,0 0.26459,0 0.13229,0 0.26458,0 0.13229,0 0.26458,0 0.13229,0 0.30435,0.0225 0.17204,0.0225 0.24533,0.034 0.0733,0.0115 0.16223,0.0331 0.0889,0.0215 0.18908,0.0406 0.10015,0.019 0.21228,0.0371 0.11213,0.0181 0.24596,0.0364 0.13382,0.0184 0.24962,0.0278 0.11579,0.009 0.22944,0.0171 0.11364,0.008 0.27173,0.0106 0.15809,0.003 0.28081,0.004 0.12271,0.001 0.25501,0.001 0.13229,0 0.26458,0 0.13229,0 0.28255,0.0177 0.15026,0.0178 0.25798,0.0395 0.10773,0.0217 0.22894,0.0429 0.12122,0.0211 0.20431,0.0383 0.0831,0.0171 0.174,0.0348 0.0909,0.0177 0.21153,0.0325 0.12062,0.0148 0.25768,0.0216 0.13706,0.007 0.26895,0.007 0.13188,4.8e-4 0.23111,-0.02 0.0992,-0.0205 0.16738,-0.0356 0.0681,-0.0151 0.1831,-0.0435 0.11495,-0.0284 0.22762,-0.0694 0.11267,-0.041 0.22887,-0.0715 0.11621,-0.0305 0.19198,-0.0566 0.0758,-0.0261 0.16137,-0.0612 0.0856,-0.0351 0.19608,-0.0887 0.11048,-0.0536 0.16984,-0.0961 0.0594,-0.0425 0.16377,-0.12719 0.10441,-0.0847 0.16711,-0.14162 0.0627,-0.0569 0.12785,-0.10388 0.0652,-0.047 0.12482,-0.13705 0.0597,-0.0901 0.076,-0.21133 0.0163,-0.12128 0.0186,-0.22183 0.002,-0.10055 -0.0174,-0.18789 -0.0197,-0.0873 -0.0592,-0.1761 -0.0394,-0.0888 -0.0977,-0.20072 -0.0582,-0.11196 -0.0826,-0.148 -0.0244,-0.036 -0.0943,-0.11602 -0.0699,-0.08 -0.13581,-0.15362 -0.0659,-0.0736 -0.12846,-0.13654 -0.0625,-0.0629 -0.14482,-0.1485 -0.0823,-0.0856 -0.12047,-0.1239 -0.0382,-0.0383 -0.11889,-0.12023 -0.0807,-0.0819 -0.14684,-0.14808 -0.0662,-0.0661 -0.13229,-0.13229 -0.0661,-0.0661 -0.13229,-0.13229 -0.0661,-0.0661 -0.1323,-0.13229 -0.0661,-0.0661 -0.13229,-0.13229 -0.0661,-0.0661 -0.14038,-0.1272 -0.0743,-0.061 -0.15757,-0.12607 -0.0833,-0.065 -0.13873,-0.10154 -0.0554,-0.0365 -0.16081,-0.0981 -0.10542,-0.0616 -0.1688,-0.0932 -0.0634,-0.0315 -0.17449,-0.0926 -0.11109,-0.0611 -0.2057,-0.1117 -0.0946,-0.0506 -0.18071,-0.097 -0.0861,-0.0464 -0.15474,-0.0768 -0.0686,-0.0304 -0.17169,-0.0693 -0.10304,-0.0389 -0.23232,-0.0896 -0.12929,-0.0507 -0.19031,-0.0691 -0.061,-0.0184 -0.15768,-0.0456 -0.0967,-0.0273 -0.18007,-0.0508 -0.0834,-0.0236 -0.22362,-0.074 -0.1402,-0.0504 -0.23976,-0.0819 -0.0995,-0.0315 -0.18207,-0.0494 -0.0825,-0.0178 -0.17185,-0.0471 -0.0893,-0.0293 -0.21968,-0.0661 -0.13035,-0.0368 -0.21094,-0.0631 -0.0806,-0.0263 -0.16195,-0.0538 -0.0814,-0.0275 -0.18842,-0.0693 -0.10707,-0.0418 -0.24137,-0.0927 -0.1343,-0.0508 -0.20426,-0.0756 -0.07,-0.0248 -0.16355,-0.0474 -0.0936,-0.0226 -0.19875,-0.0476 -0.10515,-0.0249 -0.2222,-0.0521 -0.11706,-0.0271 -0.24093,-0.0576 -0.12387,-0.0304 -0.21373,-0.058 -0.0899,-0.0276 -0.18694,-0.0549 -0.0971,-0.0273 -0.17358,-0.043 -0.0765,-0.0157 -0.20325,-0.0406 -0.12676,-0.0249 -0.23563,-0.0553 -0.10887,-0.0305 -0.22014,-0.0652 -0.11126,-0.0348 -0.2147,-0.0596 -0.10344,-0.0248 -0.18154,-0.0443 -0.0781,-0.0195 -0.22418,-0.0571 -0.14608,-0.0376 -0.26737,-0.0673 -0.12129,-0.0297 -0.23006,-0.0621 -0.10877,-0.0324 -0.1625,-0.0434 -0.0537,-0.011 -0.19865,-0.0402 -0.14492,-0.0292 -0.26327,-0.045 -0.11836,-0.0158 -0.21695,-0.031 -0.0986,-0.0152 -0.22902,-0.0358 -0.13044,-0.0206 -0.23334,-0.052 -0.1029,-0.0314 -0.18408,-0.0595 -0.0812,-0.0281 -0.19123,-0.0509 -0.11005,-0.0228 -0.20716,-0.0349 -0.0971,-0.012 -0.27124,-0.0407 -0.17413,-0.0287 -0.31862,-0.0661 -0.14449,-0.0375 -0.20185,-0.0542 -0.0573,-0.0167 -0.15001,-0.0372 -0.0927,-0.0205 -0.19032,-0.03 -0.0977,-0.009 -0.22855,-0.0301 -0.13089,-0.0206 -0.24537,-0.0476 -0.11448,-0.027 -0.27147,-0.0603 -0.15699,-0.0333 -0.21398,-0.0453 -0.057,-0.012 -0.1276,-0.0258 -0.0706,-0.0138 -0.2023,-0.0326 -0.13171,-0.0188 -0.22437,-0.0309 -0.0927,-0.0121 -0.26743,-0.0322 -0.17477,-0.0201 -0.29833,-0.0257 -0.12355,-0.006 -0.24416,-0.0122 -0.1206,-0.007 -0.25289,-0.007 -0.13229,0 -0.26459,0 -0.13229,0 -0.25391,-0.005 -0.12163,-0.005 -0.27354,-0.0225 -0.1519,-0.0178 -0.27392,-0.0405 -0.12201,-0.0227 -0.21137,-0.0433 -0.0894,-0.0206 -0.16274,-0.0326 -0.0734,-0.012 -0.16385,-0.022 -0.0904,-0.01 -0.22935,-0.0224 -0.1389,-0.0124 -0.27711,-0.0255 -0.13822,-0.013 -0.26421,-0.0254 -0.12599,-0.0124 -0.27086,-0.0143 -0.14486,-0.002 -0.26731,-0.004 -0.12246,-0.002 -0.26079,-0.004 -0.13834,-0.002 -0.26833,-0.003 -0.13,-9.8e-4 -0.26229,-9.8e-4 -0.13229,0 -0.26458,0 -0.13229,0 -0.26459,0 -0.13229,0 -0.26458,0 -0.13229,0 -0.26458,0 -0.13229,0 -0.26459,0 -0.13229,0 -0.26458,0 -0.13229,0 -0.27406,0.008 -0.14176,0.008 -0.24751,0.0217 -0.10575,0.0142 -0.25046,0.0419 -0.14471,0.0277 -0.26379,0.0462 -0.11909,0.0185 -0.17252,0.0266 -0.0534,0.008 -0.1387,0.0273 -0.0853,0.0191 -0.21708,0.0319 -0.13181,0.0128 -0.27527,0.021 -0.14347,0.008 -0.27904,0.0165 -0.13557,0.008 -0.29049,0.0234 -0.15491,0.0152 -0.25843,0.0301 -0.10351,0.0149 -0.24597,0.0322 -0.14245,0.0173 -0.20632,0.0345 -0.0639,0.0172 -0.17467,0.0446 -0.11079,0.0274 -0.18077,0.0397 -0.07,0.0122 -0.21785,0.0268 -0.14787,0.0146 -0.26655,0.0238 -0.11867,0.009 -0.26198,0.016 -0.14331,0.007 -0.25164,0.0192 -0.10832,0.0124 -0.27418,0.0472 -0.16585,0.0348 -0.21327,0.0465 -0.0474,0.0117 -0.16069,0.0428 -0.11329,0.0312 -0.21024,0.0572 -0.097,0.026 -0.2376,0.0562 -0.14065,0.0301 -0.24694,0.0585 -0.10629,0.0284 -0.208,0.0562 -0.10172,0.0279 -0.17746,0.0477 -0.0757,0.0198 -0.14627,0.0372 -0.0705,0.0174 -0.22114,0.0454 -0.15061,0.028 -0.29617,0.0712 -0.14557,0.0432 -0.22734,0.0684 -0.0818,0.0252 -0.18607,0.0586 -0.10429,0.0334 -0.14366,0.0557 -0.0394,0.0222 -0.1574,0.089 -0.11803,0.0667 -0.199,0.13919 -0.081,0.0724 -0.0964,0.10492 -0.0154,0.0325 -0.0297,0.12551 -0.0143,0.093 -0.007,0.15455 0.007,0.0615 0.0578,0.0873 0.0507,0.0258 0.17166,0.0458 0.121,0.02 0.26376,0.04 0.14276,0.02 0.24468,0.0311 0.10192,0.0111 0.23808,0.0279 0.13615,0.0168 0.28387,0.0477 0.14773,0.0309 0.25847,0.0637 0.11075,0.0329 0.18872,0.052 0.078,0.0191 0.14467,0.0461 0.0667,0.0269 0.16852,0.0739 0.10183,0.047 0.20025,0.0974 0.0984,0.0504 0.18045,0.095 0.082,0.0446 0.17067,0.12276 0.0887,0.0781 0.16085,0.13157 0.0722,0.0534 0.11913,0.12028 0.0469,0.0669 0.0824,0.13534 0.0354,0.0685 0.0913,0.18619 0.0559,0.11769 0.0923,0.19069 0.0364,0.073 0.0513,0.1324 0.0149,0.0594 0.0302,0.18564 0.0153,0.12624 0.0318,0.27077 0.0164,0.14454 0.0306,0.28112 0.0141,0.13658 0.0171,0.27087 0.003,0.13429 0.003,0.26658 0,0.13229 0,0.26458 0,0.13229 -0.006,0.26974 -0.006,0.13745 -0.0188,0.26221 -0.0132,0.12475 -0.0587,0.23896 -0.0455,0.1142 -0.0775,0.18963 -0.032,0.0754 -0.0747,0.13914 -0.0427,0.0637 -0.0915,0.13659 -0.0488,0.0729 -0.12381,0.14699 -0.0751,0.0741 -0.13652,0.10869 -0.0615,0.0346 -0.17819,0.0963 -0.11671,0.0617 -0.18666,0.0711 -0.0699,0.009 -0.22322,0.0237 -0.15329,0.0142 -0.28361,0.0252 -0.13032,0.011 -0.24572,0.003 -0.1154,-0.008 -0.25578,-0.0265 -0.14038,-0.0189 -0.28972,-0.0433 -0.14935,-0.0244 -0.23515,-0.0454 -0.0858,-0.0211 -0.17345,-0.0413 -0.0876,-0.0203 -0.18649,-0.0461 -0.0988,-0.0258 -0.23528,-0.0614 -0.13644,-0.0356 -0.19652,-0.0563 -0.0601,-0.0207 -0.15351,-0.0655 -0.0934,-0.0448 -0.16992,-0.0852 -0.0765,-0.0404 -0.17945,-0.0941 -0.10297,-0.0537 -0.18303,-0.0922 -0.0801,-0.0385 -0.1753,-0.0833 -0.0952,-0.0449 -0.20397,-0.0922 -0.10873,-0.0473 -0.18257,-0.0822 -0.0738,-0.0349 -0.16163,-0.0921 -0.0878,-0.0572 -0.12595,-0.0857 -0.0382,-0.0284 -0.13569,-0.10117 -0.0975,-0.0727 -0.18161,-0.14174 -0.0841,-0.069 -0.15004,-0.12003 -0.066,-0.051 -0.0971,-0.11482 -0.0312,-0.0638 -0.10418,-0.17628 -0.073,-0.11247 -0.11234,-0.18583 -0.0393,-0.0734 -0.0818,-0.18339 -0.0425,-0.11001 -0.0639,-0.19836 -0.0214,-0.0883 -0.041,-0.20105 -0.0196,-0.1127 -0.0306,-0.25849 -0.011,-0.14578 -0.0261,-0.26011 -0.0152,-0.11432 -0.0419,-0.23433 -0.0268,-0.12001 -0.0565,-0.20218 -0.0298,-0.0822 -0.0838,-0.15878 -0.0541,-0.0766 -0.1016,-0.16876 -0.0476,-0.0922 -0.086,-0.18107 -0.0385,-0.0889 -0.0495,-0.15311 -0.0111,-0.0642 -0.0219,-0.19295 -0.0109,-0.12875 -0.0247,-0.28304 -0.0139,-0.15428 -0.0188,-0.26922 -0.005,-0.11495 -0.004,-0.24964 0.001,-0.1347 0.0279,-0.27129 0.0268,-0.13659 0.0432,-0.20295 0.0164,-0.0664 0.0768,-0.1426 0.0604,-0.0762 0.13395,-0.16699 0.0735,-0.0907 0.13688,-0.16599 0.0633,-0.0752 0.10772,-0.13693 0.0444,-0.0617 0.11053,-0.12784 0.0662,-0.0661 0.13229,-0.13229 0.0661,-0.0661 0.13229,-0.13229 0.0661,-0.0661 0.14222,-0.13689 0.0761,-0.0708 0.12771,-0.10312 0.0516,-0.0324 0.1376,-0.10076 0.086,-0.0684 0.18952,-0.12968 0.10356,-0.0613 0.20308,-0.1158 0.0995,-0.0545 0.19003,-0.0886 0.0905,-0.0341 0.14861,-0.0514 0.0581,-0.0173 0.17675,-0.0637 0.11864,-0.0464 0.21302,-0.0807 0.0944,-0.0343 0.18823,-0.0669 0.0939,-0.0326 0.17079,-0.054 0.0769,-0.0214 0.19035,-0.0588 0.1134,-0.0374 0.229,-0.0792 0.1156,-0.0418 0.17225,-0.0575 0.0567,-0.0157 0.16415,-0.0462 0.1075,-0.0305 0.22908,-0.058 0.12159,-0.0276 0.28788,-0.0722 0.16629,-0.0446 0.27547,-0.0736 0.10918,-0.029 0.16354,-0.0408 0.0544,-0.0118 0.14939,-0.0345 0.095,-0.0226 0.21001,-0.051 0.11497,-0.0283 0.30073,-0.0649 0.18576,-0.0366 0.23365,-0.0538 0.0479,-0.0172 0.12208,-0.0417 0.0742,-0.0245 0.17854,-0.0426 0.10435,-0.0181 0.2501,-0.0339 0.14575,-0.0158 0.28451,-0.0256 0.13876,-0.01 0.21261,-0.0184 0.0739,-0.009 0.23187,-0.0344 0.15801,-0.0258 0.26056,-0.0588 0.10254,-0.033 0.19667,-0.051 0.0941,-0.018 0.18462,-0.0356 0.0905,-0.0176 0.1896,-0.0389 0.0991,-0.0213 0.24279,-0.0254 0.14368,-0.004 0.28796,-0.0133 0.14427,-0.009 0.2683,-0.0283 0.12402,-0.0191 0.24165,-0.0439 0.11762,-0.0247 0.22527,-0.0504 0.10766,-0.0257 0.193,-0.049 m -5.42085,7.98445 q 0.11664,-0.0131 0.19345,-0.0457 0.0768,-0.0325 0.16147,-0.0766 0.0847,-0.0441 0.11005,-0.0834 0.0254,-0.0393 0.0658,-0.11663 0.0404,-0.0773 0.04,-0.16239 -4.5e-4,-0.0851 -0.0669,-0.0797 -0.0664,0.005 -0.19769,0.0226 -0.13127,0.0172 -0.18637,0.023 -0.0551,0.006 -0.16768,-0.002 -0.11259,-0.008 -0.15096,-0.0372 -0.0384,-0.0297 -0.10262,-0.0817 -0.0643,-0.052 -0.13592,-0.11011 -0.0717,-0.0581 -0.17171,-0.0598 -0.10005,-0.002 -0.17438,0.0186 -0.0743,0.0203 -0.0771,0.082 -0.003,0.0617 0.0206,0.17982 0.0234,0.11816 0.0632,0.19269 0.0398,0.0745 0.0914,0.15996 0.0517,0.0854 0.12892,0.1236 0.0773,0.0382 0.14705,0.0556 0.0698,0.0174 0.1812,0.0139 0.11142,-0.004 0.22805,-0.0167 m -0.71916,-1.868 q 0.0394,0.0284 0.14848,0.002 0.10908,-0.0264 0.18037,-0.0678 0.0713,-0.0413 0.0852,-0.0884 0.0139,-0.047 0.0306,-0.11674 0.0167,-0.0697 0.007,-0.16615 -0.01,-0.0964 -0.0697,-0.18868 -0.0601,-0.0923 -0.10259,-0.1228 -0.0425,-0.0306 -0.15026,-0.0418 -0.10774,-0.0112 -0.15819,-0.009 -0.0504,0.002 -0.10774,0.056 -0.0573,0.0539 -0.12225,0.12348 -0.0649,0.0696 -0.0549,0.13234 0.01,0.0627 0.0227,0.15535 0.0127,0.0926 0.053,0.13743 0.0403,0.0448 0.11961,0.10561 0.0793,0.0608 0.11869,0.0892 m 2.12674,0.81981 q 0.0865,0.0413 0.16516,3.7e-4 0.0786,-0.041 0.12861,-0.083 0.05,-0.042 0.0979,-0.0944 0.048,-0.0524 0.0609,-0.11629 0.013,-0.0639 -0.0122,-0.16602 -0.0252,-0.10208 -0.0804,-0.18795 -0.0552,-0.0859 -0.11203,-0.11453 -0.0568,-0.0287 -0.1134,-0.0403 -0.0566,-0.0116 -0.11647,-10e-4 -0.0599,0.0101 -0.16846,0.0785 -0.1086,0.0684 -0.14376,0.1112 -0.0352,0.0428 -0.0485,0.12072 -0.0133,0.0779 -0.009,0.15592 0.004,0.078 0.086,0.15273 0.0819,0.0747 0.13047,0.10891 0.0486,0.0342 0.13514,0.0755"
         id="path74261" />
    </g>
  </g>
</svg>
