<?xml version="1.0" encoding="UTF-8" standalone="no"?>
<svg
   xmlns:osb="http://www.openswatchbook.org/uri/2009/osb"
   xmlns:dc="http://purl.org/dc/elements/1.1/"
   xmlns:cc="http://creativecommons.org/ns#"
   xmlns:rdf="http://www.w3.org/1999/02/22-rdf-syntax-ns#"
   xmlns:svg="http://www.w3.org/2000/svg"
   xmlns="http://www.w3.org/2000/svg"
   xmlns:sodipodi="http://sodipodi.sourceforge.net/DTD/sodipodi-0.dtd"
   xmlns:inkscape="http://www.inkscape.org/namespaces/inkscape"
   width="200"
   height="200"
   viewBox="0 0 52.916668 52.916666"
   version="1.1"
   id="svg8"
   inkscape:version="1.0.2-2 (e86c870879, 2021-01-15)"
   sodipodi:docname="jannyphobe.svg">
  <defs
     id="defs2">
    <rect
       x="-255.23004"
       y="125.83378"
       width="102.52459"
       height="46.959256"
       id="rect873" />
    <inkscape:path-effect
       effect="envelope"
       id="path-effect4658"
       is_visible="true"
       yy="true"
       xx="true"
       bendpath1="m -199.08406,108.42369 h 7.0057"
       bendpath2="m -192.07836,108.42369 v 6.75242"
       bendpath3="m -199.08406,115.17611 h 7.0057"
       bendpath4="m -199.08406,108.42369 v 6.75242" />
    <inkscape:path-effect
       effect="bend_path"
       id="path-effect4656"
       is_visible="true"
       bendpath="m -192.00142,114.60623 c 2.12577,-0.53066 4.48261,0.85111 7.0057,0"
       prop_scale="1"
       scale_y_rel="false"
       vertical="false"
       bendpath-nodetypes="cc" />
    <inkscape:path-effect
       effect="bounding_box"
       id="path-effect4654"
       is_visible="true"
       linkedpath=""
       visualbounds="false" />
    <linearGradient
       id="linearGradient3288"
       osb:paint="solid">
      <stop
         style="stop-color:#000000;stop-opacity:1;"
         offset="0"
         id="stop3286" />
    </linearGradient>
    <linearGradient
       id="linearGradient1364"
       osb:paint="solid">
      <stop
         style="stop-color:#ffffff;stop-opacity:1;"
         offset="0"
         id="stop1362" />
    </linearGradient>
    <rect
       x="293.80286"
       y="272.58966"
       width="25.455845"
       height="37.830212"
       id="rect1056" />
    <rect
       x="222.73865"
       y="266.22571"
       width="47.376156"
       height="54.09367"
       id="rect1050" />
    <rect
       x="139.30003"
       y="246.42671"
       width="58.336308"
       height="48.790367"
       id="rect1044" />
    <rect
       x="131.1683"
       y="203.64674"
       width="61.871841"
       height="73.892654"
       id="rect1038" />
    <rect
       x="81.67083"
       y="193.04015"
       width="63.63961"
       height="55.507881"
       id="rect1032" />
    <rect
       x="83.085045"
       y="274.35742"
       width="44.194176"
       height="38.890873"
       id="rect1026" />
    <rect
       x="3.5355339"
       y="269.05414"
       width="65.760933"
       height="53.386562"
       id="rect1020" />
    <rect
       x="14.142136"
       y="226.27417"
       width="79.195961"
       height="62.932503"
       id="rect1014" />
    <rect
       x="11.313708"
       y="171.82695"
       width="36.416"
       height="51.618793"
       id="rect1008" />
    <rect
       x="3.1819806"
       y="132.22897"
       width="102.88404"
       height="102.53048"
       id="rect1002" />
  </defs>
  <sodipodi:namedview
     id="base"
     pagecolor="#ffffff"
     bordercolor="#666666"
     borderopacity="1.0"
     inkscape:pageopacity="0.0"
     inkscape:pageshadow="2"
     inkscape:zoom="2.8284271"
     inkscape:cx="118.70178"
     inkscape:cy="89.562403"
     inkscape:document-units="mm"
     inkscape:current-layer="layer3"
     showgrid="false"
     fit-margin-top="0"
     fit-margin-left="0"
     fit-margin-right="0"
     fit-margin-bottom="0"
     inkscape:window-width="1920"
     inkscape:window-height="1017"
     inkscape:window-x="-8"
     inkscape:window-y="-8"
     inkscape:window-maximized="1"
     showguides="false"
     inkscape:object-nodes="true"
     units="px"
     inkscape:snap-page="true"
     inkscape:document-rotation="0" />
  <metadata
     id="metadata5">
    <rdf:RDF>
      <cc:Work
         rdf:about="">
        <dc:format>image/svg+xml</dc:format>
        <dc:type
           rdf:resource="http://purl.org/dc/dcmitype/StillImage" />
        <dc:title />
      </cc:Work>
    </rdf:RDF>
  </metadata>
  <g
     inkscape:label="Layer 1"
     inkscape:groupmode="layer"
     id="layer1"
     transform="translate(249.80447,-91.409467)">
    <rect
       y="91.40947"
       x="-249.80447"
       height="52.916668"
       width="52.916668"
       id="rect5238-5"
       style="fill:#222222;fill-opacity:1;fill-rule:nonzero;stroke:none;stroke-width:0.5;stroke-linecap:butt;stroke-linejoin:round;stroke-miterlimit:4;stroke-dasharray:none;stroke-dashoffset:0;stroke-opacity:0.909449;paint-order:normal"
       rx="3.96875"
       ry="3.96875" />
  </g>
  <g
     inkscape:groupmode="layer"
     id="layer2"
     inkscape:label="Layer 2"
     style="display:inline">
    <path
       id="rect5240-3"
       style="fill:#000000;fill-opacity:1;fill-rule:nonzero;stroke:none;stroke-width:0.5;stroke-linecap:butt;stroke-linejoin:round;stroke-miterlimit:4;stroke-dasharray:none;stroke-dashoffset:0;stroke-opacity:0.909449;paint-order:normal"
       transform="translate(249.80447,-91.409467)"
       d="m -244.5128,94.055298 h 42.33334 c 1.46579,0 2.64583,1.180041 2.64583,2.645833 v 42.333329 c 0,1.4658 -1.18004,2.64584 -2.64583,2.64584 h -42.33334 c -1.46579,0 -2.64583,-1.18004 -2.64583,-2.64584 V 96.701131 c 0,-1.465792 1.18004,-2.645833 2.64583,-2.645833 z" />
    <path
       id="path895"
       style="fill:#ffff00;fill-opacity:1;fill-rule:nonzero;stroke:none;stroke-width:0.5;stroke-linecap:butt;stroke-linejoin:round;stroke-miterlimit:4;stroke-dasharray:none;stroke-dashoffset:0;stroke-opacity:0.909449;paint-order:normal"
       transform="translate(249.80447,-91.409467)"
       d="m -244.5128,94.055298 h 42.33334 c 0.73289,0 1.39435,0.29501 1.87259,0.773244 l -46.85176,33.622588 V 96.701131 c 0,-1.465792 1.18004,-2.645833 2.64583,-2.645833 z"
       sodipodi:nodetypes="ssccss" />
    <g
       id="g1095"
       transform="matrix(0.16113262,0,0,0.16113262,37.877901,19.705534)"
       style="stroke-width:6.20606">
      <g
         id="g898"
         style="mix-blend-mode:normal;stroke-width:6.20606"
         transform="matrix(0.26458333,0,0,0.26458333,-117.90732,-33.555197)">
        <path
           d="M 177.77753,6.7764707 H 298.16472 V 180.42353 H 177.77753 Z"
           style="opacity:1;fill:#047dcf;fill-opacity:1;stroke-width:232.623;stroke-linecap:round;stroke-linejoin:round;paint-order:markers fill stroke"
           id="rect840-0" />
        <path
           sodipodi:nodetypes="ccccc"
           d="m 57.39,180.424 120.38753,-4.6e-4 V 354.0706 C 150.67165,351.46193 73.484118,313.76781 57.39,258.77648 Z"
           style="opacity:1;fill:#047dcf;fill-opacity:1;stroke-width:232.623;stroke-linecap:round;stroke-linejoin:round;paint-order:markers fill stroke"
           id="rect840-3" />
        <path
           d="M 57.390335,6.7764707 H 177.77753 V 180.42353 H 57.390335 Z"
           style="fill:#d7d1d4;fill-opacity:1;stroke-width:232.623;stroke-linecap:round;stroke-linejoin:round;paint-order:markers fill stroke"
           id="rect840" />
        <path
           id="path892"
           style="opacity:1;fill:#d7d1d4;fill-opacity:1;stroke-width:232.623;stroke-linecap:round;stroke-linejoin:round;paint-order:markers fill stroke"
           d="m 298.16506,180.424 -120.38753,-4.6e-4 V 354.0706 c 27.10588,-2.60867 104.29341,-40.30279 120.38753,-95.29412 z"
           sodipodi:nodetypes="ccccc" />
      </g>
      <path
         id="rect900"
         style="display:inline;mix-blend-mode:normal;fill:#d91315;fill-opacity:1;stroke-width:62.0606;stroke-linecap:round;stroke-linejoin:round;paint-order:markers fill stroke"
         d="m -93.254379,-31.76238 54.184531,60.781257 v 5.939118 c -1.344706,5.976255 -8.072324,12.449307 -8.072324,12.449307 L -102.72341,-14.841374 V -31.76238 Z"
         sodipodi:nodetypes="ccccccc" />
      <ellipse
         ry="0.15945871"
         rx="0.16536458"
         cy="-18.896837"
         cx="-57.254028"
         id="path939"
         style="mix-blend-mode:normal;fill:#000000;fill-opacity:1;stroke-width:62.0606;stroke-linecap:round;stroke-linejoin:round;paint-order:markers fill stroke" />
      <ellipse
         style="mix-blend-mode:normal;fill:#000000;fill-opacity:1;stroke-width:62.0606;stroke-linecap:round;stroke-linejoin:round;paint-order:markers fill stroke"
         id="path939-6"
         cx="-52.836441"
         cy="-19.056292"
         rx="0.16536458"
         ry="0.15945871" />
    </g>
  </g>
  <g
     inkscape:groupmode="layer"
     id="layer3"
     inkscape:label="Layer 3"
     style="display:inline">
    <path
       inkscape:connector-curvature="0"
       id="path5244-6"
       d="m -248.34926,128.45114 v 8.33437 c 0,3.07816 2.47808,5.55625 5.55625,5.55625 h 38.89375 c 3.07816,0 5.55625,-2.47809 5.55625,-5.55625 v -8.33437 z"
       style="fill:#222222;fill-opacity:1;fill-rule:nonzero;stroke:none;stroke-width:0.5;stroke-linecap:butt;stroke-linejoin:round;stroke-miterlimit:4;stroke-dasharray:none;stroke-dashoffset:0;stroke-opacity:0.909449;paint-order:normal"
       transform="translate(249.80447,-91.409467)" />
    <g
       id="g156553"
       transform="matrix(1.1637245,0,0,1.1637245,-69.665091,-139.48216)"
       style="fill:#222222;fill-opacity:1;stroke-width:0.85931">
      <path
         id="path156540"
         style="fill:#222222;fill-opacity:1;stroke-width:0.85931"
         d="m 90.444626,147.8288 c 0.658249,-0.30801 0.900667,2.26265 0.263975,1.30296 -0.167031,-0.42901 -0.378091,-0.7925 -0.264027,-1.30304" />
      <path
         id="path156538"
         style="fill:#222222;fill-opacity:1;stroke-width:0.85931"
         d="m 75.084948,135.68449 c 1.313207,-0.51926 2.034595,1.08885 2.868894,1.76561 1.229956,-0.15454 2.765766,0.43466 3.78487,-0.4813 0.484269,-0.88415 2.170957,-2.09941 2.774552,-0.80722 -0.212352,0.79495 -1.308763,1.27054 -1.210034,2.3955 -0.194408,1.08781 -1.050787,3.6578 0.911571,3.26133 1.632646,0.21514 3.189078,-0.90166 4.811711,-0.316 1.486557,0.25586 2.815751,1.07277 3.931381,2.03125 0.625929,-0.7467 1.734695,-0.66835 1.415708,0.55611 0.185119,1.18282 -1.526431,1.38012 -0.767974,2.64022 0.162864,1.06827 1.368814,3.41423 -0.4077,3.53204 -1.479957,0.24061 -2.909255,-0.34113 -4.393754,-0.2135 -1.227476,0.26624 -2.272573,-0.49445 -1.159387,-1.51557 0.131802,-1.21937 -1.202766,-2.21215 -2.371937,-1.92093 -2.067713,-0.33409 -0.535463,2.57517 -1.628215,3.12668 -0.995759,-0.15269 -3.163573,0.66579 -3.206746,-0.90752 0.864596,-0.76172 -0.311257,-2.9215 -1.149089,-1.61188 -0.374119,0.88381 0.534942,2.68297 -1.207185,2.27972 -0.837338,-0.12044 -2.33878,0.44325 -2.661115,-0.63751 -0.03463,-1.4028 1.630985,-2.01266 1.41656,-3.54562 0.647739,-1.33012 0.102914,-2.56162 -0.621572,-3.68402 -0.111376,-1.43688 0.472872,-2.9402 -0.21034,-4.33638 -0.08506,-0.77136 -2.164248,-0.81019 -0.920144,-1.6102" />
      <path
         id="path156534"
         style="fill:#222222;fill-opacity:1;stroke-width:0.85931"
         d="m 82.744222,127.13031 c 1.967048,-0.33257 3.823551,0.64813 5.669157,1.1807 1.588157,0.45601 2.813098,1.62245 4.22522,2.41677 1.205601,1.00937 2.635251,1.91634 3.230789,3.44919 1.151505,2.27604 2.02816,4.76037 1.964958,7.34415 -0.02034,1.80718 0.04481,3.61784 -0.04092,5.42238 -0.358867,1.59117 -0.622024,3.209 -1.08927,4.77052 -0.02778,0.71313 -0.749476,0.38047 -1.199918,0.45432 -1.146479,0.28105 -0.178873,-1.24733 -0.193671,-1.82749 0.316111,-1.84429 1.075922,-3.63247 0.9347,-5.53473 -0.03883,-1.74097 0.136639,-3.50303 -0.25587,-5.21123 -0.359627,-1.83544 -1.088621,-3.57601 -2.043127,-5.18181 -0.830945,-1.01266 -1.884717,-1.76997 -2.918649,-2.55057 -1.270433,-0.76506 -2.418263,-1.7727 -3.870445,-2.19715 -1.354424,-0.51741 -2.783678,-1.16867 -4.259581,-0.8351 -2.312461,0.01 -4.331493,1.26529 -6.420047,2.0853 -1.100822,0.54785 -2.183837,1.15365 -3.139833,1.92919 -0.910158,0.76061 -1.787771,1.56081 -2.368154,2.61799 -0.974651,1.95847 -1.606785,4.08746 -1.964233,6.23787 -0.02209,1.47665 -0.130959,2.97523 0.0709,4.43969 0.370083,1.32381 0.525343,2.7129 0.99567,3.99985 -0.02485,0.56797 1.337473,2.19673 0.272015,2.02828 -0.454088,-0.0428 -1.022209,0.0857 -1.404668,-0.0646 -0.561074,-1.25473 -0.884427,-2.5757 -1.17735,-3.91334 -0.586249,-1.80614 -0.327199,-3.71608 -0.38474,-5.58202 -0.128564,-2.08699 0.50834,-4.11147 1.18923,-6.05834 0.532981,-1.25979 0.999789,-2.5866 1.914158,-3.62849 0.811642,-0.85077 1.741301,-1.64098 2.75847,-2.25974 1.916967,-1.21756 4.049898,-2.02173 6.136054,-2.89314 1.072583,-0.48745 2.236981,-0.43741 3.369204,-0.6381" />
    </g>
    <g
       aria-label="JANNYPHOBE"
       id="text1099"
       style="font-weight:bold;font-size:6.35px;line-height:1.25;font-family:Montserrat;-inkscape-font-specification:'Montserrat Bold';fill:#eeeeee;fill-opacity:1;stroke-width:0.264583">
      <path
         d="m 4.5477044,46.285684 q -0.4508499,0 -0.8318499,-0.1651 -0.37465,-0.17145 -0.61595,-0.4826 l 0.5715,-0.6858 q 0.36195,0.48895 0.8254999,0.48895 0.62865,0 0.62865,-0.7366 v -2.11455 H 3.5634545 v -0.8255 h 2.5844499 v 2.8829 q 0,0.81915 -0.4064,1.2319 -0.4064,0.4064 -1.1938,0.4064 z"
         style="font-size:6.35px;fill:#eeeeee;fill-opacity:1;stroke-width:0.264583"
         id="path1101" />
      <path
         d="M 9.9959863,45.256984 H 7.9322364 l -0.3937,0.9525 h -1.0541 l 1.9812,-4.445 h 1.016 l 1.9875496,4.445 h -1.0795 z m -0.3238499,-0.78105 -0.70485,-1.7018 -0.70485,1.7018 z"
         style="font-size:6.35px;fill:#eeeeee;fill-opacity:1;stroke-width:0.264583"
         id="path1103" />
      <path
         d="m 16.009428,41.764484 v 4.445 h -0.84455 l -2.21615,-2.69875 v 2.69875 h -1.015999 v -4.445 h 0.850899 l 2.2098,2.69875 v -2.69875 z"
         style="font-size:6.35px;fill:#eeeeee;fill-opacity:1;stroke-width:0.264583"
         id="path1105" />
      <path
         d="m 21.14022,41.764484 v 4.445 h -0.84455 l -2.21615,-2.69875 v 2.69875 h -1.016 v -4.445 h 0.8509 l 2.2098,2.69875 v -2.69875 z"
         style="font-size:6.35px;fill:#eeeeee;fill-opacity:1;stroke-width:0.264583"
         id="path1107" />
      <path
         d="m 24.327912,44.634684 v 1.5748 h -1.0287 v -1.5875 l -1.72085,-2.8575 h 1.0922 l 1.18745,1.97485 1.18745,-1.97485 h 1.00965 z"
         style="font-size:6.35px;fill:#eeeeee;fill-opacity:1;stroke-width:0.264583"
         id="path1109" />
      <path
         d="m 28.366491,41.764484 q 0.59055,0 1.02235,0.19685 0.43815,0.19685 0.6731,0.5588 0.23495,0.36195 0.23495,0.85725 0,0.48895 -0.23495,0.85725 -0.23495,0.36195 -0.6731,0.5588 -0.4318,0.1905 -1.02235,0.1905 h -0.89535 v 1.22555 h -1.0287 v -4.445 z m -0.05715,2.38125 q 0.46355,0 0.70485,-0.19685 0.2413,-0.2032 0.2413,-0.5715 0,-0.37465 -0.2413,-0.5715 -0.2413,-0.2032 -0.70485,-0.2032 h -0.8382 v 1.54305 z"
         style="font-size:6.35px;fill:#eeeeee;fill-opacity:1;stroke-width:0.264583"
         id="path1111" />
      <path
         d="m 35.103829,41.764484 v 4.445 h -1.0287 v -1.82245 h -2.0193 v 1.82245 h -1.0287 v -4.445 h 1.0287 v 1.7526 h 2.0193 v -1.7526 z"
         style="font-size:6.35px;fill:#eeeeee;fill-opacity:1;stroke-width:0.264583"
         id="path1113" />
      <path
         d="m 38.310571,46.285684 q -0.692149,0 -1.250949,-0.29845 -0.55245,-0.29845 -0.86995,-0.81915 -0.31115,-0.52705 -0.31115,-1.1811 0,-0.65405 0.31115,-1.17475 0.3175,-0.52705 0.86995,-0.8255 0.5588,-0.29845 1.250949,-0.29845 0.69215,0 1.2446,0.29845 0.55245,0.29845 0.86995,0.8255 0.3175,0.5207 0.3175,1.17475 0,0.65405 -0.3175,1.1811 -0.3175,0.5207 -0.86995,0.81915 -0.55245,0.29845 -1.2446,0.29845 z m 0,-0.8763 q 0.3937,0 0.7112,-0.1778 0.3175,-0.18415 0.4953,-0.508 0.18415,-0.32385 0.18415,-0.7366 0,-0.41275 -0.18415,-0.7366 -0.1778,-0.32385 -0.4953,-0.50165 -0.3175,-0.18415 -0.7112,-0.18415 -0.393699,0 -0.711199,0.18415 -0.3175,0.1778 -0.50165,0.50165 -0.1778,0.32385 -0.1778,0.7366 0,0.41275 0.1778,0.7366 0.18415,0.32385 0.50165,0.508 0.3175,0.1778 0.711199,0.1778 z"
         style="font-size:6.35px;fill:#eeeeee;fill-opacity:1;stroke-width:0.264583"
         id="path1115" />
      <path
         d="m 44.781219,43.898084 q 0.381,0.12065 0.5969,0.4064 0.2159,0.2794 0.2159,0.69215 0,0.5842 -0.4572,0.9017 -0.45085,0.31115 -1.3208,0.31115 h -2.2987 v -4.445 h 2.1717 q 0.8128,0 1.2446,0.31115 0.43815,0.31115 0.43815,0.84455 0,0.32385 -0.15875,0.57785 -0.1524,0.254 -0.4318,0.40005 z m -2.24155,-1.3589 v 1.04775 h 1.02235 q 0.381,0 0.57785,-0.13335 0.19685,-0.13335 0.19685,-0.3937 0,-0.26035 -0.19685,-0.38735 -0.19685,-0.13335 -0.57785,-0.13335 z m 1.20015,2.8956 q 0.4064,0 0.6096,-0.13335 0.20955,-0.13335 0.20955,-0.41275 0,-0.55245 -0.81915,-0.55245 h -1.20015 v 1.09855 z"
         style="font-size:6.35px;fill:#eeeeee;fill-opacity:1;stroke-width:0.264583"
         id="path1117" />
      <path
         d="m 49.816765,45.383984 v 0.8255 h -3.441699 v -4.445 h 3.359149 v 0.8255 h -2.336799 v 0.9652 h 2.063749 v 0.8001 h -2.063749 v 1.0287 z"
         style="font-size:6.35px;fill:#eeeeee;fill-opacity:1;stroke-width:0.264583"
         id="path1119" />
    </g>
  </g>
</svg>
