<?xml version="1.0" encoding="UTF-8" standalone="no"?>
<svg
   xmlns:osb="http://www.openswatchbook.org/uri/2009/osb"
   xmlns:dc="http://purl.org/dc/elements/1.1/"
   xmlns:cc="http://creativecommons.org/ns#"
   xmlns:rdf="http://www.w3.org/1999/02/22-rdf-syntax-ns#"
   xmlns:svg="http://www.w3.org/2000/svg"
   xmlns="http://www.w3.org/2000/svg"
   xmlns:sodipodi="http://sodipodi.sourceforge.net/DTD/sodipodi-0.dtd"
   xmlns:inkscape="http://www.inkscape.org/namespaces/inkscape"
   width="200"
   height="200"
   viewBox="0 0 52.916668 52.916666"
   version="1.1"
   id="svg8"
   inkscape:version="1.0.2-2 (e86c870879, 2021-01-15)"
   sodipodi:docname="jannyphobe.svg">
  <defs
     id="defs2">
    <rect
       x="-255.23004"
       y="125.83378"
       width="102.52459"
       height="46.959256"
       id="rect873" />
    <inkscape:path-effect
       effect="envelope"
       id="path-effect4658"
       is_visible="true"
       yy="true"
       xx="true"
       bendpath1="m -199.08406,108.42369 h 7.0057"
       bendpath2="m -192.07836,108.42369 v 6.75242"
       bendpath3="m -199.08406,115.17611 h 7.0057"
       bendpath4="m -199.08406,108.42369 v 6.75242" />
    <inkscape:path-effect
       effect="bend_path"
       id="path-effect4656"
       is_visible="true"
       bendpath="m -192.00142,114.60623 c 2.12577,-0.53066 4.48261,0.85111 7.0057,0"
       prop_scale="1"
       scale_y_rel="false"
       vertical="false"
       bendpath-nodetypes="cc" />
    <inkscape:path-effect
       effect="bounding_box"
       id="path-effect4654"
       is_visible="true"
       linkedpath=""
       visualbounds="false" />
    <linearGradient
       id="linearGradient3288"
       osb:paint="solid">
      <stop
         style="stop-color:#000000;stop-opacity:1;"
         offset="0"
         id="stop3286" />
    </linearGradient>
    <linearGradient
       id="linearGradient1364"
       osb:paint="solid">
      <stop
         style="stop-color:#ffffff;stop-opacity:1;"
         offset="0"
         id="stop1362" />
    </linearGradient>
    <rect
       x="293.80286"
       y="272.58966"
       width="25.455845"
       height="37.830212"
       id="rect1056" />
    <rect
       x="222.73865"
       y="266.22571"
       width="47.376156"
       height="54.09367"
       id="rect1050" />
    <rect
       x="139.30003"
       y="246.42671"
       width="58.336308"
       height="48.790367"
       id="rect1044" />
    <rect
       x="131.1683"
       y="203.64674"
       width="61.871841"
       height="73.892654"
       id="rect1038" />
    <rect
       x="81.67083"
       y="193.04015"
       width="63.63961"
       height="55.507881"
       id="rect1032" />
    <rect
       x="83.085045"
       y="274.35742"
       width="44.194176"
       height="38.890873"
       id="rect1026" />
    <rect
       x="3.5355339"
       y="269.05414"
       width="65.760933"
       height="53.386562"
       id="rect1020" />
    <rect
       x="14.142136"
       y="226.27417"
       width="79.195961"
       height="62.932503"
       id="rect1014" />
    <rect
       x="11.313708"
       y="171.82695"
       width="36.416"
       height="51.618793"
       id="rect1008" />
    <rect
       x="3.1819806"
       y="132.22897"
       width="102.88404"
       height="102.53048"
       id="rect1002" />
  </defs>
  <sodipodi:namedview
     id="base"
     pagecolor="#ffffff"
     bordercolor="#666666"
     borderopacity="1.0"
     inkscape:pageopacity="0.0"
     inkscape:pageshadow="2"
     inkscape:zoom="2.8284271"
     inkscape:cx="14.201457"
     inkscape:cy="96.853278"
     inkscape:document-units="mm"
     inkscape:current-layer="layer3"
     showgrid="false"
     fit-margin-top="0"
     fit-margin-left="0"
     fit-margin-right="0"
     fit-margin-bottom="0"
     inkscape:window-width="1920"
     inkscape:window-height="1017"
     inkscape:window-x="-8"
     inkscape:window-y="-8"
     inkscape:window-maximized="1"
     showguides="false"
     inkscape:object-nodes="true"
     units="px"
     inkscape:snap-page="true"
     inkscape:document-rotation="0" />
  <metadata
     id="metadata5">
    <rdf:RDF>
      <cc:Work
         rdf:about="">
        <dc:format>image/svg+xml</dc:format>
        <dc:type
           rdf:resource="http://purl.org/dc/dcmitype/StillImage" />
        <dc:title />
      </cc:Work>
    </rdf:RDF>
  </metadata>
  <g
     inkscape:label="Layer 1"
     inkscape:groupmode="layer"
     id="layer1"
     transform="translate(249.80447,-91.409467)">
    <rect
       y="91.40947"
       x="-249.80447"
       height="52.916668"
       width="52.916668"
       id="rect5238-5"
       style="fill:#222222;fill-opacity:1;fill-rule:nonzero;stroke:none;stroke-width:0.5;stroke-linecap:butt;stroke-linejoin:round;stroke-miterlimit:4;stroke-dasharray:none;stroke-dashoffset:0;stroke-opacity:0.909449;paint-order:normal"
       rx="3.96875"
       ry="3.96875" />
  </g>
  <g
     inkscape:groupmode="layer"
     id="layer2"
     inkscape:label="Layer 2"
     style="display:inline">
    <path
       id="rect5240-3"
       style="fill:#ad39df;fill-opacity:1;fill-rule:nonzero;stroke:none;stroke-width:0.5;stroke-linecap:butt;stroke-linejoin:round;stroke-miterlimit:4;stroke-dasharray:none;stroke-dashoffset:0;stroke-opacity:0.909449;paint-order:normal"
       transform="translate(249.80447,-91.409467)"
       d="m -244.5128,94.055298 h 42.33334 c 1.46579,0 2.64583,1.180041 2.64583,2.645833 v 42.333329 c 0,1.4658 -1.18004,2.64584 -2.64583,2.64584 h -42.33334 c -1.46579,0 -2.64583,-1.18004 -2.64583,-2.64584 V 96.701131 c 0,-1.465792 1.18004,-2.645833 2.64583,-2.645833 z" />
    <path
       id="path895"
       style="fill:#ffff00;fill-opacity:1;fill-rule:nonzero;stroke:none;stroke-width:0.5;stroke-linecap:butt;stroke-linejoin:round;stroke-miterlimit:4;stroke-dasharray:none;stroke-dashoffset:0;stroke-opacity:0.909449;paint-order:normal"
       transform="translate(249.80447,-91.409467)"
       d="m -244.5128,94.055298 h 42.33334 c 0.73289,0 1.39435,0.29501 1.87259,0.773244 l -46.85176,33.622588 V 96.701131 c 0,-1.465792 1.18004,-2.645833 2.64583,-2.645833 z"
       sodipodi:nodetypes="ssccss" />
    <rect
       style="fill:#ffff00;fill-opacity:1;stroke:none;stroke-width:1.265;stroke-linecap:round;paint-order:stroke fill markers"
       id="rect908"
       width="8.598958"
       height="7.2760415"
       x="15.345833"
       y="23.746353" />
  </g>
  <g
     inkscape:groupmode="layer"
     id="layer3"
     inkscape:label="Layer 3"
     style="display:inline">
    <path
       inkscape:connector-curvature="0"
       id="path5244-6"
       d="m -248.34926,128.45114 v 8.33437 c 0,3.07816 2.47808,5.55625 5.55625,5.55625 h 38.89375 c 3.07816,0 5.55625,-2.47809 5.55625,-5.55625 v -8.33437 z"
       style="fill:#222222;fill-opacity:1;fill-rule:nonzero;stroke:none;stroke-width:0.5;stroke-linecap:butt;stroke-linejoin:round;stroke-miterlimit:4;stroke-dasharray:none;stroke-dashoffset:0;stroke-opacity:0.909449;paint-order:normal"
       transform="translate(249.80447,-91.409467)" />
    <g
       aria-label="JANNYPHOBE"
       id="text1099"
       style="font-weight:bold;font-size:6.35px;line-height:1.25;font-family:Montserrat;-inkscape-font-specification:'Montserrat Bold';fill:#eeeeee;fill-opacity:1;stroke-width:0.264583">
      <path
         d="m 4.5477044,46.285684 q -0.4508499,0 -0.8318499,-0.1651 -0.37465,-0.17145 -0.61595,-0.4826 l 0.5715,-0.6858 q 0.36195,0.48895 0.8254999,0.48895 0.62865,0 0.62865,-0.7366 v -2.11455 H 3.5634545 v -0.8255 h 2.5844499 v 2.8829 q 0,0.81915 -0.4064,1.2319 -0.4064,0.4064 -1.1938,0.4064 z"
         style="font-size:6.35px;fill:#ffff00;fill-opacity:1;stroke-width:0.264583"
         id="path1101" />
      <path
         d="M 9.9959863,45.256984 H 7.9322364 l -0.3937,0.9525 h -1.0541 l 1.9812,-4.445 h 1.016 l 1.9875496,4.445 h -1.0795 z m -0.3238499,-0.78105 -0.70485,-1.7018 -0.70485,1.7018 z"
         style="font-size:6.35px;fill:#ffff00;fill-opacity:1;stroke-width:0.264583"
         id="path1103" />
      <path
         d="m 16.009428,41.764484 v 4.445 h -0.84455 l -2.21615,-2.69875 v 2.69875 h -1.015999 v -4.445 h 0.850899 l 2.2098,2.69875 v -2.69875 z"
         style="font-size:6.35px;fill:#ffff00;fill-opacity:1;stroke-width:0.264583"
         id="path1105" />
      <path
         d="m 21.14022,41.764484 v 4.445 h -0.84455 l -2.21615,-2.69875 v 2.69875 h -1.016 v -4.445 h 0.8509 l 2.2098,2.69875 v -2.69875 z"
         style="font-size:6.35px;fill:#ffff00;fill-opacity:1;stroke-width:0.264583"
         id="path1107" />
      <path
         d="m 24.327912,44.634684 v 1.5748 h -1.0287 v -1.5875 l -1.72085,-2.8575 h 1.0922 l 1.18745,1.97485 1.18745,-1.97485 h 1.00965 z"
         style="font-size:6.35px;fill:#ffff00;fill-opacity:1;stroke-width:0.264583"
         id="path1109" />
      <path
         d="m 28.366491,41.764484 q 0.59055,0 1.02235,0.19685 0.43815,0.19685 0.6731,0.5588 0.23495,0.36195 0.23495,0.85725 0,0.48895 -0.23495,0.85725 -0.23495,0.36195 -0.6731,0.5588 -0.4318,0.1905 -1.02235,0.1905 h -0.89535 v 1.22555 h -1.0287 v -4.445 z m -0.05715,2.38125 q 0.46355,0 0.70485,-0.19685 0.2413,-0.2032 0.2413,-0.5715 0,-0.37465 -0.2413,-0.5715 -0.2413,-0.2032 -0.70485,-0.2032 h -0.8382 v 1.54305 z"
         style="font-size:6.35px;fill:#ad39df;fill-opacity:1;stroke-width:0.264583"
         id="path1111" />
      <path
         d="m 35.103829,41.764484 v 4.445 h -1.0287 v -1.82245 h -2.0193 v 1.82245 h -1.0287 v -4.445 h 1.0287 v 1.7526 h 2.0193 v -1.7526 z"
         style="font-size:6.35px;fill:#ad39df;fill-opacity:1;stroke-width:0.264583"
         id="path1113" />
      <path
         d="m 38.310571,46.285684 q -0.692149,0 -1.250949,-0.29845 -0.55245,-0.29845 -0.86995,-0.81915 -0.31115,-0.52705 -0.31115,-1.1811 0,-0.65405 0.31115,-1.17475 0.3175,-0.52705 0.86995,-0.8255 0.5588,-0.29845 1.250949,-0.29845 0.69215,0 1.2446,0.29845 0.55245,0.29845 0.86995,0.8255 0.3175,0.5207 0.3175,1.17475 0,0.65405 -0.3175,1.1811 -0.3175,0.5207 -0.86995,0.81915 -0.55245,0.29845 -1.2446,0.29845 z m 0,-0.8763 q 0.3937,0 0.7112,-0.1778 0.3175,-0.18415 0.4953,-0.508 0.18415,-0.32385 0.18415,-0.7366 0,-0.41275 -0.18415,-0.7366 -0.1778,-0.32385 -0.4953,-0.50165 -0.3175,-0.18415 -0.7112,-0.18415 -0.393699,0 -0.711199,0.18415 -0.3175,0.1778 -0.50165,0.50165 -0.1778,0.32385 -0.1778,0.7366 0,0.41275 0.1778,0.7366 0.18415,0.32385 0.50165,0.508 0.3175,0.1778 0.711199,0.1778 z"
         style="font-size:6.35px;fill:#ad39df;fill-opacity:1;stroke-width:0.264583"
         id="path1115" />
      <path
         d="m 44.781219,43.898084 q 0.381,0.12065 0.5969,0.4064 0.2159,0.2794 0.2159,0.69215 0,0.5842 -0.4572,0.9017 -0.45085,0.31115 -1.3208,0.31115 h -2.2987 v -4.445 h 2.1717 q 0.8128,0 1.2446,0.31115 0.43815,0.31115 0.43815,0.84455 0,0.32385 -0.15875,0.57785 -0.1524,0.254 -0.4318,0.40005 z m -2.24155,-1.3589 v 1.04775 h 1.02235 q 0.381,0 0.57785,-0.13335 0.19685,-0.13335 0.19685,-0.3937 0,-0.26035 -0.19685,-0.38735 -0.19685,-0.13335 -0.57785,-0.13335 z m 1.20015,2.8956 q 0.4064,0 0.6096,-0.13335 0.20955,-0.13335 0.20955,-0.41275 0,-0.55245 -0.81915,-0.55245 h -1.20015 v 1.09855 z"
         style="font-size:6.35px;fill:#ad39df;fill-opacity:1;stroke-width:0.264583"
         id="path1117" />
      <path
         d="m 49.816765,45.383984 v 0.8255 h -3.441699 v -4.445 h 3.359149 v 0.8255 h -2.336799 v 0.9652 h 2.063749 v 0.8001 h -2.063749 v 1.0287 z"
         style="font-size:6.35px;fill:#ad39df;fill-opacity:1;stroke-width:0.264583"
         id="path1119" />
    </g>
    <path
       style="display:inline;fill:#222222;fill-opacity:1;stroke-width:1"
       d="m 13.89509,6.493672 q 0.144032,-0.042456 0.217372,-0.053777 0.07334,-0.011321 0.167783,-0.023309 0.09442,-0.011988 0.176748,-0.014817 0.08233,-0.0025 0.21515,-0.00899 0.132828,-0.00583 0.251146,-0.011572 0.11831,-0.00583 0.210521,-0.00666 0.09222,-8.325e-4 0.20412,-8.325e-4 0.111908,-1.415e-4 0.221235,-2.58e-4 0.109336,-1.166e-4 0.230276,-1.582e-4 0.12094,-3.33e-5 0.231066,-3.33e-5 0.110127,0 0.220253,0 0.110127,0 0.220253,0 0.110135,0 0.220261,0 0.110127,0 0.220253,0 0.110127,0 0.220253,0 0.110135,0 0.220261,0 0.110127,0 0.220253,0 0.110127,0 0.220254,0 0.110134,0 0.220261,0 0.110128,0 0.215916,0.00833 0.10579,0.00833 0.210106,0.016066 0.104316,0.00833 0.18414,0.02231 0.07984,0.014152 0.207858,0.047783 0.128024,0.033632 0.184165,0.060186 0.0561,0.026556 0.126177,0.06385 0.07001,0.037295 0.157344,0.083895 0.08731,0.046534 0.1279,0.077586 0.04062,0.030968 0.10444,0.078252 0.06386,0.047284 0.12884,0.1072544 0.06501,0.060021 0.126568,0.1185427 0.0616,0.058522 0.107679,0.1004283 0.04612,0.041873 0.101169,0.096949 0.05503,0.055026 0.102801,0.1233872 0.0477,0.068345 0.07609,0.1081459 0.02831,0.039876 0.07575,0.1112751 0.04745,0.071424 0.09342,0.1512829 0.04595,0.079828 0.08957,0.1567361 0.04362,0.076919 0.09179,0.1717534 0.0482,0.094851 0.07725,0.1486785 0.02906,0.05386 0.04612,0.090988 0.01706,0.037214 0.06327,0.1343093 0.04621,0.097131 0.09378,0.1934811 0.04753,0.096358 0.07101,0.1448814 0.02339,0.04854 0.07292,0.145206 0.04953,0.09668 0.07808,0.151875 0.02856,0.0552 0.0532,0.128657 0.02464,0.07351 0.05685,0.164403 0.03222,0.09095 0.06885,0.197484 0.03654,0.106548 0.05377,0.157328 0.01723,0.05078 0.03005,0.09908 0.0129,0.04828 0.04154,0.158052 0.02864,0.1097517 0.05403,0.2173797 0.02539,0.10763 0.04887,0.205394 0.02348,0.09776 0.05012,0.179288 0.02664,0.0815 0.04695,0.143633 0.02031,0.0621 0.05377,0.163296 0.03346,0.101185 0.05902,0.21371 0.02556,0.112524 0.04945,0.193348 0.02398,0.08083 0.05328,0.177848 0.0293,0.09702 0.04895,0.176215 0.01965,0.07916 0.04113,0.171055 0.02156,0.09185 0.04162,0.173151 0.02007,0.08133 0.05161,0.175692 0.03155,0.09439 0.05269,0.161181 0.02115,0.06676 0.03663,0.154014 0.01548,0.08723 0.02856,0.180902 0.01307,0.09369 0.03372,0.185805 0.02064,0.09212 0.05428,0.21734 0.03363,0.125227 0.04762,0.183725 0.01398,0.05852 0.06776,0.06419 0.05378,0.0059 0.16964,0.0169 0.11587,0.01116 0.225306,0.0179 0.109435,0.0066 0.212544,0.0075 0.103101,8.32e-4 0.193464,-0.02772 0.09036,-0.02855 0.14539,-0.04245 0.05503,-0.01398 0.12924,-0.03197 0.07417,-0.01807 0.190043,-0.03821 0.115837,-0.02014 0.25882,-0.05636 0.142975,-0.03621 0.192449,-0.05344 0.04944,-0.01723 0.124528,-0.02913 0.07509,-0.01191 0.132586,-0.02772 0.05753,-0.01582 0.175575,-0.03304 0.118043,-0.01732 0.22598,-0.03014 0.107946,-0.01282 0.222559,-0.01473 0.114613,-0.0017 0.227978,-0.0033 0.113365,-8.33e-4 0.213668,-0.0017 0.100303,-2.82e-4 0.21043,-2.82e-4 0.110126,0 0.220253,0 0.110134,0 0.220261,0 0.110127,0 0.220253,0 0.110127,0 0.220253,0 0.110135,0 0.220261,0 0.110127,0 0.220253,0 0.110126,0 0.220252,0 0.110136,0 0.207683,5.7e-5 0.09755,6.8e-5 0.19995,0.0075 0.102409,0.0075 0.227661,0.02988 0.125253,0.02264 0.215749,0.04162 0.0905,0.01898 0.133819,0.03372 0.04329,0.01473 0.120532,0.03546 0.07717,0.02073 0.192716,0.03671 0.115504,0.01598 0.242704,0.03763 0.1272,0.02165 0.239715,0.04495 0.112525,0.02331 0.173835,0.03438 0.06127,0.01107 0.128599,0.02431 0.06727,0.01332 0.181859,0.03896 0.114573,0.02564 0.191659,0.04254 0.07709,0.0169 0.166434,0.04612 0.08935,0.02922 0.193505,0.06219 0.104158,0.03297 0.157086,0.04853 0.05294,0.01557 0.115263,0.03488 0.06235,0.01932 0.179437,0.05786 0.117103,0.03854 0.204603,0.06735 0.0875,0.0288 0.159283,0.05136 0.07176,0.02256 0.153181,0.04903 0.08142,0.02647 0.196487,0.06768 0.115088,0.0412 0.164544,0.05918 0.04944,0.0179 0.136449,0.03288 0.087,0.01499 0.17008,0.01965 0.08308,0.005 0.160816,0.0093 0.07775,0.0042 0.124003,-0.05103 0.04628,-0.05569 0.06527,-0.09682 0.01898,-0.04113 0.04903,-0.107837 0.03005,-0.06668 0.07808,-0.17768 0.04803,-0.110984 0.07551,-0.200841 0.02748,-0.08985 0.05652,-0.164052 0.02913,-0.07417 0.05536,-0.15081 0.02631,-0.07659 0.0626,-0.188144 0.03629,-0.111542 0.05753,-0.169556 0.02123,-0.05802 0.04654,-0.131504 0.02522,-0.07351 0.05644,-0.159992 0.03122,-0.0865 0.06568,-0.180569 0.03455,-0.09406 0.06527,-0.171287 0.03072,-0.07725 0.04995,-0.150992 0.01923,-0.07376 0.04703,-0.163204 0.02781,-0.08943 0.06777,-0.215117 0.03996,-0.125685 0.05303,-0.159775 0.01307,-0.03405 0.03687,-0.124777 0.02372,-0.09068 0.05069,-0.171737 0.02697,-0.08108 0.06893,-0.204371 0.04204,-0.123321 0.0676,-0.181377 0.02564,-0.05802 0.05927,-0.125477 0.03363,-0.06743 0.07318,-0.131304 0.03946,-0.06386 0.09135,-0.153473 0.05186,-0.08959 0.07817,-0.131954 0.02622,-0.04238 0.06793,-0.117544 0.0417,-0.07518 0.07725,-0.1371397 0.03555,-0.06193 0.08557,-0.139387 0.04995,-0.07742 0.101903,-0.147238 0.05195,-0.06984 0.110026,-0.142924 0.0581,-0.07309 0.09671,-0.11796 0.03863,-0.04487 0.08657,-0.101894 0.04795,-0.05702 0.07459,-0.09618 0.02664,-0.03913 0.07434,-0.107345 0.04779,-0.06818 0.101685,-0.147114 0.05394,-0.07892 0.100137,-0.146654 0.04621,-0.067759 0.08505,-0.1161118 0.03888,-0.048365 0.08913,-0.088819 0.05028,-0.040454 0.13798,-0.1198159 0.08767,-0.079421 0.130322,-0.1150467 0.04262,-0.035632 0.105681,-0.082329 0.06302,-0.046697 0.135,-0.1025761 0.07193,-0.055944 0.12641,-0.096124 0.05445,-0.040208 0.119225,-0.08141 0.06476,-0.041212 0.129781,-0.082168 0.06501,-0.040956 0.127867,-0.076086 0.06285,-0.03513 0.150258,-0.078833 0.08742,-0.043789 0.168607,-0.090193 0.08116,-0.046451 0.145631,-0.082168 0.06443,-0.035717 0.159559,-0.080254 0.0951,-0.044537 0.13654,-0.065598 0.04146,-0.021061 0.153315,-0.078168 0.111883,-0.057107 0.161431,-0.079333 0.04953,-0.022144 0.109294,-0.043371 0.05977,-0.021144 0.185248,-0.067179 0.125518,-0.045952 0.196769,-0.071426 0.07126,-0.025474 0.146388,-0.052612 0.07517,-0.027138 0.142118,-0.05128 0.06701,-0.024142 0.13371,-0.046868 0.06676,-0.022726 0.189402,-0.066264 0.122655,-0.043538 0.205577,-0.07026 0.08292,-0.026806 0.133235,-0.034298 0.05036,-0.00749 0.153065,-0.017066 0.102742,-0.00949 0.21649,0.00167 0.113748,0.011405 0.181768,0.02206 0.06801,0.010655 0.132495,0.020062 0.06452,0.00941 0.165636,0.037794 0.101143,0.028387 0.181601,0.059771 0.08042,0.031384 0.164669,0.057607 0.08423,0.026222 0.117819,0.035046 0.03363,0.00874 0.122172,0.029802 0.08857,0.021062 0.206509,0.041873 0.117935,0.020895 0.226754,0.046951 0.108811,0.02614 0.193398,0.049282 0.08456,0.023142 0.145165,0.038876 0.06061,0.015733 0.133718,0.033715 0.07309,0.017981 0.191192,0.043538 0.118101,0.025557 0.208714,0.047201 0.09063,0.021644 0.192224,0.055275 0.101585,0.033632 0.151326,0.050947 0.0497,0.017319 0.147845,0.065683 0.09811,0.048365 0.150184,0.073509 0.05212,0.025144 0.135558,0.067426 0.08348,0.042207 0.156204,0.080586 0.07267,0.038379 0.170155,0.087 0.09745,0.048621 0.150243,0.072429 0.05278,0.023808 0.123438,0.061439 0.07068,0.037631 0.148286,0.075669 0.07758,0.038048 0.160923,0.079582 0.08331,0.041619 0.130955,0.071008 0.04762,0.029388 0.132886,0.087559 0.08524,0.058189 0.147861,0.1105845 0.0626,0.052448 0.119093,0.098288 0.05645,0.045873 0.116126,0.096108 0.05969,0.050278 0.113849,0.1010943 0.05419,0.050866 0.09486,0.089435 0.04074,0.038626 0.10788,0.1033747 0.06727,0.06477 0.122291,0.119833 0.05504,0.05511 0.110126,0.110127 0.05504,0.05511 0.110135,0.110127 0.05504,0.05503 0.110126,0.110126 0.05504,0.05502 0.110135,0.110127 0.05514,0.05503 0.118397,0.123779 0.06338,0.06868 0.107,0.13073 0.04368,0.06202 0.05826,0.08363 0.01469,0.02165 0.06679,0.09852 0.05211,0.07692 0.09332,0.155837 0.04121,0.07892 0.09114,0.1665757 0.04993,0.08765 0.10193,0.1748 0.05192,0.08714 0.08688,0.13525 0.03486,0.04812 0.09086,0.126468 0.0559,0.07833 0.08299,0.115271 0.0271,0.03688 0.05921,0.111492 0.03212,0.07459 0.06224,0.135916 0.03013,0.06135 0.0703,0.182427 0.04017,0.121082 0.07285,0.209872 0.03259,0.0888 0.0451,0.149086 0.0126,0.06027 0.03174,0.143558 0.01914,0.08327 0.0271,0.164494 0.0085,0.08125 -0.0095,0.168 -0.01734,0.08676 -0.0451,0.166351 -0.02776,0.07958 -0.07248,0.09034 -0.04472,0.01074 -0.167302,0.04271 -0.122603,0.03197 -0.178708,0.03463 -0.05609,0.0025 -0.157335,-0.02064 -0.10123,-0.02331 -0.177382,-0.07534 -0.07617,-0.05203 -0.113697,-0.08183 -0.03752,-0.02988 -0.09846,-0.08581 -0.06092,-0.05594 -0.125938,-0.1121 -0.06499,-0.0561 -0.120074,-0.111217 -0.05504,-0.05502 -0.105388,-0.100228 -0.0504,-0.0452 -0.130003,-0.113773 -0.07968,-0.06859 -0.129282,-0.09984 -0.04964,-0.03122 -0.101249,-0.07301 -0.05163,-0.04179 -0.137563,-0.10305 -0.08593,-0.06127 -0.160565,-0.118376 -0.07456,-0.05711 -0.136568,-0.107846 -0.06193,-0.05078 -0.117003,-0.09914 -0.05503,-0.04836 -0.100453,-0.08409 -0.04537,-0.03571 -0.09916,-0.07409 -0.05377,-0.03838 -0.152724,-0.107696 -0.09895,-0.06926 -0.135541,-0.09054 -0.03663,-0.02123 -0.106189,-0.06235 -0.0696,-0.04113 -0.124245,-0.0641 -0.05461,-0.02297 -0.153248,-0.08 -0.09861,-0.05694 -0.185622,-0.09696 -0.08701,-0.03996 -0.171771,-0.07958 -0.08477,-0.03962 -0.123029,-0.05669 -0.03829,-0.01706 -0.137107,-0.06044 -0.09886,-0.04337 -0.138106,-0.0532 -0.03921,-0.0098 -0.110442,-0.0308 -0.07118,-0.02097 -0.205136,-0.04121 -0.133943,-0.02023 -0.201613,-0.01 -0.06768,0.01024 -0.0725,0.07467 -0.005,0.06443 -0.01815,0.192649 -0.01332,0.128232 -0.02014,0.220511 -0.0066,0.09227 -0.01565,0.209531 -0.0089,0.117252 -0.02664,0.216082 -0.01781,0.09883 -0.03455,0.207283 -0.01673,0.108445 -0.03838,0.187038 -0.02165,0.07859 -0.0408,0.158401 -0.01923,0.07984 -0.02372,0.158326 -0.0042,0.0785 -0.01774,0.183683 -0.01324,0.105165 -0.02381,0.214433 -0.01057,0.109278 -0.01532,0.234538 -0.005,0.125269 -0.0059,0.220129 -8.33e-4,0.09487 -0.0086,0.187012 -0.0075,0.09215 -0.0244,0.236927 -0.01673,0.144774 -0.02605,0.228186 -0.0094,0.08341 -0.02739,0.171887 -0.01798,0.08848 -0.03862,0.176749 -0.02064,0.08828 -0.03146,0.139188 -0.01082,0.05094 -0.02564,0.166567 -0.01482,0.115663 -0.01981,0.212161 -0.005,0.0965 -0.01115,0.20765 -0.0059,0.111142 -0.01082,0.242763 -0.0042,0.13162 -0.005,0.232864 -2.91e-4,0.101244 -2.91e-4,0.21137 0,0.110136 -0.0087,0.221186 -0.0087,0.111051 -0.01648,0.219096 -0.0075,0.108045 -0.02631,0.212436 -0.01856,0.10439 -0.03588,0.178155 -0.01723,0.07375 -0.02838,0.126368 -0.01115,0.05261 -0.03563,0.162222 -0.02456,0.10961 -0.03663,0.20844 -0.01207,0.09883 -0.02165,0.21167 -0.0096,0.112841 -0.01848,0.225881 -0.009,0.113031 -0.01723,0.211303 -0.0083,0.09827 -0.0293,0.195013 -0.02106,0.09675 -0.03372,0.164761 -0.01266,0.06801 -0.02814,0.156244 -0.01548,0.08822 -0.02539,0.161765 -0.0099,0.07351 -0.02381,0.215749 -0.01382,0.142218 -0.02089,0.221526 -0.0066,0.07934 -0.0159,0.216699 -0.0088,0.137407 -0.01107,0.239799 -0.0025,0.102402 -0.005,0.204286 -0.0025,0.101877 -0.0025,0.212004 0,0.110134 0,0.220261 0,0.110126 0,0.220253 0,0.110126 0,0.220253 0,0.110134 0,0.220261 0,0.110126 0,0.220253 0,0.110126 0,0.220253 0,0.110134 0,0.220261 0,0.110126 -0.0087,0.228702 -0.0087,0.118585 -0.01515,0.232332 -0.0066,0.113739 -0.01282,0.212061 -0.0066,0.09832 -0.01898,0.169073 -0.01257,0.07076 -0.04154,0.121348 -0.02897,0.05061 -0.04429,0.132603 -0.01532,0.082 0.01856,0.126151 0.03388,0.04412 0.05003,0.133095 0.01623,0.08895 0.02123,0.157785 0.005,0.06885 0.0129,0.212145 0.0075,0.143316 0.0149,0.244319 0.0066,0.101003 0.01423,0.245185 0.0075,0.144182 0.0083,0.231167 8.33e-4,0.08697 8.33e-4,0.197102 0,0.110126 0,0.22026 0,0.110127 0,0.220254 0,0.110126 0,0.220253 0,0.110126 0,0.220261 0,0.110126 0,0.220253 0,0.110126 0,0.220253 0,0.110126 0,0.220261 0,0.110126 0,0.220253 0,0.110126 -0.0086,0.204136 -0.0086,0.09402 -0.02847,0.204836 -0.01981,0.110809 -0.03779,0.184107 -0.01798,0.07334 -0.03488,0.18067 -0.0169,0.107362 -0.03322,0.16387 -0.01631,0.05652 -0.02822,0.15875 -0.01191,0.102251 0.0075,0.214825 0.01956,0.112583 0.03297,0.175284 0.01348,0.06268 0.02713,0.134643 0.01365,0.07193 0.02522,0.172136 0.01157,0.100212 0.02165,0.191133 0.01007,0.09092 0.01565,0.218571 0.0059,0.12765 0.01232,0.237635 0.0066,0.109976 0.01157,0.208848 0.005,0.09886 0.009,0.213252 0.0042,0.114389 0.0059,0.2227 0.0017,0.108312 0.0017,0.218439 0,0.110126 0,0.220253 0,0.110125 0,0.220261 0,0.110126 0,0.220253 0,0.110126 0,0.220252 0,0.110127 0,0.220262 0,0.110126 0,0.220252 0,0.110127 0,0.220253 0,0.110127 0,0.220261 0,0.110127 0,0.220253 0,0.110127 0,0.220253 0,0.110127 0,0.220261 0,0.110127 0,0.220253 0,0.110127 -0.0017,0.232674 -0.0017,0.122546 -0.0075,0.208657 -0.0066,0.08611 -0.02181,0.212527 -0.01548,0.126426 -0.03413,0.194763 -0.01864,0.06835 -0.03696,0.131571 -0.0184,0.06318 -0.03322,0.116095 -0.01482,0.05287 -0.02572,0.152066 -0.01082,0.09921 -0.02622,0.24829 -0.01541,0.149069 -0.02198,0.251479 -0.0066,0.102401 -0.01431,0.235004 -0.0075,0.132603 -0.02489,0.25286 -0.01715,0.120257 -0.02797,0.208898 -0.01082,0.08864 -0.03214,0.176291 -0.02131,0.08765 -0.04096,0.149959 -0.01965,0.06227 -0.03055,0.132944 -0.0109,0.07068 -0.03579,0.180137 -0.02489,0.109494 -0.05719,0.241597 -0.0323,0.132112 -0.05719,0.19935 -0.02489,0.06727 -0.05228,0.145265 -0.0273,0.078 -0.05711,0.143782 -0.02981,0.06577 -0.05661,0.128333 -0.02689,0.0626 -0.05519,0.133844 -0.0283,0.07126 -0.05944,0.147012 -0.03113,0.07575 -0.07409,0.184999 -0.04295,0.109251 -0.06876,0.19269 -0.02581,0.08344 -0.04895,0.145905 -0.02314,0.06243 -0.04045,0.120157 -0.01732,0.05769 -0.05261,0.163005 -0.0353,0.105315 -0.06693,0.192723 -0.03163,0.08741 -0.06069,0.16526 -0.02906,0.07784 -0.06543,0.158343 -0.03638,0.0805 -0.07792,0.165794 -0.04162,0.08528 -0.06852,0.13838 -0.02689,0.05311 -0.07217,0.146863 -0.0452,0.09377 -0.08737,0.174343 -0.04212,0.08059 -0.06543,0.120774 -0.02331,0.04021 -0.08266,0.133951 -0.05944,0.09374 -0.09428,0.149519 -0.03488,0.05577 -0.07509,0.11542 -0.04029,0.0596 -0.09808,0.128016 -0.05777,0.06835 -0.104332,0.125344 -0.04654,0.05694 -0.09875,0.110901 -0.05228,0.05394 -0.103434,0.105764 -0.0512,0.05186 -0.106256,0.106888 -0.05503,0.05511 -0.110127,0.110127 -0.05502,0.05503 -0.110125,0.110126 -0.05503,0.05503 -0.110136,0.110126 -0.05503,0.05503 -0.110126,0.110135 -0.05503,0.05503 -0.122413,0.108528 -0.06734,0.05344 -0.132762,0.08819 -0.06543,0.03471 -0.126284,0.07076 -0.06085,0.03605 -0.132178,0.07517 -0.07134,0.03913 -0.158152,0.0856 -0.08685,0.04645 -0.15647,0.08134 -0.0696,0.03488 -0.130438,0.06219 -0.06085,0.02722 -0.137997,0.05802 -0.07717,0.03072 -0.171521,0.0572 -0.09433,0.02647 -0.172661,0.04944 -0.07833,0.02297 -0.198891,0.05511 -0.120566,0.03205 -0.199716,0.05969 -0.07917,0.02764 -0.116645,0.03505 -0.03755,0.0075 -0.159825,0.03088 -0.122313,0.02348 -0.219969,0.04887 -0.09765,0.02539 -0.175858,0.04887 -0.07825,0.02348 -0.188977,0.05869 -0.11076,0.03522 -0.162272,0.04421 -0.05153,0.009 -0.146755,0.02231 -0.09524,0.01332 -0.172686,0.02556 -0.07742,0.01224 -0.200524,0.01398 -0.123096,0.0017 -0.230517,0.01007 -0.107421,0.0083 -0.22926,0.01499 -0.121831,0.0066 -0.231957,0.0066 -0.110126,0 -0.206617,0.0025 -0.09649,0.0025 -0.227237,0.02189 -0.130747,0.01956 -0.218414,0.0288 -0.08766,0.0093 -0.167625,0.03612 -0.08,0.02689 -0.139254,0.03579 -0.05927,0.0089 -0.156828,0.02214 -0.09753,0.01324 -0.197176,0.02314 -0.09965,0.0098 -0.209697,0.01748 -0.11006,0.0075 -0.249723,0.01332 -0.139678,0.0059 -0.2233,0.0087 -0.08364,0.0033 -0.200223,0.0066 -0.116587,0.0033 -0.226721,0.0033 -0.110127,0 -0.207608,1.91e-4 -0.09749,1.93e-4 -0.21584,0.01165 -0.118352,0.01149 -0.232066,0.02514 -0.113715,0.01365 -0.215691,0.02889 -0.101985,0.01532 -0.208932,0.03513 -0.106938,0.0199 -0.137648,0.02548 -0.03071,0.0059 -0.113214,0.01923 -0.0825,0.01365 -0.223866,0.02955 -0.141352,0.0159 -0.210347,0.0199 -0.06901,0.0042 -0.181443,0.0093 -0.112449,0.005 -0.222917,0.0087 -0.11046,0.0033 -0.23691,0.005 -0.126452,0.0017 -0.236586,0.0017 -0.110127,0 -0.220253,0 -0.110127,0 -0.223442,-0.0059 -0.113314,-0.0059 -0.19527,-0.01332 -0.08191,-0.0075 -0.199741,-0.02972 -0.117777,-0.0219 -0.227804,-0.0487 -0.110017,-0.0268 -0.145855,-0.03305 -0.03579,-0.0066 -0.116986,-0.01615 -0.08116,-0.0099 -0.214284,-0.02497 -0.133119,-0.01506 -0.233031,-0.02364 -0.09991,-0.0086 -0.188237,-0.01157 -0.08833,-0.0033 -0.209988,-0.005 -0.121673,-0.0025 -0.245801,-0.0042 -0.124129,-0.0017 -0.228312,-0.0033 -0.10419,-0.0017 -0.214317,-0.0017 -0.110126,0 -0.218205,1.6e-5 -0.108078,2.6e-5 -0.221043,-0.0075 -0.112957,-0.0075 -0.220237,-0.03496 -0.107279,-0.0273 -0.184266,-0.04387 -0.077,-0.01657 -0.158775,-0.0417 -0.08183,-0.02506 -0.12417,-0.03247 -0.04237,-0.0075 -0.184266,-0.01499 -0.141884,-0.0075 -0.23378,-0.02007 -0.09189,-0.01249 -0.21252,-0.0139 -0.120623,-0.0017 -0.232772,-0.0042 -0.112158,-0.0025 -0.217406,-0.005 -0.10524,-0.0017 -0.215375,-0.0017 -0.110126,0 -0.204145,-0.0017 -0.09402,-0.0017 -0.19999,-0.0089 -0.105964,-0.0075 -0.21068,-0.02497 -0.104716,-0.01748 -0.204328,-0.03796 -0.09961,-0.02048 -0.168789,-0.03555 -0.06918,-0.01506 -0.132179,-0.02389 -0.06302,-0.0088 -0.207916,-0.03014 -0.144915,-0.02123 -0.224881,-0.02997 -0.08,-0.0086 -0.231683,-0.03629 -0.151717,-0.02755 -0.211878,-0.04296 -0.06019,-0.0154 -0.153848,-0.03871 -0.09369,-0.02331 -0.135949,-0.03238 -0.04229,-0.0091 -0.136358,-0.02581 -0.0941,-0.01665 -0.1829,-0.02764 -0.08879,-0.01099 -0.252819,-0.03613 -0.16402,-0.02514 -0.232331,-0.04695 -0.06835,-0.02189 -0.158285,-0.04437 -0.08997,-0.02256 -0.152466,-0.03654 -0.06252,-0.01398 -0.116219,-0.02264 -0.05369,-0.0086 -0.192791,-0.03579 -0.139062,-0.02706 -0.2378,-0.03937 -0.09874,-0.01232 -0.237993,-0.05478 -0.139263,-0.04245 -0.200134,-0.05411 -0.06085,-0.01157 -0.133302,-0.02873 -0.07243,-0.01715 -0.155129,-0.03921 -0.08266,-0.02206 -0.171612,-0.05303 -0.08892,-0.03097 -0.149203,-0.04995 -0.06027,-0.01898 -0.180577,-0.05661 -0.120308,-0.03763 -0.166884,-0.05103 -0.04654,-0.01341 -0.166435,-0.05144 -0.119857,-0.03805 -0.168107,-0.05403 -0.04828,-0.01598 -0.163271,-0.05636 -0.115021,-0.04038 -0.160907,-0.05478 -0.04586,-0.0144 -0.165943,-0.05095 -0.120049,-0.03654 -0.204228,-0.06426 -0.08418,-0.02781 -0.145564,-0.04695 -0.06135,-0.01915 -0.14052,-0.04379 -0.07916,-0.02464 -0.175965,-0.05685 -0.09682,-0.03222 -0.178713,-0.06901 -0.08191,-0.03687 -0.139122,-0.06226 -0.05727,-0.02539 -0.15691,-0.07509 -0.09968,-0.0497 -0.136924,-0.0785 -0.03721,-0.0288 -0.100137,-0.07242 -0.06294,-0.0437 -0.135025,-0.09268 -0.07209,-0.04903 -0.129123,-0.08492 -0.05702,-0.03588 -0.1433,-0.08888 -0.08629,-0.05294 -0.159051,-0.108628 -0.07276,-0.05569 -0.131512,-0.116677 -0.05878,-0.06102 -0.0997,-0.106331 -0.04096,-0.04529 -0.08862,-0.118817 -0.0477,-0.07351 -0.09025,-0.129865 Q 13.8408,36.843763 13.78537,36.771 13.72993,36.69824 13.688,36.637756 q -0.04187,-0.06043 -0.06385,-0.09788 -0.02198,-0.03737 -0.078,-0.129248 -0.05602,-0.09185 -0.101685,-0.170147 -0.04562,-0.07833 -0.07542,-0.132536 -0.02972,-0.05428 -0.07476,-0.138031 -0.04495,-0.0838 -0.07892,-0.155404 -0.03396,-0.07159 -0.06852,-0.152982 -0.03454,-0.08133 -0.06252,-0.139245 -0.02797,-0.05786 -0.06035,-0.121548 -0.03238,-0.06368 -0.06002,-0.138771 -0.02764,-0.07509 -0.0671,-0.173211 -0.03946,-0.09811 -0.07126,-0.180761 -0.0318,-0.08266 -0.06085,-0.159733 -0.02906,-0.07709 -0.05802,-0.178821 -0.02897,-0.101743 -0.04887,-0.1676 -0.0199,-0.06584 -0.05245,-0.184715 -0.03255,-0.118859 -0.06543,-0.203054 -0.03297,-0.0842 -0.05794,-0.168307 -0.02497,-0.08411 -0.03588,-0.140653 -0.0109,-0.05652 -0.02181,-0.158268 -0.0109,-0.101718 -0.02348,-0.196553 -0.01257,-0.09483 -0.02622,-0.220494 -0.01365,-0.12566 -0.03388,-0.238492 -0.02023,-0.112832 -0.03654,-0.174401 -0.0164,-0.0616 -0.03222,-0.122396 -0.01581,-0.06085 -0.03113,-0.138789 -0.01532,-0.078 -0.02023,-0.161214 -0.005,-0.08325 -0.01215,-0.217507 -0.0075,-0.134259 -0.02073,-0.245617 -0.01357,-0.111367 -0.01774,-0.239216 -0.0042,-0.12785 -0.005,-0.230043 -8.32e-4,-0.102235 -8.32e-4,-0.212361 0,-0.110135 0,-0.220262 0,-0.110126 0,-0.220252 0,-0.110127 0,-0.220253 0,-0.110135 0,-0.220261 0,-0.110127 0,-0.220253 0,-0.110127 0,-0.220253 0,-0.110135 0,-0.220261 0,-0.110127 0,-0.220254 0,-0.110126 0,-0.220253 0,-0.110134 0,-0.220261 0,-0.110126 0,-0.220253 0,-0.110126 0,-0.220252 0,-0.110135 0,-0.220262 0,-0.110126 0,-0.220253 0,-0.110125 0,-0.220252 0,-0.110135 0,-0.220262 0,-0.110125 0,-0.220252 0,-0.110127 0,-0.220253 0,-0.110135 0.0075,-0.223058 0.0075,-0.112932 0.01174,-0.211546 0.0042,-0.09861 0.01798,-0.212777 0.01374,-0.114156 0.03738,-0.205552 0.02372,-0.09139 0.04171,-0.153848 0.01807,-0.06243 0.03363,-0.142284 0.01565,-0.07983 0.02614,-0.181385 0.01049,-0.101552 0.02115,-0.199225 0.01066,-0.09766 0.01607,-0.206425 0.005,-0.108753 0.01074,-0.244986 0.005,-0.136224 0.0224,-0.208065 0.01698,-0.07184 0.04703,-0.186464 0.03005,-0.114613 0.03937,-0.162655 0.0093,-0.04803 0.02797,-0.146239 0.01864,-0.09819 0.03205,-0.196335 0.01341,-0.09816 0.03064,-0.207309 0.01723,-0.10916 0.03962,-0.20203 0.0224,-0.09286 0.04429,-0.171395 0.0219,-0.0785 0.04387,-0.167134 0.02198,-0.08861 0.03488,-0.172627 0.0129,-0.08403 0.02073,-0.171454 0.0075,-0.08744 0.01348,-0.2073 0.0058,-0.119875 0.01191,-0.232108 0.0059,-0.112232 0.01016,-0.233372 0.0042,-0.121148 0.0066,-0.234163 0.0025,-0.113024 0.0066,-0.208549 0.0033,-0.09552 0.0042,-0.201756 8.32e-4,-0.10623 8.32e-4,-0.216356 0,-0.110127 0,-0.220261 0,-0.110127 0,-0.220253 0,-0.110127 0,-0.220254 0,-0.110126 0,-0.220261 0,-0.110126 0,-0.220253 0,-0.110126 0.0033,-0.229376 0.0033,-0.119242 0.01557,-0.234854 0.01257,-0.115612 0.02955,-0.1994 0.01698,-0.08379 0.03106,-0.175316 0.01407,-0.09153 0.03005,-0.159042 0.01598,-0.06751 0.03071,-0.165327 0.01482,-0.09782 0.02189,-0.162589 0.0075,-0.06476 0.0204,-0.180453 0.01323,-0.115679 0.01848,-0.223832 0.005,-0.108162 0.01,-0.245818 0.005,-0.137656 0.0075,-0.237168 0.0025,-0.09951 0.0025,-0.209639 0,-0.110127 0,-0.220253 0,-0.110127 0,-0.220253 0,-0.110127 0,-0.220261 0,-0.110127 0,-0.220254 0,-0.110126 0.0059,-0.216756 0.0059,-0.10663 0.01657,-0.222584 0.0109,-0.115962 0.02939,-0.187295 0.0184,-0.07134 0.04171,-0.168224 0.02323,-0.0969 0.0343,-0.164903 0.01099,-0.06801 0.02306,-0.170979 0.01207,-0.102959 0.02106,-0.203729 0.0089,-0.100761 0.01815,-0.212519 0.0092,-0.111758 0.0149,-0.235479 0.0059,-0.123728 0.0098,-0.208889 0.0042,-0.08516 0.005,-0.203246 8.31e-4,-0.118077 0.0042,-0.216749 0.0033,-0.09866 0.03172,-0.21788 0.02872,-0.119216 0.05269,-0.211237 0.02398,-0.09203 0.04254,-0.168965 0.01856,-0.07692 0.02988,-0.134934 0.01132,-0.05802 0.0268,-0.204302 0.01548,-0.146297 0.01915,-0.194539 0.0033,-0.04819 0.0066,-0.191683 0.0033,-0.143441 0.005,-0.241638 0.0025,-0.0982 0.01182,-0.192325 0.0096,-0.09411 0.03405,-0.185805 0.02447,-0.09169 0.05353,-0.207241 0.02906,-0.115546 0.04313,-0.179979 0.01407,-0.06443 0.02539,-0.148336 0.01132,-0.0839 0.01915,-0.175525 0.0075,-0.09163 0.01831,-0.228403 0.01049,-0.136773 0.01323,-0.236685 0.0025,-0.0999 0.01415,-0.213303 0.01141,-0.113397 0.01873,-0.181417 0.0075,-0.06801 0.03579,-0.17023 0.02847,-0.102194 0.05603,-0.191367 0.02755,-0.08916 0.03746,-0.136432 0.0099,-0.04729 0.03313,-0.161448 0.02323,-0.114181 0.05445,-0.224557 0.03122,-0.110368 0.05111,-0.183866 0.0199,-0.07351 0.03755,-0.133985 0.01765,-0.06052 0.04188,-0.1510763 0.02422,-0.0906 0.05802,-0.186887 0.03388,-0.09629 0.0671,-0.204711 0.03322,-0.108429 0.03238,-0.157552 -7.91e-4,-0.04911 -0.0017,-0.14996 -6.82e-4,-0.100835 -0.0033,-0.149211 -0.0025,-0.04836 -0.06027,-0.0452 -0.05769,0.0033 -0.135067,0.02447 -0.07734,0.02131 -0.135733,0.03421 -0.05844,0.0129 -0.132211,0.03113 -0.07384,0.01823 -0.176308,0.04662 -0.102492,0.02847 -0.171878,0.05536 -0.06934,0.02689 -0.157094,0.03346 -0.08771,0.0066 -0.109236,0.005 -0.02156,-0.0017 -0.09775,8.33e-4 -0.07617,0.0025 -0.113031,0.01607 -0.0368,0.01357 -0.09678,0.03463 -0.05994,0.02106 -0.14614,0.05861 -0.08618,0.03754 -0.171228,0.08607 -0.08506,0.04854 -0.138314,0.08787 -0.05328,0.03937 -0.106364,0.08675 -0.05311,0.04745 -0.111616,0.09548 -0.05852,0.04803 -0.112174,0.09791 -0.05369,0.04986 -0.09964,0.1097603 -0.04595,0.05993 -0.09384,0.1279 -0.04786,0.06801 -0.09823,0.138072 -0.05036,0.0701 -0.08872,0.117628 -0.03838,0.04753 -0.112224,0.145964 -0.07384,0.09844 -0.115588,0.149926 -0.04171,0.05144 -0.09203,0.108178 -0.05028,0.05669 -0.08374,0.112225 -0.03346,0.05553 -0.06859,0.10737 -0.03513,0.05186 -0.09073,0.143126 -0.05561,0.09129 -0.07476,0.128041 -0.01915,0.03671 -0.08677,0.162264 -0.0676,0.12551 -0.09244,0.16869 -0.0248,0.0432 -0.09131,0.127341 -0.06652,0.08416 -0.101177,0.132537 -0.03471,0.04836 -0.07051,0.07059 -0.03579,0.02223 -0.134017,0.05212 -0.0982,0.02988 -0.155896,0.03413 -0.05769,0.0042 -0.172195,-0.03812 -0.114496,-0.04237 -0.142983,-0.0646 -0.02847,-0.02223 -0.06235,-0.06652 -0.03379,-0.04429 -0.06518,-0.107646 -0.0313,-0.06335 -0.02007,-0.151067 0.01132,-0.08773 0.04729,-0.178921 0.03596,-0.09118 0.05003,-0.125861 0.01407,-0.03471 0.05702,-0.128607 0.04295,-0.09393 0.06584,-0.150808 0.02289,-0.05685 0.05261,-0.160257 0.02972,-0.103376 0.0671,-0.204212 0.03746,-0.100836 0.06269,-0.17873 0.0253,-0.07791 0.05911,-0.165726 0.03379,-0.08783 0.04654,-0.118776 0.01273,-0.03097 0.07376,-0.156112 0.06102,-0.1251773 0.08586,-0.2018063 0.02489,-0.07667 0.04079,-0.123603 0.01598,-0.04695 0.0626,-0.143101 0.04662,-0.09614 0.07817,-0.152091 0.03163,-0.05594 0.07109,-0.129614 0.03946,-0.07367 0.07826,-0.141602 0.0388,-0.06793 0.08008,-0.134934 0.04129,-0.06701 0.09014,-0.147679 0.04887,-0.08066 0.08761,-0.133935 0.03871,-0.053281 0.105365,-0.1382464 0.06659,-0.085001 0.100936,-0.1225388 0.0343,-0.037546 0.08133,-0.091064 0.04703,-0.053528 0.101801,-0.1119326 0.05478,-0.05836 0.117419,-0.1220726 0.06269,-0.063684 0.109353,-0.1136143 0.0467,-0.049947 0.113656,-0.1175023 0.06693,-0.067597 0.114146,-0.1154039 0.0472,-0.047863 0.102235,-0.1029172 0.05502,-0.05511 0.110127,-0.1101353 0.05511,-0.05511 0.110126,-0.1101259 0.05502,-0.05511 0.110127,-0.1101269 0.05502,-0.055026 0.110126,-0.1101262 0.05503,-0.055026 0.112474,-0.1085198 0.05744,-0.053444 0.113406,-0.1001119 0.05602,-0.046618 0.133203,-0.1011192 0.07725,-0.054443 0.131329,-0.08666 0.05411,-0.032216 0.12561,-0.071009 0.07151,-0.038792 0.120358,-0.059271 0.04887,-0.020478 0.14608,-0.057357 0.09723,-0.036879 0.197152,-0.074672 0.09992,-0.03771 0.137481,-0.048449 0.03754,-0.010739 0.181585,-0.053195 m 1.403498,11.3293716 q 0.01831,0.04395 0.03238,0.04245 0.01407,-0.0017 0.05694,-0.02165 0.04287,-0.02023 0.141295,-0.07808 0.09844,-0.05786 0.158218,-0.101003 0.05977,-0.0432 0.112915,-0.08913 0.05311,-0.04595 0.105089,-0.08958 0.05195,-0.04362 0.10281,-0.09242 0.05087,-0.04878 0.114139,-0.110884 0.06327,-0.0621 0.118351,-0.117152 0.05511,-0.05503 0.110127,-0.110127 0.05503,-0.05503 0.110126,-0.110127 0.05503,-0.05503 0.110135,-0.110125 0.05503,-0.05511 0.110126,-0.110127 0.05502,-0.05511 0.110127,-0.110126 0.05503,-0.05503 0.110126,-0.110136 0.05511,-0.05511 0.110127,-0.110126 0.05511,-0.05503 0.107762,-0.09938 0.05269,-0.04429 0.122904,-0.09871 0.07017,-0.05436 0.132704,-0.09271 0.06252,-0.03829 0.135432,-0.09124 0.07292,-0.05294 0.133244,-0.09823 0.06035,-0.04529 0.130639,-0.100927 0.07034,-0.05561 0.134168,-0.102385 0.06385,-0.04678 0.116345,-0.08 0.05253,-0.03322 0.101303,-0.06584 0.04878,-0.03263 0.122322,-0.0805 0.07351,-0.04786 0.170364,-0.106938 0.09683,-0.05902 0.135317,-0.07975 0.03845,-0.02073 0.126809,-0.07184 0.08833,-0.0512 0.165277,-0.101319 0.07692,-0.05012 0.138705,-0.09171 0.06177,-0.04154 0.119649,-0.07942 0.05794,-0.03779 0.140088,-0.09256 0.08217,-0.05469 0.147486,-0.09516 0.06535,-0.04045 0.124295,-0.07026 0.05902,-0.02981 0.123221,-0.0616 0.06426,-0.0318 0.136582,-0.0805 0.07234,-0.0487 0.135626,-0.08735 0.06327,-0.03863 0.110426,-0.0881 0.04711,-0.04945 0.09584,-0.128275 0.0487,-0.07883 0.06868,-0.134392 0.01998,-0.05561 0.0066,-0.127092 -0.01374,-0.07151 -0.0288,-0.136083 -0.01499,-0.0646 -0.03105,-0.147105 -0.01607,-0.0825 -0.0412,-0.156827 -0.02514,-0.07434 -0.05777,-0.155771 -0.03255,-0.0815 -0.06509,-0.171786 -0.03255,-0.09032 -0.0532,-0.16298 -0.02064,-0.07268 -0.05386,-0.190192 -0.03322,-0.117528 -0.06276,-0.202539 -0.02955,-0.08501 -0.04154,-0.120915 -0.01198,-0.03588 -0.04129,-0.128025 -0.0293,-0.09213 -0.07142,-0.204227 -0.04204,-0.112108 -0.07092,-0.200391 -0.0288,-0.08828 -0.04421,-0.120582 -0.0154,-0.0323 -0.06186,-0.136324 -0.04645,-0.104024 -0.08299,-0.18131 -0.03647,-0.07725 -0.06776,-0.139662 -0.03122,-0.06235 -0.06818,-0.133952 -0.03687,-0.0716 -0.07367,-0.149069 -0.03671,-0.0775 -0.06735,-0.141427 -0.03063,-0.06393 -0.07118,-0.150409 -0.04062,-0.08646 -0.08442,-0.183633 -0.04379,-0.09717 -0.06967,-0.164237 -0.02581,-0.06709 -0.05103,-0.133135 -0.02522,-0.0661 -0.05577,-0.147921 -0.03055,-0.08183 -0.06859,-0.168199 -0.03805,-0.08634 -0.06951,-0.1603983 -0.03139,-0.07409 -0.07509,-0.162256 -0.0437,-0.08818 -0.07633,-0.156786 -0.03263,-0.06859 -0.06584,-0.138197 -0.0333,-0.0696 -0.06926,-0.130996 -0.03605,-0.06144 -0.08409,-0.131488 -0.04803,-0.0701 -0.102809,-0.129589 -0.05478,-0.05953 -0.08857,-0.07301 -0.03379,-0.01348 -0.134186,-0.07217 -0.100361,-0.05869 -0.177606,-0.06652 -0.07725,-0.0075 -0.176149,-0.01665 -0.0989,-0.0089 -0.239783,-0.01615 -0.140877,-0.0075 -0.238841,-0.0095 -0.09796,-0.0025 -0.195096,-2.16e-4 -0.09713,0.0017 -0.21535,0.0042 -0.118218,0.0025 -0.236136,0.02348 -0.117918,0.02106 -0.212802,0.05078 -0.09488,0.02972 -0.164096,0.05669 -0.06918,0.02697 -0.11885,0.08553 -0.04962,0.05852 -0.08217,0.09736 -0.03255,0.03887 -0.05603,0.106414 -0.02348,0.0676 -0.05469,0.155745 -0.03122,0.08818 -0.07808,0.204278 -0.04687,0.116095 -0.06584,0.168591 -0.01898,0.05252 -0.0392,0.115012 -0.02023,0.06252 -0.03413,0.1529823 -0.0139,0.09047 -0.03829,0.202996 -0.02431,0.112524 -0.04113,0.199384 -0.01682,0.08687 -0.04087,0.200239 -0.02406,0.113383 -0.04586,0.217798 -0.02181,0.104407 -0.03305,0.148461 -0.01132,0.04404 -0.03097,0.153357 -0.01973,0.109294 -0.0303,0.19378 -0.01057,0.08449 -0.03971,0.221669 -0.02913,0.13718 -0.05628,0.255798 -0.02713,0.118626 -0.04354,0.188378 -0.0164,0.06976 -0.02963,0.14052 -0.01332,0.07076 -0.01848,0.143874 -0.005,0.07309 -0.02273,0.170671 -0.01748,0.09756 -0.02605,0.192532 -0.0085,0.09498 -0.01332,0.215808 -0.005,0.120832 -0.01091,0.221002 -0.0059,0.100171 -0.0066,0.217964 -2.92e-4,0.117801 -2.92e-4,0.227928 0,0.110126 0,0.220253 0,0.110126 0,0.220253 0,0.110134 0,0.220261 0,0.110127 0,0.220253 0,0.110127 0,0.220253 0,0.110135 0,0.220261 0,0.110127 0,0.220253 0,0.110127 0,0.220253 0,0.110135 0,0.220261 0,0.110127 0,0.220253 0,0.110126 0,0.220253 0,0.110135 0,0.220261 0,0.110126 0,0.220253 0,0.110126 0.0025,0.226563 0.0025,0.116436 0.0066,0.229085 0.0033,0.112649 0.01906,0.200824 0.01557,0.08817 0.04812,0.189959 0.03255,0.101794 0.04029,0.127017 0.0075,0.02522 0.03247,0.126209 0.02473,0.100978 0.06327,0.192857 0.03863,0.09189 0.05685,0.135825 m 5.99448,11.856553 q 0.121407,-0.02223 0.173677,-0.03871 0.05228,-0.01648 0.14558,-0.05177 0.09332,-0.03538 0.167442,-0.07409 0.07409,-0.03871 0.141801,-0.08696 0.06768,-0.04828 0.12974,-0.08997 0.0621,-0.0417 0.10966,-0.07725 0.04762,-0.03555 0.108512,-0.112874 0.06094,-0.07725 0.114788,-0.142368 0.05386,-0.0651 0.08941,-0.123212 0.03555,-0.05819 0.076,-0.126701 0.04045,-0.06851 0.06468,-0.124269 0.02423,-0.05569 0.04478,-0.135193 0.02056,-0.0795 0.03488,-0.19895 0.01431,-0.119475 0.02447,-0.221717 0.01024,-0.102244 0.0083,-0.207342 -0.0017,-0.105107 -0.0033,-0.238001 -0.0017,-0.132903 -0.01365,-0.237726 -0.01198,-0.104824 -0.02223,-0.204286 -0.01024,-0.09946 -0.02556,-0.171938 -0.01532,-0.0725 -0.03612,-0.154663 -0.02073,-0.08217 -0.03579,-0.148486 -0.01506,-0.06635 -0.02231,-0.187887 -0.0075,-0.121581 -0.01506,-0.207192 -0.0075,-0.08561 -0.0169,-0.212618 -0.0092,-0.127017 -0.01623,-0.228911 -0.0066,-0.101893 -0.01631,-0.231425 -0.0093,-0.129539 -0.03106,-0.232631 -0.02172,-0.1031 -0.04012,-0.184282 -0.01831,-0.08116 -0.05269,-0.144408 -0.0343,-0.06327 -0.06535,-0.106188 -0.03106,-0.04295 -0.09956,-0.130655 -0.06852,-0.0877 -0.110901,-0.122564 -0.04237,-0.03488 -0.110143,-0.08066 -0.06777,-0.04579 -0.166484,-0.08924 -0.0987,-0.04346 -0.161772,-0.06202 -0.0631,-0.01856 -0.159242,-0.05036 -0.09618,-0.0318 -0.167325,-0.05461 -0.07118,-0.02281 -0.137139,-0.04595 -0.06601,-0.02314 -0.128242,-0.03671 -0.06227,-0.01357 -0.200798,-0.02963 -0.13853,-0.01598 -0.245227,-0.02706 -0.106696,-0.01099 -0.215449,-0.01923 -0.108753,-0.0083 -0.212578,-0.01174 -0.103825,-0.0033 -0.213951,-0.0033 -0.110127,0 -0.241655,0.01199 -0.131521,0.01198 -0.211421,0.03022 -0.07991,0.01815 -0.184616,0.04562 -0.104731,0.02747 -0.13013,0.03089 -0.02539,0.0033 -0.121589,0.01598 -0.09619,0.01249 -0.200482,0.02689 -0.104299,0.01431 -0.231982,0.03763 -0.127683,0.02323 -0.253393,0.04978 -0.125719,0.02655 -0.180595,0.04137 -0.05485,0.01473 -0.108062,0.0303 -0.0532,0.01556 -0.148113,0.03721 -0.09492,0.02165 -0.203187,0.03838 -0.108263,0.01673 -0.197677,0.02781 -0.08941,0.01099 -0.187795,0.04445 -0.09838,0.03339 -0.195704,0.07551 -0.09732,0.04212 -0.155378,0.08823 -0.05802,0.04612 -0.135984,0.108712 -0.07791,0.0626 -0.138946,0.105431 -0.06102,0.04287 -0.08736,0.06576 -0.02631,0.02289 -0.08748,0.07859 -0.06111,0.05569 -0.117994,0.120524 -0.05685,0.06485 -0.08621,0.118635 -0.02939,0.05377 -0.05927,0.114205 -0.02989,0.06043 -0.0725,0.166176 -0.04254,0.105747 -0.04704,0.165451 -0.0042,0.05969 -0.02264,0.192624 -0.01823,0.132919 -0.03214,0.246734 -0.0139,0.113822 -0.01457,0.210762 -6.33e-4,0.09694 -6.33e-4,0.207067 0,0.110127 0,0.220253 0,0.110127 0,0.220261 0,0.110127 0.0066,0.220644 0.0066,0.110527 0.01515,0.211121 0.0087,0.100586 0.0179,0.197128 0.0092,0.09654 0.04129,0.167366 0.03214,0.07085 0.08522,0.158384 0.05303,0.08757 0.07775,0.124386 0.02464,0.0368 0.08175,0.09482 0.05702,0.05794 0.12601,0.133386 0.06893,0.07542 0.115546,0.111233 0.04662,0.03579 0.123412,0.08949 0.07683,0.05369 0.130006,0.08965 0.0532,0.03596 0.126992,0.08928 0.07384,0.05328 0.126276,0.08697 0.05245,0.03372 0.135709,0.08663 0.08325,0.05294 0.155553,0.09721 0.07234,0.04421 0.127126,0.07942 0.05478,0.03521 0.120057,0.05927 0.06527,0.02406 0.138114,0.05977 0.07284,0.03579 0.140112,0.06443 0.06727,0.02864 0.165471,0.06751 0.09822,0.03888 0.177005,0.06768 0.07875,0.0288 0.180511,0.05843 0.101719,0.02963 0.133777,0.03638 0.03205,0.0066 0.169199,0.0298 0.13714,0.02306 0.258903,0.03296 0.121765,0.0099 0.225148,0.01132 0.103392,0.0017 0.204503,0.0033 0.101111,0.0017 0.220327,0.0033 0.119226,0.0017 0.229353,0.0017 0.110126,0 0.220253,0 0.110125,0 0.220252,0 0.110135,0 0.220262,0 0.110126,0 0.219886,-0.0086 0.10976,-0.0086 0.207832,-0.0092 0.09807,-4.4e-4 0.219471,-0.02273 m 13.66182,1.510765 q 0.08883,-0.0097 0.181177,-0.02739 0.09234,-0.01765 0.128708,-0.02764 0.03638,-0.01 0.128523,-0.04587 0.09215,-0.03596 0.182784,-0.07792 0.09063,-0.04196 0.163046,-0.0725 0.07243,-0.03055 0.149427,-0.081 0.077,-0.05045 0.142584,-0.09013 0.0656,-0.03962 0.09048,-0.06951 0.02489,-0.0298 0.101227,-0.102526 0.07633,-0.07268 0.145157,-0.140761 0.06885,-0.0681 0.113647,-0.132669 0.04478,-0.0646 0.07808,-0.115796 0.03322,-0.0512 0.07967,-0.151791 0.04645,-0.100595 0.0676,-0.145881 0.02115,-0.04529 0.04412,-0.09951 0.02297,-0.05419 0.06626,-0.178671 0.04329,-0.124444 0.07325,-0.196369 0.02997,-0.07193 0.04645,-0.162089 0.01648,-0.09016 0.03313,-0.162531 0.01665,-0.07234 0.02922,-0.181967 0.01257,-0.109594 0.02131,-0.20675 0.0087,-0.09716 0.01499,-0.198135 0.0058,-0.100969 0.01074,-0.224898 0.0042,-0.123928 8.31e-4,-0.238125 -0.0033,-0.114198 -0.01515,-0.224199 -0.01148,-0.110002 -0.01765,-0.210263 -0.0059,-0.100263 -0.02605,-0.230776 -0.0199,-0.130514 -0.03214,-0.202446 -0.01224,-0.07193 -0.02581,-0.106273 -0.01348,-0.03438 -0.05511,-0.122929 -0.04162,-0.08858 -0.08712,-0.158976 -0.04553,-0.07043 -0.09472,-0.124894 -0.0492,-0.05452 -0.107129,-0.09067 -0.05794,-0.03613 -0.146914,-0.07426 -0.08901,-0.03812 -0.1743,-0.05645 -0.08529,-0.01831 -0.19339,-0.0368 -0.108094,-0.01848 -0.237426,-0.04146 -0.129332,-0.02297 -0.213668,-0.04687 -0.08434,-0.02389 -0.126992,-0.03305 -0.04262,-0.0092 -0.112257,-0.03205 -0.0696,-0.02289 -0.206901,-0.0646 -0.137298,-0.04179 -0.18966,-0.05769 -0.05236,-0.0159 -0.129564,-0.04704 -0.07717,-0.03113 -0.130938,-0.05411 -0.05377,-0.02298 -0.163513,-0.05969 -0.10976,-0.03671 -0.221068,-0.07742 -0.1113,-0.04071 -0.13669,-0.04595 -0.02539,-0.005 -0.157152,-0.03238 -0.131772,-0.02714 -0.212453,-0.04562 -0.08066,-0.0184 -0.189535,-0.04595 -0.108862,-0.02748 -0.198543,-0.06044 -0.08967,-0.03288 -0.156828,-0.05577 -0.06718,-0.02289 -0.147562,-0.03646 -0.08042,-0.01365 -0.185913,-0.03047 -0.105507,-0.0169 -0.200199,-0.03688 -0.09468,-0.01998 -0.180886,-0.03621 -0.08619,-0.01623 -0.171179,-0.03238 -0.08499,-0.01615 -0.158401,-0.02414 -0.07342,-0.0083 -0.173885,-8.33e-4 -0.100478,0.0066 -0.152041,0.01798 -0.05153,0.01099 -0.105248,0.02264 -0.05369,0.01165 -0.153565,0.03139 -0.09989,0.01973 -0.200931,0.05028 -0.101053,0.03055 -0.180635,0.07426 -0.07958,0.04362 -0.125902,0.09395 -0.04629,0.05028 -0.09006,0.104392 -0.0437,0.05411 -0.08814,0.115287 -0.04437,0.06118 -0.08724,0.172861 -0.04287,0.111666 -0.07092,0.188428 -0.02805,0.07676 -0.04196,0.131055 -0.0139,0.05428 -0.03821,0.152623 -0.02431,0.09832 -0.03704,0.182276 -0.01266,0.08396 -0.04129,0.181136 -0.02864,0.09717 -0.06144,0.206942 -0.03289,0.109776 -0.04712,0.167657 -0.01424,0.05786 -0.04354,0.140146 -0.0293,0.08224 -0.06518,0.172669 -0.03588,0.09041 -0.0651,0.172361 -0.02922,0.08191 -0.05411,0.146239 -0.02489,0.06426 -0.04529,0.131836 -0.0204,0.06751 -0.06193,0.184616 -0.04154,0.117069 -0.06692,0.194879 -0.02539,0.07784 -0.04337,0.159508 -0.0179,0.08167 -0.02564,0.143059 -0.0075,0.06135 -0.01939,0.172295 -0.01165,0.110926 -0.02447,0.234021 -0.01282,0.123105 -0.0139,0.219762 -8.33e-4,0.09666 -0.0033,0.225714 -0.0025,0.129057 -0.0033,0.216815 -0.0017,0.08776 0.03339,0.203861 0.03471,0.116105 0.06019,0.188312 0.02548,0.07217 0.07709,0.124486 0.05161,0.05228 0.09312,0.09109 0.04146,0.0388 0.107345,0.08517 0.06584,0.04637 0.121748,0.08259 0.05586,0.03621 0.139279,0.08208 0.0834,0.04586 0.165328,0.08635 0.08191,0.04054 0.173385,0.08167 0.09145,0.04113 0.135708,0.05935 0.04429,0.01823 0.114505,0.03372 0.07026,0.01548 0.207924,0.04478 0.137681,0.0293 0.222359,0.04546 0.08467,0.01607 0.218871,0.03763 0.134202,0.02148 0.194397,0.03779 0.06019,0.01631 0.14956,0.03571 0.08937,0.01948 0.163013,0.03454 0.07367,0.01506 0.169082,0.0248 0.09543,0.0097 0.236377,0.02106 0.140944,0.01132 0.225214,0.01615 0.08427,0.005 0.186805,0.01016 0.102543,0.005 0.212669,0.005 0.110127,0 0.220253,0 0.110135,0 0.220261,0 0.110127,0 0.220253,0 0.110127,0 0.221693,-0.005 0.111566,-0.005 0.231142,-0.0129 0.119567,-0.0075 0.225689,-0.02572 0.106122,-0.01823 0.194945,-0.02797 m 2.145071,-12.673059 q 0.07301,0.04645 0.09657,0.06619 0.02356,0.01973 0.03205,-0.02148 0.0085,-0.04129 0.03805,-0.175282 0.02947,-0.134027 0.04937,-0.222176 0.0199,-0.08815 0.03339,-0.141985 0.01348,-0.05386 0.04329,-0.16626 0.02981,-0.112432 0.04979,-0.180918 0.02007,-0.06852 0.05211,-0.164362 0.03205,-0.09588 0.0596,-0.171312 0.02755,-0.07542 0.04911,-0.153398 0.02156,-0.078 0.04504,-0.17803 0.02348,-0.100079 0.03771,-0.199584 0.01415,-0.0995 0.03196,-0.204152 0.01781,-0.104658 0.03513,-0.187163 0.01732,-0.0825 0.0397,-0.177164 0.0224,-0.09465 0.03696,-0.161058 0.01457,-0.06643 0.02939,-0.142333 0.01482,-0.07592 0.03188,-0.191709 0.01706,-0.115778 0.03763,-0.209763 0.02048,-0.09397 0.05045,-0.221727 0.02988,-0.127741 0.04911,-0.190517 0.01915,-0.06276 0.0313,-0.141485 0.01207,-0.07875 0.02473,-0.151866 0.01266,-0.07318 0.03255,-0.209906 0.01981,-0.136765 0.02581,-0.213893 0.0059,-0.07717 0.03122,-0.208081 0.02522,-0.130956 0.05569,-0.218697 0.03047,-0.08775 0.04254,-0.129997 0.01207,-0.04229 0.03388,-0.153173 0.02181,-0.110918 0.04045,-0.191325 0.01864,-0.08042 0.04471,-0.183125 0.02614,-0.102718 0.05419,-0.204262 0.02805,-0.101543 0.04903,-0.179137 0.02097,-0.07758 0.03339,-0.125685 0.01249,-0.04812 0.03696,-0.174435 0.02456,-0.126334 0.04154,-0.229277 0.01699,-0.10295 0.04129,-0.206291 0.02431,-0.103343 0.03713,-0.154764 0.01282,-0.05144 0.0353,-0.144316 0.02247,-0.0929 0.03188,-0.175008 0.0093,-0.08208 0.01998,-0.196369 0.01066,-0.114264 0.01881,-0.210072 0.0083,-0.09581 0.0139,-0.204528 0.0059,-0.10872 0.0066,-0.212394 8.32e-4,-0.103675 0.0033,-0.225231 0.0025,-0.121565 0.0025,-0.231691 0,-0.110127 0,-0.220262 0,-0.110127 -0.01856,-0.225306 -0.01856,-0.1151793 -0.03796,-0.1985183 -0.01939,-0.08333 -0.05261,-0.127424 -0.03322,-0.04412 -0.07092,-0.08456 -0.03771,-0.04045 -0.132229,-0.05678 -0.09449,-0.01632 -0.23144,-0.04678 -0.136949,-0.03047 -0.224166,-0.05403 -0.08722,-0.02356 -0.164511,-0.04471 -0.07725,-0.02106 -0.149885,-0.03671 -0.07259,-0.01565 -0.160831,-0.02247 -0.08822,-0.0066 -0.206027,-0.02422 -0.117785,-0.0174 -0.213085,-0.01465 -0.09529,0.0025 -0.181885,0.01374 -0.08658,0.01107 -0.15741,0.04637 -0.07085,0.0353 -0.144915,0.07043 -0.07409,0.03513 -0.113464,0.06652 -0.03937,0.03139 -0.09758,0.07085 -0.05819,0.03946 -0.147854,0.116844 -0.08964,0.07742 -0.141202,0.121632 -0.05153,0.04429 -0.10663,0.09931 -0.05502,0.05503 -0.110126,0.1101263 -0.05511,0.05502 -0.10539,0.109003 -0.05028,0.05395 -0.103476,0.124977 -0.0532,0.07101 -0.09282,0.125669 -0.03971,0.05461 -0.102269,0.15443 -0.0626,0.0998 -0.0993,0.15652 -0.03671,0.05669 -0.07209,0.13416 -0.03546,0.07742 -0.06043,0.131911 -0.02497,0.05445 -0.05894,0.119375 -0.03396,0.06494 -0.07118,0.134993 -0.03721,0.07009 -0.06843,0.131154 -0.03122,0.06102 -0.06818,0.140911 -0.03696,0.07984 -0.07409,0.157244 -0.03721,0.07742 -0.07017,0.145114 -0.03297,0.06777 -0.07525,0.148537 -0.04229,0.08083 -0.0837,0.161364 -0.04137,0.08059 -0.07934,0.152607 -0.03796,0.07201 -0.07292,0.147079 -0.03496,0.07509 -0.07567,0.164021 -0.04071,0.08897 -0.07892,0.165594 -0.03821,0.07659 -0.07043,0.13773 -0.0323,0.06111 -0.07026,0.131146 -0.03796,0.07001 -0.07209,0.132253 -0.03413,0.06226 -0.06817,0.135575 -0.03396,0.07334 -0.06693,0.136957 -0.03297,0.0636 -0.07085,0.14161 -0.03788,0.078 -0.07259,0.154796 -0.03471,0.07683 -0.06402,0.178513 -0.0293,0.101694 -0.05353,0.162771 -0.02423,0.06111 -0.0616,0.159892 -0.03738,0.09881 -0.05828,0.164478 -0.02089,0.06568 -0.0353,0.135858 -0.0144,0.07017 -0.01548,0.127708 -8.32e-4,0.05753 0.01906,0.168515 0.02014,0.111017 0.03146,0.147754 0.01132,0.03671 0.07301,0.09709 0.06169,0.06036 0.12392,0.109527 0.06219,0.0492 0.129598,0.09589 0.06734,0.0467 0.121689,0.08408 0.05428,0.03738 0.120865,0.09361 0.06659,0.05628 0.110976,0.09887 0.04437,0.04262 0.117244,0.1107 0.07284,0.0681 0.101935,0.0946 0.02913,0.02656 0.119933,0.106305 0.09083,0.07975 0.14141,0.115329 0.05061,0.03555 0.117061,0.08299 0.06652,0.04744 0.139462,0.104706 0.07301,0.05727 0.127267,0.103759 0.05428,0.04654 0.122788,0.131245 0.06851,0.08473 0.106197,0.145515 0.03771,0.06077 0.06351,0.10052 0.02589,0.03971 0.08033,0.09583 0.05445,0.0561 0.115446,0.124953 0.06102,0.06885 0.09895,0.127566 0.03796,0.05869 0.08628,0.1194 0.04837,0.06069 0.08632,0.112782 0.03796,0.05212 0.08963,0.129173 0.0517,0.07709 0.102618,0.147804 0.05094,0.07076 0.08059,0.11607 0.02963,0.04537 0.08401,0.123771 0.05436,0.07842 0.103966,0.153164 0.04962,0.07476 0.08438,0.129041 0.0348,0.05428 0.08983,0.136948 0.05503,0.08266 0.09176,0.127366 0.03671,0.0447 0.111067,0.105931 0.07434,0.06127 0.123604,0.08985 0.04928,0.02864 0.122239,0.07509"
       id="path74216" />
  </g>
</svg>
