<?xml version="1.0" encoding="UTF-8" standalone="no"?>
<svg
   xmlns:dc="http://purl.org/dc/elements/1.1/"
   xmlns:cc="http://creativecommons.org/ns#"
   xmlns:rdf="http://www.w3.org/1999/02/22-rdf-syntax-ns#"
   xmlns:svg="http://www.w3.org/2000/svg"
   xmlns="http://www.w3.org/2000/svg"
   xmlns:sodipodi="http://sodipodi.sourceforge.net/DTD/sodipodi-0.dtd"
   xmlns:inkscape="http://www.inkscape.org/namespaces/inkscape"
   width="200"
   height="200"
   viewBox="0 0 52.916668 52.916666"
   version="1.1"
   id="svg8"
   inkscape:version="1.0.2-2 (e86c870879, 2021-01-15)"
   sodipodi:docname="lib.svg">
  <defs
     id="defs2">
    <rect
       x="-268.4576"
       y="130.43551"
       width="120.12083"
       height="27.384375"
       id="rect867" />
    <inkscape:path-effect
       effect="envelope"
       id="path-effect4658"
       is_visible="true"
       yy="true"
       xx="true"
       bendpath1="m -199.08406,108.42369 h 7.0057"
       bendpath2="m -192.07836,108.42369 v 6.75242"
       bendpath3="m -199.08406,115.17611 h 7.0057"
       bendpath4="m -199.08406,108.42369 v 6.75242" />
    <inkscape:path-effect
       effect="bend_path"
       id="path-effect4656"
       is_visible="true"
       bendpath="m -192.00142,114.60623 c 2.12577,-0.53066 4.48261,0.85111 7.0057,0"
       prop_scale="1"
       scale_y_rel="false"
       vertical="false"
       bendpath-nodetypes="cc" />
    <inkscape:path-effect
       effect="bounding_box"
       id="path-effect4654"
       is_visible="true"
       linkedpath=""
       visualbounds="false" />
  </defs>
  <sodipodi:namedview
     id="base"
     pagecolor="#ffffff"
     bordercolor="#666666"
     borderopacity="1.0"
     inkscape:pageopacity="0.0"
     inkscape:pageshadow="2"
     inkscape:zoom="4"
     inkscape:cx="117.23083"
     inkscape:cy="94.759185"
     inkscape:document-units="mm"
     inkscape:current-layer="layer1"
     showgrid="false"
     fit-margin-top="0"
     fit-margin-left="0"
     fit-margin-right="0"
     fit-margin-bottom="0"
     inkscape:window-width="1920"
     inkscape:window-height="1017"
     inkscape:window-x="-8"
     inkscape:window-y="-8"
     inkscape:window-maximized="1"
     showguides="false"
     inkscape:object-nodes="true"
     units="px"
     inkscape:snap-page="true"
     inkscape:document-rotation="0" />
  <metadata
     id="metadata5">
    <rdf:RDF>
      <cc:Work
         rdf:about="">
        <dc:format>image/svg+xml</dc:format>
        <dc:type
           rdf:resource="http://purl.org/dc/dcmitype/StillImage" />
        <dc:title />
      </cc:Work>
    </rdf:RDF>
  </metadata>
  <g
     inkscape:label="Layer 1"
     inkscape:groupmode="layer"
     id="layer1"
     transform="translate(249.80447,-91.409467)">
    <rect
       y="91.40947"
       x="-249.80447"
       height="52.916668"
       width="52.916668"
       id="rect5238-5"
       style="fill:#222222;fill-opacity:1;fill-rule:nonzero;stroke:none;stroke-width:0.5;stroke-linecap:butt;stroke-linejoin:round;stroke-miterlimit:4;stroke-dasharray:none;stroke-dashoffset:0;stroke-opacity:0.909449;paint-order:normal"
       rx="3.96875"
       ry="3.96875" />
    <rect
       style="fill:#ff6600;fill-opacity:1;fill-rule:nonzero;stroke:none;stroke-width:0.5;stroke-linecap:butt;stroke-linejoin:round;stroke-miterlimit:4;stroke-dasharray:none;stroke-dashoffset:0;stroke-opacity:0.909449;paint-order:normal"
       id="rect5240-3"
       width="47.625"
       height="47.625"
       x="-247.15863"
       y="94.055298"
       rx="2.6458333"
       ry="2.6458333" />
    <path
       inkscape:connector-curvature="0"
       id="path5244-6"
       d="m -248.34926,128.45114 v 8.33437 c 0,3.07816 2.47808,5.55625 5.55625,5.55625 h 38.89375 c 3.07816,0 5.55625,-2.47809 5.55625,-5.55625 v -8.33437 z"
       style="fill:#222222;fill-opacity:1;fill-rule:nonzero;stroke:none;stroke-width:0.5;stroke-linecap:butt;stroke-linejoin:round;stroke-miterlimit:4;stroke-dasharray:none;stroke-dashoffset:0;stroke-opacity:0.909449;paint-order:normal" />
    <g
       aria-label="LIB-UNITY"
       transform="matrix(0.77490306,0,0,0.77490306,-37.403295,29.605186)"
       id="text865"
       style="font-style:normal;font-weight:normal;font-size:10.5833px;line-height:1.25;font-family:sans-serif;white-space:pre;shape-inside:url(#rect867);fill:#eeeeee;fill-opacity:1;stroke:none;stroke-width:1.29049">
      <path
         d="m -267.57862,132.75428 h 1.7145 v 6.01131 h 3.71474 v 1.397 h -5.42924 z"
         style="font-style:normal;font-variant:normal;font-weight:bold;font-stretch:normal;font-family:Montserrat;-inkscape-font-specification:'Montserrat Bold';fill:#eeeeee;fill-opacity:1;stroke-width:1.82929"
         id="path871" />
      <path
         d="m -261.18632,132.75428 h 1.71449 v 7.40831 h -1.71449 z"
         style="font-style:normal;font-variant:normal;font-weight:bold;font-stretch:normal;font-family:Montserrat;-inkscape-font-specification:'Montserrat Bold';fill:#eeeeee;fill-opacity:1;stroke-width:1.82929"
         id="path873" />
      <path
         d="m -252.27519,136.31027 q 0.63499,0.20108 0.99483,0.67733 0.35983,0.46566 0.35983,1.15358 0,0.97366 -0.762,1.50283 -0.75141,0.51858 -2.20133,0.51858 h -3.83115 v -7.40831 h 3.61949 q 1.35466,0 2.07433,0.51858 0.73024,0.51858 0.73024,1.40758 0,0.53975 -0.26458,0.96308 -0.254,0.42333 -0.71966,0.66675 z m -3.73591,-2.26483 v 1.74625 h 1.70391 q 0.635,0 0.96308,-0.22225 0.32809,-0.22225 0.32809,-0.65617 0,-0.43391 -0.32809,-0.64558 -0.32808,-0.22225 -0.96308,-0.22225 z m 2.00024,4.82599 q 0.67734,0 1.016,-0.22225 0.34925,-0.22225 0.34925,-0.68792 0,-0.92074 -1.36525,-0.92074 h -2.00024 v 1.83091 z"
         style="font-style:normal;font-variant:normal;font-weight:bold;font-stretch:normal;font-family:Montserrat;-inkscape-font-specification:'Montserrat Bold';fill:#eeeeee;fill-opacity:1;stroke-width:1.82929"
         id="path875" />
      <path
         d="m -249.94687,136.52193 h 2.99507 v 1.32292 h -2.99507 z"
         style="font-style:normal;font-variant:normal;font-weight:bold;font-stretch:normal;font-family:Montserrat;-inkscape-font-specification:'Montserrat Bold';fill:#eeeeee;fill-opacity:1;stroke-width:1.82929"
         id="path877" />
      <path
         d="m -242.24224,140.28959 q -1.58749,0 -2.47649,-0.87842 -0.87841,-0.87841 -0.87841,-2.50824 v -4.14865 h 1.71449 v 4.08515 q 0,1.98966 1.651,1.98966 0.80433,0 1.22766,-0.47625 0.42333,-0.48683 0.42333,-1.51341 v -4.08515 h 1.69333 v 4.14865 q 0,1.62983 -0.889,2.50824 -0.87841,0.87842 -2.46591,0.87842 z"
         style="font-style:normal;font-variant:normal;font-weight:bold;font-stretch:normal;font-family:Montserrat;-inkscape-font-specification:'Montserrat Bold';fill:#eeeeee;fill-opacity:1;stroke-width:1.82929"
         id="path879" />
      <path
         d="m -230.39954,132.75428 v 7.40831 h -1.40758 l -3.69357,-4.4979 v 4.4979 h -1.69333 v -7.40831 h 1.41816 l 3.68299,4.4979 v -4.4979 z"
         style="font-style:normal;font-variant:normal;font-weight:bold;font-stretch:normal;font-family:Montserrat;-inkscape-font-specification:'Montserrat Bold';fill:#eeeeee;fill-opacity:1;stroke-width:1.82929"
         id="path881" />
      <path
         d="m -228.64273,132.75428 h 1.71449 v 7.40831 h -1.71449 z"
         style="font-style:normal;font-variant:normal;font-weight:bold;font-stretch:normal;font-family:Montserrat;-inkscape-font-specification:'Montserrat Bold';fill:#eeeeee;fill-opacity:1;stroke-width:1.82929"
         id="path883" />
      <path
         d="m -223.63684,134.15127 h -2.37066 v -1.39699 h 6.45581 v 1.39699 h -2.37065 v 6.01132 h -1.7145 z"
         style="font-style:normal;font-variant:normal;font-weight:bold;font-stretch:normal;font-family:Montserrat;-inkscape-font-specification:'Montserrat Bold';fill:#eeeeee;fill-opacity:1;stroke-width:1.82929"
         id="path885" />
      <path
         d="m -215.21256,137.53793 v 2.62466 h -1.71449 v -2.64583 l -2.86808,-4.76248 h 1.82033 l 1.97908,3.29141 1.97907,-3.29141 h 1.68275 z"
         style="font-style:normal;font-variant:normal;font-weight:bold;font-stretch:normal;font-family:Montserrat;-inkscape-font-specification:'Montserrat Bold';fill:#eeeeee;fill-opacity:1;stroke-width:1.82929"
         id="path887" />
    </g>
    <polygon
       class="st0"
       points="116.7,216.1 136.3,216.1 136.3,197.4 25.2,197.4 25.2,216.1 44.7,216.1 44.7,226.4 61.9,226.4 73.3,390.1 88.1,390.1 99.4,226.4 116.7,226.4 "
       id="polygon4"
       style="fill:#222222;fill-opacity:1;stroke-width:2.57824"
       transform="matrix(0.10262166,0,0,0.10262166,-232.4692,92.444174)" />
    <path
       style="fill:#222222;fill-opacity:1;stroke-width:0.264583"
       d="m -231.51482,106.96201 c 0.0205,-0.19498 0.0308,-0.38996 0.0616,-0.58494 0.0718,-0.50285 0.22577,-0.97491 0.44128,-1.4367 0.28734,-0.61573 0.6773,-1.15963 1.14936,-1.64195 0.56442,-0.58494 1.2212,-1.057 1.94981,-1.42644 0.62599,-0.30787 1.27251,-0.53364 1.96008,-0.63626 0.18471,-0.0308 0.3797,-0.0513 0.56441,-0.0103 0.25656,0.0513 0.43102,0.19498 0.47206,0.4618 0,0 0,0.0103 0,0.0103 0.10263,-0.0205 0.20525,-0.041 0.30787,-0.0616 0.35917,-0.0513 0.70809,-0.041 1.057,0.0718 0.14367,0.0513 0.27708,0.12315 0.3797,0.23603 0.1642,0.17446 0.20525,0.3797 0.18472,0.60547 -0.0103,0.0718 -0.0205,0.14367 -0.0308,0.22577 -0.0308,-0.0205 -0.0616,-0.0308 -0.0821,-0.041 -0.34892,-0.17446 -0.69783,-0.17446 -1.05701,-0.041 -0.34891,0.13341 -0.62599,0.35918 -0.86202,0.63626 -0.30786,0.36943 -0.50284,0.80045 -0.63625,1.26224 -0.10262,0.34892 -0.1642,0.70809 -0.20525,1.06727 0,0.0205 0,0.0411 0,0.0616 0.10263,-0.0205 0.20525,-0.041 0.30787,-0.0616 0.99543,-0.22577 1.94981,-0.56442 2.86314,-1.02622 0.94412,-0.47206 1.80615,-1.06726 2.58607,-1.78562 1.16989,-1.01595 2.08322,-2.24741 2.80157,-3.622546 0.51311,-0.99543 0.91333,-2.031909 1.18015,-3.119698 0.11288,-0.461798 0.20524,-0.933858 0.25655,-1.405917 0,-0.01026 0,-0.02053 0,-0.03079 0,0 0.0103,0 0.0103,0 0.15393,0.123146 0.26681,0.287341 0.35917,0.461798 0.14367,0.297603 0.22577,0.61573 0.26682,0.944119 0.0205,0.184719 0.0308,0.369438 0.0513,0.564419 0,0.14367 0,0.277079 0,0.420749 -0.0103,0.123146 -0.0103,0.23603 -0.0205,0.359176 -0.0513,0.595205 -0.15394,1.180149 -0.29761,1.765092 -0.23603,0.933858 -0.58494,1.816408 -1.03648,2.668168 -0.73887,1.39566 -1.71378,2.61686 -2.92471,3.64307 -1.25199,1.04674 -2.66817,1.80614 -4.21775,2.28847 -0.14367,0.041 -0.28734,0.0821 -0.43101,0.1334 0,0.0205 0,0.0308 0,0.0513 0,0.0205 0,0.0308 0,0.0513 0.0205,0 0.041,0 0.0616,0 0.41048,-0.0103 0.82097,-0.0718 1.2212,-0.18472 0.71835,-0.18472 1.40591,-0.48232 2.06269,-0.83124 0.82097,-0.44127 1.58037,-0.96464 2.28846,-1.57011 0.66705,-0.56442 1.27251,-1.19041 1.78562,-1.90876 0.35918,-0.50285 0.66704,-1.04674 0.87229,-1.63169 0.0513,-0.15393 0.0924,-0.2976 0.14367,-0.4618 0.0103,0.0205 0.0205,0.0308 0.0308,0.0513 0.0718,0.14368 0.12315,0.29761 0.15393,0.45154 0.0924,0.44127 0.0718,0.88255 -0.0103,1.32382 -0.10262,0.58494 -0.2976,1.12884 -0.56442,1.66247 -0.3797,0.76966 -0.88254,1.44697 -1.47775,2.0627 -0.54389,0.55415 -1.1391,1.03648 -1.78562,1.44696 -1.04674,0.66704 -2.16531,1.15963 -3.35572,1.5188 -0.7594,0.22577 -1.5188,0.40023 -2.29873,0.52337 -0.0924,0.0103 -0.0924,0.0205 -0.0821,0.11289 0.0103,0 0.0308,0.0103 0.0411,0.0103 0.25656,0 0.50285,0.0205 0.7594,0.0103 0.69783,-0.0205 1.3854,-0.13341 2.0627,-0.32839 0.9749,-0.27708 1.87797,-0.69782 2.74,-1.22119 0.70809,-0.43102 1.36486,-0.9236 1.97033,-1.48802 0.0103,-0.0103 0.0103,-0.0103 0.0205,-0.0103 -0.041,0.42075 -0.20525,0.94412 -0.40023,1.32382 -0.30786,0.60547 -0.73887,1.10831 -1.26224,1.52906 -0.60547,0.50285 -1.28277,0.87229 -2.00113,1.15963 -0.83123,0.33865 -1.69325,0.55415 -2.58606,0.6773 -0.63626,0.0924 -1.27251,0.12314 -1.90877,0.11288 -0.55415,-0.0103 -1.09805,-0.0718 -1.63168,-0.17445 -0.58494,-0.11289 -1.14936,-0.27708 -1.69326,-0.53364 -0.45153,-0.20524 -0.86202,-0.47206 -1.22119,-0.82097 -0.30787,-0.2976 -0.5439,-0.64652 -0.71836,-1.03648 -0.23603,-0.54389 -0.43101,-1.10831 -0.5131,-1.69326 -0.0308,-0.2155 -0.0513,-0.44127 -0.0718,-0.66704 -0.041,-0.16419 -0.041,-0.31812 -0.041,-0.47206 z"
       id="path6" />
  </g>
</svg>
