<?xml version="1.0" encoding="UTF-8" standalone="no"?>
<svg
   xmlns:dc="http://purl.org/dc/elements/1.1/"
   xmlns:cc="http://creativecommons.org/ns#"
   xmlns:rdf="http://www.w3.org/1999/02/22-rdf-syntax-ns#"
   xmlns:svg="http://www.w3.org/2000/svg"
   xmlns="http://www.w3.org/2000/svg"
   xmlns:sodipodi="http://sodipodi.sourceforge.net/DTD/sodipodi-0.dtd"
   xmlns:inkscape="http://www.inkscape.org/namespaces/inkscape"
   width="200"
   height="200"
   viewBox="0 0 52.916668 52.916666"
   version="1.1"
   id="svg8"
   inkscape:version="1.0.2-2 (e86c870879, 2021-01-15)"
   sodipodi:docname="liked.svg">
  <defs
     id="defs2">
    <rect
       x="-310.1698"
       y="126.78092"
       width="57.003579"
       height="44.725885"
       id="rect903" />
    <rect
       x="-245.67036"
       y="131.61373"
       width="63.045247"
       height="19.533691"
       id="rect918" />
    <inkscape:path-effect
       effect="envelope"
       id="path-effect4658"
       is_visible="true"
       yy="true"
       xx="true"
       bendpath1="m -199.08406,108.42369 h 7.0057"
       bendpath2="m -192.07836,108.42369 v 6.75242"
       bendpath3="m -199.08406,115.17611 h 7.0057"
       bendpath4="m -199.08406,108.42369 v 6.75242" />
    <inkscape:path-effect
       effect="bend_path"
       id="path-effect4656"
       is_visible="true"
       bendpath="m -192.00142,114.60623 c 2.12577,-0.53066 4.48261,0.85111 7.0057,0"
       prop_scale="1"
       scale_y_rel="false"
       vertical="false"
       bendpath-nodetypes="cc" />
    <inkscape:path-effect
       effect="bounding_box"
       id="path-effect4654"
       is_visible="true"
       linkedpath=""
       visualbounds="false" />
  </defs>
  <sodipodi:namedview
     id="base"
     pagecolor="#ffffff"
     bordercolor="#666666"
     borderopacity="1.0"
     inkscape:pageopacity="0.0"
     inkscape:pageshadow="2"
     inkscape:zoom="1.8101934"
     inkscape:cx="4.0098524"
     inkscape:cy="142.8161"
     inkscape:document-units="mm"
     inkscape:current-layer="layer1"
     showgrid="false"
     fit-margin-top="0"
     fit-margin-left="0"
     fit-margin-right="0"
     fit-margin-bottom="0"
     inkscape:window-width="1920"
     inkscape:window-height="1017"
     inkscape:window-x="-8"
     inkscape:window-y="-8"
     inkscape:window-maximized="1"
     showguides="false"
     inkscape:object-nodes="true"
     units="px"
     inkscape:snap-page="true"
     inkscape:document-rotation="0" />
  <metadata
     id="metadata5">
    <rdf:RDF>
      <cc:Work
         rdf:about="">
        <dc:format>image/svg+xml</dc:format>
        <dc:type
           rdf:resource="http://purl.org/dc/dcmitype/StillImage" />
        <dc:title />
      </cc:Work>
    </rdf:RDF>
  </metadata>
  <g
     inkscape:label="Layer 1"
     inkscape:groupmode="layer"
     id="layer1"
     transform="translate(249.80447,-91.409467)">
    <rect
       y="91.40947"
       x="-249.80447"
       height="52.916668"
       width="52.916668"
       id="rect5238-5"
       style="fill:#222222;fill-opacity:1;fill-rule:nonzero;stroke:none;stroke-width:0.5;stroke-linecap:butt;stroke-linejoin:round;stroke-miterlimit:4;stroke-dasharray:none;stroke-dashoffset:0;stroke-opacity:0.909449;paint-order:normal"
       rx="3.96875"
       ry="3.96875" />
    <rect
       style="fill:#52ce3c;fill-opacity:1;fill-rule:nonzero;stroke:none;stroke-width:0.5;stroke-linecap:butt;stroke-linejoin:round;stroke-miterlimit:4;stroke-dasharray:none;stroke-dashoffset:0;stroke-opacity:0.909449;paint-order:normal"
       id="rect5240-3"
       width="47.625"
       height="47.625"
       x="-247.15863"
       y="94.055298"
       rx="2.6458333"
       ry="2.6458333" />
    <path
       inkscape:connector-curvature="0"
       id="path5244-6"
       d="m -248.34926,128.45114 v 8.33437 c 0,3.07816 2.47808,5.55625 5.55625,5.55625 h 38.89375 c 3.07816,0 5.55625,-2.47809 5.55625,-5.55625 v -8.33437 z"
       style="fill:#222222;fill-opacity:1;fill-rule:nonzero;stroke:none;stroke-width:0.5;stroke-linecap:butt;stroke-linejoin:round;stroke-miterlimit:4;stroke-dasharray:none;stroke-dashoffset:0;stroke-opacity:0.909449;paint-order:normal" />
    <g
       id="g1034"
       transform="matrix(1.2446447,0,0,1.2446447,-389.2025,-148.93046)"
       style="stroke-width:0.803442;fill:#222222;fill-opacity:1">
      <path
         id="path1011"
         style="fill:#222222;fill-opacity:1;stroke-width:0.803441"
         d="m 148.20983,217.45184 c 1.45321,-0.43382 0.96046,1.41649 1.0453,2.30265 -0.0676,1.13721 0.28983,2.24014 0.2643,3.37715 -2.99722,0 -5.99444,0 -8.99166,0 0.33863,-1.2698 0.2435,-2.60794 0.6803,-3.86439 0.0407,-1.70733 2.31333,-1.18407 3.47318,-1.66442 1.17297,-0.0917 2.36802,0.0858 3.52841,-0.1515" />
      <path
         id="path1009"
         style="fill:#222222;fill-opacity:1;stroke-width:0.803441"
         d="m 118.90979,214.90438 c 1.2321,-0.10439 2.55247,0.54025 3.80437,0.76 1.84717,0.40913 3.73606,0.59963 5.51272,1.2794 1.17326,0.51063 3.02552,0.17871 3.76095,1.25789 0.10471,1.63798 0.195,3.31849 -0.1868,4.93041 -4.9366,0 -9.87319,0 -14.80979,0 0.71767,-1.89729 1.26349,-3.86784 1.4073,-5.89618 0.20482,-0.77327 0.38652,-1.54206 0.5117,-2.33144" />
      <path
         id="path1007"
         style="fill:#222222;fill-opacity:1;stroke-width:0.803441"
         d="m 148.743,213.25395 c 1.05406,-0.0905 0.33348,2.05414 0.40483,2.78091 -1.58398,0.56364 -3.35527,0.46062 -5.042,0.50686 -0.84055,0.22053 -3.14732,0.71826 -1.40257,-0.41445 1.84974,-1.27887 3.90456,-2.18509 6.0394,-2.87401" />
      <path
         id="path1005"
         style="fill:#222222;fill-opacity:1;stroke-width:0.803441"
         d="m 120.4754,210.90128 c 1.27516,-0.30572 2.49284,0.72602 3.76808,0.923 2.53193,0.80638 4.82674,2.18471 7.20667,3.34021 1.87525,0.97954 -0.62108,1.81043 -1.5905,1.01626 -1.37768,-0.16453 -2.62586,-0.83843 -4.00555,-0.9913 -2.16772,-0.386 -4.33244,-0.85859 -6.42312,-1.5236 -0.11691,-0.71743 0.56532,-2.04969 1.04459,-2.765" />
      <path
         id="path999"
         style="fill:#222222;fill-opacity:1;stroke-width:0.803441"
         d="m 128.58378,200.80496 c 1.37493,-0.45394 2.67347,0.22873 3.74192,1.02638 0.99392,1.16157 2.37092,0.54378 3.66213,0.85798 1.35897,0.63865 2.48045,-0.0548 3.62604,-0.70017 1.27388,-0.43939 2.68872,-0.97456 4.03452,-0.5986 1.11657,0.49233 2.43804,0.8309 3.12327,1.91794 1.22093,1.08449 1.84887,2.7416 1.69555,4.36874 0.29115,1.34556 0.33692,2.74623 0.1792,4.11391 -1.21435,0.96796 -2.89182,1.07244 -4.17858,1.93706 -1.23648,0.75705 -2.6859,1.31738 -3.62764,2.4557 -0.51876,1.41953 -0.80168,2.93376 -1.05754,4.42454 -0.38371,0.67805 0.27719,2.65096 -0.80452,2.52355 h -5.85383 c 0.0467,-1.9047 -0.13464,-3.8277 0.19,-5.71072 -4.3e-4,-1.14817 0.28891,-2.77303 -1.21813,-3.1255 -2.99393,-1.4985 -5.94045,-3.14728 -9.18767,-4.04239 -1.86179,-0.19248 -0.62392,-1.9825 -0.13756,-2.92267 0.65281,-1.29241 1.51713,-2.47086 2.49694,-3.53586 0.91922,-1.19061 1.69103,-2.67793 3.31735,-2.99028 m 0.21287,7.40562 c 1.13544,-0.39888 2.11613,-1.0869 3.00211,-1.88801 1.30093,-1.02703 -0.29399,-2.60875 -1.31799,-1.30082 -0.64278,0.81018 -1.5943,1.22335 -2.34608,1.88058 -0.45191,0.51193 -0.29168,1.76855 0.66149,1.30819 m 17.65897,0.3153 c 1.09403,-0.5811 -0.54642,-1.94835 -1.27657,-2.62829 -0.73015,-0.67994 -2.86532,-1.47151 -2.28929,0.22736 0.68404,0.93289 1.6779,1.69044 2.66433,2.27819 0.29134,0.0884 0.5976,0.11897 0.90098,0.1228"
         sodipodi:nodetypes="ccccccccccccccccccccccccczccc" />
    </g>
    <g
       aria-label="LIKED"
       transform="translate(68.688187,2.19076)"
       id="text901"
       style="font-style:normal;font-weight:normal;font-size:11.2889px;line-height:1.25;font-family:sans-serif;white-space:pre;shape-inside:url(#rect903);fill:#52ce3c;fill-opacity:1;stroke:none">
      <path
         d="m -309.23294,129.25457 h 1.8288 v 6.4121 h 3.9624 v 1.49014 h -5.7912 z"
         style="font-style:normal;font-variant:normal;font-weight:bold;font-stretch:normal;font-size:11.2889px;font-family:Montserrat;-inkscape-font-specification:'Montserrat Bold';fill:#52ce3c;fill-opacity:1"
         id="path907" />
      <path
         d="m -302.41447,129.25457 h 1.8288 v 7.90224 h -1.8288 z"
         style="font-style:normal;font-variant:normal;font-weight:bold;font-stretch:normal;font-size:11.2889px;font-family:Montserrat;-inkscape-font-specification:'Montserrat Bold';fill:#52ce3c;fill-opacity:1"
         id="path909" />
      <path
         d="m -295.83305,134.05236 -1.06116,1.10631 v 1.99814 h -1.81751 v -7.90224 h 1.81751 v 3.69148 l 3.49956,-3.69148 h 2.03201 l -3.27379,3.52214 3.4657,4.3801 h -2.1336 z"
         style="font-style:normal;font-variant:normal;font-weight:bold;font-stretch:normal;font-size:11.2889px;font-family:Montserrat;-inkscape-font-specification:'Montserrat Bold';fill:#52ce3c;fill-opacity:1"
         id="path911" />
      <path
         d="m -284.23935,135.68925 v 1.46756 h -6.11859 v -7.90224 h 5.97183 v 1.46756 h -4.15431 v 1.71591 h 3.66889 v 1.42241 h -3.66889 v 1.8288 z"
         style="font-style:normal;font-variant:normal;font-weight:bold;font-stretch:normal;font-size:11.2889px;font-family:Montserrat;-inkscape-font-specification:'Montserrat Bold';fill:#52ce3c;fill-opacity:1"
         id="path913" />
      <path
         d="m -282.78309,129.25457 h 3.58987 q 1.28694,0 2.26907,0.49672 0.99343,0.48542 1.53529,1.37724 0.55316,0.89183 0.55316,2.07716 0,1.18533 -0.55316,2.07716 -0.54186,0.89182 -1.53529,1.38853 -0.98213,0.48543 -2.26907,0.48543 h -3.58987 z m 3.49956,6.40081 q 1.18534,0 1.88525,-0.65475 0.7112,-0.66605 0.7112,-1.79494 0,-1.12889 -0.7112,-1.78365 -0.69991,-0.66604 -1.88525,-0.66604 h -1.67076 v 4.89938 z"
         style="font-style:normal;font-variant:normal;font-weight:bold;font-stretch:normal;font-size:11.2889px;font-family:Montserrat;-inkscape-font-specification:'Montserrat Bold';fill:#52ce3c;fill-opacity:1"
         id="path915" />
    </g>
  </g>
</svg>
