<?xml version="1.0" encoding="UTF-8" standalone="no"?>
<svg
   xmlns:dc="http://purl.org/dc/elements/1.1/"
   xmlns:cc="http://creativecommons.org/ns#"
   xmlns:rdf="http://www.w3.org/1999/02/22-rdf-syntax-ns#"
   xmlns:svg="http://www.w3.org/2000/svg"
   xmlns="http://www.w3.org/2000/svg"
   xmlns:sodipodi="http://sodipodi.sourceforge.net/DTD/sodipodi-0.dtd"
   xmlns:inkscape="http://www.inkscape.org/namespaces/inkscape"
   width="200"
   height="200"
   viewBox="0 0 52.916668 52.916666"
   version="1.1"
   id="svg8"
   inkscape:version="1.0.2-2 (e86c870879, 2021-01-15)"
   sodipodi:docname="Local..svg">
  <defs
     id="defs2">
    <rect
       x="-245.59497"
       y="131.91416"
       width="67.041863"
       height="19.614891"
       id="rect858" />
    <inkscape:path-effect
       effect="envelope"
       id="path-effect4658"
       is_visible="true"
       yy="true"
       xx="true"
       bendpath1="m -199.08406,108.42369 h 7.0057"
       bendpath2="m -192.07836,108.42369 v 6.75242"
       bendpath3="m -199.08406,115.17611 h 7.0057"
       bendpath4="m -199.08406,108.42369 v 6.75242" />
    <inkscape:path-effect
       effect="bend_path"
       id="path-effect4656"
       is_visible="true"
       bendpath="m -192.00142,114.60623 c 2.12577,-0.53066 4.48261,0.85111 7.0057,0"
       prop_scale="1"
       scale_y_rel="false"
       vertical="false"
       bendpath-nodetypes="cc" />
    <inkscape:path-effect
       effect="bounding_box"
       id="path-effect4654"
       is_visible="true"
       linkedpath=""
       visualbounds="false" />
  </defs>
  <sodipodi:namedview
     id="base"
     pagecolor="#ffffff"
     bordercolor="#666666"
     borderopacity="1.0"
     inkscape:pageopacity="0.0"
     inkscape:pageshadow="2"
     inkscape:zoom="2.8284271"
     inkscape:cx="189.83228"
     inkscape:cy="110.2596"
     inkscape:document-units="mm"
     inkscape:current-layer="layer1"
     showgrid="false"
     fit-margin-top="0"
     fit-margin-left="0"
     fit-margin-right="0"
     fit-margin-bottom="0"
     inkscape:window-width="1920"
     inkscape:window-height="1017"
     inkscape:window-x="-8"
     inkscape:window-y="-8"
     inkscape:window-maximized="1"
     showguides="false"
     inkscape:object-nodes="true"
     units="px"
     inkscape:snap-page="true"
     inkscape:document-rotation="0" />
  <metadata
     id="metadata5">
    <rdf:RDF>
      <cc:Work
         rdf:about="">
        <dc:format>image/svg+xml</dc:format>
        <dc:type
           rdf:resource="http://purl.org/dc/dcmitype/StillImage" />
        <dc:title></dc:title>
      </cc:Work>
    </rdf:RDF>
  </metadata>
  <g
     inkscape:label="Layer 1"
     inkscape:groupmode="layer"
     id="layer1"
     transform="translate(249.80447,-91.409467)">
    <rect
       y="91.40947"
       x="-249.80447"
       height="52.916668"
       width="52.916668"
       id="rect5238-5"
       style="fill:#222222;fill-opacity:1;fill-rule:nonzero;stroke:none;stroke-width:0.5;stroke-linecap:butt;stroke-linejoin:round;stroke-miterlimit:4;stroke-dasharray:none;stroke-dashoffset:0;stroke-opacity:0.909449;paint-order:normal"
       rx="3.96875"
       ry="3.96875" />
    <rect
       style="fill:#ff9800;fill-opacity:1;fill-rule:nonzero;stroke:none;stroke-width:0.5;stroke-linecap:butt;stroke-linejoin:round;stroke-miterlimit:4;stroke-dasharray:none;stroke-dashoffset:0;stroke-opacity:0.909449;paint-order:normal"
       id="rect5240-3"
       width="47.625"
       height="47.625"
       x="-247.15863"
       y="94.055298"
       rx="2.6458333"
       ry="2.6458333" />
    <path
       style="fill:#222222;fill-opacity:1;stroke-width:1"
       d="m -229.17803,97.639024 c 2.11378,0.0026 3.24665,0.580675 4.50392,2.297699 2.6067,3.559897 3.32733,4.047167 5.98514,4.047167 2.26224,0 3.99998,-0.49451 9.06384,-2.58042 0.58287,-0.2401 1.48507,4.67556 1.97687,10.76991 l 0.28937,3.58291 -1.48821,0.6526 c -4.0633,1.78115 -7.60319,2.44839 -9.65529,1.81984 -1.19949,-0.36739 -2.14046,-1.31831 -3.81138,-3.85082 -1.43186,-2.17018 -3.21425,-2.84154 -6.19404,-2.33289 -1.92125,0.32796 -5.58557,1.55388 -5.64409,1.88822 -0.0216,0.12334 0.86361,4.24625 1.9668,9.162 l 1.82571,8.13592 a 18.894157,22.503456 47.500875 0 1 -2.48298,-0.24593 c -0.24452,-1.66596 -1.18217,-6.08917 -3.14714,-14.92184 -1.96746,-8.84386 -3.42183,-15.8761 -3.34063,-16.153459 0.23212,-0.792944 0.8329,-1.00744 1.41694,-0.505845 l 0.49469,0.424671 1.45571,-0.576625 c 2.57246,-1.018787 5.08127,-1.615273 6.78477,-1.613108 z m -7.64193,3.885216 c -0.0218,2.4e-4 -0.0402,0.006 -0.0545,0.0192 -0.0534,0.0474 0.43758,2.47762 1.09131,5.40035 0.79517,3.55521 1.25478,5.19574 1.38799,4.95728 0.10953,-0.19604 0.29555,-1.15925 0.41346,-2.14055 0.26385,-2.19489 -0.0215,-4.12635 -0.85917,-5.81503 -0.53424,-1.07697 -1.65203,-2.42507 -1.97905,-2.42126 z"
       id="path4773-5"
       inkscape:connector-curvature="0" />
    <path
       inkscape:connector-curvature="0"
       id="path5244-6"
       d="m -248.34926,128.45114 v 8.33437 c 0,3.07816 2.47808,5.55625 5.55625,5.55625 h 38.89375 c 3.07816,0 5.55625,-2.47809 5.55625,-5.55625 v -8.33437 z"
       style="fill:#222222;fill-opacity:1;fill-rule:nonzero;stroke:none;stroke-width:0.5;stroke-linecap:butt;stroke-linejoin:round;stroke-miterlimit:4;stroke-dasharray:none;stroke-dashoffset:0;stroke-opacity:0.909449;paint-order:normal" />
    <g
       aria-label="LOCALISM"
       transform="translate(-0.80513053,-1.3359395)"
       id="text856"
       style="font-style:normal;font-weight:normal;font-size:8.46667px;line-height:1.25;font-family:sans-serif;white-space:pre;shape-inside:url(#rect858);fill:#eeeeee;fill-opacity:1;stroke:none">
      <path
         d="m -244.89297,133.76906 h 1.3716 v 4.80906 h 2.9718 v 1.1176 h -4.3434 z"
         style="font-style:normal;font-variant:normal;font-weight:bold;font-stretch:normal;font-size:8.46667px;font-family:Montserrat;-inkscape-font-specification:'Montserrat Bold';fill:#eeeeee;fill-opacity:1"
         id="path862" />
      <path
         d="m -237.01052,139.79732 q -0.92287,0 -1.66794,-0.39793 -0.7366,-0.39793 -1.15993,-1.0922 -0.41487,-0.70273 -0.41487,-1.5748 0,-0.87207 0.41487,-1.56633 0.42333,-0.70274 1.15993,-1.10067 0.74507,-0.39794 1.66794,-0.39794 0.92286,0 1.65946,0.39794 0.7366,0.39793 1.15994,1.10067 0.42333,0.69426 0.42333,1.56633 0,0.87207 -0.42333,1.5748 -0.42334,0.69427 -1.15994,1.0922 -0.7366,0.39793 -1.65946,0.39793 z m 0,-1.1684 q 0.52493,0 0.94826,-0.23706 0.42334,-0.24554 0.6604,-0.67734 0.24554,-0.4318 0.24554,-0.98213 0,-0.55033 -0.24554,-0.98213 -0.23706,-0.4318 -0.6604,-0.66887 -0.42333,-0.24553 -0.94826,-0.24553 -0.52494,0 -0.94827,0.24553 -0.42333,0.23707 -0.66887,0.66887 -0.23706,0.4318 -0.23706,0.98213 0,0.55033 0.23706,0.98213 0.24554,0.4318 0.66887,0.67734 0.42333,0.23706 0.94827,0.23706 z"
         style="font-style:normal;font-variant:normal;font-weight:bold;font-stretch:normal;font-size:8.46667px;font-family:Montserrat;-inkscape-font-specification:'Montserrat Bold';fill:#eeeeee;fill-opacity:1"
         id="path864" />
      <path
         d="m -229.89852,139.79732 q -0.90594,0 -1.64254,-0.38946 -0.72813,-0.39794 -1.15146,-1.0922 -0.41487,-0.70274 -0.41487,-1.58327 0,-0.88053 0.41487,-1.5748 0.42333,-0.70273 1.15146,-1.0922 0.7366,-0.39794 1.65101,-0.39794 0.77046,0 1.38853,0.27094 0.62653,0.27093 1.04987,0.77893 l -0.88054,0.8128 q -0.60113,-0.69426 -1.49013,-0.69426 -0.55034,0 -0.98214,0.24553 -0.4318,0.23707 -0.67733,0.66887 -0.23707,0.4318 -0.23707,0.98213 0,0.55033 0.23707,0.98213 0.24553,0.4318 0.67733,0.67734 0.4318,0.23706 0.98214,0.23706 0.889,0 1.49013,-0.70273 l 0.88054,0.8128 q -0.42334,0.51647 -1.04987,0.7874 -0.62653,0.27093 -1.397,0.27093 z"
         style="font-style:normal;font-variant:normal;font-weight:bold;font-stretch:normal;font-size:8.46667px;font-family:Montserrat;-inkscape-font-specification:'Montserrat Bold';fill:#eeeeee;fill-opacity:1"
         id="path866" />
      <path
         d="m -222.7442,138.42572 h -2.75167 l -0.52493,1.27 h -1.40547 l 2.6416,-5.92666 h 1.35467 l 2.65006,5.92666 h -1.43933 z m -0.4318,-1.0414 -0.9398,-2.26906 -0.9398,2.26906 z"
         style="font-style:normal;font-variant:normal;font-weight:bold;font-stretch:normal;font-size:8.46667px;font-family:Montserrat;-inkscape-font-specification:'Montserrat Bold';fill:#eeeeee;fill-opacity:1"
         id="path868" />
      <path
         d="m -220.16188,133.76906 h 1.3716 v 4.80906 h 2.9718 v 1.1176 h -4.3434 z"
         style="font-style:normal;font-variant:normal;font-weight:bold;font-stretch:normal;font-size:8.46667px;font-family:Montserrat;-inkscape-font-specification:'Montserrat Bold';fill:#eeeeee;fill-opacity:1"
         id="path870" />
      <path
         d="m -215.04803,133.76906 h 1.37161 v 5.92666 h -1.37161 z"
         style="font-style:normal;font-variant:normal;font-weight:bold;font-stretch:normal;font-size:8.46667px;font-family:Montserrat;-inkscape-font-specification:'Montserrat Bold';fill:#eeeeee;fill-opacity:1"
         id="path872" />
      <path
         d="m -210.32363,139.79732 q -0.70273,0 -1.36313,-0.18626 -0.65194,-0.19474 -1.04987,-0.49954 l 0.46567,-1.03293 q 0.381,0.2794 0.90593,0.44873 0.52493,0.16934 1.04987,0.16934 0.5842,0 0.8636,-0.16934 0.2794,-0.1778 0.2794,-0.46566 0,-0.21167 -0.16934,-0.34714 -0.16086,-0.14393 -0.42333,-0.2286 -0.254,-0.0847 -0.69427,-0.18626 -0.67733,-0.16087 -1.10913,-0.32174 -0.4318,-0.16086 -0.74507,-0.51646 -0.3048,-0.3556 -0.3048,-0.94827 0,-0.51647 0.2794,-0.93133 0.2794,-0.42334 0.8382,-0.66887 0.56727,-0.24554 1.38007,-0.24554 0.56727,0 1.10913,0.13547 0.54187,0.13547 0.94827,0.38947 l -0.42333,1.0414 q -0.82127,-0.46567 -1.64254,-0.46567 -0.57573,0 -0.85513,0.18627 -0.27093,0.18627 -0.27093,0.49107 0,0.3048 0.31326,0.4572 0.32174,0.14393 0.97367,0.28786 0.67733,0.16087 1.10913,0.32174 0.4318,0.16086 0.7366,0.508 0.31327,0.34713 0.31327,0.9398 0,0.508 -0.28787,0.93133 -0.2794,0.41487 -0.84666,0.6604 -0.56727,0.24553 -1.38007,0.24553 z"
         style="font-style:normal;font-variant:normal;font-weight:bold;font-stretch:normal;font-size:8.46667px;font-family:Montserrat;-inkscape-font-specification:'Montserrat Bold';fill:#eeeeee;fill-opacity:1"
         id="path874" />
      <path
         d="m -201.47597,139.69572 -0.008,-3.556 -1.74413,2.92947 h -0.61807 l -1.73567,-2.85327 v 3.4798 h -1.28693 v -5.92666 h 1.13453 l 2.21827,3.683 2.1844,-3.683 h 1.12607 l 0.0169,5.92666 z"
         style="font-style:normal;font-variant:normal;font-weight:bold;font-stretch:normal;font-size:8.46667px;font-family:Montserrat;-inkscape-font-specification:'Montserrat Bold';fill:#eeeeee;fill-opacity:1"
         id="path876" />
    </g>
  </g>
</svg>
