<?xml version="1.0" encoding="UTF-8" standalone="no"?>
<svg
   xmlns:dc="http://purl.org/dc/elements/1.1/"
   xmlns:cc="http://creativecommons.org/ns#"
   xmlns:rdf="http://www.w3.org/1999/02/22-rdf-syntax-ns#"
   xmlns:svg="http://www.w3.org/2000/svg"
   xmlns="http://www.w3.org/2000/svg"
   xmlns:sodipodi="http://sodipodi.sourceforge.net/DTD/sodipodi-0.dtd"
   xmlns:inkscape="http://www.inkscape.org/namespaces/inkscape"
   width="200"
   height="200"
   viewBox="0 0 52.916668 52.916666"
   version="1.1"
   id="svg8"
   inkscape:version="1.0.2-2 (e86c870879, 2021-01-15)"
   sodipodi:docname="lurker.svg">
  <defs
     id="defs2">
    <rect
       x="-289.65436"
       y="111.89568"
       width="47.707611"
       height="32.430454"
       id="rect894" />
    <rect
       x="-297.69405"
       y="129.24488"
       width="41.936458"
       height="10.847917"
       id="rect860" />
    <inkscape:path-effect
       effect="envelope"
       id="path-effect4658"
       is_visible="true"
       yy="true"
       xx="true"
       bendpath1="m -199.08406,108.42369 h 7.0057"
       bendpath2="m -192.07836,108.42369 v 6.75242"
       bendpath3="m -199.08406,115.17611 h 7.0057"
       bendpath4="m -199.08406,108.42369 v 6.75242" />
    <inkscape:path-effect
       effect="bend_path"
       id="path-effect4656"
       is_visible="true"
       bendpath="m -192.00142,114.60623 c 2.12577,-0.53066 4.48261,0.85111 7.0057,0"
       prop_scale="1"
       scale_y_rel="false"
       vertical="false"
       bendpath-nodetypes="cc" />
    <inkscape:path-effect
       effect="bounding_box"
       id="path-effect4654"
       is_visible="true"
       linkedpath=""
       visualbounds="false" />
  </defs>
  <sodipodi:namedview
     id="base"
     pagecolor="#ffffff"
     bordercolor="#666666"
     borderopacity="1.0"
     inkscape:pageopacity="0.0"
     inkscape:pageshadow="2"
     inkscape:zoom="2.8284271"
     inkscape:cx="46.961821"
     inkscape:cy="114.29336"
     inkscape:document-units="mm"
     inkscape:current-layer="layer1"
     showgrid="false"
     fit-margin-top="0"
     fit-margin-left="0"
     fit-margin-right="0"
     fit-margin-bottom="0"
     inkscape:window-width="1920"
     inkscape:window-height="1017"
     inkscape:window-x="-8"
     inkscape:window-y="-8"
     inkscape:window-maximized="1"
     showguides="false"
     inkscape:object-nodes="true"
     units="px"
     inkscape:snap-page="true"
     inkscape:document-rotation="0" />
  <metadata
     id="metadata5">
    <rdf:RDF>
      <cc:Work
         rdf:about="">
        <dc:format>image/svg+xml</dc:format>
        <dc:type
           rdf:resource="http://purl.org/dc/dcmitype/StillImage" />
        <dc:title />
      </cc:Work>
    </rdf:RDF>
  </metadata>
  <g
     inkscape:label="Layer 1"
     inkscape:groupmode="layer"
     id="layer1"
     transform="translate(249.80447,-91.409467)">
    <rect
       ry="3.96875"
       rx="3.96875"
       style="fill:#222222;fill-opacity:1;fill-rule:nonzero;stroke:none;stroke-width:0.5;stroke-linecap:butt;stroke-linejoin:round;stroke-miterlimit:4;stroke-dasharray:none;stroke-dashoffset:0;stroke-opacity:0.909449;paint-order:normal"
       id="rect5322"
       width="52.916668"
       height="52.916668"
       x="-249.80447"
       y="91.40947" />
    <rect
       ry="2.6458333"
       rx="2.6458333"
       y="94.055298"
       x="-247.15863"
       height="47.625"
       width="47.625"
       id="rect5324"
       style="fill:#ffffff;fill-opacity:1;fill-rule:nonzero;stroke:none;stroke-width:0.5;stroke-linecap:butt;stroke-linejoin:round;stroke-miterlimit:4;stroke-dasharray:none;stroke-dashoffset:0;stroke-opacity:0.909449;paint-order:normal" />
    <path
       inkscape:connector-curvature="0"
       id="path5326"
       d="m -248.34926,128.45114 v 8.33437 c 0,3.07817 2.47809,5.55625 5.55625,5.55625 h 38.89375 c 3.07816,0 5.55625,-2.47808 5.55625,-5.55625 v -8.33437 z"
       style="fill:#222222;fill-opacity:1;fill-rule:nonzero;stroke:none;stroke-width:0.5;stroke-linecap:butt;stroke-linejoin:round;stroke-miterlimit:4;stroke-dasharray:none;stroke-dashoffset:0;stroke-opacity:0.909449;paint-order:normal" />
    <text
       xml:space="preserve"
       id="text858"
       style="fill:black;fill-opacity:1;line-height:1.25;stroke:none;font-family:sans-serif;font-style:normal;font-weight:normal;font-size:10.58333333px;white-space:pre;shape-inside:url(#rect860);" />
    <g
       id="g890"
       transform="rotate(-11,-276.18702,119.9244)"
       style="fill:#222222;fill-opacity:1">
      <path
         id="path89665"
         style="fill:#222222;fill-opacity:1;stroke-width:1"
         d="m -228.05021,133.64 c 1.17702,-0.35989 2.30552,2.25995 0.58279,1.8617 -0.84187,-0.12181 -1.41926,-1.29684 -0.58267,-1.86146" />
      <path
         id="path89661"
         style="fill:#222222;fill-opacity:1;stroke-width:1"
         d="m -226.73639,117.70706 c 1.42109,-0.1816 2.87877,-0.13246 4.30999,-0.0579 1.44864,0.26829 3.09779,0.77946 3.7793,2.2141 0.78553,1.49495 0.66979,3.26741 0.47229,4.88676 -0.24907,1.21541 -0.47987,2.69744 -1.55328,3.46889 -1.18145,0.79617 -2.67065,0.93086 -4.0353,0.60822 -1.68635,-0.34035 -1.3454,1.81249 -2.12651,2.64481 -1.61061,-0.1417 -1.51596,-1.89025 -1.03338,-3.0225 0.52153,-0.97168 0.56256,-3.12066 2.15265,-2.39026 1.38948,0.032 2.99747,0.12565 4.04579,-0.94928 0.45758,-0.95975 0.29288,-2.12377 0.21761,-3.1619 -0.43474,-1.09453 -1.70589,-1.74532 -2.77939,-2.10011 -1.21078,-0.16169 -2.49726,-0.25441 -3.69067,0.0537 -0.85756,0.10927 -2.96274,2.03462 -2.5665,0.11686 0.47412,-1.15264 1.68237,-1.90153 2.8073,-2.3123" />
      <path
         id="path89657"
         style="fill:#222222;fill-opacity:1;stroke-width:1"
         d="m -227.31836,111.64942 c 1.70285,-0.26697 3.44442,-0.10344 5.16612,-0.149 1.41665,0.15879 2.86946,0.37901 4.21208,0.8581 2.21008,1.07913 4.63645,2.17846 6.03611,4.30161 0.78232,1.14411 1.34041,2.40459 1.71966,3.73571 0.64376,1.56122 0.97437,3.22899 0.881,4.91954 -0.0309,2.51663 0.069,5.03961 -0.0646,7.55131 -0.24855,1.52529 -0.45172,3.08644 -0.9689,4.54653 -0.84662,1.59705 -2.37016,2.90583 -4.10455,3.41959 -1.85306,0.11927 -3.71821,0.0834 -5.57365,0.0427 -1.78023,-0.32055 -3.53334,-0.75943 -5.31712,-1.0735 -1.40352,-0.24628 -2.81244,-0.48624 -4.21256,-0.7844 -2.14951,-0.48125 -4.36573,-0.76674 -6.38336,-1.7128 -1.86558,-0.69019 -3.75295,-1.78019 -4.75432,-3.56037 -0.6459,-1.54874 -0.33928,-3.25399 -0.4067,-4.88603 0.20959,-1.49857 0.33278,-3.01456 0.7266,-4.48283 0.26981,-1.99996 1.14946,-3.83353 2.14905,-5.56082 0.82667,-1.20725 1.73873,-2.34596 2.81715,-3.34086 1.22959,-1.21186 2.76067,-2.08892 4.30113,-2.84289 1.22007,-0.48261 2.49513,-0.7314 3.77829,-0.9814 m 0.89676,24.93416 c 1.35952,-0.30854 1.25385,-2.62154 0.2629,-3.32206 -0.88788,-0.83577 -2.59417,-1.19197 -3.20062,0.15595 -0.77333,1.16932 0.17263,2.80463 1.37122,3.20297 0.52026,0.0307 1.05496,0.0996 1.56671,-0.037 m 1.08717,-3.97089 c 1.34148,-0.20333 0.43598,-2.93575 1.8571,-2.63849 1.45724,0.14537 3.02408,0.18453 4.28292,-0.69295 1.60696,-0.9602 1.9703,-2.96319 2.16619,-4.66868 -0.0108,-1.91628 0.39629,-4.08573 -0.87579,-5.71685 -0.56828,-1.12048 -1.87545,-1.48972 -2.937,-1.97841 -1.70245,-0.58395 -3.53062,-0.32794 -5.29861,-0.3801 -1.83985,-0.0583 -3.39228,1.25101 -4.3583,2.70064 -0.91501,1.12999 -0.37736,2.91185 1.22491,2.82757 1.33198,-0.0147 2.29965,-1.25566 3.66389,-1.27694 1.07205,-0.036 2.25627,-0.13286 3.10869,0.65424 1.19717,0.40495 1.21669,2.0323 0.77705,2.94983 -1.23296,0.86624 -2.76944,0.58702 -4.1551,0.3993 -1.4013,0.13538 -1.53767,1.92416 -1.98859,2.97356 -0.37219,1.2299 -1.05284,2.99228 0.10599,3.97785 0.73905,0.42456 1.52506,0.99423 2.4263,0.86941" />
    </g>
    <g
       aria-label="LURKER"
       transform="translate(43.474727,17.413579)"
       id="text892"
       style="font-style:normal;font-weight:normal;font-size:10.5833px;line-height:1.25;font-family:sans-serif;white-space:pre;shape-inside:url(#rect894);fill:#ffffff;fill-opacity:1;stroke:none">
      <path
         d="m -288.77588,114.21522 h 1.71449 v 6.01131 h 3.71474 v 1.397 h -5.42923 z"
         style="font-style:normal;font-variant:normal;font-weight:bold;font-stretch:normal;font-family:Montserrat;-inkscape-font-specification:'Montserrat Bold';fill:#ffffff"
         id="path898" />
      <path
         d="m -279.18744,121.75053 q -1.5875,0 -2.47649,-0.87842 -0.87842,-0.87841 -0.87842,-2.50824 v -4.14865 h 1.7145 v 4.08515 q 0,1.98966 1.65099,1.98966 0.80433,0 1.22766,-0.47625 0.42334,-0.48683 0.42334,-1.51341 v -4.08515 h 1.69332 v 4.14865 q 0,1.62983 -0.88899,2.50824 -0.87842,0.87842 -2.46591,0.87842 z"
         style="font-style:normal;font-variant:normal;font-weight:bold;font-stretch:normal;font-family:Montserrat;-inkscape-font-specification:'Montserrat Bold';fill:#ffffff"
         id="path900" />
      <path
         d="m -269.41908,121.62353 -1.42874,-2.06375 h -0.0847 -1.49224 v 2.06375 h -1.7145 v -7.40831 h 3.20674 q 0.98425,0 1.70391,0.32808 0.73025,0.32808 1.12183,0.93133 0.39159,0.60325 0.39159,1.42874 0,0.8255 -0.40217,1.42875 -0.39158,0.59267 -1.12183,0.91016 l 1.66158,2.38125 z m -0.0317,-4.72016 q 0,-0.62441 -0.40216,-0.95249 -0.40217,-0.33867 -1.17475,-0.33867 h -1.39699 v 2.58233 h 1.39699 q 0.77258,0 1.17475,-0.33867 0.40216,-0.33866 0.40216,-0.9525 z"
         style="font-style:normal;font-variant:normal;font-weight:bold;font-stretch:normal;font-family:Montserrat;-inkscape-font-specification:'Montserrat Bold';fill:#ffffff"
         id="path902" />
      <path
         d="m -263.66177,118.71312 -0.99483,1.03716 v 1.87325 h -1.70392 v -7.40831 h 1.70392 v 3.46074 l 3.28082,-3.46074 h 1.90499 l -3.06915,3.30199 3.24907,4.10632 h -2.00025 z"
         style="font-style:normal;font-variant:normal;font-weight:bold;font-stretch:normal;font-family:Montserrat;-inkscape-font-specification:'Montserrat Bold';fill:#ffffff"
         id="path904" />
      <path
         d="m -252.79273,120.2477 v 1.37583 h -5.73615 v -7.40831 h 5.59857 v 1.37583 h -3.89465 v 1.60866 h 3.43957 v 1.33349 h -3.43957 v 1.7145 z"
         style="font-style:normal;font-variant:normal;font-weight:bold;font-stretch:normal;font-family:Montserrat;-inkscape-font-specification:'Montserrat Bold';fill:#ffffff"
         id="path906" />
      <path
         d="m -246.70734,121.62353 -1.42874,-2.06375 h -0.0847 -1.49224 v 2.06375 h -1.7145 v -7.40831 h 3.20674 q 0.98425,0 1.70391,0.32808 0.73025,0.32808 1.12183,0.93133 0.39159,0.60325 0.39159,1.42874 0,0.8255 -0.40217,1.42875 -0.39158,0.59267 -1.12183,0.91016 l 1.66158,2.38125 z m -0.0317,-4.72016 q 0,-0.62441 -0.40217,-0.95249 -0.40217,-0.33867 -1.17475,-0.33867 h -1.39699 v 2.58233 h 1.39699 q 0.77258,0 1.17475,-0.33867 0.40217,-0.33866 0.40217,-0.9525 z"
         style="font-style:normal;font-variant:normal;font-weight:bold;font-stretch:normal;font-family:Montserrat;-inkscape-font-specification:'Montserrat Bold';fill:#ffffff"
         id="path908" />
    </g>
  </g>
</svg>
