<?xml version="1.0" encoding="UTF-8" standalone="no"?>
<svg
   xmlns:dc="http://purl.org/dc/elements/1.1/"
   xmlns:cc="http://creativecommons.org/ns#"
   xmlns:rdf="http://www.w3.org/1999/02/22-rdf-syntax-ns#"
   xmlns:svg="http://www.w3.org/2000/svg"
   xmlns="http://www.w3.org/2000/svg"
   xmlns:sodipodi="http://sodipodi.sourceforge.net/DTD/sodipodi-0.dtd"
   xmlns:inkscape="http://www.inkscape.org/namespaces/inkscape"
   width="200"
   height="200"
   viewBox="0 0 52.916668 52.916666"
   version="1.1"
   id="svg8"
   inkscape:version="1.0.2-2 (e86c870879, 2021-01-15)"
   sodipodi:docname="misbehaving.svg">
  <defs
     id="defs2">
    <rect
       x="-326.66593"
       y="109.9303"
       width="56.35625"
       height="17.594792"
       id="rect914" />
    <rect
       x="-230.62218"
       y="74.079259"
       width="66.013542"
       height="16.801042"
       id="rect885" />
    <inkscape:path-effect
       effect="envelope"
       id="path-effect4658"
       is_visible="true"
       yy="true"
       xx="true"
       bendpath1="m -199.08406,108.42369 h 7.0057"
       bendpath2="m -192.07836,108.42369 v 6.75242"
       bendpath3="m -199.08406,115.17611 h 7.0057"
       bendpath4="m -199.08406,108.42369 v 6.75242" />
    <inkscape:path-effect
       effect="bend_path"
       id="path-effect4656"
       is_visible="true"
       bendpath="m -192.00142,114.60623 c 2.12577,-0.53066 4.48261,0.85111 7.0057,0"
       prop_scale="1"
       scale_y_rel="false"
       vertical="false"
       bendpath-nodetypes="cc" />
    <inkscape:path-effect
       effect="bounding_box"
       id="path-effect4654"
       is_visible="true"
       linkedpath=""
       visualbounds="false" />
    <pattern
       id="EMFhbasepattern"
       patternUnits="userSpaceOnUse"
       width="6"
       height="6"
       x="0"
       y="0" />
  </defs>
  <sodipodi:namedview
     id="base"
     pagecolor="#ffffff"
     bordercolor="#666666"
     borderopacity="1.0"
     inkscape:pageopacity="0.0"
     inkscape:pageshadow="2"
     inkscape:zoom="2"
     inkscape:cx="10.357359"
     inkscape:cy="65.062078"
     inkscape:document-units="mm"
     inkscape:current-layer="layer3"
     showgrid="false"
     fit-margin-top="0"
     fit-margin-left="0"
     fit-margin-right="0"
     fit-margin-bottom="0"
     inkscape:window-width="1920"
     inkscape:window-height="1017"
     inkscape:window-x="-8"
     inkscape:window-y="-8"
     inkscape:window-maximized="1"
     showguides="false"
     inkscape:object-nodes="true"
     units="px"
     inkscape:snap-page="true"
     inkscape:document-rotation="0" />
  <metadata
     id="metadata5">
    <rdf:RDF>
      <cc:Work
         rdf:about="">
        <dc:format>image/svg+xml</dc:format>
        <dc:type
           rdf:resource="http://purl.org/dc/dcmitype/StillImage" />
        <dc:title />
      </cc:Work>
    </rdf:RDF>
  </metadata>
  <g
     inkscape:label="Layer 1"
     inkscape:groupmode="layer"
     id="layer1"
     transform="translate(249.80447,-91.409467)">
    <rect
       y="91.40947"
       x="-249.80447"
       height="52.916668"
       width="52.916668"
       id="rect5238-5"
       style="fill:#222222;fill-opacity:1;fill-rule:nonzero;stroke:none;stroke-width:0.5;stroke-linecap:butt;stroke-linejoin:round;stroke-miterlimit:4;stroke-dasharray:none;stroke-dashoffset:0;stroke-opacity:0.909449;paint-order:normal"
       rx="3.96875"
       ry="3.96875" />
    <path
       id="rect5240-3"
       style="fill:#429b7d;fill-opacity:1;fill-rule:nonzero;stroke:none;stroke-width:0.5;stroke-linecap:butt;stroke-linejoin:round;stroke-miterlimit:4;stroke-dasharray:none;stroke-dashoffset:0;stroke-opacity:0.909449;paint-order:normal"
       d="m -244.5128,94.055298 h 42.33334 c 1.46579,0 2.64583,1.180041 2.64583,2.645833 v 42.333329 c 0,1.4658 -1.18004,2.64584 -2.64583,2.64584 h -42.33334 c -1.46579,0 -2.64583,-1.18004 -2.64583,-2.64584 V 96.701131 c 0,-1.465792 1.18004,-2.645833 2.64583,-2.645833 z" />
    <text
       xml:space="preserve"
       id="text912"
       style="fill:black;fill-opacity:1;line-height:1.25;stroke:none;font-family:sans-serif;font-style:normal;font-weight:normal;font-size:10.58333333px;white-space:pre;shape-inside:url(#rect914);" />
    <path
       id="path863"
       style="fill:#e12420;fill-opacity:1;fill-rule:nonzero;stroke:none;stroke-width:0.5;stroke-linecap:butt;stroke-linejoin:round;stroke-miterlimit:4;stroke-dasharray:none;stroke-dashoffset:0;stroke-opacity:0.909449;paint-order:normal"
       d="m -223.34613,94.055298 h 21.16667 c 1.46579,0 2.64583,1.180041 2.64583,2.645833 v 42.333329 c 0,1.4658 -1.18004,2.64584 -2.64583,2.64584 h -21.16667 z"
       sodipodi:nodetypes="csssscc" />
  </g>
  <g
     inkscape:groupmode="layer"
     id="layer3"
     inkscape:label="Layer 2"
     style="display:inline">
    <path
       inkscape:connector-curvature="0"
       id="path5244-6"
       d="m -248.34926,128.45114 v 8.33437 c 0,3.07816 2.47808,5.55625 5.55625,5.55625 h 38.89375 c 3.07816,0 5.55625,-2.47809 5.55625,-5.55625 v -8.33437 z"
       style="fill:#222222;fill-opacity:1;fill-rule:nonzero;stroke:none;stroke-width:0.5;stroke-linecap:butt;stroke-linejoin:round;stroke-miterlimit:4;stroke-dasharray:none;stroke-dashoffset:0;stroke-opacity:0.909449;paint-order:normal"
       transform="translate(249.80447,-91.409467)" />
    <g
       aria-label="MISBEHAVING"
       id="text920"
       style="font-style:normal;font-weight:normal;font-size:6.35px;line-height:1.25;font-family:sans-serif;fill:#32b5d4;fill-opacity:1;stroke:none;stroke-width:0.264583">
      <path
         d="m 7.0273718,46.209484 -0.00635,-2.667 -1.3081,2.1971 h -0.46355 l -1.30175,-2.13995 v 2.60985 h -0.9652 v -4.445 h 0.8509 l 1.6637,2.76225 1.6383,-2.76225 h 0.84455 l 0.0127,4.445 z"
         style="font-style:normal;font-variant:normal;font-weight:bold;font-stretch:normal;font-size:6.35px;font-family:Montserrat;-inkscape-font-specification:'Montserrat Bold';fill:#429b7d;fill-opacity:1;stroke-width:0.264583"
         id="path924" />
      <path
         d="m 9.0466714,41.764484 h 1.0286996 v 4.445 H 9.0466714 Z"
         style="font-style:normal;font-variant:normal;font-weight:bold;font-stretch:normal;font-size:6.35px;font-family:Montserrat;-inkscape-font-specification:'Montserrat Bold';fill:#429b7d;fill-opacity:1;stroke-width:0.264583"
         id="path926" />
      <path
         d="m 12.589966,46.285684 q -0.52705,0 -1.02235,-0.1397 -0.48895,-0.14605 -0.7874,-0.37465 l 0.34925,-0.7747 q 0.28575,0.20955 0.67945,0.33655 0.3937,0.127 0.7874,0.127 0.43815,0 0.6477,-0.127 0.20955,-0.13335 0.20955,-0.34925 0,-0.15875 -0.127,-0.26035 -0.12065,-0.10795 -0.3175,-0.17145 -0.1905,-0.0635 -0.5207,-0.1397 -0.508,-0.12065 -0.83185,-0.2413 -0.32385,-0.12065 -0.5588,-0.38735 -0.2286,-0.2667 -0.2286,-0.7112 0,-0.38735 0.20955,-0.6985 0.20955,-0.3175 0.62865,-0.50165 0.42545,-0.18415 1.03505,-0.18415 0.42545,0 0.83185,0.1016 0.4064,0.1016 0.7112,0.2921 l -0.3175,0.78105 q -0.61595,-0.34925 -1.2319,-0.34925 -0.4318,0 -0.64135,0.1397 -0.2032,0.1397 -0.2032,0.3683 0,0.2286 0.23495,0.3429 0.2413,0.10795 0.73025,0.2159 0.508,0.12065 0.83185,0.2413 0.32385,0.12065 0.55245,0.381 0.23495,0.26035 0.23495,0.70485 0,0.381 -0.2159,0.6985 -0.20955,0.31115 -0.635,0.4953 -0.42545,0.18415 -1.03505,0.18415 z"
         style="font-style:normal;font-variant:normal;font-weight:bold;font-stretch:normal;font-size:6.35px;font-family:Montserrat;-inkscape-font-specification:'Montserrat Bold';fill:#429b7d;fill-opacity:1;stroke-width:0.264583"
         id="path928" />
      <path
         d="m 18.444656,43.898084 q 0.381,0.12065 0.5969,0.4064 0.2159,0.2794 0.2159,0.69215 0,0.5842 -0.4572,0.9017 -0.45085,0.31115 -1.320799,0.31115 h -2.2987 v -4.445 h 2.1717 q 0.812799,0 1.244599,0.31115 0.43815,0.31115 0.43815,0.84455 0,0.32385 -0.15875,0.57785 -0.1524,0.254 -0.4318,0.40005 z m -2.241549,-1.3589 v 1.04775 h 1.02235 q 0.381,0 0.57785,-0.13335 0.19685,-0.13335 0.19685,-0.3937 0,-0.26035 -0.19685,-0.38735 -0.19685,-0.13335 -0.57785,-0.13335 z m 1.20015,2.8956 q 0.4064,0 0.6096,-0.13335 0.209549,-0.13335 0.209549,-0.41275 0,-0.55245 -0.819149,-0.55245 h -1.20015 v 1.09855 z"
         style="font-style:normal;font-variant:normal;font-weight:bold;font-stretch:normal;font-size:6.35px;font-family:Montserrat;-inkscape-font-specification:'Montserrat Bold';fill:#429b7d;fill-opacity:1;stroke-width:0.264583"
         id="path930" />
      <path
         d="m 23.480204,45.383984 v 0.8255 h -3.4417 v -4.445 h 3.35915 v 0.8255 h -2.3368 v 0.9652 h 2.06375 v 0.8001 h -2.06375 v 1.0287 z"
         style="font-style:normal;font-variant:normal;font-weight:bold;font-stretch:normal;font-size:6.35px;font-family:Montserrat;-inkscape-font-specification:'Montserrat Bold';fill:#429b7d;fill-opacity:1;stroke-width:0.264583"
         id="path932" />
      <path
         d="m 28.376051,41.764484 v 4.445 h -1.0287 v -1.82245 h -2.0193 v 1.82245 h -1.0287 v -4.445 h 1.0287 v 1.7526 h 2.0193 v -1.7526 z"
         style="font-style:normal;font-variant:normal;font-weight:bold;font-stretch:normal;font-size:6.35px;font-family:Montserrat;-inkscape-font-specification:'Montserrat Bold';fill:#e12420;fill-opacity:1;stroke-width:0.264583"
         id="path934" />
      <path
         d="m 32.357491,45.256984 h -2.06375 l -0.3937,0.9525 h -1.0541 l 1.9812,-4.445 h 1.016 l 1.98755,4.445 h -1.0795 z m -0.32385,-0.78105 -0.70485,-1.7018 -0.70485,1.7018 z"
         style="font-style:normal;font-variant:normal;font-weight:bold;font-stretch:normal;font-size:6.35px;font-family:Montserrat;-inkscape-font-specification:'Montserrat Bold';fill:#e12420;fill-opacity:1;stroke-width:0.264583"
         id="path936" />
      <path
         d="m 38.326483,41.764484 -1.92405,4.445 h -1.016 l -1.9177,-4.445 h 1.11125 l 1.35255,3.175 1.3716,-3.175 z"
         style="font-style:normal;font-variant:normal;font-weight:bold;font-stretch:normal;font-size:6.35px;font-family:Montserrat;-inkscape-font-specification:'Montserrat Bold';fill:#e12420;fill-opacity:1;stroke-width:0.264583"
         id="path938" />
      <path
         d="m 38.694763,41.764484 h 1.0287 v 4.445 h -1.0287 z"
         style="font-style:normal;font-variant:normal;font-weight:bold;font-stretch:normal;font-size:6.35px;font-family:Montserrat;-inkscape-font-specification:'Montserrat Bold';fill:#e12420;fill-opacity:1;stroke-width:0.264583"
         id="path940" />
      <path
         d="m 44.854257,41.764484 v 4.445 h -0.84455 l -2.21615,-2.69875 v 2.69875 h -1.016 v -4.445 h 0.8509 l 2.2098,2.69875 v -2.69875 z"
         style="font-style:normal;font-variant:normal;font-weight:bold;font-stretch:normal;font-size:6.35px;font-family:Montserrat;-inkscape-font-specification:'Montserrat Bold';fill:#e12420;fill-opacity:1;stroke-width:0.264583"
         id="path942" />
      <path
         d="m 48.911898,43.917134 h 0.9398 v 1.8034 q -0.36195,0.27305 -0.8382,0.4191 -0.47625,0.14605 -0.95885,0.14605 -0.69215,0 -1.2446,-0.2921 -0.55245,-0.29845 -0.86995,-0.81915 -0.31115,-0.52705 -0.31115,-1.18745 0,-0.6604 0.31115,-1.1811 0.3175,-0.52705 0.8763,-0.81915 0.5588,-0.29845 1.2573,-0.29845 0.5842,0 1.06045,0.19685 0.47625,0.19685 0.8001,0.5715 l -0.6604,0.6096 q -0.47625,-0.50165 -1.14935,-0.50165 -0.42545,0 -0.75565,0.1778 -0.3302,0.1778 -0.51435,0.50165 -0.18415,0.32385 -0.18415,0.74295 0,0.41275 0.18415,0.7366 0.18415,0.32385 0.508,0.508 0.3302,0.1778 0.7493,0.1778 0.4445,0 0.8001,-0.1905 z"
         style="font-style:normal;font-variant:normal;font-weight:bold;font-stretch:normal;font-size:6.35px;font-family:Montserrat;-inkscape-font-specification:'Montserrat Bold';fill:#e12420;fill-opacity:1;stroke-width:0.264583"
         id="path944" />
    </g>
    <g
       id="g1279"
       transform="translate(-99.208713,-247.48651)"
       style="display:inline;fill:#222222;fill-opacity:1">
      <path
         id="path1264"
         style="fill:#222222;fill-opacity:1;stroke-width:1"
         d="m 120.58213,268.74587 c 2.50496,-0.29796 5.03115,0.15951 7.47294,0.70533 1.71453,0.38326 3.43407,0.91312 4.95867,1.78611 1.50777,0.86336 2.94687,1.95764 4.00561,3.33525 0.88703,1.15419 1.56278,2.53236 1.83654,3.96205 0.29297,1.53001 0.0736,2.77184 -0.26004,4.66619 0.16134,1.03876 0.094,1.85816 -1.08995,1.55474 h -24.59471 c -0.55306,-1.98258 0.0249,-4.06758 0.50271,-6.00967 0.92167,-2.81439 1.59589,-5.89361 3.69105,-8.11326 0.91721,-1.00661 2.22335,-1.46093 3.47616,-1.88711 m -0.1229,8.03359 c 1.81182,-0.0387 2.45457,-2.0106 2.31048,-3.52148 -0.19902,-1.68647 -2.32771,-2.3692 -3.7004,-1.60086 -1.52145,0.58223 -2.53987,2.74433 -1.28593,4.06691 0.63719,0.77034 1.68727,1.17081 2.67642,1.05539 m 12.44157,1.27004 c 1.69602,-0.2414 1.6907,-2.57 0.61059,-3.52816 -0.94372,-0.8846 -2.6424,-1.95165 -3.80724,-0.86264 -0.9397,0.96977 -1.57382,2.94892 -0.11977,3.78108 0.95471,0.71123 2.18087,0.75767 3.31643,0.60935"
         sodipodi:nodetypes="caaaacccccccccccccccc" />
      <path
         id="path1262"
         style="fill:#222222;fill-opacity:1;stroke-width:1"
         d="m 124.06313,264.48747 c 4.90639,-0.29964 11.44346,1.04498 13.86741,5.05856 0.91508,1.13245 2.22033,3.39931 1.09402,4.82768 -1.24342,5.6e-4 -2.04483,-1.73359 -3.18575,-2.33636 -1.52118,-1.70833 -3.79333,-2.30157 -5.86822,-3.02036 -3.73392,-1.4115 -8.739,-1.99083 -12.1308,-0.36743 -0.85797,0.70537 -2.48231,2.10252 -2.51503,0.0361 -0.0349,-1.84011 2.11856,-2.45638 3.52165,-3.00861 1.71407,-0.78551 3.39509,-0.94948 4.96868,-1.15067 l 0.2482,-0.0392"
         sodipodi:nodetypes="cccccccccc" />
      <path
         id="path1260"
         style="fill:#222222;fill-opacity:1;stroke-width:1"
         d="m 130.11277,252.63059 c 1.58639,-0.26078 3.70853,-0.49882 4.78444,0.97023 1.06027,1.60084 1.10982,3.59377 1.51934,5.41156 0.0203,1.79875 0.11769,3.59918 0.39554,5.36391 -0.15095,1.90978 -2.07752,1.03915 -2.99735,0.2589 -2.66542,-1.44933 -5.84408,-1.87571 -8.81984,-1.44564 -1.12655,0.1597 -3.23749,0.95608 -3.80722,-0.12935 0.57068,-1.28529 1.69149,-2.25536 2.36029,-3.50476 1.2297,-1.84953 2.72502,-3.47891 4.07225,-5.23958 0.63544,-0.82311 1.53351,-1.32806 2.49201,-1.68512" />
    </g>
  </g>
</svg>
