<?xml version="1.0" encoding="UTF-8" standalone="no"?>
<svg
   xmlns:dc="http://purl.org/dc/elements/1.1/"
   xmlns:cc="http://creativecommons.org/ns#"
   xmlns:rdf="http://www.w3.org/1999/02/22-rdf-syntax-ns#"
   xmlns:svg="http://www.w3.org/2000/svg"
   xmlns="http://www.w3.org/2000/svg"
   xmlns:sodipodi="http://sodipodi.sourceforge.net/DTD/sodipodi-0.dtd"
   xmlns:inkscape="http://www.inkscape.org/namespaces/inkscape"
   width="200"
   height="200"
   viewBox="0 0 52.916668 52.916666"
   version="1.1"
   id="svg8"
   inkscape:version="1.0.2-2 (e86c870879, 2021-01-15)"
   sodipodi:docname="moderate.svg">
  <defs
     id="defs2">
    <rect
       x="-247.37232"
       y="130.511"
       width="75.490278"
       height="17.399246"
       id="rect876" />
    <inkscape:path-effect
       effect="envelope"
       id="path-effect4658"
       is_visible="true"
       yy="true"
       xx="true"
       bendpath1="m -199.08406,108.42369 h 7.0057"
       bendpath2="m -192.07836,108.42369 v 6.75242"
       bendpath3="m -199.08406,115.17611 h 7.0057"
       bendpath4="m -199.08406,108.42369 v 6.75242" />
    <inkscape:path-effect
       effect="bend_path"
       id="path-effect4656"
       is_visible="true"
       bendpath="m -192.00142,114.60623 c 2.12577,-0.53066 4.48261,0.85111 7.0057,0"
       prop_scale="1"
       scale_y_rel="false"
       vertical="false"
       bendpath-nodetypes="cc" />
    <inkscape:path-effect
       effect="bounding_box"
       id="path-effect4654"
       is_visible="true"
       linkedpath=""
       visualbounds="false" />
  </defs>
  <sodipodi:namedview
     id="base"
     pagecolor="#ffffff"
     bordercolor="#666666"
     borderopacity="1.0"
     inkscape:pageopacity="0.0"
     inkscape:pageshadow="2"
     inkscape:zoom="2.8284271"
     inkscape:cx="144.56379"
     inkscape:cy="78.112179"
     inkscape:document-units="mm"
     inkscape:current-layer="layer1"
     showgrid="false"
     fit-margin-top="0"
     fit-margin-left="0"
     fit-margin-right="0"
     fit-margin-bottom="0"
     inkscape:window-width="1920"
     inkscape:window-height="1017"
     inkscape:window-x="-8"
     inkscape:window-y="-8"
     inkscape:window-maximized="1"
     showguides="false"
     inkscape:object-nodes="true"
     units="px"
     inkscape:snap-page="true"
     inkscape:document-rotation="0" />
  <metadata
     id="metadata5">
    <rdf:RDF>
      <cc:Work
         rdf:about="">
        <dc:format>image/svg+xml</dc:format>
        <dc:type
           rdf:resource="http://purl.org/dc/dcmitype/StillImage" />
        <dc:title></dc:title>
      </cc:Work>
    </rdf:RDF>
  </metadata>
  <g
     inkscape:label="Layer 1"
     inkscape:groupmode="layer"
     id="layer1"
     transform="translate(249.80447,-91.409467)">
    <rect
       y="91.40947"
       x="-249.80447"
       height="52.916668"
       width="52.916668"
       id="rect5238-5"
       style="fill:#222222;fill-opacity:1;fill-rule:nonzero;stroke:none;stroke-width:0.5;stroke-linecap:butt;stroke-linejoin:round;stroke-miterlimit:4;stroke-dasharray:none;stroke-dashoffset:0;stroke-opacity:0.909449;paint-order:normal"
       rx="3.96875"
       ry="3.96875" />
    <rect
       style="fill:#006aa7;fill-opacity:1;fill-rule:nonzero;stroke:none;stroke-width:0.5;stroke-linecap:butt;stroke-linejoin:round;stroke-miterlimit:4;stroke-dasharray:none;stroke-dashoffset:0;stroke-opacity:0.909449;paint-order:normal"
       id="rect5240-3"
       width="47.625"
       height="47.625"
       x="-247.15863"
       y="94.055298"
       rx="2.6458333"
       ry="2.6458333" />
    <path
       inkscape:connector-curvature="0"
       id="path5244-6"
       d="m -248.34926,128.45114 v 8.33437 c 0,3.07816 2.47808,5.55625 5.55625,5.55625 h 38.89375 c 3.07816,0 5.55625,-2.47809 5.55625,-5.55625 v -8.33437 z"
       style="fill:#222222;fill-opacity:1;fill-rule:nonzero;stroke:none;stroke-width:0.5;stroke-linecap:butt;stroke-linejoin:round;stroke-miterlimit:4;stroke-dasharray:none;stroke-dashoffset:0;stroke-opacity:0.909449;paint-order:normal" />
    <g
       id="g841"
       transform="matrix(0.34922978,0,0,0.34922978,-282.43823,75.639403)"
       style="fill:#222222;fill-opacity:1;stroke-width:2.86344">
      <path
         style="fill:#222222;fill-opacity:1;stroke-width:3.09197"
         d="m 153.13962,88.47793 c 2.51117,-9.435237 8.02897,-17.777153 16.08288,-25.19685 10.2966,8.773008 13.61062,17.546017 17.58331,26.319025 -4.70925,3.317915 -9.40961,6.582548 -14.36391,11.370775 -6.78233,-4.689533 -10.34207,-9.038783 -19.30228,-12.49295 z"
         id="path836" />
      <path
         style="fill:#222222;fill-opacity:1;stroke-width:3.09197"
         d="m 176.94458,104.41637 c 8.77155,-6.658242 17.9158,-14.667758 34.78184,-16.029354 6.48073,11.151095 10.08146,49.134144 -1.03058,58.016344 -11.14913,-16.75434 -20.02487,-29.2015 -33.75126,-41.98699 z"
         id="path834" />
      <path
         style="fill:#222222;fill-opacity:1;stroke-width:3.09197"
         d="m 155.67014,161.42095 c -37.3598,-6.10523 -41.27679,-52.14109 -28.51964,-76.450696 34.2005,3.32732 66.15339,40.959376 79.15167,66.186786 -13.95053,10.52116 -36.10202,12.46252 -50.63203,10.26391 z"
         id="path844" />
    </g>
    <g
       aria-label="MODERATE"
       transform="matrix(0.74626665,0,0,0.74626665,-62.781247,33.505227)"
       id="text874"
       style="font-style:normal;font-weight:normal;font-size:10.5833px;line-height:1.25;font-family:sans-serif;white-space:pre;shape-inside:url(#rect876);fill:#eeeeee;fill-opacity:1;stroke:none;stroke-width:1.34">
      <path
         d="m -239.75307,140.23876 -0.0106,-4.44498 -2.18016,3.66182 h -0.77259 l -2.16957,-3.56658 v 4.34974 h -1.60866 v -7.40831 h 1.41816 l 2.77282,4.60374 2.73049,-4.60374 h 1.40758 l 0.0212,7.40831 z"
         style="font-style:normal;font-variant:normal;font-weight:bold;font-stretch:normal;font-family:Montserrat;-inkscape-font-specification:'Montserrat Bold';fill:#eeeeee;fill-opacity:1;stroke-width:1.34"
         id="path880" />
      <path
         d="m -232.79984,140.36576 q -1.15358,0 -2.08491,-0.49741 -0.92075,-0.49742 -1.44992,-1.36525 -0.51858,-0.87841 -0.51858,-1.96849 0,-1.09008 0.51858,-1.95791 0.52917,-0.87842 1.44992,-1.37583 0.93133,-0.49742 2.08491,-0.49742 1.15358,0 2.07432,0.49742 0.92075,0.49741 1.44991,1.37583 0.52917,0.86783 0.52917,1.95791 0,1.09008 -0.52917,1.96849 -0.52916,0.86783 -1.44991,1.36525 -0.92074,0.49741 -2.07432,0.49741 z m 0,-1.46049 q 0.65616,0 1.18533,-0.29634 0.52916,-0.30691 0.82549,-0.84666 0.30692,-0.53975 0.30692,-1.22766 0,-0.68792 -0.30692,-1.22767 -0.29633,-0.53975 -0.82549,-0.83608 -0.52917,-0.30691 -1.18533,-0.30691 -0.65617,0 -1.18533,0.30691 -0.52917,0.29633 -0.83608,0.83608 -0.29634,0.53975 -0.29634,1.22767 0,0.68791 0.29634,1.22766 0.30691,0.53975 0.83608,0.84666 0.52916,0.29634 1.18533,0.29634 z"
         style="font-style:normal;font-variant:normal;font-weight:bold;font-stretch:normal;font-family:Montserrat;-inkscape-font-specification:'Montserrat Bold';fill:#eeeeee;fill-opacity:1;stroke-width:1.34"
         id="path882" />
      <path
         d="m -227.45528,132.83045 h 3.36549 q 1.20649,0 2.12724,0.46567 0.93133,0.45508 1.43933,1.29116 0.51858,0.83608 0.51858,1.94733 0,1.11124 -0.51858,1.94732 -0.508,0.83608 -1.43933,1.30175 -0.92075,0.45508 -2.12724,0.45508 h -3.36549 z m 3.28082,6.00073 q 1.11125,0 1.76741,-0.61383 0.66675,-0.62441 0.66675,-1.68274 0,-1.05833 -0.66675,-1.67217 -0.65616,-0.62441 -1.76741,-0.62441 h -1.56633 v 4.59315 z"
         style="font-style:normal;font-variant:normal;font-weight:bold;font-stretch:normal;font-family:Montserrat;-inkscape-font-specification:'Montserrat Bold';fill:#eeeeee;fill-opacity:1;stroke-width:1.34"
         id="path884" />
      <path
         d="m -212.97734,138.86293 v 1.37583 h -5.73615 v -7.40831 h 5.59856 v 1.37583 h -3.89465 v 1.60866 h 3.43957 v 1.3335 h -3.43957 v 1.71449 z"
         style="font-style:normal;font-variant:normal;font-weight:bold;font-stretch:normal;font-family:Montserrat;-inkscape-font-specification:'Montserrat Bold';fill:#eeeeee;fill-opacity:1;stroke-width:1.34"
         id="path886" />
      <path
         d="m -206.89195,140.23876 -1.42875,-2.06374 h -0.0847 -1.49225 v 2.06374 h -1.71449 v -7.40831 h 3.20674 q 0.98424,0 1.70391,0.32808 0.73025,0.32809 1.12183,0.93133 0.39158,0.60325 0.39158,1.42875 0,0.8255 -0.40217,1.42874 -0.39158,0.59267 -1.12183,0.91017 l 1.66158,2.38124 z m -0.0317,-4.72015 q 0,-0.62442 -0.40217,-0.9525 -0.40216,-0.33866 -1.17474,-0.33866 h -1.397 v 2.58232 h 1.397 q 0.77258,0 1.17474,-0.33866 0.40217,-0.33867 0.40217,-0.9525 z"
         style="font-style:normal;font-variant:normal;font-weight:bold;font-stretch:normal;font-family:Montserrat;-inkscape-font-specification:'Montserrat Bold';fill:#eeeeee;fill-opacity:1;stroke-width:1.34"
         id="path888" />
      <path
         d="m -198.95449,138.65127 h -3.43957 l -0.65617,1.58749 h -1.75683 l 3.30199,-7.40831 h 1.69333 l 3.31257,7.40831 h -1.79916 z m -0.53975,-1.30175 -1.17475,-2.83632 -1.17474,2.83632 z"
         style="font-style:normal;font-variant:normal;font-weight:bold;font-stretch:normal;font-family:Montserrat;-inkscape-font-specification:'Montserrat Bold';fill:#eeeeee;fill-opacity:1;stroke-width:1.34"
         id="path890" />
      <path
         d="m -194.56245,134.22745 h -2.37066 v -1.397 h 6.45581 v 1.397 h -2.37066 v 6.01131 h -1.71449 z"
         style="font-style:normal;font-variant:normal;font-weight:bold;font-stretch:normal;font-family:Montserrat;-inkscape-font-specification:'Montserrat Bold';fill:#eeeeee;fill-opacity:1;stroke-width:1.34"
         id="path892" />
      <path
         d="m -183.82042,138.86293 v 1.37583 h -5.73615 v -7.40831 h 5.59856 v 1.37583 h -3.89465 v 1.60866 h 3.43957 v 1.3335 h -3.43957 v 1.71449 z"
         style="font-style:normal;font-variant:normal;font-weight:bold;font-stretch:normal;font-family:Montserrat;-inkscape-font-specification:'Montserrat Bold';fill:#eeeeee;fill-opacity:1;stroke-width:1.34"
         id="path894" />
    </g>
  </g>
</svg>
