<?xml version="1.0" encoding="UTF-8" standalone="no"?>
<svg
   xmlns:dc="http://purl.org/dc/elements/1.1/"
   xmlns:cc="http://creativecommons.org/ns#"
   xmlns:rdf="http://www.w3.org/1999/02/22-rdf-syntax-ns#"
   xmlns:svg="http://www.w3.org/2000/svg"
   xmlns="http://www.w3.org/2000/svg"
   xmlns:sodipodi="http://sodipodi.sourceforge.net/DTD/sodipodi-0.dtd"
   xmlns:inkscape="http://www.inkscape.org/namespaces/inkscape"
   width="200"
   height="200"
   viewBox="0 0 52.916668 52.916666"
   version="1.1"
   id="svg8"
   inkscape:version="1.0.2-2 (e86c870879, 2021-01-15)"
   sodipodi:docname="schizo.svg">
  <defs
     id="defs2">
    <rect
       x="-119.34777"
       y="141.44553"
       width="58.605209"
       height="21.034375"
       id="rect942" />
    <inkscape:path-effect
       effect="envelope"
       id="path-effect4658"
       is_visible="true"
       yy="true"
       xx="true"
       bendpath1="m -199.08406,108.42369 h 7.0057"
       bendpath2="m -192.07836,108.42369 v 6.75242"
       bendpath3="m -199.08406,115.17611 h 7.0057"
       bendpath4="m -199.08406,108.42369 v 6.75242" />
    <inkscape:path-effect
       effect="bend_path"
       id="path-effect4656"
       is_visible="true"
       bendpath="m -192.00142,114.60623 c 2.12577,-0.53066 4.48261,0.85111 7.0057,0"
       prop_scale="1"
       scale_y_rel="false"
       vertical="false"
       bendpath-nodetypes="cc" />
    <inkscape:path-effect
       effect="bounding_box"
       id="path-effect4654"
       is_visible="true"
       linkedpath=""
       visualbounds="false" />
  </defs>
  <sodipodi:namedview
     id="base"
     pagecolor="#ffffff"
     bordercolor="#666666"
     borderopacity="1.0"
     inkscape:pageopacity="0.0"
     inkscape:pageshadow="2"
     inkscape:zoom="2.8284271"
     inkscape:cx="149.34982"
     inkscape:cy="95.337374"
     inkscape:document-units="px"
     inkscape:current-layer="layer1"
     showgrid="false"
     fit-margin-top="0"
     fit-margin-left="0"
     fit-margin-right="0"
     fit-margin-bottom="0"
     inkscape:window-width="1920"
     inkscape:window-height="1017"
     inkscape:window-x="-8"
     inkscape:window-y="-8"
     inkscape:window-maximized="1"
     showguides="false"
     inkscape:object-nodes="true"
     units="px"
     inkscape:snap-page="true"
     inkscape:document-rotation="0" />
  <metadata
     id="metadata5">
    <rdf:RDF>
      <cc:Work
         rdf:about="">
        <dc:format>image/svg+xml</dc:format>
        <dc:type
           rdf:resource="http://purl.org/dc/dcmitype/StillImage" />
        <dc:title />
      </cc:Work>
    </rdf:RDF>
  </metadata>
  <g
     inkscape:label="Layer 1"
     inkscape:groupmode="layer"
     id="layer1"
     transform="translate(98.048812,-95.14345)">
    <rect
       ry="3.96875"
       rx="3.96875"
       style="fill:#222222;fill-opacity:1;fill-rule:nonzero;stroke:none;stroke-width:0.5;stroke-linecap:butt;stroke-linejoin:round;stroke-miterlimit:4;stroke-dasharray:none;stroke-dashoffset:0;stroke-opacity:0.909449;paint-order:normal"
       id="rect5134"
       width="52.916668"
       height="52.916668"
       x="-98.048813"
       y="95.143448" />
    <rect
       ry="2.6458333"
       rx="2.6458333"
       y="97.789284"
       x="-95.402977"
       height="47.625"
       width="47.625"
       id="rect5136"
       style="fill:#7f3980;fill-opacity:1;fill-rule:nonzero;stroke:none;stroke-width:0.5;stroke-linecap:butt;stroke-linejoin:round;stroke-miterlimit:4;stroke-dasharray:none;stroke-dashoffset:0;stroke-opacity:0.909449;paint-order:normal" />
    <path
       style="fill:#222222;fill-opacity:1;fill-rule:nonzero;stroke:none;stroke-width:0.5;stroke-linecap:butt;stroke-linejoin:round;stroke-miterlimit:4;stroke-dasharray:none;stroke-dashoffset:0;stroke-opacity:0.909449;paint-order:normal"
       d="m -96.593606,132.18512 v 8.33437 c 0,3.07817 2.478088,5.55625 5.55625,5.55625 h 38.893751 c 3.078162,0 5.55625,-2.47808 5.55625,-5.55625 v -8.33437 z"
       id="rect5205"
       inkscape:connector-curvature="0" />
    <path
       id="path954-3"
       style="fill:#222222;fill-opacity:1;stroke-width:1"
       d="m -70.697381,106.94843 c 2.292277,-0.40068 4.625908,0.0575 6.860217,0.56953 1.633467,0.45095 3.478549,0.69737 4.620237,2.10101 1.026019,0.99476 2.032409,2.00525 2.834404,3.19202 1.267672,1.72139 2.347896,3.58599 3.281292,5.51211 0.84882,2.18531 1.234885,4.52456 1.444818,6.84763 0.07767,2.47134 0.01841,4.94583 0.03696,7.41851 -13.075382,0 -26.150777,0 -39.226159,0 -1.044329,-2.03412 -0.617402,-4.34573 -0.70685,-6.53767 0.195001,-2.24315 0.831806,-4.44315 1.622138,-6.54949 0.772544,-1.71572 1.704178,-3.36095 2.766334,-4.90617 0.741999,-1.2743 1.93617,-2.1033 3.033088,-3.03329 1.306424,-1.45696 2.984328,-2.5078 4.700716,-3.41636 1.793505,-0.73884 3.716171,-1.10837 5.656117,-1.0007 1.028902,-0.0147 2.069493,0.0721 3.07663,-0.19575 m -2.993214,20.24729 c 1.038243,0.16608 2.775982,-1.1166 0.988188,-1.5238 -1.387477,0.28902 -3.961426,-0.36135 -4.436979,1.27359 1.026607,0.48155 2.337501,0.31961 3.448925,0.24928 m 2.000689,-2.42955 c 1.538202,-0.67723 1.217697,-3.52489 -0.256798,-4.21101 -1.299044,-0.95174 -2.779866,-1.73804 -4.433776,-1.71914 -1.358734,-0.2999 -2.525309,0.34964 -3.333576,1.38331 -0.94658,0.79214 -1.728785,2.00307 -1.418169,3.28586 0.92224,0.90695 2.473399,0.91888 3.728421,0.95503 1.471827,0.1233 2.912014,-0.51266 4.357566,-0.0156 0.454029,0.11956 0.869504,0.3417 1.355505,0.3216 m 12.432505,0.36767 c 1.173448,0.10504 3.855126,-1.8068 1.855757,-2.3457 -1.263175,0.95277 -3.154255,0.57873 -4.267158,1.54588 -0.083,1.16397 1.720444,0.74295 2.411454,0.80007 m 0.02148,-2.87917 c 1.891479,-0.44229 2.153002,-2.53626 1.963125,-4.16835 0.256052,-1.68019 -0.772877,-3.22187 -2.194316,-4.00994 -1.1073,-1.20662 -3.272431,-1.78185 -4.343208,-0.21747 -1.631773,1.31946 -1.950341,3.73396 -0.995541,5.55186 0.404187,1.71339 1.951889,3.13004 3.78815,2.91676 0.594103,-0.004 1.193571,0.0195 1.782617,-0.0726" />
    <g
       aria-label="SCHIZO"
       id="text861"
       style="font-style:normal;font-weight:normal;font-size:9.87778px;line-height:1.25;font-family:sans-serif;fill:#7f3980;fill-opacity:1;stroke:none;stroke-width:0.264583">
      <path
         d="m -88.274023,142.70618 q -0.819856,0 -1.590323,-0.21731 -0.760589,-0.22719 -1.224845,-0.58279 l 0.543278,-1.20509 q 0.4445,0.32597 1.056923,0.52352 0.612422,0.19756 1.224844,0.19756 0.681567,0 1.007534,-0.19756 0.325967,-0.20743 0.325967,-0.54328 0,-0.24694 -0.197556,-0.40498 -0.187678,-0.16793 -0.493889,-0.2667 -0.296333,-0.0988 -0.809978,-0.21732 -0.790222,-0.18767 -1.293989,-0.37535 -0.503767,-0.18768 -0.869245,-0.60255 -0.3556,-0.41486 -0.3556,-1.10631 0,-0.60254 0.325967,-1.08655 0.325967,-0.49389 0.9779,-0.78035 0.661812,-0.28645 1.610078,-0.28645 0.661812,0 1.29399,0.15804 0.632178,0.15805 1.106311,0.45438 l -0.493889,1.21497 q -0.958145,-0.54328 -1.916289,-0.54328 -0.671689,0 -0.997656,0.21731 -0.316089,0.21731 -0.316089,0.57291 0,0.3556 0.365478,0.5334 0.375355,0.16792 1.135944,0.33585 0.790223,0.18767 1.29399,0.37535 0.503766,0.18768 0.859366,0.59267 0.365478,0.40499 0.365478,1.09643 0,0.59267 -0.335844,1.08656 -0.325967,0.48401 -0.987778,0.77046 -0.661811,0.28646 -1.610078,0.28646 z"
         style="font-style:normal;font-variant:normal;font-weight:bold;font-stretch:normal;font-size:9.87778px;font-family:Montserrat;-inkscape-font-specification:'Montserrat Bold';fill:#7f3980;fill-opacity:1;stroke-width:0.264583"
         id="path863" />
      <path
         d="m -80.934847,142.70618 q -1.056922,0 -1.916289,-0.45438 -0.849489,-0.46425 -1.343378,-1.27423 -0.484011,-0.81986 -0.484011,-1.84715 0,-1.02729 0.484011,-1.83726 0.493889,-0.81986 1.343378,-1.27424 0.859367,-0.46425 1.926167,-0.46425 0.898878,0 1.619956,0.31609 0.730956,0.31609 1.224845,0.90875 l -1.02729,0.94827 q -0.701322,-0.80998 -1.738489,-0.80998 -0.642056,0 -1.145822,0.28646 -0.503767,0.27657 -0.790223,0.78034 -0.276578,0.50377 -0.276578,1.14582 0,0.64206 0.276578,1.14583 0.286456,0.50376 0.790223,0.79022 0.503766,0.27658 1.145822,0.27658 1.037167,0 1.738489,-0.81986 l 1.02729,0.94827 q -0.493889,0.60254 -1.224845,0.91863 -0.730956,0.31609 -1.629834,0.31609 z"
         style="font-style:normal;font-variant:normal;font-weight:bold;font-stretch:normal;font-size:9.87778px;font-family:Montserrat;-inkscape-font-specification:'Montserrat Bold';fill:#7f3980;fill-opacity:1;stroke-width:0.264583"
         id="path865" />
      <path
         d="m -70.661958,135.6732 v 6.91445 h -1.6002 v -2.83493 h -3.141134 v 2.83493 h -1.6002 v -6.91445 h 1.6002 v 2.72627 h 3.141134 v -2.72627 z"
         style="font-style:normal;font-variant:normal;font-weight:bold;font-stretch:normal;font-size:9.87778px;font-family:Montserrat;-inkscape-font-specification:'Montserrat Bold';fill:#7f3980;fill-opacity:1;stroke-width:0.264583"
         id="path867" />
      <path
         d="m -69.02226,135.6732 h 1.600201 v 6.91445 h -1.600201 z"
         style="font-style:normal;font-variant:normal;font-weight:bold;font-stretch:normal;font-size:9.87778px;font-family:Montserrat;-inkscape-font-specification:'Montserrat Bold';fill:#7f3980;fill-opacity:1;stroke-width:0.264583"
         id="path869" />
      <path
         d="m -60.181654,141.28378 v 1.30387 h -6.045201 v -1.03717 l 3.793067,-4.57341 h -3.714045 v -1.30387 h 5.818012 v 1.03717 l -3.783189,4.57341 z"
         style="font-style:normal;font-variant:normal;font-weight:bold;font-stretch:normal;font-size:9.87778px;font-family:Montserrat;-inkscape-font-specification:'Montserrat Bold';fill:#7f3980;fill-opacity:1;stroke-width:0.264583"
         id="path871" />
      <path
         d="m -55.874965,142.70618 q -1.076678,0 -1.945923,-0.46426 -0.859367,-0.46425 -1.353256,-1.27423 -0.484011,-0.81986 -0.484011,-1.83727 0,-1.01741 0.484011,-1.82739 0.493889,-0.81985 1.353256,-1.28411 0.869245,-0.46425 1.945923,-0.46425 1.076678,0 1.936045,0.46425 0.859367,0.46426 1.353256,1.28411 0.493889,0.80998 0.493889,1.82739 0,1.01741 -0.493889,1.83727 -0.493889,0.80998 -1.353256,1.27423 -0.859367,0.46426 -1.936045,0.46426 z m 0,-1.36313 q 0.612422,0 1.106311,-0.27658 0.493889,-0.28646 0.770467,-0.79022 0.286456,-0.50377 0.286456,-1.14583 0,-0.64205 -0.286456,-1.14582 -0.276578,-0.50377 -0.770467,-0.78034 -0.493889,-0.28646 -1.106311,-0.28646 -0.612423,0 -1.106312,0.28646 -0.493889,0.27657 -0.780344,0.78034 -0.276578,0.50377 -0.276578,1.14582 0,0.64206 0.276578,1.14583 0.286455,0.50376 0.780344,0.79022 0.493889,0.27658 1.106312,0.27658 z"
         style="font-style:normal;font-variant:normal;font-weight:bold;font-stretch:normal;font-size:9.87778px;font-family:Montserrat;-inkscape-font-specification:'Montserrat Bold';fill:#7f3980;fill-opacity:1;stroke-width:0.264583"
         id="path873" />
    </g>
  </g>
</svg>
