<?xml version="1.0" encoding="UTF-8" standalone="no"?>
<svg
   xmlns:dc="http://purl.org/dc/elements/1.1/"
   xmlns:cc="http://creativecommons.org/ns#"
   xmlns:rdf="http://www.w3.org/1999/02/22-rdf-syntax-ns#"
   xmlns:svg="http://www.w3.org/2000/svg"
   xmlns="http://www.w3.org/2000/svg"
   xmlns:sodipodi="http://sodipodi.sourceforge.net/DTD/sodipodi-0.dtd"
   xmlns:inkscape="http://www.inkscape.org/namespaces/inkscape"
   width="200"
   height="200"
   viewBox="0 0 52.916668 52.916666"
   version="1.1"
   id="svg8"
   inkscape:version="1.0.2-2 (e86c870879, 2021-01-15)"
   sodipodi:docname="schizo.svg">
  <defs
     id="defs2">
    <rect
       x="-119.34777"
       y="141.44553"
       width="58.605209"
       height="21.034375"
       id="rect942" />
    <inkscape:path-effect
       effect="envelope"
       id="path-effect4658"
       is_visible="true"
       yy="true"
       xx="true"
       bendpath1="m -199.08406,108.42369 h 7.0057"
       bendpath2="m -192.07836,108.42369 v 6.75242"
       bendpath3="m -199.08406,115.17611 h 7.0057"
       bendpath4="m -199.08406,108.42369 v 6.75242" />
    <inkscape:path-effect
       effect="bend_path"
       id="path-effect4656"
       is_visible="true"
       bendpath="m -192.00142,114.60623 c 2.12577,-0.53066 4.48261,0.85111 7.0057,0"
       prop_scale="1"
       scale_y_rel="false"
       vertical="false"
       bendpath-nodetypes="cc" />
    <inkscape:path-effect
       effect="bounding_box"
       id="path-effect4654"
       is_visible="true"
       linkedpath=""
       visualbounds="false" />
  </defs>
  <sodipodi:namedview
     id="base"
     pagecolor="#ffffff"
     bordercolor="#666666"
     borderopacity="1.0"
     inkscape:pageopacity="0.0"
     inkscape:pageshadow="2"
     inkscape:zoom="4"
     inkscape:cx="98.835453"
     inkscape:cy="66.237936"
     inkscape:document-units="px"
     inkscape:current-layer="layer1"
     showgrid="false"
     fit-margin-top="0"
     fit-margin-left="0"
     fit-margin-right="0"
     fit-margin-bottom="0"
     inkscape:window-width="1920"
     inkscape:window-height="1017"
     inkscape:window-x="-8"
     inkscape:window-y="-8"
     inkscape:window-maximized="1"
     showguides="false"
     inkscape:object-nodes="true"
     units="px"
     inkscape:snap-page="true"
     inkscape:document-rotation="0" />
  <metadata
     id="metadata5">
    <rdf:RDF>
      <cc:Work
         rdf:about="">
        <dc:format>image/svg+xml</dc:format>
        <dc:type
           rdf:resource="http://purl.org/dc/dcmitype/StillImage" />
        <dc:title />
      </cc:Work>
    </rdf:RDF>
  </metadata>
  <g
     inkscape:label="Layer 1"
     inkscape:groupmode="layer"
     id="layer1"
     transform="translate(98.048812,-95.14345)">
    <rect
       ry="3.96875"
       rx="3.96875"
       style="fill:#222222;fill-opacity:1;fill-rule:nonzero;stroke:none;stroke-width:0.5;stroke-linecap:butt;stroke-linejoin:round;stroke-miterlimit:4;stroke-dasharray:none;stroke-dashoffset:0;stroke-opacity:0.909449;paint-order:normal"
       id="rect5134"
       width="52.916668"
       height="52.916668"
       x="-98.048813"
       y="95.143448" />
    <rect
       ry="2.6458333"
       rx="2.6458333"
       y="97.789284"
       x="-95.402977"
       height="47.625"
       width="47.625"
       id="rect5136"
       style="fill:#7f3980;fill-opacity:1;fill-rule:nonzero;stroke:none;stroke-width:0.5;stroke-linecap:butt;stroke-linejoin:round;stroke-miterlimit:4;stroke-dasharray:none;stroke-dashoffset:0;stroke-opacity:0.909449;paint-order:normal" />
    <path
       style="fill:#222222;fill-opacity:1;fill-rule:nonzero;stroke:none;stroke-width:0.5;stroke-linecap:butt;stroke-linejoin:round;stroke-miterlimit:4;stroke-dasharray:none;stroke-dashoffset:0;stroke-opacity:0.909449;paint-order:normal"
       d="m -96.593606,132.18512 v 8.33437 c 0,3.07817 2.478088,5.55625 5.55625,5.55625 h 38.893751 c 3.078162,0 5.55625,-2.47808 5.55625,-5.55625 v -8.33437 z"
       id="rect5205"
       inkscape:connector-curvature="0" />
    <path
       id="path954-3"
       style="fill:#222222;fill-opacity:1;stroke-width:1"
       d="m -70.697381,106.94843 c 2.292277,-0.40068 4.625908,0.0575 6.860217,0.56953 1.633467,0.45095 3.478549,0.69737 4.620237,2.10101 1.026019,0.99476 2.032409,2.00525 2.834404,3.19202 1.267672,1.72139 2.347896,3.58599 3.281292,5.51211 0.84882,2.18531 1.234885,4.52456 1.444818,6.84763 0.07767,2.47134 0.01841,4.94583 0.03696,7.41851 h -39.226159 c -1.044329,-2.03412 -0.617402,-4.34573 -0.70685,-6.53767 0.195001,-2.24315 0.831806,-4.44315 1.622138,-6.54949 2.415209,-3.88105 1.831546,-1.73504 5.21373,-3.2856 4.716937,-2.77774 10.634794,-5.77524 12.759071,-9.02354 0.411324,-0.28991 1.260142,-0.24451 1.260084,-0.24313 m -2.993214,20.24729 c 1.038243,0.16608 2.775982,-1.1166 0.988188,-1.5238 -1.387477,0.28902 -3.961426,-0.36135 -4.436979,1.27359 1.026607,0.48155 2.337501,0.31961 3.448925,0.24928 m 2.000689,-2.42955 c 1.538202,-0.67723 1.217697,-3.52489 -0.256798,-4.21101 -1.299044,-0.95174 -2.779866,-1.73804 -4.433776,-1.71914 -1.358734,-0.2999 -2.525309,0.34964 -3.333576,1.38331 -0.94658,0.79214 -1.728785,2.00307 -1.418169,3.28586 0.92224,0.90695 2.473399,0.91888 3.728421,0.95503 1.471827,0.1233 2.912014,-0.51266 4.357566,-0.0156 0.454029,0.11956 0.869504,0.3417 1.355505,0.3216 m 12.432505,0.36767 c 1.173448,0.10504 3.855126,-1.8068 1.855757,-2.3457 -1.263175,0.95277 -3.154255,0.57873 -4.267158,1.54588 -0.083,1.16397 1.720444,0.74295 2.411454,0.80007 m 0.02148,-2.87917 c 1.891479,-0.44229 2.153002,-2.53626 1.963125,-4.16835 0.256052,-1.68019 -0.772877,-3.22187 -2.194316,-4.00994 -1.1073,-1.20662 -3.272431,-1.78185 -4.343208,-0.21747 -1.631773,1.31946 -1.950341,3.73396 -0.995541,5.55186 0.404187,1.71339 1.951889,3.13004 3.78815,2.91676 0.594103,-0.004 1.193571,0.0195 1.782617,-0.0726"
       sodipodi:nodetypes="cccccccccccccccccccccccccccccccccccc" />
    <g
       aria-label="SCHIZO"
       id="text861"
       style="font-style:normal;font-weight:normal;font-size:9.87778px;line-height:1.25;font-family:sans-serif;fill:#7f3980;fill-opacity:1;stroke:none;stroke-width:0.264583">
      <path
         d="m -88.274023,142.70618 q -0.819856,0 -1.590323,-0.21731 -0.760589,-0.22719 -1.224845,-0.58279 l 0.543278,-1.20509 q 0.4445,0.32597 1.056923,0.52352 0.612422,0.19756 1.224844,0.19756 0.681567,0 1.007534,-0.19756 0.325967,-0.20743 0.325967,-0.54328 0,-0.24694 -0.197556,-0.40498 -0.187678,-0.16793 -0.493889,-0.2667 -0.296333,-0.0988 -0.809978,-0.21732 -0.790222,-0.18767 -1.293989,-0.37535 -0.503767,-0.18768 -0.869245,-0.60255 -0.3556,-0.41486 -0.3556,-1.10631 0,-0.60254 0.325967,-1.08655 0.325967,-0.49389 0.9779,-0.78035 0.661812,-0.28645 1.610078,-0.28645 0.661812,0 1.29399,0.15804 0.632178,0.15805 1.106311,0.45438 l -0.493889,1.21497 q -0.958145,-0.54328 -1.916289,-0.54328 -0.671689,0 -0.997656,0.21731 -0.316089,0.21731 -0.316089,0.57291 0,0.3556 0.365478,0.5334 0.375355,0.16792 1.135944,0.33585 0.790223,0.18767 1.29399,0.37535 0.503766,0.18768 0.859366,0.59267 0.365478,0.40499 0.365478,1.09643 0,0.59267 -0.335844,1.08656 -0.325967,0.48401 -0.987778,0.77046 -0.661811,0.28646 -1.610078,0.28646 z"
         style="font-style:normal;font-variant:normal;font-weight:bold;font-stretch:normal;font-size:9.87778px;font-family:Montserrat;-inkscape-font-specification:'Montserrat Bold';fill:#7f3980;fill-opacity:1;stroke-width:0.264583"
         id="path863" />
      <path
         d="m -80.934847,142.70618 q -1.056922,0 -1.916289,-0.45438 -0.849489,-0.46425 -1.343378,-1.27423 -0.484011,-0.81986 -0.484011,-1.84715 0,-1.02729 0.484011,-1.83726 0.493889,-0.81986 1.343378,-1.27424 0.859367,-0.46425 1.926167,-0.46425 0.898878,0 1.619956,0.31609 0.730956,0.31609 1.224845,0.90875 l -1.02729,0.94827 q -0.701322,-0.80998 -1.738489,-0.80998 -0.642056,0 -1.145822,0.28646 -0.503767,0.27657 -0.790223,0.78034 -0.276578,0.50377 -0.276578,1.14582 0,0.64206 0.276578,1.14583 0.286456,0.50376 0.790223,0.79022 0.503766,0.27658 1.145822,0.27658 1.037167,0 1.738489,-0.81986 l 1.02729,0.94827 q -0.493889,0.60254 -1.224845,0.91863 -0.730956,0.31609 -1.629834,0.31609 z"
         style="font-style:normal;font-variant:normal;font-weight:bold;font-stretch:normal;font-size:9.87778px;font-family:Montserrat;-inkscape-font-specification:'Montserrat Bold';fill:#7f3980;fill-opacity:1;stroke-width:0.264583"
         id="path865" />
      <path
         d="m -70.661958,135.6732 v 6.91445 h -1.6002 v -2.83493 h -3.141134 v 2.83493 h -1.6002 v -6.91445 h 1.6002 v 2.72627 h 3.141134 v -2.72627 z"
         style="font-style:normal;font-variant:normal;font-weight:bold;font-stretch:normal;font-size:9.87778px;font-family:Montserrat;-inkscape-font-specification:'Montserrat Bold';fill:#7f3980;fill-opacity:1;stroke-width:0.264583"
         id="path867" />
      <path
         d="m -69.02226,135.6732 h 1.600201 v 6.91445 h -1.600201 z"
         style="font-style:normal;font-variant:normal;font-weight:bold;font-stretch:normal;font-size:9.87778px;font-family:Montserrat;-inkscape-font-specification:'Montserrat Bold';fill:#7f3980;fill-opacity:1;stroke-width:0.264583"
         id="path869" />
      <path
         d="m -60.181654,141.28378 v 1.30387 h -6.045201 v -1.03717 l 3.793067,-4.57341 h -3.714045 v -1.30387 h 5.818012 v 1.03717 l -3.783189,4.57341 z"
         style="font-style:normal;font-variant:normal;font-weight:bold;font-stretch:normal;font-size:9.87778px;font-family:Montserrat;-inkscape-font-specification:'Montserrat Bold';fill:#7f3980;fill-opacity:1;stroke-width:0.264583"
         id="path871" />
      <path
         d="m -55.874965,142.70618 q -1.076678,0 -1.945923,-0.46426 -0.859367,-0.46425 -1.353256,-1.27423 -0.484011,-0.81986 -0.484011,-1.83727 0,-1.01741 0.484011,-1.82739 0.493889,-0.81985 1.353256,-1.28411 0.869245,-0.46425 1.945923,-0.46425 1.076678,0 1.936045,0.46425 0.859367,0.46426 1.353256,1.28411 0.493889,0.80998 0.493889,1.82739 0,1.01741 -0.493889,1.83727 -0.493889,0.80998 -1.353256,1.27423 -0.859367,0.46426 -1.936045,0.46426 z m 0,-1.36313 q 0.612422,0 1.106311,-0.27658 0.493889,-0.28646 0.770467,-0.79022 0.286456,-0.50377 0.286456,-1.14583 0,-0.64205 -0.286456,-1.14582 -0.276578,-0.50377 -0.770467,-0.78034 -0.493889,-0.28646 -1.106311,-0.28646 -0.612423,0 -1.106312,0.28646 -0.493889,0.27657 -0.780344,0.78034 -0.276578,0.50377 -0.276578,1.14582 0,0.64206 0.276578,1.14583 0.286455,0.50376 0.780344,0.79022 0.493889,0.27658 1.106312,0.27658 z"
         style="font-style:normal;font-variant:normal;font-weight:bold;font-stretch:normal;font-size:9.87778px;font-family:Montserrat;-inkscape-font-specification:'Montserrat Bold';fill:#7f3980;fill-opacity:1;stroke-width:0.264583"
         id="path873" />
    </g>
    <path
       id="path1059"
       style="fill:#222222;fill-opacity:1;stroke-width:0.999997"
       d="m -78.819936,98.491232 c -0.19919,0.01197 -0.423473,0.182448 -0.459949,0.368533 -0.03369,0.172429 0.297238,0.436752 0.297238,0.436752 0.344233,0.506435 0.249298,0.468906 -0.218107,0.781713 0,0 -0.475808,0.14323 -0.515343,0.34498 -0.04163,0.21291 0.153157,0.49772 0.366971,0.53931 0.203346,0.0392 0.514848,-0.34449 0.514848,-0.34449 0.652215,-0.43649 0.616048,-0.19691 1.005465,0.37589 l 0.489624,0.72038 0.546006,0.80381 c -1.150995,0.64834 -2.246932,1.30809 -3.292358,1.96975 l -0.485669,-0.71448 -0.490121,-0.72038 c -0.434452,-0.639 -0.604842,-0.64368 0.02522,-1.06536 0,0 0.475788,-0.14321 0.515344,-0.34498 0.04163,-0.2129 -0.153244,-0.49767 -0.366972,-0.53931 -0.203356,-0.0392 -0.514847,0.34449 -0.514847,0.34449 -0.508398,0.34025 -0.485163,0.38937 -0.812582,-0.0922 0,0 -0.123263,-0.40338 -0.297238,-0.43675 -0.214437,-0.0413 -0.501845,0.15095 -0.543532,0.36363 v 5e-4 c -0.03369,0.17242 0.297731,0.43674 0.297731,0.43674 0.344233,0.50645 0.249301,0.46892 -0.218106,0.78173 0,0 -0.475807,0.14273 -0.515342,0.34448 -0.04163,0.2129 0.152662,0.49771 0.366476,0.53931 0.203346,0.0392 0.515344,-0.34449 0.515344,-0.34449 0.652213,-0.43649 0.615554,-0.19692 1.004968,0.37589 l 0.490119,0.72038 0.476768,0.70125 c -1.03023,0.66317 -1.998203,1.32141 -2.936764,1.97221 l -0.478249,-0.7037 -0.490122,-0.72087 c -0.434452,-0.639 -0.604841,-0.64368 0.02522,-1.06536 0,0 0.475788,-0.14321 0.515343,-0.34497 0.04163,-0.2129 -0.153243,-0.49768 -0.366971,-0.53931 -0.203357,-0.0392 -0.514848,0.34449 -0.514848,0.34449 -0.508398,0.34024 -0.485163,0.38986 -0.812581,-0.0917 0,0 -0.123263,-0.40337 -0.297238,-0.43675 -0.214437,-0.0414 -0.501845,0.15096 -0.543533,0.36363 -0.03369,0.17242 0.297732,0.43675 0.297732,0.43675 0.344233,0.50644 0.249301,0.46891 -0.218107,0.78171 0,0 -0.475806,0.14275 -0.51534,0.34449 -0.04163,0.2129 0.152661,0.4982 0.366474,0.5398 0.203346,0.0392 0.515345,-0.34498 0.515345,-0.34498 0.652212,-0.43648 0.615553,-0.19692 1.004968,0.3759 l 0.490119,0.72087 0.485175,0.71351 c -1.096315,0.76772 -2.103548,1.48903 -3.092553,2.19942 l -0.534631,-0.78663 -0.490122,-0.72087 c -0.434452,-0.639 -0.604841,-0.64368 0.02522,-1.06537 0,0 0.475788,-0.14321 0.515343,-0.34497 0.04163,-0.2129 -0.152747,-0.49768 -0.366478,-0.53931 -0.203353,-0.0392 -0.515341,0.34498 -0.515341,0.34498 -0.508396,0.34025 -0.484669,0.38937 -0.812086,-0.0922 0,0 -0.123264,-0.40338 -0.297237,-0.43675 -0.214437,-0.0413 -0.501845,0.15095 -0.543535,0.36363 -0.03369,0.17242 0.297238,0.43674 0.297238,0.43674 0.344233,0.50644 0.249301,0.46891 -0.218107,0.78171 0,0 -0.475806,0.14324 -0.515341,0.34499 -0.04163,0.2129 0.153156,0.4977 0.366972,0.53931 0.203343,0.0392 0.515341,-0.34499 0.515341,-0.34499 0.652215,-0.43648 0.615553,-0.19691 1.004969,0.3759 l 0.49012,0.72087 0.546501,0.8038 c -1.10196,0.78943 -2.170393,1.54287 -3.167233,2.19991 l -0.611785,-0.89998 -0.490118,-0.72038 c -0.434455,-0.639 -0.604845,-0.64368 0.02522,-1.06536 0,0 0.475789,-0.14321 0.515342,-0.34498 0.04163,-0.2129 -0.152748,-0.49768 -0.366476,-0.53931 -0.203356,-0.0392 -0.515343,0.34449 -0.515343,0.34449 -0.508397,0.34025 -0.484669,0.38986 -0.812086,-0.0917 0,0 -0.123758,-0.40337 -0.297732,-0.43674 -0.214437,-0.0413 -0.50135,0.15095 -0.543038,0.36362 -0.03369,0.17242 0.297237,0.43674 0.297237,0.43674 0.344233,0.50645 0.249299,0.46892 -0.218105,0.78172 0,0 -0.475809,0.14274 -0.515345,0.34449 -0.04163,0.2129 0.153158,0.4982 0.366973,0.53979 0.203346,0.0392 0.514847,-0.34497 0.514847,-0.34497 0.652214,-0.43649 0.616047,-0.19692 1.005465,0.37589 l 0.489624,0.72088 c 1.327771,1.87841 3.941825,5.5821 6.177192,4.49305 2.235365,-1.08907 9.90872,-5.86642 11.705506,-7.3098 1.796785,-1.44339 -1.001671,-4.8787 -2.620732,-7.26074 l -0.490118,-0.72038 c -0.434456,-0.638999 -0.604845,-0.644169 0.02522,-1.06585 0,0 0.475788,-0.142726 0.515341,-0.344489 0.04163,-0.212902 -0.152748,-0.498163 -0.366476,-0.539794 -0.203356,-0.03922 -0.515344,0.344982 -0.515344,0.344982 -0.508395,0.340244 -0.484669,0.389367 -0.812085,-0.09221 0,0 -0.123759,-0.403374 -0.297731,-0.436743 -0.02681,-0.0047 -0.05463,-0.0066 -0.08309,-0.0047 z"
       sodipodi:nodetypes="sccccccccccccccccccccccccccccccscccccccccccccccccscccccccccccccccccccccccccccccccczzcccccccsss" />
  </g>
</svg>
