<?xml version="1.0" encoding="UTF-8" standalone="no"?>
<svg
   xmlns:dc="http://purl.org/dc/elements/1.1/"
   xmlns:cc="http://creativecommons.org/ns#"
   xmlns:rdf="http://www.w3.org/1999/02/22-rdf-syntax-ns#"
   xmlns:svg="http://www.w3.org/2000/svg"
   xmlns="http://www.w3.org/2000/svg"
   xmlns:sodipodi="http://sodipodi.sourceforge.net/DTD/sodipodi-0.dtd"
   xmlns:inkscape="http://www.inkscape.org/namespaces/inkscape"
   width="200"
   height="200"
   viewBox="0 0 52.916668 52.916666"
   version="1.1"
   id="svg8"
   inkscape:version="1.0.2-2 (e86c870879, 2021-01-15)"
   sodipodi:docname="serious.svg">
  <defs
     id="defs2">
    <rect
       x="-271.6003"
       y="133.0367"
       width="74.087114"
       height="20.486209"
       id="rect914" />
    <rect
       x="-245.96915"
       y="131.25935"
       width="80.635217"
       height="17.025069"
       id="rect849" />
    <rect
       x="-245.59497"
       y="131.91416"
       width="67.041863"
       height="19.614891"
       id="rect858" />
    <inkscape:path-effect
       effect="envelope"
       id="path-effect4658"
       is_visible="true"
       yy="true"
       xx="true"
       bendpath1="m -199.08406,108.42369 h 7.0057"
       bendpath2="m -192.07836,108.42369 v 6.75242"
       bendpath3="m -199.08406,115.17611 h 7.0057"
       bendpath4="m -199.08406,108.42369 v 6.75242" />
    <inkscape:path-effect
       effect="bend_path"
       id="path-effect4656"
       is_visible="true"
       bendpath="m -192.00142,114.60623 c 2.12577,-0.53066 4.48261,0.85111 7.0057,0"
       prop_scale="1"
       scale_y_rel="false"
       vertical="false"
       bendpath-nodetypes="cc" />
    <inkscape:path-effect
       effect="bounding_box"
       id="path-effect4654"
       is_visible="true"
       linkedpath=""
       visualbounds="false" />
  </defs>
  <sodipodi:namedview
     id="base"
     pagecolor="#ffffff"
     bordercolor="#666666"
     borderopacity="1.0"
     inkscape:pageopacity="0.0"
     inkscape:pageshadow="2"
     inkscape:zoom="2.8284271"
     inkscape:cx="150.25286"
     inkscape:cy="132.77827"
     inkscape:document-units="mm"
     inkscape:current-layer="layer1"
     showgrid="false"
     fit-margin-top="0"
     fit-margin-left="0"
     fit-margin-right="0"
     fit-margin-bottom="0"
     inkscape:window-width="1920"
     inkscape:window-height="1017"
     inkscape:window-x="-8"
     inkscape:window-y="-8"
     inkscape:window-maximized="1"
     showguides="false"
     inkscape:object-nodes="true"
     units="px"
     inkscape:snap-page="true"
     inkscape:document-rotation="0" />
  <metadata
     id="metadata5">
    <rdf:RDF>
      <cc:Work
         rdf:about="">
        <dc:format>image/svg+xml</dc:format>
        <dc:type
           rdf:resource="http://purl.org/dc/dcmitype/StillImage" />
        <dc:title />
      </cc:Work>
    </rdf:RDF>
  </metadata>
  <g
     inkscape:label="Layer 1"
     inkscape:groupmode="layer"
     id="layer1"
     transform="translate(249.80447,-91.409467)">
    <rect
       y="91.40947"
       x="-249.80447"
       height="52.916668"
       width="52.916668"
       id="rect5238-5"
       style="fill:#222222;fill-opacity:1;fill-rule:nonzero;stroke:none;stroke-width:0.5;stroke-linecap:butt;stroke-linejoin:round;stroke-miterlimit:4;stroke-dasharray:none;stroke-dashoffset:0;stroke-opacity:0.909449;paint-order:normal"
       rx="3.96875"
       ry="3.96875" />
    <rect
       style="fill:#ff0000;fill-opacity:1;fill-rule:nonzero;stroke:none;stroke-width:0.5;stroke-linecap:butt;stroke-linejoin:round;stroke-miterlimit:4;stroke-dasharray:none;stroke-dashoffset:0;stroke-opacity:0.909449;paint-order:normal"
       id="rect5240-3"
       width="47.625"
       height="47.625"
       x="-247.15863"
       y="94.055298"
       rx="2.6458333"
       ry="2.6458333" />
    <path
       inkscape:connector-curvature="0"
       id="path5244-6"
       d="m -248.34926,128.45114 v 8.33437 c 0,3.07816 2.47808,5.55625 5.55625,5.55625 h 38.89375 c 3.07816,0 5.55625,-2.47809 5.55625,-5.55625 v -8.33437 z"
       style="fill:#222222;fill-opacity:1;fill-rule:nonzero;stroke:none;stroke-width:0.5;stroke-linecap:butt;stroke-linejoin:round;stroke-miterlimit:4;stroke-dasharray:none;stroke-dashoffset:0;stroke-opacity:0.909449;paint-order:normal" />
    <g
       id="g73576"
       transform="matrix(0.78562887,0,0,0.78562887,-341.54672,42.686892)"
       style="stroke-width:1.27287;fill:#222222;fill-opacity:1">
      <path
         id="path73533"
         style="fill:#222222;fill-opacity:1;stroke-width:1.27287"
         d="m 134.7406,91.516267 c 1.05677,-0.373049 2.29647,-0.116906 3.43272,-0.1909 1.32617,-0.04931 2.60631,0.362404 3.93754,0.3198 1.95943,0.43223 3.95966,0.5239 5.96334,0.4746 1.35898,-0.01161 2.71728,-0.0403 4.05245,0.2386 3.18733,0.02496 6.38313,0.07296 9.56727,-0.02045 1.1575,9.1e-5 3.40227,-1.161269 3.25115,0.78207 0.27129,1.475047 0.7151,2.923691 0.6473,4.44321 0.4188,2.063101 0.15498,4.193613 0.22939,6.289233 -0.19243,1.68669 -0.2538,3.4819 -1.19959,4.96498 -1.12072,2.32796 -3.81819,3.5952 -6.34094,3.41097 -3.26316,-0.0228 -6.52927,0.0475 -9.79042,-0.0389 -3.41926,-0.55481 -6.94293,-1.03327 -10.10616,-2.524 -1.58911,-0.9591 -3.65042,-1.5815 -4.49226,-3.38158 -0.84552,-2.05393 -0.93898,-4.27722 -0.8802,-6.46987 -0.0627,-1.73977 0.33761,-3.431286 0.6205,-5.139263 0.33766,-1.057047 0.62713,-2.156674 1.10639,-3.15658 m 2.35924,6.05561 c 1.52773,-0.551938 3.19123,-0.575058 4.77493,-0.9094 1.84037,0.855824 1.4178,-1.091032 0.11037,-1.46235 -1.5293,-1.194667 -3.78323,-1.288475 -5.36853,-0.15689 -0.57021,0.541246 -2.39703,2.079959 -1.07223,2.55274 0.51451,0.09606 1.0452,0.101781 1.5557,-0.0235 m -0.85459,6.893753 c 0.74216,-0.69803 2.02505,-1.69264 1.95752,-2.87057 -1.01824,-0.29789 -1.84478,1.12335 -2.39218,1.88056 -0.42226,0.45002 -0.29619,1.19901 0.43478,0.99003 m 2.17169,0.011 c 0.89334,-0.0883 2.43482,-2.29207 1.13909,-2.41616 -0.53806,0.30118 -2.45801,2.08675 -1.13906,2.41626 m 1.84556,0.25965 c 0.6524,-0.41934 2.58054,-1.98618 1.05169,-2.44638 -0.66588,0.6231 -1.71235,1.29578 -1.76456,2.25893 0.1927,0.15514 0.47746,0.15745 0.71277,0.1873 m 15.35127,1.59047 c 0.86161,-0.28793 1.50936,-1.11352 2.05831,-1.81383 0.23258,-1.58949 -1.32676,-0.37191 -1.77175,0.30529 -0.40483,0.37641 -1.37977,1.30113 -0.28631,1.50859 m 2.15456,0.2225 c 0.96539,0.004 2.56486,-1.67342 1.4333,-2.36115 -0.71512,0.55088 -1.82726,1.35017 -2.18185,2.1841 0.18228,0.24752 0.485,0.19685 0.74847,0.17675 m 1.82667,0.80747 c 0.76733,-0.22939 2.28142,-1.77962 1.19727,-2.41948 -0.73254,0.38351 -2.14532,1.65283 -1.40245,2.39608 l 0.20565,0.0235 m 1.47335,-6.9815 c 1.32523,-0.28614 0.55308,-2.271064 0.0519,-3.085983 -0.77967,-1.415169 -2.40833,-2.228646 -4.00805,-1.99619 -1.24706,-0.008 -2.40071,0.757365 -3.25486,1.59337 -1.10314,1.499179 1.56127,1.336008 2.44269,1.63917 1.66758,0.379303 3.29247,0.985769 4.76821,1.849653" />
      <path
         id="path73531"
         style="fill:#222222;fill-opacity:1;stroke-width:1.27287"
         d="m 135.40047,86.435577 c 1.2662,0.04418 2.54351,0.165038 3.82074,0.15884 2.1089,0.430322 4.1957,1.035891 6.35825,1.0736 1.73876,0.248668 3.47958,0.471944 5.23549,0.5483 1.78986,0.369472 3.56547,0.782769 5.34214,1.2044 2.04969,0.386631 4.05404,1.065311 6.08358,1.4671 -1.38974,0.750431 -3.06989,0.333974 -4.59951,0.4376 -2.34786,-0.04987 -4.7176,0.160129 -7.03579,-0.2563 -2.30269,-0.08062 -4.63043,0.168194 -6.90365,-0.2479 -1.4731,-0.355529 -3.00089,-0.248798 -4.48627,-0.5334 -1.23242,-0.137171 -2.56191,0.192827 -3.72674,-0.2307 -1.26761,-0.43727 -2.64716,-0.669824 -3.94448,-1.10732 -0.79607,-0.448961 -2.67173,-0.936464 -2.44724,-1.95549 0.99466,-0.71197 2.35365,-0.339744 3.52009,-0.43102 0.92701,-0.02849 1.87251,0.08317 2.7834,-0.1266" />
      <path
         id="path73529"
         style="fill:#222222;fill-opacity:1;stroke-width:1.27287"
         d="m 136.56973,84.128747 c 0.72694,-0.232477 1.74447,0.181981 2.61989,0.05236 1.79049,-0.01025 3.53458,0.499103 5.32317,0.5842 1.66126,0.310417 3.36156,0.399257 5.02064,0.7144 2.37553,0.36689 4.7538,0.793154 7.14025,1.1451 2.18024,0.657392 4.45871,0.92479 6.58834,1.7739 1.7778,-0.210362 2.01203,2.549727 0.0332,1.59478 -2.83394,-0.579853 -5.60574,-1.408442 -8.44084,-1.9875 -1.40063,-0.360014 -2.83796,-0.563073 -4.24805,-0.8745 -2.13207,-0.06536 -4.2204,-0.583379 -6.35704,-0.6285 -1.86927,-0.218401 -3.66504,-0.86492 -5.54035,-0.9944 -0.92876,-0.07568 -2.72713,0.396602 -2.18741,-1.17378 l 0.048,-0.2043" />
      <path
         id="path73527"
         style="fill:#222222;fill-opacity:1;stroke-width:1.27287"
         d="m 164.90172,82.565817 c 0.98507,0.210934 1.87335,1.152544 2.61178,1.884 0.77089,1.067768 1.14662,2.944556 -0.02,3.84561 -1.37665,0.08837 -2.61914,-0.746929 -3.96729,-0.9478 -0.0651,-0.738678 1.0905,-2.058202 1.12069,-3.1471 0.14546,-0.536006 0.0572,-1.108743 0.2553,-1.6341" />
      <path
         id="path73525"
         style="fill:#222222;fill-opacity:1;stroke-width:1.27287"
         d="m 163.14662,79.856877 c 0.88565,0.375206 0.45812,1.645123 0.55851,2.450387 -0.0316,1.328042 -0.35016,2.738114 -1.13686,3.816163 -0.68695,-0.979727 -0.5416,-2.495791 -1.0226,-3.65139 -0.8907,-1.457499 0.17178,-2.155747 1.46362,-2.56766 l 0.13627,-0.0479" />
      <path
         id="path73523"
         style="fill:#222222;fill-opacity:1;stroke-width:1.27287"
         d="m 160.81332,77.518267 c 1.43805,-0.460828 1.67735,2.198492 0.10596,1.97825 -0.43745,-0.510344 -0.93897,-1.565805 -0.10626,-1.97907" />
      <path
         id="path73521"
         style="fill:#222222;fill-opacity:1;stroke-width:1.27287"
         d="m 157.87572,77.2729 c 1.07772,0.245051 1.37599,1.897445 1.86307,2.831937 0.5376,2.074274 1.18544,4.138593 1.4423,6.26771 -1.27794,0.132561 -2.62947,-0.452626 -3.91287,-0.6917 -1.01503,-0.65456 -1.55307,-2.129785 -1.49919,-3.331397 -0.14472,-1.744368 0.92222,-3.258346 1.78116,-4.680213 0.0909,-0.145057 0.19217,-0.28877 0.32734,-0.396495" />
      <path
         id="path73519"
         style="fill:#222222;fill-opacity:1;stroke-width:1.27287"
         d="m 140.70684,72.935695 c 1.72,-0.354202 3.41939,0.338216 5.14146,0.41592 1.2942,0.283779 2.58798,0.571372 3.76782,1.205603 2.16724,0.939629 4.42348,1.67706 6.51965,2.758273 -0.28654,1.515977 -1.64757,2.710193 -1.42495,4.35604 -0.0602,1.13234 0.0575,2.258328 0.38463,3.33342 -1.3045,0.356719 -2.7775,-0.279591 -4.14444,-0.3733 -2.21052,-0.446882 -4.45888,-0.679996 -6.68996,-0.9558 -1.93417,-0.220678 -3.85914,-0.650695 -5.82423,-0.5536 -1.2031,-0.283645 -2.98758,-0.07708 -3.51234,-1.46952 -0.34095,-2.117782 0.8852,-4.073061 2.05626,-5.719855 0.82776,-1.433996 2.09038,-2.580434 3.72503,-2.997174" />
    </g>
    <g
       aria-label="SERIOUS"
       transform="translate(25.327177,-3.2620399)"
       id="text912"
       style="font-style:normal;font-weight:normal;font-size:9.87778px;line-height:1.25;font-family:sans-serif;white-space:pre;shape-inside:url(#rect914);fill:#ff0000;fill-opacity:1;stroke:none">
      <path
         d="m -268.50786,142.23425 q -0.81986,0 -1.59033,-0.21731 -0.76059,-0.22719 -1.22484,-0.58279 l 0.54328,-1.20509 q 0.4445,0.32596 1.05692,0.52352 0.61242,0.19755 1.22484,0.19755 0.68157,0 1.00754,-0.19755 0.32596,-0.20743 0.32596,-0.54328 0,-0.24694 -0.19755,-0.40499 -0.18768,-0.16792 -0.49389,-0.2667 -0.29633,-0.0988 -0.80998,-0.21731 -0.79022,-0.18768 -1.29399,-0.37535 -0.50376,-0.18768 -0.86924,-0.60255 -0.3556,-0.41487 -0.3556,-1.10631 0,-0.60254 0.32596,-1.08656 0.32597,-0.49389 0.9779,-0.78034 0.66182,-0.28646 1.61008,-0.28646 0.66181,0 1.29399,0.15805 0.63218,0.15804 1.10631,0.45438 l -0.49389,1.21496 q -0.95814,-0.54328 -1.91629,-0.54328 -0.67168,0 -0.99765,0.21732 -0.31609,0.21731 -0.31609,0.57291 0,0.3556 0.36548,0.5334 0.37535,0.16792 1.13594,0.33584 0.79022,0.18768 1.29399,0.37536 0.50377,0.18768 0.85937,0.59266 0.36548,0.40499 0.36548,1.09644 0,0.59266 -0.33585,1.08655 -0.32596,0.48402 -0.98778,0.77047 -0.66181,0.28646 -1.61007,0.28646 z"
         style="font-style:normal;font-variant:normal;font-weight:bold;font-stretch:normal;font-size:9.87778px;font-family:Montserrat;-inkscape-font-specification:'Montserrat Bold';fill:#ff0000;fill-opacity:1"
         id="path918" />
      <path
         d="m -259.12399,140.8316 v 1.28411 h -5.35375 v -6.91444 h 5.22534 v 1.28411 h -3.63502 v 1.50142 h 3.21028 v 1.2446 h -3.21028 v 1.6002 z"
         style="font-style:normal;font-variant:normal;font-weight:bold;font-stretch:normal;font-size:9.87778px;font-family:Montserrat;-inkscape-font-specification:'Montserrat Bold';fill:#ff0000;fill-opacity:1"
         id="path920" />
      <path
         d="m -253.44427,142.11571 -1.3335,-1.92616 h -0.079 -1.39277 v 1.92616 h -1.6002 v -6.91444 h 2.99297 q 0.91863,0 1.59032,0.30621 0.68157,0.30621 1.04705,0.86924 0.36547,0.56304 0.36547,1.3335 0,0.77047 -0.37535,1.3335 -0.36548,0.55316 -1.04705,0.84949 l 1.55081,2.2225 z m -0.0296,-4.40549 q 0,-0.58279 -0.37536,-0.889 -0.37535,-0.31609 -1.09643,-0.31609 h -1.30387 v 2.41018 h 1.30387 q 0.72108,0 1.09643,-0.31609 0.37536,-0.31609 0.37536,-0.889 z"
         style="font-style:normal;font-variant:normal;font-weight:bold;font-stretch:normal;font-size:9.87778px;font-family:Montserrat;-inkscape-font-specification:'Montserrat Bold';fill:#ff0000;fill-opacity:1"
         id="path922" />
      <path
         d="m -250.5896,135.20127 h 1.6002 v 6.91444 h -1.6002 z"
         style="font-style:normal;font-variant:normal;font-weight:bold;font-stretch:normal;font-size:9.87778px;font-family:Montserrat;-inkscape-font-specification:'Montserrat Bold';fill:#ff0000;fill-opacity:1"
         id="path924" />
      <path
         d="m -244.00113,142.23425 q -1.07668,0 -1.94593,-0.46426 -0.85936,-0.46426 -1.35325,-1.27423 -0.48401,-0.81986 -0.48401,-1.83727 0,-1.01741 0.48401,-1.82739 0.49389,-0.81986 1.35325,-1.28411 0.86925,-0.46426 1.94593,-0.46426 1.07668,0 1.93604,0.46426 0.85937,0.46425 1.35326,1.28411 0.49389,0.80998 0.49389,1.82739 0,1.01741 -0.49389,1.83727 -0.49389,0.80997 -1.35326,1.27423 -0.85936,0.46426 -1.93604,0.46426 z m 0,-1.36314 q 0.61242,0 1.10631,-0.27658 0.49389,-0.28645 0.77047,-0.79022 0.28645,-0.50376 0.28645,-1.14582 0,-0.64206 -0.28645,-1.14582 -0.27658,-0.50377 -0.77047,-0.78035 -0.49389,-0.28645 -1.10631,-0.28645 -0.61242,0 -1.10631,0.28645 -0.49389,0.27658 -0.78035,0.78035 -0.27658,0.50376 -0.27658,1.14582 0,0.64206 0.27658,1.14582 0.28646,0.50377 0.78035,0.79022 0.49389,0.27658 1.10631,0.27658 z"
         style="font-style:normal;font-variant:normal;font-weight:bold;font-stretch:normal;font-size:9.87778px;font-family:Montserrat;-inkscape-font-specification:'Montserrat Bold';fill:#ff0000;fill-opacity:1"
         id="path926" />
      <path
         d="m -235.94086,142.23425 q -1.48167,0 -2.31141,-0.81986 -0.81985,-0.81986 -0.81985,-2.34103 v -3.87209 h 1.6002 v 3.81282 q 0,1.85702 1.54093,1.85702 0.75071,0 1.14583,-0.4445 0.39511,-0.45438 0.39511,-1.41252 v -3.81282 h 1.58044 v 3.87209 q 0,1.52117 -0.82973,2.34103 -0.81986,0.81986 -2.30152,0.81986 z"
         style="font-style:normal;font-variant:normal;font-weight:bold;font-stretch:normal;font-size:9.87778px;font-family:Montserrat;-inkscape-font-specification:'Montserrat Bold';fill:#ff0000;fill-opacity:1"
         id="path928" />
      <path
         d="m -228.95729,142.23425 q -0.81986,0 -1.59033,-0.21731 -0.76058,-0.22719 -1.22484,-0.58279 l 0.54328,-1.20509 q 0.4445,0.32596 1.05692,0.52352 0.61242,0.19755 1.22484,0.19755 0.68157,0 1.00754,-0.19755 0.32597,-0.20743 0.32597,-0.54328 0,-0.24694 -0.19756,-0.40499 -0.18768,-0.16792 -0.49389,-0.2667 -0.29633,-0.0988 -0.80998,-0.21731 -0.79022,-0.18768 -1.29399,-0.37535 -0.50376,-0.18768 -0.86924,-0.60255 -0.3556,-0.41487 -0.3556,-1.10631 0,-0.60254 0.32597,-1.08656 0.32596,-0.49389 0.9779,-0.78034 0.66181,-0.28646 1.61007,-0.28646 0.66182,0 1.29399,0.15805 0.63218,0.15804 1.10631,0.45438 l -0.49388,1.21496 q -0.95815,-0.54328 -1.91629,-0.54328 -0.67169,0 -0.99766,0.21732 -0.31609,0.21731 -0.31609,0.57291 0,0.3556 0.36548,0.5334 0.37535,0.16792 1.13594,0.33584 0.79023,0.18768 1.29399,0.37536 0.50377,0.18768 0.85937,0.59266 0.36548,0.40499 0.36548,1.09644 0,0.59266 -0.33585,1.08655 -0.32596,0.48402 -0.98777,0.77047 -0.66182,0.28646 -1.61008,0.28646 z"
         style="font-style:normal;font-variant:normal;font-weight:bold;font-stretch:normal;font-size:9.87778px;font-family:Montserrat;-inkscape-font-specification:'Montserrat Bold';fill:#ff0000;fill-opacity:1"
         id="path930" />
    </g>
  </g>
</svg>
