<?xml version="1.0" encoding="UTF-8" standalone="no"?>
<svg
   xmlns:osb="http://www.openswatchbook.org/uri/2009/osb"
   xmlns:dc="http://purl.org/dc/elements/1.1/"
   xmlns:cc="http://creativecommons.org/ns#"
   xmlns:rdf="http://www.w3.org/1999/02/22-rdf-syntax-ns#"
   xmlns:svg="http://www.w3.org/2000/svg"
   xmlns="http://www.w3.org/2000/svg"
   xmlns:sodipodi="http://sodipodi.sourceforge.net/DTD/sodipodi-0.dtd"
   xmlns:inkscape="http://www.inkscape.org/namespaces/inkscape"
   width="200"
   height="200"
   viewBox="0 0 52.916668 52.916666"
   version="1.1"
   id="svg8"
   inkscape:version="1.0.2-2 (e86c870879, 2021-01-15)"
   sodipodi:docname="sincerity.svg">
  <defs
     id="defs2">
    <rect
       x="-74.612501"
       y="-26.9875"
       width="74.612501"
       height="34.925"
       id="rect973" />
    <rect
       x="-255.23004"
       y="125.83378"
       width="102.52459"
       height="46.959256"
       id="rect873" />
    <inkscape:path-effect
       effect="envelope"
       id="path-effect4658"
       is_visible="true"
       yy="true"
       xx="true"
       bendpath1="m -199.08406,108.42369 h 7.0057"
       bendpath2="m -192.07836,108.42369 v 6.75242"
       bendpath3="m -199.08406,115.17611 h 7.0057"
       bendpath4="m -199.08406,108.42369 v 6.75242" />
    <inkscape:path-effect
       effect="bend_path"
       id="path-effect4656"
       is_visible="true"
       bendpath="m -192.00142,114.60623 c 2.12577,-0.53066 4.48261,0.85111 7.0057,0"
       prop_scale="1"
       scale_y_rel="false"
       vertical="false"
       bendpath-nodetypes="cc" />
    <inkscape:path-effect
       effect="bounding_box"
       id="path-effect4654"
       is_visible="true"
       linkedpath=""
       visualbounds="false" />
    <linearGradient
       id="linearGradient3288"
       osb:paint="solid">
      <stop
         style="stop-color:#000000;stop-opacity:1;"
         offset="0"
         id="stop3286" />
    </linearGradient>
    <linearGradient
       id="linearGradient1364"
       osb:paint="solid">
      <stop
         style="stop-color:#ffffff;stop-opacity:1;"
         offset="0"
         id="stop1362" />
    </linearGradient>
    <rect
       x="293.80286"
       y="272.58966"
       width="25.455845"
       height="37.830212"
       id="rect1056" />
    <rect
       x="222.73865"
       y="266.22571"
       width="47.376156"
       height="54.09367"
       id="rect1050" />
    <rect
       x="139.30003"
       y="246.42671"
       width="58.336308"
       height="48.790367"
       id="rect1044" />
    <rect
       x="131.1683"
       y="203.64674"
       width="61.871841"
       height="73.892654"
       id="rect1038" />
    <rect
       x="81.67083"
       y="193.04015"
       width="63.63961"
       height="55.507881"
       id="rect1032" />
    <rect
       x="83.085045"
       y="274.35742"
       width="44.194176"
       height="38.890873"
       id="rect1026" />
    <rect
       x="3.5355339"
       y="269.05414"
       width="65.760933"
       height="53.386562"
       id="rect1020" />
    <rect
       x="14.142136"
       y="226.27417"
       width="79.195961"
       height="62.932503"
       id="rect1014" />
    <rect
       x="11.313708"
       y="171.82695"
       width="36.416"
       height="51.618793"
       id="rect1008" />
    <rect
       x="3.1819806"
       y="132.22897"
       width="102.88404"
       height="102.53048"
       id="rect1002" />
  </defs>
  <sodipodi:namedview
     id="base"
     pagecolor="#ffffff"
     bordercolor="#666666"
     borderopacity="1.0"
     inkscape:pageopacity="0.0"
     inkscape:pageshadow="2"
     inkscape:zoom="2.8284271"
     inkscape:cx="123.74847"
     inkscape:cy="172.61935"
     inkscape:document-units="mm"
     inkscape:current-layer="layer3"
     showgrid="false"
     fit-margin-top="0"
     fit-margin-left="0"
     fit-margin-right="0"
     fit-margin-bottom="0"
     inkscape:window-width="1920"
     inkscape:window-height="1017"
     inkscape:window-x="-8"
     inkscape:window-y="-8"
     inkscape:window-maximized="1"
     showguides="false"
     inkscape:object-nodes="true"
     units="px"
     inkscape:snap-page="true"
     inkscape:document-rotation="0" />
  <metadata
     id="metadata5">
    <rdf:RDF>
      <cc:Work
         rdf:about="">
        <dc:format>image/svg+xml</dc:format>
        <dc:type
           rdf:resource="http://purl.org/dc/dcmitype/StillImage" />
        <dc:title></dc:title>
      </cc:Work>
    </rdf:RDF>
  </metadata>
  <g
     inkscape:label="Layer 1"
     inkscape:groupmode="layer"
     id="layer1"
     transform="translate(249.80447,-91.409467)">
    <rect
       y="91.40947"
       x="-249.80447"
       height="52.916668"
       width="52.916668"
       id="rect5238-5"
       style="fill:#222222;fill-opacity:1;fill-rule:nonzero;stroke:none;stroke-width:0.5;stroke-linecap:butt;stroke-linejoin:round;stroke-miterlimit:4;stroke-dasharray:none;stroke-dashoffset:0;stroke-opacity:0.909449;paint-order:normal"
       rx="3.96875"
       ry="3.96875" />
  </g>
  <g
     inkscape:groupmode="layer"
     id="layer2"
     inkscape:label="Layer 2"
     style="display:inline">
    <path
       id="rect5240-3"
       style="fill:#008080;fill-opacity:1;fill-rule:nonzero;stroke:none;stroke-width:0.5;stroke-linecap:butt;stroke-linejoin:round;stroke-miterlimit:4;stroke-dasharray:none;stroke-dashoffset:0;stroke-opacity:0.909449;paint-order:normal"
       transform="translate(249.80447,-91.409467)"
       d="m -244.5128,94.055298 h 42.33334 c 1.46579,0 2.64583,1.180041 2.64583,2.645833 v 42.333329 c 0,1.4658 -1.18004,2.64584 -2.64583,2.64584 h -42.33334 c -1.46579,0 -2.64583,-1.18004 -2.64583,-2.64584 V 96.701131 c 0,-1.465792 1.18004,-2.645833 2.64583,-2.645833 z" />
    <path
       id="path895"
       style="fill:#ffaec9;fill-opacity:1;fill-rule:nonzero;stroke:none;stroke-width:0.5;stroke-linecap:butt;stroke-linejoin:round;stroke-miterlimit:4;stroke-dasharray:none;stroke-dashoffset:0;stroke-opacity:0.909449;paint-order:normal"
       transform="translate(249.80447,-91.409467)"
       d="m -244.5128,94.055298 h 42.33334 c 0.73289,0 1.39435,0.29501 1.87259,0.773244 l -46.85176,33.622588 V 96.701131 c 0,-1.465792 1.18004,-2.645833 2.64583,-2.645833 z"
       sodipodi:nodetypes="ssccss" />
    <rect
       style="display:inline;fill:#ffaec9;fill-opacity:1;stroke:none;stroke-width:4.99999;stroke-linecap:round;stroke-miterlimit:5.15;paint-order:stroke fill markers"
       id="rect968"
       width="7.9044271"
       height="5.8208332"
       x="12.832292"
       y="26.326042" />
  </g>
  <g
     inkscape:groupmode="layer"
     id="layer3"
     inkscape:label="Layer 3"
     style="display:inline">
    <path
       inkscape:connector-curvature="0"
       id="path5244-6"
       d="m 1.4552083,37.041673 v 8.33437 c 0,3.07816 2.47808,5.55625 5.55625,5.55625 H 45.905208 c 3.07816,0 5.55625,-2.47809 5.55625,-5.55625 v -8.33437 z"
       style="fill:#222222;fill-opacity:1;fill-rule:nonzero;stroke:none;stroke-width:0.5;stroke-linecap:butt;stroke-linejoin:round;stroke-miterlimit:4;stroke-dasharray:none;stroke-dashoffset:0;stroke-opacity:0.909449;paint-order:normal" />
    <path
       id="path156713"
       style="fill:#222222;fill-opacity:1;stroke-width:1"
       d="m 40.570424,4.8561801 c 1.346001,-0.4162036 2.803241,0.2759122 3.80349,1.1518601 1.021906,1.0850856 0.944002,3.024644 -0.06036,4.1092798 -1.015418,1.547558 -2.619679,2.588692 -3.63816,4.135103 -1.257585,1.295804 -2.598442,2.513299 -3.68715,3.958181 -0.716324,0.996486 -1.660818,1.814812 -2.28366,2.87544 0.281989,1.110087 1.091416,2.177718 1.3824,3.35161 0.688265,1.746111 0.627301,3.658127 0.9965,5.4736 0.166577,1.773873 -0.03146,3.539533 -0.3787,5.27169 -0.468644,0.592536 -0.34757,2.151661 -1.29478,2.09747 -7.814714,0 -15.629427,0 -23.444141,0 -0.765018,-1.126302 -0.629639,-2.604418 -0.995164,-3.88501 -0.242062,-2.258714 0.337437,-4.50552 0.870984,-6.68295 0.527213,-2.09859 1.898619,-3.86363 3.449664,-5.32424 1.399774,-0.515817 1.244235,-2.124536 1.121486,-3.33122 -0.04246,-1.881714 -1.705567,-0.405362 -2.552549,-8.3e-4 -1.139572,0.752874 -2.416751,1.533611 -3.854763,1.14485 C 8.6194192,18.797917 8.6979802,16.91523 9.2141712,15.842854 10.14807,13.363479 12.482876,11.860966 14.582021,10.44358 c 1.490426,-0.58434 3.028845,-1.1536856 4.660702,-0.9718997 1.809595,-0.2395146 2.055408,1.6791527 2.122099,2.9972207 0.114276,1.53173 0.381531,3.043936 0.6362,4.557313 -0.23051,1.906722 1.780673,0.696064 2.812991,0.91683 1.502166,0.02201 3.014616,-0.08369 4.501481,0.1606 0.714508,-0.947773 0.868684,-2.305902 1.66539,-3.262541 1.292832,-2.252073 2.854842,-4.353262 4.56189,-6.3021927 1.349165,-1.418042 3.057457,-2.4209528 4.6648,-3.5159402 l 0.18836,-0.0937 0.17434,-0.0721 M 18.467336,31.097754 c 1.136022,-0.319443 1.953157,-1.89454 1.491725,-2.9468 -1.313731,-0.0297 -1.131109,2.522495 -2.813412,1.96888 -1.813229,0.41109 -2.145619,-1.333877 -1.857366,-2.65685 -1.451064,-0.438217 -1.518531,2.149178 -0.782225,2.917 1.004289,1.027492 2.662637,0.838675 3.961186,0.71752 m -0.02002,-11.92647 c 1.467943,-0.177387 0.863111,-2.26467 0.718929,-3.26417 0.493379,-1.976616 -1.561212,-0.777231 -2.003428,0.08601 0.231126,1.019549 -0.02269,2.85755 1.284541,3.17817 m 9.284728,12.99179 c 1.35672,-0.132074 2.901367,-1.176833 2.73733,-2.69229 -1.027413,-0.945487 -1.363932,1.65074 -2.65572,1.53323 -1.100451,0.301963 -3.438099,-0.0234 -2.696215,-1.69929 -0.05101,-1.822224 -1.755235,-0.160137 -1.215621,0.95287 -0.07752,1.525472 1.892546,1.790981 3.034395,1.94894 0.265969,0.0092 0.532092,-0.0099 0.795811,-0.04332 m 4.62189,-12.28189 c 0.879573,-0.453026 1.325858,-1.669776 2.12916,-2.33515 0.807386,-0.882465 1.534857,-1.83212 2.34127,-2.717491 1.438534,-1.953709 3.687292,-3.264776 4.71999,-5.5226227 0.591238,-1.7888567 -1.409751,-1.7788803 -2.16046,-0.63452 -0.921714,0.7278063 -1.718554,1.5340777 -2.453046,2.4530767 -0.774068,0.806448 -1.447361,1.701819 -2.123304,2.589735 -1.433368,1.585959 -2.425282,3.48562 -3.6024,5.254272 -0.03712,0.52876 0.774524,0.701558 1.14873,0.91244" />
    <g
       aria-label="SINCERITY"
       transform="translate(77.513143,66.156937)"
       id="text971"
       style="font-weight:bold;font-size:8.46667px;line-height:1.25;font-family:Montserrat;-inkscape-font-specification:'Montserrat Bold';white-space:pre;shape-inside:url(#rect973);fill:#ffffff">
      <path
         d="m -71.963214,-19.10502 q -0.702733,0 -1.363133,-0.186266 -0.651934,-0.194734 -1.049867,-0.499534 l 0.465666,-1.032934 q 0.381001,0.2794 0.905934,0.448734 0.524934,0.169333 1.049867,0.169333 0.5842,0 0.8636,-0.169333 0.279401,-0.1778 0.279401,-0.465667 0,-0.211667 -0.169334,-0.347133 -0.160867,-0.143934 -0.423333,-0.228601 -0.254,-0.08467 -0.694267,-0.186266 -0.677334,-0.160867 -1.109134,-0.321734 -0.4318,-0.160867 -0.745067,-0.516467 -0.3048,-0.3556 -0.3048,-0.948267 0,-0.516467 0.2794,-0.931333 0.2794,-0.423334 0.8382,-0.668867 0.567267,-0.245534 1.380068,-0.245534 0.567266,0 1.109133,0.135467 0.541867,0.135467 0.948267,0.389467 l -0.423333,1.0414 q -0.821267,-0.465667 -1.642534,-0.465667 -0.575734,0 -0.855134,0.186267 -0.270933,0.186267 -0.270933,0.491067 0,0.3048 0.313267,0.4572 0.321733,0.143934 0.973667,0.287867 0.677333,0.160867 1.109133,0.321733 0.431801,0.160867 0.736601,0.508001 0.313266,0.347133 0.313266,0.9398 0,0.508 -0.287866,0.931334 -0.2794,0.414866 -0.846667,0.6604 -0.567267,0.245533 -1.380068,0.245533 z"
         style="font-weight:bold;font-size:8.46667px;line-height:1.25;font-family:Montserrat;-inkscape-font-specification:'Montserrat Bold';white-space:pre;shape-inside:url(#rect973);fill:#ffaec9;fill-opacity:1"
         id="path977" />
      <path
         d="m -68.508824,-25.133289 h 1.3716 v 5.926669 h -1.3716 z"
         style="font-weight:bold;font-size:8.46667px;line-height:1.25;font-family:Montserrat;-inkscape-font-specification:'Montserrat Bold';white-space:pre;shape-inside:url(#rect973);fill:#ffaec9;fill-opacity:1"
         id="path979" />
      <path
         d="m -60.296162,-25.133289 v 5.926669 h -1.126067 l -2.954868,-3.598334 v 3.598334 h -1.354667 v -5.926669 h 1.134534 l 2.946401,3.598335 v -3.598335 z"
         style="font-weight:bold;font-size:8.46667px;line-height:1.25;font-family:Montserrat;-inkscape-font-specification:'Montserrat Bold';white-space:pre;shape-inside:url(#rect973);fill:#ffaec9;fill-opacity:1"
         id="path981" />
      <path
         d="m -56.054371,-19.10502 q -0.905934,0 -1.642534,-0.389466 -0.728134,-0.397934 -1.151467,-1.092201 -0.414867,-0.702734 -0.414867,-1.583267 0,-0.880534 0.414867,-1.574801 0.423333,-0.702733 1.151467,-1.0922 0.7366,-0.397934 1.651001,-0.397934 0.770467,0 1.388534,0.270934 0.626533,0.270933 1.049867,0.778933 l -0.880534,0.812801 q -0.601134,-0.694267 -1.490134,-0.694267 -0.550334,0 -0.982134,0.245533 -0.4318,0.237067 -0.677333,0.668867 -0.237067,0.4318 -0.237067,0.982134 0,0.550333 0.237067,0.982134 0.245533,0.4318 0.677333,0.677333 0.4318,0.237067 0.982134,0.237067 0.889,0 1.490134,-0.702734 l 0.880534,0.812801 q -0.423334,0.516466 -1.049867,0.7874 -0.626534,0.270933 -1.397001,0.270933 z"
         style="font-weight:bold;font-size:8.46667px;line-height:1.25;font-family:Montserrat;-inkscape-font-specification:'Montserrat Bold';white-space:pre;shape-inside:url(#rect973);fill:#ffaec9;fill-opacity:1"
         id="path983" />
      <path
         d="m -48.095702,-20.307287 v 1.100667 h -4.588935 v -5.926669 h 4.478868 v 1.100667 h -3.115735 v 1.286934 h 2.751668 v 1.066801 h -2.751668 v 1.3716 z"
         style="font-weight:bold;font-size:8.46667px;line-height:1.25;font-family:Montserrat;-inkscape-font-specification:'Montserrat Bold';white-space:pre;shape-inside:url(#rect973);fill:#008080;fill-opacity:1"
         id="path985" />
      <path
         d="m -43.227371,-19.20662 -1.143001,-1.651 h -0.06773 -1.193801 v 1.651 h -1.3716 v -5.926669 h 2.565401 q 0.7874,0 1.363134,0.262467 0.5842,0.262467 0.897467,0.745067 0.313267,0.4826 0.313267,1.143 0,0.660401 -0.321734,1.143001 -0.313267,0.474133 -0.897467,0.728134 l 1.329267,1.905 z m -0.0254,-3.776135 q 0,-0.499533 -0.321734,-0.762 -0.321733,-0.270933 -0.9398,-0.270933 h -1.117601 v 2.065867 h 1.117601 q 0.618067,0 0.9398,-0.270933 0.321734,-0.270934 0.321734,-0.762001 z"
         style="font-weight:bold;font-size:8.46667px;line-height:1.25;font-family:Montserrat;-inkscape-font-specification:'Montserrat Bold';white-space:pre;shape-inside:url(#rect973);fill:#008080;fill-opacity:1"
         id="path987" />
      <path
         d="m -40.780516,-25.133289 h 1.3716 v 5.926669 h -1.3716 z"
         style="font-weight:bold;font-size:8.46667px;line-height:1.25;font-family:Montserrat;-inkscape-font-specification:'Montserrat Bold';white-space:pre;shape-inside:url(#rect973);fill:#008080;fill-opacity:1"
         id="path989" />
      <path
         d="m -36.775787,-24.015688 h -1.896535 v -1.117601 h 5.164669 v 1.117601 h -1.896534 v 4.809068 h -1.3716 z"
         style="font-weight:bold;font-size:8.46667px;line-height:1.25;font-family:Montserrat;-inkscape-font-specification:'Montserrat Bold';white-space:pre;shape-inside:url(#rect973);fill:#008080;fill-opacity:1"
         id="path991" />
      <path
         d="m -30.036339,-21.306354 v 2.099734 h -1.371601 v -2.116667 l -2.294467,-3.810002 h 1.456267 l 1.583267,2.633135 1.583268,-2.633135 h 1.3462 z"
         style="font-weight:bold;font-size:8.46667px;line-height:1.25;font-family:Montserrat;-inkscape-font-specification:'Montserrat Bold';white-space:pre;shape-inside:url(#rect973);fill:#008080;fill-opacity:1"
         id="path993" />
    </g>
  </g>
</svg>
