<?xml version="1.0" encoding="UTF-8" standalone="no"?>
<svg
   xmlns:dc="http://purl.org/dc/elements/1.1/"
   xmlns:cc="http://creativecommons.org/ns#"
   xmlns:rdf="http://www.w3.org/1999/02/22-rdf-syntax-ns#"
   xmlns:svg="http://www.w3.org/2000/svg"
   xmlns="http://www.w3.org/2000/svg"
   xmlns:sodipodi="http://sodipodi.sourceforge.net/DTD/sodipodi-0.dtd"
   xmlns:inkscape="http://www.inkscape.org/namespaces/inkscape"
   width="200"
   height="200"
   viewBox="0 0 52.916668 52.916666"
   version="1.1"
   id="svg8"
   inkscape:version="1.0.2-2 (e86c870879, 2021-01-15)"
   sodipodi:docname="standard.svg">
  <defs
     id="defs2">
    <rect
       x="14.780005"
       y="42.001406"
       width="38.136662"
       height="10.91526"
       id="rect983" />
    <rect
       x="-245.70343"
       y="111.31936"
       width="65.484375"
       height="18.71927"
       id="rect868" />
    <rect
       x="-268.4576"
       y="130.43551"
       width="120.12083"
       height="27.384375"
       id="rect867" />
    <inkscape:path-effect
       effect="envelope"
       id="path-effect4658"
       is_visible="true"
       yy="true"
       xx="true"
       bendpath1="m -199.08406,108.42369 h 7.0057"
       bendpath2="m -192.07836,108.42369 v 6.75242"
       bendpath3="m -199.08406,115.17611 h 7.0057"
       bendpath4="m -199.08406,108.42369 v 6.75242" />
    <inkscape:path-effect
       effect="bend_path"
       id="path-effect4656"
       is_visible="true"
       bendpath="m -192.00142,114.60623 c 2.12577,-0.53066 4.48261,0.85111 7.0057,0"
       prop_scale="1"
       scale_y_rel="false"
       vertical="false"
       bendpath-nodetypes="cc" />
    <inkscape:path-effect
       effect="bounding_box"
       id="path-effect4654"
       is_visible="true"
       linkedpath=""
       visualbounds="false" />
    <pattern
       id="EMFhbasepattern"
       patternUnits="userSpaceOnUse"
       width="6"
       height="6"
       x="0"
       y="0" />
  </defs>
  <sodipodi:namedview
     id="base"
     pagecolor="#ffffff"
     bordercolor="#666666"
     borderopacity="1.0"
     inkscape:pageopacity="0.0"
     inkscape:pageshadow="2"
     inkscape:zoom="4"
     inkscape:cx="66.210087"
     inkscape:cy="96.769315"
     inkscape:document-units="mm"
     inkscape:current-layer="layer5"
     showgrid="false"
     fit-margin-top="0"
     fit-margin-left="0"
     fit-margin-right="0"
     fit-margin-bottom="0"
     inkscape:window-width="1920"
     inkscape:window-height="1017"
     inkscape:window-x="-8"
     inkscape:window-y="-8"
     inkscape:window-maximized="1"
     showguides="false"
     inkscape:object-nodes="true"
     units="px"
     inkscape:snap-page="true"
     inkscape:document-rotation="0" />
  <metadata
     id="metadata5">
    <rdf:RDF>
      <cc:Work
         rdf:about="">
        <dc:format>image/svg+xml</dc:format>
        <dc:type
           rdf:resource="http://purl.org/dc/dcmitype/StillImage" />
        <dc:title></dc:title>
      </cc:Work>
    </rdf:RDF>
  </metadata>
  <g
     inkscape:groupmode="layer"
     id="layer5"
     inkscape:label="Final layer"
     style="display:inline">
    <path
       id="rect5238-5"
       style="fill:#222222;fill-opacity:1;fill-rule:nonzero;stroke:none;stroke-width:0.5;stroke-linecap:butt;stroke-linejoin:round;stroke-miterlimit:4;stroke-dasharray:none;stroke-dashoffset:0;stroke-opacity:0.909449;paint-order:normal"
       transform="translate(249.80447,-91.409467)"
       d="m -245.83572,91.40947 h 44.97916 c 2.19869,0 3.96875,1.770062 3.96875,3.96875 v 44.97917 c 0,2.19869 -1.77006,3.96875 -3.96875,3.96875 h -44.97916 c -2.19869,0 -3.96875,-1.77006 -3.96875,-3.96875 V 95.37822 c 0,-2.198688 1.77006,-3.96875 3.96875,-3.96875 z" />
    <path
       id="rect5240-3"
       style="display:inline;fill:#8b5320;fill-opacity:1;fill-rule:nonzero;stroke:none;stroke-width:0.5;stroke-linecap:butt;stroke-linejoin:round;stroke-miterlimit:4;stroke-dasharray:none;stroke-dashoffset:0;stroke-opacity:0.909449;paint-order:normal"
       transform="translate(249.80447,-91.409467)"
       d="m -244.5128,94.055298 h 42.33334 c 1.46579,0 2.64583,1.180041 2.64583,2.645833 v 42.333329 c 0,1.4658 -1.18004,2.64584 -2.64583,2.64584 h -42.33334 c -1.46579,0 -2.64583,-1.18004 -2.64583,-2.64584 V 96.701131 c 0,-1.465792 1.18004,-2.645833 2.64583,-2.645833 z" />
    <path
       id="path950"
       style="display:inline;fill:#000000;fill-opacity:1;fill-rule:nonzero;stroke:none;stroke-width:0.5;stroke-linecap:butt;stroke-linejoin:round;stroke-miterlimit:4;stroke-dasharray:none;stroke-dashoffset:0;stroke-opacity:0.909449;paint-order:normal"
       d="m 50.27084,11.812589 v 34.830095 c 0,2.009998 -1.18004,3.628144 -2.64583,3.628144 H 5.29167 c -1.46579,0 -2.64583,-1.618146 -2.64583,-3.628144 V 11.812589 Z"
       sodipodi:nodetypes="csssscc" />
    <path
       id="path954"
       style="display:inline;fill:#8b5320;fill-opacity:1;fill-rule:nonzero;stroke:none;stroke-width:0.5;stroke-linecap:butt;stroke-linejoin:round;stroke-miterlimit:4;stroke-dasharray:none;stroke-dashoffset:0;stroke-opacity:0.909449;paint-order:normal"
       d="m 50.27084,28.656246 v 18.435972 c 0,1.760964 -1.18004,3.178625 -2.64583,3.178625 H 5.29167 c -1.46579,0 -2.64583,-1.417661 -2.64583,-3.178625 V 28.656246 Z"
       sodipodi:nodetypes="csssscc" />
    <path
       inkscape:connector-curvature="0"
       id="path5244-6"
       d="m -248.34926,128.45114 v 8.33437 c 0,3.07816 2.47808,5.55625 5.55625,5.55625 h 38.89375 c 3.07816,0 5.55625,-2.47809 5.55625,-5.55625 v -8.33437 z"
       style="display:inline;fill:#222222;fill-opacity:1;fill-rule:nonzero;stroke:none;stroke-width:0.5;stroke-linecap:butt;stroke-linejoin:round;stroke-miterlimit:4;stroke-dasharray:none;stroke-dashoffset:0;stroke-opacity:0.909449;paint-order:normal"
       transform="translate(249.80447,-91.409467)" />
    <text
       xml:space="preserve"
       id="text981"
       style="font-style:normal;font-weight:normal;font-size:4.23333333px;line-height:1.25;font-family:sans-serif;white-space:pre;shape-inside:url(#rect983);fill:#000000;fill-opacity:1;stroke:none;" />
    <path
       id="rect882"
       style="fill:#000000;fill-opacity:1;stroke-width:1.265;stroke-linecap:round;paint-order:stroke fill markers"
       d="m 23.002936,28.174752 4.06854,-1.649466 c 0.654605,1.478549 -0.596855,3.203041 -2.666014,5.033043 L 21.166666,30.72474 Z"
       sodipodi:nodetypes="ccccc" />
    <path
       id="rect884"
       style="fill:#8b5320;fill-opacity:1;stroke-width:1.265;stroke-linecap:round;paint-order:stroke fill markers"
       d="m 34.937572,26.712346 3.500991,-3.580876 c 0.782797,1.593988 0.661399,0.874279 1.272169,2.198403 -2.09572,7.042409 -3.201335,2.161286 -5.490674,2.233371 z"
       sodipodi:nodetypes="ccccc" />
    <g
       id="g870"
       transform="matrix(1.2776566,0,0,1.2776566,-145.5178,-152.8451)"
       style="stroke-width:0.782683;fill:#222222;fill-opacity:1">
      <path
         id="path852"
         style="fill:#222222;fill-opacity:1;stroke-width:0.782682"
         d="m 143.9612,137.37693 c 1.92806,-0.73888 1.80371,1.802 1.32213,2.9283 -0.53354,1.02643 -0.8669,2.51578 -2.02876,2.95354 -1.58102,0.17864 -3.11076,-0.90506 -3.62014,-2.38571 -0.8688,-1.21713 -2.48826,-0.19187 -3.61241,0.0444 -0.77344,0.85572 -1.13607,2.09947 -2.01622,2.92945 -0.91269,1.04308 -2.43232,0.83595 -3.67795,0.75069 -1.33915,-0.20083 -2.83168,-1.42936 -2.45264,-2.90974 1.16892,-0.66282 2.6806,-0.59246 3.95345,-1.10896 2.03328,-0.8793 4.23149,-1.17292 6.3832,-1.5894 1.24305,-0.54938 2.55709,-0.83081 3.88468,-1.125 0.64147,-0.0924 1.27166,-0.21435 1.86464,-0.4879 m -11.82347,6.66902 c 1.11564,-0.27501 2.36347,-0.97428 2.74772,-2.12592 0.48007,-1.56655 -1.20749,-1.27778 -1.23825,-0.0208 -0.19963,0.95813 -2.88564,1.15468 -1.9361,2.07878 l 0.19351,0.0399 0.23254,0.0281 m 10.66118,-2.11053 c 1.22,-0.45274 1.81946,-1.99936 1.6428,-3.23782 -0.51502,-1.52978 -1.17052,0.55059 -1.32366,1.22617 -0.0684,0.74996 -2.15641,1.96597 -0.31945,2.01182" />
      <path
         id="path850"
         style="fill:#222222;fill-opacity:1;stroke-width:0.782682"
         d="m 126.76133,126.77434 c 1.17336,-0.003 2.08739,0.99761 2.88158,1.76666 0.82113,0.97061 1.62407,2.24353 3.07239,1.52672 1.8184,-0.43258 3.7082,-0.22377 5.56175,-0.25725 1.87332,0.29953 3.7333,0.9661 5.14744,2.27783 1.0487,0.86987 1.95314,1.94976 2.28443,3.30176 0.3549,0.68405 0.84123,1.57832 -0.29509,0.88303 -1.49582,-0.43381 -2.79844,0.53156 -4.24764,0.67904 -1.39121,0.18425 -2.65411,0.83415 -4.02622,1.0683 -2.05019,0.37967 -4.13825,0.72379 -6.05665,1.5862 -1.22727,0.59444 -2.81444,0.21007 -3.83362,1.22018 -0.93248,1.00227 -0.42863,2.67494 0.432,3.57724 1.09286,1.02912 2.63193,1.42808 4.1094,1.31484 1.19675,0.0643 2.46337,-0.24387 3.20905,-1.25252 0.80955,-0.76935 1.19343,-1.92561 1.93988,-2.67746 1.53016,-0.86444 2.04938,0.68326 3.04176,1.45799 1.08827,1.02175 2.79384,1.37869 4.21445,0.95876 1.28588,-1.03235 1.90681,-2.66241 2.35821,-4.19599 0.0259,-0.71579 0.0542,-3.18987 0.5335,-1.26966 0.66249,1.69945 0.94022,3.51505 0.8534,5.33716 0.052,1.38707 -0.18458,2.7738 -0.6213,4.08408 -0.14718,0.73218 -0.69816,0.82637 -1.31929,0.74136 -8.46293,0 -16.92584,0 -25.38876,0 0.0111,-1.81634 -0.0227,-3.63412 0.0176,-5.44953 0.29703,-1.53011 0.55253,-3.08248 1.19735,-4.50951 -0.5944,-0.95365 -2.19742,-1.15534 -2.43148,-2.42113 0.16706,-1.25837 1.79987,-1.50676 2.69922,-2.15977 1.33485,-0.31092 1.52982,-1.81969 2.55256,-2.51064 0.75497,-1.18339 0.48397,-2.7428 1.09639,-4.00883 0.1664,-0.46988 0.52081,-0.92899 1.01642,-1.06998" />
    </g>
    <g
       aria-label="STANDARD"
       id="text894"
       style="font-style:normal;font-weight:normal;font-size:7.76111px;line-height:1.25;font-family:sans-serif;fill:#000000;fill-opacity:1;stroke:none;stroke-width:0.264583">
      <path
         d="m 5.9263661,46.796506 q -0.6441721,0 -1.2495387,-0.170744 Q 4.079222,46.447256 3.7144498,46.167856 l 0.4268611,-0.946855 q 0.3492499,0.256117 0.8304387,0.411339 0.4811888,0.155222 0.9623776,0.155222 0.5355166,0 0.7916332,-0.155222 0.2561167,-0.162984 0.2561167,-0.426861 0,-0.194028 -0.1552222,-0.318206 Q 6.6791938,44.755334 6.4385994,44.677723 6.2057661,44.600112 5.8021884,44.506979 5.1812996,44.359518 4.785483,44.212057 4.3896664,44.064596 4.1025053,43.738629 3.8231054,43.412662 3.8231054,42.869385 q 0,-0.473428 0.2561166,-0.853722 0.2561166,-0.388056 0.7683498,-0.613128 0.5199944,-0.225072 1.265061,-0.225072 0.5199943,0 1.0167053,0.124178 0.4967111,0.124177 0.8692443,0.357011 l -0.3880555,0.954616 q -0.7528276,-0.426861 -1.5056553,-0.426861 -0.5277554,0 -0.7838721,0.170744 -0.2483555,0.170745 -0.2483555,0.450145 0,0.2794 0.2871611,0.4191 0.2949222,0.131939 0.8925276,0.263877 0.6208888,0.147462 1.0167054,0.294923 0.3958166,0.147461 0.6752166,0.465666 0.287161,0.318206 0.287161,0.861483 0,0.465667 -0.2638777,0.853723 -0.2561166,0.380294 -0.776111,0.605366 -0.5199943,0.225072 -1.2650609,0.225072 z"
         style="font-style:normal;font-variant:normal;font-weight:bold;font-stretch:normal;font-size:7.76111px;font-family:Montserrat;-inkscape-font-specification:'Montserrat Bold';stroke-width:0.264583;fill:#8b5320;fill-opacity:1"
         id="path896" />
      <path
         d="M 10.140636,42.295063 H 8.4021475 v -1.024467 h 4.7342765 v 1.024467 h -1.738488 v 4.40831 h -1.2573 z"
         style="font-style:normal;font-variant:normal;font-weight:bold;font-stretch:normal;font-size:7.76111px;font-family:Montserrat;-inkscape-font-specification:'Montserrat Bold';stroke-width:0.264583;fill:#8b5320;fill-opacity:1"
         id="path898" />
      <path
         d="m 17.117845,45.539206 h -2.522361 l -0.481188,1.164167 h -1.288345 l 2.421467,-5.432777 h 1.241777 l 2.429228,5.432777 H 17.599034 Z M 16.722028,44.58459 15.860545,42.504613 14.999062,44.58459 Z"
         style="font-style:normal;font-variant:normal;font-weight:bold;font-stretch:normal;font-size:7.76111px;font-family:Montserrat;-inkscape-font-specification:'Montserrat Bold';stroke-width:0.264583;fill:#cccccc"
         id="path900" />
      <path
         d="m 24.467608,41.270596 v 5.432777 H 23.43538 l -2.708627,-3.298472 v 3.298472 h -1.241778 v -5.432777 h 1.039989 l 2.700866,3.298472 v -3.298472 z"
         style="font-style:normal;font-variant:normal;font-weight:bold;font-stretch:normal;font-size:7.76111px;font-family:Montserrat;-inkscape-font-specification:'Montserrat Bold';stroke-width:0.264583;fill:#cccccc"
         id="path902" />
      <path
         d="m 25.755943,41.270596 h 2.468032 q 0.884767,0 1.559984,0.341489 0.682977,0.333728 1.05551,0.946855 0.380295,0.613128 0.380295,1.428045 0,0.814916 -0.380295,1.428044 -0.372533,0.613127 -1.05551,0.954616 -0.675217,0.333728 -1.559984,0.333728 h -2.468032 z m 2.405944,4.400549 q 0.814916,0 1.296105,-0.450144 0.48895,-0.457906 0.48895,-1.234016 0,-0.776111 -0.48895,-1.226256 -0.481189,-0.457905 -1.296105,-0.457905 h -1.148645 v 3.368321 z"
         style="font-style:normal;font-variant:normal;font-weight:bold;font-stretch:normal;font-size:7.76111px;font-family:Montserrat;-inkscape-font-specification:'Montserrat Bold';stroke-width:0.264583;fill:#cccccc"
         id="path904" />
      <path
         d="m 35.666864,45.539206 h -2.522361 l -0.481189,1.164167 H 31.37497 l 2.421466,-5.432777 h 1.241778 l 2.429227,5.432777 H 36.148053 Z M 35.271047,44.58459 34.409564,42.504613 33.548081,44.58459 Z"
         style="font-style:normal;font-variant:normal;font-weight:bold;font-stretch:normal;font-size:7.76111px;font-family:Montserrat;-inkscape-font-specification:'Montserrat Bold';stroke-width:0.264583;fill:#cccccc"
         id="path906" />
      <path
         d="m 41.495447,46.703373 -1.04775,-1.513416 h -0.06209 -1.094316 v 1.513416 h -1.2573 v -5.432777 h 2.351616 q 0.721783,0 1.249539,0.240594 0.535517,0.240595 0.822678,0.682978 0.287161,0.442383 0.287161,1.04775 0,0.605367 -0.294923,1.04775 -0.287161,0.434622 -0.822677,0.667455 l 1.218494,1.74625 z m -0.02328,-3.461455 q 0,-0.457906 -0.294923,-0.6985 -0.294922,-0.248355 -0.861483,-0.248355 h -1.024466 v 1.89371 h 1.024466 q 0.566561,0 0.861483,-0.248355 0.294923,-0.248356 0.294923,-0.6985 z"
         style="font-style:normal;font-variant:normal;font-weight:bold;font-stretch:normal;font-size:7.76111px;font-family:Montserrat;-inkscape-font-specification:'Montserrat Bold';stroke-width:0.264583;fill:#8b5320;fill-opacity:1"
         id="path908" />
      <path
         d="m 43.738399,41.270596 h 2.468033 q 0.884766,0 1.559983,0.341489 0.682977,0.333728 1.055511,0.946855 0.380294,0.613128 0.380294,1.428045 0,0.814916 -0.380294,1.428044 -0.372534,0.613127 -1.055511,0.954616 -0.675217,0.333728 -1.559983,0.333728 h -2.468033 z m 2.405944,4.400549 q 0.814916,0 1.296105,-0.450144 0.48895,-0.457906 0.48895,-1.234016 0,-0.776111 -0.48895,-1.226256 -0.481189,-0.457905 -1.296105,-0.457905 h -1.148644 v 3.368321 z"
         style="font-style:normal;font-variant:normal;font-weight:bold;font-stretch:normal;font-size:7.76111px;font-family:Montserrat;-inkscape-font-specification:'Montserrat Bold';stroke-width:0.264583;fill:#8b5320;fill-opacity:1"
         id="path910" />
    </g>
  </g>
</svg>
