<?xml version="1.0" encoding="UTF-8" standalone="no"?>
<svg
   xmlns:dc="http://purl.org/dc/elements/1.1/"
   xmlns:cc="http://creativecommons.org/ns#"
   xmlns:rdf="http://www.w3.org/1999/02/22-rdf-syntax-ns#"
   xmlns:svg="http://www.w3.org/2000/svg"
   xmlns="http://www.w3.org/2000/svg"
   xmlns:sodipodi="http://sodipodi.sourceforge.net/DTD/sodipodi-0.dtd"
   xmlns:inkscape="http://www.inkscape.org/namespaces/inkscape"
   width="200"
   height="200"
   viewBox="0 0 52.916668 52.916666"
   version="1.1"
   id="svg8"
   inkscape:version="1.0.2-2 (e86c870879, 2021-01-15)"
   sodipodi:docname="reform.svg">
  <defs
     id="defs2">
    <rect
       x="-230.62218"
       y="74.079259"
       width="66.013542"
       height="16.801042"
       id="rect885" />
    <inkscape:path-effect
       effect="envelope"
       id="path-effect4658"
       is_visible="true"
       yy="true"
       xx="true"
       bendpath1="m -199.08406,108.42369 h 7.0057"
       bendpath2="m -192.07836,108.42369 v 6.75242"
       bendpath3="m -199.08406,115.17611 h 7.0057"
       bendpath4="m -199.08406,108.42369 v 6.75242" />
    <inkscape:path-effect
       effect="bend_path"
       id="path-effect4656"
       is_visible="true"
       bendpath="m -192.00142,114.60623 c 2.12577,-0.53066 4.48261,0.85111 7.0057,0"
       prop_scale="1"
       scale_y_rel="false"
       vertical="false"
       bendpath-nodetypes="cc" />
    <inkscape:path-effect
       effect="bounding_box"
       id="path-effect4654"
       is_visible="true"
       linkedpath=""
       visualbounds="false" />
  </defs>
  <sodipodi:namedview
     id="base"
     pagecolor="#ffffff"
     bordercolor="#666666"
     borderopacity="1.0"
     inkscape:pageopacity="0.0"
     inkscape:pageshadow="2"
     inkscape:zoom="2"
     inkscape:cx="239.05422"
     inkscape:cy="16.490971"
     inkscape:document-units="mm"
     inkscape:current-layer="layer1"
     showgrid="false"
     fit-margin-top="0"
     fit-margin-left="0"
     fit-margin-right="0"
     fit-margin-bottom="0"
     inkscape:window-width="1920"
     inkscape:window-height="1017"
     inkscape:window-x="-8"
     inkscape:window-y="-8"
     inkscape:window-maximized="1"
     showguides="false"
     inkscape:object-nodes="true"
     units="px"
     inkscape:snap-page="true"
     inkscape:document-rotation="0" />
  <metadata
     id="metadata5">
    <rdf:RDF>
      <cc:Work
         rdf:about="">
        <dc:format>image/svg+xml</dc:format>
        <dc:type
           rdf:resource="http://purl.org/dc/dcmitype/StillImage" />
        <dc:title></dc:title>
      </cc:Work>
    </rdf:RDF>
  </metadata>
  <g
     inkscape:label="Layer 1"
     inkscape:groupmode="layer"
     id="layer1"
     transform="translate(249.80447,-91.409467)">
    <rect
       y="91.40947"
       x="-249.80447"
       height="52.916668"
       width="52.916668"
       id="rect5238-5"
       style="fill:#222222;fill-opacity:1;fill-rule:nonzero;stroke:none;stroke-width:0.5;stroke-linecap:butt;stroke-linejoin:round;stroke-miterlimit:4;stroke-dasharray:none;stroke-dashoffset:0;stroke-opacity:0.909449;paint-order:normal"
       rx="3.96875"
       ry="3.96875" />
    <rect
       style="fill:#ffafe4;fill-opacity:1;fill-rule:nonzero;stroke:none;stroke-width:0.5;stroke-linecap:butt;stroke-linejoin:round;stroke-miterlimit:4;stroke-dasharray:none;stroke-dashoffset:0;stroke-opacity:0.909449;paint-order:normal"
       id="rect5240-3"
       width="47.625"
       height="47.625"
       x="-247.15863"
       y="94.055298"
       rx="2.6458333"
       ry="2.6458333" />
    <path
       inkscape:connector-curvature="0"
       id="path5244-6"
       d="m -248.34926,128.45114 v 8.33437 c 0,3.07816 2.47808,5.55625 5.55625,5.55625 h 38.89375 c 3.07816,0 5.55625,-2.47809 5.55625,-5.55625 v -8.33437 z"
       style="fill:#222222;fill-opacity:1;fill-rule:nonzero;stroke:none;stroke-width:0.5;stroke-linecap:butt;stroke-linejoin:round;stroke-miterlimit:4;stroke-dasharray:none;stroke-dashoffset:0;stroke-opacity:0.909449;paint-order:normal" />
    <g
       id="g894"
       transform="matrix(0.26458333,0,0,0.26458333,-205.77016,95.95895)"
       style="fill:#222222;fill-opacity:1">
      <path
         id="path874"
         style="fill:#222222;fill-opacity:1"
         d="m -82.841797,86.408203 -12.605469,0.394531 h -10.933594 l -4.13476,19.999996 25.716792,0.29493 z m -6.832031,6.294922 -0.857422,8.197265 -12.24805,0.0996 1.58203,-8.099609 z" />
      <path
         id="path870"
         style="fill:#222222;fill-opacity:1"
         d="m -101.35547,61.802734 -3.16015,18 h 21.999995 l 0.582031,-11.224609 5.806641,-3.042969 -4.609375,-3.732422 z m 4.07422,5 h 1.703125 l -0.996094,2.595704 5.039063,4.734374 4.054687,-2.070312 -0.248047,2.740234 h -10.787109 z m 4.648438,0 5.201171,0.09961 -3.273437,1.884765 z" />
      <path
         style="fill:#222222;fill-opacity:1"
         d="m -66.739423,63.802366 -7.04688,16.220703 17.3086,-4.472656 z"
         id="path866" />
      <path
         style="fill:#222222;fill-opacity:1"
         d="m -52.143721,44.771116 -59.781249,0.53125 -18.58984,79.500004 H -5.3800487 L -23.958174,51.478147 -28.80583,55.32385 -13.792158,117.80237 H -122.51481 l 15.53125,-65.500004 49.648437,-0.535156 6.667965,-5.960938 z"
         id="path862" />
      <path
         style="fill:#222222;fill-opacity:1"
         d="m -22.014814,23.874632 -42.687499,37.328125 11.12695,12.699219 43.060549,-37.060547 z"
         id="path860" />
      <path
         style="fill:#222222;fill-opacity:1"
         d="m -9.5402047,17.800413 c -3.2890473,-0.148532 -7.1541743,1.252036 -10.4023443,4.773437 l 11.0507823,12.615235 c 11.036678,-9.236726 6.587465,-17.061903 -0.648438,-17.388672 z"
         id="path858" />
    </g>
    <g
       aria-label="REFORM"
       transform="translate(-16.916483,55.293485)"
       id="text883"
       style="font-style:normal;font-weight:normal;font-size:10.5833px;line-height:1.25;font-family:sans-serif;white-space:pre;shape-inside:url(#rect885);fill:#eeeeee;fill-opacity:1;stroke:none">
      <path
         d="m -225.02448,83.80712 -1.42875,-2.063743 h -0.0847 -1.49225 v 2.063743 h -1.71449 v -7.40831 h 3.20674 q 0.98424,0 1.70391,0.328083 0.73025,0.328082 1.12183,0.93133 0.39158,0.603248 0.39158,1.428746 0,0.825497 -0.40217,1.428745 -0.39158,0.592665 -1.12183,0.910164 l 1.66158,2.381242 z m -0.0317,-4.720151 q 0,-0.624415 -0.40217,-0.952497 -0.40216,-0.338666 -1.17474,-0.338666 h -1.397 v 2.582325 h 1.397 q 0.77258,0 1.17474,-0.338665 0.40217,-0.338666 0.40217,-0.952497 z"
         style="font-style:normal;font-variant:normal;font-weight:bold;font-stretch:normal;font-family:Montserrat;-inkscape-font-specification:'Montserrat Bold';fill:#eeeeee;fill-opacity:1"
         id="path889" />
      <path
         d="m -216.22977,82.431291 v 1.375829 h -5.73615 v -7.40831 h 5.59856 v 1.375829 h -3.89465 v 1.608662 h 3.43957 v 1.333496 h -3.43957 v 1.714494 z"
         style="font-style:normal;font-variant:normal;font-weight:bold;font-stretch:normal;font-family:Montserrat;-inkscape-font-specification:'Montserrat Bold';fill:#eeeeee;fill-opacity:1"
         id="path891" />
      <path
         d="m -213.15004,77.774639 v 1.957911 h 3.42899 v 1.375829 h -3.42899 v 2.698741 h -1.71449 v -7.40831 h 5.59856 v 1.375829 z"
         style="font-style:normal;font-variant:normal;font-weight:bold;font-stretch:normal;font-family:Montserrat;-inkscape-font-specification:'Montserrat Bold';fill:#eeeeee;fill-opacity:1"
         id="path893" />
      <path
         d="m -204.58817,83.93412 q -1.15358,0 -2.08491,-0.497415 -0.92075,-0.497415 -1.44991,-1.365246 -0.51858,-0.878414 -0.51858,-1.968494 0,-1.09008 0.51858,-1.95791 0.52916,-0.878414 1.44991,-1.375829 0.93133,-0.497415 2.08491,-0.497415 1.15358,0 2.07433,0.497415 0.92074,0.497415 1.44991,1.375829 0.52916,0.86783 0.52916,1.95791 0,1.09008 -0.52916,1.968494 -0.52917,0.867831 -1.44991,1.365246 -0.92075,0.497415 -2.07433,0.497415 z m 0,-1.460496 q 0.65617,0 1.18533,-0.296332 0.52917,-0.306916 0.8255,-0.846664 0.30691,-0.539748 0.30691,-1.227663 0,-0.687914 -0.30691,-1.227662 -0.29633,-0.539749 -0.8255,-0.836081 -0.52916,-0.306916 -1.18533,-0.306916 -0.65616,0 -1.18533,0.306916 -0.52916,0.296332 -0.83608,0.836081 -0.29633,0.539748 -0.29633,1.227662 0,0.687915 0.29633,1.227663 0.30692,0.539748 0.83608,0.846664 0.52917,0.296332 1.18533,0.296332 z"
         style="font-style:normal;font-variant:normal;font-weight:bold;font-stretch:normal;font-family:Montserrat;-inkscape-font-specification:'Montserrat Bold';fill:#eeeeee;fill-opacity:1"
         id="path895" />
      <path
         d="m -194.52345,83.80712 -1.42875,-2.063743 h -0.0847 -1.49224 v 2.063743 h -1.71449 v -7.40831 h 3.20673 q 0.98425,0 1.70392,0.328083 0.73024,0.328082 1.12183,0.93133 0.39158,0.603248 0.39158,1.428746 0,0.825497 -0.40217,1.428745 -0.39158,0.592665 -1.12183,0.910164 l 1.66158,2.381242 z m -0.0318,-4.720151 q 0,-0.624415 -0.40217,-0.952497 -0.40216,-0.338666 -1.17474,-0.338666 h -1.397 v 2.582325 h 1.397 q 0.77258,0 1.17474,-0.338665 0.40217,-0.338666 0.40217,-0.952497 z"
         style="font-style:normal;font-variant:normal;font-weight:bold;font-stretch:normal;font-family:Montserrat;-inkscape-font-specification:'Montserrat Bold';fill:#eeeeee;fill-opacity:1"
         id="path897" />
      <path
         d="m -184.72333,83.80712 -0.0106,-4.444986 -2.18015,3.661822 h -0.77259 l -2.16957,-3.566572 v 4.349736 h -1.60866 v -7.40831 h 1.41816 l 2.77282,4.603736 2.73049,-4.603736 h 1.40758 l 0.0212,7.40831 z"
         style="font-style:normal;font-variant:normal;font-weight:bold;font-stretch:normal;font-family:Montserrat;-inkscape-font-specification:'Montserrat Bold';fill:#eeeeee;fill-opacity:1"
         id="path899" />
    </g>
  </g>
</svg>
