<?xml version="1.0" encoding="UTF-8" standalone="no"?>
<svg
   xmlns:dc="http://purl.org/dc/elements/1.1/"
   xmlns:cc="http://creativecommons.org/ns#"
   xmlns:rdf="http://www.w3.org/1999/02/22-rdf-syntax-ns#"
   xmlns:svg="http://www.w3.org/2000/svg"
   xmlns="http://www.w3.org/2000/svg"
   xmlns:sodipodi="http://sodipodi.sourceforge.net/DTD/sodipodi-0.dtd"
   xmlns:inkscape="http://www.inkscape.org/namespaces/inkscape"
   width="200"
   height="200"
   viewBox="0 0 52.916668 52.916666"
   version="1.1"
   id="svg8"
   inkscape:version="1.0.2-2 (e86c870879, 2021-01-15)"
   sodipodi:docname="wacky.svg">
  <defs
     id="defs2">
    <rect
       x="-261.71072"
       y="122.43186"
       width="44.251562"
       height="18.322396"
       id="rect878" />
    <rect
       x="-230.62218"
       y="74.079259"
       width="66.013542"
       height="16.801042"
       id="rect885" />
    <inkscape:path-effect
       effect="envelope"
       id="path-effect4658"
       is_visible="true"
       yy="true"
       xx="true"
       bendpath1="m -199.08406,108.42369 h 7.0057"
       bendpath2="m -192.07836,108.42369 v 6.75242"
       bendpath3="m -199.08406,115.17611 h 7.0057"
       bendpath4="m -199.08406,108.42369 v 6.75242" />
    <inkscape:path-effect
       effect="bend_path"
       id="path-effect4656"
       is_visible="true"
       bendpath="m -192.00142,114.60623 c 2.12577,-0.53066 4.48261,0.85111 7.0057,0"
       prop_scale="1"
       scale_y_rel="false"
       vertical="false"
       bendpath-nodetypes="cc" />
    <inkscape:path-effect
       effect="bounding_box"
       id="path-effect4654"
       is_visible="true"
       linkedpath=""
       visualbounds="false" />
  </defs>
  <sodipodi:namedview
     id="base"
     pagecolor="#ffffff"
     bordercolor="#666666"
     borderopacity="1.0"
     inkscape:pageopacity="0.0"
     inkscape:pageshadow="2"
     inkscape:zoom="4"
     inkscape:cx="107.15932"
     inkscape:cy="124.9492"
     inkscape:document-units="mm"
     inkscape:current-layer="layer1"
     showgrid="false"
     fit-margin-top="0"
     fit-margin-left="0"
     fit-margin-right="0"
     fit-margin-bottom="0"
     inkscape:window-width="1920"
     inkscape:window-height="1017"
     inkscape:window-x="-8"
     inkscape:window-y="-8"
     inkscape:window-maximized="1"
     showguides="false"
     inkscape:object-nodes="true"
     units="px"
     inkscape:snap-page="true"
     inkscape:document-rotation="0" />
  <metadata
     id="metadata5">
    <rdf:RDF>
      <cc:Work
         rdf:about="">
        <dc:format>image/svg+xml</dc:format>
        <dc:type
           rdf:resource="http://purl.org/dc/dcmitype/StillImage" />
        <dc:title />
      </cc:Work>
    </rdf:RDF>
  </metadata>
  <g
     inkscape:label="Layer 1"
     inkscape:groupmode="layer"
     id="layer1"
     transform="translate(249.80447,-91.409467)">
    <rect
       y="91.40947"
       x="-249.80447"
       height="52.916668"
       width="52.916668"
       id="rect5238-5"
       style="fill:#222222;fill-opacity:1;fill-rule:nonzero;stroke:none;stroke-width:0.5;stroke-linecap:butt;stroke-linejoin:round;stroke-miterlimit:4;stroke-dasharray:none;stroke-dashoffset:0;stroke-opacity:0.909449;paint-order:normal"
       rx="3.96875"
       ry="3.96875" />
    <rect
       style="fill:#00b5ff;fill-opacity:1;fill-rule:nonzero;stroke:none;stroke-width:0.5;stroke-linecap:butt;stroke-linejoin:round;stroke-miterlimit:4;stroke-dasharray:none;stroke-dashoffset:0;stroke-opacity:0.909449;paint-order:normal"
       id="rect5240-3"
       width="47.625"
       height="47.625"
       x="-247.15863"
       y="94.055298"
       rx="2.6458333"
       ry="2.6458333" />
    <path
       inkscape:connector-curvature="0"
       id="path5244-6"
       d="m -248.34926,128.45114 v 8.33437 c 0,3.07816 2.47808,5.55625 5.55625,5.55625 h 38.89375 c 3.07816,0 5.55625,-2.47809 5.55625,-5.55625 v -8.33437 z"
       style="fill:#222222;fill-opacity:1;fill-rule:nonzero;stroke:none;stroke-width:0.5;stroke-linecap:butt;stroke-linejoin:round;stroke-miterlimit:4;stroke-dasharray:none;stroke-dashoffset:0;stroke-opacity:0.909449;paint-order:normal" />
    <g
       id="g921"
       transform="matrix(1.3127157,0,0,1.3127157,-396.15942,-102.64362)"
       style="stroke-width:0.761779;fill:#222222;fill-opacity:1">
      <path
         id="path910"
         style="fill:#222222;fill-opacity:1;stroke-width:0.761779"
         d="m 136.58261,166.61968 c 1.1846,-0.56751 2.65033,0.95821 1.77103,2.06516 -0.74822,1.25557 -2.84563,0.39835 -2.56602,-1.01563 0.14394,-0.41722 0.42465,-0.80439 0.79601,-1.04943" />
      <path
         id="path908"
         style="fill:#222222;fill-opacity:1;stroke-width:0.761779"
         d="m 126.78072,166.62814 c 1.13782,-0.52745 2.5281,0.75654 1.89845,1.91777 -0.54521,1.1752 -2.43732,0.8581 -2.66156,-0.37264 -0.21246,-0.67992 0.25971,-1.18036 0.76335,-1.54494" />
      <path
         id="path902"
         style="fill:#222222;fill-opacity:1;stroke-width:0.761779"
         d="m 129.12756,156.27599 c 1.44015,-0.21691 2.90721,-0.10692 4.35862,-0.1048 2.39123,0.36817 4.7443,1.32808 6.52985,2.98611 1.26386,0.80759 1.98243,2.16798 2.91644,3.29735 0.76453,1.39526 1.6111,2.79087 1.88345,4.38277 0.63746,1.88288 0.39477,3.88062 0.4427,5.83081 -0.062,1.21598 -0.30909,2.44772 -0.793,3.56768 -8.54479,0 -17.08959,0 -25.63438,0 -0.56898,-1.56372 -0.87276,-3.22279 -0.79316,-4.88907 0.005,-1.53852 -0.1012,-3.11374 0.4632,-4.58194 0.31572,-1.58675 1.09343,-3.02956 1.94467,-4.38408 0.89763,-1.14892 1.61301,-2.52454 2.9263,-3.26414 1.00747,-1.07639 2.36853,-1.69061 3.72559,-2.1991 0.64077,-0.32661 1.33129,-0.48882 2.02849,-0.6416 m -1.18463,15.14715 c 1.44249,-0.35027 2.61288,-1.62488 2.72391,-3.12969 0.34825,-2.16152 -1.77819,-4.30933 -3.95166,-3.85175 -1.18145,0.25934 -2.32119,1.16531 -2.6517,2.36408 -0.77423,2.07692 0.89158,4.59477 3.12775,4.62132 0.25001,0.0156 0.50321,0.0394 0.75199,-0.004 m 9.81553,-0.26177 c 1.67867,-0.35663 2.94606,-2.05431 2.71137,-3.77896 -0.14427,-1.87526 -2.15921,-3.453 -4.01405,-2.911 -1.8169,0.50944 -3.09295,2.72874 -2.30354,4.51888 0.4801,1.14628 1.48948,2.07039 2.7603,2.19898 0.28223,0.0111 0.56433,-0.0134 0.84597,-0.0281" />
    </g>
    <g
       aria-label="WACKY"
       transform="translate(17.11356,6.9419221)"
       id="text876"
       style="font-style:normal;font-weight:normal;font-size:10.5833px;line-height:1.25;font-family:sans-serif;white-space:pre;shape-inside:url(#rect878);fill:#00b5ff;fill-opacity:1;stroke:none">
      <path
         d="m -249.63539,124.75037 -2.42358,7.40831 h -1.84149 l -1.62983,-5.01648 -1.68275,5.01648 h -1.83091 l -2.43415,-7.40831 h 1.77799 l 1.67216,5.20699 1.74625,-5.20699 h 1.58749 l 1.69333,5.24932 1.72508,-5.24932 z"
         style="font-style:normal;font-variant:normal;font-weight:bold;font-stretch:normal;font-family:Montserrat;-inkscape-font-specification:'Montserrat Bold';fill:#00b5ff;fill-opacity:1"
         id="path882" />
      <path
         d="m -244.04743,130.57119 h -3.43957 l -0.65617,1.58749 H -249.9 l 3.30199,-7.40831 h 1.69333 l 3.31257,7.40831 h -1.79916 z m -0.53975,-1.30175 -1.17475,-2.83632 -1.17474,2.83632 z"
         style="font-style:normal;font-variant:normal;font-weight:bold;font-stretch:normal;font-family:Montserrat;-inkscape-font-specification:'Montserrat Bold';fill:#00b5ff;fill-opacity:1"
         id="path884" />
      <path
         d="m -237.37997,132.28568 q -1.13241,0 -2.05316,-0.48683 -0.91016,-0.49741 -1.43933,-1.36525 -0.51858,-0.87841 -0.51858,-1.97907 0,-1.10067 0.51858,-1.9685 0.52917,-0.87841 1.43933,-1.36524 0.92075,-0.49742 2.06375,-0.49742 0.96308,0 1.73566,0.33867 0.78316,0.33866 1.31233,0.97366 l -1.10067,1.016 q -0.75141,-0.86783 -1.86266,-0.86783 -0.68791,0 -1.22766,0.30691 -0.53975,0.29634 -0.84667,0.83609 -0.29633,0.53974 -0.29633,1.22766 0,0.68791 0.29633,1.22766 0.30692,0.53975 0.84667,0.84666 0.53975,0.29634 1.22766,0.29634 1.11125,0 1.86266,-0.87842 l 1.10067,1.016 q -0.52917,0.64558 -1.31233,0.98425 -0.78317,0.33866 -1.74625,0.33866 z"
         style="font-style:normal;font-variant:normal;font-weight:bold;font-stretch:normal;font-family:Montserrat;-inkscape-font-specification:'Montserrat Bold';fill:#00b5ff;fill-opacity:1"
         id="path886" />
      <path
         d="m -230.46908,129.24828 -0.99483,1.03716 v 1.87324 h -1.70391 v -7.40831 h 1.70391 v 3.46074 l 3.28083,-3.46074 h 1.90499 l -3.06916,3.30199 3.24908,4.10632 h -2.00025 z"
         style="font-style:normal;font-variant:normal;font-weight:bold;font-stretch:normal;font-family:Montserrat;-inkscape-font-specification:'Montserrat Bold';fill:#00b5ff;fill-opacity:1"
         id="path888" />
      <path
         d="m -222.31994,129.53402 v 2.62466 h -1.7145 v -2.64582 l -2.86807,-4.76249 h 1.82033 l 1.97907,3.29141 1.97908,-3.29141 h 1.68275 z"
         style="font-style:normal;font-variant:normal;font-weight:bold;font-stretch:normal;font-family:Montserrat;-inkscape-font-specification:'Montserrat Bold';fill:#00b5ff;fill-opacity:1"
         id="path890" />
    </g>
  </g>
</svg>
