<?xml version="1.0" encoding="UTF-8" standalone="no"?>
<svg
   xmlns:dc="http://purl.org/dc/elements/1.1/"
   xmlns:cc="http://creativecommons.org/ns#"
   xmlns:rdf="http://www.w3.org/1999/02/22-rdf-syntax-ns#"
   xmlns:svg="http://www.w3.org/2000/svg"
   xmlns="http://www.w3.org/2000/svg"
   xmlns:sodipodi="http://sodipodi.sourceforge.net/DTD/sodipodi-0.dtd"
   xmlns:inkscape="http://www.inkscape.org/namespaces/inkscape"
   width="200"
   height="200"
   viewBox="0 0 52.916668 52.916666"
   version="1.1"
   id="svg8"
   inkscape:version="1.0.2-2 (e86c870879, 2021-01-15)"
   sodipodi:docname="Mark.svg">
  <defs
     id="defs2">
    <rect
       x="-119.34777"
       y="141.44553"
       width="58.605209"
       height="21.034375"
       id="rect942" />
    <inkscape:path-effect
       effect="envelope"
       id="path-effect4658"
       is_visible="true"
       yy="true"
       xx="true"
       bendpath1="m -199.08406,108.42369 h 7.0057"
       bendpath2="m -192.07836,108.42369 v 6.75242"
       bendpath3="m -199.08406,115.17611 h 7.0057"
       bendpath4="m -199.08406,108.42369 v 6.75242" />
    <inkscape:path-effect
       effect="bend_path"
       id="path-effect4656"
       is_visible="true"
       bendpath="m -192.00142,114.60623 c 2.12577,-0.53066 4.48261,0.85111 7.0057,0"
       prop_scale="1"
       scale_y_rel="false"
       vertical="false"
       bendpath-nodetypes="cc" />
    <inkscape:path-effect
       effect="bounding_box"
       id="path-effect4654"
       is_visible="true"
       linkedpath=""
       visualbounds="false" />
  </defs>
  <sodipodi:namedview
     id="base"
     pagecolor="#ffffff"
     bordercolor="#666666"
     borderopacity="1.0"
     inkscape:pageopacity="0.0"
     inkscape:pageshadow="2"
     inkscape:zoom="2"
     inkscape:cx="11.526417"
     inkscape:cy="68.212004"
     inkscape:document-units="px"
     inkscape:current-layer="layer1"
     showgrid="false"
     fit-margin-top="0"
     fit-margin-left="0"
     fit-margin-right="0"
     fit-margin-bottom="0"
     inkscape:window-width="1920"
     inkscape:window-height="1017"
     inkscape:window-x="-8"
     inkscape:window-y="-8"
     inkscape:window-maximized="1"
     showguides="false"
     inkscape:object-nodes="true"
     units="px"
     inkscape:snap-page="true"
     inkscape:document-rotation="0" />
  <metadata
     id="metadata5">
    <rdf:RDF>
      <cc:Work
         rdf:about="">
        <dc:format>image/svg+xml</dc:format>
        <dc:type
           rdf:resource="http://purl.org/dc/dcmitype/StillImage" />
        <dc:title></dc:title>
      </cc:Work>
    </rdf:RDF>
  </metadata>
  <g
     inkscape:label="Layer 1"
     inkscape:groupmode="layer"
     id="layer1"
     transform="translate(98.048812,-95.14345)">
    <rect
       ry="3.96875"
       rx="3.96875"
       style="fill:#222222;fill-opacity:1;fill-rule:nonzero;stroke:none;stroke-width:0.5;stroke-linecap:butt;stroke-linejoin:round;stroke-miterlimit:4;stroke-dasharray:none;stroke-dashoffset:0;stroke-opacity:0.909449;paint-order:normal"
       id="rect5134"
       width="52.916668"
       height="52.916668"
       x="-98.048813"
       y="95.143448" />
    <rect
       ry="2.6458333"
       rx="2.6458333"
       y="97.789284"
       x="-95.402977"
       height="47.625"
       width="47.625"
       id="rect5136"
       style="fill:#20b8e7;fill-opacity:1;fill-rule:nonzero;stroke:none;stroke-width:0.5;stroke-linecap:butt;stroke-linejoin:round;stroke-miterlimit:4;stroke-dasharray:none;stroke-dashoffset:0;stroke-opacity:0.909449;paint-order:normal" />
    <path
       style="fill:#222222;fill-opacity:1;fill-rule:nonzero;stroke:none;stroke-width:0.5;stroke-linecap:butt;stroke-linejoin:round;stroke-miterlimit:4;stroke-dasharray:none;stroke-dashoffset:0;stroke-opacity:0.909449;paint-order:normal"
       d="m -96.593606,132.18512 v 8.33437 c 0,3.07817 2.478088,5.55625 5.55625,5.55625 h 38.893751 c 3.078162,0 5.55625,-2.47808 5.55625,-5.55625 v -8.33437 z"
       id="rect5205"
       inkscape:connector-curvature="0" />
    <g
       id="g859"
       transform="matrix(0.04136559,0,0,0.04136559,-92.273272,94.817194)"
       style="stroke-width:6.39623;fill:#222222;fill-opacity:1">
      <path
         d="m 147.8,591.1 v 0 c 4.4,-0.4 8.7,-1.1 13,-1.8 0.9,-0.2 1.9,-0.2 2.8,-0.4 2,-0.4 3.9,-0.9 5.9,-1.4 8.3,-1.9 16.5,-4.2 24.3,-7.3 v 0 256.6 h 612.5 v -256.6 0 c 7.8,3 15.9,5.4 24.3,7.3 2,0.4 3.9,1 5.9,1.4 0.9,0.2 1.9,0.3 2.8,0.4 4.3,0.7 8.6,1.4 13,1.8 v 0 c 5,0.5 10.1,0.8 15.3,0.8 10.5,0 20.7,-1.1 30.6,-2.9 v 309.2 c 0,25.3 -20.6,45.9 -45.9,45.9 H 147.8 c -25.4,0 -45.9,-20.6 -45.9,-45.9 V 588.9 c 9.9,1.8 20.1,2.9 30.6,2.9 5.2,0.1 10.3,-0.2 15.3,-0.7"
         id="path854"
         style="stroke-width:6.39623;fill:#222222;fill-opacity:1" />
      <path
         d="M 990,423.4 C 990,491.1 935.2,545.9 867.5,545.9 799.8,545.9 745,491.1 745,423.4 745,491.1 690.2,545.9 622.5,545.9 554.8,545.9 500,491.1 500,423.4 500,491.1 445.2,545.9 377.5,545.9 309.8,545.9 255,491.1 255,423.4 255,491.1 200.2,545.9 132.5,545.9 64.8,545.9 10,491.1 10,423.4 L 96.1,193.7 h 807.7 z"
         id="path4"
         style="stroke-width:6.39623;fill:#222222;fill-opacity:1" />
      <path
         style="fill:#222222;stroke-width:2.0468;fill-opacity:1"
         d="m 477.33545,828.74078 c -17.27984,-3.16429 -33.87644,-10.3491 -49.13919,-19.04706 -9.36088,-5.33461 -17.73831,-12.41176 -25.4118,-19.97492 -7.14611,-7.04334 -16.59544,-19.2039 -18.94283,-23.39338 l -1.55774,-2.78012 24.3053,-14.83544 c 18.91248,-11.54376 25.48381,-15.27861 29.22026,-17.37767 0.99784,2.3302 6.69869,12.46661 11.90834,17.03298 10.29645,9.02508 23.22462,15.40812 36.45802,18.92173 8.44977,2.24351 17.58919,2.53264 26.20629,1.05704 12.4297,-2.12844 24.65279,-7.01196 35.14008,-14.0151 7.84102,-5.23603 14.34653,-12.52319 19.74664,-20.25209 4.6829,-6.70238 10.49662,-18.67762 10.60131,-22.11958 l 0.0826,-2.71705 -11.76171,-2.89815 c -7.28215,-1.79433 -11.76631,-3.24026 -11.77375,-3.79642 20.66312,-12.3899 46.8416,-27.99301 67.67231,-40.31557 14.80927,24.69733 25.33004,43.21356 39.04568,67.72638 -0.6832,0.68317 -15.51961,-3.3319 -23.86483,-6.05601 -2.34151,6.73537 -1.70489,5.49843 -2.78507,8.16272 -3.814,9.40731 -7.61813,18.93419 -13.0139,27.53243 -6.68487,10.65249 -14.44573,20.84091 -23.70311,29.35348 -11.27215,10.36527 -24.30936,18.9732 -38.03185,25.76975 -12.86752,6.37308 -26.67142,11.35197 -40.8336,13.72306 -13.00848,2.17794 -26.59369,2.67475 -39.56749,0.29899 z M 381.15567,720.28933 c -12.50171,-21.77033 -28.21585,-46.56449 -40.19094,-65.39324 0.22687,-0.22689 5.73109,0.58327 12.23159,1.8003 6.50049,1.21702 12.05309,1.96275 12.33912,1.65719 0.286,-0.3056 1.85946,-3.81604 3.49658,-7.801 14.18065,-34.51777 31.90342,-57.22588 57.66598,-73.887 12.34629,-7.9846 20.32653,-11.62038 34.77781,-15.84468 17.13474,-5.00869 30.40125,-6.68785 47.22543,-5.97732 15.25435,0.64423 18.41773,0.36752 35.68583,5.6105 18.087,5.49159 25.45817,10.9661 37.36139,18.85606 10.67777,7.07767 26.92509,24.3296 33.54567,33.31417 2.83422,3.84621 5.48774,7.10663 5.89675,7.24539 0.40898,0.13879 -11.34765,7.37525 -26.12585,16.08111 -14.7782,8.70584 -27.10538,15.55273 -27.39373,15.21529 -0.28834,-0.33744 -2.30355,-3.86611 -3.89106,-5.42605 -11.49057,-11.29128 -24.48593,-22.3561 -39.76161,-27.47264 -11.0424,-3.69863 -23.54714,-4.02877 -34.90557,-1.45956 -15.44041,3.49252 -30.1423,11.69793 -41.97703,22.21193 -6.63728,5.89658 -9.91513,11.4222 -15.14333,21.911 -2.57941,5.17478 -3.74652,8.40409 -3.78705,10.47835 l -0.0586,2.99832 7.60764,2.03951 c 15.49455,4.1539 15.532,4.16774 14.38478,5.31496 -22.82179,13.56106 -40.15481,23.85421 -64.54349,38.447 -3.29508,2.0865 -3.19044,2.08463 -4.44032,0.0803 z"
         id="path825"
         inkscape:connector-curvature="0"
         sodipodi:nodetypes="aaascscaaaaacccccccaaaaaaccccssssssccscaaaasccccccc" />
    </g>
    <g
       aria-label="MARKETS"
       transform="translate(25.85816,-7.1332095)"
       id="text940"
       style="font-style:normal;font-weight:normal;font-size:8.46667px;line-height:1.25;font-family:sans-serif;white-space:pre;shape-inside:url(#rect942);fill:#eeeeee;fill-opacity:1;stroke:none">
      <path
         d="m -113.25165,149.22697 -0.008,-3.556 -1.74413,2.92947 h -0.61807 l -1.73567,-2.85327 v 3.4798 h -1.28693 v -5.92666 h 1.13453 l 2.21827,3.683 2.1844,-3.683 h 1.12607 l 0.0169,5.92666 z"
         style="font-style:normal;font-variant:normal;font-weight:bold;font-stretch:normal;font-size:8.46667px;font-family:Montserrat;-inkscape-font-specification:'Montserrat Bold';fill:#eeeeee;fill-opacity:1"
         id="path946" />
      <path
         d="m -106.65612,147.95697 h -2.75167 l -0.52493,1.27 h -1.40547 l 2.6416,-5.92666 h 1.35467 l 2.65007,5.92666 h -1.43933 z m -0.4318,-1.0414 -0.9398,-2.26906 -0.9398,2.26906 z"
         style="font-style:normal;font-variant:normal;font-weight:bold;font-stretch:normal;font-size:8.46667px;font-family:Montserrat;-inkscape-font-specification:'Montserrat Bold';fill:#eeeeee;fill-opacity:1"
         id="path948" />
      <path
         d="m -100.29766,149.22697 -1.143,-1.651 h -0.0677 -1.1938 v 1.651 h -1.3716 v -5.92666 h 2.5654 q 0.7874,0 1.36313,0.26246 0.584201,0.26247 0.897468,0.74507 0.313267,0.4826 0.313267,1.143 0,0.6604 -0.321734,1.143 -0.313266,0.47413 -0.897471,0.72813 l 1.329272,1.905 z m -0.0254,-3.77613 q 0,-0.49953 -0.32173,-0.762 -0.32174,-0.27093 -0.9398,-0.27093 h -1.1176 v 2.06586 h 1.1176 q 0.61806,0 0.9398,-0.27093 0.32173,-0.27093 0.32173,-0.762 z"
         style="font-style:normal;font-variant:normal;font-weight:bold;font-stretch:normal;font-size:8.46667px;font-family:Montserrat;-inkscape-font-specification:'Montserrat Bold';fill:#eeeeee;fill-opacity:1"
         id="path950" />
      <path
         d="m -95.691801,146.89864 -0.795867,0.82973 v 1.4986 h -1.363134 v -5.92666 h 1.363134 v 2.7686 l 2.624668,-2.7686 h 1.524 l -2.455334,2.6416 2.599268,3.28506 h -1.600201 z"
         style="font-style:normal;font-variant:normal;font-weight:bold;font-stretch:normal;font-size:8.46667px;font-family:Montserrat;-inkscape-font-specification:'Montserrat Bold';fill:#eeeeee;fill-opacity:1"
         id="path952" />
      <path
         d="m -86.996534,148.12631 v 1.10066 h -4.588935 v -5.92666 h 4.478869 v 1.10066 h -3.115735 v 1.28694 h 2.751668 v 1.0668 h -2.751668 v 1.3716 z"
         style="font-style:normal;font-variant:normal;font-weight:bold;font-stretch:normal;font-size:8.46667px;font-family:Montserrat;-inkscape-font-specification:'Montserrat Bold';fill:#eeeeee;fill-opacity:1"
         id="path954" />
      <path
         d="m -84.67667,144.41791 h -1.896534 v -1.1176 h 5.164668 v 1.1176 h -1.896534 v 4.80906 h -1.3716 z"
         style="font-style:normal;font-variant:normal;font-weight:bold;font-stretch:normal;font-size:8.46667px;font-family:Montserrat;-inkscape-font-specification:'Montserrat Bold';fill:#eeeeee;fill-opacity:1"
         id="path956" />
      <path
         d="m -78.766959,149.32857 q -0.702733,0 -1.363134,-0.18626 -0.651933,-0.19474 -1.049867,-0.49954 l 0.465667,-1.03293 q 0.381,0.2794 0.905934,0.44873 0.524933,0.16934 1.049867,0.16934 0.5842,0 0.8636,-0.16934 0.2794,-0.1778 0.2794,-0.46566 0,-0.21167 -0.169333,-0.34714 -0.160867,-0.14393 -0.423334,-0.2286 -0.254,-0.0847 -0.694267,-0.18626 -0.677333,-0.16087 -1.109133,-0.32174 -0.4318,-0.16086 -0.745067,-0.51646 -0.3048,-0.3556 -0.3048,-0.94827 0,-0.51647 0.2794,-0.93133 0.2794,-0.42334 0.8382,-0.66887 0.567267,-0.24554 1.380067,-0.24554 0.567267,0 1.109134,0.13547 0.541867,0.13547 0.948267,0.38947 l -0.423333,1.0414 q -0.821267,-0.46567 -1.642534,-0.46567 -0.575734,0 -0.855134,0.18627 -0.270934,0.18627 -0.270934,0.49107 0,0.3048 0.313267,0.4572 0.321734,0.14393 0.973667,0.28786 0.677334,0.16087 1.109134,0.32174 0.4318,0.16086 0.7366,0.508 0.313267,0.34713 0.313267,0.9398 0,0.508 -0.287867,0.93133 -0.2794,0.41487 -0.846667,0.6604 -0.567266,0.24553 -1.380067,0.24553 z"
         style="font-style:normal;font-variant:normal;font-weight:bold;font-stretch:normal;font-size:8.46667px;font-family:Montserrat;-inkscape-font-specification:'Montserrat Bold';fill:#eeeeee;fill-opacity:1"
         id="path958" />
    </g>
  </g>
</svg>
