<?xml version="1.0" encoding="UTF-8" standalone="no"?>
<svg
   xmlns:dc="http://purl.org/dc/elements/1.1/"
   xmlns:cc="http://creativecommons.org/ns#"
   xmlns:rdf="http://www.w3.org/1999/02/22-rdf-syntax-ns#"
   xmlns:svg="http://www.w3.org/2000/svg"
   xmlns="http://www.w3.org/2000/svg"
   xmlns:sodipodi="http://sodipodi.sourceforge.net/DTD/sodipodi-0.dtd"
   xmlns:inkscape="http://www.inkscape.org/namespaces/inkscape"
   width="200"
   height="200"
   viewBox="0 0 52.916668 52.916666"
   version="1.1"
   id="svg8"
   inkscape:version="1.0.2-2 (e86c870879, 2021-01-15)"
   sodipodi:docname="wholesome.svg">
  <defs
     id="defs2">
    <rect
       x="-144.3509"
       y="130.46533"
       width="86.915625"
       height="21.034375"
       id="rect873" />
    <rect
       x="-119.34777"
       y="141.44553"
       width="58.605209"
       height="21.034375"
       id="rect942" />
    <inkscape:path-effect
       effect="envelope"
       id="path-effect4658"
       is_visible="true"
       yy="true"
       xx="true"
       bendpath1="m -199.08406,108.42369 h 7.0057"
       bendpath2="m -192.07836,108.42369 v 6.75242"
       bendpath3="m -199.08406,115.17611 h 7.0057"
       bendpath4="m -199.08406,108.42369 v 6.75242" />
    <inkscape:path-effect
       effect="bend_path"
       id="path-effect4656"
       is_visible="true"
       bendpath="m -192.00142,114.60623 c 2.12577,-0.53066 4.48261,0.85111 7.0057,0"
       prop_scale="1"
       scale_y_rel="false"
       vertical="false"
       bendpath-nodetypes="cc" />
    <inkscape:path-effect
       effect="bounding_box"
       id="path-effect4654"
       is_visible="true"
       linkedpath=""
       visualbounds="false" />
  </defs>
  <sodipodi:namedview
     id="base"
     pagecolor="#ffffff"
     bordercolor="#666666"
     borderopacity="1.0"
     inkscape:pageopacity="0.0"
     inkscape:pageshadow="2"
     inkscape:zoom="2"
     inkscape:cx="11.526417"
     inkscape:cy="68.212004"
     inkscape:document-units="px"
     inkscape:current-layer="layer1"
     showgrid="false"
     fit-margin-top="0"
     fit-margin-left="0"
     fit-margin-right="0"
     fit-margin-bottom="0"
     inkscape:window-width="1920"
     inkscape:window-height="1017"
     inkscape:window-x="-8"
     inkscape:window-y="-8"
     inkscape:window-maximized="1"
     showguides="false"
     inkscape:object-nodes="true"
     units="px"
     inkscape:snap-page="true"
     inkscape:document-rotation="0" />
  <metadata
     id="metadata5">
    <rdf:RDF>
      <cc:Work
         rdf:about="">
        <dc:format>image/svg+xml</dc:format>
        <dc:type
           rdf:resource="http://purl.org/dc/dcmitype/StillImage" />
        <dc:title />
      </cc:Work>
    </rdf:RDF>
  </metadata>
  <g
     inkscape:label="Layer 1"
     inkscape:groupmode="layer"
     id="layer1"
     transform="translate(98.048812,-95.14345)">
    <rect
       ry="3.96875"
       rx="3.96875"
       style="fill:#222222;fill-opacity:1;fill-rule:nonzero;stroke:none;stroke-width:0.5;stroke-linecap:butt;stroke-linejoin:round;stroke-miterlimit:4;stroke-dasharray:none;stroke-dashoffset:0;stroke-opacity:0.909449;paint-order:normal"
       id="rect5134"
       width="52.916668"
       height="52.916668"
       x="-98.048813"
       y="95.143448" />
    <rect
       ry="2.6458333"
       rx="2.6458333"
       y="97.789284"
       x="-95.402977"
       height="47.625"
       width="47.625"
       id="rect5136"
       style="fill:#c000ff;fill-opacity:1;fill-rule:nonzero;stroke:none;stroke-width:0.5;stroke-linecap:butt;stroke-linejoin:round;stroke-miterlimit:4;stroke-dasharray:none;stroke-dashoffset:0;stroke-opacity:0.909449;paint-order:normal" />
    <path
       style="fill:#222222;fill-opacity:1;fill-rule:nonzero;stroke:none;stroke-width:0.5;stroke-linecap:butt;stroke-linejoin:round;stroke-miterlimit:4;stroke-dasharray:none;stroke-dashoffset:0;stroke-opacity:0.909449;paint-order:normal"
       d="m -96.593606,132.18512 v 8.33437 c 0,3.07817 2.478088,5.55625 5.55625,5.55625 h 38.893751 c 3.078162,0 5.55625,-2.47808 5.55625,-5.55625 v -8.33437 z"
       id="rect5205"
       inkscape:connector-curvature="0" />
    <g
       id="g869"
       transform="matrix(0.67422548,-0.09475622,0.09475622,0.67422548,-175.70425,93.220434)"
       style="fill:#222222;fill-opacity:1;stroke-width:1.46875">
      <path
         id="path854"
         style="fill:#222222;fill-opacity:1;stroke-width:1.46875"
         d="m 132.25918,55.063069 c 1.62712,-0.378169 3.3572,-0.127306 5.03218,-0.20019 7.01272,0.01599 14.02743,-0.03213 21.0389,0.02433 1.24744,0.268728 1.61139,1.820994 2.21105,2.810784 1.34074,2.38854 1.7397,5.172213 1.6251,7.877542 0.005,1.768155 0.0557,3.536905 -0.2478,5.282061 -0.27173,2.521985 -0.93115,5.095586 -2.29581,7.258572 -1.30334,1.916691 -3.77214,2.229139 -5.90977,2.139661 -2.49058,-0.04332 -4.99463,0.09717 -7.47478,-0.09228 -1.25919,-0.24524 -2.56154,-0.138774 -3.81894,-0.42016 -2.86038,-0.280658 -5.64026,-1.113067 -8.3801,-1.95297 -1.43502,-0.588241 -2.995,-1.071778 -4.03911,-2.289425 -1.70689,-1.141686 -2.64929,-3.182046 -2.99248,-5.160571 0.0194,-2.500286 -0.30737,-5.10458 0.72567,-7.464082 0.49311,-1.911281 1.41059,-3.671701 2.22975,-5.455571 0.7153,-0.848141 1.27127,-1.834311 2.2968,-2.357732 m 10.96147,15.314925 c 1.33929,-0.290243 2.05907,-1.544821 2.4128,-2.769258 0.93806,-0.862865 0.086,-3.90752 -0.62737,-1.77483 -0.43614,1.24093 -0.71522,2.841935 -2.02032,3.471577 -1.46014,0.570981 -2.91631,-0.451952 -2.90459,-2.004577 -0.26174,-1.307537 0.30341,-2.627927 0.80488,-3.73119 -1.10754,-1.164783 -1.91867,1.11247 -1.88312,2.02799 -0.20959,1.660294 -0.0642,3.977847 1.75415,4.698349 0.78397,0.199499 1.66606,0.232066 2.46366,0.08195 m 13.27252,1.636064 c 1.93043,-0.368701 2.89293,-2.519202 2.76362,-4.322423 -0.0713,-0.706835 0.27877,-1.801001 -0.6142,-2.075108 -1.17261,0.678073 0.0953,2.552641 -0.76272,3.615329 -0.29724,1.611026 -2.45529,2.168624 -3.74632,1.461003 -1.44397,-1.098344 -1.21505,-2.980749 -1.23031,-4.583891 -0.0929,-1.9626 -1.56279,0.191184 -1.05194,1.175071 -0.0726,1.417918 0.0208,2.960028 1.17696,3.963375 0.79424,1.122152 2.29161,0.769547 3.46589,0.766836" />
      <path
         id="path852"
         style="fill:#222222;fill-opacity:1;stroke-width:1.46875"
         d="m 157.91795,49.727084 c 0.99325,0.107688 0.38718,1.795676 0.54533,2.623026 0.43302,1.597079 -1.10999,1.546454 -2.22666,1.454862 -7.68499,-0.01532 -15.37186,0.03093 -23.05565,-0.02364 -0.99089,-0.355132 -1.28783,-2.688253 -0.18168,-3.223587 1.46111,-0.182577 2.93188,-0.441613 4.41378,-0.45597 2.48054,-0.03429 4.96943,0.07548 7.44371,-0.06891 2.5275,-0.361414 5.10451,-0.129201 7.65513,-0.19556 1.80098,-0.04275 3.61622,0.102545 5.40641,-0.11018" />
      <path
         id="path850"
         style="fill:#222222;fill-opacity:1;stroke-width:1.46875"
         d="m 142.58662,30.97712 c 1.69357,-0.659202 2.9531,1.018697 4.18439,1.87931 1.12537,0.99436 2.41887,1.7671 3.56132,2.73736 1.19654,0.916057 2.07565,2.20579 3.36578,2.998265 0.9431,0.905673 1.63525,2.023812 2.60516,2.909156 0.89913,0.988991 1.60736,2.160052 1.36633,3.563949 0.0445,1.268349 -0.27195,2.735766 -1.26764,3.564891 -2.81992,0.285855 -5.67295,0.09224 -8.50823,0.149157 -1.37523,-0.02133 -2.74645,-0.02461 -4.09581,0.25431 -2.73005,0.05858 -5.47024,-0.06999 -8.19416,0.07121 -1.26997,0.425332 -2.98992,0.340131 -3.36164,-1.221868 -0.31552,-1.332429 -0.41291,-2.888285 0.177,-4.166227 1.13864,-2.315471 2.38714,-4.582673 3.84148,-6.714474 1.22155,-1.421876 2.26713,-3.018327 3.74513,-4.202929 0.83819,-0.651493 1.63383,-1.326374 2.58141,-1.822139" />
    </g>
    <g
       aria-label="WHOLESOME"
       transform="translate(50.031284,5.0518425)"
       id="text871"
       style="font-style:normal;font-weight:normal;font-size:6.35px;line-height:1.25;font-family:sans-serif;white-space:pre;shape-inside:url(#rect873);fill:#c000ff;fill-opacity:1;stroke:none">
      <path
         d="m -137.10621,131.85609 -1.45415,4.445 h -1.1049 l -0.9779,-3.0099 -1.00965,3.0099 h -1.09855 l -1.4605,-4.445 h 1.0668 l 1.0033,3.1242 1.04775,-3.1242 h 0.9525 l 1.016,3.1496 1.03505,-3.1496 z"
         style="font-style:normal;font-variant:normal;font-weight:bold;font-stretch:normal;font-size:6.35px;font-family:Montserrat;-inkscape-font-specification:'Montserrat Bold';fill:#c000ff;fill-opacity:1"
         id="path891" />
      <path
         d="m -132.45803,131.85609 v 4.445 h -1.0287 v -1.82245 h -2.0193 v 1.82245 h -1.0287 v -4.445 h 1.0287 v 1.7526 h 2.0193 v -1.7526 z"
         style="font-style:normal;font-variant:normal;font-weight:bold;font-stretch:normal;font-size:6.35px;font-family:Montserrat;-inkscape-font-specification:'Montserrat Bold';fill:#c000ff;fill-opacity:1"
         id="path893" />
      <path
         d="m -129.25129,136.37729 q -0.69215,0 -1.25095,-0.29845 -0.55245,-0.29845 -0.86995,-0.81915 -0.31115,-0.52705 -0.31115,-1.1811 0,-0.65405 0.31115,-1.17475 0.3175,-0.52705 0.86995,-0.8255 0.5588,-0.29845 1.25095,-0.29845 0.69215,0 1.2446,0.29845 0.55245,0.29845 0.86995,0.8255 0.3175,0.5207 0.3175,1.17475 0,0.65405 -0.3175,1.1811 -0.3175,0.5207 -0.86995,0.81915 -0.55245,0.29845 -1.2446,0.29845 z m 0,-0.8763 q 0.3937,0 0.7112,-0.1778 0.3175,-0.18415 0.4953,-0.508 0.18415,-0.32385 0.18415,-0.7366 0,-0.41275 -0.18415,-0.7366 -0.1778,-0.32385 -0.4953,-0.50165 -0.3175,-0.18415 -0.7112,-0.18415 -0.3937,0 -0.7112,0.18415 -0.3175,0.1778 -0.50165,0.50165 -0.1778,0.32385 -0.1778,0.7366 0,0.41275 0.1778,0.7366 0.18415,0.32385 0.50165,0.508 0.3175,0.1778 0.7112,0.1778 z"
         style="font-style:normal;font-variant:normal;font-weight:bold;font-stretch:normal;font-size:6.35px;font-family:Montserrat;-inkscape-font-specification:'Montserrat Bold';fill:#c000ff;fill-opacity:1"
         id="path895" />
      <path
         d="m -126.04454,131.85609 h 1.0287 v 3.6068 h 2.22885 v 0.8382 h -3.25755 z"
         style="font-style:normal;font-variant:normal;font-weight:bold;font-stretch:normal;font-size:6.35px;font-family:Montserrat;-inkscape-font-specification:'Montserrat Bold';fill:#c000ff;fill-opacity:1"
         id="path897" />
      <path
         d="m -118.76745,135.47559 v 0.8255 h -3.4417 v -4.445 h 3.35915 v 0.8255 h -2.3368 v 0.9652 h 2.06375 v 0.8001 h -2.06375 v 1.0287 z"
         style="font-style:normal;font-variant:normal;font-weight:bold;font-stretch:normal;font-size:6.35px;font-family:Montserrat;-inkscape-font-specification:'Montserrat Bold';fill:#c000ff;fill-opacity:1"
         id="path899" />
      <path
         d="m -116.48781,136.37729 q -0.52705,0 -1.02235,-0.1397 -0.48895,-0.14605 -0.7874,-0.37465 l 0.34925,-0.7747 q 0.28575,0.20955 0.67945,0.33655 0.3937,0.127 0.7874,0.127 0.43815,0 0.6477,-0.127 0.20955,-0.13335 0.20955,-0.34925 0,-0.15875 -0.127,-0.26035 -0.12065,-0.10795 -0.3175,-0.17145 -0.1905,-0.0635 -0.5207,-0.1397 -0.508,-0.12065 -0.83185,-0.2413 -0.32385,-0.12065 -0.5588,-0.38735 -0.2286,-0.2667 -0.2286,-0.7112 0,-0.38735 0.20955,-0.6985 0.20955,-0.3175 0.62865,-0.50165 0.42545,-0.18415 1.03505,-0.18415 0.42545,0 0.83185,0.1016 0.4064,0.1016 0.7112,0.2921 l -0.3175,0.78105 q -0.61595,-0.34925 -1.2319,-0.34925 -0.4318,0 -0.64135,0.1397 -0.2032,0.1397 -0.2032,0.3683 0,0.2286 0.23495,0.3429 0.2413,0.10795 0.73025,0.2159 0.508,0.12065 0.83185,0.2413 0.32385,0.12065 0.55245,0.381 0.23495,0.26035 0.23495,0.70485 0,0.381 -0.2159,0.6985 -0.20955,0.31115 -0.635,0.4953 -0.42545,0.18415 -1.03505,0.18415 z"
         style="font-style:normal;font-variant:normal;font-weight:bold;font-stretch:normal;font-size:6.35px;font-family:Montserrat;-inkscape-font-specification:'Montserrat Bold';fill:#c000ff;fill-opacity:1"
         id="path901" />
      <path
         d="m -111.74437,136.37729 q -0.69215,0 -1.25095,-0.29845 -0.55245,-0.29845 -0.86995,-0.81915 -0.31115,-0.52705 -0.31115,-1.1811 0,-0.65405 0.31115,-1.17475 0.3175,-0.52705 0.86995,-0.8255 0.5588,-0.29845 1.25095,-0.29845 0.69215,0 1.2446,0.29845 0.55245,0.29845 0.86995,0.8255 0.3175,0.5207 0.3175,1.17475 0,0.65405 -0.3175,1.1811 -0.3175,0.5207 -0.86995,0.81915 -0.55245,0.29845 -1.2446,0.29845 z m 0,-0.8763 q 0.3937,0 0.7112,-0.1778 0.3175,-0.18415 0.4953,-0.508 0.18415,-0.32385 0.18415,-0.7366 0,-0.41275 -0.18415,-0.7366 -0.1778,-0.32385 -0.4953,-0.50165 -0.3175,-0.18415 -0.7112,-0.18415 -0.3937,0 -0.7112,0.18415 -0.3175,0.1778 -0.50165,0.50165 -0.1778,0.32385 -0.1778,0.7366 0,0.41275 0.1778,0.7366 0.18415,0.32385 0.50165,0.508 0.3175,0.1778 0.7112,0.1778 z"
         style="font-style:normal;font-variant:normal;font-weight:bold;font-stretch:normal;font-size:6.35px;font-family:Montserrat;-inkscape-font-specification:'Montserrat Bold';fill:#c000ff;fill-opacity:1"
         id="path903" />
      <path
         d="m -104.49267,136.30109 -0.006,-2.667 -1.3081,2.1971 h -0.46355 l -1.30175,-2.13995 v 2.60985 h -0.9652 v -4.445 h 0.8509 l 1.6637,2.76225 1.6383,-2.76225 h 0.84455 l 0.0127,4.445 z"
         style="font-style:normal;font-variant:normal;font-weight:bold;font-stretch:normal;font-size:6.35px;font-family:Montserrat;-inkscape-font-specification:'Montserrat Bold';fill:#c000ff;fill-opacity:1"
         id="path905" />
      <path
         d="m -99.031666,135.47559 v 0.8255 h -3.441704 v -4.445 h 3.359154 v 0.8255 h -2.336804 v 0.9652 h 2.063754 v 0.8001 h -2.063754 v 1.0287 z"
         style="font-style:normal;font-variant:normal;font-weight:bold;font-stretch:normal;font-size:6.35px;font-family:Montserrat;-inkscape-font-specification:'Montserrat Bold';fill:#c000ff;fill-opacity:1"
         id="path907" />
    </g>
  </g>
</svg>
